<?xml version="1.0" encoding="utf-8"?>
<!-- Generator: Adobe Illustrator 24.3.0, SVG Export Plug-In . SVG Version: 6.00 Build 0)  -->
<svg version="1.1" xmlns="http://www.w3.org/2000/svg" xmlns:xlink="http://www.w3.org/1999/xlink" x="0px" y="0px"
	 viewBox="0 0 500 500" style="enable-background:new 0 0 500 500;" xml:space="preserve">
<style type="text/css">
	.st0{fill-rule:evenodd;clip-rule:evenodd;fill:#1F3636;}
	.st1{fill-rule:evenodd;clip-rule:evenodd;fill:#70AD4B;}
	.st2{fill-rule:evenodd;clip-rule:evenodd;fill:#589044;}
	.st3{fill-rule:evenodd;clip-rule:evenodd;fill:#21214A;}
	.st4{fill-rule:evenodd;clip-rule:evenodd;fill:#FFFFFF;}
	.st5{fill-rule:evenodd;clip-rule:evenodd;fill:#C3C9DC;}
	.st6{fill-rule:evenodd;clip-rule:evenodd;fill:#9CC142;}
	.st7{fill-rule:evenodd;clip-rule:evenodd;fill:#7EA73F;}
	.st8{fill-rule:evenodd;clip-rule:evenodd;fill:#487538;}
	.st9{fill-rule:evenodd;clip-rule:evenodd;fill:#578542;}
	.st10{fill-rule:evenodd;clip-rule:evenodd;fill:#F2D03D;}
	.st11{fill-rule:evenodd;clip-rule:evenodd;fill:#ECB830;}
	.st12{fill-rule:evenodd;clip-rule:evenodd;fill:#F7E35B;}
	.st13{fill-rule:evenodd;clip-rule:evenodd;fill:#C99227;}
	.st14{fill-rule:evenodd;clip-rule:evenodd;fill:#F0CA99;}
	.st15{fill-rule:evenodd;clip-rule:evenodd;fill:#CB9A70;}
	.st16{fill-rule:evenodd;clip-rule:evenodd;fill:#6E5434;}
	.st17{fill-rule:evenodd;clip-rule:evenodd;fill:#F8E8D5;}
	.st18{fill-rule:evenodd;clip-rule:evenodd;fill:#B0B5C6;}
	.st19{fill-rule:evenodd;clip-rule:evenodd;fill:#E6973E;}
	.st20{fill-rule:evenodd;clip-rule:evenodd;fill:#CE7D31;}
</style>
<g id="BACKGROUND">
	<rect x="-0.1" class="st0" width="500" height="500"/>
</g>
<g id="OBJECTS">
	<g>
		<path class="st1" d="M486,482.8c-12.1-24.2-28.7-128.8-60.8-127.5c-38.1,1.6-37.8,100.5-27.3,144.7h76
			C482.4,494.5,487.6,488.5,486,482.8z"/>
		<path class="st2" d="M486.3,485.3c-2.8-8.4-13.6-45.6-22.4-72.6c-4.6-14.2-9.1-25.4-10.6-28.8c-1.3,0.3-2.2,0.8-2.2,1.3
			c-0.4-5.3-14.8-20.2-19.5-21.4c2,4.7-7.7,38.8-14.4,25.8c-6.4-12.4-8.2-7.4-13.3,5.8c-6.5,16.9-10.5,46.4-11.3,66.2
			c0.1,1.1,0.7,21.1,4.6,38.5h77.9C480.4,495.4,484.3,490.3,486.3,485.3z"/>
		<path class="st3" d="M484.9,483.1c-3.5-7-7.3-20.5-11.7-36.2c-11-38.9-26-91.5-47.9-90.6c-18.1,0.8-27.2,24.8-30.6,54.2
			c-1.3,11.2-1.8,23.2-1.6,35c0.2,11.8,1.1,23.3,2.4,33.8c1,7.7,2.2,14.7,3.6,20.7h-2.2c-1.4-6-2.7-12.9-3.7-20.4
			c-1.3-10.5-2.2-22.1-2.4-34c-0.2-11.9,0.3-23.9,1.6-35.2c3.6-30.4,13.3-55.3,32.9-56.2c23.8-1,39,52.5,50.2,92.1
			c4.4,15.7,8.3,29.1,11.7,35.9l0.1,0.2c0.2,0.7,0.3,1.4,0.3,2.1c0.1,5.2-4.4,10.5-11.6,15.4H472c8-4.9,13.3-10.2,13.2-15.3
			C485.1,484.2,485.1,483.6,484.9,483.1z"/>
		<path class="st2" d="M423.9,367.5c-1.2,3.4-0.2,1.9-3.3,4.3C421.8,368.1,420.6,369.5,423.9,367.5z"/>
		<path class="st2" d="M417.3,381.9c4-1.1,2-1.1,6,0v0C419.3,383.1,421.3,383.1,417.3,381.9z"/>
		<path class="st1" d="M410.4,399.9c-1.9,3.8-0.5,1.9-4.6,5.2C408.3,400.6,406.6,402.2,410.4,399.9z"/>
		<path class="st1" d="M424.1,411.5c1.7,3.5,1.5,1.7,0.9,5.4h0C423.2,413.4,423.5,415.2,424.1,411.5z"/>
		<path class="st1" d="M444,400.7c3.6,1.6,2.2,0.4,4.2,3.6l0,0C444.6,402.7,445.9,403.9,444,400.7z"/>
		<path class="st1" d="M416.6,430.7c-4.2,0.5-1.9,0.6-6.8-0.9C414.8,429.3,412.5,428.8,416.6,430.7z"/>
	</g>
	<g>
		<g>
			<path class="st1" d="M369.4,404.6c-12.1-24.2-28.7-128.8-60.8-127.5c-49.2,2.1-34.4,166.2-16.2,165.6
				C317.2,441.8,374.1,422,369.4,404.6z"/>
			<path class="st2" d="M369.7,407.1c-2.8-8.4-13.6-45.6-22.4-72.6c-4.6-14.2-9.1-25.4-10.6-28.8c-1.3,0.3-2.2,0.8-2.2,1.3
				c-0.4-5.3-14.8-20.2-19.5-21.4c2,4.7-7.7,38.8-14.4,25.8c-6.4-12.4-8.2-7.4-13.3,5.8c-6.5,16.9-10.5,46.4-11.3,66.2
				c0.1,1.6,1.2,39.9,11.2,56.7C314.8,451.3,361.1,429,369.7,407.1z"/>
			<path class="st3" d="M368.3,404.9c-3.5-7-7.3-20.5-11.7-36.2c-11-38.9-26-91.5-47.9-90.6c-18.1,0.8-27.2,24.8-30.6,54.2
				c-1.3,11.2-1.8,23.2-1.6,35c0.2,11.8,1.1,23.3,2.4,33.8c3,23.4,8.2,40.7,13.6,40.5c5.4-0.2,12.4-1.3,20-3.1
				c12.7-3,26.9-8,37.9-13.8c10.7-5.7,18.4-12.1,18.2-18.2C368.5,406,368.5,405.5,368.3,404.9L368.3,404.9z M358.8,368.2
				c4.4,15.7,8.3,29.1,11.7,35.9l0.1,0.2c0.2,0.7,0.3,1.4,0.3,2.1c0.1,7-8,14-19.4,20.1c-11.2,5.9-25.6,11-38.5,14.1
				c-7.7,1.9-14.9,3-20.5,3.2c-6.7,0.2-12.7-17.9-15.9-42.3c-1.3-10.5-2.2-22.1-2.4-34c-0.2-11.9,0.3-23.9,1.6-35.2
				c3.6-30.4,13.3-55.3,32.9-56.2C332.4,275.1,347.6,328.6,358.8,368.2z"/>
			<path class="st2" d="M307.3,289.3c-1.2,3.4-0.2,1.9-3.3,4.3C305.2,289.9,304,291.3,307.3,289.3z"/>
			<path class="st2" d="M300.7,303.7c4-1.1,2-1.1,6,0v0C302.7,304.9,304.7,304.9,300.7,303.7z"/>
			<path class="st1" d="M317.2,308.2c3.9-0.1,2.2-0.6,5.3,1.5v0C318.6,309.8,320.3,310.3,317.2,308.2z"/>
			<path class="st1" d="M293.8,321.7c-1.9,3.8-0.5,1.9-4.6,5.2C291.6,322.4,290,324,293.8,321.7z"/>
			<path class="st4" d="M299.1,284.9c-4.2,7.1-6.7,12.5-10.3,19.8C290.8,293.4,290.4,293.2,299.1,284.9z"/>
			<path class="st1" d="M307.5,333.3c1.7,3.5,1.5,1.7,0.9,5.4l0,0C306.6,335.2,306.9,337,307.5,333.3z"/>
			<path class="st1" d="M327.4,322.5c3.6,1.6,2.2,0.4,4.2,3.6v0C328,324.5,329.3,325.7,327.4,322.5z"/>
			<path class="st1" d="M300,352.6c-4.2,0.5-1.9,0.6-6.8-0.9C298.2,351.1,295.9,350.6,300,352.6z"/>
			<path class="st1" d="M320.8,358.2c-1.9,3.8-0.5,1.9-4.5,5.2C318.7,358.9,317,360.5,320.8,358.2z"/>
			<path class="st1" d="M334.9,370.2c3.5,1.9,2.2,0.6,3.8,4v0C335.3,372.2,336.6,373.6,334.9,370.2z"/>
		</g>
	</g>
	<g>
		<g>
			<path class="st4" d="M-0.1,97.2c34.3-0.9,52.8,34.8,34.9,63.6c20.6-14.1,51.6,5,36.7,40c25.6-13.6,58.3,19.1,55.5,55.5
				c-4.6,58.7-45.2,142.7-67.5,146c-14.8,2.2-39.7-20.4-59.7-37.1V97.2z"/>
			<path class="st3" d="M37.5,116.7c3.2,5.8,5.1,12.4,5.3,19.3c0.2,7.2-1.4,14.7-5.1,22c5-2.5,10.3-3.3,15.4-2.6
				c5,0.6,9.7,2.6,13.6,5.9c3.9,3.2,6.9,7.7,8.6,13.1c2,6.7,1.8,15-1.7,24.4c4.2-1.7,8.5-2.4,12.8-2c6.8,0.5,13.5,3.4,19.6,8.1
				c6,4.6,11.3,11,15.2,18.4c5.1,9.7,8,21.2,7,33.2c-2.3,28.9-13.2,63.8-26.4,92.4c-13.8,29.9-30.3,52.8-42,54.6
				C45.9,405.4,24,387,5.1,371c-1.8-1.5-3.5-3-5.2-4.4v-2.7c2.1,1.8,4.3,3.6,6.6,5.5c18.6,15.7,40,33.8,53,31.9
				c11-1.6,26.9-24.1,40.4-53.4c13.1-28.3,23.9-63,26.2-91.6c0.9-11.5-1.8-22.7-6.8-32.1c-3.8-7.2-8.9-13.3-14.6-17.7
				c-5.7-4.4-12.1-7.2-18.5-7.7c-7-0.5-11.2,1.3-17,4.6c4.4-8.8,6.9-18.8,4.1-28.5c-1.5-5-4.3-9.1-7.9-12.1c-3.6-3-8-4.8-12.5-5.4
				c-5.8-0.7-12,0.6-17.4,4.3l-1.5-1.4c4.9-7.9,7-16.2,6.8-24.2c-0.2-6.6-1.9-12.8-5-18.3c-4.9-8.8-16.3-18.2-26.7-19.9
				C22.5,98.6,31.9,106.7,37.5,116.7z"/>
			<path class="st5" d="M-0.1,417.3V191.8c20.4,3.3,28.9,31,23.6,44.8c11-16,45.7-13.4,56,22.3C109.9,405.5,35.5,422.4-0.1,417.3z"
				/>
			<path class="st3" d="M20.8,155.3c12.5,1.2,19,11.5,19.4,23.9C43.7,163,31.1,152.6,20.8,155.3z"/>
		</g>
		<path class="st4" d="M67.8,157.2c7.3,3.8,11.2,6.4,10.7,15.1C75.2,164.2,74.1,163.7,67.8,157.2z"/>
	</g>
	<g>
		<g>
			<path class="st4" d="M499.9,173.4c-17.2-1.7-31.1,16.7-24.1,31.7c-22.3-22.5-66.9-1-62.4,34.2c-32.8-38.5-58,15.5-30.8,15.5
				c15-0.2,18.9-0.3,42.9-0.3c-9,43.1,49.2,68.5,74.3,52.2V173.4z"/>
			<path class="st5" d="M424.6,262c-1.3,38.5,51.6,60,75.2,44.7v-80.1c-12.8-0.9-21.8,15.1-17.8,28.9
				C468,233.7,434.9,243.2,424.6,262z"/>
			<path class="st3" d="M494.3,173.6c-12.5,1.6-23.4,18.6-17.6,31.1l-1.7,1.2c-7.3-7.3-17-9.8-26.5-8.6c-4.3,0.5-8.6,1.9-12.6,3.8
				c-4,2-7.7,4.6-10.9,7.7c-7.6,7.5-12.2,18.1-10.6,30.4l-1.8,0.8c-10.2-11.9-19.5-14.7-26.6-13c-5.2,1.2-9.2,4.8-11.6,9
				c-2.4,4.2-3.1,8.9-1.6,12.4c1.3,3.1,4.4,5.3,9.8,5.3v0l7-0.1c10.2-0.1,16.4-0.2,35.9-0.2h1.3l-0.3,1.3
				c-2.4,11.5,0.1,21.8,5.6,30.2c4.1,6.4,9.9,11.7,16.4,15.9c6.6,4.2,13.9,7.1,21.2,8.6c11,2.3,21.9,1.3,29.5-3.6l0.6-0.2v2.3
				c-8.1,4.9-19.2,5.9-30.5,3.5c-7.5-1.6-15.1-4.6-21.9-8.9c-6.8-4.3-12.8-9.9-17.1-16.5c-5.5-8.6-8.2-18.9-6.1-30.5
				c-19.1,0-25.1,0.1-34.6,0.2l-7,0.1l0,0c-6.3,0-10.1-2.7-11.7-6.6c-1.7-4.1-0.9-9.5,1.7-14.2c2.6-4.7,7.1-8.7,12.9-10
				c7.3-1.8,16.6,0.7,26.6,11.3c-0.6-11.7,4.2-21.7,11.5-29c3.4-3.3,7.3-6.1,11.5-8.1c4.2-2.1,8.7-3.4,13.2-4
				c8.9-1.1,17.9,0.8,25.2,6.5C470.3,188.4,480.1,173.4,494.3,173.6z"/>
			<path class="st3" d="M488.5,204.6c-13.3-3.6-18.2,4.2-17.9,16.6C465,206.7,479.1,197.2,488.5,204.6z"/>
		</g>
		<path class="st4" d="M430.7,197.3c7-6.5,11.2-7.6,22.3-6C444.4,192.1,438.7,193.1,430.7,197.3z"/>
	</g>
	<g>
		<path class="st1" d="M499.9,300.5c-7.4-16.4-16-27.9-25.8-27.4c-44.9,2.3-27.4,166.1-10.8,165.4c9.3-0.4,23.5-4,36.6-9.3V300.5z"
			/>
		<path class="st2" d="M499.9,303c-3-6.9-15.2-20.2-19.8-21.5c10.1,12.9-15,30.3-23.3,19.1c-8.2,15.2-9.9,73.3-10,78.6
			c0.1,1.6,1.6,14.2,1.7,15.8c6.5,9.5,4.1,31.6,51.4-33.1V303z"/>
		<path class="st3" d="M497.7,295.9c-6.9-13.4-15.2-22.2-23.6-21.8c-16.5,0.8-24.3,24.9-26.7,54.3c-0.9,11.2-1.1,23.2-0.6,34.9
			c0.5,11.8,1.5,23.3,3,33.7c3.3,23.3,8.5,40.6,13.4,40.4c4.9-0.2,11.3-1.4,18.2-3.2c6-1.6,12.4-3.7,18.5-6.2v2.3
			c-6,2.4-12.1,4.4-17.9,6c-7,1.9-13.5,3-18.7,3.3c-6.1,0.3-12.1-17.8-15.5-42.2c-1.5-10.4-2.6-22.1-3-33.9
			c-0.5-11.9-0.3-23.9,0.6-35.2c2.5-30.4,10.8-55.3,28.7-56.2C485.8,271.5,496.5,288.9,497.7,295.9z"/>
		<path class="st2" d="M473.1,285.2c-1,3.4-0.1,1.9-2.9,4.3C471.2,285.9,470.2,287.3,473.1,285.2z"/>
		<path class="st2" d="M467.5,299.7c3.6-1.2,1.8-1.2,5.5,0v0C469.3,300.8,471.1,300.8,467.5,299.7z"/>
		<path class="st1" d="M482.6,304.1c3.6-0.1,2-0.6,4.9,1.4v0C483.9,305.7,485.6,306.2,482.6,304.1z"/>
		<path class="st1" d="M461.6,317.6c-1.7,3.8-0.5,1.9-4,5.2C459.6,318.3,458.1,319.9,461.6,317.6z"/>
		<path class="st1" d="M487.4,328.1c-1.7,3.8-0.5,1.9-4,5.2C485.4,328.8,483.9,330.4,487.4,328.1z"/>
		<path class="st1" d="M464.1,345.1c2.9,2.1,1.9,0.7,3,4.1l0,0C464.2,347.2,465.2,348.6,464.1,345.1z"/>
		<path class="st1" d="M457.6,364.5c3.3-1.4,1.6-1.3,5.1-0.3l0,0C459.3,365.5,461,365.4,457.6,364.5z"/>
		<path class="st1" d="M472.2,323.2c3.3-1.4,1.6-1.3,5.1-0.3l0,0C473.9,324.2,475.6,324.1,472.2,323.2z"/>
	</g>
	<g>
		<path class="st1" d="M34.9,258.4c24.8,10.1,27.5,146.8,19.9,191.5H-0.1V277.3C12.8,263,25.3,254.5,34.9,258.4z"/>
		<path class="st2" d="M57.2,345c2.5,40,1.2,83.2-2.4,104.9H-0.1V292.3c4.9,18.2,28.1,40.9,37.2,30.9c9.1-10.1,8.6-28.7,8.7-28.6
			C49.5,299.8,53.7,321.4,57.2,345z"/>
		<path class="st3" d="M35.4,257.4c11.9,4.9,18.8,36.8,22,74.1c3.7,43.3,2.6,94-1.4,118.3h-2.5c4.1-23.9,5.2-74.8,1.5-118.2
			c-3.2-36.7-9.7-67.9-20.6-72.4l-0.2-0.1c-9.1-3.5-19.6,3.3-31.9,15.6c7.6-11.1,21.3-21.9,32.9-17.5L35.4,257.4z"/>
		<path class="st2" d="M20.5,276.2c3.1,4.5,2.4,2.1,2.1,7.2h0C19.6,279,20.3,281.4,20.5,276.2z"/>
		<path class="st1" d="M39.3,346c1.6,5.6,1.6,2.9,0,8.2h0C37.7,348.6,37.7,351.3,39.3,346z"/>
		<path class="st1" d="M17.2,394.8c5.7-0.4,3-0.9,8.1,1.4v0C19.5,396.7,22.2,397.1,17.2,394.8z"/>
		<path class="st2" d="M27.1,299.9c5-1.8,2.9-1.1,7.6-1.1C32.1,301.7,31.4,301,27.1,299.9z"/>
		<path class="st1" d="M38.6,371.7c6.1-1.2,3.2-1.5,8.8,0.9v0C41.3,373.8,44.2,374.1,38.6,371.7z"/>
		<path class="st2" d="M8.9,292.3c6.7,2.3,3.8,0.6,8.6,5.2l0,0C10.8,295.2,13.7,297,8.9,292.3z"/>
		<path class="st4" d="M28.6,262.8c-9.1,4.2-12,7.1-20,13.1C13.9,268.6,18,263.7,28.6,262.8z"/>
		<path class="st1" d="M11.7,341.9c4.4-3.8,2-2.7,7.5-3.5l0,0C14.7,342.3,17.1,341.1,11.7,341.9z"/>
		<path class="st1" d="M5.2,319.2c5.4,2.3,3.3,0.6,6.4,5.1v0C6.2,322.1,8.3,323.8,5.2,319.2z"/>
	</g>
	<g>
		<path class="st4" d="M293.1,383.2c10.6-27.6-38.6-42.1-33.6-6.1c-6.7-44.9-62.6-34.8-58.1,1.6c-4.7-12.7-24.5-11.2-26.7-0.5
			c8.8-22.2-17.4-35.2-26.4-18.8c-30.7,55.4-6.6,72.8,45.8,74.1C246.6,434.8,301.1,406.8,293.1,383.2z"/>
		<path class="st3" d="M162.2,350.8c3.5,0.9,6.7,2.7,9.2,5.2c2.5,2.5,4.3,5.6,5.2,9.2c0.5,2.2,0.7,4.5,0.5,6.9
			c1.7-1.5,4-2.6,6.5-3.3c2.4-0.6,9.8-0.5,13.1,3.6c-0.3-0.1-0.5-0.3-0.8-0.4c-3.9-1.9-8.2-2.1-11.8-1.2c-6.5,1.7-8.1,4.8-9.6,9.4
			c-0.9-2.2-0.3-5.2,0.3-6.9c0.4-2.7,0.3-5.3-0.3-7.7c-0.8-3.2-2.4-6-4.7-8.2c-2.2-2.2-5.1-3.8-8.2-4.7c-3.1-0.8-6.5-0.9-10.1,0
			C154.1,350,159.4,350.1,162.2,350.8z"/>
		<path class="st3" d="M274.2,355.2c13-0.5,24.2,9.6,19.5,26.4c1.7-16.8-9.2-25.4-19.2-24.1L274.2,355.2z"/>
		<path class="st5" d="M152.8,418.3c10.1,4.6,24.2,6.7,41.3,7.1c12,0.3,24.1-0.9,35.5-3.3c4.4-8.1,4.2-17.7-3.7-27.3
			c-14.2-10.9-30.7-4.9-31.2,10C192.7,393.1,157.7,396.1,152.8,418.3z"/>
	</g>
	<g>
		<g>
			<path class="st1" d="M302.8,460.7c-9.2-25.4-13.9-131.3-45.9-133.6c-49.1-3.5-53.2,161.2-35,162.7
				C246.7,491.8,305.4,478.6,302.8,460.7z"/>
			<path class="st2" d="M302.8,463.3c-1.8-8.7-8.3-46.8-14-74.7c-3-14.7-6.1-26.3-7.3-29.8c-1.4,0.2-2.3,0.6-2.3,1
				c0.2-5.3-12.4-21.7-17-23.5c1.4,4.9-12.1,37.7-17.2,24c-4.9-13.1-7.3-8.3-13.9,4.2c-8.4,16-15.7,44.9-18.8,64.5
				c-0.1,1.6-3.4,39.8,4.6,57.6C243.2,500.9,291.8,484,302.8,463.3z"/>
			<path class="st3" d="M301.7,460.9c-2.7-7.4-4.9-21.2-7.5-37.3c-6.5-39.9-15.4-93.9-37.3-95.5c-18-1.3-29.9,21.6-36.6,50.4
				c-2.6,11-4.4,22.9-5.6,34.6c-1.1,11.7-1.6,23.3-1.5,33.8c0.3,23.6,3.5,41.4,8.9,41.8c5.4,0.4,12.5,0.1,20.2-0.8
				c12.9-1.6,27.6-4.9,39.2-9.4c11.3-4.4,19.6-10,20.2-16C301.8,462,301.8,461.5,301.7,460.9L301.7,460.9z M296.4,423.4
				c2.6,16.1,4.9,29.9,7.5,37l0.1,0.2c0.1,0.7,0.1,1.4,0.1,2.1c-0.7,6.9-9.5,13-21.6,17.7c-11.8,4.6-26.7,8-39.8,9.6
				c-7.9,1-15.2,1.3-20.7,0.8c-6.7-0.5-10.6-19.2-11-43.9c-0.1-10.5,0.3-22.2,1.5-34c1.2-11.8,3-23.8,5.6-34.8
				c7-29.8,19.5-53.4,39.1-52C280.8,327.8,289.8,382.8,296.4,423.4z"/>
			<path class="st2" d="M254.2,339.1c-1.6,3.2-0.4,1.9-3.7,3.9C252.1,339.5,250.8,340.7,254.2,339.1z"/>
			<path class="st2" d="M246.1,352.7c4.1-0.7,2.1-0.9,5.9,0.7v0C247.9,354.1,249.9,354.3,246.1,352.7z"/>
			<path class="st1" d="M261.9,359c3.9,0.3,2.2-0.4,5.1,2.1v0C263.1,360.7,264.8,361.4,261.9,359z"/>
			<path class="st1" d="M237.2,369.7c-2.4,3.5-0.8,1.9-5.1,4.6C234.9,370.2,233.1,371.6,237.2,369.7z"/>
			<path class="st4" d="M246.6,333.8c-5,6.6-8.1,11.7-12.4,18.5C237.3,341.3,237,341.1,246.6,333.8z"/>
			<path class="st1" d="M249.4,382.8c1.3,3.7,1.3,1.9,0.2,5.5h0C248.3,384.6,248.4,386.5,249.4,382.8z"/>
			<path class="st1" d="M270.4,374.3c3.4,2,2.2,0.6,3.7,4.1l0,0C270.7,376.4,272,377.8,270.4,374.3z"/>
			<path class="st1" d="M239.7,401.1c-4.2,0-2,0.4-6.7-1.7C238.1,399.5,235.9,398.7,239.7,401.1z"/>
		</g>
	</g>
	<g>
		<path class="st6" d="M422.7,500c-56.1-94.1-284.2-122-337.5,0H422.7z"/>
		<path class="st7" d="M85.9,500c48.9-82,259.2-93.9,332.3,0H85.9z"/>
		<path class="st3" d="M421.5,500c-2.1-3.5-4.4-6.8-6.9-10.1c-14.3-18.6-35.7-33.9-60.8-45.6c-32.5-15.2-71.4-23.9-109.6-24.6
			c-38.2-0.7-75.8,6.7-105.8,23.8c-22.7,13-41.1,31.5-52.1,56.5h-0.6c7.6-20.8,25.5-39,29.3-42.4c6.8-6,14.3-11.3,22.4-15.9
			c30.3-17.3,68.3-24.8,106.8-24.1c38.5,0.7,77.7,9.5,110.5,24.8c25.7,12,47.5,27.9,62.1,47c1.5,1.9,4,5.9,6,10.6H421.5z"/>
		<path class="st8" d="M132,476.3c-4.6-2.3-4.4-2.5-7.8,0.3c1.4,0.1,1.1,0.2,2.2-0.2C127.9,475.9,130.8,476.3,132,476.3z"/>
		<path class="st8" d="M163.8,468.8c-4.7-2.9-5.6-4.1-8.7,0C160.7,467.1,155.5,467.5,163.8,468.8z"/>
		<path class="st8" d="M338.6,447.1c-2.9-7.3-3.7-4.2-7.2-2.3C334.5,443.5,335.6,443.6,338.6,447.1z"/>
		<path class="st8" d="M151.4,499.2c-4.7-2.9-5.6-4.1-8.7,0C148.2,497.5,143.1,497.9,151.4,499.2z"/>
		<path class="st7" d="M250.8,430.5c-23.9-5.5-62.7,0.1-78.7,8.4C196.6,433.9,226.8,429.5,250.8,430.5z"/>
		<path class="st6" d="M246.2,440.2c14.3,0.5,60.1,7.3,71.1,10.7C317.5,451,287.4,437.9,246.2,440.2z"/>
		<path class="st9" d="M204.9,460.6c2.7-4.4,4.5-3.2,7.7,0.1C206.3,460.1,210.4,459.6,204.9,460.6z"/>
		<path class="st9" d="M187.3,480c2.7-4.4,4.5-3.2,7.7,0.1C188.7,479.4,192.8,478.9,187.3,480z"/>
		<path class="st9" d="M230.5,468.7c2.7-4.4,4.5-3.2,7.7,0.1C231.9,468.1,236,467.6,230.5,468.7z"/>
		<path class="st9" d="M233.8,447.9c2.7-4.4,4.5-3.2,7.7,0.1C235.2,447.3,239.3,446.8,233.8,447.9z"/>
		<path class="st9" d="M259.8,461.6c2.7-4.4,4.5-3.2,7.7,0.1C261.2,461,265.3,460.5,259.8,461.6z"/>
	</g>
	<g>
		<path class="st6" d="M499.9,345.2c-16.9-1.2-32.4,12-30.1,30.9c-3.1-2.1-19.2,1.6-14.6,15.8c-11.2-4.3-25.1,5.1-24.3,16.9
			c-10.3-5.4-23,4.1-15.4,18c-14-0.4-26.4,17-15.1,33.4c13.8,20,63.9,16.4,99.4,6.5V345.2z"/>
		<path class="st7" d="M499.9,409.9v-45.4c-8.2,4.8-12.8,15.9-14.3,25c-8.7-7.2-24.7,7.5-22.6,16.1c-27.4,9.6-48.9,54.1-41.8,49.8
			C443.2,442,477,429.4,499.9,409.9z"/>
		<path class="st3" d="M495.5,345.2c-6.1,0.8-13,4.6-17.3,8.8c-4.2,4.2-7,9.8-7.5,16.4c-0.1,1.8-0.1,3.7,0.1,5.6l0.3,2.3l-1.9-1.3
			c-0.9-0.6-3.2-0.5-5.8,0.3c-1.2,0.4-2.4,1-3.6,1.7c-1.1,0.8-2.1,1.7-2.9,2.9c-1.5,2.3-2.1,5.5-0.8,9.7l0.7,2.1l-2-0.8
			c-2.2-0.8-4.4-1.1-6.7-1c-3.3,0.2-6.6,1.5-9.3,3.4c-2.7,1.9-4.9,4.5-6,7.6c-0.7,1.8-1,3.8-0.9,5.9l0.1,1.9l-1.7-0.9
			c-2.7-1.4-5.7-1.7-8.4-1.1c-2.1,0.5-4.1,1.5-5.6,3c-1.5,1.5-2.6,3.4-3,5.6c-0.4,2.1-0.2,4.6,0.8,7.2c-3.6-3.7-2.7-10.9,0.8-14.3
			c1.8-1.8,4.1-3,6.6-3.6c2.6-0.6,5.5-0.5,8.2,0.6c0.1-1.8,0.4-3.5,1.1-5.1c1.3-3.4,3.7-6.4,6.8-8.5c3-2.2,6.6-3.5,10.4-3.8
			c1.9-0.1,3.8,0,5.7,0.5c-0.9-4-0.1-7.2,1.5-9.6c0.9-1.4,2.1-2.5,3.4-3.4c1.3-0.9,2.7-1.5,4.1-2c2.1-0.7,4.3-0.9,5.8-0.6
			c-0.1-1.5-0.1-3,0-4.4C469.6,356.2,481.2,344.7,495.5,345.2z"/>
		<path class="st7" d="M437,426.7c4.5-12.3,4.5-13.4,16.1-19.6C444.2,415,443.5,417,437,426.7z"/>
		<path class="st7" d="M486,390.6c-7.2-6.7-15.2-2.5-22.1,3C469.3,385,482.7,381.3,486,390.6z"/>
		<path class="st7" d="M497.4,361.7c-6.2,5.3-6.6,5.8-10.3,13.1C486.9,367.8,490.5,363.2,497.4,361.7z"/>
		<path class="st4" d="M486.4,351.4c-6.8,6.6-7.7,7.2-11.5,15.3C475.1,357.8,478.8,355.2,486.4,351.4z"/>
		<path class="st8" d="M423.7,422.6c-1.1-2.1,0.4-3.9,3.4-2.2C425.5,421.6,425.1,421.5,423.7,422.6z"/>
		<path class="st8" d="M449.6,402.6c-0.2-3.3,3-4.7,4.4-1.5C450.8,401.4,452.6,401.4,449.6,402.6z"/>
		<path class="st8" d="M479.5,370.1c0.2-3.7,2.7-4.7,5.7-2.8C483.7,368.1,481.1,369.3,479.5,370.1z"/>
		<path class="st8" d="M405.5,438.9c-0.4-3.7,2.2-5.2,4.7-2.3C405.9,437.6,409.1,436.7,405.5,438.9z"/>
	</g>
	<g>
		<path class="st6" d="M-0.1,351.6c32.9-2.8,29,26.7,22.1,30.9c13.8-4.4,13.8,13.2,7.5,16.8c9.1,1.1,16.8,5,18.2,16.8
			c7.1,17.8-26.8,19.8-47.8,4.3V351.6z"/>
		<path class="st7" d="M4.1,364.1c12.1-6,17,7.7,13.6,15.1c-3.2-0.7-9.1,1-12,3c14.8-4.3,18.2,9.2,13.4,22
			c19.6,0.6,6.7,19.5,4.8,20.3c-3.3,1.3-15.3,4.6-23.9,0.1v-57C1.3,365.7,2.8,364.5,4.1,364.1z"/>
		<path class="st3" d="M26.8,364c1,3.2,1.1,6.6,0.7,9.7c-0.4,2.8-1.3,5.3-2.5,7.2c2.6-0.2,4.6,0.4,6.1,1.6c1.3,1,2.2,2.3,2.7,3.8
			c0.5,1.5,0.8,3.1,0.7,4.7c-0.1,2.8-1,5.7-2.6,7.6c3.9,0.7,7.4,2,10.2,4.3c3.4,2.7,5.8,6.8,6.6,13c2.7,7-0.3,11.8-6.5,14.3
			c-5.1,2-12.3,2.3-20,0.9c-7.6-1.4-15.6-4.5-22.4-9.4v-2.6c0.4,0.3,0.7,0.5,1.1,0.8c6.6,4.7,14.4,7.7,21.7,9.1
			c7.3,1.3,14.1,1.1,18.8-0.8c5-2,7.5-5.9,5.2-11.7l-0.1-0.3c-0.7-5.6-2.8-9.3-5.8-11.7c-4.4-3.5-9.8-3.9-15.2-4.6
			c4.5-2,6.6-3.2,6.8-9c0-1.4-0.1-2.7-0.6-4c-0.4-1.2-1.1-2.2-2-2.9c-1.6-1.2-4.1-1.6-7.5-0.5l-0.9-1.9c1.8-1.1,3.4-4.3,4-8.3
			c0.4-2.8,0.3-5.8-0.6-8.8c-2.5-8.1-11.6-13-19.7-13.1C14.7,349.7,24,355.1,26.8,364z"/>
		<path class="st3" d="M12.9,379.3c8.6-2.8,12.9,4.3,10.9,12.1C22.8,383.7,21.1,379.5,12.9,379.3z"/>
		<path class="st9" d="M14.9,361c3-2.3,5.4,0,3.2,2.9c-0.1-0.2-0.9-1.8-1.1-1.8l0,0C16.8,361.9,15.1,361.1,14.9,361z"/>
		<path class="st9" d="M18.4,393.5c3-2.4,5.4,0,3.2,2.9c-0.1-0.2-0.9-1.8-1.1-1.8l0,0C20.4,394.4,18.6,393.6,18.4,393.5z"/>
		<path class="st9" d="M34.1,412.3c3-2.4,5.4,0,3.2,2.9c-0.1-0.2-0.9-1.8-1.1-1.8l0,0C36.1,413.3,34.4,412.5,34.1,412.3z"/>
	</g>
	<g>
		<path class="st4" d="M220.9,500c1.7-15.1,17.3-23.9,32.1-19.1c-5.8-20.1,17.3-33.8,31.5-26.6c-20-37.1,51-56.6,51.5-19.2
			c14.2-12.1,50.6,4.1,42.2,64.9H220.9z"/>
		<path class="st5" d="M303.2,439.1c1.2-7.7,17.4-9.1,15.7,0.9c7.7-3.5,16.1-1.3,20.8,2.5c3.9,3.2,5.1,2,2,7.6
			c-2,3.7-11.7,6.5-15.7,6.8C301.8,458.9,299.9,442.1,303.2,439.1z"/>
		<path class="st5" d="M289.7,500h-21.1c-7.8-23.3,10.5-40.6,21-13.4C293.9,497.5,293.3,497.6,289.7,500z"/>
		<path class="st3" d="M377.2,499.7c-0.1,0.1-0.1,0.2-0.2,0.3h2.2c2.9-20.9,0.5-36.6-4.5-47.7c-3.5-7.9-8.4-13.6-13.6-17.2
			c-5.3-3.6-10.9-5.1-15.9-4.7h0c-3.1,0.2-5.9,1.2-8.3,2.7c-1-15.4-15.8-19.1-21.3-18.2c10.3,1.6,19.1,8.4,19.3,20.2l0,2.2l1.7-1.4
			c2.4-2,5.4-3.2,8.7-3.4c4.6-0.3,9.7,1,14.6,4.4c4.9,3.4,9.5,8.7,12.9,16.3C377.7,463.9,380,479.2,377.2,499.7L377.2,499.7z
			 M282.3,452.3c-4.2-1.3-8.8-1.2-13.2,0.1c-3.3,1-6.4,2.6-9.2,4.7c-2.7,2.2-5.1,4.9-6.6,8c-2.1,4.1-2.9,9-1.8,14.4
			c-1.2-0.3-2.4-0.5-3.7-0.7c-12.2-1.4-22.2,4.5-25.9,16.3c5.9-9.7,13.7-15.6,25.7-14.3c1.7,0.2,3.4,0.5,5,1.1l1.9,0.6l-0.5-1.9
			c-1.6-5.5-0.9-10.5,1.2-14.6c1.4-2.8,3.6-5.3,6.1-7.3c2.5-2,5.4-3.5,8.5-4.3c7.5-2.2,11.5-0.5,17.9,2.7
			c-11.6-17.1-2-35.9,15.7-40.6C286.3,419.7,274.4,434.8,282.3,452.3z"/>
		<path class="st3" d="M270.7,475.8c-5.4,5.4-5.5,6.4-3.4,13.7C268.1,483.2,268.4,481.8,270.7,475.8z"/>
	</g>
	<g>
		<path class="st1" d="M-0.1,412.7C72.7,424.7,144.1,486,153,500H-0.1V412.7z"/>
		<path class="st2" d="M87.2,447.3L87.2,447.3c-0.1,0.1,6.8,8.9,17.2,11c26,17.7,44.4,35.1,48.6,41.8H-0.1v-40
			c13.4,12.2,27.8,18,43.5,22c-6.4-19,10.7-27.6,21.5-23.5C64.5,454.7,70.8,441.4,87.2,447.3z"/>
		<path class="st3" d="M80.7,442.3c38.5,21.9,67.6,48.5,73.1,57.2l0.4,0.6h-2.6l0.1-0.1c-6.3-9.1-34.7-34.6-72-55.8
			c-18-10.2-38.7-20.8-59.4-26.7C35.1,420.2,56.8,428.6,80.7,442.3z"/>
		<path class="st9" d="M8.9,436.1c2.3-4.7,4.1-3.6,7.6-0.6C10.2,435.5,14.2,434.5,8.9,436.1z"/>
		<path class="st9" d="M29.4,447.8c2-4.9,4.9-4.6,7.7-0.5C32.2,446,34.1,444.8,29.4,447.8z"/>
		<path class="st9" d="M18.1,464.7c3.1-3.5,6.5-3.5,9.3,0.4C22.2,463.5,23.4,463.6,18.1,464.7z"/>
	</g>
	<g>
		<path class="st1" d="M499.9,409.9c-35,11.3-69,26.8-100.8,50.5c-52-8.7-115.2,24.5-137.4,39.6h238.2V409.9z"/>
		<path class="st2" d="M305.7,500h194.2v-75c-34.3,13.1-69.1,32.6-84.2,40.4c8,2,17.4,6.3,22.1,11.1
			C438.1,476.9,371.6,467.4,305.7,500z"/>
		<path class="st3" d="M487.7,414.1c-13.2,4.7-26.1,11.1-38.9,17.4c-16.8,8.2-33.2,18-49.1,29.8l-0.4,0.3l-0.4-0.1
			c-20.6-3.4-42.9-0.3-63.8,5.7c-30.5,8.8-57.8,23.7-71.6,32.8h-3l0.2-0.4l0.4-0.4c13.4-9.1,41.7-24.8,73.5-34
			c21-6,43.5-9.2,64.3-5.9c15.9-11.8,32.3-21.5,49-29.7C460.4,423.4,476.3,416.3,487.7,414.1z"/>
		<path class="st2" d="M329.6,482.3c3.1-4.3,6.4-5.3,9.8-0.5C335.5,479.6,334.1,479.8,329.6,482.3z"/>
		<path class="st1" d="M374.5,487.6c2.2-6.9,8.2-6.4,9.6-1.6C379.4,483.2,379.1,483.5,374.5,487.6z"/>
		<path class="st1" d="M451.1,484.3c2.6-8.7,8-4,7.9-3.4c0,0-0.1,0-0.1,0.1l0,0c0.1-0.1,0,0,0.2-0.2c0.3,0.4,0,0.7-0.4,0.5
			C454.4,480,455.7,480.1,451.1,484.3z"/>
		<path class="st1" d="M462.8,459.5c1.4-8.8,8.3-5.5,11.3-2.6C471,455.7,466.5,454.4,462.8,459.5z"/>
		<path class="st1" d="M477.3,473.6c2.3-5.1,3.7-4.8,8.9-3.2C480.2,471.4,482.1,470.2,477.3,473.6z"/>
		<path class="st2" d="M438.3,478c-40.9-7-57.6-3.7-97.6,3.7C376.8,470.4,401.5,467.1,438.3,478z"/>
		<path class="st4" d="M341.5,470.3c12.5-4.6,6.1-3,19.3-4.7v0C348.3,470.2,354.7,468.7,341.5,470.3z"/>
	</g>
	<g>
		<path class="st4" d="M299.9,452c-4.6-15.8,17.3-17.6,14.1-2.8c7.3-12.1,49.3-12.8,42.1,22.4c27.2-20.2,22.8,30.1-7.9,6.6
			c-4.4,6.2-14.5,6.6-16.2-1.9c-3.5,11-26.8,18.2-41.9,8.7c-13.4-8.4-2.8-25.7,9-18.1C297.5,464.9,293.4,458,299.9,452z"/>
		<path class="st5" d="M369.7,482.7c-11.4,4.7-18.3-2.1-21.4-4.5c-4.4,6.2-14.5,6.6-16.2-1.9c-9.9,18.1-36.2,11.3-20.9,9.1
			c8.7-1.2,17.7-4,19.7-25.6c1.2,6,12.6,18.4,16.3,9.9C349.4,473.8,356.8,483.2,369.7,482.7z"/>
		<path class="st3" d="M311.1,441.3c3.3,2.6,2,8,1.7,11.4c4.8-7,8.4-9.3,17.8-9.9c3.9-0.2,7.9,0.2,11.7,1.5c3.7,1.3,7,3.3,9.5,6.4
			c5.8,7.2,4.4,15.7,2.8,24c3.5-3.4,10.1-8.4,15.2-6.6c2.6,0.9,3.8,3.8,3.4,6.9c-0.3,3.1-2.3,6.4-5.6,7.8c-4,1.7-10.2,0.9-18.5-5.4
			l-0.9-0.7l-0.6,0.9c-1.5,2.1-3.7,3.5-6,4c-1,0.2-2.1,0.2-3,0.1c-1-0.2-1.8-0.5-2.6-1.1c-2.5-1.8-2.7-4.8-3.3-7.6
			c-0.8,1.6-1.6,3.9-2.5,5.4c-2.4,3.8-7.4,7-13.5,8.7c-6.1,1.7-13.2,1.9-19.6-0.1c-7.5-2.4-10.6-5.3-14.1-11.6
			c0.7,7.2,7.1,11.6,13.4,13.6c6.8,2.1,14.3,1.9,20.8,0.1c6.5-1.8,12-5.3,14.7-9.6l0.2-0.3c0.7,1.3,1.6,2.4,2.6,3.1
			c1,0.7,2.2,1.2,3.5,1.4c1.2,0.2,2.5,0.2,3.8-0.1c2.4-0.5,4.9-1.9,6.6-4c8.6,6.3,15.3,7,19.8,5.1c4.2-1.8,6.5-5.7,6.9-9.5
			c0.4-3.9-1.1-7.7-4.8-9.1c-2.9-1-7.2-0.4-12.7,3.2c1.3-8.9-0.6-15.4-4.3-20c-2.7-3.4-6.4-5.7-10.4-7c-4-1.4-8.3-1.8-12.5-1.6
			c-6,0.4-11.6,2.3-15,5.3c-0.1-3-1.3-5.1-3-6.4c-1.6-1.2-3.5-1.7-5.5-1.6c-2.6,0.2-5,1.4-6.6,3.5
			C304.5,439.7,307.5,438.6,311.1,441.3z"/>
		<path class="st5" d="M289.8,475.7c1.1,6.7,8.1,12.7,16.9,12.6c12.5-0.2,19.2-8.8,19.5-17.1C327,450.4,288.5,467.7,289.8,475.7z"/>
		<path class="st3" d="M296.1,468.3c9.2-4.5,9.6-4.6,19.8-6.4C304.8,460.8,304.4,460.8,296.1,468.3z"/>
		<path class="st3" d="M345.5,471.6c-5.9-0.1-7.7-2.7-12.6-6.4C335.2,469.2,340.8,476.1,345.5,471.6z"/>
	</g>
	<g>
		<path class="st4" d="M293.9,382.4c12.1-4.6,25.7,3.9,21.6,16c-6.3,15.4-30.5,11.7-35.3,1.7c-7.6,12.1-21.6,12.3-25.7,5.8
			c-4-6.3,3.5-12.7,14.1-7.3c-5.8-11.2,13.5-18.2,24.4-8C291.4,387.3,292.4,383.2,293.9,382.4z"/>
		<path class="st5" d="M316.1,396.1c-0.1,0.8-0.3,1.6-0.6,2.4c-6.3,15.4-30.5,11.7-35.3,1.7c-7.3,11.7-20.7,12.3-25.3,6.5
			c8.2,3.5,20.4-2.7,18.8-7.7c-2.1-4.7,6.2-11.4,15,3.8c0.7,1.2-0.4-1.6,3.1-5C297.1,392.5,308.5,393.3,316.1,396.1z"/>
		<path class="st3" d="M306.9,381.1c2.2,0.7,4.2,1.9,5.8,3.3c1.7,1.5,3,3.3,3.7,5.3c1,2.7,1.1,5.7,0,9l0,0.1
			c-1.8,4.3-4.8,7.2-8.5,8.9c-3.1,1.5-6.7,2.1-10.2,2.1c-3.5,0-7-0.8-10-2c-3.3-1.3-6-3.3-7.7-5.7c-1.9,2.6-4,4.6-6.3,6
			c-3,1.9-6.3,2.9-9.3,3.1c-3.1,0.2-5.9-0.5-8.1-1.9c-1.2-0.7-2.2-1.7-2.9-2.8c-1.1-1.7-1.5-3.5-1.2-5c0.2-1.4,0.9-2.6,2-3.6
			c1-1,2.4-1.7,4.1-2c2.3-0.5,5.1-0.3,8.3,0.9c-0.5-1.9-0.3-3.7,0.5-5.3c0.8-1.8,2.3-3.3,4.1-4.4c1.8-1.1,4-1.8,6.4-2.1
			c4.3-0.6,9.3,0.3,13.5,3l2.8,2.3l-1.7,1.2c-4.2-3.9-9.7-5.1-14.4-4.5c-2.1,0.3-4,0.9-5.6,1.9c-1.5,0.9-2.7,2.1-3.3,3.5
			c-1.4,3,0.3,5.7,1.6,8.4c-3.8-1.5-7.5-3.7-11.8-2.8c-1.3,0.3-2.3,0.8-3.1,1.5c-0.7,0.7-1.2,1.5-1.3,2.4c-0.2,1.1,0.1,2.3,0.9,3.6
			c0.6,0.9,1.3,1.6,2.3,2.2c1.8,1.1,4.2,1.7,6.8,1.5c2.7-0.1,5.6-1,8.3-2.8c2.4-1.6,4.7-3.8,6.6-6.8l1-1.6l0.8,1.7
			c1.2,2.6,4,4.8,7.5,6.2c2.8,1.2,6,1.8,9.2,1.9c3.2,0,6.4-0.6,9.3-1.9c3.2-1.5,5.9-4.1,7.4-7.8c0.9-2.8,0.8-5.4,0-7.6
			c-0.6-1.7-1.7-3.2-3.2-4.5c-1.4-1.3-3.2-2.3-5.1-2.9c-5.8-1.9-10.5-1.3-15,2.2C294.1,380,302.2,379.5,306.9,381.1z"/>
		<path class="st3" d="M299.7,390.1c-5.3-0.9-7.5,0.2-9.8,5.4C288.8,390.1,294.5,386.1,299.7,390.1z"/>
	</g>
	<g>
		<path class="st4" d="M395.6,188c1.1,0,2-0.9,2-2c0-1.1-0.9-2-2-2c-1.1,0-2,0.9-2,2C393.6,187.1,394.5,188,395.6,188z"/>
		<path class="st4" d="M414,195.5c0.6,0,1-0.5,1-1c0-0.6-0.5-1-1-1c-0.6,0-1,0.5-1,1C413,195.1,413.5,195.5,414,195.5z"/>
		<path class="st4" d="M240.7,319.5c1.1,0,2-0.9,2-2c0-1.1-0.9-2-2-2c-1.1,0-2,0.9-2,2C238.7,318.5,239.6,319.5,240.7,319.5z"/>
		<path class="st4" d="M253.9,299.2c0.6,0,1-0.5,1-1c0-0.6-0.5-1-1-1c-0.6,0-1,0.5-1,1C252.9,298.8,253.3,299.2,253.9,299.2z"/>
		<path class="st4" d="M263.6,270c0.6,0,1-0.5,1-1s-0.5-1-1-1c-0.6,0-1,0.5-1,1S263.1,270,263.6,270z"/>
		<path class="st4" d="M103.1,183.2c0.6,0,1-0.5,1-1c0-0.6-0.5-1-1-1s-1,0.5-1,1C102.1,182.7,102.5,183.2,103.1,183.2z"/>
		<path class="st4" d="M229.2,276.6c1.1,0,2-0.9,2-2c0-1.1-0.9-2-2-2c-1.1,0-2,0.9-2,2C227.1,275.6,228.1,276.6,229.2,276.6z"/>
		<path class="st4" d="M310.2,237c1.1,0,2-0.9,2-2c0-1.1-0.9-2-2-2c-1.1,0-2,0.9-2,2C308.2,236.1,309.1,237,310.2,237z"/>
		<path class="st4" d="M97.3,170.4c1.1,0,2-0.9,2-2c0-1.1-0.9-2-2-2c-1.1,0-2,0.9-2,2C95.2,169.5,96.1,170.4,97.3,170.4z"/>
		<path class="st4" d="M201.7,319c0.6,0,1-0.5,1-1c0-0.6-0.5-1-1-1c-0.6,0-1,0.5-1,1C200.7,318.5,201.1,319,201.7,319z"/>
		<path class="st4" d="M469.3,177.9c0.6,0,1-0.5,1-1c0-0.6-0.5-1-1-1c-0.6,0-1,0.5-1,1C468.3,177.5,468.7,177.9,469.3,177.9z"/>
		<path class="st4" d="M172.4,214.6c0.6,0,1-0.5,1-1c0-0.6-0.5-1-1-1c-0.6,0-1,0.5-1,1C171.4,214.1,171.9,214.6,172.4,214.6z"/>
	</g>
	<g>
		<g>
			<g>
				<path class="st10" d="M211.5,370.8c-2-0.5-4.6-2.1-6.8,0.4c-19.5,22.3-27.4,71.3-12.8,82.8C217.4,474,212.7,378.3,211.5,370.8z"
					/>
				<path class="st11" d="M204.7,371.2c-9.5,10.8-16.2,27.8-19,43.9c2.7-2.8,3.7-5,5.8-8.2C193.4,404,200.1,381.6,204.7,371.2z"/>
				<path class="st3" d="M205.7,372.1c-1,1-2.6,3.1-3.6,4.3c-3,3.9-5.9,9-8.3,14.9h-2.3c2.6-6.4,5.6-12,8.9-16.2v0
					c1.5-2,3-3.7,4.6-5l1.9,0.7c0,0.2,0.1,0.6,0.1,1L205.7,372.1z"/>
			</g>
			<g>
				<path class="st11" d="M175.5,404.6c-4.8,8.2-8.7,27.2-6.9,42.2c2.7,22.4,19.3,19.3,31.7,9.7l1-7.1c-1-12.2-3.2-22.2-4.2-31.4
					C191.1,411.1,183.4,405.5,175.5,404.6z"/>
				<path class="st12" d="M175.5,404.6c-4.8,8.2-8.7,27.2-6.9,42.2c0.8,7.1,3.1,11.6,6.2,14.2c-0.2-0.4-0.3-0.8-0.4-1
					c-5.1-16.9-1.2-33.6,0.7-45.4c3,1.9,2.3,5,7.8,3.1c0.8-0.3,1.5-1.4,2-1.9c2-1.9,3.2-3.5,4.3-5.3
					C184.9,407.4,180.2,405.2,175.5,404.6z"/>
				<path class="st13" d="M168.3,443.4c0.1,1.2,0.2,2.4,0.3,3.5c2.7,22.4,19.3,19.3,31.7,9.7l0.4-7.1l0.6,0c-0.2-3-0.5-5.8-0.9-8.6
					C192,460.9,176.2,460.8,168.3,443.4z"/>
				<path class="st3" d="M176.1,405.8c-2.3,4.3-4.4,11.1-5.6,18.7c-1.2,7.3-1.6,15.2-0.8,22.3c0.7,5.6,2.2,9.5,4.3,12.1
					c1.4,1.7,3,2.7,4.8,3.3c1.8,0.6,3.8,0.8,5.9,0.5c5.1-0.6,10.8-3.5,15.7-7.5l-0.1,2.8c-4.8,3.6-10.3,6.2-15.3,6.8
					c-2.4,0.3-4.7,0.1-6.8-0.6c-2.1-0.7-4.1-2-5.7-4c-2.4-2.9-4.1-7.1-4.8-13.1c-0.9-7.2-0.4-15.4,0.8-22.8
					c1.3-8.2,3.7-15.7,6.2-20.1l0.3-0.6l0.7,0.1c3.9,0.4,7.7,2,11.4,4.2c4,2.5,7.7,5.8,10.9,9.6c0.6,3.8,0.7,11.5,0.2,14.5l-0.3-2.1
					c-0.6-4-1.2-7.7-1.6-11.3c-3-3.5-6.5-6.6-10.2-8.9C182.7,407.6,179.4,406.3,176.1,405.8L176.1,405.8z M200.5,453
					c0-0.5-0.1-1-0.1-1.5h0.2L200.5,453z"/>
				<path class="st14" d="M173,404.5c-1-3.1-1.7-5.2-1.3-6.7c1.2-4.3,7.6,1.1,6.3,9.3c-0.3,1.9-1.6,6.5-3.5,7.1
					C174.7,410.4,173.7,406.7,173,404.5z"/>
				<path class="st3" d="M172,404.8c-0.5-1.6-0.9-2.9-1.2-4.1c-0.3-1.3-0.4-2.3-0.1-3.2c0.3-1.2,1.1-1.9,2-2.2
					c0.7-0.2,1.4-0.1,2.1,0.3c0.6,0.3,1.2,0.8,1.8,1.4c1.8,2,3.2,5.8,2.5,10.3c-0.2,1.2-0.8,3.4-1.6,5.1c-0.6,1.3-1.5,2.4-2.5,2.8
					l-1.2,1.1l0-0.3l-0.1-1.8c0.1-1.8-0.1-3.6-0.4-5.3C172.8,407.4,172.3,405.9,172,404.8L172,404.8z M172.8,400.3
					c0.2,1,0.6,2.3,1.2,3.9c0.4,1.2,0.8,2.7,1.2,4.4c0.2,0.9,0.3,1.9,0.4,2.9c0.7-1.5,1.2-3.5,1.4-4.5c0.6-3.8-0.5-6.9-2-8.6
					c-0.4-0.4-0.8-0.8-1.1-0.9c-0.3-0.1-0.5-0.2-0.6-0.1c-0.2,0-0.4,0.3-0.5,0.7C172.5,398.6,172.6,399.4,172.8,400.3z"/>
				<path class="st14" d="M175,407.7c0.6-4.7,3.1-15,6.4-19.7c1.6-2.3,5.2-4.9,6.1-1.1c1.9-3.1,5.5,1.6,4.4,5.1
					c2.5-1.6,4,3.5,3.5,7.3c3.6-0.8,3.2,7.9,2.9,11.5c-1.3,15-10.4,30.6-18.6,28.5C177.3,433.2,174.2,414.1,175,407.7z"/>
				<path class="st15" d="M198.4,404.8c0.1,2.2,0,4.5-0.2,5.9c-1.3,15-10.4,30.6-18.6,28.5c-0.8-2-1.6-5.4-2.4-9.4
					c2.1,2.4,4.6,3.6,7,1.9C190.2,427.7,195.4,415.8,198.4,404.8z"/>
				<path class="st3" d="M174,407.5c0.3-2.7,1.3-7.3,2.7-11.6c1.1-3.3,2.4-6.4,3.9-8.5c0.7-1,1.8-2.1,2.9-2.8
					c0.7-0.4,1.4-0.7,2.1-0.7c0.8,0,1.6,0.2,2.1,0.9c0.1,0.1,0.1,0.2,0.2,0.3c0.3-0.2,0.6-0.2,0.9-0.3c0.6,0,1.2,0.1,1.8,0.5
					c0.5,0.3,0.9,0.8,1.3,1.4c0.7,1.1,1.2,2.5,1.2,3.9c0.6,0.1,1.2,0.5,1.7,1c0.5,0.6,0.9,1.4,1.1,2.3c0.4,1.3,0.6,2.8,0.5,4.3
					c1.7,0.4,2.5,2.5,2.8,5c0.3,2.6,0.1,5.7,0,7.6c-0.2,2.7-0.7,5.3-1.4,7.9h0c-1.5,5.9-4,11.4-7,15.4c-3.1,4.2-6.8,6.7-10.4,6.3
					c-0.4,0-0.8-0.1-1.1-0.2c-0.9-0.2-4.5-2.1-5.3-6.9c1.5,2.6,3.2,3.8,4.3,4.8C174.9,431.1,172.6,418.7,174,407.5L174,407.5z
					 M180.4,438.3c0.1,0,0.1,0,0.2,0c2.8,0.3,5.9-1.9,8.6-5.5c2.8-3.8,5.2-9,6.7-14.7l0,0c0.6-2.5,1.1-5,1.3-7.5
					c0.2-1.7,0.3-4.7,0-7.2c-0.2-1.9-0.7-3.4-1.6-3.2l-1.5,0.3l0.2-1.5c0.2-1.5,0-3.3-0.4-4.6c-0.2-0.6-0.5-1.2-0.7-1.5
					c-0.2-0.2-0.3-0.3-0.5-0.3c-0.1,0-0.2,0-0.3,0.1l-1.6-1.2c0.4-1.3,0-2.7-0.7-3.7c-0.2-0.3-0.5-0.6-0.8-0.8l0,0
					c-0.2-0.1-0.4-0.2-0.5-0.2c-0.2,0-0.4,0.2-0.6,0.5l-1.9-0.3c-0.1-0.4-0.2-0.7-0.4-0.9c-0.1-0.1-0.3-0.2-0.5-0.2
					c-0.3,0-0.7,0.2-1.1,0.4c-0.9,0.5-1.7,1.4-2.3,2.2c-1.4,1.9-2.6,4.9-3.6,8c-1.4,4.2-2.3,8.6-2.6,11.2
					C175.1,414.8,175.9,428,180.4,438.3z"/>
				<path class="st3" d="M188.4,387.3c-2.1,4.1-4.6,11.9-7.3,19.2c0.1-6.6,2.6-13.8,5.4-20.1L188.4,387.3z"/>
				<path class="st3" d="M192.8,392.4c-2.5,5-3.5,10-5.9,15.7c0.1-4.4,2.5-13.6,4.1-16.7L192.8,392.4z"/>
				<path class="st3" d="M196.4,399.3c-1.5,6-2.3,8.3-4,11.5c0.3-2.7,1.5-9.4,2-11.9L196.4,399.3z"/>
				<path class="st4" d="M171.5,437.1c1.7,11.7,2.2,13.1,4.2,19.9C171.8,452.5,171,445.1,171.5,437.1z"/>
			</g>
			<g>
				<path class="st11" d="M223.6,369c-5.5,0.1-8.2,1-12.1,1.8c-4.9,9.8-12.4,102.1-13.1,129.2h85.1c-2.3-38.5-10.5-103.9-15.2-124.1
					c-6.6-1.7-12.1-3.3-15.2-4.1C246.8,372,230.3,369.4,223.6,369z"/>
				<path class="st10" d="M223.6,369c-5.5,0.1-8.2,1-12.1,1.8c-2.9,5.7-6.6,39.4-9.3,71.9c2,3.3,4.7,5.8,7.4,8.2
					c25.6,23.9,61.1-64.2,59-73.7c-0.2-0.5-0.4-0.9-0.6-1.4c-6.4-1.7-11.8-3.2-14.9-4.1C246.8,372,230.3,369.4,223.6,369z"/>
				<path class="st13" d="M198.9,488.2c-0.2,3.4-0.4,8.2-0.5,11.8h85c-1.6-26.2-5.9-64.9-10-93.3c1.5,29.8-3.2,56.3-27.2,74.3
					c-6.8,5.1-20.5,8.7-9.3,7.3c7.4-0.9,25.6-13.6,25.5-13.5C254.8,495.4,220,500.3,198.9,488.2z"/>
				<path class="st3" d="M209.5,450.9c10.2,6.8,16.2,1.8,26.4-5C229.1,452.9,217.2,462.3,209.5,450.9z"/>
				<path class="st3" d="M251.7,449.7c-5.2,13.8-17.8,26.6-32.8,28.6c14-4.1,25.8-15.4,30.6-29.1L251.7,449.7z"/>
				<path class="st3" d="M216.7,380.9c4.5,8.1,14.4,6,23.1,5.6C233.7,388.3,216.9,392,216.7,380.9z"/>
				<path class="st3" d="M197.4,500c0.5-19.8,2.6-58.1,5.9-85.3c1.3-10.4,2.4-19.4,4.5-24.6c-3.9,33.6-7.5,74.4-8.3,109.9H197.4z"/>
				<path class="st3" d="M282.8,477.5c0.3,3.9,1.1,13.7,0.5,19.2c-0.8-6.9-1.6-11.2-2.5-18.7c0.3-0.1,0.7-0.1,1-0.2
					C282.1,477.8,282.4,477.7,282.8,477.5z"/>
			</g>
			<path class="st3" d="M223.5,370c-2.3,0-5.2,0.3-8,0.6c-3.4,0.4-8.4,1.2-10.6,1.6c-0.5-1-0.3-0.5,0.1-2.1l0.6-0.1
				c2.2-0.5,5.8-1,9.6-1.5c2.9-0.3,5.9-0.6,8.3-0.6h0.1c2.7,0.2,6.8,0.7,11.3,1.2c6.9,0.8,14.4,1.7,18.2,1.6l0.3,0
				c1.8,0.5,4.3,1.2,7,2c2.1,0.6,4.5,1.2,7.3,2c0,0.2-0.1,1.4-0.3,2.1c-2.6-0.7-5.2-1.4-7.5-2c-3-0.8-5.3-1.5-6.9-1.9
				c-4,0.1-11.5-0.8-18.3-1.6C230.2,370.6,226.1,370.2,223.5,370z"/>
			<g>
				<path class="st11" d="M281.6,477.9c-2.8-15.3-10.5-43.6-12.7-59.5c-0.8-6-1-37.3-0.7-42.5C294,382.1,324.6,468.5,281.6,477.9z"
					/>
				<path class="st13" d="M281.6,477.9c-0.5-2.7-1.1-5.7-1.9-9.1c1.3-0.2,2.6-0.6,3.8-1.2c16.5-7.7,13.2-42.1,9.1-64.7
					C306.2,431.1,310.3,471.6,281.6,477.9z"/>
				<path class="st3" d="M267.4,376.7l0.3-2.1l0.9,0.2c9.8,2.4,20.1,15.7,27.1,32.1c4.2,9.8,7.2,20.7,8.1,31
					c1,10.4-0.1,20.2-4.1,27.7c-3.5,6.6-9.3,11.4-17.8,13.3l-1.1,0.2l-0.2-1c0.4-0.1,2.2-1.7,2.5-1.8c1.5-0.4,2.1-0.6,3.5-1.1
					c5.1-2.2,8.7-5.9,11.2-10.5c3.8-7.1,4.8-16.5,3.9-26.5c-0.9-10.1-3.9-20.8-8-30.4c-6.5-15.1-15.7-27.5-24.5-30.5L267.4,376.7z"
					/>
				<path class="st3" d="M274.8,420c2.4-10.4,2-11.4,7.2-21c-2.9,9.1-3.4,12.2-5,21.4L274.8,420z"/>
			</g>
			<g>
				<path class="st11" d="M268.3,410.2c-16.1-7.9-25.5,5-24.7,11.8c4.4,19.7,7.9,33.9,14.3,43.4c8.1,11.9,17.3,14.4,23.8,12.5
					C293.4,474.5,298.2,448.3,268.3,410.2z"/>
				<path class="st13" d="M253.3,456.6c1.4,3.3,2.9,6.2,4.6,8.7c8.1,11.9,17.3,14.2,23.8,12.5c6.1-1.6,10.3-8.1,9.9-18.5
					c-1.9,3.7-4.5,6.6-8.1,8.3C275.7,471.4,265.1,467.6,253.3,456.6z"/>
				<path class="st3" d="M267.6,411c-4.1-2-7.7-2.5-10.7-2.2c-2.7,0.3-5.1,1.4-6.9,2.8c-1.9,1.4-3.3,3.2-4.2,5.1
					c-0.9,1.8-1.3,3.6-1.1,5.1c2.2,9.8,4.2,18.3,6.4,25.4c2.2,7.1,4.6,12.9,7.8,17.5c3.6,5.2,7.3,8.5,10.9,10.4
					c4.3,2.3,8.4,2.5,11.8,1.6c0.7-0.1,4.1-1.1,5.2-1.7l-3.5,3.4c-0.4,0.1-0.7,0.2-1.1,0.3c-3.8,1-8.5,0.7-13.3-1.8
					c-3.9-2-7.9-5.6-11.7-11.1c-3.3-4.8-5.8-10.8-8.1-18.1c-2.2-7.2-4.2-15.7-6.4-25.6l0-0.1c-0.2-1.9,0.3-4.1,1.3-6.3
					c1-2.1,2.7-4.2,4.8-5.8c2.1-1.6,4.8-2.8,7.9-3.2c3.5-0.4,7.6,0.2,12.1,2.5l0.5,0.4c6.4,7.9,11.1,15,15,21.6
					c3.2,5.4,5.4,10.9,6.3,15.8C282.7,429.9,271.2,415.4,267.6,411z"/>
				<path class="st14" d="M263.5,400.4c0-4.4,3.6-9,5.9-7c3.7,3.2-2.5,9.9-0.6,22.7c-1.6-0.3-1.7-0.2-2.1-1.4c0-0.1-0.1-0.2-0.1-0.2
					C264.5,408.8,263.8,407.1,263.5,400.4z"/>
				<path class="st3" d="M262.4,400.4c0-2.5,1.1-5.1,2.5-6.7c0.5-0.5,1-1,1.5-1.3c0.6-0.3,1.2-0.5,1.8-0.5c0.7,0,1.3,0.2,1.9,0.7
					c2.3,1.9,1.7,4.6,0.8,8.5c-0.8,3.6-2.5,8.5-1.6,14.9l-1.2,1.1l-0.4-0.1c-1.7-0.3-1.8-0.4-2.4-1.9l-0.3-0.8
					C263,408.9,262.8,407.1,262.4,400.4L262.4,400.4L262.4,400.4z M266.5,395.1c-1.1,1.3-1.9,3.3-2,5.3c0.3,6.3,0.5,8,2.4,13.2
					l0.1,0.2c-0.4-5.6,1-9.8,1.8-13.2c0.7-3.2,1.2-5.3-0.1-6.4c-0.2-0.1-0.4-0.2-0.5-0.2c-0.2,0-0.5,0.1-0.7,0.2
					C267.1,394.4,266.8,394.7,266.5,395.1z"/>
				<path class="st14" d="M252,385c-2.6-3.5-6-1-6.3,1.1c-3.1-0.9-5.1,3.3-4.5,6.9c-8.8,13.1,10.4,48,18.5,49.6
					c5.7-2.6,10.8-20.7,7.4-36.3c-1.9-6.1-4.2-11.2-6.4-14.9C257.5,385.7,254,382.6,252,385z"/>
				<path class="st15" d="M249.8,432.6c3.6,5.5,7.3,9.5,9.9,10c5.7-2.6,10.8-20.7,7.4-36.3c-0.5-1.5-1-2.9-1.5-4.3
					c0.8,16.2-2.8,38.3-13.8,31.9C251.2,433.5,250.5,433.1,249.8,432.6z"/>
				<path class="st3" d="M251.2,385.6c-0.6-0.8-1.2-1.2-1.8-1.3c-0.3,0-0.6,0-0.8,0.1c-0.3,0.1-0.5,0.2-0.8,0.4
					c-0.6,0.4-0.9,1-1,1.5l-0.2,1.2l-1.2-0.3c-0.3-0.1-0.5-0.1-0.8-0.1c-0.5,0.1-0.9,0.3-1.2,0.7c-0.4,0.5-0.7,1.1-1,1.9v0
					c-0.3,1-0.4,2.1-0.2,3.2l-0.2,0.7c-0.8,1.2-1.4,2.7-1.7,4.3c-1.3,6.7,1.2,16.2,5.1,24.6c3.9,8.4,9,15.7,12.8,18.3
					c0.5,0.3,0.9,0.6,1.4,0.7c2.6-1.5,5.1-6.8,6.5-13.6c1.3-6.4,1.6-14.2,0.1-21.4c-0.9-2.9-1.9-5.6-2.9-8c-1.1-2.6-2.2-4.8-3.3-6.7
					c-1.5-2.6-3.1-4.7-4.5-5.8c-0.5-0.4-1-0.7-1.4-0.8c-0.3-0.1-0.6-0.1-0.8,0.1c-0.1,0.1-0.2,0.2-0.4,0.3l-0.9,1.1L251.2,385.6
					L251.2,385.6z M249.6,382.3c0.8,0.1,1.7,0.5,2.5,1.3l0,0c0.7-0.4,1.5-0.5,2.4-0.3c0.7,0.2,1.5,0.6,2.2,1.2
					c1.6,1.3,3.3,3.5,5,6.4c1.2,2,2.3,4.3,3.4,6.9c1.1,2.5,2.1,5.2,3,8.2l0,0.1c1.6,7.5,1.3,15.6-0.1,22.3
					c-1.6,7.7-4.4,13.9-8.2,15.3c-2.1,0.8-6,0.9-8.8-2.4c3.1,1.4,5,1.4,6,1.3c-4.1-2.7-9.5-10.4-13.5-19.1c-4-8.8-6.7-18.7-5.3-25.9
					c0.3-1.7,0.9-3.4,1.8-4.8c-0.1-1.2,0-2.5,0.3-3.7c0.3-1,0.8-1.9,1.4-2.6c0.7-0.8,1.5-1.3,2.5-1.4c0.2,0,0.4,0,0.7,0
					c0.3-0.7,0.9-1.4,1.5-1.9c0.4-0.3,0.9-0.6,1.4-0.7C248.5,382.3,249.1,382.2,249.6,382.3z"/>
				<path class="st3" d="M253,384.7c1.5,5.4,3.1,12.4,4.6,17.8c-2.8-2.6-5.6-13.5-6.6-17.3L253,384.7z"/>
				<path class="st3" d="M246.7,385.9c1.5,5.5,3.2,12.6,4.7,18c-3.2-3.7-5.6-13.5-6.7-17.5L246.7,385.9z"/>
				<path class="st3" d="M242.2,392.9c0.6,3.6,2,9.3,3.1,12.9c-2.2-2-4.6-9.4-5.1-12.5L242.2,392.9z"/>
				<path class="st4" d="M273,421.8c10.3,14.8,5.7,7.1,13.8,23.2C276.1,430.4,280.7,438.1,273,421.8z"/>
			</g>
		</g>
		<g>
			<path class="st14" d="M227.6,362.2c-0.2,2.3-0.6,5.4-0.7,6.8c-0.6,0-2.8-0.1-3.4-0.1c-5.4,2.4-7,11.8,4.1,12.9
				c10,1,21.1-3.2,25.4-10.1c-2.1-0.7-3.9-1.1-5.7-1.7c0.1-0.3,2.7-14.6,2.7-14.7C247,354.7,228.1,357.6,227.6,362.2z"/>
			<path class="st15" d="M227.6,362.2c-0.1,1.9-0.5,4.4-0.6,6.1c9.4,0.4,16.4-1.5,21.6-4.6c0.7-3.9,1.5-8.2,1.5-8.2
				C247,354.7,228.1,357.6,227.6,362.2z"/>
			<path class="st3" d="M228.7,362.3c-0.1,1.4-0.3,3.1-0.5,4.5c-0.1,0.9-0.2,1.7-0.2,2.3l-0.1,1c-1.4,0-2.7-0.1-4.1-0.1
				c-1.3,0.6-2.4,1.8-2.9,3.1c-0.4,0.9-0.5,1.9-0.4,2.8c0.1,0.9,0.5,1.8,1.3,2.6c1.1,1.2,3.1,2.1,6,2.4c4.9,0.5,10.1-0.3,14.5-2.1
				c3.8-1.5,7-3.7,9.1-6.4c-0.7-0.2-1.4-0.4-2.1-0.6c-0.8-0.2-1.5-0.4-2.3-0.7l-1.1-0.3l0.4-1c0-0.1,0.7-3.5,1.3-7
				c0.5-2.7,1.1-5.2,1.3-6.4c-2.2,0-6.8,0.5-11.1,1.6C233.3,359,229,360.5,228.7,362.3L228.7,362.3L228.7,362.3z M226.1,366.6
				c0.2-1.4,0.4-3.1,0.4-4.5l0,0c0-0.1,0-0.2,0-0.3c0.6-2.7,5.5-4.7,10.7-6c5-1.2,10.5-1.8,12.5-1.6c0.1,0,0.3,0,0.4,0.1l0.6,0.1
				l0.2,0.5c0.1,0.2-0.6,4.2-1.3,8.1c-0.4,2.4-0.9,4.9-1.2,6.2l1.4,0.4c1.1,0.3,2.2,0.6,3.5,1l1.3,0.4l-0.7,1.1
				c-2.3,3.6-6.2,6.5-10.9,8.4c-4.8,1.9-10.3,2.8-15.5,2.3c-3.5-0.3-5.9-1.5-7.3-3c-1.1-1.1-1.7-2.4-1.8-3.7c-0.2-1.3,0-2.7,0.5-3.9
				c0.8-1.9,2.3-3.5,4.2-4.3l0.4-0.1l2.4,0.1L226.1,366.6z"/>
		</g>
		<g>
			<g>
				<path class="st16" d="M176.8,289.3c-9.8-47.9,29.3-94.4,84-82.7c72.8,15.6,67.4,129-2.2,144.9
					C229.6,351.6,182.7,320.5,176.8,289.3z"/>
				<path class="st3" d="M175.8,289.5c-2.1-10.4-2-20.7,0.1-30.3c2.8-13.2,9.3-25.3,18.5-34.8c9.2-9.5,21.2-16.4,35.1-19.2
					c9.7-2,20.3-2,31.5,0.4c20.7,4.4,35.1,16.6,43.7,32.2c6.4,11.7,9.5,25.4,9.5,39.1c-0.1,13.7-3.4,27.6-9.7,39.7
					c-9.1,17.3-24.4,31.1-45.6,36l-0.2,0c-15.4,0-35.8-8.6-52.5-21.3C191,319.7,178.7,304.6,175.8,289.5L175.8,289.5z M178,259.6
					c-2,9.4-2.2,19.4-0.1,29.5l0,0c2.8,14.6,14.7,29.2,29.6,40.5c16.3,12.4,36.1,20.8,51.1,20.9c20.5-4.7,35.3-18.1,44.1-34.9
					c6.2-11.8,9.4-25.3,9.4-38.7c0.1-13.4-2.9-26.7-9.2-38.1c-8.3-15.1-22.3-26.9-42.3-31.2c-11-2.3-21.3-2.3-30.7-0.4
					c-13.5,2.8-25.1,9.4-34.1,18.6C187,235,180.7,246.8,178,259.6z"/>
			</g>
			<g>
				<g>
					<path class="st14" d="M178.5,294.1c-7.6-4.4-16.2,12.9-4.3,22C181.7,321.8,185.2,297.9,178.5,294.1z"/>
					<path class="st3" d="M178,295c-1.5-0.9-3.2-0.6-4.6,0.4h0c-0.9,0.7-1.8,1.7-2.5,2.9c-0.7,1.2-1.2,2.7-1.4,4.3
						c-0.7,4.2,0.6,9.2,5.3,12.8c1,0.8,1.9,0.8,2.6,0.3c0.7-0.5,1.3-1.4,1.9-2.6c0.6-1.3,1-2.9,1.3-4.5
						C181.6,303.1,180.9,296.6,178,295L178,295L178,295z M172.3,293.6c2-1.5,4.5-1.8,6.8-0.5c3.7,2.2,4.7,9.6,3.6,15.7
						c-0.3,1.9-0.8,3.6-1.5,5.1c-0.7,1.5-1.6,2.8-2.6,3.5c-1.5,1-3.1,1-5-0.4c-5.4-4.1-6.9-9.9-6.1-14.7c0.3-1.8,0.9-3.5,1.7-5
						C170,295.7,171.1,294.5,172.3,293.6z"/>
					<path class="st15" d="M181.5,297.9c-5.7-2.9-12.2,8.6-3.2,14.7C183.8,316.5,186.4,300.5,181.5,297.9z"/>
				</g>
				<g>
					<path class="st14" d="M185.4,254.8c-7.2,19.5-6.6,34.9-6.5,50.2c-28.3,56,77.5,81.6,105.1,27c18.1,3.3,28.4-16.9,18.8-28.3
						c-8.2-9.7-22.1,1.1-21.9,14c-7.5-3.8-4.8-12-3.9-13.8c-14-6.2-0.8-25.1,1.6-27.6C253.9,262.9,208.7,253.3,185.4,254.8z"/>
					<path class="st4" d="M184.8,256.6c-6.5,18.6-5.9,33.6-5.9,48.4c-5.1,10-6.1,22-1,30.5c-2.6-10.5-0.4-24,5.2-29.7
						c-1.8-14,0.5-28.7,2.2-36.9C185.9,265.8,187.3,255.2,184.8,256.6z"/>
					<path class="st15" d="M191.6,352c25.9,16.7,73.5,14.6,91.5-18.5c0.1-0.9,0.1-1.9,0.3-2.7c-1-4.5-1.5-8.8-1.6-11.5
						c-0.5-0.9-0.9-1.4-1.1-1.7c-7.5-3.8-4.8-12-3.9-13.8c-14-6.2-0.8-25.1,1.6-27.6c-9.1-4.9-21-9.4-33.6-12.9
						C267.9,272.4,293.6,381.1,191.6,352z"/>
					<path class="st3" d="M186.1,255.8c-6.4,17.8-6.3,32.2-6.2,46.3l0,2.9l-0.1,0.5c-8.1,15.9-5,29.3,4.1,38.9
						c4.4,4.7,10.2,8.4,16.8,11.2c6.6,2.8,14.1,4.6,21.8,5.3c23.4,2,49-6.5,60.5-29.4l0.4-0.7l0.8,0.1c6.1,1.1,11.2-0.6,14.9-3.7
						c1.6-1.3,2.9-2.9,3.9-4.7c1-1.8,1.7-3.7,2.1-5.7c0.8-4.4-0.1-9-3.2-12.6c-1.4-1.7-3.1-2.7-4.8-3.1c-2-0.5-4.2-0.1-6.2,0.9
						c-2.1,1-4,2.7-5.6,4.9c-2.2,3-3.5,6.7-3.5,10.7l0,1.7l-1.5-0.8c-3.1-1.6-4.6-3.8-5.3-6.1c-0.9-3.1-0.1-6.3,0.5-8.1
						c-1.1-0.6-2.1-1.3-2.9-2.1c-2.4-2.3-3.2-5.3-3.2-8.4c0.1-3,1.1-6.1,2.3-8.9c1.6-3.6,3.7-6.7,5-8.4
						c-11.7-6.2-27.9-11.5-44.1-15.3C215.3,257.3,198,255.1,186.1,255.8L186.1,255.8z M177.8,302c-0.1-14.4-0.2-29.2,6.6-47.6
						l0.2-0.6l0.7,0c12.1-0.8,29.9,1.4,47.8,5.5c16.9,3.9,33.8,9.5,45.7,16.1l1.2,0.7l-1,1c-0.9,0.9-3.5,4.5-5.5,8.8
						c-1.2,2.6-2.1,5.5-2.1,8.1c-0.1,2.6,0.6,5,2.5,6.8c0.8,0.8,1.9,1.5,3.2,2.1l1,0.4l-0.5,1c-0.5,1-1.7,4.4-0.8,7.6
						c0.4,1.4,1.2,2.8,2.8,4c0.3-3.8,1.8-7.3,3.8-10.2c1.8-2.4,4-4.3,6.4-5.5c2.5-1.2,5.1-1.6,7.7-1c2.1,0.5,4.1,1.7,5.9,3.8
						c3.5,4.2,4.5,9.4,3.6,14.3c-0.4,2.2-1.2,4.4-2.3,6.3c-1.1,2-2.6,3.8-4.4,5.3c-4,3.3-9.4,5.2-15.9,4.2
						c-12.1,23.3-38.3,31.9-62.2,29.8c-7.9-0.7-15.6-2.5-22.4-5.5c-6.9-2.9-12.9-6.9-17.5-11.7c-9.6-10.2-12.9-24.3-4.6-41.1
						L177.8,302z"/>
					<path class="st15" d="M287.9,318.3c0.4-1.9,3-8,6.9-9.3c5.1-1.8,7,10.4-1,14.3C295.6,317.8,290.6,317.3,287.9,318.3z"/>
					<path class="st3" d="M297.4,308c-4.3,1.9-7,6.7-8.1,9.5c0.9-0.2,1.8-0.2,2.6,0c0.8,0.2,1.5,0.5,2.1,1c0.6,0.5,1.1,1.2,1.2,2
						c0.9,4.4-4.3,7-7.1,4.5c1,0.2,1.8,0.1,2.5-0.2c0.7-0.3,1.4-0.8,1.8-1.6c0.6-1,0.8-1.7,0.7-2.3c-0.1-0.3-0.3-0.6-0.5-0.8
						c-0.3-0.3-0.7-0.4-1.2-0.5c-1-0.2-2.2,0-3.1,0.6l0,0c-0.4,0.2-0.7,0.3-1.1,0.1c-0.5-0.3-0.7-0.9-0.5-1.8
						c0.1-0.4,0.3-0.9,0.5-1.6C288.4,314.1,293.5,306.2,297.4,308z"/>
					<path class="st14" d="M232.8,355.7c18.8-4.6,30.8-12.6,36.4-31.7C268.2,344.3,252.2,355.5,232.8,355.7z"/>
					<g>
						<path class="st3" d="M190.9,291.8c-0.3,5.7-0.1,7.3,0.6,7.6c0.8,0.3,2.4-2.5,2-5.4C193.2,290.9,191.1,288.7,190.9,291.8z"/>
						<path class="st3" d="M235.2,295.8c0,0-0.9,10.8,1.6,7.3c0.7-1,1.5-4.3,1-6.5C237.2,294.3,235.4,293.1,235.2,295.8z"/>
						<path class="st3" d="M235,280.4c5.4-2.5,8.3-1.7,11.6,3.4C240.8,281.1,241.3,281.2,235,280.4z"/>
						<path class="st3" d="M195.4,276.2c-4.9-1.1-3.4-1.8-7.9-0.8C190.1,271,192.7,272.8,195.4,276.2z"/>
						<path class="st3" d="M208.7,310.6c-3.6-0.1-2.9,2.1-2.5,5c-2.5-1.8-2.6-4.5-1.5-5.8c0.9-1,2.3-1.3,4.1-1.3
							c0.3,0,0.7-0.5,1-1.2c0.5-0.9,0.7-4.1,0.7-5.2C212.3,304.2,212.7,310.7,208.7,310.6z"/>
						<path class="st4" d="M213,331.4c8.6,1.3,17.9,0.2,25.4-4.1C238.4,343.8,221.7,352.1,213,331.4z"/>
						<path class="st4" d="M215.2,331.1c8.6,1.3,13.6,1.5,21.2-2.8C232.8,336.4,219.8,338.5,215.2,331.1z"/>
						<path class="st3" d="M213.2,330.3c8.3,1.3,17.4,0.2,24.8-4l1.5-0.8c0.8,6.5-4,22.8-15.8,17.7c8.3,2.4,13.8-8.3,13.7-14.3
							c-3.4,1.7-7.1,2.8-10.8,3.4c-4,0.6-8.1,0.7-12,0.2c1.3,4.7,3.6,7.1,6.3,9.3c-5.1-1.5-8-6.7-9.4-11.9L213.2,330.3z"/>
						<path class="st3" d="M214.6,335.5c3.2,1.6,7.7,1.6,11,1.5C221.9,338.8,215.2,338.9,214.6,335.5z"/>
						<path class="st3" d="M238,332.3c-1.3,3.9-2.5,3.9-6.7,3.8C233.6,335,236.5,333.9,238,332.3z"/>
						<path class="st17" d="M183.6,308.5c4,0,7.3-0.5,7.3-1c0-0.6-3.3-1-7.3-1c-4,0-7.3,0.5-7.3,1
							C176.3,308,179.6,308.5,183.6,308.5z"/>
						<path class="st17" d="M247,308.5c4,0,7.3-0.5,7.3-1c0-0.6-3.3-1-7.3-1s-7.3,0.5-7.3,1C239.7,308,242.9,308.5,247,308.5z"/>
					</g>
				</g>
			</g>
			<g>
				<path class="st4" d="M175.6,268.1c3.5-39.3,38.7-71.4,85.2-61.5c44.2,9.5,59.6,55.1,49.2,93C269.6,276.2,214.1,266,175.6,268.1z
					"/>
				<path class="st18" d="M292.7,223.4c19.3,19,24.7,49.5,17.4,76.2c-20.7-11.9-45.2-20.4-69.4-25.6
					C284.4,270.7,314.7,257.5,292.7,223.4z"/>
				<path class="st18" d="M293.1,231.3c12.4,32.9-6.7,35.9-36.8,36.8l-8.9-0.3l8.8-1.2C289.7,261.7,299.4,264.4,293.1,231.3z"/>
				<path class="st3" d="M185,239.5c3.4,5.2,4.2,14.5,4.4,21c2.3-7.3,4.5-12.7,6.6-15.6c1.3-1.8,2.7-2.8,4.1-2.8c1.5,0,2.8,1,4,3
					c1.8,3.2,3.5,9.3,4.8,18.7c3.3-10.4,6.4-16.1,9.2-18.6c2.1-1.8,4.1-2.1,6-1.3c1.7,0.8,3.2,2.5,4.4,4.8
					c2.5,4.6,4.2,11.8,4.8,17.7c3.5-9.4,7-14.9,10.3-17.4c2-1.5,3.9-1.9,5.7-1.4c1.7,0.5,3.2,1.9,4.4,4c2.2,4,3.5,10.9,3.2,19.7
					c4.5-10,8.3-15.4,11.4-17.6c2.4-1.6,4.4-1.7,6.2-0.5c1.6,1,3,3,4,5.6c2.1,5.3,2.9,13.3,2.7,20c4.4-9,8-13.9,10.9-15.9
					c2-1.4,3.8-1.4,5.2-0.5c1.3,0.8,2.3,2.5,3,4.7c1.2,4.1,1.3,10.4,0.3,17.1c1.3-2.4,2.8-5,4.4-7.2c2.5-3.6,5.3-6.5,7.8-7.1l0.5,2
					c-1.9,0.5-4.3,3-6.6,6.3c-3.6,5.2-6.9,12-8.1,15.1l-2-0.7c2.7-9.3,3.2-19.3,1.7-24.9c-0.5-1.8-1.2-3-2.1-3.5
					c-0.7-0.5-1.7-0.3-2.9,0.5c-3.2,2.2-7.4,8.5-12.8,20.9l-2-0.6c1.3-6.7,0.8-18.4-1.9-25.3c-0.8-2.2-1.9-3.8-3.1-4.6
					c-1.1-0.7-2.4-0.6-4,0.5c-3.4,2.4-7.8,9.1-13.1,22.4l-2-0.5c1.2-11.3,0-20.1-2.6-24.7c-0.9-1.7-2-2.7-3.1-3
					c-1.1-0.3-2.4,0-3.8,1.1c-3.5,2.7-7.5,9.5-11.4,21.7l-2-0.4c0.3-5.9-1.5-16.3-4.8-22.3c-1-1.9-2.2-3.3-3.5-3.9
					c-1.1-0.5-2.3-0.3-3.7,0.9c-3,2.6-6.4,9.3-10,22.3l-2-0.2c-1.5-12-3.2-19.4-5.2-22.8c-0.8-1.3-1.5-2-2.1-2
					c-0.7,0-1.5,0.7-2.5,1.9c-2.6,3.5-5.4,11.1-8.3,21.8l-2.1-0.2c0-0.2,0-0.6,0-1.2c0-4.4,0.2-19.2-4.1-26L185,239.5z"/>
				<path class="st3" d="M310.1,256.8c-17.1-11.9-36.8-19.2-55.2-23.5c-27.9-6.4-53-5.9-62.7-3.7l-0.5-2c9.9-2.2,35.4-2.8,63.6,3.7
					c18.7,4.3,38.6,11.7,56,23.8L310.1,256.8z"/>
				<path class="st19" d="M187.7,266.6L187.7,266.6c0,0.6,0,1,0,1.2l0,0.3l-0.3,0c-1,0-2,0-3,0c-1,0-1.9,0-2.9,0c-1,0-2,0.1-3,0.1
					c-1,0-1.9,0.1-2.9,0.1l-0.3,0l0-0.3c0.4-4.8,1.3-9.4,2.6-13.9c1.3-4.6,3.1-8.9,5.3-13.1l0.2-0.4l0.2,0.4c1,1.7,1.8,3.9,2.3,6.3
					c0.6,2.3,0.9,4.9,1.1,7.3C187.7,259.7,187.7,264.4,187.7,266.6L187.7,266.6z M302.3,285.5c1.3-2.4,2.8-5,4.4-7.2
					c1.1-1.6,2.3-3.1,3.5-4.2c1-1,2-1.7,2.9-2l0.3-0.1l0,0.3c0.2,4.6,0.1,9.2-0.4,13.8c-0.5,4.6-1.4,9.1-2.6,13.6l-0.1,0.3l-0.3-0.2
					c-1.9-1.1-3.9-2.2-5.9-3.2c-2-1.1-4.1-2.1-6.1-3.1l0.2-0.5l0.4,0.1C299.3,291.4,300.6,288.5,302.3,285.5L302.3,285.5z
					 M287.3,271.8c-2.1,3.4-4.4,7.9-6.9,13.8l-0.1,0.2l0.3,0.1c2.8,1.1,5.5,2.2,8.3,3.3c2.7,1.1,5.3,2.3,7.9,3.6l0.3,0.1l0.1-0.3
					c1.3-4.5,2.1-9.3,2.4-13.6c0.3-4.4,0-8.4-0.8-11.3c-0.3-0.9-0.6-1.7-0.9-2.3c-0.4-0.6-0.8-1.1-1.2-1.4c-0.4-0.3-0.9-0.4-1.5-0.3
					c-0.5,0.1-1.1,0.3-1.7,0.8C291.6,265.8,289.6,268.1,287.3,271.8L287.3,271.8z M258.5,272.8c0.7-1.6,1.4-3.1,2-4.4
					c1.7-3.4,3.2-6.1,4.7-8.2c1.6-2.2,3-3.7,4.3-4.6c0.8-0.6,1.5-0.9,2.2-0.9c0.7-0.1,1.4,0.1,2,0.5c0.6,0.4,1.2,1,1.7,1.8
					c0.5,0.8,1,1.8,1.5,3c1.3,3.3,2.1,7.7,2.4,12.1c0.4,4.8,0.2,9.6-0.5,13.2l-0.1,0.3l-0.3-0.1c-0.8-0.3-1.6-0.6-2.4-0.9
					c-0.8-0.3-1.6-0.6-2.5-0.9c-2.8-1-5.6-1.9-8.4-2.8c-2.9-0.9-5.8-1.7-8.7-2.5l-0.3-0.1l0.1-0.3
					C257.1,276,257.8,274.3,258.5,272.8L258.5,272.8z M235.5,266.5c0.7-1.9,1.4-3.6,2.1-5.2c1.2-2.7,2.4-4.9,3.6-6.6
					c1.3-1.8,2.5-3.2,3.7-4.1c0.7-0.6,1.4-0.9,2.1-1.1c0.7-0.2,1.4-0.2,2,0c0.6,0.2,1.2,0.5,1.8,1.1c0.5,0.5,1.1,1.2,1.5,2.1
					c0.8,1.5,1.5,3.5,2,5.8c0.5,2.3,0.8,4.9,0.9,7.9c0.1,1.7,0.1,3.4,0,5.3c-0.1,1.8-0.2,3.7-0.4,5.6l0,0.3l-0.3-0.1
					c-3.5-0.9-6.9-1.8-10.4-2.6c-3.5-0.8-7-1.5-10.5-2.2l-0.3-0.1l0.1-0.3C234.1,270.3,234.8,268.3,235.5,266.5L235.5,266.5z
					 M211.5,262.2c0.7-2.1,1.4-4,2.1-5.7c1-2.5,2-4.5,2.9-6c1-1.7,2-2.9,2.9-3.8c0.7-0.6,1.4-1,2-1.2c0.7-0.2,1.4-0.1,2,0.2
					c0.6,0.3,1.3,0.8,1.8,1.4c0.6,0.7,1.2,1.6,1.7,2.6c0.7,1.3,1.3,2.8,1.9,4.4c0.6,1.7,1.1,3.6,1.5,5.5c0.5,2.3,0.9,4.6,1.1,6.7
					c0.2,2.2,0.3,4.2,0.2,5.9l0,0.3l-0.3-0.1c-3.7-0.7-7.4-1.3-11-1.8c-3.7-0.5-7.3-1-10.9-1.3l-0.3,0l0.1-0.3
					C210.1,266.5,210.8,264.2,211.5,262.2L211.5,262.2z M191.4,260.5c0.7-2.2,1.4-4.2,2-6c0.7-1.9,1.4-3.6,2.1-5
					c0.7-1.4,1.4-2.6,2-3.5c0.5-0.7,0.9-1.2,1.4-1.5c0.5-0.4,0.9-0.5,1.3-0.5c0.4,0,0.8,0.2,1.2,0.6c0.4,0.3,0.8,0.8,1.2,1.5
					c0.6,1,1.1,2.2,1.6,3.8c0.5,1.5,1,3.4,1.5,5.5c0.4,1.8,0.8,3.8,1.1,6.1c0.4,2.2,0.7,4.7,1,7.3l0,0.3l-0.3,0
					c-3.1-0.3-6.1-0.5-9.2-0.7c-3-0.2-6-0.3-8.9-0.3l-0.3,0l0.1-0.3C190,265.2,190.7,262.8,191.4,260.5z"/>
				<path class="st20" d="M278.7,266.2c-5.1,1-11.2,1.4-17.9,1.7c0.4-0.7,0.7-1.4,1.1-2.1c6.4-0.9,11.8-1.5,16.3-2.3
					C278.4,264.3,278.6,265.2,278.7,266.2L278.7,266.2z M255.3,268l-7.9-0.2l7.9-1.1C255.3,267.1,255.3,267.6,255.3,268z"/>
				<path class="st20" d="M278.8,266.9c-5.8,2.1-12.5,3.8-19.9,5c-0.1,0.3-0.3,0.6-0.4,0.9c-0.7,1.5-1.4,3.2-2.1,5l-0.1,0.3l0.3,0.1
					c2.9,0.8,5.8,1.6,8.7,2.5c2.8,0.9,5.7,1.8,8.4,2.8c0.8,0.3,1.7,0.6,2.5,0.9c0.8,0.3,1.6,0.6,2.4,0.9l0.3,0.1l0.1-0.3
					c0.7-3.5,0.9-8.4,0.5-13.2C279.3,270.2,279.1,268.5,278.8,266.9L278.8,266.9z M255.2,272.4c-4.9,0.7-10.1,1.2-15.4,1.6
					c1.5,0.3,2.9,0.6,4.4,1c3.5,0.8,6.9,1.6,10.4,2.6l0.3,0.1l0-0.3C255,275.6,255.1,274,255.2,272.4L255.2,272.4z M302.3,285.5
					c1.3-2.4,2.8-5,4.4-7.2c1.1-1.6,2.3-3.1,3.5-4.2c1-1,2-1.7,2.9-2l0.3-0.1l0,0.3c0.2,4.6,0.1,9.2-0.4,13.8
					c-0.5,4.6-1.4,9.1-2.6,13.6l-0.1,0.3l-0.3-0.2c-1.9-1.1-3.9-2.2-5.9-3.2c-2-1.1-4.1-2.1-6.1-3.1l0.2-0.5l0.4,0.1
					C299.3,291.4,300.6,288.5,302.3,285.5L302.3,285.5z M287.3,271.8c-2.1,3.4-4.4,7.9-6.9,13.8l-0.1,0.2l0.3,0.1
					c2.8,1.1,5.5,2.2,8.3,3.3c2.7,1.1,5.3,2.3,7.9,3.6l0.3,0.1l0.1-0.3c1.3-4.5,2.1-9.3,2.4-13.6c0.3-4.4,0-8.4-0.8-11.3
					c-0.3-0.9-0.6-1.7-0.9-2.3c-0.4-0.6-0.8-1.1-1.2-1.4c-0.4-0.3-0.9-0.4-1.5-0.3c-0.5,0.1-1.1,0.3-1.7,0.8
					C291.6,265.8,289.6,268.1,287.3,271.8z"/>
				<path class="st3" d="M174.6,268c0.3-3,0.7-5.9,1.3-8.8c3.5-16.4,12.6-31.1,25.7-41.2c13-10.1,30-15.7,49.4-13.9
					c3.3,0.3,6.7,0.8,10.1,1.5c1.3,0.3,2.7,0.6,4,1c20.1,5.5,33.8,18.6,41.6,34.9c7.7,16.2,9.5,35.6,5.6,53.7
					c-0.3,1.6-0.7,3.2-1.2,4.8l-0.4,1.3l-1.2-0.7c-19.1-11-41.5-19.1-63.8-24.3c-25-5.8-49.8-8.2-70-7l-1.2,0.1L174.6,268L174.6,268
					z M178,259.6c-0.5,2.4-0.9,4.9-1.2,7.4c20.2-1,44.8,1.4,69.4,7.2c22.1,5.2,44.2,13.1,63.2,23.9c0.3-1.1,0.5-2.2,0.8-3.3
					c3.8-17.6,2.1-36.5-5.5-52.3c-7.5-15.8-20.8-28.4-40.2-33.8c-1.2-0.3-2.5-0.7-3.9-0.9c-3.4-0.7-6.7-1.2-9.9-1.5
					c-18.8-1.7-35.3,3.7-47.9,13.5C190.2,229.5,181.4,243.7,178,259.6z"/>
			</g>
		</g>
		<path class="st4" d="M213.5,204.7c-11.6,6.1-15.8,9.4-25.7,18.7C194.6,212.1,202.8,206.7,213.5,204.7z"/>
	</g>
</g>
<g id="TEXTS">
</g>
</svg>
