<svg width="128" height="80" viewBox="0 0 128 80" fill="none" xmlns="http://www.w3.org/2000/svg">
<path d="M32.84 63.716C32.616 62.884 32.448 62.132 32.336 61.46C32.232 60.796 32.18 60.26 32.18 59.852C32.18 59.292 32.272 58.824 32.456 58.448C32.648 58.072 32.9 57.772 33.212 57.548C33.532 57.316 33.88 57.152 34.256 57.056C34.632 56.952 35.008 56.9 35.384 56.9C35.768 56.9 36.12 56.932 36.44 56.996C36.464 56.508 36.368 56.112 36.152 55.808C35.944 55.504 35.676 55.352 35.348 55.352C34.86 55.352 34.44 55.684 34.088 56.348L32.78 55.628C32.996 55.14 33.252 54.756 33.548 54.476C33.844 54.188 34.152 53.984 34.472 53.864C34.8 53.736 35.12 53.672 35.432 53.672C35.912 53.672 36.324 53.776 36.668 53.984C37.02 54.184 37.304 54.448 37.52 54.776C37.736 55.096 37.896 55.44 38 55.808C38.104 56.176 38.156 56.528 38.156 56.864C38.156 57.12 38.128 57.376 38.072 57.632C38.024 57.88 37.964 58.108 37.892 58.316C37.82 58.516 37.756 58.668 37.7 58.772C36.956 58.572 36.296 58.464 35.72 58.448C35.144 58.432 34.688 58.54 34.352 58.772C34.024 59.004 33.86 59.384 33.86 59.912C33.86 60.36 33.912 60.892 34.016 61.508C34.12 62.124 34.26 62.728 34.436 63.32L32.84 63.716ZM42.3782 59.06C41.6342 59.06 41.0582 58.984 40.6502 58.832C40.2502 58.68 39.9662 58.444 39.7982 58.124C39.6382 57.796 39.5502 57.384 39.5342 56.888L39.2822 50.216H40.9622L41.2142 56.084C41.2302 56.452 41.2702 56.728 41.3342 56.912C41.3982 57.096 41.5182 57.22 41.6942 57.284C41.8702 57.348 42.1382 57.38 42.4982 57.38C42.7942 57.38 43.0102 57.46 43.1462 57.62C43.2822 57.772 43.3502 57.964 43.3502 58.196C43.3502 58.444 43.2662 58.652 43.0982 58.82C42.9302 58.98 42.6902 59.06 42.3782 59.06ZM42.3945 59.06L42.5145 57.38C43.0345 57.38 43.3985 57.324 43.6065 57.212C43.8145 57.092 43.9185 56.844 43.9185 56.468C43.9185 56.244 43.8865 55.976 43.8225 55.664C43.7665 55.352 43.6905 55.032 43.5945 54.704C43.4985 54.368 43.4025 54.056 43.3065 53.768L44.9625 53.312C45.0585 53.584 45.1545 53.9 45.2505 54.26C45.3465 54.62 45.4265 54.992 45.4905 55.376C45.5625 55.76 45.5985 56.124 45.5985 56.468C45.5985 57.012 45.5145 57.456 45.3465 57.8C45.1785 58.136 44.9425 58.396 44.6385 58.58C44.3425 58.764 44.0025 58.892 43.6185 58.964C43.2345 59.028 42.8265 59.06 42.3945 59.06ZM42.8625 52.064L42.6585 51.224C42.9145 51.176 43.1185 51.136 43.2705 51.104C43.1265 51 43.0025 50.864 42.8985 50.696C42.7945 50.528 42.7425 50.344 42.7425 50.144C42.7425 49.856 42.8065 49.624 42.9345 49.448C43.0625 49.272 43.2265 49.144 43.4265 49.064C43.6265 48.984 43.8345 48.944 44.0505 48.944C44.2825 48.944 44.4945 48.976 44.6865 49.04L44.5905 49.904C44.5105 49.888 44.4305 49.872 44.3505 49.856C44.2705 49.84 44.1825 49.832 44.0865 49.832C43.9745 49.832 43.8785 49.868 43.7985 49.94C43.7185 50.004 43.6785 50.084 43.6785 50.18C43.6785 50.34 43.7425 50.48 43.8705 50.6C44.0065 50.712 44.1425 50.792 44.2785 50.84C44.5345 50.768 44.7705 50.688 44.9865 50.6L45.2265 51.404C44.9225 51.516 44.5505 51.636 44.1105 51.764C43.6785 51.884 43.2625 51.984 42.8625 52.064ZM46.8871 61.76L46.5391 60.08C47.2591 59.992 47.8631 59.876 48.3511 59.732C48.8471 59.596 49.2311 59.372 49.5031 59.06H49.1791C48.4271 59.06 47.8351 58.924 47.4031 58.652C46.9791 58.372 46.7671 57.896 46.7671 57.224C46.7671 56.864 46.8271 56.504 46.9471 56.144C47.0751 55.784 47.2511 55.456 47.4751 55.16C47.6991 54.856 47.9591 54.616 48.2551 54.44C48.5591 54.256 48.8871 54.164 49.2391 54.164C49.7111 54.164 50.1271 54.312 50.4871 54.608C50.8551 54.904 51.1391 55.296 51.3391 55.784C51.5471 56.272 51.6511 56.804 51.6511 57.38H52.5991C52.8951 57.38 53.1111 57.46 53.2471 57.62C53.3831 57.772 53.4511 57.964 53.4511 58.196C53.4511 58.444 53.3671 58.652 53.1991 58.82C53.0311 58.98 52.7911 59.06 52.4791 59.06H51.3751C51.0631 59.892 50.5191 60.532 49.7431 60.98C48.9751 61.436 48.0231 61.696 46.8871 61.76ZM48.4231 56.936C48.4231 57.024 48.4511 57.116 48.5071 57.212C48.5711 57.3 48.7111 57.372 48.9271 57.428C49.1431 57.476 49.4871 57.48 49.9591 57.44C49.9511 56.976 49.8751 56.612 49.7311 56.348C49.5871 56.076 49.3991 55.94 49.1671 55.94C48.9991 55.94 48.8591 56 48.7471 56.12C48.6351 56.232 48.5511 56.368 48.4951 56.528C48.4471 56.68 48.4231 56.816 48.4231 56.936ZM52.4961 59.06L52.6161 57.38C52.9841 57.38 53.2481 57.344 53.4081 57.272C53.5681 57.192 53.6641 57.048 53.6961 56.84C53.7281 56.624 53.7361 56.312 53.7201 55.904L53.5041 50.216H55.1961L55.4361 56.024C55.4521 56.488 55.4321 56.908 55.3761 57.284C55.3281 57.652 55.2041 57.968 55.0041 58.232C54.8121 58.496 54.5121 58.7 54.1041 58.844C53.7041 58.988 53.1681 59.06 52.4961 59.06ZM57.0186 59L56.7666 50.216H58.4466L58.6986 59H57.0186ZM69.3283 59.06C68.7283 59.06 68.2163 58.98 67.7923 58.82C67.3683 58.66 67.0483 58.388 66.8323 58.004C66.3283 58.1 65.8443 58.132 65.3803 58.1C64.9163 58.06 64.5043 57.96 64.1443 57.8C63.7843 57.632 63.5003 57.396 63.2923 57.092C63.0843 56.78 62.9803 56.396 62.9803 55.94C62.9803 55.404 63.1243 54.936 63.4123 54.536C63.7083 54.128 64.1083 53.784 64.6123 53.504C65.1243 53.224 65.7003 53.008 66.3403 52.856L66.3043 51.944H67.9963L68.2003 56.192C68.2243 56.688 68.3323 57.012 68.5243 57.164C68.7243 57.308 69.0323 57.38 69.4483 57.38C69.7523 57.38 69.9683 57.46 70.0963 57.62C70.2243 57.772 70.2883 57.964 70.2883 58.196C70.2883 58.444 70.2043 58.652 70.0363 58.82C69.8763 58.98 69.6403 59.06 69.3283 59.06ZM64.6603 55.784C64.6603 55.968 64.7483 56.112 64.9243 56.216C65.1083 56.32 65.3403 56.388 65.6203 56.42C65.9003 56.444 66.1923 56.428 66.4963 56.372L66.4243 54.524C65.8803 54.612 65.4483 54.772 65.1283 55.004C64.8163 55.236 64.6603 55.496 64.6603 55.784ZM65.0923 50.696C64.8603 50.696 64.6603 50.616 64.4923 50.456C64.3323 50.288 64.2523 50.092 64.2523 49.868C64.2523 49.636 64.3323 49.436 64.4923 49.268C64.6603 49.1 64.8603 49.016 65.0923 49.016C65.3163 49.016 65.5083 49.1 65.6683 49.268C65.8283 49.436 65.9083 49.636 65.9083 49.868C65.9083 50.092 65.8283 50.288 65.6683 50.456C65.5083 50.616 65.3163 50.696 65.0923 50.696ZM67.1683 50.708C66.9363 50.708 66.7363 50.628 66.5683 50.468C66.4083 50.308 66.3283 50.112 66.3283 49.88C66.3283 49.648 66.4083 49.448 66.5683 49.28C66.7363 49.112 66.9363 49.028 67.1683 49.028C67.3923 49.028 67.5843 49.112 67.7443 49.28C67.9043 49.448 67.9843 49.648 67.9843 49.88C67.9843 50.112 67.9043 50.308 67.7443 50.468C67.5843 50.628 67.3923 50.708 67.1683 50.708ZM69.3242 59.06L69.4442 57.38C69.7322 57.38 69.9802 57.352 70.1882 57.296C70.3962 57.24 70.5722 57.128 70.7162 56.96C70.8602 56.784 70.9802 56.528 71.0762 56.192C71.1802 55.856 71.2722 55.408 71.3522 54.848L72.9242 55.112C72.8922 55.296 72.8562 55.516 72.8162 55.772C72.7762 56.028 72.7562 56.264 72.7562 56.48C72.7562 56.768 72.8762 56.992 73.1162 57.152C73.3562 57.304 73.7682 57.38 74.3522 57.38C74.6482 57.38 74.8602 57.46 74.9882 57.62C75.1242 57.772 75.1922 57.964 75.1922 58.196C75.1922 58.444 75.1082 58.652 74.9402 58.82C74.7802 58.98 74.5442 59.06 74.2322 59.06C73.6722 59.06 73.1922 58.988 72.7922 58.844C72.4002 58.7 72.1122 58.444 71.9282 58.076C71.7122 58.364 71.4562 58.58 71.1602 58.724C70.8722 58.86 70.5682 58.952 70.2482 59C69.9362 59.04 69.6282 59.06 69.3242 59.06ZM72.6722 61.844C72.4402 61.844 72.2402 61.764 72.0722 61.604C71.9122 61.444 71.8322 61.248 71.8322 61.016C71.8322 60.784 71.9122 60.584 72.0722 60.416C72.2402 60.248 72.4402 60.164 72.6722 60.164C72.8962 60.164 73.0882 60.248 73.2482 60.416C73.4082 60.584 73.4882 60.784 73.4882 61.016C73.4882 61.248 73.4082 61.444 73.2482 61.604C73.0882 61.764 72.8962 61.844 72.6722 61.844ZM70.5962 61.844C70.3642 61.844 70.1642 61.764 69.9962 61.604C69.8362 61.444 69.7562 61.248 69.7562 61.016C69.7562 60.784 69.8362 60.584 69.9962 60.416C70.1642 60.248 70.3642 60.164 70.5962 60.164C70.8202 60.164 71.0122 60.248 71.1722 60.416C71.3322 60.584 71.4122 60.784 71.4122 61.016C71.4122 61.248 71.3322 61.444 71.1722 61.604C71.0122 61.764 70.8202 61.844 70.5962 61.844ZM74.1864 59.06L74.3064 57.38C74.6904 57.38 75.0464 57.364 75.3744 57.332C75.7104 57.292 76.0184 57.24 76.2984 57.176C76.1304 56.984 75.9544 56.8 75.7704 56.624C75.5864 56.448 75.4224 56.3 75.2784 56.18C75.2384 56.148 75.1904 56.064 75.1344 55.928C75.0864 55.784 75.0424 55.636 75.0024 55.484C74.9624 55.332 74.9424 55.22 74.9424 55.148C74.9424 54.964 75.0264 54.768 75.1944 54.56C75.3704 54.352 75.6024 54.16 75.8904 53.984C76.1864 53.8 76.5104 53.652 76.8624 53.54C77.2224 53.42 77.5864 53.36 77.9544 53.36C78.6904 53.36 79.2464 53.52 79.6224 53.84C80.0064 54.16 80.1984 54.58 80.1984 55.1C80.1984 55.46 80.1224 55.82 79.9704 56.18C79.8264 56.54 79.6064 56.88 79.3104 57.2C79.5584 57.256 79.8224 57.3 80.1024 57.332C80.3824 57.364 80.6704 57.38 80.9664 57.38C81.2624 57.38 81.4784 57.46 81.6144 57.62C81.7504 57.772 81.8184 57.964 81.8184 58.196C81.8184 58.444 81.7344 58.652 81.5664 58.82C81.3984 58.98 81.1584 59.06 80.8464 59.06C80.1664 59.06 79.5664 59.004 79.0464 58.892C78.5264 58.772 78.0624 58.604 77.6544 58.388C77.1984 58.596 76.6784 58.76 76.0944 58.88C75.5184 59 74.8824 59.06 74.1864 59.06ZM76.5024 55.124C76.7024 55.284 76.9264 55.488 77.1744 55.736C77.4304 55.984 77.6664 56.236 77.8824 56.492C78.3224 56.164 78.5424 55.808 78.5424 55.424C78.5424 55.264 78.4824 55.124 78.3624 55.004C78.2424 54.876 78.0264 54.812 77.7144 54.812C77.5544 54.812 77.3584 54.84 77.1264 54.896C76.8944 54.944 76.6864 55.02 76.5024 55.124ZM80.8555 59.06L80.9755 57.38C81.1675 57.38 81.3155 57.34 81.4195 57.26C81.5315 57.18 81.6395 57.044 81.7435 56.852C81.8475 56.652 81.9915 56.376 82.1755 56.024C82.5755 55.264 82.9995 54.736 83.4475 54.44C83.9035 54.144 84.3435 53.996 84.7675 53.996C85.2075 53.996 85.6115 54.144 85.9795 54.44C86.3555 54.728 86.7075 55.264 87.0355 56.048C87.2675 56.592 87.4995 56.952 87.7315 57.128C87.9635 57.296 88.2075 57.38 88.4635 57.38C88.7675 57.38 88.9835 57.46 89.1115 57.62C89.2395 57.772 89.3035 57.964 89.3035 58.196C89.3035 58.444 89.2195 58.652 89.0515 58.82C88.8835 58.98 88.6475 59.06 88.3435 59.06C87.9915 59.06 87.6675 59.008 87.3715 58.904C87.0755 58.8 86.8315 58.648 86.6395 58.448C86.5035 58.648 86.3155 58.828 86.0755 58.988C85.8435 59.14 85.5595 59.216 85.2235 59.216C85.0235 59.216 84.7875 59.176 84.5155 59.096C84.2515 59.024 83.9755 58.9 83.6875 58.724C83.4075 58.54 83.1475 58.292 82.9075 57.98C82.6755 58.404 82.4075 58.692 82.1035 58.844C81.7995 58.988 81.3835 59.06 80.8555 59.06ZM83.6035 56.564C83.7555 56.812 83.9755 57.04 84.2635 57.248C84.5515 57.448 84.8515 57.548 85.1635 57.548C85.3235 57.548 85.4555 57.488 85.5595 57.368C85.6635 57.24 85.6675 57.052 85.5715 56.804C85.5155 56.668 85.4355 56.508 85.3315 56.324C85.2355 56.14 85.1235 55.984 84.9955 55.856C84.8755 55.72 84.7435 55.652 84.5995 55.652C84.4395 55.652 84.2755 55.724 84.1075 55.868C83.9395 56.012 83.7715 56.244 83.6035 56.564ZM88.3438 59.06L88.4638 57.38C89.3278 57.38 90.1678 57.284 90.9838 57.092C91.7998 56.9 92.5238 56.592 93.1558 56.168C92.7878 55.952 92.3798 55.784 91.9318 55.664C91.4918 55.544 91.0078 55.484 90.4798 55.484C90.2798 55.484 90.0718 55.496 89.8558 55.52C89.6478 55.536 89.4358 55.568 89.2198 55.616L88.9798 53.972C89.2118 53.916 89.4558 53.872 89.7118 53.84C89.9678 53.808 90.1998 53.792 90.4078 53.792C90.9518 53.792 91.4398 53.864 91.8717 54.008C92.3038 54.152 92.6958 54.32 93.0478 54.512C93.4078 54.704 93.7398 54.872 94.0438 55.016C94.3558 55.16 94.6597 55.232 94.9557 55.232H95.3997L95.5918 56.828C95.2398 56.852 94.9158 56.92 94.6198 57.032C94.3238 57.144 94.0278 57.288 93.7318 57.464C93.4438 57.632 93.1318 57.808 92.7958 57.992C92.4678 58.176 92.0958 58.348 91.6798 58.508C91.2638 58.668 90.7838 58.8 90.2398 58.904C89.6958 59.008 89.0638 59.06 88.3438 59.06ZM91.9438 61.82C91.7118 61.82 91.5118 61.74 91.3438 61.58C91.1838 61.42 91.1038 61.224 91.1038 60.992C91.1038 60.76 91.1838 60.556 91.3438 60.38C91.5118 60.212 91.7118 60.128 91.9438 60.128C92.1678 60.128 92.3638 60.212 92.5318 60.38C92.6998 60.556 92.7838 60.76 92.7838 60.992C92.7838 61.224 92.6998 61.42 92.5318 61.58C92.3638 61.74 92.1678 61.82 91.9438 61.82Z" fill="#5344C6"/>
<path d="M7.74803 77L6.90803 75.056H2.70803L1.88003 77H0.272031L4.05203 68.6H5.58803L9.38003 77H7.74803ZM3.23603 73.832H6.39203L4.80803 70.16L3.23603 73.832ZM10.3043 77V68.096H11.8043V77H10.3043ZM28.0215 68.6H29.5095L26.7255 77H25.0695L22.9935 70.784L20.8815 77H19.2135L16.4295 68.6H18.0495L20.1375 74.984L22.3095 68.6H23.7495L25.8735 75.02L28.0215 68.6ZM31.4509 69.536C30.8989 69.536 30.4909 69.14 30.4909 68.636C30.4909 68.132 30.8989 67.736 31.4509 67.736C32.0029 67.736 32.4109 68.108 32.4109 68.6C32.4109 69.128 32.0149 69.536 31.4509 69.536ZM30.6949 77V70.592H32.1949V77H30.6949ZM36.6117 70.52C38.4597 70.52 39.5277 71.396 39.5277 73.244V77H38.1117V76.22C37.7517 76.772 37.0557 77.084 36.0957 77.084C34.6317 77.084 33.7077 76.28 33.7077 75.164C33.7077 74.096 34.4277 73.256 36.3717 73.256H38.0277V73.16C38.0277 72.284 37.4997 71.768 36.4317 71.768C35.7117 71.768 34.9677 72.008 34.4877 72.404L33.8997 71.312C34.5837 70.784 35.5797 70.52 36.6117 70.52ZM36.4077 75.992C37.1397 75.992 37.7757 75.656 38.0277 74.996V74.252H36.4797C35.4597 74.252 35.1837 74.636 35.1837 75.104C35.1837 75.644 35.6397 75.992 36.4077 75.992ZM49.5408 70.52C51.0888 70.52 52.1688 71.396 52.1688 73.328V77H50.6688V73.52C50.6688 72.38 50.1408 71.828 49.2288 71.828C48.2448 71.828 47.5608 72.476 47.5608 73.748V77H46.0608V73.52C46.0608 72.38 45.5328 71.828 44.6208 71.828C43.6248 71.828 42.9528 72.476 42.9528 73.748V77H41.4528V70.592H42.8808V71.408C43.3608 70.832 44.1048 70.52 44.9808 70.52C45.9168 70.52 46.6968 70.868 47.1408 71.588C47.6568 70.928 48.5208 70.52 49.5408 70.52ZM63.834 77L62.994 75.056H58.794L57.966 77H56.358L60.138 68.6H61.674L65.466 77H63.834ZM59.322 73.832H62.478L60.894 70.16L59.322 73.832ZM68.3117 77.084C67.2437 77.084 66.1757 76.772 65.5997 76.364L66.1757 75.224C66.7397 75.596 67.6037 75.86 68.4077 75.86C69.3557 75.86 69.7517 75.596 69.7517 75.152C69.7517 73.928 65.7917 75.08 65.7917 72.524C65.7917 71.312 66.8837 70.52 68.6117 70.52C69.4637 70.52 70.4357 70.724 71.0117 71.072L70.4357 72.212C69.8237 71.852 69.2117 71.732 68.5997 71.732C67.6877 71.732 67.2557 72.032 67.2557 72.452C67.2557 73.748 71.2157 72.596 71.2157 75.104C71.2157 76.304 70.1117 77.084 68.3117 77.084ZM74.4874 77.084C73.4194 77.084 72.3514 76.772 71.7754 76.364L72.3514 75.224C72.9154 75.596 73.7794 75.86 74.5834 75.86C75.5314 75.86 75.9274 75.596 75.9274 75.152C75.9274 73.928 71.9674 75.08 71.9674 72.524C71.9674 71.312 73.0594 70.52 74.7874 70.52C75.6394 70.52 76.6114 70.724 77.1874 71.072L76.6114 72.212C75.9994 71.852 75.3874 71.732 74.7754 71.732C73.8634 71.732 73.4314 72.032 73.4314 72.452C73.4314 73.748 77.3914 72.596 77.3914 75.104C77.3914 76.304 76.2874 77.084 74.4874 77.084ZM81.5632 77.084C79.5952 77.084 78.1552 75.716 78.1552 73.796C78.1552 71.876 79.5952 70.52 81.5632 70.52C83.5552 70.52 84.9832 71.876 84.9832 73.796C84.9832 75.716 83.5552 77.084 81.5632 77.084ZM81.5632 75.8C82.6552 75.8 83.4712 75.02 83.4712 73.796C83.4712 72.572 82.6552 71.792 81.5632 71.792C80.4832 71.792 79.6672 72.572 79.6672 73.796C79.6672 75.02 80.4832 75.8 81.5632 75.8ZM89.3576 77.084C87.3296 77.084 85.8896 75.716 85.8896 73.796C85.8896 71.876 87.3296 70.52 89.3576 70.52C90.6056 70.52 91.6016 71.036 92.0936 72.008L90.9416 72.68C90.5576 72.068 89.9816 71.792 89.3456 71.792C88.2416 71.792 87.4016 72.56 87.4016 73.796C87.4016 75.044 88.2416 75.8 89.3456 75.8C89.9816 75.8 90.5576 75.524 90.9416 74.912L92.0936 75.584C91.6016 76.544 90.6056 77.084 89.3576 77.084ZM94.1463 69.536C93.5943 69.536 93.1863 69.14 93.1863 68.636C93.1863 68.132 93.5943 67.736 94.1463 67.736C94.6983 67.736 95.1063 68.108 95.1063 68.6C95.1063 69.128 94.7103 69.536 94.1463 69.536ZM93.3903 77V70.592H94.8903V77H93.3903ZM99.307 70.52C101.155 70.52 102.223 71.396 102.223 73.244V77H100.807V76.22C100.447 76.772 99.751 77.084 98.791 77.084C97.327 77.084 96.403 76.28 96.403 75.164C96.403 74.096 97.123 73.256 99.067 73.256H100.723V73.16C100.723 72.284 100.195 71.768 99.127 71.768C98.407 71.768 97.663 72.008 97.183 72.404L96.595 71.312C97.279 70.784 98.275 70.52 99.307 70.52ZM99.103 75.992C99.835 75.992 100.471 75.656 100.723 74.996V74.252H99.175C98.155 74.252 97.879 74.636 97.879 75.104C97.879 75.644 98.335 75.992 99.103 75.992ZM107.58 75.584L108 76.652C107.64 76.94 107.1 77.084 106.56 77.084C105.156 77.084 104.352 76.34 104.352 74.924V71.84H103.296V70.64H104.352V69.176H105.852V70.64H107.568V71.84H105.852V74.888C105.852 75.512 106.164 75.848 106.74 75.848C107.052 75.848 107.352 75.764 107.58 75.584ZM109.99 69.536C109.438 69.536 109.03 69.14 109.03 68.636C109.03 68.132 109.438 67.736 109.99 67.736C110.542 67.736 110.95 68.108 110.95 68.6C110.95 69.128 110.554 69.536 109.99 69.536ZM109.234 77V70.592H110.734V77H109.234ZM115.583 77.084C113.615 77.084 112.175 75.716 112.175 73.796C112.175 71.876 113.615 70.52 115.583 70.52C117.575 70.52 119.003 71.876 119.003 73.796C119.003 75.716 117.575 77.084 115.583 77.084ZM115.583 75.8C116.675 75.8 117.491 75.02 117.491 73.796C117.491 72.572 116.675 71.792 115.583 71.792C114.503 71.792 113.687 72.572 113.687 73.796C113.687 75.02 114.503 75.8 115.583 75.8ZM124.073 70.52C125.609 70.52 126.749 71.396 126.749 73.328V77H125.249V73.52C125.249 72.38 124.685 71.828 123.725 71.828C122.657 71.828 121.937 72.476 121.937 73.76V77H120.437V70.592H121.865V71.42C122.357 70.832 123.137 70.52 124.073 70.52Z" fill="#5344C6"/>
<path d="M76.6561 29.0511C75.3376 30.06 73.9579 30.8925 72.2299 31.1139C72.3397 30.9105 72.4972 30.8619 72.6331 30.7926C74.0893 30.0519 75.2935 29.0034 76.351 27.7713C76.5697 27.5166 76.6489 27.2421 76.6156 26.9109C76.4491 25.227 75.8353 23.7006 74.9983 22.2516C73.876 20.3076 72.445 18.5994 70.9492 16.9407C69.448 15.2748 67.8964 13.6521 66.5662 11.8395C65.0929 9.83067 64.0174 7.65177 63.6889 5.14887C63.4621 3.42357 63.6223 1.73157 64.0948 0.0620728C64.0696 0.881973 64.0471 1.69917 64.1488 2.51547C64.4197 4.69527 65.3629 6.59067 66.5131 8.43027C67.7011 10.3329 69.4165 11.5722 71.3074 12.654C72.94 13.5873 74.5726 14.5197 76.0873 15.6474C78.016 17.0838 79.1626 18.9738 79.5406 21.3399C79.8826 23.4801 79.3534 25.4241 78.1564 27.1935C77.8243 27.6849 77.6803 28.1718 77.6974 28.7613C77.7586 30.8898 77.5957 32.9976 76.9423 35.0406C75.7444 38.7819 73.2055 41.2272 69.583 42.6123C66.9064 43.6356 64.1236 43.7994 61.3003 43.6131C60.8809 43.5852 60.4579 43.5645 60.0439 43.4079C64.255 43.4673 68.1007 42.4377 71.3236 39.6126C74.5132 36.8163 76.4032 33.3504 76.6561 29.0511ZM72.3739 15.1947C72.346 15.1965 72.3181 15.1983 72.2902 15.1992C72.3037 15.2136 72.3172 15.2271 72.3307 15.2415C72.9625 16.0578 73.6483 16.8309 74.2531 17.6679C75.7057 19.6776 76.8442 21.8313 77.3113 24.2946C77.4049 24.7887 77.4679 25.2882 77.5471 25.8012C77.6992 25.7121 77.728 25.5708 77.7847 25.4529C78.2662 24.4692 78.5065 23.4153 78.6964 22.3452C78.9628 20.8404 78.5056 19.6038 77.3644 18.5931C75.8434 17.2485 74.1523 16.1586 72.3739 15.1947Z" fill="#C2C740"/>
<path d="M53.0403 39.9347C54.1131 40.2083 55.2057 40.3784 56.3055 40.4792C60.9531 40.9076 64.6485 39.2391 67.3089 35.3879C68.4771 33.6968 69.0045 31.7708 69.1629 29.7351C69.1809 29.5082 69.1089 29.5091 68.9379 29.5865C68.5635 29.7575 68.1828 29.9096 67.7607 29.9222C66.8103 29.9501 66.1596 29.3597 66.1317 28.4111C66.1101 27.6614 66.1425 26.9162 66.3873 26.1953C66.5646 25.6733 66.822 25.2368 67.4322 25.1531C68.0631 25.0658 68.586 25.2638 68.9901 25.7597C69.1656 25.9748 69.2826 26.2232 69.3771 26.4815C69.4419 26.6588 69.5121 26.7281 69.6921 26.5841C70.2735 26.1197 70.6713 25.5302 70.9341 24.8408C70.9989 24.6707 70.9386 24.5231 70.8801 24.3719C70.5714 23.5709 70.1007 22.8707 69.5418 22.2263C68.757 21.3218 67.8912 20.4947 67.0452 19.6496C65.9877 18.5921 64.9536 17.5148 64.0185 16.343C61.4553 13.1309 60.6237 9.50485 61.3815 5.49085C61.458 5.08585 61.4517 4.64845 61.8207 4.21735C61.8054 4.45765 61.8036 4.59985 61.7874 4.74025C61.4175 7.92985 62.3553 10.7441 64.2372 13.2893C65.0319 14.3639 65.9364 15.3431 66.8742 16.2917C67.9956 17.4257 69.1503 18.5273 70.1853 19.7441C70.5903 20.2202 70.9557 20.7224 71.2293 21.2876C71.5794 22.0103 71.7441 22.7699 71.6613 23.5718C71.5344 24.8021 71.2959 26.0108 70.8801 27.179C70.6479 27.8306 70.3221 28.4327 69.828 28.9268C69.6453 29.1104 69.6507 29.3067 69.6732 29.5434C69.9162 32.1236 69.6444 34.6283 68.4177 36.9521C67.1163 39.4172 64.9635 40.7366 62.3076 41.3334C59.3745 41.9921 56.5656 41.5124 53.8251 40.4045C53.5614 40.2975 53.3022 40.1786 53.0403 40.0661C53.0412 40.0211 53.0412 39.9779 53.0403 39.9347Z" fill="#C2C740"/>
<path d="M53.8592 20.097C53.8025 20.016 53.7503 20.0754 53.708 20.1087C51.755 21.6621 49.9442 23.3424 48.7931 25.6122C47.9309 27.3141 47.5034 29.1042 47.6366 31.0248C47.7923 33.2685 48.8174 35.0046 50.6363 36.2871C52.9646 37.9287 55.5818 38.3805 58.3592 38.0754C60.2834 37.8648 61.9997 37.1628 63.3884 35.7687C64.0013 35.1531 64.4747 34.4403 64.8509 33.6591C64.9031 33.5511 64.9211 33.4197 65.048 33.336C65.1317 33.5358 65.0309 33.6978 64.9652 33.8607C63.8978 36.5301 61.9511 38.2329 59.2178 39.0546C55.9418 40.0392 52.9331 39.5928 50.288 37.323C49.2548 36.4365 48.5006 35.3403 48.0596 34.0551C47.0147 31.0086 46.7978 27.9234 47.7095 24.7968C48.2684 22.8798 49.3601 21.2958 50.7299 19.8801C52.0601 18.504 53.5631 17.3304 55.0832 16.1802C55.4261 15.921 55.5566 15.6618 55.4477 15.2298C55.3478 14.8347 55.3406 14.4162 55.2947 14.0076C55.2677 13.77 55.3712 13.6647 55.5998 13.7574C56.3162 14.0472 56.8868 13.7682 57.4088 13.3056C58.2521 12.5577 58.7192 11.6541 58.5527 10.4931C58.5419 10.4202 58.5419 10.3446 58.5482 10.2708C58.5527 10.2249 58.5797 10.1808 58.6022 10.1205C58.6445 10.1484 58.6895 10.1619 58.6949 10.1844C58.9532 11.2905 59.1548 12.4029 59.1467 13.5459C59.1386 14.6025 58.7633 15.5124 58.0937 16.3161C57.3953 17.154 56.5754 17.8605 55.7222 18.5319C55.1741 18.963 54.6161 19.3833 54.0707 19.818C53.9807 19.8891 53.8151 19.9233 53.8538 20.1015L53.8592 20.097Z" fill="#C2C740"/>
<path d="M67.4708 9.07825C67.7849 9.15565 68.0711 9.21865 68.3528 9.29605C75.6563 11.3157 81.0095 17.7714 81.5783 25.3287C82.364 35.7696 74.5673 43.9677 65.2316 44.8569C55.3667 45.7965 46.5134 38.5101 45.4658 28.6623C44.5217 19.7919 50.4689 10.9107 59.9621 8.99095C60.0476 8.97385 60.1331 8.94865 60.2195 8.94685C60.3347 8.94505 60.4976 8.80915 60.539 9.05125C60.5795 9.28705 60.4004 9.27355 60.2609 9.30415C60.0179 9.35815 59.7731 9.40495 59.5301 9.46075C51.4526 11.3328 45.7286 18.5382 45.7475 26.811C45.7664 35.1144 51.5129 42.2955 59.612 44.136C69.6731 46.422 79.6676 39.5271 81.0914 29.3166C82.3397 20.3643 76.8326 12.0006 68.117 9.61825C67.8308 9.53905 67.5743 9.45175 67.4708 9.07825Z" fill="#C2C740"/>
<path d="M53.8538 20.1024C54.0878 20.1051 54.2255 19.9233 54.3875 19.8045C54.6116 19.6398 54.6962 19.6596 54.7826 19.9386C55.2146 21.3309 55.6637 22.7169 56.1137 24.1029C56.6294 25.6914 57.1838 27.2655 57.9398 28.7604C58.3313 29.5344 58.8011 30.2481 59.513 30.7737C60.9881 31.8627 62.6576 31.3389 63.2435 29.601C63.4883 28.8756 63.5441 28.1133 63.6539 27.3627C63.7421 26.7579 63.833 26.1531 64.0697 25.5843C64.2632 25.1199 64.5404 24.7212 65.0282 24.4053C65.1119 25.2666 65.1893 26.0685 65.2676 26.8713C65.2775 26.9712 65.2226 27.0351 65.1488 27.0882C64.4396 27.603 64.1741 28.3572 64.0346 29.1735C63.9257 29.8116 63.842 30.4542 63.7376 31.0941C63.6548 31.5999 63.5117 32.0895 63.3011 32.5584C62.6711 33.9588 61.1096 34.4421 59.7974 33.6357C58.9739 33.1299 58.4303 32.3748 57.9857 31.5396C57.4754 30.5802 57.0677 29.5749 56.7176 28.5489C55.8833 26.1099 55.1129 23.6484 54.212 21.2319C54.0743 20.862 53.9771 20.4759 53.861 20.097C53.8592 20.097 53.8538 20.1024 53.8538 20.1024Z" fill="#C2C740"/>
<path d="M52.9925 33.7752C52.8971 33.552 52.7999 33.3405 52.7144 33.1245C52.5668 32.7528 52.4048 32.3892 52.1834 32.0562C51.8855 31.6071 51.4778 31.3731 50.9261 31.3929C50.4122 31.4118 50.2916 31.3002 50.2574 30.7773C50.2385 30.492 50.2547 30.2049 50.2511 29.9187C50.2475 29.6073 50.3852 29.5515 50.6516 29.6775C51.3995 30.0321 52.0277 30.5244 52.4768 31.23C52.5479 31.3407 52.583 31.482 52.7396 31.5648C52.8305 31.4325 52.7729 31.3011 52.7405 31.185C52.5893 30.6459 52.4291 30.1086 52.2698 29.5722C52.0016 28.6695 51.8171 27.7578 51.9827 26.811C52.0169 26.6157 52.0682 26.4213 52.1348 26.2341C52.3328 25.6734 52.7612 25.3602 53.2409 25.4088C53.6531 25.4502 54.086 25.9128 54.1742 26.4123C54.2282 26.7174 54.176 27.0027 53.9951 27.2907C53.753 27.0513 53.5604 26.7921 53.2841 26.622C52.8323 26.3457 52.4885 26.4699 52.3436 26.9829C52.2293 27.3879 52.2581 27.7974 52.3481 28.2033C52.5731 29.2113 52.9439 30.1851 53.078 31.2147C53.1734 31.9446 53.2346 32.6772 53.1338 33.4116C53.1176 33.5304 53.1374 33.6663 52.9925 33.7752ZM52.8125 31.6899C52.8035 31.671 52.7981 31.6377 52.7864 31.635C52.7468 31.626 52.7306 31.6521 52.7432 31.689C52.7495 31.7088 52.7666 31.725 52.7783 31.743C52.79 31.7259 52.8017 31.7079 52.8125 31.6899Z" fill="#C2C740"/>
<path d="M62.4524 15.5151C62.348 16.0434 62.1878 16.5537 61.916 17.0208C60.7397 19.0377 59.1017 20.5506 56.9624 21.5028C56.8085 21.5712 56.5889 21.7638 56.4656 21.5577C56.3324 21.3345 56.6276 21.2679 56.7572 21.1689C58.8299 19.5975 60.5804 17.7246 62.024 15.5628C62.0582 15.5115 62.0906 15.4575 62.123 15.4044C62.1761 15.3162 62.2382 15.2226 62.3552 15.2622C62.4731 15.3009 62.4668 15.4116 62.4524 15.5151Z" fill="#C2C740"/>
<path d="M74.2955 32.733C74.2361 33.1938 74.0993 33.6447 73.8725 34.065C72.779 36.0909 71.1851 37.5948 69.1241 38.61C68.9675 38.6874 68.8154 38.772 68.657 38.844C68.5409 38.8962 68.4023 38.9376 68.3222 38.8026C68.2349 38.6541 68.369 38.5767 68.4689 38.5074C69.2708 37.9539 69.9917 37.3041 70.691 36.6309C71.924 35.4429 73.0112 34.1343 73.9436 32.697C74.003 32.6052 74.0435 32.4828 74.1884 32.5098C74.3081 32.5332 74.2883 32.6349 74.2955 32.733Z" fill="#C2C740"/>
<path d="M61.4373 23.3765C60.9755 22.8887 60.8261 22.8437 60.4382 23.0174C60.206 23.1218 60.1736 23.237 60.3437 23.4359C60.7649 23.9273 61.5596 24.1469 62.2248 23.9309C62.4606 23.8544 62.6946 23.7644 62.9196 23.6609C63.1491 23.5556 63.1779 23.66 63.159 23.8517C63.1167 24.2819 62.9402 24.6221 62.5055 24.7607C61.6865 25.0199 60.9521 25.4222 60.3122 25.9973C60.2582 26.0459 60.197 26.1242 60.1223 26.0774C60.0332 26.0216 60.0791 25.919 60.0971 25.838C60.1475 25.613 60.2655 25.4177 60.4194 25.2557C60.6498 25.0145 60.5858 24.8552 60.3203 24.7184C60.2987 24.7076 60.2799 24.6896 60.2592 24.6752C59.5842 24.191 59.4762 23.9345 59.6769 23.2775C59.9019 22.5377 60.5166 21.9779 61.134 21.95C61.4895 21.9338 61.7594 22.2587 61.7027 22.6592C61.6676 22.904 61.5866 23.1389 61.4373 23.3765Z" fill="#C2C740"/>
<path d="M52.1816 14.0184C52.3202 14.085 52.3472 14.2308 52.4093 14.3451C52.826 15.1236 53.186 15.9282 53.5442 16.7346C53.6306 16.9299 53.6027 17.0361 53.4344 17.1693C52.7252 17.7318 52.7306 17.7372 52.358 16.9038C52.0277 16.164 51.9431 14.7987 52.1816 14.0184Z" fill="#C2C740"/>
<path d="M79.539 27.3744C79.377 27.9612 79.1943 28.5453 79.1664 29.1573C79.1529 29.4453 79.0809 29.8134 79.4175 29.9502C79.7766 30.096 79.9692 29.7657 80.1699 29.5353C80.2482 29.4453 80.3112 29.3418 80.4093 29.2563C80.3661 29.7117 80.277 30.1545 79.9755 30.5163C79.6677 30.8862 79.251 30.8448 78.9891 30.4344C78.8118 30.1572 78.8028 29.8449 78.8226 29.5335C78.873 28.7406 79.1466 28.0071 79.4436 27.2808C79.4751 27.3123 79.5075 27.3429 79.539 27.3744Z" fill="#C2C740"/>
<path d="M73.0436 25.2567C72.9185 25.6977 72.7718 26.1351 72.7457 26.5968C72.7331 26.8254 72.6665 27.1152 72.9329 27.2241C73.2047 27.3348 73.3433 27.0738 73.4954 26.9001C73.5341 26.8551 73.5692 26.8065 73.6358 26.7723C73.6133 27.0729 73.5575 27.3627 73.3703 27.6084C73.1192 27.9378 72.7547 27.8982 72.5738 27.5229C72.4442 27.2538 72.4649 26.9658 72.5099 26.6823C72.5882 26.19 72.7439 25.7202 72.9428 25.263C72.977 25.2612 73.0103 25.2594 73.0436 25.2567Z" fill="#C2C740"/>
<path d="M56.7132 34.7831C56.688 35.108 56.6142 35.3537 56.4846 35.5805C56.3766 35.7695 56.2353 35.9405 55.9887 35.9C55.7376 35.8595 55.6134 35.6678 55.5666 35.4356C55.4541 34.8803 55.6215 34.37 55.8402 33.8669C55.9266 34.0784 55.8141 34.28 55.8132 34.4852C55.8114 34.7705 55.6494 35.1512 55.9806 35.2925C56.3262 35.441 56.4522 35.0306 56.7132 34.7831Z" fill="#C2C740"/>
<path d="M64.3226 20.8584C64.2524 21.1977 64.1606 21.5343 64.1759 21.8853C64.1831 22.0482 64.184 22.2264 64.3568 22.3038C64.5521 22.3911 64.6835 22.2498 64.805 22.1247C64.895 22.0311 64.9724 21.9258 65.0984 21.7746C65.084 22.131 64.9877 22.392 64.8401 22.6341C64.7393 22.7997 64.5944 22.9329 64.3874 22.905C64.1723 22.8753 64.0463 22.7151 63.977 22.5162C63.8789 22.2372 63.9014 21.951 63.9635 21.672C64.0247 21.3948 64.112 21.123 64.1876 20.8494C64.2326 20.8521 64.2776 20.8548 64.3226 20.8584Z" fill="#C2C740"/>
<path d="M64.3227 20.8584C64.2777 20.8557 64.2318 20.8521 64.1868 20.8494C64.2921 20.4291 64.4658 20.0385 64.7268 19.6821C64.5927 20.0736 64.4577 20.466 64.3227 20.8584Z" fill="#C2C740"/>
<path d="M56.3233 32.7276C56.1946 33.1029 56.0659 33.4782 55.9363 33.8535C55.9003 33.84 55.8634 33.8265 55.8274 33.8121C55.8859 33.4152 56.0857 33.0696 56.3233 32.7276Z" fill="#C2C740"/>
<path d="M79.5388 27.3744C79.5073 27.3438 79.4758 27.3132 79.4443 27.2817C79.5388 26.9541 79.6882 26.6526 79.9159 26.3862C79.7899 26.7156 79.6639 27.045 79.5388 27.3744Z" fill="#C2C740"/>
<path d="M53.0402 39.9348C53.0411 39.978 53.0411 40.0212 53.042 40.0644C52.8035 40.0149 52.5866 39.9177 52.3877 39.771C52.6217 39.7674 52.8332 39.8421 53.0402 39.9348Z" fill="#C2C740"/>
<path d="M49.0659 18.2835C49.0308 17.9658 49.1424 17.7894 49.2621 17.613C49.2756 17.8254 49.2324 18.0234 49.0659 18.2835Z" fill="#C2C740"/>
<path d="M49.8154 19.1439C49.7821 19.4724 49.7146 19.6956 49.5913 19.8999C49.4905 20.0655 49.36 20.2077 49.1431 20.1708C48.937 20.1357 48.8344 19.9764 48.7732 19.791C48.6643 19.4625 48.7516 18.8676 48.9883 18.4194C49.0729 18.6579 48.9649 18.8532 48.9739 19.0458C48.9847 19.26 48.8902 19.539 49.1638 19.6308C49.405 19.7109 49.5274 19.4742 49.6624 19.3158C49.693 19.2798 49.7245 19.2456 49.8154 19.1439Z" fill="#C2C740"/>
<path d="M49.0207 18.3762C49.0135 18.3393 49.0018 18.3087 49.0036 18.279C49.0045 18.2655 49.0324 18.2547 49.0486 18.243C49.0585 18.2727 49.0738 18.3024 49.0765 18.3321C49.0774 18.3429 49.0468 18.3564 49.0207 18.3762Z" fill="#C2C740"/>
<path d="M73.0437 25.2567C73.0104 25.2585 72.9762 25.2612 72.9429 25.263C72.9924 25.0434 73.1031 24.8526 73.2633 24.678C73.1904 24.8706 73.1175 25.0641 73.0437 25.2567Z" fill="#C2C740"/>
</svg>
