<?xml version="1.0" encoding="utf-8"?>
<!-- Generator: Adobe Illustrator 24.3.0, SVG Export Plug-In . SVG Version: 6.00 Build 0)  -->
<svg version="1.1" id="Layer_1" xmlns="http://www.w3.org/2000/svg" xmlns:xlink="http://www.w3.org/1999/xlink" x="0px" y="0px"
	 viewBox="0 0 500 500" style="enable-background:new 0 0 500 500;" xml:space="preserve">
<g>
	<path id="SVGID_5_" style="fill:#FFF6CF;" d="M126.63,101.13c0,0,47.89,0.16,75.53-44.76c27.64-44.93,65.47-50.16,95.64-42.9
		c29.72,7.15,53.24,32.87,56.16,60.63s22.65,61.23,76.7,62.39c54.06,1.16,71.61,64.03,26.31,106.01s2.74,70.74,20.9,104.21
		c18.17,33.47,7.76,128.05-72.03,119.61s-75.63-32.6-129.87,0.53S161.66,497.58,153.3,451.3s-44.79-52.65-93.01-65.17
		c-48.21-12.52-66.48-80.45-14.61-112.6c51.87-32.14,21.91-61.63,17.53-95.46C58.85,144.23,71.7,99.67,126.63,101.13z"/>
	<g id="SVGID_1_">
		<g>
			<path style="fill:#F4D787;" d="M137.9,114.32c1.96-0.04,3.96-0.23,5.92-0.47c1.97-0.25,3.94-0.58,5.89-0.97
				c0.23-0.05,0.46,0.1,0.51,0.34c0.05,0.23-0.1,0.46-0.34,0.51l0,0c-1.97,0.38-3.96,0.7-5.95,0.94c-2,0.23-3.99,0.42-6.03,0.44
				c-0.22,0-0.4-0.17-0.4-0.39c0-0.22,0.17-0.4,0.39-0.4L137.9,114.32z"/>
			<path style="fill:#F4D787;" d="M161.22,109.76c3.76-1.3,7.43-2.85,10.98-4.64c0.24-0.12,0.54-0.03,0.66,0.22
				c0.12,0.24,0.03,0.54-0.22,0.66l0,0c-3.6,1.8-7.32,3.34-11.12,4.64c-0.24,0.08-0.5-0.05-0.59-0.29
				C160.85,110.1,160.98,109.84,161.22,109.76z"/>
			<path style="fill:#F4D787;" d="M182.39,98.96c3.24-2.3,6.31-4.83,9.18-7.57c0.27-0.26,0.7-0.25,0.95,0.02
				c0.26,0.27,0.25,0.7-0.02,0.95c0,0-0.01,0.01-0.01,0.01c-2.97,2.73-6.13,5.24-9.46,7.51c-0.26,0.18-0.61,0.11-0.79-0.15
				C182.08,99.49,182.14,99.14,182.39,98.96z"/>
			<path style="fill:#F4D787;" d="M199.56,82.6c1.22-1.56,2.4-3.16,3.51-4.79c1.12-1.64,2.14-3.31,3.17-5.04
				c0.26-0.44,0.82-0.58,1.26-0.32c0.44,0.26,0.58,0.82,0.32,1.26c0,0.01-0.01,0.01-0.01,0.02l-0.01,0.02
				c-1.06,1.68-2.19,3.39-3.36,5.02c-1.17,1.65-2.39,3.25-3.66,4.82c-0.27,0.34-0.77,0.39-1.1,0.11
				C199.35,83.42,199.3,82.93,199.56,82.6z"/>
			<path style="fill:#F4D787;" d="M213.03,62.74c2.44-3.22,5.07-6.31,7.91-9.21c0.49-0.5,1.28-0.51,1.78-0.02
				c0.5,0.49,0.51,1.28,0.02,1.78c-0.01,0.01-0.02,0.02-0.03,0.03c-2.83,2.74-5.49,5.68-7.97,8.76c-0.38,0.47-1.06,0.54-1.53,0.17
				C212.75,63.88,212.67,63.21,213.03,62.74z"/>
			<path style="fill:#F4D787;" d="M230.04,45.43c3.23-2.48,6.67-4.71,10.29-6.64c0.81-0.43,1.82-0.13,2.25,0.68s0.13,1.82-0.68,2.25
				c-0.01,0.01-0.04,0.02-0.05,0.03c-3.51,1.72-6.88,3.74-10.07,6.02c-0.65,0.47-1.56,0.32-2.03-0.34
				C229.28,46.79,229.42,45.9,230.04,45.43z"/>
			<path style="fill:#F4D787;" d="M251.63,33.96c3.91-1.28,7.93-2.21,12-2.81c1.14-0.17,2.19,0.62,2.36,1.76
				c0.17,1.14-0.62,2.19-1.76,2.36c-0.02,0-0.05,0.01-0.07,0.01c-3.86,0.43-7.69,1.17-11.43,2.25c-0.99,0.29-2.03-0.28-2.32-1.27
				C250.14,35.29,250.68,34.28,251.63,33.96z"/>
			<path style="fill:#F4D787;" d="M275.94,30.36c4.11,0.06,8.22,0.42,12.28,1.06c1.37,0.21,2.3,1.5,2.08,2.86
				c-0.21,1.37-1.5,2.3-2.86,2.08c-0.02,0-0.06-0.01-0.09-0.02c-3.82-0.74-7.68-1.22-11.56-1.41c-1.26-0.06-2.24-1.13-2.18-2.4
				C273.68,31.31,274.71,30.35,275.94,30.36z"/>
			<path style="fill:#F4D787;" d="M300.29,34.27c3.96,1.29,7.8,2.94,11.47,4.9c1.4,0.75,1.93,2.48,1.18,3.88s-2.48,1.93-3.88,1.18
				c-0.02-0.01-0.06-0.03-0.08-0.04c-3.33-1.91-6.82-3.54-10.43-4.84c-1.4-0.5-2.12-2.04-1.62-3.44
				C297.42,34.54,298.92,33.82,300.29,34.27z"/>
			<path style="fill:#F4D787;" d="M322.22,45.98c3.28,2.58,6.35,5.43,9.16,8.53c1.17,1.3,1.08,3.3-0.22,4.47
				c-1.3,1.17-3.3,1.08-4.47-0.22c-0.01-0.01-0.03-0.04-0.05-0.05c-2.5-2.88-5.26-5.56-8.22-7.99c-1.3-1.06-1.49-2.98-0.43-4.28
				C319.04,45.17,320.93,44.97,322.22,45.98z"/>
			<path style="fill:#F4D787;" d="M338.96,64.53c2.22,3.57,4.13,7.35,5.62,11.31c0.67,1.76-0.22,3.74-1.99,4.4
				c-1.76,0.67-3.74-0.22-4.4-1.99c0-0.01-0.02-0.05-0.02-0.06c-1.27-3.55-2.89-6.98-4.84-10.24c-0.93-1.56-0.42-3.58,1.14-4.52
				C336.01,62.53,338.01,63.02,338.96,64.53z"/>
			<path style="fill:#F4D787;" d="M347.72,88.17l0.37,3c0.12,0.94,0.27,1.87,0.44,2.81c0.33,1.86,0.75,3.71,1.25,5.54
				c0.52,1.88-0.59,3.82-2.46,4.33c-1.88,0.52-3.82-0.59-4.33-2.46l-0.01-0.03c-0.54-2.04-0.98-4.1-1.34-6.17
				c-0.18-1.04-0.33-2.08-0.46-3.12l-0.34-2.95l-0.01-0.11c-0.22-1.9,1.15-3.62,3.05-3.84C345.78,84.94,347.49,86.29,347.72,88.17z"
				/>
			<path style="fill:#F4D787;" d="M353.78,110.09c1.67,3.37,3.64,6.59,5.92,9.57c1.21,1.57,0.91,3.83-0.67,5.03
				s-3.82,0.92-5.03-0.66c-2.59-3.36-4.84-6.99-6.66-10.81c-0.85-1.78-0.1-3.92,1.68-4.77C350.8,107.6,352.91,108.34,353.78,110.09z
				"/>
			<path style="fill:#F4D787;" d="M367.42,127.81c2.85,2.44,5.96,4.59,9.25,6.43c1.72,0.96,2.33,3.12,1.37,4.84
				c-0.96,1.72-3.11,2.34-4.83,1.38c-3.69-2.05-7.21-4.46-10.44-7.21c-1.5-1.28-1.68-3.53-0.4-5.04
				C363.65,126.7,365.91,126.52,367.42,127.81L367.42,127.81z"/>
			<path style="fill:#F4D787;" d="M387.05,138.85c3.59,1.26,7.3,2.24,11.08,2.96c1.87,0.36,3.1,2.17,2.74,4.04
				c-0.36,1.86-2.14,3.08-4,2.75c-4.09-0.73-8.14-1.74-12.11-3.07c-1.85-0.62-2.84-2.62-2.22-4.47c0.62-1.85,2.62-2.84,4.47-2.22
				C387.01,138.84,387.04,138.85,387.05,138.85z"/>
			<path style="fill:#F4D787;" d="M409.61,143.29l5.92,0.27c2.1,0.1,4.21,0.3,6.3,0.62c1.79,0.27,3.03,1.95,2.76,3.74
				c-0.27,1.77-1.91,3-3.68,2.77l-0.01,0c-1.87-0.25-3.75-0.41-5.64-0.47l-6.07-0.2c-1.86-0.06-3.32-1.62-3.26-3.48
				c0.06-1.86,1.62-3.32,3.48-3.26c0.01,0,0.02,0,0.03,0L409.61,143.29z"/>
			<path style="fill:#F4D787;" d="M434.1,147.52c3.95,1.6,7.71,3.7,11.12,6.29c1.33,1.01,1.59,2.9,0.58,4.23
				c-0.99,1.31-2.86,1.58-4.18,0.62c-3.02-2.18-6.33-3.94-9.83-5.27c-1.63-0.62-2.45-2.44-1.83-4.07c0.62-1.63,2.44-2.45,4.07-1.83
				c0.02,0.01,0.03,0.01,0.05,0.02L434.1,147.52z"/>
			<path style="fill:#F4D787;" d="M454.24,162.84c2.56,3.41,4.64,7.16,6.2,11.09c0.55,1.4-0.13,2.98-1.53,3.53
				c-1.37,0.54-2.93-0.11-3.51-1.46c-1.48-3.46-3.41-6.71-5.73-9.64c-0.99-1.25-0.79-3.06,0.46-4.05c1.25-0.99,3.06-0.79,4.05,0.46
				c0.01,0.02,0.03,0.03,0.04,0.05L454.24,162.84z"/>
			<path style="fill:#F4D787;" d="M463.59,186.14c0.55,4.16,0.6,8.37,0.21,12.52c-0.12,1.32-1.29,2.29-2.61,2.17
				c-1.3-0.12-2.26-1.26-2.17-2.55c0.26-3.82,0.11-7.65-0.49-11.4c-0.22-1.4,0.73-2.71,2.12-2.93s2.71,0.73,2.93,2.12
				C463.58,186.09,463.59,186.12,463.59,186.14z"/>
			<path style="fill:#F4D787;" d="M461.37,210.87c-1.21,3.96-2.81,7.8-4.71,11.45c-0.54,1.02-1.8,1.42-2.82,0.89
				c-1.01-0.53-1.41-1.76-0.91-2.78c1.71-3.48,3.1-7.11,4.14-10.82c0.33-1.2,1.57-1.89,2.77-1.56c1.2,0.33,1.89,1.57,1.56,2.77
				C461.38,210.83,461.37,210.86,461.37,210.87z"/>
			<path style="fill:#F4D787;" d="M450.05,232.72c-2.47,3.27-5.19,6.34-8.1,9.2c-0.7,0.69-1.84,0.68-2.53-0.02
				c-0.68-0.69-0.68-1.8-0.01-2.5c2.72-2.81,5.25-5.81,7.51-8.98c0.62-0.87,1.84-1.07,2.71-0.45c0.87,0.62,1.07,1.84,0.45,2.71
				C450.07,232.69,450.06,232.71,450.05,232.72z"/>
			<path style="fill:#F4D787;" d="M433.44,250.24c-2.62,2.89-4.96,6.03-6.84,9.4c-0.41,0.74-1.34,1-2.08,0.59
				c-0.73-0.41-0.99-1.32-0.6-2.06c1.96-3.65,4.41-6.98,7.07-10.1c0.59-0.69,1.62-0.77,2.3-0.18s0.77,1.62,0.18,2.3
				C433.47,250.21,433.45,250.23,433.44,250.24z"/>
			<path style="fill:#F4D787;" d="M422.7,270.39c-0.64,3.76-0.51,7.64,0.29,11.4c0.15,0.72-0.31,1.44-1.03,1.59
				c-0.72,0.15-1.42-0.3-1.59-1.02c-0.93-4.04-1.14-8.3-0.5-12.44l0-0.01c0.12-0.78,0.86-1.32,1.64-1.2
				c0.78,0.12,1.32,0.86,1.2,1.64C422.71,270.38,422.71,270.39,422.7,270.39z"/>
			<path style="fill:#F4D787;" d="M427.02,292.7c1.79,3.49,3.91,6.82,6.17,10.07c0.4,0.57,0.26,1.35-0.31,1.75
				c-0.57,0.4-1.35,0.26-1.75-0.31c-2.32-3.3-4.52-6.71-6.41-10.34c-0.33-0.63-0.08-1.41,0.55-1.74
				C425.91,291.81,426.68,292.06,427.02,292.7L427.02,292.7z"/>
			<path style="fill:#F4D787;" d="M440.32,312.33l7.38,9.47c0.41,0.52,0.32,1.28-0.21,1.69c-0.52,0.41-1.28,0.32-1.69-0.21
				l-0.01-0.02l-7.4-9.42c-0.42-0.53-0.33-1.3,0.21-1.72S439.9,311.79,440.32,312.33L440.32,312.33z"/>
			<path style="fill:#F4D787;" d="M454.76,331.63l3.13,5.22c0.53,0.87,0.98,1.81,1.42,2.74c0.43,0.93,0.84,1.88,1.21,2.83
				c0.25,0.64-0.07,1.37-0.71,1.62c-0.64,0.25-1.37-0.07-1.62-0.71l0,0c-0.35-0.91-0.73-1.81-1.13-2.69
				c-0.41-0.88-0.82-1.75-1.33-2.59l-3.02-5.08l-0.05-0.08c-0.35-0.58-0.16-1.34,0.43-1.68
				C453.66,330.86,454.41,331.04,454.76,331.63z"/>
			<path style="fill:#F4D787;" d="M463.79,354.18c0.74,3.99,1.22,8.03,1.44,12.07c0.04,0.73-0.52,1.36-1.26,1.4
				c-0.73,0.04-1.36-0.52-1.4-1.26l0-0.01c-0.18-3.94-0.57-7.87-1.29-11.74c-0.13-0.69,0.33-1.36,1.02-1.49
				C463,353.03,463.66,353.48,463.79,354.18z"/>
			<path style="fill:#F4D787;" d="M465.19,378.4c-0.25,4.04-0.74,8.07-1.46,12.07c-0.14,0.8-0.91,1.33-1.71,1.19
				c-0.8-0.14-1.33-0.91-1.19-1.71c0,0,0-0.01,0-0.02c0.74-3.87,1.26-7.78,1.55-11.72c0.06-0.77,0.73-1.35,1.5-1.3
				C464.66,376.97,465.23,377.64,465.19,378.4z"/>
			<path style="fill:#F4D787;" d="M460.86,402.3c-1.2,3.89-2.67,7.7-4.43,11.39c-0.4,0.85-1.42,1.21-2.26,0.8
				c-0.85-0.4-1.21-1.42-0.8-2.26c0-0.01,0.01-0.02,0.02-0.03c1.75-3.49,3.24-7.13,4.48-10.86c0.27-0.83,1.17-1.27,1.99-1
				C460.67,400.61,461.11,401.49,460.86,402.3z"/>
			<path style="fill:#F4D787;" d="M450.25,424.3c-2.37,3.36-5.07,6.5-8.08,9.34c-0.78,0.74-2.01,0.7-2.75-0.08
				c-0.74-0.78-0.7-2.01,0.08-2.75c0.01-0.01,0.02-0.02,0.03-0.03c2.87-2.59,5.46-5.49,7.77-8.61c0.6-0.81,1.74-0.98,2.55-0.38
				C450.64,422.38,450.82,423.5,450.25,424.3z"/>
			<path style="fill:#F4D787;" d="M432.25,441.11c-3.57,2.12-7.39,3.83-11.33,5.12c-1.15,0.38-2.39-0.25-2.76-1.4
				c-0.38-1.15,0.25-2.39,1.4-2.76c0.01,0,0.03-0.01,0.04-0.01c3.68-1.12,7.23-2.63,10.58-4.52c0.99-0.56,2.25-0.21,2.82,0.78
				C433.55,439.3,433.22,440.54,432.25,441.11z"/>
			<path style="fill:#F4D787;" d="M408.8,448.92c-4.11,0.51-8.25,0.65-12.36,0.5c-1.37-0.05-2.43-1.2-2.38-2.56
				c0.05-1.37,1.2-2.43,2.56-2.38c0.02,0,0.04,0,0.06,0c3.87,0.24,7.76,0.19,11.6-0.19c1.28-0.13,2.42,0.8,2.55,2.09
				C410.96,447.63,410.05,448.76,408.8,448.92z"/>
			<path style="fill:#F4D787;" d="M384.3,448.35l-11.99-1.6c-1.51-0.2-2.57-1.59-2.37-3.1c0.2-1.51,1.59-2.57,3.1-2.37
				c0.02,0,0.03,0,0.05,0.01l0.12,0.02l11.75,1.85l0.1,0.02c1.43,0.23,2.4,1.56,2.17,2.99C387.01,447.57,385.7,448.53,384.3,448.35z
				"/>
			<path style="fill:#F4D787;" d="M360.37,444.65l-11.83-2.6c-1.63-0.36-2.67-1.98-2.31-3.61c0.36-1.63,1.98-2.67,3.61-2.31
				c0.02,0,0.03,0.01,0.05,0.01l0.13,0.03l11.54,2.8l0.12,0.03c1.55,0.38,2.51,1.94,2.13,3.5
				C363.44,444.04,361.9,444.98,360.37,444.65z"/>
			<path style="fill:#F4D787;" d="M336.86,439.06l-11.48-2.8l-0.24-0.06c-1.74-0.43-2.81-2.19-2.39-3.93
				c0.43-1.74,2.19-2.81,3.93-2.39c0.01,0,0.04,0.01,0.06,0.01l11.77,3.1c1.68,0.44,2.68,2.16,2.24,3.84
				c-0.44,1.66-2.12,2.65-3.78,2.25L336.86,439.06z"/>
			<path style="fill:#F4D787;" d="M314.17,434.99c-3.68,0.01-7.33,0.58-10.93,1.59c-1.82,0.51-3.72-0.55-4.23-2.38
				c-0.51-1.82,0.55-3.72,2.38-4.23c0.01,0,0.01,0,0.02-0.01l0.03-0.01c4.1-1.1,8.44-1.73,12.76-1.68l0.01,0
				c1.85,0.02,3.34,1.54,3.32,3.39C317.49,433.51,316,434.98,314.17,434.99z"/>
			<path style="fill:#F4D787;" d="M292.58,440.66c-3.5,1.64-6.94,3.49-10.35,5.45c-1.72,0.99-3.91,0.4-4.9-1.32
				c-0.99-1.72-0.4-3.91,1.32-4.9c0.01,0,0.03-0.02,0.04-0.02c3.55-1.98,7.18-3.88,10.94-5.59c1.76-0.8,3.84-0.02,4.64,1.74
				C295.08,437.78,294.32,439.84,292.58,440.66L292.58,440.66z"/>
			<path style="fill:#F4D787;" d="M271.96,452.25c-3.53,2.06-7.14,3.99-10.82,5.78c-1.84,0.89-4.05,0.13-4.94-1.71
				s-0.13-4.05,1.71-4.94l0.03-0.01c3.53-1.67,6.99-3.49,10.38-5.43c1.75-1,3.97-0.39,4.97,1.35
				C274.28,449.03,273.69,451.24,271.96,452.25z"/>
			<path style="fill:#F4D787;" d="M249.87,462.96c-3.83,1.49-7.72,2.81-11.68,3.96c-2.02,0.58-4.13-0.58-4.71-2.6
				c-0.58-2.02,0.58-4.13,2.6-4.71l0.03-0.01c3.74-1.04,7.43-2.26,11.07-3.64c1.94-0.73,4.1,0.24,4.83,2.18
				C252.75,460.06,251.78,462.21,249.87,462.96z"/>
			<path style="fill:#F4D787;" d="M226.12,469.74c-4.08,0.73-8.21,1.23-12.39,1.45c-2.16,0.11-4-1.54-4.11-3.7
				c-0.11-2.16,1.54-4,3.7-4.11l0.03,0c3.82-0.17,7.64-0.6,11.44-1.24c2.1-0.36,4.09,1.06,4.45,3.15
				C229.6,467.38,228.2,469.36,226.12,469.74z"/>
			<path style="fill:#F4D787;" d="M201.14,470.91c-4.21-0.44-8.42-1.25-12.53-2.56c-2.11-0.67-3.28-2.93-2.61-5.04
				c0.67-2.11,2.93-3.28,5.04-2.61l0.03,0.01c3.5,1.15,7.18,1.9,10.92,2.32c2.17,0.24,3.74,2.2,3.5,4.38
				C205.24,469.57,203.3,471.13,201.14,470.91z"/>
			<path style="fill:#F4D787;" d="M176.79,462.83c-3.7-2.39-7.06-5.39-9.84-8.87l-0.01-0.01c-1.42-1.78-1.13-4.37,0.65-5.79
				c1.78-1.42,4.37-1.13,5.79,0.65l0.02,0.03c2.19,2.79,4.85,5.21,7.84,7.19c1.87,1.24,2.39,3.76,1.15,5.64
				C181.17,463.53,178.66,464.05,176.79,462.83z"/>
			<path style="fill:#F4D787;" d="M160.42,442.45c-0.78-2.05-1.41-4.15-1.91-6.27c-0.12-0.53-0.24-1.06-0.35-1.59l-0.3-1.51
				l-0.58-2.79l-0.04-0.18c-0.47-2.29,0.99-4.52,3.28-5s4.52,0.99,5,3.28l0.01,0.04l0.61,3.09l0.27,1.43
				c0.09,0.45,0.18,0.9,0.28,1.34c0.4,1.78,0.91,3.53,1.54,5.22c0.8,2.16-0.3,4.57-2.46,5.37
				C163.63,445.68,161.24,444.59,160.42,442.45z"/>
			<path style="fill:#F4D787;" d="M153.86,419.61c-1.45-3.41-3.25-6.63-5.41-9.57c-1.39-1.9-0.98-4.56,0.92-5.95
				c1.9-1.39,4.56-0.98,5.95,0.92l0,0.01c2.57,3.51,4.68,7.32,6.36,11.27c0.92,2.16-0.09,4.66-2.25,5.58
				C157.28,422.78,154.78,421.77,153.86,419.61z"/>
			<path style="fill:#F4D787;" d="M140.96,402.04c-2.81-2.38-5.92-4.46-9.21-6.3c-2.06-1.15-2.8-3.76-1.64-5.82
				c1.15-2.06,3.76-2.8,5.82-1.64l0,0c3.68,2.07,7.25,4.46,10.54,7.24c1.8,1.52,2.02,4.21,0.5,6.01
				C145.44,403.34,142.75,403.57,140.96,402.04z"/>
			<path style="fill:#F4D787;" d="M121.4,390.86c-3.58-1.43-7.26-2.71-11-3.88c-2.26-0.71-3.51-3.12-2.8-5.37s3.12-3.51,5.37-2.8
				l0.01,0c3.89,1.23,7.77,2.57,11.61,4.12c2.19,0.88,3.26,3.37,2.37,5.57C126.09,390.68,123.6,391.74,121.4,390.86z"/>
			<path style="fill:#F4D787;" d="M99.07,383.64l-11.53-3.07l-0.04-0.01c-2.24-0.6-3.58-2.9-2.98-5.14
				c0.59-2.23,2.88-3.56,5.11-2.99l11.67,3.01c2.27,0.59,3.63,2.9,3.05,5.17c-0.59,2.27-2.9,3.63-5.17,3.05l-0.03-0.01L99.07,383.64
				z"/>
			<path style="fill:#F4D787;" d="M75.86,377.53c-4.15-1.15-8.17-2.75-11.96-4.77c-2-1.07-2.76-3.56-1.69-5.57
				c1.06-1.99,3.54-2.75,5.54-1.71c3.27,1.72,6.73,3.07,10.31,4.02c2.22,0.6,3.53,2.88,2.94,5.09c-0.6,2.22-2.88,3.53-5.09,2.94
				L75.86,377.53z"/>
			<path style="fill:#F4D787;" d="M53.28,365.49c-3.26-2.8-6.2-5.94-8.79-9.35c-1.34-1.77-0.99-4.3,0.78-5.64
				c1.76-1.34,4.28-0.99,5.62,0.76c2.26,2.95,4.84,5.65,7.67,8.04c1.72,1.45,1.93,4.02,0.48,5.74c-1.45,1.72-4.02,1.93-5.74,0.48
				L53.28,365.49z"/>
			<path style="fill:#F4D787;" d="M37.89,345.17c-1.8-3.87-3.2-7.93-4.16-12.1c-0.48-2.08,0.82-4.15,2.9-4.63
				c2.06-0.47,4.11,0.8,4.62,2.84c0.89,3.62,2.17,7.14,3.8,10.49c0.95,1.97,0.13,4.34-1.84,5.29c-1.97,0.95-4.34,0.13-5.29-1.84
				C37.91,345.22,37.9,345.18,37.89,345.17z"/>
			<path style="fill:#F4D787;" d="M32.22,320.37c-0.05-4.27,0.38-8.56,1.29-12.74c0.43-1.98,2.38-3.24,4.36-2.81
				c1.96,0.42,3.21,2.35,2.82,4.31c-0.73,3.65-1.04,7.38-0.94,11.1c0.06,2.08-1.58,3.81-3.66,3.87c-2.08,0.06-3.81-1.58-3.87-3.66
				C32.22,320.42,32.22,320.38,32.22,320.37z"/>
			<path style="fill:#F4D787;" d="M37.66,295.54c1.84-3.85,4.11-7.47,6.72-10.8c1.15-1.46,3.26-1.71,4.72-0.57
				c1.44,1.13,1.71,3.19,0.62,4.64l-0.01,0.01c-2.24,3.02-4.15,6.26-5.67,9.67c-0.79,1.77-2.87,2.57-4.64,1.78
				c-1.77-0.79-2.57-2.87-1.78-4.64c0.01-0.02,0.02-0.05,0.03-0.07L37.66,295.54z"/>
			<path style="fill:#F4D787;" d="M53.15,275.64c1.6-1.36,3.27-2.63,4.98-3.83c0.86-0.6,1.72-1.18,2.6-1.74
				c0.86-0.55,1.81-1.12,2.62-1.61l0.03-0.02c1.42-0.85,3.27-0.38,4.12,1.04c0.83,1.39,0.4,3.19-0.95,4.06
				c-0.88,0.57-1.63,1.06-2.44,1.62c-0.79,0.54-1.56,1.1-2.33,1.68c-1.53,1.15-2.99,2.37-4.41,3.63c-1.32,1.18-3.35,1.06-4.52-0.26
				s-1.06-3.35,0.26-4.52C53.11,275.68,53.14,275.65,53.15,275.64z"/>
			<path style="fill:#F4D787;" d="M72.96,261.89c3.03-2.39,5.86-4.99,8.31-7.87l0.01-0.01c0.92-1.09,2.55-1.22,3.64-0.3
				c1.06,0.9,1.21,2.48,0.35,3.57c-2.62,3.31-5.61,6.25-8.77,8.93c-1.18,1-2.94,0.85-3.93-0.33s-0.85-2.94,0.33-3.93
				C72.9,261.93,72.93,261.9,72.96,261.89z"/>
			<path style="fill:#F4D787;" d="M87.18,244.52c1.43-3.43,2.2-7.12,2.34-10.89c0.04-1.19,1.05-2.12,2.24-2.08
				c1.16,0.04,2.08,1.01,2.08,2.17c-0.01,4.22-0.74,8.52-2.24,12.53l-0.01,0.01c-0.46,1.23-1.83,1.85-3.05,1.38
				c-1.23-0.46-1.85-1.83-1.38-3.05C87.16,244.58,87.18,244.54,87.18,244.52z"/>
			<path style="fill:#F4D787;" d="M88.46,222.2c-0.77-3.82-1.85-7.62-2.99-11.43c-0.28-0.92,0.24-1.89,1.16-2.16
				c0.9-0.27,1.85,0.22,2.15,1.1c1.29,3.8,2.54,7.66,3.49,11.65c0.25,1.05-0.4,2.1-1.44,2.35c-1.05,0.25-2.1-0.4-2.35-1.44
				C88.47,222.25,88.46,222.22,88.46,222.2z"/>
			<path style="fill:#F4D787;" d="M82.01,199.25c-1.09-3.89-2.05-7.84-2.68-11.86c-0.11-0.73,0.38-1.41,1.11-1.52
				c0.71-0.11,1.38,0.37,1.51,1.07c0.71,3.86,1.77,7.66,2.98,11.44c0.26,0.8-0.19,1.66-0.99,1.92s-1.66-0.19-1.92-0.99
				C82.02,199.29,82.02,199.27,82.01,199.25z"/>
			<path style="fill:#F4D787;" d="M78.42,175.25c-0.02-4.05,0.24-8.11,0.8-12.12c0.08-0.54,0.57-0.91,1.11-0.84
				c0.53,0.07,0.9,0.56,0.84,1.08c-0.44,3.92-0.57,7.88-0.44,11.82c0.02,0.64-0.48,1.17-1.12,1.2c-0.64,0.02-1.17-0.48-1.2-1.12
				C78.42,175.27,78.42,175.26,78.42,175.25z"/>
			<path style="fill:#F4D787;" d="M81.85,151.29c1.21-3.86,2.78-7.62,4.74-11.17c0.2-0.35,0.64-0.48,0.99-0.28
				c0.35,0.19,0.47,0.63,0.29,0.98c-1.85,3.48-3.31,7.17-4.41,10.96c-0.13,0.45-0.6,0.7-1.04,0.57c-0.45-0.13-0.7-0.6-0.57-1.04
				C81.84,151.3,81.85,151.29,81.85,151.29z"/>
			<path style="fill:#F4D787;" d="M93.7,130.29c2.77-2.96,5.92-5.56,9.33-7.72c0.25-0.16,0.58-0.08,0.73,0.16
				c0.16,0.25,0.08,0.58-0.16,0.73c-3.33,2.13-6.36,4.71-9,7.65c-0.23,0.25-0.61,0.27-0.87,0.05s-0.27-0.61-0.05-0.87
				C93.69,130.3,93.7,130.29,93.7,130.29z"/>
			<path style="fill:#F4D787;" d="M113.98,117.44c3.83-1.27,7.79-2.11,11.79-2.6c0.24-0.03,0.46,0.14,0.49,0.39
				c0.03,0.24-0.14,0.46-0.38,0.49c-3.94,0.51-7.83,1.37-11.59,2.64c-0.26,0.09-0.53-0.05-0.62-0.3S113.72,117.52,113.98,117.44
				L113.98,117.44z"/>
		</g>
	</g>
	<g>
		<path style="fill:#9590C6;" d="M341.17,143.26c-0.5,1.88-0.8,3.84-1.52,5.64c-5.62,14.01-15.01,23.91-30.23,27.27
			c-2.41,0.53-4.88,0.72-7.37,0.71c-9.41-0.02-18.83-0.01-28.24-0.01c-2.51,0-3.46,0.74-4.12,3.14
			c-3.63,13.26-12.59,21.51-25.08,26.27c-8.19,3.12-16.73,3.68-25.4,2.76c-7.53-0.8-14.47-3.09-20.3-8.12
			c-2.15-1.86-4-3.97-5.35-6.49c0.57,0.03,1.02,0.34,1.47,0.65c7.34,5.1,15.78,6.25,24.38,6.39c3,0.05,6.08-0.22,9.11-0.75
			c10.25-1.82,19.26-5.87,26.33-13.78c3.9-4.36,6.67-9.27,8.07-14.95c0.58-2.33,1.59-3.13,3.97-3.13c8.37,0,16.75-0.01,25.12,0
			c3.5,0,6.99-0.07,10.48-0.55c7.6-1.05,14.45-3.69,20.53-8.46c7.62-5.98,11.42-13.77,11.58-23.39c0.08-4.9-0.14-9.77-1.86-14.44
			c-0.11-0.3-0.22-0.56,0.12-0.77c4.36,2.94,6.54,7.24,7.72,12.2c0.21,0.89,0.07,1.86,0.58,2.69
			C341.17,138.5,341.17,140.88,341.17,143.26z"/>
		<path style="fill:#5652A3;" d="M332.87,121.23c-0.34,0.21-0.23,0.48-0.12,0.77c1.72,4.67,1.94,9.54,1.86,14.44
			c-0.16,9.62-3.96,17.41-11.58,23.39c-6.08,4.77-12.94,7.41-20.53,8.46c-3.49,0.48-6.98,0.56-10.48,0.55
			c-8.37-0.01-16.75,0-25.12,0c-2.39,0-3.4,0.8-3.97,3.13c-1.4,5.68-4.17,10.59-8.07,14.95c-7.07,7.91-16.08,11.96-26.33,13.78
			c-3.03,0.54-6.1,0.8-9.11,0.75c-8.6-0.13-17.03-1.29-24.38-6.39c-0.45-0.31-0.89-0.62-1.47-0.65c-3.96-6.51-5.17-13.65-4.57-21.11
			c0.74-9.26,4.1-17.68,8.78-25.61c1.46-2.47,3.11-2.88,5.57-1.41c0.34,0.2,0.68,0.4,1.02,0.61c2.16,1.34,2.64,2.61,1.8,4.98
			c-1.17,3.32-2.12,6.7-2.61,10.19c-0.67,4.83-0.5,9.6,1.4,14.16c2.41,5.76,6.85,9.31,12.77,10.85c8.88,2.31,17.58,1.69,25.87-2.47
			c4.8-2.41,8.54-6.03,11.38-10.61c0.97-1.57,1.11-3.07,0.44-4.78c-3.03-7.69-5.99-15.4-9.02-23.09c-0.73-1.85-0.59-3.37,0.77-4.92
			c2.52-2.86,4.9-5.85,7.37-8.75c2.14-2.51,4.81-2.14,6.22,0.85c2.03,4.3,3.86,8.68,5.62,13.1c0.41,1.02,0.73,2.11,2.09,2.21
			c1.28,0.1,1.8-0.85,2.37-1.73c5.76-8.73,12.61-16.41,21.4-22.21c7.32-4.83,15.3-7.68,24.11-7.76
			C322.22,116.87,327.92,117.69,332.87,121.23z M308.97,136.05c-4.78-0.27-9.41,1.37-13.53,4.51c-5.69,4.35-9.59,10.09-12.63,16.47
			c-0.52,1.09-0.08,1.85,1.11,2.03c0.88,0.14,1.78,0.21,2.66,0.2c3.72-0.06,7.41-0.49,11.07-1.14c6.74-1.2,13.38-2.76,19.53-5.89
			c3.24-1.65,6.25-3.62,8.6-6.48c0.71-0.86,0.76-1.64,0.11-2.55c-1.16-1.64-2.59-3-4.28-4.07
			C317.88,136.78,313.76,135.98,308.97,136.05z"/>
		<path style="fill:#9590C6;" d="M279.2,89.4c0.63-1.09,1.55-1.93,2.49-2.71c1.14-0.94,2.78-0.99,3.98,0
			c3.94,3.22,7.85,6.49,11.7,9.83c1.3,1.13,1.48,3.13,0.33,4.44c-2.87,3.27-5.82,6.47-8.85,9.6c-1.2,1.24-2.9,1.21-4.33,0.15
			c-0.9-0.68-1.71-1.48-2.56-2.23c0.01-0.69,0.59-0.99,0.98-1.43c1.81-2.02,3.67-4,5.43-6.06c1.21-1.41,1.05-3-0.26-4.38
			c-1.7-1.8-3.74-3.21-5.61-4.81C281.47,90.92,280.67,89.69,279.2,89.4z"/>
		<path style="fill:#5652A3;" d="M279.2,89.4c1.47,0.29,2.27,1.52,3.3,2.4c1.88,1.59,3.91,3.01,5.61,4.81
			c1.31,1.38,1.47,2.97,0.26,4.38c-1.76,2.06-3.62,4.04-5.43,6.06c-0.39,0.43-0.96,0.74-0.98,1.43c-2.87-2.41-5.76-4.79-8.59-7.23
			c-2.05-1.77-2.12-3.6-0.24-5.59C275.13,93.54,277.18,91.48,279.2,89.4z"/>
	</g>
	<g>
		<path style="fill:#BD4747;" d="M166.11,214.11c2.04,0.4,4.11,0.73,6.13,1.21c7.36,1.76,13.44,5.48,17.82,11.77
			c1.41,2.02,1.52,3.81,0.37,5.45c-1.31,1.87-3.14,2.13-5.22,1.68c-10.06-2.18-19.96-1.78-29.61,1.99c-2.92,1.14-5.6,2.71-7.79,5.04
			c-3.18,3.39-3.24,7.64-0.16,11.1c2.04,2.3,4.51,4.01,7.25,5.32c4.49,2.15,9.07,4.07,14.1,4.62c2.71,0.3,5.33-0.09,7.86-0.97
			c7.87-2.75,15.71-5.57,23.57-8.36c0.24-0.08,0.48-0.14,0.72-0.21c0.3,1.07,0.58,2.15,0.06,3.23c-1.5,3.13-3,6.25-4.54,9.36
			c-0.44,0.9-1.07,1.65-1.95,2.23c-1.64,1.08-3.54,1-5.33,1.36c-6.61,1.33-12.98,3.38-19.18,6c-5.19,2.19-10.12,4.92-14.77,8.08
			c-4.82,3.27-9.32,6.94-13.06,11.47c-2.34,2.84-4.5,5.79-6.02,9.14c-2.23,4.94-3.45,10.06-2.92,15.58
			c0.35,3.65,1.09,7.13,2.69,10.4c3.14,6.44,8.3,10.87,14.55,14.09c9.6,4.95,19.98,6.91,30.62,7.93c1.9,0.18,3.81,0.11,5.7,0.33
			c4.31,0.49,8.64,0.3,12.95,0.12c2.44-0.1,4.32,0.44,5.18,2.29c1.03,2.23,0.56,4.11-1.46,5.72c-1.53,1.22-2.96,2.55-4.44,3.82
			c-1.89,1.62-3.57,3.57-6.09,4.3c-0.29,0.08-0.38,0.29-0.41,0.56c-9.8-0.04-19.62,0.48-29.37-0.89c-7-0.98-13.79-2.73-20.08-6.08
			c-8.48-4.52-14.59-11.2-17.79-20.26c-4.39-12.42-5.28-25.02-0.69-37.62c2.96-8.13,8.03-14.8,14.72-20.25
			c2.51-2.05,2.55-3.75-0.06-5.65c-4.22-3.08-7.93-6.67-10.98-10.91c-4.42-6.16-6.1-13.03-5.2-20.54c0.87-7.24,3.33-13.84,8-19.53
			c5.4-6.59,12.45-10.31,20.69-12.01c1.5-0.31,3.08-0.23,4.51-0.9C159.66,214.11,162.89,214.11,166.11,214.11z"/>
		<path style="fill:#CE6161;" d="M192.7,368.76c0.03-0.27,0.12-0.47,0.41-0.56c2.52-0.74,4.21-2.68,6.09-4.3
			c1.48-1.27,2.91-2.61,4.44-3.82c2.03-1.61,2.5-3.49,1.46-5.72c-0.86-1.86-2.74-2.4-5.18-2.29c-4.31,0.18-8.63,0.36-12.95-0.12
			c-1.89-0.21-3.79-0.14-5.7-0.33c-10.64-1.02-21.02-2.99-30.62-7.93c-6.25-3.22-11.41-7.65-14.55-14.09
			c-1.6-3.27-2.34-6.76-2.69-10.4c-0.53-5.52,0.69-10.64,2.92-15.58c1.51-3.35,3.68-6.3,6.02-9.14c3.74-4.53,8.24-8.2,13.06-11.47
			c4.66-3.16,9.58-5.89,14.77-8.08c6.2-2.62,12.57-4.67,19.18-6c1.79-0.36,3.69-0.27,5.33-1.36c0.88-0.58,1.51-1.33,1.95-2.23
			c1.54-3.11,3.04-6.23,4.54-9.36c0.52-1.08,0.24-2.16-0.06-3.23c2.22-1.05,4.55-1.84,6.9-2.53c3.12-0.92,6.28,2.22,5.27,5.3
			c-1.83,5.58-3.82,11.1-5.81,16.62c-0.77,2.15-2.65,2.72-4.7,2.93c-11.75,1.22-22.67,5.08-33.08,10.49
			c-7,3.63-13.51,7.99-18.94,13.78c-3.52,3.75-6.42,7.88-7.37,13.08c-1.01,5.47,0.5,10.25,4.12,14.38
			c4.69,5.35,10.85,8.39,17.34,10.85c9.69,3.68,19.74,5.23,30.09,5.21c10.47-0.02,20.94,0.14,31.41,0.23
			c2.26,0.02,3.77,1.06,4.39,2.98c0.64,1.98,0.09,3.7-1.7,5.03c-7.07,5.25-14.14,10.48-21.23,15.7c-1.83,1.34-3.9,2.03-6.2,2
			C198.64,368.76,195.67,368.77,192.7,368.76z"/>
	</g>
	<g>
		<path style="fill:#C2C73E;" d="M277.78,385.47c-3.74-4.72-6.21-10.07-7.88-15.81c-4.1-14.05-2.21-27.56,3.64-40.73
			c1.27-2.87,2.66-5.68,4.17-8.44c0.43-0.78,0.81-0.9,1.61-0.51c3.1,1.48,6.21,2.93,9.35,4.3c0.98,0.42,1.03,0.88,0.67,1.78
			c-2.11,5.27-3.54,10.71-3.73,16.41c-0.38,11.38,5.47,20.27,16.35,25.05c7.95,3.5,16.34,4.75,24.94,5
			c14.12,0.41,27.9-1.35,41.16-6.46c1.05-0.41,2.11-0.81,3.13-1.29c5.36-2.54,8.25-6.75,8.07-12.71
			c-0.17-5.84-0.61-11.67-1.01-17.49c-0.51-7.49-1.02-14.99-1.69-22.46c-1.12-12.55-2.14-25.13-5.58-37.34
			c-1.16-4.1-1.74-3.29,1.68-6.87c4.31-4.51,8.61-9.02,12.93-13.52c0.71-0.74,1.46-1.43,2.2-2.14c0.59,0,1.18,0,1.77,0
			c2.01,1.5,1.64,3.85,1.98,5.87c0.55,3.22,1.04,6.47,1.01,9.76c-0.01,0.84,0.42,1.48,0.88,2.13c2.8,3.95,5.59,7.91,8.38,11.86
			c0.28,0.39,0.5,0.83,0.75,1.24c-0.21,0.26-0.38,0.59-0.64,0.78c-4.27,3.1-8.52,6.24-12.86,9.23c-1.52,1.04-2.44,2.13-2.18,4.07
			c0.11,0.87,0.23,1.74,0.3,2.61c0.43,5.6,0.87,11.19,1.18,16.79c0.28,4.97,0.65,9.94,0.84,14.92c0.15,3.91,0.56,7.82,0.37,11.75
			c-0.02,0.44-0.01,0.88,0.02,1.32c0.39,6.06,0.84,12.16-0.38,18.14c-1.59,7.82-5.72,14.15-12.18,18.92
			c-5.17,3.82-11.23,5.46-17.28,7.05c-8.17,2.15-16.5,3.38-24.91,4.21c-5.45,0.54-10.91,0.84-16.36,1.05
			c-6.84,0.26-13.69,0.16-20.47-1.09c-6.56-1.21-12.8-3.21-18.48-6.76C278.98,385.75,278.47,385.38,277.78,385.47z"/>
		<path style="fill:#FAF39C;" d="M277.78,385.47c0.69-0.1,1.2,0.28,1.75,0.62c5.68,3.55,11.92,5.55,18.48,6.76
			c6.79,1.25,13.64,1.35,20.47,1.09c5.45-0.21,10.91-0.51,16.36-1.05c8.41-0.83,16.74-2.07,24.91-4.21
			c6.06-1.59,12.12-3.23,17.28-7.05c6.46-4.77,10.59-11.09,12.18-18.92c1.21-5.99,0.77-12.08,0.38-18.14
			c-0.03-0.44-0.04-0.88-0.02-1.32c0.19-3.92-0.22-7.83-0.37-11.75c-0.19-4.97-0.56-9.94-0.84-14.92c-0.31-5.6-0.76-11.2-1.18-16.79
			c-0.07-0.87-0.19-1.75-0.3-2.61c-0.25-1.94,0.67-3.02,2.18-4.07c4.35-2.99,8.59-6.13,12.86-9.23c0.26-0.19,0.43-0.52,0.64-0.78
			c2.25,2.6,4.07,5.51,6,8.34c0.8,1.17,0.45,2.21-0.9,3.3c-3.21,2.58-6.39,5.21-9.71,7.66c-1.65,1.22-2.04,2.62-1.87,4.56
			c0.56,6.45,1.01,12.91,1.43,19.37c0.4,6.17,0.78,12.34,1.05,18.51c0.35,7.99,1.14,16.04,0.29,23.99
			c-1.24,11.62-7.48,20.16-18.13,25.13c-6.13,2.86-12.74,4.35-19.36,5.66c-14.69,2.9-29.55,3.92-44.49,3.48
			c-10.83-0.31-21.15-2.75-30.22-9.08C283.25,391.62,280.2,388.87,277.78,385.47z"/>
		<path style="fill:#C2C73E;" d="M328.33,356.36c-3.23,0.02-6.8-0.53-10.24-1.8c-8.12-2.98-12.35-8.97-13.4-17.39
			c-0.67-5.4-0.26-10.67,1.76-15.77c0.25-0.64,0.53-1.27,0.86-1.87c0.8-1.41,2.21-1.79,3.65-1.04c0.09,0.05,0.18,0.09,0.26,0.14
			c4.72,3.1,3.96,2.45,3.35,7.16c-0.45,3.53-0.14,6.99,1.38,10.22c2.7,5.73,7.6,7.93,13.63,8.03c5.18,0.09,10.14-0.91,14.73-3.43
			c0.93-0.51,1.89-1.03,1.58-2.33c-0.32-1.35-1.42-1.45-2.56-1.43c-1.97,0.03-3.93-0.1-5.86-0.48c-4.96-0.99-7.68-4.15-8.38-9.14
			c-0.87-6.21,1.46-11.28,5.42-15.73c4.9-5.49,10.82-9.02,18.47-8.87c1.29,0.02,2.54,0.25,3.76,0.62c3.47,1.07,4.91,3.5,4.11,7.01
			c-0.5,2.23-1.53,4.24-2.8,6.12c-0.74,1.09-1.91,1.08-2.64-0.02c-0.6-0.9-1.15-1.83-1.93-2.59c-1.63-1.58-3.65-2.03-5.68-1.04
			c-3.05,1.48-5.35,3.82-6.92,6.8c-1.08,2.05-0.34,3.58,1.9,4.34c2.2,0.75,4.55,0.72,6.81,1.16c1.73,0.34,3.46,0.69,5.08,1.43
			c4.15,1.91,6.26,6.26,5.22,10.73c-1.14,4.87-3.98,8.58-7.89,11.54C345.94,353.32,336.41,356.44,328.33,356.36z"/>
	</g>
</g>
</svg>
