<?xml version="1.0" encoding="utf-8"?>
<!-- Generator: Adobe Illustrator 24.3.0, SVG Export Plug-In . SVG Version: 6.00 Build 0)  -->
<svg version="1.1" id="Layer_1" xmlns="http://www.w3.org/2000/svg" xmlns:xlink="http://www.w3.org/1999/xlink" x="0px" y="0px"
	 viewBox="0 0 500 500" style="enable-background:new 0 0 500 500;" xml:space="preserve">
<style type="text/css">
	.st0{fill:#9590C6;}
	.st1{fill:#CAC6E3;}
	.st2{fill:#F15E30;}
	.st3{fill:#F79B6F;}
	.st4{fill:#EFDCD3;}
	.st5{clip-path:url(#SVGID_1_);}
	.st6{fill:#62314E;}
	.st7{fill:#D09966;}
	.st8{fill:#FFF9F7;}
	.st9{fill:#FFE6BE;}
	.st10{fill:#BE8758;}
	.st11{fill:#C2C73E;}
	.st12{fill:#F58E82;}
	.st13{clip-path:url(#SVGID_2_);}
	.st14{opacity:0.51;fill:#F5F5E0;}
	.st15{opacity:0.56;fill:#F5F5E0;}
	.st16{fill:#008687;}
	.st17{fill:#39251A;}
	.st18{clip-path:url(#SVGID_3_);}
	.st19{opacity:0.61;fill:#844A1F;}
	.st20{fill:#F2C79D;}
	.st21{fill:#F47741;}
	.st22{clip-path:url(#SVGID_4_);}
</style>
<path class="st0" d="M69.7,152.9c-19.5,23.2-67.5,46.2-67.5,87.6c0,27.1,2.5,57.8,48,81.9c36.3,19.3,30.6,64.8,30.6,64.8
	c1.7,33,29.9,46,63.4,48.6s55.9-24.5,83.3,1.6c27.5,26.1,76.8,49.3,113.1-2.9c28.9-41.5,37.2-59,92-61.5
	c69-3.1,79.5-80.2,49.6-113.4c-1.5-1.7-3-3.2-4.5-4.8c-28.2-29-47.9-34.1-44.6-86.2c5-78.6-24.8-116-66-128.4
	c-44.5-13.4-90.6,30.4-126.6,17.2c-38.6-14.1-67.2-35.9-110.1-14.1C89.5,64.1,89.2,129.7,69.7,152.9z"/>
<path class="st1" d="M164.1,370.2c18.4,6.5,46.4,3.3,64.4-1.5c68.8-18.5,139.5-39.9,218.5-61.7c125.9-34.7-65.6-62.1-202.9-53.5
	c-66.7,4.2-136.3,40.2-171.6,51c-38.8,11.9-21.1,20.7,7.4,32.4C106.8,348,136.6,360.4,164.1,370.2z"/>
<g>
	<path class="st2" d="M236.8,107.1l-51.8,134L80.1,283.8c-0.8-2.7-1.9-5.2-3.3-7.4c-5.3-8.7-14.3-13.5-20.6-16
		c-4.2-1.7-7.3-2.3-7.3-2.3l52.6-141.7L214,91.2C214,91.2,232.1,90.7,236.8,107.1z"/>
	<path class="st3" d="M187.1,125.6c-14.5,4.3-28.9,8.6-43.4,12.9c-4.1,1.2-8.2,2.4-12.3,3.6c-0.5,0.1-0.8,0.4-0.9,0.8
		c-0.2,0.1-0.4,0.3-0.5,0.6c-3.2,8.9-6.7,17.7-10,26.6c-3.3,8.9-6.4,17.9-9.6,26.9c-3.2,8.9-6.5,17.7-9.8,26.6
		c-3.3,8.9-6.8,17.7-10,26.7c-1.7,5-3.4,9.9-5.1,14.9c-1.7,5.1-3.6,10.1-4.9,15.3c-0.3,1.1,1.5,1.8,2,0.7c1.8-4.4,3.3-9,4.8-13.5
		c1.5-4.4,3.1-8.8,4.6-13.2c3.1-8.9,5.9-17.9,9-26.8c3.1-9,6.3-17.9,9.6-26.9c3.3-8.9,6.9-17.6,10.3-26.4
		c3.8-9.9,7.5-19.8,11.6-29.6c14.4-4.3,28.8-8.6,43.2-12.8c4.1-1.2,8.2-2.4,12.3-3.6C189.7,127.9,188.9,125.1,187.1,125.6z"/>
	<path class="st4" d="M229.5,107.4l-103.5,32l-49.3,137c-5.3-8.7-14.3-13.5-20.6-16L108.1,122l103.3-26.2
		C211.3,95.8,224.2,95.3,229.5,107.4z"/>
	<g>
		<defs>
			<path id="SVGID_9_" d="M229.5,107.4l-103.5,32l-49.3,137c-5.3-8.7-14.3-13.5-20.6-16L108.1,122l103.3-26.2
				C211.3,95.8,224.2,95.3,229.5,107.4z"/>
		</defs>
		<clipPath id="SVGID_1_">
			<use xlink:href="#SVGID_9_"  style="overflow:visible;"/>
		</clipPath>
		<g class="st5">
			<path class="st6" d="M119.9,135.2c-6.9,18.6-13.6,37.3-20.1,56c-6.5,18.7-12.5,37.6-18.8,56.3c-1.8,5.3-3.5,10.5-5.3,15.8
				c-1.8,5.3-3.7,10.6-5.2,16c-0.4,1.5,1.9,2,2.4,0.5c1.6-4.7,2.9-9.5,4.3-14.2c1.5-4.7,2.9-9.5,4.4-14.2c3-9.4,6-18.9,9.2-28.2
				c3.1-9.3,6.5-18.5,9.8-27.7c3.3-9.4,6.6-18.7,10-28.1c3.8-10.4,7.6-20.9,11.6-31.2C122.5,134.9,120.4,133.8,119.9,135.2z"/>
			<path class="st6" d="M109.7,126.4c-7.2,18.5-14.2,37.1-21,55.7c-6.8,18.6-13.1,37.4-19.7,56c-1.9,5.2-3.7,10.5-5.6,15.7
				c-1.8,5.3-3.9,10.6-5.5,15.9c-0.5,1.5,1.8,2,2.4,0.6c1.7-4.7,3-9.4,4.6-14.1c1.5-4.7,3.1-9.4,4.6-14.1c3.1-9.4,6.3-18.8,9.6-28.1
				c3.3-9.2,6.8-18.4,10.2-27.5c3.5-9.3,6.9-18.6,10.4-27.9c3.9-10.4,8-20.7,12.1-31.1C112.4,126.2,110.3,125,109.7,126.4z"/>
			<path class="st6" d="M113.5,131.4c-3.2,9.3-6.4,18.6-9.6,27.8c-3.2,9.3-6.5,18.7-10,27.9c-7.1,18.3-13.7,36.8-20.4,55.3
				c-3.8,10.4-7.6,20.8-11.4,31.2c-0.3,0.7-0.1,1.5,0.6,1.8c0.6,0.3,1.6,0.1,1.8-0.6c6.6-18.6,13.3-37.2,19.9-55.8
				c6.7-18.6,12.8-37.4,19.7-55.9c3.9-10.3,7.7-20.7,11.6-31C116.4,130.6,114,129.7,113.5,131.4z"/>
			<path class="st6" d="M110.9,128c19.2-5,38.4-10.2,57.4-15.6c19-5.4,37.9-11.3,57-16.9c5.3-1.6,10.7-3.1,16-4.7
				c5.4-1.6,10.8-3.1,16.1-4.9c1.5-0.5,0.5-2.7-0.9-2.2c-4.7,1.4-9.4,3.1-14.1,4.6c-4.7,1.5-9.4,3-14.1,4.5
				c-9.4,3-18.9,5.9-28.4,8.7c-9.4,2.7-18.9,5.3-28.3,7.9c-9.6,2.7-19.1,5.3-28.7,7.9c-10.7,2.9-21.5,5.7-32.2,8.4
				C109.1,126,109.4,128.4,110.9,128z"/>
			<path class="st6" d="M121.1,136.6c19-5.7,38-11.5,56.9-17.6c18.8-6.1,37.5-12.6,56.3-18.8c5.3-1.7,10.6-3.5,15.8-5.3
				c5.3-1.8,10.7-3.5,16-5.5c1.5-0.6,0.4-2.7-1-2.2c-4.7,1.5-9.3,3.4-14,5.1c-4.7,1.7-9.3,3.3-14,5c-9.3,3.3-18.7,6.5-28.1,9.6
				c-9.3,3.1-18.7,5.9-28,8.8c-9.5,3-18.9,6-28.4,8.9c-10.6,3.3-21.3,6.4-31.9,9.5C119.3,134.7,119.7,137,121.1,136.6z"/>
			<path class="st6" d="M115.4,132.6c9.4-3,18.8-5.8,28.1-8.7c9.4-2.9,18.9-5.8,28.4-8.4c19-5.1,37.8-10.8,56.7-16.3
				c10.6-3.1,21.2-6.2,31.9-9.3c0.7-0.2,1.2-0.8,1.1-1.6c-0.1-0.7-0.9-1.3-1.6-1.1c-18.9,5.7-37.8,11.3-56.7,16.9
				c-18.9,5.6-37.7,11.8-56.7,17.2c-10.6,3-21.3,6-31.9,9C113,130.8,113.7,133.2,115.4,132.6z"/>
		</g>
	</g>
</g>
<g>
	<path class="st7" d="M462,283.2c0,0-131.7,38.4-183.3,51.4L90.8,287.7c1.6-2,2.8-4,3.6-6.1c2.8-7.5,0.6-15.4-1.7-20.7
		c-1.7-3.9-3.5-6.3-3.5-6.3l169.1-47.6l199.2,36.6C457.4,243.6,474.3,259.5,462,283.2z"/>
	<path class="st8" d="M457,268.5c0,2.3-0.5,5-1.6,8.1L280,325.8L94.4,281.6c0.7-1.8,1.1-3.7,1.2-5.5c0.1-0.7,0.1-1.4,0.1-2.1
		c0-1.9-0.2-3.8-0.6-5.5l0,0l-0.5-2c-0.5-2.1-1.3-4-2-5.7l120.8,26.1l66.3,14.6l171.6-45.3c0,0,1.6,1.1,3.1,3.4
		c0.4,0.6,0.8,1.3,1.2,2.2c0.5,1.2,0.9,2.5,1.1,4C456.9,266.7,457,267.5,457,268.5z"/>
	<path class="st9" d="M457,268.5c0,2.3-0.5,5-1.6,8.1L280,325.8c0,0-26.5-23.4-66.5-38.9l66.3,14.6l171.6-45.3c0,0,1.6,1.1,3.1,3.4
		c0.4,0.6,0.8,1.3,1.2,2.2c0.5,1.2,0.9,2.5,1.1,4C456.9,266.7,457,267.5,457,268.5z"/>
	<g>
		<path class="st6" d="M455.7,261.8c-11.3,3.4-22.6,6.7-33.9,10c-23.4,6.8-46.8,13.5-70.2,20.1c-23.5,6.5-47.1,12.9-70.8,19
			c-0.2,0.1-0.3,0.1-0.5,0c0,0-0.1,0-0.1,0c-1.1-0.3-1.4-2.2,0-2.6c0.1,0,0.2-0.1,0.3-0.1c13.2-3.4,26.4-6.8,39.5-10.2
			c23.5-6.2,47-12.7,70.5-19.3c21.4-6.1,42.8-12.6,64.1-19.1C454.9,260.3,455.3,261,455.7,261.8z"/>
		<path class="st6" d="M457,268.5c-9.7,3-19.3,6-29,8.9c-24.3,7.4-48.7,14.5-73.1,21.6c-24.4,7.1-48.8,14.2-73.4,20.9
			c-0.2,0-0.3,0.1-0.4,0.1c-1.3,0-1.8-2.2-0.3-2.6c0,0,0.1,0,0.1,0c13.7-3.5,27.5-7.1,41.2-10.7c24.5-6.6,49-13.7,73.3-21.1
			c20.6-6.3,41-12.8,61.4-19.6C456.9,266.7,457,267.5,457,268.5z"/>
		<path class="st6" d="M281.3,319.9c-0.2,0-0.3,0.1-0.5,0c-0.1,0-0.1,0-0.2,0c-13.3-3.5-26.6-7-39.9-10.4
			c-23.6-6-104.9-24-128.6-29.5c-5.5-1.3-11-2.6-16.5-3.8c0.1-0.7,0.1-1.4,0.1-2.1c19,4.4,95.6,20.9,114.5,25.5
			c23.6,5.7,47.2,11.6,70.7,17.7l0,0c0.1,0,0.3,0.1,0.4,0.1C282.7,317.7,282.4,319.6,281.3,319.9z"/>
		<path class="st6" d="M94.6,266.5c18,4,93.6,20.2,111.6,24.4c24.8,5.7,49.5,11.4,74.2,17.4c0,0,0,0,0.1,0c1.5,0.4,1.1,2.6-0.3,2.6
			c0,0-0.1,0-0.1,0c-0.1,0-0.2,0-0.3,0c-13.8-3.6-27.5-7.2-41.3-10.7c-24.7-6.2-107.1-24-132-29.3c-3.8-0.8-7.6-1.6-11.4-2.4l0,0
			L94.6,266.5z"/>
	</g>
	<g>
		<path class="st10" d="M453,244.6c-11.3,3.1-22.5,6.4-33.8,9.4c-11.4,3.1-22.7,6.2-34.1,9.2c-22.6,6.1-45.2,12.2-67.9,18.1
			c-6.4,1.7-12.7,3.3-19.1,5c-6.4,1.7-12.9,3.2-19.3,4.8c-2,0.5-1.2,3.8,0.8,3.2c5.6-1.6,11.2-3.3,16.9-4.9
			c5.6-1.5,11.3-3.1,16.9-4.6c11.4-3.1,22.7-6.1,34.1-9.2c22.6-6.1,45.3-11.9,67.9-17.9c12.8-3.4,25.6-6.5,38.4-9.8
			C456,247.3,455.1,244,453,244.6z"/>
		<path class="st10" d="M279.4,291c-16.2-3-32.5-6.2-48.7-9.2c-16.3-3-32.7-5.8-49-9c-4.5-0.9-66.8-13.9-71.3-14.9
			c-4.6-1-9.1-2.3-13.7-3.2c-1.8-0.4-2.5,2.5-0.6,2.9c4.1,0.7,8.2,1.3,12.3,1.9c4.1,0.6,65.8,13.6,69.9,14.3
			c8.1,1.5,16.2,3.2,24.3,4.9c16.2,3.3,32.5,6.8,48.7,10.1c9.1,1.8,18.3,3.6,27.4,5.5C280.8,294.7,281.6,291.4,279.4,291z"/>
	</g>
</g>
<g>
	<path class="st11" d="M421.5,230.6c0.8,2.1,1.9,4.1,3.3,6l-121.2,45.7c-50.6-7.5-180.3-31.6-180.3-31.6
		c-10.1-18.9-9.6-37.4-1.1-56.9l133-37l172.2,30.4c0,0-1.8,3.5-3.8,8.9C420.5,205,417,219.1,421.5,230.6z"/>
	<polygon class="st12" points="195.4,191.4 199.5,190.1 261.7,169.4 335.7,181.8 258.5,205.1 	"/>
	<path class="st4" d="M421.8,230.6l-108.4,38.9l-8.8,3.2c-16.3-13.6-1.6-38.4-1.6-38.4L424,196c-1.3,3.6-2.6,8-3.5,12.7
		c-0.1,0.6-0.2,1.3-0.3,1.9C419.2,217.3,419.3,224.3,421.8,230.6z"/>
	<g>
		<path class="st9" d="M424,196c-1.3,3.6-2.6,8-3.5,12.7c-44.1,10.7-100.8,28.7-107.1,60.8l-8.8,3.2c-16.3-13.6-1.6-38.4-1.6-38.4
			L424,196z"/>
	</g>
	<g>
		<defs>
			<path id="SVGID_11_" d="M421.8,230.6l-117.2,42.1c-16.3-13.6-1.6-38.4-1.6-38.4L424,196C420.8,205,417.3,219.1,421.8,230.6z"/>
		</defs>
		<clipPath id="SVGID_2_">
			<use xlink:href="#SVGID_11_"  style="overflow:visible;"/>
		</clipPath>
		<g class="st13">
			<path class="st6" d="M429.3,200.4c-8.9,2.6-17.8,5.6-26.7,8.4c-8.9,2.8-17.8,5.6-26.7,8.4c-17.8,5.6-35.5,11.2-53.3,16.7
				c-5,1.5-10,3.1-15,4.5c-5.1,1.5-10.2,2.7-15.3,4.3c-1.5,0.4-0.5,2.7,0.9,2.2c4.4-1.4,8.8-3.1,13.2-4.5c4.4-1.5,8.9-2.8,13.3-4.2
				c8.9-2.8,17.8-5.5,26.8-8.3c17.8-5.5,35.7-10.8,53.5-16.2c10.1-3,20.2-5.9,30.2-9.2C431.6,202.1,430.7,200,429.3,200.4z"/>
			<path class="st6" d="M425.2,207.7c-2,1.1-4.2,1.8-6.4,2.5c-2.2,0.7-4.3,1.5-6.5,2.2c-4.3,1.4-8.5,2.9-12.8,4.3
				c-8.6,2.8-17.2,5.6-25.8,8.4c-17.1,5.6-34.3,11.1-51.5,16.4c-9.7,3-19.4,6-29.1,8.9c-1.8,0.5-1,3.4,0.7,2.8
				c17.1-6,34.2-11.7,51.4-17.5c17.1-5.7,34.3-11.1,51.4-16.6c4.8-1.5,9.6-3.1,14.4-4.5c2.4-0.7,4.8-1.5,7.2-2.2
				c2.4-0.7,5-1.7,7.5-2C428.2,210,427.1,206.7,425.2,207.7z"/>
			<path class="st6" d="M426.6,214.4c-17.3,6.7-34.8,12.9-52.4,19c-17.5,6-35.1,11.8-52.8,17.3c-10,3.1-19.9,6.1-29.9,9
				c-1.4,0.4-0.9,2.7,0.6,2.3c17.8-5.5,35.4-11.2,53.1-17.1c17.6-5.8,35.1-11.8,52.6-17.9c9.8-3.4,19.7-6.9,29.5-10.4
				C428.6,216.1,428,213.9,426.6,214.4z"/>
			<path class="st6" d="M434.6,221.9c-18.8,6.1-37.6,12.1-56.4,18.2c-18.7,6.1-37.4,12.4-56,18.7c-10.5,3.6-20.9,7.1-31.4,10.8
				c-0.6,0.2-0.8,1.1-0.6,1.7c0.3,0.7,1,0.8,1.7,0.6c18.5-6.8,37-13.3,55.6-19.6c18.6-6.3,37.2-12.5,56-18.4
				c10.5-3.3,21-6.6,31.6-9.7C436.5,223.8,436,221.5,434.6,221.9z"/>
		</g>
	</g>
	<path class="st14" d="M424.6,234.9c-30.3,12.1-60.8,23.8-91.7,34.3c-8.1,2.7-16.4,5.1-24.4,8.3c-1-2.7-3.6-5.1-4.9-7.2
		c-2.3-3.6-4.1-7.6-4.9-11.8c-1.6-8.1-0.1-16.2,3.7-23.4c0.4,0.2,0.9,0.3,1.5,0.1c17.5-5.7,34.9-11.8,52.5-17.4
		c17.7-5.6,35.4-11.2,53.1-16.6c6.9-2.1,17.1-3.9,19.7-11.8c0.9-2.7-3.5-4.1-4.2-1.3c-0.8,3-3.5,4.4-6.2,5.5
		c-3.6,1.5-7.5,2.5-11.2,3.8c-8.4,2.8-16.8,5.6-25.2,8.3c-16.8,5.4-33.6,11.1-50.5,16.3c-9.5,2.9-19.1,5.7-28.6,8.7
		c-0.7-0.8-1.9-1.1-2.7-0.5c-0.2-0.1-0.4-0.2-0.6-0.2c-11.2-2.8-22.5-4.9-33.8-7.5c-11.2-2.5-22.5-5-33.8-7.4
		c-22.2-4.7-44.4-8.8-66.7-12.8c-6.2-1.1-12.4-2.2-18.6-3.3c-5.6-1-11.3-2.2-16.9-3.2c2.5-0.8,5-1.6,7.5-2.3
		c4.4-1.3,8.7-2.6,13.1-3.9l25.5-7.4c17.1-5,34.2-9.9,51.5-14.3c9.8-2.5,19.4-5.3,29.1-8c2.1-0.6,1.4-3.9-0.7-3.3
		c-17.1,5.1-34.2,10.3-51.3,15.3c-17.1,5-34.3,9.7-51.5,14.5c-4.7,1.3-9.5,2.7-14.2,3.9c-4.7,1.3-9.6,2.4-14.2,3.9
		c-0.8-0.6-1.9-0.7-2.5,0.4c-4.7,8.6-7,18.6-6.7,28.5c0.2,4.9,0.9,9.9,2.3,14.6c0.7,2.4,1.6,4.7,2.6,6.9c0.9,1.9,1.8,5.1,3.7,6.3
		c0.2,0.4,0.5,0.8,1.1,0.9c5.8,1.4,11.7,1.7,17.6,2.5c5.8,0.8,11.7,1.6,17.5,2.6c11.8,2,23.5,4.1,35.3,6.2
		c23.3,4.1,46.5,8.5,69.8,12.7c6.5,1.2,13.1,2.3,19.6,3.5c3.2,0.6,6.3,1.1,9.5,1.7c3.4,0.6,6.8,1.4,10.2,1.5c0.3,0,0.5,0,0.8-0.1
		c0.7,0.3,1.6,0.4,2.2-0.1c0.2,0,0.4,0,0.6-0.1c7.8-2.1,15.5-5.2,23.1-8c7.7-2.8,15.4-5.6,23.1-8.4c15.3-5.5,30.6-11.1,45.9-16.9
		c8.7-3.3,17.4-6.6,26-10C429,237.8,427.1,233.9,424.6,234.9z M127.4,248.4c-0.5-1.9-2-3.4-2.8-5.2c-1-2.1-1.9-4.2-2.6-6.4
		c-1.4-4.4-2.3-9-2.5-13.6c-0.4-9.1,1.5-18.1,5.8-26.2c0.1,0,0.3-0.1,0.4-0.1c-0.1,1,0.5,2.2,1.8,2.4c0.7,0.1,1.3,0.2,2,0.3
		c-3.4,7.8-5.2,16.4-5.3,24.8c0,4.6,0.4,9.2,1.3,13.8c0.4,2.2,1,4.4,1.6,6.5c0.4,1.1,0.7,2.6,1.2,3.9
		C128,248.5,127.7,248.4,127.4,248.4z M133,249.3c0.3-1.9-1.3-4-2-5.8c-0.8-2-1.5-4.1-2-6.2c-1.1-4.2-1.6-8.6-1.6-12.9
		c0-8.6,2.1-16.8,6-24.5c3.2,0.4,6.4,0.8,9.5,1.3c-3.5,7.7-5.4,16.1-5.7,24.6c-0.2,4.4,0,8.8,0.7,13.1c0.3,2.2,0.7,4.4,1.3,6.5
		c0.5,1.9,0.8,4.2,2.2,5.6C138.5,250.5,135.8,249.9,133,249.3z M235.2,266.5c-23.3-3.7-46.6-7.1-69.9-10.9c-6.7-1.1-13.4-2.3-20-3.6
		c-0.6-0.1-1.3-0.3-1.9-0.4c0.5-0.2,0.9-0.6,1-1.1c0.5-2-0.7-3.9-1.3-5.8c-0.6-1.9-1.1-3.9-1.4-5.9c-0.8-4.1-1.1-8.3-1-12.5
		c0.3-8.4,2.5-16.6,6.2-24.1c0.1-0.2,0.1-0.3,0.2-0.5c4.7,0.7,9.4,1.3,14.1,2.1c11.4,1.9,22.7,4,34,6.2c22.1,4.3,44.1,9,66,14.3
		c1.7,0.4,3.3,0.8,5,1.2c-6.4,14.5-6.5,30.6-1.4,45.5L235.2,266.5z M270.5,272.1l-0.8-0.1c-6.3-14.3-5.7-31,0.4-45.3
		c2.4,0.6,4.8,1.2,7.2,1.8c-2.7,7.5-3.9,15.5-3.5,23.5c0.2,4.1,0.7,8.2,1.7,12.2c0.5,2,1.1,4,1.7,5.9c0.4,1.1,0.7,2.2,1,3.2
		C275.6,272.9,273,272.5,270.5,272.1z M297.1,276.3c-3-0.5-6.1-1-9.1-1.5c-1.4-0.2-2.8-0.5-4.3-0.7c0-0.1,0-0.1-0.1-0.2
		c-0.8-1.8-1.9-3.4-2.6-5.3c-0.7-1.8-1.2-3.6-1.6-5.4c-0.9-3.8-1.5-7.8-1.6-11.7c-0.2-7.5,0.9-14.9,3.5-22c2.4,0.7,4.8,1.6,7.3,2.2
		c3.1,0.8,6.3,1.6,9.4,2.4c-3.2,7-4.3,14.9-3.3,22.5c0.6,4.2,1.8,8.5,3.6,12.4c0.9,2.1,2.1,4,3.3,5.9c0.5,0.8,1.1,1.6,1.6,2.4
		C301.2,276.9,299.1,276.6,297.1,276.3z"/>
	<path class="st15" d="M223.3,237.7c0.4-3.6,1.2-7.6,2.6-11.2l-67.5-12.2c-6.6,10.9-3.3,29.3-3.3,29.3l68.3,12.3
		C222.7,249.8,222.6,243.7,223.3,237.7z"/>
	<path class="st15" d="M239.4,228.9l-9-1.6c-0.3,0.9-0.6,1.8-0.8,2.7c-0.1,0.5-0.2,1-0.3,1.4c0,0-0.1,0.3-0.1,0.4
		c0,0.1-0.1,0.4-0.1,0.4c-0.2,0.9-0.3,1.8-0.4,2.7c-0.2,1.7-0.4,3.4-0.5,5.2c-0.2,3.9-0.1,7.8,0.3,11.5c0.2,1.8,0.5,3.6,0.7,5.3
		l7.2,1.3c-0.3-3.8-0.4-7.6-0.4-11.3C236.3,241,237,234.5,239.4,228.9z"/>
	<path class="st15" d="M249.9,230.8l-6.1-1.1c-0.9,2-1.5,4.1-1.9,6.3c-0.7,3.4-0.9,7.3-0.8,10.9c0,3.8,0.3,7,0.6,10.5
		c0,0.6,0.1,1.2,0.2,1.8l6.4,1.2C245.3,247.6,249.9,230.8,249.9,230.8z"/>
	<path class="st16" d="M300.5,250.9l11.3-3.9c12.5,2.8,7.2,15.6,15,21.4c0,0-13.4,5.4-13.7,5.5C305,264.7,314,254.9,300.5,250.9z"/>
</g>
<g>
	<g>
		<path class="st17" d="M397.6,192.9l-97.4,32.4c-49.2-10.9-88.7-21.1-137.9-32c1.9-2.3,3.6-4.8,4.9-7.4c3.7-7.1,5.5-15.1,4.9-23.1
			c-0.5-7.2-2.9-14.7-6.8-21c-2-3.2-4.4-6.2-7.1-8.7c34-5.9,67.6-14.9,100.5-25.2c45.9,7.8,96.8,17.5,142.7,25.3
			C411.7,151.7,410.1,176,397.6,192.9z"/>
		<path class="st4" d="M393.6,183.3l-94.6,32c0,0-88.1-19.8-131.9-29.3c3.7-7.1,5.5-15.1,4.9-23.1c-0.5-7.2-2.9-14.7-6.8-21l8.7,1.9
			l127.4,27.7l95.2-27.6C396.6,143.9,404.8,158.6,393.6,183.3z"/>
		<path class="st9" d="M393.6,183.3l-94.6,32c-16.5-35.2-99.3-63.5-125-71.5l127.4,27.7l95.2-27.6
			C396.6,143.9,404.8,158.6,393.6,183.3z"/>
		<g>
			<defs>
				<path id="SVGID_13_" d="M393.6,183.3l-94.6,32c0,0-88.1-19.8-131.9-29.3c3.7-7.1,5.5-15.1,4.9-23.1c-0.5-7.2-2.9-14.7-6.8-21
					l136.1,29.6l95.2-27.6C396.6,143.9,404.8,158.6,393.6,183.3z"/>
			</defs>
			<clipPath id="SVGID_3_">
				<use xlink:href="#SVGID_13_"  style="overflow:visible;"/>
			</clipPath>
			<g class="st18">
				<path class="st6" d="M413.4,142.2c-7.3,2.2-14.5,4.9-21.8,7.3c-7.3,2.4-14.6,4.8-21.8,7.3c-14.4,4.9-29,9.4-43.5,14
					c-8.2,2.6-16.5,5.3-24.9,7.3c-1.9,0.4-1,3.2,0.9,2.5c7.3-2.8,14.8-5.1,22.2-7.4c7.3-2.3,14.6-4.6,21.9-6.9
					c14.5-4.6,29-9.1,43.5-13.8c8.1-2.6,16.3-5,24.3-7.8C415.6,144.2,414.8,141.8,413.4,142.2z"/>
				<path class="st6" d="M420,150.6c-4,1.1-7.8,2.6-11.7,3.9c-3.9,1.3-7.9,2.6-11.8,3.9c-8,2.6-16,5.2-24,7.8
					c-16.2,5.1-32.4,10.2-48.6,15.1c-4.4,1.4-8.9,2.7-13.3,3.9c-2.3,0.7-4.7,1.3-7,1.9c-1.8,0.5-3.5,0.6-4.4,2.5
					c-0.1,0.2,0,0.4,0.2,0.5c1.5,0.9,2.6,0.4,4.2-0.1c2-0.6,4-1.3,6-2c4-1.3,8-2.6,12-3.8c8.1-2.5,16.2-5,24.3-7.5
					c15.9-4.9,31.8-10,47.7-15c4.4-1.4,8.8-2.8,13.2-4.2c4.6-1.5,9.4-2.7,13.9-4.5C422,152.5,421.3,150.3,420,150.6z"/>
				<path class="st6" d="M429,158.6c-4.2,1.2-8.4,2.7-12.5,4.1c-4.2,1.3-8.4,2.7-12.6,4c-8.4,2.6-16.8,5.3-25.2,7.9
					c-16.8,5.2-33.6,10.3-50.5,15.3c-9.6,2.8-19.3,5.3-28.9,7.9c-2,0.5-1.3,3.6,0.6,3.1c33.8-10.6,67.8-20.5,101.6-31
					c4.7-1.4,9.3-2.9,14-4.4c4.7-1.5,9.6-2.8,14.3-4.5C431.1,160.4,430.3,158.3,429,158.6z"/>
				<path class="st6" d="M418.3,169.9c-4,0.5-8,2.4-11.7,3.6c-3.8,1.3-7.6,2.5-11.4,3.8c-7.7,2.5-15.4,5.1-23.1,7.6
					c-15.4,5-30.9,9.9-46.4,14.5c-8.8,2.6-17.6,5.1-26.5,7.6c-1.7,0.5-1.1,3.2,0.6,2.7c31.2-9.5,62.5-18.8,93.5-29
					c4.3-1.4,8.5-2.8,12.7-4.2c2.2-0.7,4.4-1.5,6.5-2.2c2.2-0.7,4.4-1.3,6.4-2.5C420,171.3,419.5,169.8,418.3,169.9z"/>
				<path class="st6" d="M301.6,178.2c-9.1-2.1-18.4-3.8-27.5-5.7c-9.2-1.9-18.4-3.9-27.5-5.7c-18.2-3.7-36.4-7.8-54.5-11.9
					c-10.3-2.3-20.6-4.5-30.7-7.4c-2.3-0.7-2.9,2.2-0.5,2.6c9.4,1.6,18.7,3.8,28,5.9c9.1,2.1,18.3,4.1,27.4,6.1
					c18.1,4,36.3,8.1,54.4,12.1c10.1,2.2,20.3,4.7,30.5,6.6C302.9,181.1,303.4,178.6,301.6,178.2z"/>
				<path class="st6" d="M300.9,188.2c-4.9-1.2-9.9-2.1-14.8-3.1c-4.9-1-9.9-2.1-14.8-3.1c-10-2.1-20.1-4.3-30.1-6.5
					c-20.2-4.5-40.4-9-60.6-13.7c-5.5-1.3-11-2.6-16.5-3.9c-2.9-0.7-5.7-1.5-8.6-2.2c-2.2-0.6-4.2-1.4-6.1-0.3
					c-0.2,0.1-0.2,0.4-0.1,0.6c1.1,1.6,2.6,1.8,4.5,2.2c2.5,0.6,5.1,1.1,7.6,1.6c5,1,10.1,2.2,15.1,3.3c10.1,2.3,20.2,4.6,30.3,6.9
					c19.8,4.5,39.7,8.9,59.6,13.3c5.5,1.2,11,2.5,16.6,3.7c5.8,1.3,11.6,2.8,17.5,3.8C302,190.9,302.6,188.6,300.9,188.2z"/>
				<path class="st6" d="M137.7,163.2c5.2,1.3,10.5,2.3,15.7,3.4c5.2,1.2,10.5,2.3,15.7,3.5c10.5,2.3,21,4.7,31.4,7.1
					c20.9,4.8,41.8,9.6,62.7,14.6c11.9,2.8,23.7,6,35.5,9.1c2.4,0.6,3.4-2.4,1.1-2.9c-42.2-9.5-84.2-19.6-126.4-29.1
					c-5.8-1.3-11.6-2.6-17.4-3.9c-5.9-1.3-11.9-2.9-17.8-4C136.5,160.5,136.1,162.7,137.7,163.2z"/>
				<path class="st6" d="M150.1,176.3c4.5,1.8,9.9,2.3,14.6,3.3c4.8,1,9.5,2,14.3,3c9.7,2,19.4,4,29.1,6.1
					c19.4,4.2,38.7,8.4,57.9,13c10.9,2.6,21.8,5.3,32.7,8c2.1,0.5,3-2.1,0.9-2.6c-38.8-9-77.7-18.2-116.7-26.4
					c-5.3-1.1-10.7-2.3-16-3.4c-2.7-0.6-5.5-1.1-8.2-1.7c-2.7-0.6-5.5-1.3-8.2-1.4C149,174.3,148.7,175.8,150.1,176.3z"/>
			</g>
		</g>
	</g>
	<path class="st19" d="M402.6,135.4c-0.1-0.2-0.2-0.3-0.4-0.4c-0.3-1.1-1.4-2-2.9-1.3c-3.1,1.4-6.6,2.1-9.8,3.1
		c-3.1,0.9-6.2,1.9-9.4,2.8c-6.5,1.9-13,3.8-19.5,5.7c-12.8,3.6-25.5,7.2-38.4,10.3c-7.4,1.8-14.8,3.3-22.2,5.1
		c-0.7,0.2-1.2,0.7-1.4,1.2c-8.9-1.4-17.7-3.4-26.5-5c-9.1-1.7-18.2-3.5-27.2-5.4c-18.1-3.7-36.4-7-54.3-11.4
		c-4.9-1.2-9.9-2.5-14.8-3.9c-3.2-0.9-6.3-1.8-9.5-2.7c23.9-5.1,47.5-11,71.1-17.3c7.1-1.9,14.3-3.7,21.2-6.1c1.6-0.6,0.7-3.3-1-2.9
		c-6.4,1.5-12.7,3.6-19.1,5.4c-6.2,1.8-12.5,3.5-18.8,5.2c-12.7,3.4-25.4,6.5-38.2,9.5c-7,1.6-14,3.2-21.1,4.7c-0.1,0-0.1,0-0.2,0
		c-2.2-0.5-3.3,2.6-1.3,3.3c0.3,0.2,0.5,0.3,0.8,0.5c0.1,0.1,0.3,0.2,0.4,0.3c0.1,0,0.1,0.1,0.2,0.1c0,0,0.1,0.1,0.1,0.1
		c0.1,0.1,0.1,0-0.1-0.1c0.1,0,0.3,0.3,0.3,0.3c0.1,0.1,0.2,0.2,0.4,0.4c0.2,0.2,0.5,0.5,0.7,0.7c0.5,0.5,0.9,1,1.3,1.5
		c0.1,0.1,0.2,0.3,0.3,0.4c0,0.1,0.1,0.1,0.1,0.2c0,0,0,0,0,0c0.2,0.3,0.4,0.6,0.5,0.9c0.4,0.7,1.4,1.2,2.2,0.7
		c0.4-0.2,0.7-0.5,0.8-1c0.1-0.4,0.1-0.9-0.1-1.2c-0.6-0.9-1.3-1.7-2-2.5c2.6,0.5,5.2,1,7.8,1.5c4.7,0.9,9.3,1.9,14,2.9
		c9,1.9,18,4.1,27,6.3c18.1,4.4,36.3,8.2,54.4,12.1c10.2,2.2,20.5,3.9,30.7,6.3c1.3,0.3,2.1-0.5,2.3-1.4
		c12.8-3.2,25.6-6.8,38.3-10.2c13.1-3.4,26.1-6.8,39.1-10.4c3.6-1,7.2-2,10.8-3c3.7-1,7.4-2.5,11.1-3.1c0.2,0,0.4-0.1,0.5-0.1
		c4.4,8.3,6.3,17.7,5.3,27.1c-0.5,4.7-1.8,9.4-3.6,13.7c-0.9,2.2-2,4.3-3.3,6.4c-1,1.6-2.6,3.2-3.3,5c-24.9,8.7-49.7,17.6-74.7,26.3
		c-7.2,2.5-14.5,4.7-21.7,7.1c-0.2,0.1-0.3,0.1-0.4,0.2c-35.2-9.5-70.9-17.5-106.7-24.6c-9.4-1.8-18.8-3.9-28.2-5.8
		c0.4-0.5,0.9-1,1.3-1.6c0.9-1.3,1.7-2.7,2.4-4.2c0.4-0.8-0.3-1.8-1.1-2c-0.9-0.3-1.7,0.2-2,1.1c0,0.1-0.1,0.2-0.1,0.2
		c0,0,0,0.1,0,0.1c-0.1,0.1-0.1,0.3-0.2,0.4c-0.2,0.3-0.3,0.6-0.5,0.9c-0.4,0.6-0.7,1.2-1.2,1.8c-0.2,0.3-0.4,0.5-0.6,0.8
		c-0.1,0.1-0.2,0.3-0.3,0.4c0,0,0,0,0,0c0,0.1-0.1,0.1-0.1,0.2c-0.5,0.5-1,1-1.6,1.5c-0.4,0.3-0.6,0.8-0.5,1.4
		c-0.2,0.8,0.3,1.8,1.5,2c9.2,1.6,18.4,3,27.6,4.9c9,1.9,18,3.8,27,5.8c17.8,3.9,35.5,8.1,53.1,12.8c10.1,2.7,20.2,5.2,30.3,8
		c1.1,0.3,1.9-0.3,2.3-1c12.4-4.4,24.7-8.9,37.2-13.1c12.5-4.2,24.9-8.5,37.4-12.7c7.1-2.4,14.2-4.8,21.3-7.2
		c0.8-0.3,1.3-0.8,1.4-1.4c1.7-1.2,2.9-3.8,3.9-5.4c1.3-2.1,2.4-4.4,3.3-6.7c1.9-4.8,3-9.9,3.4-15
		C410.3,154.6,407.8,144.2,402.6,135.4z"/>
</g>
<g>
	<path class="st7" d="M374.8,123.9c0.6,2.1,1.5,4,2.7,5.6l-72,24.5c-37.3-5.5-133-23.3-133-23.3c-7.4-13.9-6.9-32.3-0.5-46.7
		l80.7-18l127.1,22.4c-0.6,1-1.2,2.1-1.7,3.5C374.5,99.9,371.9,114.2,374.8,123.9z"/>
	<g>
		<path class="st20" d="M306.8,80.7c-13.8-2.3-27.6-4.7-41.2-7.5c-3.6-0.7-7.2-1.7-10.8-2.4c-0.1-0.2-0.4-0.4-0.7-0.3
			c-0.6,0.1-1.1,0.1-1.7,0.3c-0.6,0.2-1.3,0.5-1.9,0.7c-1.2,0.4-2.4,0.8-3.6,1.2c-2.4,0.8-4.8,1.5-7.2,2.2c-4.8,1.4-9.6,2.7-14.4,4
			c-2.8,0.8-5.5,1.5-8.3,2.2c-1,0.3-0.6,1.8,0.4,1.6c9.8-2.6,19.4-5.6,29.1-8.5c1.3-0.4,2.7-0.8,4-1.2c0.7-0.2,1.3-0.4,2-0.5
			c0.3-0.1,0.6-0.2,0.8-0.3c0.1,0.1,0.2,0.1,0.3,0.1c3.4,0.7,6.9,1.1,10.4,1.7c3.4,0.6,6.9,1.3,10.3,1.9c6.8,1.3,13.7,2.6,20.5,4.1
			c2.9,0.6,5.7,1.2,8.5,1.9c-0.8,0.3-1.6,0.6-2.3,0.8c-1.5,0.6-3,1.1-4.4,1.6c-2.9,1-5.8,2.1-8.8,3.1c-5.9,2.1-11.8,4.1-17.7,6.2
			c-0.3,0.1-0.4,0.3-0.5,0.4c-5.8-1.3-11.6-2.6-17.5-3.9c-6-1.3-12-2.6-18-4c-3.4-0.8-6.8-1.6-10.2-2.3c-1.1-0.3-1.6,1.5-0.4,1.7
			c6,1.4,12.1,2.7,18.1,4c6,1.4,12,2.8,18,4.2c3.4,0.8,6.8,1.5,10.2,2.3c0.6,0.1,1-0.3,1.1-0.7c5.8-2.1,11.6-4.3,17.4-6.4
			c3-1.1,5.9-2.1,8.9-3.2c1.5-0.5,3-1,4.5-1.5c1.5-0.5,3-1.1,4.5-1.4c0.2,0,0.3-0.1,0.4-0.2C307.5,82.4,307.8,80.8,306.8,80.7z"/>
		<path class="st20" d="M343.3,88.1c0-0.4-0.2-0.8-0.7-0.8c-2.7-0.1-5.4-0.6-8.2-1c-2.7-0.4-5.4-0.7-8-1.1c0,0-0.1,0-0.1,0
			c-0.2-0.2-0.4-0.2-0.7-0.1c-5.2,1.9-10.3,3.9-15.6,5.7c-5.3,1.8-10.6,3.5-15.8,5.1c-3,1-5.9,2-8.9,2.9c-0.9,0.3-0.7,1.7,0.1,1.7
			c0,0,0,0,0,0c4.3,1.2,8.6,2.3,12.8,3.5c0.4,0.1,0.7-0.1,0.9-0.4c1.3-0.3,2.6-0.9,3.9-1.3c1.4-0.5,2.8-1,4.2-1.5
			c2.9-1,5.8-2,8.7-2.9c5.7-1.9,11.4-3.7,17.1-5.5c3.3-1,6.5-2,9.8-3C343.5,89.2,343.6,88.5,343.3,88.1z"/>
	</g>
	<g>
		<path class="st4" d="M374,107.1c-0.3,1.9-0.4,3.9-0.4,5.8c0,0.9,0,1.7,0,2.6l0,0c0,1.4,0.1,2.8,0.3,4.2l0,0
			c0.1,0.8,0.2,1.6,0.4,2.3c0.1,0.7,0.3,1.3,0.5,2l-69.4,23.2c-1.1-1-2.1-2.1-2.9-3.2c-0.5-0.6-0.9-1.3-1.3-2
			c-1-1.7-1.7-3.5-2.2-5.3c-0.2-0.8-0.3-1.5-0.5-2.3c-0.3-1.7-0.4-3.5-0.3-5.2c0-0.9,0.1-1.7,0.2-2.5c0.2-1.9,0.5-3.7,0.9-5.4
			c0.2-0.9,0.4-1.7,0.7-2.5c1-3.2,2-5.3,2-5.3l43.4-12.4l32.4-9.3c-0.6,1.3-1.1,2.8-1.6,4.4c-0.3,0.9-0.6,1.9-0.8,2.9
			c-0.5,1.8-0.9,3.8-1.2,5.8C374.2,105.6,374.1,106.3,374,107.1z"/>
		<path class="st9" d="M305.4,147.2c-1.1-1-2.1-2.1-2.9-3.2c-0.5-0.6-0.9-1.3-1.3-2c-1-1.7-1.7-3.5-2.2-5.3
			c-0.2-0.8-0.3-1.5-0.5-2.3c-0.3-1.7-0.4-3.5-0.3-5.2c0-0.9,0.1-1.7,0.2-2.5c0.2-1.9,0.5-3.7,0.9-5.4c0.2-0.9,0.4-1.7,0.7-2.5
			c1-3.2,2-5.3,2-5.3l75.8-21.7C344.6,109.6,303.4,132.2,305.4,147.2z"/>
		<g>
			<path class="st6" d="M376.4,96.2c-0.3,0.9-0.6,1.9-0.8,2.9c-0.9,0.3-1.8,0.6-2.8,0.8c-3.2,1-6.4,2-9.7,2.9
				c-11.6,3.5-23.2,6.7-34.9,10c-9.6,2.7-19.2,5.7-28.8,8.4c0.2-0.9,0.4-1.7,0.7-2.5c4.2-1,8.4-2.1,12.6-3.1
				c11.7-2.8,23.3-6.2,34.7-9.9c5.7-1.9,11.5-3.7,17.2-5.6c2.9-0.9,5.7-1.9,8.6-2.9C374.2,97,375.3,96.6,376.4,96.2z"/>
			<path class="st6" d="M374.4,104.9c-0.1,0.7-0.2,1.4-0.3,2.2c-3.8,1-7.7,2-11.5,3.1c-21.5,6.1-42.8,12.7-64.2,19
				c0-0.9,0.1-1.7,0.2-2.5c4.8-1.4,9.7-2.7,14.5-4.1C333.6,116.9,354.1,111.2,374.4,104.9z"/>
			<path class="st6" d="M373.6,115.4L373.6,115.4c-2.7,0.8-5.5,1.5-8.3,2.3c-12.3,3.4-24.6,6.7-36.9,10.2
				c-6.1,1.7-12.2,3.5-18.2,5.3c-3.7,1.1-7.4,2.3-11.1,3.5c-0.2-0.8-0.3-1.5-0.5-2.3c4.5-1.2,9-2.3,13.5-3.5
				c12.3-3.3,24.6-7,36.8-10.6c8.2-2.4,16.4-4.9,24.6-7.4C373.6,113.7,373.6,114.6,373.6,115.4z"/>
			<path class="st6" d="M374.3,122c-2.6,0.8-5.3,1.6-7.9,2.5c-11.6,3.6-23.1,7.1-34.7,10.6c-9.7,3-19.4,6-29.2,8.9
				c-0.5-0.6-0.9-1.3-1.3-2c4.9-1.3,9.8-2.6,14.8-4c19.5-5.5,38.7-11.7,57.9-18.4C374,120.4,374.1,121.2,374.3,122z"/>
		</g>
	</g>
	<path class="st20" d="M377,127.7c-0.3-0.7-1.1-0.8-1.8-0.6c-18,6.3-36,12.8-54,19c-4.8,1.7-9.7,3.3-14.6,5c-0.5-1-1.1-1.9-1.6-2.8
		c-0.6-1.1-1.2-2.3-1.7-3.5c-1.1-2.4-1.9-5-2.4-7.6c-1-5.2-1-10.5,0-15.7c0.6-2.9,1.5-5.7,2.7-8.3c0,0,0,0,0,0
		c18.9-6.4,37.9-12.5,57.1-18.1c5.4-1.6,10.9-3.1,16.3-4.6c1.5-0.4,1-2.8-0.5-2.3c-30.5,8.7-44.8,13.1-57.4,17.4
		c-5.2,1.8-10.4,3.5-15.6,5.3c-0.1,0-0.1,0-0.1-0.1c-16.9-4-33.9-7.8-50.9-11.4c-17.1-3.6-34.2-7.1-51.3-10.4
		c-9.6-1.9-17.2-3.2-26.8-4.9c-1.5-0.3-1.9,1.8-0.4,2c17.2,2.9,32.4,5.4,49.4,8.9c17,3.5,33.9,7.3,50.7,11.3
		c9.1,2.2,18.2,4.5,27.3,6.8c-4.7,9.9-4.9,21.5-1.2,31.8c0.5,1.4,1.1,2.9,1.8,4.2c0.7,1.4,1.5,3.2,2.8,4.2c0.2,0.2,0.4,0.2,0.7,0.2
		c0.3,0.3,0.6,0.4,1,0.2c9.1-3.1,18.1-6.4,27.1-9.6c9.1-3.2,18.2-6.3,27.3-9.4c5.1-1.7,10.2-3.5,15.3-5.3
		C377.1,129.3,377.3,128.3,377,127.7z"/>
	<path class="st20" d="M273.5,117.7c-3.5-5.7-10.4-7.4-16.6-8c-4.3-0.4-8.6-0.3-12.9-1.2c-2.9-0.6-6.4-1.7-7.9-4.5
		c-0.2-0.8-1.1-1.4-1.9-0.7c-2.2,1.9-5.3,2.9-8.2,2.8c-3.7-0.2-7.1-1.5-10.6-2.7c-6.2-2.2-13.6-4.2-19.3,0.3
		c-4.9,3.9-6.2,10.9-3.1,16.4c1.6,2.8,4.2,4.9,7.4,5.9c3.4,1.1,6.9,1,10.4,0.7c4.1-0.3,8.6-0.8,12.5,0.9c3.1,1.3,5.2,3.6,6.1,6.8
		c0.3,1.1,1.6,1,2.2,0.3c0.6,0,1.2-0.4,1.2-1.2c0.2-3.3,3.7-4.7,6.6-4.4c3.6,0.3,6.7,2.4,9.8,4c6.2,3,13.6,4.7,19.9,0.9
		c2.7-1.7,4.9-4.4,5.7-7.5C275.7,123.4,275.1,120.4,273.5,117.7z M267.5,131.5c-6.1,3.6-13.6,1.7-19.5-1.4c-3.5-1.8-7-3.9-11.1-3.6
		c-2.6,0.2-5.1,1.8-6.2,4.1c-0.9-1.5-2.2-2.7-3.7-3.6c-2.8-1.7-6-2.4-9.2-2.5c-3.7-0.2-7.4,0.2-11-0.1c-3.3-0.2-6.7-0.9-9.3-2.9
		c-4.8-3.8-5.2-10.9-1.2-15.3c2.2-2.4,5.3-3.5,8.5-3.5c3.6,0,7,1.3,10.4,2.7c5.8,2.3,14.1,5.1,19.7,0.7c3,5,10.9,5,15.9,5
		c6.5,0.1,14.4,0.2,19.2,5.5c1.9,2.1,3.1,4.9,2.6,7.7C272.1,127.4,270.1,130,267.5,131.5z"/>
	<path class="st20" d="M296.4,146.5c-2-4.7-3.6-9.6-4.2-14.8c-0.5-5.1-0.4-10.6,1.6-15.4c0.2-0.4,0-1-0.4-1.2
		c-1.9-0.9-4.1-1.5-6.1-2.1c-0.5-0.5-1.7-0.6-2,0.4c-1.9,5.4-2.7,11.2-2.3,16.9c0.2,2.8,0.5,5.6,1.2,8.4c0.3,1.4,0.7,2.7,1.2,4.1
		c0.3,0.8,0.6,2.1,1.2,2.9c0.1,0.2,0.2,0.4,0.4,0.6c1.1,0.8,2.6,0.8,3.9,1.1c1.3,0.3,2.7,0.4,4.1,0.8
		C295.9,148.5,296.8,147.5,296.4,146.5z M288.5,144.7c-0.2-0.8-0.7-1.6-0.9-2.3c-0.5-1.3-0.9-2.6-1.3-3.9c-0.7-2.6-1.2-5.4-1.3-8.1
		c-0.3-5.2,0.5-10.3,2.2-15.2c1.5,0.6,3,1.2,4.5,1.7c-0.4,2.4-0.9,4.8-1.2,7.2c-0.3,2.7-0.4,5.4-0.3,8.1c0.3,4.7,1.2,9.5,3.1,13.8
		c-0.8-0.1-1.5-0.2-2.2-0.4C290.2,145.3,289.4,144.9,288.5,144.7z"/>
	<path class="st20" d="M185.6,125.4c-2-4.7-3.6-9.6-4.2-14.8c-0.5-5.1-0.4-10.6,1.6-15.4c0.2-0.4,0-1-0.4-1.2
		c-1.9-0.9-4.1-1.5-6.1-2.1c-0.5-0.5-1.7-0.6-2,0.4c-1.9,5.4-2.7,11.2-2.3,16.9c0.2,2.8,0.5,5.6,1.2,8.4c0.3,1.4,0.7,2.7,1.2,4.1
		c0.3,0.8,0.6,2.1,1.2,2.9c0.1,0.2,0.2,0.4,0.4,0.6c1.1,0.8,2.6,0.8,3.9,1.1c1.3,0.3,2.7,0.4,4.1,0.8
		C185.1,127.4,186,126.4,185.6,125.4z M177.7,123.6c-0.2-0.8-0.7-1.6-0.9-2.3c-0.5-1.3-0.9-2.6-1.3-3.9c-0.7-2.6-1.2-5.4-1.3-8.1
		c-0.3-5.2,0.5-10.3,2.2-15.2c1.5,0.6,3,1.2,4.5,1.7c-0.4,2.4-0.9,4.8-1.2,7.2c-0.3,2.7-0.4,5.4-0.3,8.1c0.3,4.7,1.2,9.5,3.1,13.8
		c-0.8-0.1-1.5-0.2-2.2-0.4C179.4,124.2,178.6,123.8,177.7,123.6z"/>
	<path class="st21" d="M303.5,127.7l9.7-2.9c0,0,5.9,2.9,5.3,8.7c-0.6,5.8,5,9.8,5,9.8l-11.6,3.9
		C305.8,141.5,314.3,130.9,303.5,127.7z"/>
</g>
<g>
	<path class="st2" d="M56.2,307.2l113.9-77.3l106,23.5c-0.9,2.6-1.3,5.2-1.4,7.7c-0.5,9.8,3.9,18.4,7.5,23.8
		c2.4,3.6,4.5,5.8,4.5,5.8l-118.7,83L65.4,332.2C65.4,332.2,50.9,322.7,56.2,307.2z"/>
	<path class="st4" d="M62.1,310.9l99,31.2l113.6-81.1c-0.5,9.8,3.9,18.4,7.5,23.8l-116.3,80.8L70.1,330
		C70.1,330,59.6,323.4,62.1,310.9z"/>
	<g>
		<defs>
			<path id="SVGID_15_" d="M62.1,310.9l99,31.2l113.6-81.1c-0.5,9.8,3.9,18.4,7.5,23.8l-116.3,80.8L70.1,330
				C70.1,330,59.6,323.4,62.1,310.9z"/>
		</defs>
		<clipPath id="SVGID_4_">
			<use xlink:href="#SVGID_15_"  style="overflow:visible;"/>
		</clipPath>
		<g class="st22">
			<path class="st6" d="M163.6,348.9c15.6-10.9,31.1-22,46.4-33.2c15.3-11.2,30.3-22.8,45.6-34.1c4.3-3.2,8.5-6.4,12.8-9.6
				c4.3-3.2,8.7-6.4,12.9-9.8c1.2-1-0.4-2.6-1.6-1.7c-3.8,2.8-7.4,5.9-11.2,8.8c-3.7,2.9-7.5,5.9-11.2,8.8
				c-7.5,5.8-15,11.6-22.6,17.2c-7.5,5.6-15.2,11-22.8,16.5c-7.7,5.6-15.4,11.2-23.2,16.7c-8.7,6.2-17.4,12.3-26.2,18.3
				C161.4,347.7,162.4,349.7,163.6,348.9z"/>
			<path class="st6" d="M166.9,361.3c15.7-10.7,31.4-21.4,47-32.4c15.5-10.9,30.7-22.3,46.1-33.4c4.3-3.1,8.7-6.2,13-9.4
				c4.3-3.2,8.8-6.2,13-9.6c1.2-0.9-0.4-2.6-1.6-1.7c-3.8,2.8-7.5,5.8-11.3,8.6c-3.8,2.9-7.6,5.7-11.3,8.6
				c-7.6,5.7-15.2,11.3-22.9,16.9c-7.6,5.5-15.4,10.8-23.1,16.1c-7.8,5.5-15.6,10.9-23.4,16.3c-8.8,6-17.6,12-26.5,17.9
				C164.6,360.1,165.7,362.1,166.9,361.3z"/>
			<path class="st6" d="M166.6,355.4c7.6-5.6,15.2-11.1,22.8-16.7c7.6-5.6,15.3-11.2,23.1-16.5c15.6-10.6,30.9-21.6,46.2-32.5
				c8.6-6.1,17.3-12.3,26-18.4c0.6-0.4,0.9-1.1,0.5-1.8c-0.3-0.6-1.2-0.9-1.8-0.5c-15.3,11.1-30.7,22.1-46.1,33.1
				c-15.4,11-30.5,22.5-46,33.3c-8.7,6-17.4,12.1-26.1,18.1C163.9,354.4,165.2,356.4,166.6,355.4z"/>
			<path class="st6" d="M166.8,359.4c-17.9-6.5-35.8-12.9-53.8-19c-18-6.1-36.1-11.8-54.1-17.8c-5.1-1.7-10.1-3.4-15.2-5
				c-5.1-1.7-10.2-3.5-15.4-4.9c-1.5-0.4-1.9,1.8-0.5,2.3c4.5,1.5,9.1,2.7,13.6,4.1c4.5,1.4,9.1,2.8,13.6,4.1
				c9.1,2.8,18.1,5.7,27.1,8.7c8.9,3,17.7,6.2,26.6,9.2c9,3.1,18,6.2,27,9.4c10,3.6,20,7.2,30,10.9
				C167.1,362,168.2,359.9,166.8,359.4z"/>
			<path class="st6" d="M163.4,347.1c-18.1-5.9-36.2-11.6-54.4-17.2c-18.2-5.5-36.5-10.5-54.7-15.9c-5.1-1.5-10.2-3-15.4-4.5
				c-5.2-1.5-10.3-3.1-15.5-4.4c-1.5-0.4-1.8,1.9-0.4,2.3c4.5,1.3,9.2,2.4,13.8,3.6c4.6,1.2,9.2,2.4,13.7,3.7
				c9.2,2.5,18.3,5,27.4,7.7c9,2.7,17.9,5.5,26.9,8.3c9.1,2.8,18.2,5.6,27.3,8.5c10.1,3.2,20.3,6.5,30.4,9.9
				C163.8,349.6,164.8,347.5,163.4,347.1z"/>
			<path class="st6" d="M165.8,353.4c-9-2.8-18-5.7-26.9-8.5c-9-2.8-18.1-5.7-27-8.9c-17.8-6.3-35.7-12.1-53.6-18.1
				c-10.1-3.3-20.1-6.7-30.2-10.1c-0.7-0.2-1.4-0.1-1.7,0.6c-0.3,0.6,0,1.5,0.6,1.7c18,5.8,36,11.7,54,17.6
				c18,5.9,36.1,11.3,54.1,17.4c10,3.4,20,6.8,30,10.3C166.7,356.1,167.4,353.9,165.8,353.4z"/>
		</g>
	</g>
	<path class="st3" d="M270.2,254.5c-7.7,4.3-15.1,9.3-22.5,14.1c-7.3,4.7-14.5,9.5-21.7,14.4c-7.3,5-14.6,10.2-21.8,15.4
		c-7,5.1-13.9,10.4-21.1,15.2c-8.3,5.6-17,10.8-25.2,16.7c-0.4,0.3-0.7,0.7-0.8,1.1c-5.4-2-11-3.5-16.4-5.3
		c-5.8-1.9-11.7-3.6-17.5-5.2c-11.9-3.3-23.6-7.2-35.3-11c-6.7-2.1-13.5-4.2-20-6.7c-1.9-0.7-3,2.4-1.1,2.9
		c11.9,3.1,23.5,7.4,35.2,11.2c5.9,1.9,11.8,3.8,17.6,6c5.7,2.1,11.4,4.2,17.2,6.1c6.7,2.2,13.3,4.7,20.1,6.5
		c1.3,0.3,2.4-0.5,2.7-1.5c0.4,0,0.8-0.2,1.2-0.5c6.9-5.4,13.5-11.2,20.5-16.5c7-5.4,14.3-10.2,21.6-15.1
		c14.6-9.6,29.3-19.1,44-28.5c4.1-2.6,8.3-5.3,12.4-7.9c4.2-2.7,8.6-5.2,12.7-8C274.1,256.6,272.2,253.4,270.2,254.5z"/>
	<path class="st3" d="M211.2,269.2c-3.7-1.1-8.1-1.1-12.1-1.7c-3.5-0.5-9-3.5-6.5-6c1-1-1-1.9-2.1-1c-1.7,0.7-4.9,2.6-8.9,1.7
		c-3.5-0.7-6.3-2.6-9.1-4c-5.3-2.8-13-4.4-20-3.2c-6,1-12.1,4.1-14.3,8.2c-2.1,4-0.3,8.5,4.6,10.7c3.6,1.6,7.9,1.1,12,1.6
		c1.1,0.1,2.3,0.4,3.2,0.8c0.5,1.3,0.4,2.7-1.1,4.1c-1.1,1.1,0.8,2.6,2.5,1.8c7-3,14.7-3.3,21.2-0.5c3.2,1.4,6.1,3.2,9.7,4.3
		c3.5,1.1,7.5,1.6,11.5,1.3c6.3-0.5,12.8-3.3,15.2-7.6C219.4,275.4,217,270.9,211.2,269.2z"/>
</g>
</svg>
