<?xml version="1.0" encoding="utf-8"?>
<!-- Generator: Adobe Illustrator 24.3.0, SVG Export Plug-In . SVG Version: 6.00 Build 0)  -->
<svg version="1.1" xmlns="http://www.w3.org/2000/svg" xmlns:xlink="http://www.w3.org/1999/xlink" x="0px" y="0px"
	 viewBox="0 0 500 500" style="enable-background:new 0 0 500 500;" xml:space="preserve">
<style type="text/css">
	.st0{fill:#EFD8C4;}
	.st1{fill:#FFF1E5;}
	.st2{fill:#4A5931;}
	.st3{fill-rule:evenodd;clip-rule:evenodd;fill:#D76600;}
	.st4{fill:#D87500;}
	.st5{fill:#E18D17;}
	.st6{fill:#C46500;}
	.st7{fill-rule:evenodd;clip-rule:evenodd;fill:#DDB156;}
	.st8{fill-rule:evenodd;clip-rule:evenodd;fill:#2C3F0A;}
	.st9{fill-rule:evenodd;clip-rule:evenodd;fill:#EEDAC4;}
	.st10{fill-rule:evenodd;clip-rule:evenodd;fill:#7B8C00;}
	.st11{fill-rule:evenodd;clip-rule:evenodd;fill:#445921;}
	.st12{fill:#D76600;}
	.st13{fill-rule:evenodd;clip-rule:evenodd;fill:#E9C065;}
	.st14{fill-rule:evenodd;clip-rule:evenodd;fill:#213D00;}
	.st15{opacity:0.4;}
	.st16{fill:#85872D;}
	.st17{fill-rule:evenodd;clip-rule:evenodd;fill:#E18D17;}
	.st18{fill:#9BA840;}
	.st19{opacity:0.44;}
	.st20{fill:#475929;}
	.st21{fill:#929939;}
	.st22{fill:#DB9242;}
	.st23{fill:#FF8206;}
	.st24{fill:#D36900;}
	.st25{fill:#BA5800;}
	.st26{fill:#4F0F26;}
	.st27{fill:#067565;}
	.st28{fill:#00665B;}
	.st29{fill:#EDA34A;}
	.st30{fill:#F9AFA6;}
	.st31{fill:#EFA29D;}
	.st32{fill:#FDB9A0;}
	.st33{fill:#E19933;}
	.st34{opacity:0.6;fill:#F46A68;}
	.st35{fill:#E56E7A;}
	.st36{fill:#C97573;}
	.st37{opacity:0.25;}
	.st38{fill:#FFFFFF;}
	.st39{opacity:0.22;}
	.st40{fill:#300621;}
	.st41{fill:#FCFCFE;}
	.st42{opacity:0.15;fill:#FFFFFF;}
	.st43{fill:#077262;}
</style>
<g id="BACKGROUND">
	<rect class="st0" width="500" height="500"/>
	<g>
		<path class="st1" d="M209.3,269H0v-57.7c3.5-0.1,6.6,0.2,9.2,0.6c5.2-12.3,17.3-21,31.5-21c14.4,0,26.8,9,31.8,21.7
			c4.2-1,10.7-1.9,18.2-0.7c3.7,0.6,7.6,1.7,11.6,3.5c17.7,8.1,23.3,24.6,24.2,27.3c5.2-4.9,12.7-5.7,17.9-2.3
			c5.7,3.7,6.1,10.6,6.1,11.3c1.1-0.5,25.8-10.7,47.3,4.9C202.8,260.3,206.6,264.6,209.3,269z"/>
		<path class="st1" d="M500,0v69H284c3.3-5.4,7.8-10.8,13.8-15.4c25.4-19.4,54.7-6.7,56-6.1c0-0.9,0.6-9.5,7.3-14
			c6.2-4.2,15-3.2,21.2,2.8c1.1-3.4,7.8-23.8,28.7-33.8c2.1-1,4.2-1.8,6.2-2.5H500z"/>
		<g>
			<g>
				<path class="st1" d="M0,0v79c3,0.7,6.3,1.1,9.8,1c14.5-0.7,27.7-10.4,34.8-25.1c6.7,5.1,15.2,5.8,21.8,1.9
					c6.9-4.1,9-11.6,9.4-13.1c2.9,1.5,30.3,15.4,58.5,0c23.2-12.8,30.4-36.4,31.7-40.9c9.8,4.8,20.7,3.4,28.1-2.7H0z"/>
			</g>
		</g>
		<g>
			<g>
				<path class="st1" d="M500,148v90H290.2c1.1-3.7,2.8-7.5,5.8-11c9.3-11,26.2-14.3,41.2-7.5c1.7-5.5,11.1-34.7,41.4-50.4
					c36.8-19,72.6-1.9,76.4,0c0.5-1.9,3.1-11.1,12.2-16.2c8.7-4.8,19.8-3.9,28.5,2.4C496.9,152.7,498.4,150.3,500,148z"/>
			</g>
		</g>
	</g>
</g>
<g id="OBJECTS">
	<g>
		<g>
			<path class="st2" d="M133.2,359.3c-0.3,0.5-0.9,0.6-1,0.6c-0.3,0.1-0.5,0.1-0.6,0.1l-85.6,0.8c-0.7-0.8-0.5-1.9,0.1-2.4
				c0.5-0.3,1.2-0.3,1.7,0c0-1.6,1-3.1,2.4-3.7c1.6-0.7,3.4-0.2,4.6,1.1c0.7-1.6,2.1-2.6,3.5-2.5c1,0.1,1.6,0.8,1.9,1
				c-0.7-2.3,0.4-4.7,2.3-5.6c1.5-0.7,3.3-0.4,4.7,0.6c-0.1-0.6,0.2-1.1,0.8-1.3c0.5-0.2,1.2,0,1.5,0.5c0.2-1.9,1.6-3.4,3.2-3.5
				c1.8-0.1,2.9,1.5,3,1.6c0.3-0.6,1-0.9,1.6-0.7c0.6,0.2,0.9,0.8,0.8,1.5c0.7-0.7,1.7-0.9,2.5-0.5c1,0.4,1.5,1.5,1.3,2.7
				c0.3-1.1,1.1-1.9,2.1-2c1.1-0.1,1.8,0.7,1.9,0.8c0.1-0.1,1.3-1.9,3.5-1.8c1.7,0,3.2,1.2,3.8,2.9c0.4-0.4,1.3-1.2,2.7-1.4
				c2.5-0.4,4.3,1.3,4.5,1.5c0.3-0.3,0.8-0.6,1.5-0.8c1.4-0.3,2.9,0.3,4,1.7c0-0.1,0.9-1.2,2.4-1c1.3,0.2,2,1.3,2,1.4
				c0.7-1.9,2.6-3,4.5-2.7c1.8,0.3,3.2,1.8,3.4,3.7c0.4-1,1.6-1.6,2.7-1.4c1,0.2,1.8,1.2,1.8,2.2c1.6-1.3,3.8-1.5,5.5-0.5
				c1.6,1,2.5,2.9,2.3,4.8c0.8-0.7,1.9-0.7,2.5-0.1C133.5,357.7,133.6,358.7,133.2,359.3z"/>
		</g>
		<g>
			<g>
				<g id="XMLID_4_">
					<g>
						<g>
							<rect x="74.5" y="270.8" class="st3" width="0.6" height="4.5"/>
						</g>
						<g>
							<g>
								<g>
									<g>
										<path class="st4" d="M76.3,275.2c0,1.2-0.7,2.2-1.5,2.2c-0.8,0-1.5-1-1.5-2.2c0-1.2,0.7-2.2,1.5-2.2
											C75.6,273,76.3,274,76.3,275.2z"/>
									</g>
									<g>
										<polygon class="st4" points="75.1,277.3 74.5,277.3 74.5,270.9 74.8,267 75.1,270.9 										"/>
									</g>
									<g>
										<path class="st5" d="M48.5,304.5L48.5,304.5c0-11,6.6-20.9,16.9-25.3l9.5-4h-0.2l9.5,4c10.2,4.4,16.9,14.3,16.9,25.3l0,0
											H48.5z"/>
									</g>
									<g>
										<g>
											<path class="st4" d="M54.3,304.5c0.1-7.8,2.5-15.7,7.9-21.4c1.9-2,4-3.5,6.4-4.8c1.2-0.7,2.4-1.3,3.6-2
												c0.7-0.4,1.9-1.4,2.6-1.4c0.7,0,1.8,0.9,2.4,1.2c1.2,0.7,2.4,1.3,3.6,2c2.3,1.3,4.5,2.7,6.3,4.6
												c5.6,5.7,8.1,13.8,8.2,21.7c0,0.4-0.6,0.4-0.6,0c-0.1-8.3-2.9-16.9-9.2-22.5c-3.2-2.8-7.3-4.6-10.9-6.6
												c-0.3-0.1-0.1-0.5,0.1-0.5c0,0,0.1,0,0.1,0c0.3,0,0.4,0.4,0.1,0.5c-3.7,2-7.8,3.8-10.9,6.6c-6.4,5.6-9.1,14.2-9.2,22.5
												C54.8,304.8,54.3,304.8,54.3,304.5L54.3,304.5z"/>
										</g>
									</g>
									<g>
										<g>
											<path class="st4" d="M66.5,304.5c0-6.8,0.6-13.9,2.8-20.4c0.6-1.8,1.4-3.6,2.5-5.2c0.5-0.8,2.1-3.9,3-3.9
												c0.9,0,2.4,3,3,3.8c1.1,1.6,1.9,3.4,2.5,5.3c2.2,6.5,2.7,13.6,2.8,20.4c0,0.4-0.6,0.4-0.6,0c0-6.8-0.6-13.8-2.7-20.2
												c-1.2-3.4-3.1-6.1-5.2-9c-0.1-0.2,0-0.4,0.3-0.4c0,0,0,0,0.1,0c0.2,0,0.4,0.3,0.3,0.4c-2.1,2.9-4.1,5.5-5.2,9
												c-2.2,6.5-2.7,13.5-2.7,20.2C67.1,304.8,66.5,304.8,66.5,304.5L66.5,304.5z"/>
										</g>
									</g>
									<g>
										<path class="st6" d="M45.9,309.6h57.7V305c-0.7-0.7-1.1-1.1-1.9-1.9H47.8c-0.7,0.7-1.1,1.1-1.9,1.9V309.6z"/>
									</g>
									<g>
										<path class="st4" d="M47.1,309.6h55.4V305c-0.7-0.7-1.1-1.1-1.8-1.8H48.9c-0.7,0.7-1.1,1.1-1.8,1.8V309.6z"/>
									</g>
								</g>
							</g>
						</g>
						<g>
							<g>
								<g>
									<rect x="45.7" y="312.9" class="st7" width="58.2" height="8.7"/>
								</g>
							</g>
						</g>
						<g>
							<g>
								<path class="st8" d="M58.2,314.2C58.2,314.2,58.2,314.3,58.2,314.2C58.2,314.3,58.2,314.2,58.2,314.2
									c-2.2,0.9-2,2.2-2.1,2.2v3.8h4.2v-3.8C60.2,316.4,60.4,315.1,58.2,314.2z"/>
							</g>
							<g>
								<path class="st8" d="M51.5,314.2C51.5,314.2,51.5,314.3,51.5,314.2C51.5,314.3,51.5,314.2,51.5,314.2
									c-2.2,0.9-2,2.2-2.1,2.2v3.8h4.2v-3.8C53.6,316.4,53.7,315.1,51.5,314.2z"/>
							</g>
							<g>
								<path class="st8" d="M84.8,314.2C84.8,314.2,84.8,314.3,84.8,314.2C84.8,314.3,84.8,314.2,84.8,314.2
									c-2.2,0.9-2,2.2-2.1,2.2v3.8h4.2v-3.8C86.8,316.4,87,315.1,84.8,314.2z"/>
							</g>
							<g>
								<path class="st8" d="M78.1,314.2C78.1,314.2,78.1,314.3,78.1,314.2C78.1,314.3,78.1,314.2,78.1,314.2
									c-2.2,0.9-2,2.2-2.1,2.2v3.8h4.2v-3.8C80.2,316.4,80.3,315.1,78.1,314.2z"/>
							</g>
							<g>
								<path class="st8" d="M64.8,314.2C64.8,314.2,64.8,314.3,64.8,314.2C64.8,314.3,64.8,314.2,64.8,314.2
									c-2.2,0.9-2,2.2-2.1,2.2v3.8h4.2v-3.8C66.9,316.4,67,315.1,64.8,314.2z"/>
							</g>
							<g>
								<path class="st8" d="M91.4,314.2C91.4,314.2,91.4,314.3,91.4,314.2C91.4,314.3,91.4,314.2,91.4,314.2
									c-2.2,0.9-2,2.2-2.1,2.2v3.8h4.2v-3.8C93.5,316.4,93.6,315.1,91.4,314.2z"/>
							</g>
							<g>
								<path class="st8" d="M98.1,314.2C98.1,314.2,98.1,314.3,98.1,314.2C98.1,314.3,98.1,314.2,98.1,314.2
									c-2.2,0.9-2,2.2-2.1,2.2v3.8h4.2v-3.8C100.1,316.4,100.3,315.1,98.1,314.2z"/>
							</g>
							<g>
								<path class="st8" d="M71.5,314.2C71.5,314.2,71.5,314.3,71.5,314.2C71.5,314.3,71.5,314.2,71.5,314.2
									c-2.2,0.9-2,2.2-2.1,2.2v3.8h4.2v-3.8C73.5,316.4,73.7,315.1,71.5,314.2z"/>
							</g>
						</g>
						<g>
							<g>
								<g>
									<path class="st9" d="M45.3,308.5h58.9c0.2,0,0.3,0.2,0.3,0.3v0.2c0,0.2-0.1,0.3-0.3,0.3H45.3c-0.2,0-0.3-0.2-0.3-0.3v-0.2
										C45,308.7,45.2,308.5,45.3,308.5z"/>
								</g>
							</g>
							<g>
								<g>
									<path class="st10" d="M105.5,311.2c0,0.9-0.8,1.7-1.7,1.7H45.8c-0.9,0-1.7-0.8-1.7-1.7c0-0.9,0.8-1.7,1.7-1.7h58.1
										C104.8,309.5,105.5,310.2,105.5,311.2z"/>
								</g>
							</g>
						</g>
						<g>
							<g>
								<g>
									<path class="st9" d="M39,321.6h71.7c0.2,0,0.3,0.2,0.3,0.3v0.2c0,0.2-0.1,0.3-0.3,0.3H39c-0.2,0-0.3-0.2-0.3-0.3v-0.2
										C38.6,321.8,38.8,321.6,39,321.6z"/>
								</g>
							</g>
							<g>
								<g>
									<path class="st10" d="M111.9,324.3c0,0.9-0.8,1.7-1.7,1.7H39.4c-0.9,0-1.7-0.8-1.7-1.7c0-0.9,0.8-1.7,1.7-1.7h70.8
										C111.1,322.5,111.9,323.3,111.9,324.3z"/>
								</g>
							</g>
							<g>
								<rect x="39.8" y="326" class="st7" width="70" height="31.2"/>
							</g>
						</g>
						<g>
							<g>
								<g>
									<path class="st3" d="M89.2,330.4C89.2,330.4,89.2,330.4,89.2,330.4C89.2,330.4,89.1,330.4,89.2,330.4
										c-13.1,5.2-12,12.9-12.3,13.1v13.7h24.6v-13.7C101.2,343.2,102.3,335.6,89.2,330.4z"/>
								</g>
								<g>
									<path class="st8" d="M78.4,357.2v-13.5c0-0.2,0.1-0.3,0.1-0.5c0.4-4.7,4.1-8.5,10.7-11.2c6.7,2.8,10.3,6.5,10.7,11.2
										c0,0.2,0,0.3,0.1,0.5v13.5H78.4z"/>
								</g>
								<g>
									<path class="st11" d="M89.2,336.3c-6.7,2.8-10.3,6.5-10.7,11.2c0,0.2,0,0.3-0.1,0.5v9.2H100V348c0-0.2-0.1-0.3-0.1-0.5
										C99.5,342.8,95.9,339.1,89.2,336.3z"/>
								</g>
								<g>
									<path class="st8" d="M83.1,339.7c-2.8,2.2-4.3,4.8-4.6,7.8c0,0.2,0,0.3-0.1,0.5v9.2h4.7V339.7z"/>
								</g>
							</g>
						</g>
						<g>
							<g>
								<g>
									<path class="st11" d="M66.9,334.6C66.9,334.6,66.9,334.7,66.9,334.6C66.9,334.7,66.9,334.6,66.9,334.6
										c-3.4,1.4-3.1,3.4-3.2,3.4v6.5h6.4v-6.5C70,338,70.3,336,66.9,334.6z"/>
								</g>
								<g>
									<path class="st8" d="M70.1,338.5v-0.4c-0.1-0.1,0.2-2.1-3.2-3.4c-3.4,1.4-3.1,3.4-3.2,3.4v4.8L70.1,338.5z"/>
								</g>
								<g>
									<path class="st12" d="M63.5,338.1v6.5c0,0.1,0.1,0.2,0.2,0.2h6.4c0.1,0,0.2-0.1,0.2-0.2v-6.5c0,0,0-0.1,0-0.1
										c0,0,0,0,0-0.1c-0.1-1.5-1.3-2.7-3.3-3.5c0,0,0,0,0,0c0,0,0,0,0,0c0,0,0,0,0,0c0,0,0,0,0,0h0c0,0,0,0,0,0
										c-2.1,0.8-3.2,2-3.3,3.5C63.5,338,63.5,338,63.5,338.1C63.5,338,63.5,338,63.5,338.1z M63.9,338.1c0,0,0-0.1,0-0.1
										c0.1-1.3,1.1-2.3,3-3.1c1.8,0.7,2.8,1.8,3,3.1c0,0,0,0.1,0,0.1v6.3h-6V338.1z"/>
								</g>
							</g>
						</g>
						<g>
							<g>
								<g>
									<path class="st11" d="M50.9,334.6C50.9,334.6,50.9,334.7,50.9,334.6C50.9,334.7,50.8,334.6,50.9,334.6
										c-3.4,1.4-3.1,3.4-3.2,3.4v6.5h6.4v-6.5C54,338,54.3,336,50.9,334.6z"/>
								</g>
								<g>
									<path class="st8" d="M54.1,338.5v-0.4c-0.1-0.1,0.2-2.1-3.2-3.4c-3.4,1.4-3.1,3.4-3.2,3.4v4.8L54.1,338.5z"/>
								</g>
								<g>
									<path class="st12" d="M47.4,338.1v6.5c0,0.1,0,0.2,0.1,0.2c0,0,0.1,0,0.1,0h6.4c0.1,0,0.2-0.1,0.2-0.2v-6.5
										c0,0,0-0.1,0-0.1c0,0,0,0,0-0.1c0-0.5-0.2-0.9-0.4-1.3c-0.2-0.4-0.6-0.8-1-1.1c-0.3-0.3-0.7-0.5-1.2-0.7
										c-0.2-0.1-0.5-0.2-0.7-0.3c0,0-0.1,0-0.1,0c0,0,0,0,0,0c-0.1,0-0.2,0.1-0.3,0.1c-1.6,0.7-2.6,1.7-3,2.9
										c0,0.2-0.1,0.3-0.1,0.5C47.4,338,47.4,338,47.4,338.1C47.4,338,47.4,338,47.4,338.1z M47.9,338.1c0,0,0-0.1,0-0.1
										c0.1-1.2,1-2.2,2.6-2.9c0.1-0.1,0.2-0.1,0.4-0.2c0.3,0.1,0.6,0.2,0.8,0.4c0.5,0.2,0.9,0.5,1.2,0.8c0.6,0.5,0.9,1.2,1,1.9
										c0,0,0,0.1,0,0.1v6.3h-6V338.1z"/>
								</g>
							</g>
						</g>
					</g>
				</g>
			</g>
			<g id="XMLID_3_">
				<g>
					<g>
						<g>
							<g>
								<g>
									<ellipse class="st4" cx="5.4" cy="257.5" rx="1.7" ry="2.6"/>
								</g>
								<g>
									<polygon class="st4" points="5.7,259.9 5,259.9 5,252.4 5.4,248 5.7,252.4 									"/>
								</g>
								<g>
									<polygon class="st5" points="5.3,257.3 5.4,257.4 5.5,257.3 									"/>
									<path class="st5" d="M0,259.7v31.5h35.2c0-0.3,0-0.7,0-1.1c0-0.1,0-0.2,0-0.3c0-0.1,0-0.1,0-0.2
										c-0.6-12.1-8-22.8-19.1-27.7l-7.2-3.1L7,258.1l-0.9-0.4l-0.4-0.2l0,0l0,0l-0.3-0.1L5,257.5l0,0l0,0l-0.4,0.2h0l-0.9,0.4
										l-2.6,1.1L0,259.7z"/>
								</g>
								<g>
									<g>
										<path class="st4" d="M1.1,259.2c-0.4,0.3-0.8,0.5-1.1,0.7v0.7c1.3-0.7,2.6-1.4,3.8-2.1c0,0,0,0,0,0h0
											c0.4-0.2,0.7-0.4,1.1-0.6c0.1,0,0.2-0.1,0.3-0.2c0,0,0.1,0,0.1-0.1c0,0,0.1,0,0.1,0.1c0.1,0.1,0.2,0.1,0.3,0.2
											c0.4,0.2,0.7,0.4,1.1,0.6h0c0,0,0,0,0,0c3.8,2.1,7.9,4.1,11.1,7c6.5,6.1,9.7,15.2,10,24c0,0.5,0,1,0,1.5
											c0,0.4,0.7,0.4,0.7,0c0-0.5,0-1,0-1.5c-0.3-7.6-2.6-15.3-7.3-21.3c-3.2-4.1-7.3-6.5-11.7-9c-0.2-0.1-0.5-0.3-0.8-0.5
											c-0.5-0.3-1.1-0.8-1.7-1.1c-0.4-0.2-0.9-0.4-1.3-0.5c0,0,0,0,0,0c0-0.1-0.1-0.2-0.3-0.2c0,0,0,0,0,0H5.3c0,0,0,0,0,0
											c-0.1,0-0.2,0.1-0.3,0.2c-0.4,0.1-0.9,0.2-1.3,0.5C2.8,258.1,1.9,258.7,1.1,259.2z"/>
									</g>
								</g>
								<g>
									<g>
										<path class="st4" d="M1.9,261.7c-0.8,1.2-1.4,2.4-1.9,3.6v1.9c1-2.8,2.6-5.3,4.3-7.7c0.2-0.3,0.5-0.6,0.7-1
											c0.1-0.2,0.2-0.4,0.4-0.5c0.1,0.2,0.3,0.4,0.4,0.5c0.2,0.3,0.5,0.6,0.7,1c1.8,2.6,3.5,5.2,4.5,8.3c2.3,7,3,14.6,3.1,21.9
											c0,0.5,0,1,0,1.5c0,0.4,0.7,0.4,0.7,0c0-0.5,0-1,0-1.5c-0.1-7.4-0.8-15.1-3.2-22.1c-0.7-2.1-1.6-4.1-2.9-6
											c-0.3-0.5-1.1-1.9-1.8-2.9c0,0,0,0,0-0.1h0c-0.2-0.3-0.5-0.6-0.7-0.9c-0.1-0.2-0.3-0.3-0.4-0.4c0,0,0,0,0,0
											c0-0.2-0.1-0.3-0.3-0.4c0,0,0,0-0.1,0H5.3c0,0,0,0-0.1,0c-0.2,0-0.3,0.2-0.3,0.4c0,0,0,0,0,0c-0.1,0.1-0.3,0.2-0.4,0.4h0
											c-0.2,0.2-0.5,0.5-0.7,0.9h0c0,0,0,0,0,0C3.1,259.7,2.3,261.1,1.9,261.7z"/>
									</g>
								</g>
								<g>
									<path class="st6" d="M0,289.7v7.4h38.1v-5.2c-0.7-0.7-1.1-1.1-1.8-1.8c-0.1-0.1-0.2-0.2-0.4-0.4H0z"/>
								</g>
								<g>
									<path class="st4" d="M0,289.7v7.4h36.8v-5.3c-0.2-0.2-0.3-0.3-0.4-0.4c-0.4-0.4-0.8-0.8-1.2-1.2c0,0,0,0,0,0
										c-0.1-0.1-0.3-0.3-0.5-0.5H0z"/>
								</g>
							</g>
						</g>
					</g>
					<g>
						<g>
							<g>
								<rect y="301.9" class="st13" width="38.4" height="9.9"/>
							</g>
						</g>
					</g>
					<g>
						<g>
							<path class="st14" d="M16.7,303.4C16.7,303.4,16.7,303.4,16.7,303.4C16.7,303.4,16.7,303.4,16.7,303.4
								c-2.5,1-2.3,2.5-2.4,2.5v4.3h4.8v-4.3C19,305.9,19.2,304.4,16.7,303.4z"/>
						</g>
						<g>
							<path class="st14" d="M9.1,303.4C9.1,303.4,9.1,303.4,9.1,303.4C9.1,303.4,9.1,303.4,9.1,303.4c-2.5,1-2.3,2.5-2.4,2.5v4.3
								h4.8v-4.3C11.5,305.9,11.7,304.4,9.1,303.4z"/>
						</g>
						<g>
							<path class="st14" d="M24.2,303.4C24.3,303.4,24.2,303.4,24.2,303.4C24.2,303.4,24.2,303.4,24.2,303.4
								c-2.5,1-2.3,2.5-2.4,2.5v4.3h4.8v-4.3C26.6,305.9,26.8,304.4,24.2,303.4z"/>
						</g>
						<g>
							<path class="st14" d="M31.8,303.4C31.8,303.4,31.8,303.4,31.8,303.4C31.8,303.4,31.8,303.4,31.8,303.4
								c-2.5,1-2.3,2.5-2.4,2.5v4.3h4.8v-4.3C34.1,305.9,34.3,304.4,31.8,303.4z"/>
						</g>
						<g>
							<path class="st14" d="M0,304.3v5.9h4v-4.3c-0.1,0,0.2-1.5-2.4-2.5c0,0,0,0,0,0c0,0,0,0,0,0C0.8,303.7,0.3,304,0,304.3z"/>
						</g>
					</g>
					<g>
						<g>
							<g>
								<path class="st9" d="M0,296.9v1.1h38.8c0.2,0,0.4-0.2,0.4-0.4v-0.3c0-0.2-0.2-0.4-0.4-0.4H0z"/>
							</g>
						</g>
						<g>
							<g>
								<path class="st10" d="M0,298v3.9h38.3c1.1,0,1.9-0.9,1.9-1.9c0-1.1-0.9-2-1.9-2H0z"/>
							</g>
						</g>
					</g>
					<g>
						<g>
							<g>
								<path class="st9" d="M0,311.8v1.1h46.1c0.2,0,0.4-0.2,0.4-0.4v-0.3c0-0.2-0.2-0.4-0.4-0.4H0z"/>
							</g>
						</g>
						<g>
							<g>
								<path class="st10" d="M0,312.8v3.9h45.6c0.2,0,0.4,0,0.6-0.1c0.8-0.3,1.3-1,1.3-1.8c0-1-0.8-1.9-1.8-1.9c0,0-0.1,0-0.1,0H0z
									"/>
							</g>
						</g>
						<g>
							<rect y="316.7" class="st13" width="45.1" height="35.5"/>
						</g>
						<g>
							
								<rect x="45.1" y="316.7" transform="matrix(-1 -1.224647e-16 1.224647e-16 -1 92.6396 668.9288)" class="st13" width="2.4" height="35.5"/>
						</g>
						<g class="st15">
							<path class="st13" d="M0,319.8v32.4h25v-28.3c0-2.3-1.8-4.1-4.1-4.1H0z"/>
						</g>
					</g>
					<g>
						<g>
							<g>
								<path class="st3" d="M0,325.9v26.3h18.6v-14.8c-0.3-0.3,0.9-8.6-13.2-14.1c0,0,0,0,0,0c0,0,0,0,0,0
									C3.2,324.1,1.5,325,0,325.9z"/>
							</g>
							<g>
								<path class="st8" d="M0,327.8v24.4h17v-14.6c0-0.2-0.1-0.4-0.1-0.6C16.5,332,12.6,328,5.4,325C3.3,325.8,1.5,326.8,0,327.8z
									"/>
							</g>
							<g>
								<path class="st11" d="M0,332.4v19.8h17v-9.9c0-0.2-0.1-0.4-0.1-0.6c-0.5-5-4.4-9.1-11.6-12.1C3.3,330.5,1.5,331.4,0,332.4z"
									/>
							</g>
						</g>
					</g>
					<g>
						<g>
							<g>
								<g>
									<path class="st11" d="M34.3,327.2C34.3,327.3,34.3,327.3,34.3,327.2C34.3,327.3,34.3,327.3,34.3,327.2
										c-4.6,1.8-4.2,4.5-4.3,4.6v8.8h8.6v-8.8C38.5,331.8,38.9,329.1,34.3,327.2z"/>
								</g>
								<g>
									<path class="st8" d="M38.6,332.4v-0.6c-0.1-0.1,0.3-2.8-4.3-4.6c-4.6,1.8-4.2,4.5-4.3,4.6v6.4L38.6,332.4z"/>
								</g>
								<g>
									<path class="st12" d="M29.7,331.8v8.8c0,0.2,0.1,0.3,0.3,0.3h8.6c0.2,0,0.3-0.1,0.3-0.3v-8.8c0,0,0-0.1,0-0.1
										c0,0,0,0,0-0.1c-0.1-1.5-1-2.7-2.5-3.7c-0.4-0.2-0.8-0.5-1.2-0.7c-0.2-0.1-0.5-0.2-0.7-0.3c0,0-0.1,0-0.1,0
										c0,0-0.1,0-0.1,0c-0.1,0-0.1,0.1-0.2,0.1c-0.4,0.1-0.7,0.3-1,0.5c-2,1.1-3.1,2.4-3.3,4.2c0,0,0,0.1,0,0.1
										C29.7,331.8,29.7,331.8,29.7,331.8z M30.3,331.9c0-0.1,0-0.1,0-0.2c0.1-1.4,1-2.6,2.7-3.5c0.3-0.2,0.6-0.3,1-0.5
										c0.1,0,0.2-0.1,0.3-0.1c0.3,0.1,0.6,0.2,0.8,0.4c0.5,0.2,0.9,0.5,1.2,0.7c1.2,0.8,1.8,1.9,1.9,3c0,0.1,0,0.1,0,0.2v8.4h-8
										V331.9z"/>
								</g>
							</g>
						</g>
					</g>
				</g>
			</g>
		</g>
	</g>
	<g>
		<g>
			<path class="st16" d="M500,274.4V453L0,450.8V322.1c35.8,12.6,63.8,27.4,83.9,31.1c39.7,7.2,103.9,4.3,174.7-12.5
				c70.8-16.8,52.9-28.1,103.9-22.2C406.1,323.5,452.4,295.6,500,274.4z"/>
		</g>
	</g>
	<g>
		<g>
			<g id="XMLID_2_">
				<g>
					<g>
						<g>
							<g>
								<g>
									<path class="st4" d="M411.7,218.1c0,0.8,0.4,1.4,0.9,1.4c0.5,0,0.9-0.6,0.9-1.4c0-0.8-0.4-1.4-0.9-1.4
										C412.1,216.7,411.7,217.3,411.7,218.1z"/>
								</g>
								<g>
									<polygon class="st4" points="412.4,219.4 412.8,219.4 412.8,215.4 412.6,213 412.4,215.4 									"/>
								</g>
								<g>
									<path class="st5" d="M428.6,236.2L428.6,236.2c0-6.8-4-13-10.3-15.7l-5.8-2.5h0.1l-5.8,2.5c-6.2,2.7-10.3,8.9-10.3,15.7
										l0,0H428.6z"/>
								</g>
								<g>
									<g>
										<path class="st4" d="M425.1,236.2c0-4.4-1.3-8.9-4.1-12.4c-1.4-1.7-6-5.9-8.4-5.8c-2.5,0.1-7,4-8.4,5.8
											c-2.8,3.4-4.1,8-4.1,12.4c0,0.2,0.4,0.2,0.4,0c0-5.1,1.8-10.6,5.8-14c1.9-1.6,4.3-2.7,6.5-3.9c0.2-0.1,0.1-0.3-0.1-0.3
											c0,0-0.1,0-0.1,0c-0.2,0-0.2,0.2-0.1,0.3c7.2,4.1,12.3,8.9,12.3,18C424.7,236.4,425.1,236.4,425.1,236.2L425.1,236.2z"/>
									</g>
								</g>
								<g>
									<g>
										<path class="st4" d="M417.6,236.2c-0.1-4.3-0.3-8.8-1.8-12.9c-0.4-1-2-5.2-3.3-5.2c-1.1-0.1-3,4.4-3.3,5.2
											c-1.4,4.1-1.7,8.6-1.8,12.9c0,0.2,0.4,0.2,0.4,0c0.1-6.7,1-12.6,4.8-18.1c0.1-0.1,0-0.3-0.2-0.3c0,0,0,0,0,0
											c-0.1,0-0.2,0.2-0.2,0.3c3.9,5.5,4.8,11.4,4.8,18.1C417.2,236.4,417.6,236.4,417.6,236.2L417.6,236.2z"/>
									</g>
								</g>
								<g>
									<path class="st6" d="M430.1,239.3H395v-2.8c0.5-0.5,0.7-0.7,1.2-1.2H429c0.5,0.5,0.7,0.7,1.2,1.2V239.3z"/>
								</g>
								<g>
									<path class="st4" d="M429.4,239.3h-33.7v-2.8c0.4-0.4,0.7-0.7,1.1-1.1h31.5c0.4,0.4,0.7,0.7,1.1,1.1V239.3z"/>
								</g>
							</g>
						</g>
					</g>
					<g>
						
							<rect x="395.9" y="242.2" transform="matrix(-1 -1.224647e-16 1.224647e-16 -1 825.14 677.1087)" class="st13" width="33.3" height="192.8"/>
					</g>
					<g>
						
							<rect x="398.3" y="240.6" transform="matrix(-1 -1.224647e-16 1.224647e-16 -1 825.14 675.5707)" class="st17" width="28.5" height="194.3"/>
					</g>
					<g>
						<g>
							<path class="st10" d="M394.2,240.4c0,1,0.8,1.8,1.7,1.8h33.3c1,0,1.7-0.8,1.7-1.8c0-1-0.8-1.8-1.7-1.8h-33.3
								C394.9,238.6,394.2,239.4,394.2,240.4z"/>
						</g>
					</g>
					<g>
						
							<rect x="391.5" y="373.4" transform="matrix(-1 -1.224647e-16 1.224647e-16 -1 825.14 808.3611)" class="st13" width="42.1" height="61.5"/>
					</g>
					<g>
						
							<rect x="393.6" y="378" transform="matrix(-1 -1.224647e-16 1.224647e-16 -1 825.1401 812.9396)" class="st17" width="38" height="57"/>
					</g>
					<g>
						<g>
							<g>
								<path class="st11" d="M412.6,253.2C412.6,253.2,412.6,253.2,412.6,253.2C412.6,253.2,412.6,253.2,412.6,253.2
									c6,2.4,5.5,5.9,5.6,6v11.5h-11.3v-11.5C407.1,259.1,406.6,255.6,412.6,253.2z"/>
							</g>
							<g>
								<path class="st8" d="M406.9,260v-0.8c0.1-0.1-0.4-3.6,5.6-6c6,2.4,5.5,5.9,5.6,6v8.4L406.9,260z"/>
							</g>
							<g>
								<path class="st12" d="M418.6,259.1L418.6,259.1c-0.3-2.7-2.2-4.8-5.9-6.3c0,0,0,0-0.1,0c0,0-0.1,0-0.1,0c0,0-0.1,0-0.1,0
									c0,0,0,0-0.1,0c-3.6,1.4-5.6,3.5-5.9,6.2c0,0,0,0.1,0,0.1c0,0,0,0.1,0,0.1v11.5c0,0.2,0.2,0.4,0.4,0.4h11.3
									c0.2,0,0.4-0.2,0.4-0.4v-11.5C418.6,259.2,418.6,259.1,418.6,259.1z M417.8,270.3h-10.5v-11c0-0.1,0-0.1,0-0.2
									c0.2-2.3,2-4.1,5.2-5.4c3.2,1.3,5,3.1,5.2,5.4c0,0.1,0,0.2,0,0.2V270.3z"/>
							</g>
						</g>
					</g>
					<g>
						<g>
							<g>
								<path class="st11" d="M412.6,290.6C412.6,290.6,412.6,290.6,412.6,290.6C412.6,290.6,412.6,290.6,412.6,290.6
									c6,2.4,5.5,5.9,5.6,6v11.5h-11.3v-11.5C407.1,296.5,406.6,293,412.6,290.6z"/>
							</g>
							<g>
								<path class="st8" d="M406.9,297.4v-0.8c0.1-0.1-0.4-3.6,5.6-6c6,2.4,5.5,5.9,5.6,6v8.4L406.9,297.4z"/>
							</g>
							<g>
								<path class="st12" d="M418.6,296.5L418.6,296.5c-0.3-2.7-2.2-4.8-5.9-6.2c0,0-0.1,0-0.1,0c-0.1,0-0.1,0-0.1,0
									c-3.6,1.4-5.6,3.5-5.9,6.2c0,0,0,0.1,0,0.1c0,0.1,0,0.1,0,0.1v11.5c0,0.2,0.2,0.4,0.4,0.4h11.3c0.2,0,0.4-0.2,0.4-0.4v-11.5
									C418.6,296.6,418.6,296.5,418.6,296.5z M417.8,307.7h-10.5v-11c0-0.1,0-0.1,0-0.2c0.2-2.3,2-4.1,5.2-5.4
									c3.2,1.3,5,3.1,5.2,5.4c0,0.1,0,0.2,0,0.2V307.7z"/>
							</g>
						</g>
					</g>
					<g>
						<g>
							<g>
								<path class="st11" d="M412.6,328C412.6,328,412.6,328,412.6,328C412.6,328,412.6,328,412.6,328c6,2.4,5.5,5.9,5.6,6v11.5
									h-11.3v-11.5C407.1,333.9,406.6,330.4,412.6,328z"/>
							</g>
							<g>
								<path class="st8" d="M406.9,334.8v-0.8c0.1-0.1-0.4-3.6,5.6-6c6,2.4,5.5,5.9,5.6,6v8.4L406.9,334.8z"/>
							</g>
							<g>
								<path class="st12" d="M418.6,333.9L418.6,333.9c-0.1-1.4-0.7-2.6-1.7-3.6c-1-1-2.4-1.9-4.2-2.6c0,0-0.1,0-0.1,0
									c-0.1,0-0.1,0-0.1,0c-2.4,0.9-4,2.1-5,3.6c-0.5,0.8-0.8,1.7-0.9,2.6c0,0,0,0.1,0,0.1c0,0,0,0.1,0,0.1v11.5
									c0,0.1,0,0.2,0.1,0.2c0.1,0.1,0.2,0.2,0.3,0.2h11.3c0.2,0,0.4-0.2,0.4-0.4v-11.5C418.6,334,418.6,333.9,418.6,333.9z
									 M417.8,345.1h-10.5v-11c0-0.1,0-0.1,0-0.2c0-0.2,0.1-0.4,0.1-0.6c0.4-2,2.2-3.6,5.1-4.8c3.2,1.3,5,3.1,5.2,5.4
									c0,0.1,0,0.2,0,0.2V345.1z"/>
							</g>
						</g>
					</g>
				</g>
			</g>
		</g>
		<g>
			<g id="XMLID_5_">
				<g>
					<g>
						
							<rect x="348.7" y="261" transform="matrix(-1 -1.224647e-16 1.224647e-16 -1 698.5406 531.1349)" class="st3" width="1.2" height="9.1"/>
					</g>
					<g>
						<g>
							<g>
								<g>
									<path class="st4" d="M346.4,269.9c0,2.5,1.4,4.5,3,4.5s3-2,3-4.5s-1.4-4.5-3-4.5S346.4,267.4,346.4,269.9z"/>
								</g>
								<g>
									<polygon class="st4" points="348.7,274 350.1,274 350.1,261.1 349.4,253.3 348.7,261.1 									"/>
								</g>
								<g>
									<path class="st5" d="M402.2,328.7L402.2,328.7c0-22.1-13.4-42.2-34-50.9l-19-8.1h0.4l-19,8.1c-20.6,8.8-34,28.8-34,50.9
										l0,0H402.2z"/>
								</g>
								<g>
									<g>
										<path class="st4" d="M390.7,328.7c-0.2-15.6-5-31.6-15.9-43.1c-3.8-4-8.1-7-12.9-9.6c-2.4-1.3-4.8-2.7-7.2-4
											c-1.3-0.7-3.8-2.8-5.3-2.8c-1.4,0-3.6,1.8-4.8,2.5c-2.4,1.3-4.9,2.7-7.3,4c-4.7,2.6-9,5.4-12.8,9.2
											c-11.3,11.6-16.2,27.8-16.5,43.7c0,0.8,1.2,0.8,1.2,0c0.2-16.6,5.8-34,18.6-45.2c6.4-5.6,14.6-9.2,22-13.3
											c0.5-0.3,0.3-1.1-0.3-1.1c-0.1,0-0.2,0-0.3,0c-0.6,0-0.8,0.8-0.3,1.1c7.4,4.1,15.7,7.7,22,13.3
											c12.8,11.3,18.3,28.6,18.6,45.2C389.6,329.5,390.7,329.5,390.7,328.7L390.7,328.7z"/>
									</g>
								</g>
								<g>
									<g>
										<path class="st4" d="M366,328.7c-0.1-13.7-1.1-28-5.5-41c-1.2-3.7-2.8-7.2-5-10.4c-1.1-1.6-4.3-7.8-6.1-7.8
											c-1.8,0-4.9,6-6,7.6c-2.2,3.3-3.8,6.8-5.1,10.6c-4.4,13.1-5.5,27.3-5.5,41c0,0.8,1.2,0.8,1.2,0
											c0.1-13.6,1.1-27.7,5.5-40.7c2.3-6.9,6.3-12.2,10.5-18c0.3-0.4-0.1-0.9-0.5-0.9c0,0-0.1,0-0.1,0c-0.4,0-0.8,0.5-0.5,0.9
											c4.1,5.8,8.2,11.2,10.5,18c4.4,13,5.4,27.1,5.5,40.7C364.8,329.5,366,329.5,366,328.7L366,328.7z"/>
									</g>
								</g>
								<g>
									<path class="st6" d="M407.5,339H291.3v-9.1c1.5-1.5,2.3-2.3,3.8-3.8h108.6c1.5,1.5,2.3,2.3,3.8,3.8V339z"/>
								</g>
								<g>
									<path class="st4" d="M405.1,339H293.7v-9.2c1.4-1.4,2.3-2.3,3.7-3.7h104.1c1.4,1.4,2.3,2.3,3.7,3.7V339z"/>
								</g>
							</g>
						</g>
					</g>
					<g>
						<g>
							<g>
								<rect x="290.8" y="345.7" class="st7" width="117.2" height="17.5"/>
							</g>
						</g>
					</g>
					<g>
						<g>
							<path class="st8" d="M382.9,348.4C382.9,348.4,382.9,348.4,382.9,348.4C382.9,348.4,382.9,348.4,382.9,348.4
								c4.5,1.8,4.1,4.4,4.2,4.5v7.6h-8.4v-7.6C378.8,352.8,378.4,350.2,382.9,348.4z"/>
						</g>
						<g>
							<path class="st8" d="M396.3,348.4C396.3,348.4,396.3,348.4,396.3,348.4C396.3,348.4,396.3,348.4,396.3,348.4
								c4.5,1.8,4.1,4.4,4.2,4.5v7.6H392v-7.6C392.1,352.8,391.8,350.2,396.3,348.4z"/>
						</g>
						<g>
							<path class="st8" d="M329.3,348.4C329.3,348.4,329.3,348.4,329.3,348.4C329.3,348.4,329.3,348.4,329.3,348.4
								c4.5,1.8,4.1,4.4,4.2,4.5v7.6h-8.4v-7.6C325.2,352.8,324.8,350.2,329.3,348.4z"/>
						</g>
						<g>
							<path class="st8" d="M342.7,348.4C342.7,348.4,342.7,348.4,342.7,348.4C342.7,348.4,342.7,348.4,342.7,348.4
								c4.5,1.8,4.1,4.4,4.2,4.5v7.6h-8.4v-7.6C338.6,352.8,338.2,350.2,342.7,348.4z"/>
						</g>
						<g>
							<path class="st8" d="M369.5,348.4C369.5,348.4,369.5,348.4,369.5,348.4C369.5,348.4,369.5,348.4,369.5,348.4
								c4.5,1.8,4.1,4.4,4.2,4.5v7.6h-8.4v-7.6C365.4,352.8,365,350.2,369.5,348.4z"/>
						</g>
						<g>
							<path class="st8" d="M315.9,348.4C315.9,348.4,315.9,348.4,315.9,348.4C315.9,348.4,315.9,348.4,315.9,348.4
								c4.5,1.8,4.1,4.4,4.2,4.5v7.6h-8.4v-7.6C311.8,352.8,311.4,350.2,315.9,348.4z"/>
						</g>
						<g>
							<path class="st8" d="M302.5,348.4C302.5,348.4,302.5,348.4,302.5,348.4C302.5,348.4,302.5,348.4,302.5,348.4
								c4.5,1.8,4.1,4.4,4.2,4.5v7.6h-8.4v-7.6C298.4,352.8,298,350.2,302.5,348.4z"/>
						</g>
						<g>
							<path class="st8" d="M356.1,348.4C356.1,348.4,356.1,348.4,356.1,348.4C356.1,348.4,356.1,348.4,356.1,348.4
								c4.5,1.8,4.1,4.4,4.2,4.5v7.6h-8.4v-7.6C352,352.8,351.6,350.2,356.1,348.4z"/>
						</g>
					</g>
					<g>
						<g>
							<g>
								<path class="st9" d="M408.7,336.9H290.1c-0.4,0-0.7,0.3-0.7,0.7v0.5c0,0.4,0.3,0.7,0.7,0.7h118.6c0.4,0,0.7-0.3,0.7-0.7
									v-0.5C409.4,337.3,409.1,336.9,408.7,336.9z"/>
							</g>
						</g>
						<g>
							<g>
								<path class="st10" d="M287.5,342.3c0,1.9,1.5,3.5,3.4,3.5h116.9c1.9,0,3.4-1.5,3.4-3.5c0-1.9-1.5-3.5-3.4-3.5H290.9
									C289,338.8,287.5,340.4,287.5,342.3z"/>
							</g>
						</g>
					</g>
					<g>
						<g>
							<g>
								<path class="st9" d="M421.6,363.3H277.2c-0.4,0-0.7,0.3-0.7,0.7v0.5c0,0.4,0.3,0.7,0.7,0.7h144.3c0.4,0,0.7-0.3,0.7-0.7
									v-0.5C422.2,363.6,421.9,363.3,421.6,363.3z"/>
							</g>
						</g>
						<g>
							<g>
								<path class="st10" d="M274.6,368.6c0,1.9,1.5,3.5,3.4,3.5h142.7c1.9,0,3.4-1.5,3.4-3.5c0-1.9-1.5-3.5-3.4-3.5H278.1
									C276.2,365.1,274.6,366.7,274.6,368.6z"/>
							</g>
						</g>
						<g>
							
								<rect x="278.9" y="372" transform="matrix(-1 -1.224647e-16 1.224647e-16 -1 698.7867 806.9916)" class="st7" width="140.9" height="62.9"/>
						</g>
					</g>
					<g>
						<g>
							<g>
								<path class="st3" d="M320.4,380.9c-0.1,0-0.1,0.1,0,0.1C320.5,381,320.5,381,320.4,380.9c26.4,10.4,24.2,25.9,24.7,26.4V435
									h-49.5v-27.6C296.3,406.8,294,391.4,320.4,380.9z"/>
							</g>
							<g>
								<path class="st8" d="M342.1,435v-27.2c-0.1-0.3-0.1-0.7-0.1-1c-0.9-9.4-8.2-17-21.6-22.6c-13.4,5.6-20.7,13.2-21.6,22.6
									c0,0.3-0.1,0.7-0.1,1V435H342.1z"/>
							</g>
							<g>
								<path class="st11" d="M320.4,392.8c13.4,5.6,20.7,13.1,21.6,22.6c0,0.3,0.1,0.7,0.1,1V435h-43.5v-18.5
									c0.1-0.3,0.1-0.7,0.1-1C299.7,406,307,398.4,320.4,392.8z"/>
							</g>
							<g>
								<path class="st8" d="M332.7,399.8c5.6,4.4,8.7,9.7,9.3,15.6c0,0.3,0.1,0.7,0.1,1V435h-9.4V399.8z"/>
							</g>
						</g>
					</g>
					<g>
						<g>
							<g>
								<path class="st11" d="M365.3,389.5C365.2,389.5,365.2,389.5,365.3,389.5C365.3,389.5,365.3,389.5,365.3,389.5
									c6.9,2.7,6.3,6.8,6.5,6.9v13.2h-12.9v-13.2C358.9,396.3,358.4,392.2,365.3,389.5z"/>
							</g>
							<g>
								<path class="st8" d="M358.8,397.3v-0.9c0.2-0.1-0.4-4.2,6.5-6.9c6.9,2.7,6.3,6.8,6.5,6.9v9.6L358.8,397.3z"/>
							</g>
							<g>
								<path class="st12" d="M372.2,396.2c0,0,0-0.1,0-0.1c-0.3-3-2.5-5.4-6.7-7.1c0,0-0.1,0-0.1,0h0c0,0-0.1,0-0.1,0
									c0,0-0.1,0-0.1,0c0,0,0,0,0,0c0,0-0.1,0-0.1,0c-4.2,1.7-6.4,4-6.7,7.1c0,0,0,0.1,0,0.1c0,0.1,0,0.1,0,0.2v13.2
									c0,0.3,0.2,0.5,0.5,0.5h12.9c0.3,0,0.5-0.2,0.5-0.5v-13.2C372.2,396.4,372.2,396.3,372.2,396.2z M371.3,409.1h-12v-12.6
									c0-0.1,0-0.2,0-0.3c0.2-2.6,2.3-4.7,6-6.2c3.7,1.5,5.7,3.6,6,6.2c0,0.1,0,0.2,0,0.3V409.1z"/>
							</g>
						</g>
					</g>
					<g>
						<g>
							<g>
								<path class="st11" d="M397.6,389.5C397.6,389.5,397.6,389.5,397.6,389.5C397.6,389.5,397.6,389.5,397.6,389.5
									c6.9,2.7,6.3,6.8,6.5,6.9v13.2h-12.9v-13.2C391.3,396.3,390.7,392.2,397.6,389.5z"/>
							</g>
							<g>
								<path class="st8" d="M391.1,397.3v-0.9c0.2-0.1-0.4-4.2,6.5-6.9c6.9,2.7,6.3,6.8,6.5,6.9v9.6L391.1,397.3z"/>
							</g>
							<g>
								<path class="st12" d="M404.5,396.2c0,0,0-0.1,0-0.1c0-0.4-0.1-0.7-0.2-1.1c-0.6-2.4-2.6-4.3-5.9-5.8
									c-0.2-0.1-0.4-0.2-0.6-0.2c0,0-0.1,0-0.1,0c-0.1,0-0.2,0-0.3,0c-0.5,0.2-1,0.4-1.5,0.7c-0.9,0.5-1.7,0.9-2.4,1.5
									c-0.9,0.7-1.5,1.5-2,2.3c-0.5,0.8-0.8,1.7-0.8,2.6c0,0,0,0.1,0,0.1c0,0.1,0,0.1,0,0.2v13.2c0,0.3,0.2,0.5,0.5,0.5H404
									c0.1,0,0.2,0,0.2-0.1c0.1-0.1,0.2-0.2,0.2-0.4v-13.2C404.5,396.4,404.5,396.3,404.5,396.2z M403.6,409.1h-12v-12.6
									c0-0.1,0-0.2,0-0.3c0.1-1.4,0.8-2.7,1.9-3.8c0.6-0.6,1.4-1.2,2.4-1.7c0.5-0.3,1.1-0.5,1.7-0.8c0.3,0.1,0.5,0.2,0.8,0.3
									c3.2,1.5,5,3.5,5.2,5.9c0,0.1,0,0.2,0,0.3V409.1z"/>
							</g>
						</g>
					</g>
				</g>
			</g>
		</g>
		<g id="XMLID_1_">
			<g>
				<g>
					<g>
						<g>
							<g>
								<path class="st4" d="M485.8,244.2c0,2.8,1.5,5.2,3.5,5.2c1.9,0,3.5-2.3,3.5-5.2c0-2.8-1.5-5.2-3.5-5.2
									C487.3,239,485.8,241.3,485.8,244.2z"/>
							</g>
							<g>
								<polygon class="st4" points="488.5,248.9 490,248.9 490,234 489.2,225 488.5,234 								"/>
							</g>
							<g>
								<polygon class="st5" points="489.4,243.9 489.2,244 489,243.9 								"/>
								<path class="st5" d="M500,248.7V312h-70.8c0-0.7,0-1.4,0-2.1c0-0.2,0-0.3,0-0.5c0-0.1,0-0.3,0-0.4c1.2-24.3,16-46,38.6-55.7
									l14.6-6.3l3.5-1.5l1.7-0.8l0.8-0.4l0.1,0l0.1,0l0.6-0.3l0.6,0.3l0.1,0l0.1,0l0.8,0.4h0l1.7,0.7l5.2,2.2L500,248.7z"/>
							</g>
							<g>
								<g>
									<path class="st4" d="M497.7,247.7c0.8,0.5,1.5,1,2.3,1.5v1.4c-2.6-1.4-5.2-2.8-7.7-4.1c0,0,0,0-0.1,0h0
										c-0.8-0.4-1.5-0.8-2.2-1.2c-0.2-0.1-0.4-0.2-0.6-0.3c-0.1,0-0.1-0.1-0.2-0.1c-0.1,0-0.1,0.1-0.2,0.1
										c-0.2,0.1-0.4,0.2-0.6,0.3c-0.7,0.4-1.5,0.8-2.2,1.2h0c0,0-0.1,0-0.1,0.1c-7.7,4.1-15.9,8.2-22.3,14.1
										c-13.2,12.3-19.6,30.6-20.2,48.4c0,1-0.1,2-0.1,3c0,0.9-1.4,0.9-1.4,0c0-1,0-2,0.1-3c0.6-15.3,5.3-30.8,14.8-42.9
										c6.4-8.3,14.7-13.1,23.6-18.1c0.5-0.3,1-0.6,1.7-1c1.1-0.7,2.3-1.5,3.4-2.2c0.9-0.5,1.8-0.9,2.6-1.1c0,0,0,0,0,0
										c0.1-0.2,0.3-0.4,0.6-0.4c0,0,0,0,0,0h0.3c0,0,0,0,0,0c0.3,0,0.5,0.2,0.6,0.4c0.8,0.2,1.7,0.5,2.7,0.9
										C494.3,245.4,496.1,246.6,497.7,247.7z"/>
								</g>
							</g>
							<g>
								<g>
									<path class="st4" d="M496.1,252.6c1.6,2.3,2.8,4.8,3.9,7.3v3.7c-2.1-5.7-5.2-10.6-8.6-15.5c-0.5-0.6-0.9-1.3-1.4-1.9
										c-0.3-0.4-0.5-0.7-0.8-1.1c-0.3,0.4-0.5,0.7-0.8,1.1c-0.5,0.6-0.9,1.3-1.4,1.9c-3.6,5.2-7,10.4-9.1,16.6
										c-4.7,14.1-6.1,29.3-6.3,44.2c0,1,0,2,0,3c0,0.9-1.4,0.9-1.4,0c0-1,0-2,0-3c0.2-14.9,1.6-30.3,6.3-44.5
										c1.4-4.3,3.2-8.3,5.8-12.1c0.7-1,2.1-3.7,3.7-5.9c0,0,0.1-0.1,0.1-0.1h0c0.5-0.7,0.9-1.3,1.4-1.7c0.3-0.3,0.6-0.5,0.8-0.7
										c0,0,0,0,0,0c0-0.3,0.2-0.6,0.5-0.7c0,0,0.1,0,0.1,0h0.1c0,0,0.1,0,0.1,0c0.3,0.1,0.6,0.4,0.5,0.7c0,0,0,0,0,0
										c0.3,0.2,0.6,0.4,0.8,0.7h0c0.4,0.5,0.9,1.1,1.4,1.7h0c0,0,0,0.1,0.1,0.1C493.8,248.7,495.4,251.6,496.1,252.6z"/>
								</g>
							</g>
							<g>
								<path class="st6" d="M500,309v14.9h-76.8v-10.6c1.4-1.4,2.3-2.3,3.6-3.6c0.3-0.2,0.5-0.5,0.8-0.8H500z"/>
							</g>
							<g>
								<path class="st4" d="M500,309v14.9h-74.1v-10.6c0.3-0.3,0.6-0.6,0.9-0.9c0.9-0.9,1.5-1.6,2.4-2.4c0,0,0,0,0,0
									c0.3-0.3,0.6-0.6,0.9-0.9H500z"/>
							</g>
						</g>
					</g>
				</g>
				<g>
					<g>
						<g>
							<rect x="422.7" y="333.6" class="st13" width="77.3" height="19.9"/>
						</g>
					</g>
				</g>
				<g>
					<g>
						<path class="st14" d="M466.4,336.6C466.4,336.6,466.4,336.6,466.4,336.6C466.4,336.6,466.4,336.6,466.4,336.6
							c5.1,2,4.7,5,4.8,5.1v8.7h-9.6v-8.7C461.7,341.6,461.3,338.7,466.4,336.6z"/>
					</g>
					<g>
						<path class="st14" d="M481.6,336.6C481.6,336.6,481.6,336.6,481.6,336.6C481.6,336.6,481.6,336.6,481.6,336.6
							c5.1,2,4.7,5,4.8,5.1v8.7h-9.6v-8.7C476.9,341.6,476.5,338.7,481.6,336.6z"/>
					</g>
					<g>
						<path class="st14" d="M451.2,336.6C451.2,336.6,451.2,336.6,451.2,336.6C451.2,336.6,451.2,336.6,451.2,336.6
							c5.1,2,4.7,5,4.8,5.1v8.7h-9.6v-8.7C446.5,341.6,446.1,338.7,451.2,336.6z"/>
					</g>
					<g>
						<path class="st14" d="M436,336.6C435.9,336.6,435.9,336.6,436,336.6C436,336.6,436,336.6,436,336.6c5.1,2,4.7,5,4.8,5.1v8.7
							h-9.6v-8.7C431.3,341.6,430.8,338.7,436,336.6z"/>
					</g>
					<g>
						<path class="st14" d="M500,338.5v11.9h-8v-8.7c0.1-0.1-0.3-3.1,4.8-5.1c0,0,0,0,0,0c0,0,0,0,0,0
							C498.3,337.2,499.3,337.9,500,338.5z"/>
					</g>
				</g>
				<g>
					<g>
						<g>
							<path class="st9" d="M500,323.6v2.1h-78.2c-0.4,0-0.7-0.4-0.7-0.8v-0.6c0-0.4,0.3-0.8,0.7-0.8H500z"/>
						</g>
					</g>
					<g>
						<g>
							<path class="st10" d="M500,325.7v7.9h-77.2c-2.1,0-3.9-1.8-3.9-3.9c0-2.2,1.7-3.9,3.9-3.9H500z"/>
						</g>
					</g>
				</g>
				<g>
					<g>
						<g>
							<path class="st9" d="M500,353.5v2.1h-92.8c-0.4,0-0.8-0.4-0.8-0.8v-0.6c0-0.4,0.3-0.8,0.8-0.8H500z"/>
						</g>
					</g>
					<g>
						<g>
							<path class="st10" d="M500,355.6v7.9h-91.8c-0.4,0-0.8-0.1-1.2-0.2c-1.5-0.5-2.6-2-2.6-3.7c0-2.1,1.6-3.8,3.7-3.9
								c0.1,0,0.1,0,0.2,0H500z"/>
						</g>
					</g>
					<g>
						<rect x="409.1" y="363.5" class="st13" width="90.9" height="71.5"/>
					</g>
					<g>
						<rect x="404.3" y="363.5" class="st13" width="4.9" height="71.5"/>
					</g>
					<g class="st15">
						<path class="st13" d="M500,369.7v65.2h-50.4v-57c0-4.5,3.7-8.2,8.2-8.2H500z"/>
					</g>
				</g>
				<g>
					<g>
						<g>
							<path class="st3" d="M500,382v53h-37.5v-29.8c0.6-0.6-1.8-17.2,26.7-28.5c0,0,0,0.1,0,0.1c0.1,0,0.1-0.1,0-0.1
								C493.5,378.4,497,380.1,500,382z"/>
						</g>
						<g>
							<path class="st8" d="M500,385.8v49.1h-34.2v-29.3c0.1-0.4,0.1-0.8,0.1-1.1c1-10.2,8.8-18.4,23.3-24.4
								C493.4,381.9,497,383.8,500,385.8z"/>
						</g>
						<g>
							<path class="st11" d="M500,395.1v39.8h-34.2v-20c0.1-0.4,0.1-0.8,0.1-1.1c1-10.2,8.8-18.4,23.3-24.4
								C493.4,391.2,497,393.1,500,395.1z"/>
						</g>
					</g>
				</g>
				<g>
					<g>
						<g>
							<g>
								<path class="st11" d="M430.9,384.7C430.9,384.7,430.9,384.7,430.9,384.7C431,384.7,431,384.7,430.9,384.7
									c9.3,3.7,8.5,9.1,8.7,9.3v17.7h-17.4v-17.7C422.5,393.8,421.7,388.3,430.9,384.7z"/>
							</g>
							<g>
								<path class="st8" d="M422.3,395.1v-1.2c0.2-0.2-0.6-5.6,8.7-9.3c9.3,3.7,8.5,9.1,8.7,9.3v12.9L422.3,395.1z"/>
							</g>
							<g>
								<path class="st12" d="M440.2,393.7c0,0,0-0.1,0-0.1c-0.3-3.4-2.5-6.3-6.6-8.4c-0.6-0.3-1.3-0.6-2-0.9
									c-0.1-0.1-0.3-0.1-0.4-0.2c-0.1,0-0.2,0-0.2,0c-0.1,0-0.2,0-0.2,0c-0.5,0.2-1,0.4-1.5,0.6c-0.9,0.4-1.7,0.8-2.4,1.3
									c-3.1,2-4.8,4.5-5.1,7.5c0,0.1,0,0.1,0,0.1c0,0.1,0,0.1,0,0.2v17.7c0,0.3,0.3,0.6,0.6,0.6h17.3c0.3,0,0.6-0.3,0.6-0.6v-17.7
									C440.2,393.9,440.2,393.8,440.2,393.7z M439,411h-16.1V394c0-0.1,0-0.2,0.1-0.4c0.2-2.4,1.5-4.4,3.9-6.1
									c0.7-0.5,1.5-1,2.4-1.5c0.5-0.3,1.1-0.5,1.7-0.8c0.2,0.1,0.4,0.2,0.6,0.3c0.7,0.3,1.4,0.6,2,1c3.3,1.9,5.1,4.2,5.3,7.1
									c0,0.1,0,0.3,0.1,0.4V411z"/>
							</g>
						</g>
					</g>
				</g>
			</g>
		</g>
		<g>
			<rect x="252.7" y="431.2" class="st7" width="247.3" height="4.3"/>
		</g>
	</g>
	<g>
		<path class="st18" d="M500,417.5V500H0V378.7c30.7,5.8,64.8,14.4,102.2,26.8c7.2,2.4,14.4,4.6,21.5,6.6c0.1,0,0.2,0.1,0.4,0.1
			c3.3,0.9,6.5,1.8,9.8,2.7c0.7,0.2,1.4,0.4,2.1,0.5c0.5,0.1,1,0.3,1.5,0.4c2.5,0.6,5,1.2,7.5,1.8c1.8,0.4,3.6,0.9,5.4,1.2
			c2.2,0.5,4.4,1,6.5,1.5c3.5,0.8,7,1.5,10.5,2.1c4.2,0.8,8.4,1.6,12.6,2.3c2.4,0.4,4.7,0.8,7.1,1.1c2.3,0.4,4.6,0.7,6.9,1
			c1.8,0.2,3.6,0.5,5.3,0.7c0.4,0.1,0.8,0.1,1.2,0.2c0.1,0,0.1,0,0.2,0c1.8,0.2,3.6,0.5,5.4,0.7c1,0.1,2,0.2,3,0.3
			c1.2,0.1,2.4,0.3,3.6,0.4c3.6,0.4,7.2,0.7,10.8,1c1.8,0.1,3.5,0.3,5.3,0.4c0.1,0,0.2,0,0.3,0c6.8,0.5,13.5,0.9,20.2,1.2
			c7.5,0.3,14.9,0.5,22.2,0.5c1.6,0,3.3,0,4.9,0c11.1,0,22.1-0.3,32.8-0.8c6.2-0.3,12.3-0.6,18.4-1c8.6-0.6,17-1.2,25.3-2
			c0.7-0.1,1.4-0.1,2.1-0.2C409.4,423.6,458,416.2,500,417.5z"/>
		<g class="st19">
			<path class="st20" d="M189.6,464.8c0,0.8-1.4,1.4-3.1,1.4s-3.1-0.6-3.1-1.4c0-0.8,1.4-1.4,3.1-1.4S189.6,464.1,189.6,464.8z"/>
			<path class="st20" d="M23.1,439c0,0.8-1.4,1.4-3.1,1.4s-3.1-0.6-3.1-1.4c0-0.8,1.4-1.4,3.1-1.4S23.1,438.2,23.1,439z"/>
			<path class="st20" d="M442.4,450.2c0,0.8-1.4,1.4-3.1,1.4s-3.1-0.6-3.1-1.4c0-0.8,1.4-1.4,3.1-1.4S442.4,449.5,442.4,450.2z"/>
			<path class="st20" d="M384.4,457.5c0,0.8-1.4,1.4-3.1,1.4c-1.7,0-3.1-0.6-3.1-1.4c0-0.8,1.4-1.4,3.1-1.4
				C383,456.1,384.4,456.8,384.4,457.5z"/>
			<ellipse class="st20" cx="449.8" cy="425.6" rx="3.1" ry="1.4"/>
			<path class="st20" d="M374.7,486.6c0,0.8-1.4,1.4-3.1,1.4s-3.1-0.6-3.1-1.4c0-0.8,1.4-1.4,3.1-1.4S374.7,485.8,374.7,486.6z"/>
			<path class="st20" d="M406.2,436.1c0,0.8-1.4,1.4-3.1,1.4c-1.7,0-3.1-0.6-3.1-1.4c0-0.8,1.4-1.4,3.1-1.4
				C404.9,434.7,406.2,435.3,406.2,436.1z"/>
			<ellipse class="st20" cx="63.6" cy="411.1" rx="3.1" ry="1.4"/>
			<ellipse class="st20" cx="9.2" cy="409.1" rx="3.1" ry="1.4"/>
			<ellipse class="st20" cx="488.8" cy="430.7" rx="3.1" ry="1.4"/>
		</g>
	</g>
	<g>
		<g>
			<path class="st21" d="M217,481.8c0,10.1-45,18.2-100.5,18.2c-37.5,0-70.2-3.7-87.5-9.2v-17.9c3-1,6.4-1.9,10.3-2.7
				c0,0,0.1,0,0.1,0l0,0c2.3-0.5,4.7-1,7.2-1.4c18.1-3.2,42.7-5.1,69.9-5.1c0.7,0,1.4,0,2.1,0c3,0,5.9,0,8.8,0.1c0.1,0,0.2,0,0.4,0
				c2.3,0.1,4.5,0.1,6.7,0.2c2.2,0.1,4.4,0.2,6.5,0.3c2.8,0.1,5.5,0.3,8.1,0.4c18,1.1,33.6,3.1,45.4,5.8c0.2,0,0.5,0.1,0.7,0.2
				C208.9,473.6,217,477.5,217,481.8z"/>
		</g>
		<g>
			<g>
				<g>
					<g>
						<g>
							<g>
								<g>
									<path class="st22" d="M70,435.9c0,0,7-27.5,14.3-41c23.3-0.8,0,37.9,0,37.9L70,435.9z"/>
								</g>
								<g>
									<path class="st23" d="M59.5,383.5c0,0-7.1,6.1-5.8,27.2c1.3,21.1,19.5,27.5,24.6,17.2c5-10.3,3.2-34.1,14.5-39.9
										c11.4-5.8,10.6,8.2,23.8,7.9c13.2-0.3,21.4-16.4,33.8-8.4c12.4,7.9,10.6,18,17.7,27.3c7.1,9.4,20.1,27,13.2,45.5
										c-6.9,18.5-4.2,18.7-19,21.1c-14.8,2.4-95.7,1.6-108.7,1.6c-13,0-30.9,3.7-32.2-7.1C19.9,465.1,36.5,450,36.5,450
										s-15-25.6-7.9-50.4c7.1-24.8,4.3-33.1-4.5-34.5s-9.5,4-12.8,0c-3.3-4,3-6.3,3-6.3C9.1,358,9,350.7,14.9,348
										c6-2.6,14.6,1.4,18.1,3.3c3.5,1.9,9.2,2.9,16.9,1.1c7.7-1.8,19.1,3.1,18.1,14.3C67.3,375.6,62.8,378.6,59.5,383.5z"/>
								</g>
								<g>
									<path class="st24" d="M60.6,384c0,0-6.1,9.9-5.7,25.3c0.5,21.2,19.4,23,24.4,12.7c5-10.3,2-28.2,13.4-34
										c11.4-5.8,10.6,8.2,23.8,7.9c13.2-0.3,21.4-16.4,33.8-8.4c12.4,7.9,10.6,18,17.7,27.3c7.1,9.4,20.1,27,13.2,45.5
										c-6.9,18.5-4.2,18.7-19,21.1c-14.8,2.4-95.7,1.6-108.7,1.6c-13,0-30.9,3.7-32.2-7.1c-1.3-10.8,24.9-25.7,24.9-25.7
										s-20-26-12.9-50.8c7.1-24.8-0.4-32.8-9.2-34.2s-9.5,4-12.8,0c-3.3-4,3-6.3,3-6.3C9.1,358,9,350.7,14.9,348
										c6-2.6,14.6,1.4,18.1,3.3c3.5,1.9,9.2,2.9,16.9,1.1c7.7-1.8,18.2,2.5,18.6,13.7C68.7,372.2,63.9,379.1,60.6,384z"/>
								</g>
								<g>
									<path class="st25" d="M83.2,405.7c0-10.1,3.3-14.1,9.5-17.7c11-6.4,10.6,8.2,23.8,7.9c13.2-0.3,21.4-16.4,33.8-8.4
										c12.4,7.9,10.6,18,17.7,27.3c7.1,9.4,20.1,27,13.2,45.5c-6.9,18.5-4.2,18.7-19,21.1c-11.1,1.8-59.8,1.8-88.7,1.7
										c4-5.4,7.1-11.5,8.8-18.1C87.4,450.2,94.3,410.5,83.2,405.7z"/>
								</g>
								<g>
									<path class="st26" d="M12.5,354.5c0,0,1.5-1.1,3.7-3.4c2.2-2.3,3.1-0.9,2.9,0.9C18.8,353.9,12.5,354.5,12.5,354.5z"/>
								</g>
								<g>
									<path class="st24" d="M59.5,358.9c0,0,10.7-4.8,15.8-0.6c5.1,4.1-2.7,8.2-14.7,4.7C59.1,361.6,59.5,358.9,59.5,358.9z"/>
								</g>
							</g>
							<g>
								<path class="st26" d="M64.8,360.5c0,0,5-2.3,8.2-1.2c3.2,1.1,3.3,3.7-0.9,3.8C68,363.1,64.8,360.5,64.8,360.5z"/>
							</g>
							<g>
								<path class="st25" d="M35.3,371.8c0,0,2.6,8.3,14,5.2c11.3-3,12.5-9,12.5-9s-0.1,7.6-11.3,10.9
									C39.4,382.2,35.4,374.9,35.3,371.8z"/>
							</g>
							<g>
								<path class="st26" d="M52,361.5c0,0-4.2,0.4-5.8-3.7c-2,0.7-3-0.3-3-0.3S45.7,363.6,52,361.5z"/>
							</g>
							<g>
								<path class="st25" d="M14.2,358.8c0,0,9.1-1.1,15,0.9c5.9,2,2.3,5.2-0.3,2.7C26.3,359.9,20.5,358.6,14.2,358.8z"/>
							</g>
							<g>
								<path class="st25" d="M74.7,451.2c0,0,3.3,9.3-6.8,13.4c-10.2,4.1-23.2,3.6-27.7,5.2c-4.5,1.5-5.3,5,1.9,3.9
									c7.2-1.2,33.5-4,51.8,0.2c-6.7-5.3-35.8-4.4-35.8-4.4C78.6,467.5,84.1,459.3,74.7,451.2z"/>
							</g>
						</g>
						<g>
							<path class="st27" d="M86.6,394.8c0,0,10.7,7.1,10.2,30.8c-0.5,23.7-13.9,56-12.3,59.8c1.5,3.9,26.1,2.1,40.8,2.1
								c14.7,0,30.9-0.1,41.2-2.3c18.8-4,13.4-55.9,4.9-71.4c-8.5-15.5-10.6-22.9-13.9-27.2s-11.3-8.1-21.9-1.9
								c-10.6,6.2-17.4,11.6-25.6,5C101.7,383.1,89.2,380.4,86.6,394.8z"/>
						</g>
						<g>
							<path class="st28" d="M86.6,394.8c0,0,10.7,7.1,10.2,30.8c-0.5,23.7-13.9,56-12.3,59.8c1.5,3.9,26.1,2.1,40.8,2.1
								c14.7,0,30.9-0.1,41.2-2.3c18.8-4,13.4-55.9,4.9-71.4c-8.5-15.5-10.6-22.9-13.9-27.2s-6.6,3-17.2,9.1
								c-10.6,6.2-25.3,2-33.5-4.5C98.5,384.7,89.2,380.4,86.6,394.8z"/>
						</g>
					</g>
					<g>
						<path class="st29" d="M95.6,425.6c-0.1-29.5-11.3-30.8-11.3-30.8c0.3-1.5,1.6-3.1,3.4-4c0.2,0,10,2.3,14.4,24.5
							c4.5,22.5-4.3,50.8-6.2,56.6c-1.9,5.8,0,7.4,12,7c12-0.3,45.3,1.7,55.1-1.7c9.8-3.4,10.3-23.2,9.1-34.7
							c-1.2-11.5-2.4-21.1-8.4-35.3c-5.5-12.9-9.2-22.8-17.6-25.9c5.2,0,10.1,1.9,12.2,4.5c3.3,4.3,6.7,7,14.7,26.6
							c6.7,16.3,12.2,68.5-6.6,72.6c-10.3,2.2-26.5,2.3-41.2,2.3c-14.7,0-39.3,1.8-40.8-2.1C82.9,481.6,95.7,449.4,95.6,425.6z"/>
					</g>
				</g>
			</g>
		</g>
	</g>
	<g>
		<g>
			<path class="st20" d="M389.4,500H500v-52.1c-3.6-1.5-7.5-2.1-11.5-1.5c-9.7,1.5-17.2,9.6-18,19.5c-2.3-5.6-8.3-8.6-14.1-7.3
				c-5.4,1.2-9.3,6.1-9.4,11.8c-8.2-6.9-19.8-8-28.9-2.7c-8.7,5.1-13.6,15-12.2,25.2c-4-3.6-9.9-3.7-13.4-0.6
				C390.3,494.3,389.2,497.3,389.4,500z"/>
		</g>
		<g>
			<path class="st20" d="M0,430v70h132.2c-0.4-1.6-1.3-3-2.6-3.9c-2.4-1.8-6.1-1.7-9.1,0.1c-0.1-8.5-5.1-16.2-12.7-19.5
				c-8.3-3.6-18.2-1.4-24.4,5.6c-3.4-8.7-11.1-14-18.4-13.2c-5.2,0.5-8.7,4-10,5.4c3.6-12.2-1.8-24.7-11.9-29.6
				c-7.8-3.8-17.5-2.5-24.9,3.2c0.5-3-1.2-6-3.9-7.1c-2.9-1.2-6.4-0.2-8.1,2.5C5.8,438,3.4,433.3,0,430z"/>
		</g>
	</g>
	<g>
		<g>
			<g>
				<g>
					<g>
						<path class="st30" d="M218.8,342.2c0,0-25.8,1.9-51,92.4c-13.7-20.8-27.4-35.7-27.4-35.7L128,409.6c0,0,2.9,49.7,29.8,69.3
							c7.6,5.5,19.2,4.9,25.9-1.3c10.7-9.9,29-28.7,33.6-88L218.8,342.2z"/>
					</g>
					<g>
						<g>
							<g>
								<path class="st31" d="M161,383.6c0,0,7,1.2,10.7-7.3c3.7-8.4-21.4,1.8-21.4,1.8L161,383.6z"/>
							</g>
						</g>
						<g>
							<g>
								<path class="st32" d="M135.9,420.9c2.1-0.3,4.1-1.4,5.9-3.1l1.4-1.4c2.3,1.7,10,9.6,11.3,5.1c1.4-4.9-7.9-15.4-7.9-15.2
									c0-0.2,15.2,12.5,17,8.7c1.8-4.2-7.2-14.6-10.9-17.5c5,2.9,16.6,11.8,17.8,6.9c1-4.9-11.3-14.9-15.1-16.5
									c3.9,1.4,21.2,11.6,23,7.6c1.2-2.8-7.8-16-23.2-19.5c-5.2-0.8-9.2,1.5-12.2,5.2c0,0,0,0,0,0l-10,13.3
									c-4.9,6.5-7.4,21-1.1,25.1C133,420.4,134.4,420.9,135.9,420.9z"/>
							</g>
						</g>
					</g>
					<g>
						<path class="st5" d="M183.7,477.7C183.7,477.7,183.7,477.7,183.7,477.7c10.7-9.9,29-28.7,33.7-88l1.4-47.5
							c0,0-25.8,1.9-51,92.4C167.8,434.6,185,447.5,183.7,477.7z"/>
					</g>
				</g>
				<g>
					<g>
						<g>
							<path class="st26" d="M320,238.9c0.4-1.9,1-3.9-1-6c-29.1-18.6-21.3-15.9-63.5-15.6c-15.9,0.1-33.2,0-48.5,5
								c-11.7,3.8-19.5,14.1-31.3,17.5c-5.3,6.5,15.3,39.6,15.1,40c9.9,6.5,4.6-2.7,15.8-3c19.4-0.5,62.4-7.1,95.4-23.1
								c7.4-3.6,9.3,14.7,15.1,9.8C316.4,262.7,320.6,239.7,320,238.9z"/>
						</g>
					</g>
					<g>
						<g>
							<path class="st33" d="M334.9,500H195.2c0.9-8.6,2.2-21.5,3.7-36c0-0.1,0-0.1,0-0.2c0.1-1.1,0.2-2.3,0.4-3.5
								c0.1-0.6,0.1-1.1,0.2-1.7c0-0.2,0-0.3,0-0.5c0.6-6.1,1.3-12.5,2-19c0.3-2.5,0.5-5.1,0.8-7.7c0-0.1,0-0.1,0-0.2
								c0-0.1,0-0.3,0-0.4c0.3-2.8,0.6-5.6,0.9-8.4c0.5-4.5,1-8.9,1.4-13.3c3.5-32.1,6.9-59.7,8.1-61.3c1.5-2,3.5-3.9,5.9-5.7
								c2.5-1.9,5.5-3.6,9-5c0.4-0.2,0.8-0.3,1.2-0.5c5-2,11-3.4,17.7-3.9c2.5-0.2,5.1-0.3,7.8-0.2c3.9,0.1,7.9,0.5,12.2,1.2
								c3.1,0.5,6.4,1.2,9.7,2.1c0,0,0.1,0,0.1,0c0,0,0.1,0,0.1,0c0,0,0,0,0,0c0.1,0,0.3,0.1,0.5,0.1c3.6,1.1,19,5.7,21,8
								c0,0,0,0,0,0.1c0,0,0,0,0,0c7.5,6.5,17.9,48.7,25.9,89.4c0.9,4.7,1.8,9.3,2.6,13.9c2.5,13.3,4.6,26,6.2,36.6
								C333.6,490.1,334.4,495.5,334.9,500z"/>
						</g>
						<g>
							<path class="st33" d="M234.5,364.3c-16.7-3.6-9.9-25.8-7-27.1c0.4-0.2-0.7-32.3-0.7-32.3l44.3-15.6c0,0-8.9,43.5,5.8,46.7
								L234.5,364.3z"/>
						</g>
					</g>
					<g>
						<g>
							<path class="st31" d="M218.6,273c8.4,11.7,7.8,26.6-1.5,33.3c-9.3,6.7-23.6,2.7-32.1-9c-8.4-11.7-7.8-26.6,1.5-33.3
								C195.8,257.2,210.1,261.3,218.6,273z"/>
						</g>
						<g>
							<polygon class="st31" points="237.1,335.6 243.2,352.1 255.7,330 							"/>
							<g>
								<path class="st30" d="M300.8,263.5c-2.4-8.8-8.2-23.2-22.7-37.2c-7.1-6.8-12.7-15.3-15.9-24.9l-1.6-4.7
									c0,0-2.6,25.9-57.3,42.9c0,0-8.1,3.3-15.2,13.2c1.1,10,2.5,25.8,1.5,32.1c-5.8,33.7,17.3,57.6,63.1,51.6
									c29.5-3.9,52.5-16.2,45.8-67.4C298.7,269,299.6,266.9,300.8,263.5z"/>
							</g>
							<g>
								<path class="st34" d="M191.4,307.4c0.9,5.4,6,9,11.4,8.1c5.4-0.9,9-6,8.1-11.4c-0.9-5.4-6-9-11.4-8.1
									C194.1,297,190.5,302,191.4,307.4z"/>
								<path class="st34" d="M261.6,299.3c0.9,5.4,6,9,11.4,8.1c5.4-0.9,9-6,8.1-11.4c-0.9-5.4-6-9-11.4-8.1
									C264.3,288.8,260.7,293.9,261.6,299.3z"/>
								<g>
									<g>
										<g>
											<path class="st26" d="M255.2,292c0.6,2.4,0.7,5,0.4,7.6c-1.4,11.7-11.9,20-23.3,18.6c-10-1.2-17.4-9.5-18.2-19.4
												L255.2,292z"/>
										</g>
									</g>
									<g>
										<g>
											<g>
												<path class="st35" d="M232.3,318.2c-3.5-0.4-6.7-1.8-9.4-3.7c3-9,12.5-14.8,22.9-13.6c3.2,0.4,6.2,1.5,8.8,3
													C251.4,313.2,242.3,319.4,232.3,318.2z"/>
											</g>
										</g>
									</g>
								</g>
								<g>
									<path class="st26" d="M243.3,276.3l0.9,6.8c0.5,3.6,3.8,6.2,7.4,5.8c3.6-0.5,6.2-3.8,5.8-7.4l-0.1-0.9l-4-2l3.5-2.2
										l-0.2-1.6c-0.5-3.6-3.8-6.2-7.4-5.8c-1.8,0.2-3.4,1.2-4.4,2.5C243.6,272.7,243.1,274.5,243.3,276.3z"/>
								</g>
								<g>
									<path class="st26" d="M207.2,281.2l0.9,6.8c0.5,3.6,3.8,6.2,7.4,5.8c3.6-0.5,6.2-3.8,5.8-7.4l-0.1-0.9l-4-2l3.5-2.2
										l-0.2-1.6c-0.5-3.6-3.8-6.2-7.4-5.8c-1.8,0.2-3.4,1.2-4.4,2.5C207.5,277.7,207,279.4,207.2,281.2z"/>
								</g>
							</g>
							<g>
								<g>
									<g>
										<g>
											<path class="st26" d="M195.4,277.1c0,0,8.4-10.1,19.3-10.6c0,0-5-9.7-14-4.6C191.8,267.2,195.4,277.1,195.4,277.1z"/>
										</g>
									</g>
									<g>
										<g>
											<path class="st26" d="M269.3,267.5c0,0-17.9-7.2-27.1-7.3c0,0,2.2-10.1,13-7.5C268,255.7,269.3,267.5,269.3,267.5z"/>
										</g>
									</g>
								</g>
								<g>
									<g>
										<path class="st30" d="M284.9,263.6c-6.8,12.9-3.9,27.8,6.3,33.2c10.3,5.4,24.1-0.8,30.8-13.7c6.8-12.9,3.9-27.8-6.3-33.2
											C305.4,244.5,291.6,250.6,284.9,263.6z"/>
									</g>
									<g>
										<path class="st36" d="M290.8,288.3c0-0.5,0.1-1,0.2-1.5c-0.1,0.4-0.1,0.7-0.2,0.9c0.1-2.6,0.4-4.8,1.1-6.5
											c5.3-21.9,25.8-24.1,25.8-24.1c-10.4,6.3-16.9,13.2-20.9,18.9c7.4-3,18.8,3.4,18.8,3.4c-13.5-3.6-19.7-0.6-22.5,2.8
											C291.3,285.9,290.8,288.3,290.8,288.3z"/>
									</g>
								</g>
							</g>
						</g>
					</g>
				</g>
				<g>
					<g>
						<g>
							<g class="st37">
								<path class="st38" d="M224.1,280.6c1.6,10.1-5.3,19.5-15.4,21.1c-10.1,1.6-19.5-5.3-21.1-15.4c-1.6-10.1,5.3-19.5,15.4-21.1
									C213.1,263.6,222.5,270.6,224.1,280.6z"/>
							</g>
							<g class="st39">
								<path class="st38" d="M221.6,273.8L197,299.6C213.4,308.7,231.5,290,221.6,273.8z"/>
							</g>
							<g class="st39">
								<path class="st38" d="M204.3,265.1L187.7,280c-0.6,3-0.4,5.7,0.3,8.4l22.5-22.8C208.6,265.1,206.5,264.9,204.3,265.1z"/>
							</g>
							<g>
								<path class="st40" d="M223.8,287.9c0-0.1,0-0.2,0.1-0.3c0,0.2-0.1,0.3-0.1,0.5C223.8,288,223.8,287.9,223.8,287.9z
									 M222.2,292.1c0,0,0-0.1,0.1-0.1c0.2-0.4,0.4-0.8,0.6-1.2c0.1-0.2,0.2-0.5,0.3-0.7c0.1-0.2,0.2-0.4,0.2-0.7c0,0,0,0,0-0.1
									c0.1-0.2,0.1-0.5,0.2-0.7c0.1-0.2,0.1-0.4,0.2-0.6c-0.4,1.5-1,3-1.7,4.3C222.1,292.3,222.1,292.2,222.2,292.1z M224.7,276.5
									L224.7,276.5c-0.1-0.4-0.3-0.8-0.5-1.2c-0.1-0.2-0.2-0.5-0.3-0.7v0c-2.2-4.4-5.8-7.8-10.2-9.6c0,0,0,0,0,0
									c-0.1,0-0.2-0.1-0.2-0.1l0,0c-2-0.8-3.9-1.3-5.8-1.5c0,0,0,0,0,0c-3.9-0.4-7.6,0.4-10.8,2.1h0c-2.7,1.5-5.1,3.6-6.9,6.1v0
									c-0.7,1-1.4,2-1.9,3.1c-3,5.9-3.2,13.2,0.9,19.5v0c1,1.5,2.1,2.9,3.6,4.2c0,0,0,0,0,0c0.4,0.4,0.8,0.7,1.2,1c0,0,0,0,0,0
									c0.9,0.7,2,1.4,3,1.9c0,0,0,0,0,0c4.7,2.4,9.5,2.8,13.9,1.7h0c1.4-0.4,2.7-0.9,4-1.5h0c1.9-0.9,3.6-2.2,5.1-3.6
									c2.1-2,3.7-4.4,4.8-7c0,0,0,0,0,0C226.3,286.6,226.6,281.5,224.7,276.5z M221.9,292.6C221.9,292.6,221.9,292.6,221.9,292.6
									c0,0.1-0.1,0.1-0.1,0.1c0,0.1-0.1,0.2-0.2,0.2c0,0.1-0.1,0.2-0.1,0.2c0,0.1-0.1,0.2-0.2,0.2v0c0,0,0,0,0,0.1
									c0,0.1-0.1,0.2-0.2,0.2c0,0,0,0.1-0.1,0.1l0,0h0c-0.1,0.1-0.2,0.2-0.2,0.3c-0.2,0.2-0.3,0.4-0.5,0.6c0,0,0,0,0,0
									c-0.1,0.1-0.2,0.3-0.3,0.4c0,0.1-0.1,0.1-0.2,0.2c-0.1,0.1-0.1,0.2-0.2,0.3c-0.1,0.2-0.3,0.3-0.4,0.5
									c-0.2,0.2-0.4,0.4-0.6,0.6c-0.2,0.2-0.4,0.4-0.6,0.6c0,0,0,0,0,0c0,0,0,0,0,0c0,0,0,0,0,0c-0.2,0.1-0.3,0.3-0.5,0.4
									c-0.1,0.1-0.3,0.2-0.4,0.3c-0.1,0.1-0.2,0.2-0.3,0.2c0,0,0,0,0,0c-0.2,0.1-0.3,0.2-0.5,0.4c-0.2,0.1-0.4,0.2-0.5,0.4
									c-0.5,0.3-0.9,0.5-1.4,0.8c-1.1,0.6-2,0.9-3,1.2c-0.1,0-0.2,0-0.2,0.1c-0.1,0-0.2,0.1-0.3,0.1c-0.3,0.1-0.5,0.1-0.8,0.2
									c-0.1,0-0.3,0.1-0.4,0.1c-0.1,0-0.1,0-0.2,0c-0.1,0-0.1,0-0.2,0c-1.5,0.2-2.6,0.2-3.2,0.3c0,0-0.1,0-0.1,0
									c-0.1,0-0.1,0-0.2,0c-0.3,0-0.9,0-1.3-0.1c-0.1,0-0.2,0-0.3,0c0,0,0,0,0,0h0c0,0,0,0-0.1,0c0,0-0.1,0-0.3,0
									c-0.5-0.1-1-0.1-1.6-0.3c-0.4-0.1-0.8-0.2-1-0.2l0,0c0,0-0.1,0-0.1,0l0,0c0,0,0,0,0,0c-0.1,0-0.2,0-0.3-0.1
									c-0.1,0-0.1,0-0.2-0.1c0,0-0.1,0-0.1,0c-0.1,0-0.1,0-0.2-0.1c-0.1,0-0.2,0-0.2-0.1c0,0-0.1,0-0.1,0c0,0-0.1,0-0.1,0
									c0,0,0,0,0,0c0,0,0,0,0,0c0,0,0,0,0,0c0,0,0,0,0,0c-0.2-0.1-0.5-0.2-0.7-0.3c0,0,0,0-0.1,0c0,0,0,0,0,0
									c-0.2-0.1-0.5-0.2-0.7-0.3c-0.1,0-0.2-0.1-0.3-0.2c-0.1-0.1-0.2-0.1-0.4-0.2c-0.1-0.1-0.2-0.1-0.2-0.1
									c-0.1,0-0.1-0.1-0.2-0.1h0c-0.1,0-0.2-0.1-0.3-0.1c0,0,0,0,0,0c-0.1,0-0.2-0.1-0.3-0.2c-0.3-0.2-0.6-0.4-0.9-0.5
									c0,0,0,0,0,0c-0.3-0.2-0.5-0.4-0.7-0.5c-0.4-0.3-0.7-0.6-1.2-0.9c0,0,0,0,0,0c0,0,0,0-0.2-0.2c0,0-0.1-0.1-0.1-0.1
									c-0.1-0.1-0.2-0.2-0.3-0.3c-0.3-0.3-0.7-0.7-1.3-1.4c-0.2-0.2-0.3-0.4-0.5-0.6c-0.1-0.1-0.1-0.1-0.2-0.2
									c0-0.1-0.1-0.1-0.2-0.2c-0.2-0.3-0.4-0.6-0.6-0.9c-0.2-0.3-0.4-0.6-0.5-0.9c-0.1-0.2-0.2-0.4-0.3-0.6
									c-0.1-0.2-0.2-0.3-0.2-0.5c-0.1-0.2-0.1-0.3-0.2-0.4c0,0,0-0.1,0-0.1c0,0,0-0.1-0.1-0.1v0c0,0,0,0,0,0c0,0,0,0,0,0
									c0-0.1-0.1-0.2-0.1-0.2c0,0,0,0,0,0s0,0,0,0c0,0,0-0.1,0-0.1c0-0.1,0-0.1-0.1-0.2c-0.1-0.2-0.2-0.5-0.3-0.7c0,0,0,0,0-0.1
									c0-0.1-0.1-0.2-0.1-0.3c0-0.1-0.1-0.3-0.1-0.4c-0.1-0.2-0.1-0.3-0.1-0.4c0,0,0,0,0-0.1c0,0,0,0,0,0c0,0,0,0,0,0
									c0,0,0,0,0-0.1c0,0,0-0.1,0-0.1l0,0c0,0,0,0,0,0c0,0,0,0,0,0v0c0,0,0,0,0,0c0,0,0,0,0,0l0,0c0,0,0,0,0,0
									c-0.1-0.1-0.1-0.4-0.2-0.7c0,0,0,0,0-0.1c0-0.1,0-0.1,0-0.2v0c0,0,0,0,0-0.1c-0.1-0.7-0.2-1.5-0.2-1.8c0,0,0-0.1,0-0.1
									c0,0,0,0,0-0.1c0,0,0,0,0-0.1c0,0,0,0,0,0c0,0,0,0,0-0.1v-0.1c0-0.1,0-0.2,0-0.3c0-0.1,0-0.2,0-0.3c0-0.4,0-0.7,0-1.1
									c0-0.2,0-0.3,0-0.5v-0.1c0-0.2,0-0.5,0-0.7c0,0,0-0.1,0-0.1c0-0.1,0-0.2,0-0.2c0,0,0,0,0,0c0,0,0,0,0,0c0,0,0-0.1,0-0.1
									v-0.1c0,0,0,0,0,0c0-0.1,0-0.2,0-0.2c0,0,0,0,0,0c0,0,0,0,0-0.1c0,0,0,0,0-0.1c0-0.1,0-0.1,0-0.2c0.1-0.2,0.1-0.4,0.2-0.7v0
									c0.2-0.9,0.5-2.2,1.1-3.7c0.1-0.3,0.3-0.7,0.5-1c0.2-0.4,0.4-0.7,0.6-1.1c0,0,0,0,0,0c0.1-0.2,0.3-0.4,0.4-0.7c0,0,0,0,0,0
									c0,0,0,0,0,0c1.1-1.6,2.6-3.3,4.8-5v0l0,0c0,0,0,0,0,0c0,0,0,0,0,0c0,0,0,0,0,0l0,0c0.1-0.1,0.2-0.1,0.3-0.2
									c0.3-0.2,0.6-0.4,0.9-0.5c0.2-0.1,0.4-0.2,0.6-0.3c0.4-0.2,0.8-0.4,1.2-0.6c0.4-0.2,0.8-0.4,1.2-0.5c0,0,0,0,0.1,0
									c0.1,0,0.2-0.1,0.3-0.1c0.4-0.2,0.8-0.3,1.2-0.4c0.1-0.1,1-0.3,1.9-0.4c0.1,0,0.1,0,0.2,0c0.2,0,0.4-0.1,0.6-0.1
									c0.1,0,0.2,0,0.4,0c0,0,0,0,0.1,0c0.7-0.1,1.3-0.1,1.6-0.1c0,0,0,0,0,0c0,0,0,0,0,0c0,0,0.1,0,0.1,0c0,0,0.1,0,0.1,0
									c0,0,0,0,0,0c0,0,0,0,0,0c0,0,0,0,0,0c0,0,0,0,0.1,0c0,0,0.1,0,0.2,0c0.1,0,0.2,0,0.4,0c0.1,0,0.3,0,0.4,0
									c0.3,0,0.5,0,0.6,0c0,0,0.1,0,0.1,0c0.2,0,0.4,0,0.7,0.1c0.1,0,0.1,0,0.2,0c0.2,0,0.5,0.1,0.7,0.1c0.1,0,0.2,0,0.2,0
									c0,0,0,0,0,0c0,0,0,0,0,0c0.1,0,0.2,0,0.2,0c0,0,0.1,0,0.1,0c0,0,0,0,0,0c0,0,0,0,0.1,0c0,0,0,0,0,0c0,0,0,0,0,0
									c0,0,0,0,0,0c0,0,0,0,0,0c0,0,0,0,0,0c0,0,0,0,0.1,0c0,0,0,0,0,0c0,0,0.1,0,0.1,0c0,0,0.1,0,0.2,0l0,0c0,0,0.1,0,0.2,0h0
									c0.2,0.1,0.5,0.1,0.7,0.2c0,0,0,0,0,0c0.1,0,0.3,0.1,0.4,0.1c0,0,0,0,0,0c0.5,0.2,1.1,0.4,1.7,0.7h0
									c0.2,0.1,0.3,0.2,0.5,0.2c0.2,0.1,0.4,0.2,0.6,0.3c0.2,0.1,0.4,0.2,0.6,0.3c0,0,0,0,0,0c0.1,0.1,0.2,0.1,0.3,0.2
									c0.1,0,0.2,0.1,0.2,0.1c0.4,0.3,0.7,0.5,1.2,0.8c0.1,0.1,0.2,0.1,0.3,0.2c0,0,0,0,0,0c0.2,0,0.5,0.3,0.9,0.7
									c0,0,0.1,0,0.1,0.1c0,0,0,0,0.1,0.1c0.9,0.9,2.1,2.2,2.3,2.5c0,0,0,0,0,0c0,0.1,0.1,0.1,0.1,0.2c0.1,0.1,0.2,0.3,0.4,0.5
									c0.1,0.1,0.2,0.3,0.3,0.4c0,0,0,0.1,0.1,0.1c0,0.1,0.1,0.2,0.1,0.2c0,0,0,0,0,0c0,0,0,0,0,0c0,0,0,0.1,0.1,0.1
									c0,0.1,0.1,0.2,0.2,0.3c0,0,0,0.1,0.1,0.1c0,0,0,0,0,0c0,0,0,0,0,0c0,0,0,0,0,0l0,0c0,0,0,0,0,0c0,0,0.1,0.2,0.2,0.3
									c0,0,0,0,0,0.1c0,0.1,0.1,0.1,0.1,0.2c0,0,0,0.1,0.1,0.1c0,0,0,0.1,0,0.1c0,0,0,0,0,0.1c0,0.1,0.1,0.1,0.1,0.2
									c0,0,0,0,0,0.1c0,0,0,0.1,0,0.1h0c0,0,0,0,0,0c0,0,0,0.1,0,0.1c0,0,0,0.1,0,0.1c0,0,0,0,0,0c0,0,0,0,0,0c0,0,0,0,0,0
									c0,0,0,0,0,0c0,0,0,0,0,0c0,0,0,0,0,0c0,0,0,0,0,0c0,0,0,0.1,0,0.1l0,0c0,0,0,0,0,0c0,0,0,0,0,0.1c0,0,0,0.1,0,0.1
									c0,0,0,0.1,0,0.1c0,0,0,0.1,0,0.1c0,0,0,0.1,0,0.1c0,0,0,0.1,0,0.1h0l0,0v0c0,0,0,0,0,0c0,0,0,0,0,0c0,0,0,0,0,0
									c0,0,0,0,0,0.1c0,0,0,0,0,0.1c0,0,0,0,0,0s0,0,0,0c0,0,0,0,0,0c0,0,0,0,0,0.1c0,0.1,0.1,0.2,0.1,0.4c0,0.1,0,0.1,0.1,0.2
									c0,0.1,0,0.2,0.1,0.2c0,0,0,0.1,0,0.1c0.1,0.1,0.2,0.5,0.3,1.1c0,0.2,0.1,0.5,0.2,0.7c0,0.2,0.1,0.3,0.1,0.5
									c0,0.3,0.1,0.7,0.2,1c0,0.2,0,0.3,0.1,0.5v0c0,0.1,0,0.2,0,0.4c0.2,1.3,0.2,2.7,0,3.3c0,0,0,0,0,0c0,0.2,0,0.3-0.1,0.5
									c0,0,0,0,0,0c0,0,0,0,0,0v0c0,0.1,0,0.3-0.1,0.4c0,0,0,0.1,0,0.1c0,0,0,0,0,0c0,0,0,0,0,0c0,0,0,0.1,0,0.1
									c0,0.1,0,0.2-0.1,0.3c0,0.1,0,0.2-0.1,0.3c0,0,0,0.1,0,0.1c0,0.1,0,0.1,0,0.2c0,0.2-0.1,0.3-0.1,0.5c0,0,0,0,0,0
									c-0.4,1.5-1,3-1.7,4.3C222,292.4,222,292.5,221.9,292.6z M223.8,287.9c0-0.1,0-0.2,0.1-0.3c0,0.2-0.1,0.3-0.1,0.5
									C223.8,288,223.8,287.9,223.8,287.9z M222.2,292.1c0,0,0-0.1,0.1-0.1c0.2-0.4,0.4-0.8,0.6-1.2c0.1-0.2,0.2-0.5,0.3-0.7
									c0.1-0.2,0.2-0.4,0.2-0.7c0,0,0,0,0-0.1c0.1-0.2,0.1-0.5,0.2-0.7c0.1-0.2,0.1-0.4,0.2-0.6c-0.4,1.5-1,3-1.7,4.3
									C222.1,292.3,222.1,292.2,222.2,292.1z"/>
							</g>
						</g>
					</g>
					<g>
						<g class="st37">
							<path class="st38" d="M275.5,272.7c1.6,10.1-5.3,19.5-15.4,21.1c-10.1,1.6-19.5-5.3-21.1-15.4c-1.6-10.1,5.3-19.5,15.4-21.1
								C264.5,255.7,274,262.6,275.5,272.7z"/>
						</g>
						<g class="st39">
							<path class="st38" d="M265.2,258.8l-20.8,29.9c2.6,2.5,5.9,4.3,9.5,5l19.6-26.9C271.6,263.2,268.7,260.5,265.2,258.8z"/>
						</g>
						<g>
							<path class="st40" d="M250.6,292.7C250.7,292.7,250.7,292.7,250.6,292.7L250.6,292.7C250.7,292.7,250.7,292.7,250.6,292.7z
								 M250,292.4L250,292.4L250,292.4C250,292.4,250,292.5,250,292.4C250,292.5,250,292.5,250,292.4c0.1,0.1,0.1,0.1,0.2,0.1l0,0
								C250.1,292.5,250,292.5,250,292.4z M245.3,289.6C245.3,289.6,245.3,289.6,245.3,289.6L245.3,289.6
								C245.3,289.6,245.3,289.6,245.3,289.6C245.3,289.6,245.3,289.6,245.3,289.6z M244.4,288.7
								C244.4,288.7,244.4,288.7,244.4,288.7C244.4,288.7,244.4,288.7,244.4,288.7C244.4,288.7,244.4,288.7,244.4,288.7z
								 M244.4,288.7C244.4,288.7,244.4,288.7,244.4,288.7C244.4,288.7,244.4,288.7,244.4,288.7L244.4,288.7z M274.6,265.5
								L274.6,265.5c-0.2-0.3-0.4-0.6-0.6-0.9c0,0,0,0,0,0c-2.8-4.2-6.8-7-11.2-8.2c0,0,0,0,0,0c-5.5-1.6-11.6-0.8-16.7,2.5h0l0,0
								c-0.7,0.5-1.4,1-2,1.5l0,0c-3.6,3.1-5.9,7.3-6.6,11.6v0c-0.1,0.5-0.1,0.9-0.2,1.4v0c0,0.2,0,0.4,0,0.6
								c-0.4,4.8,0.9,9.6,4.1,13.7v0c1.8,2.4,4.1,4.3,6.5,5.5h0c2,1.1,4.2,1.8,6.4,2.1c0.5,0.1,1,0.1,1.4,0.2c2.1,0.2,4.1,0,6.2-0.5
								c3.4-0.8,6.6-2.4,9.2-4.9l0,0c0.7-0.7,1.4-1.4,2-2.2c0.7-0.8,1.2-1.7,1.7-2.7v0C278.2,279.2,278.3,271.7,274.6,265.5z
								 M275.5,278.4C275.5,278.5,275.5,278.5,275.5,278.4c0,0.3-0.1,0.6-0.1,0.8c0,0.2-0.1,0.3-0.1,0.5c0,0.1,0,0.1,0,0.2
								c0,0.1-0.1,0.2-0.1,0.3c0,0,0,0.1,0,0.1c0,0,0,0,0,0c0,0,0,0.1,0,0.1c-0.1,0.2-0.1,0.5-0.2,0.7c-0.1,0.2-0.2,0.5-0.2,0.7
								c-0.1,0.3-0.2,0.5-0.3,0.8c-0.1,0.2-0.1,0.3-0.2,0.5c0,0,0,0,0,0c0,0,0,0,0,0c-0.1,0.2-0.2,0.3-0.2,0.5c0,0,0,0.1-0.1,0.1
								c-0.1,0.2-0.2,0.3-0.3,0.5c0,0.1-0.1,0.1-0.1,0.2c0,0-0.1,0.2-0.2,0.3c-0.1,0.2-0.3,0.5-0.4,0.7c0,0,0,0.1,0,0.1c0,0,0,0,0,0
								c-0.7,0.9-1.2,1.6-1.8,2.3c-0.1,0.1-0.1,0.2-0.2,0.2c-0.2,0.3-0.5,0.5-0.7,0.8c0,0,0,0,0,0c0,0-0.1,0.1-0.1,0.1
								c-0.1,0.1-0.2,0.2-0.4,0.3c-0.1,0.1-0.2,0.2-0.4,0.3c-0.1,0.1-0.2,0.2-0.3,0.2c-0.1,0.1-0.2,0.2-0.4,0.3
								c-0.1,0.1-0.2,0.1-0.3,0.2c0,0,0,0-0.1,0.1c0,0,0,0,0,0c0,0-0.1,0-0.1,0.1l0,0c-0.1,0.1-0.2,0.1-0.2,0.2c0,0,0,0,0,0
								c-1,0.7-1.9,1.2-2.8,1.6c0,0-0.1,0-0.1,0.1c-0.2,0.1-0.4,0.2-0.6,0.3c-0.1,0-0.2,0.1-0.4,0.1c-0.1,0-0.2,0.1-0.2,0.1
								c-0.2,0.1-0.3,0.1-0.5,0.2c-0.2,0-0.3,0.1-0.5,0.1c0,0,0,0,0,0c-1.2,0.3-2.3,0.5-3.1,0.7c0,0-0.1,0-0.1,0c-0.1,0-0.1,0-0.2,0
								h0c0,0-0.1,0-0.2,0c0,0-0.1,0-0.2,0c0,0-0.1,0-0.2,0c-0.1,0-0.1,0-0.2,0c-0.1,0-0.1,0-0.2,0c0,0,0,0,0,0c-0.1,0-0.2,0-0.2,0
								h0c0,0,0,0,0,0c0,0,0,0,0,0c0,0-0.1,0-0.1,0c0,0,0,0-0.1,0c-0.1,0-0.1,0-0.2,0c0,0-0.1,0-0.1,0c0,0,0,0,0,0s0,0,0,0
								c-0.1,0-0.3,0-0.5,0h-0.2c-0.1,0-0.1,0-0.2,0c0,0-0.1,0-0.1,0c0,0,0,0-0.1,0c0,0,0,0,0,0h-0.1c-0.1,0-0.3,0-0.5,0h0
								c-0.1,0-0.1,0-0.2,0c-0.2,0-0.3,0-0.4-0.1c-0.1,0-0.2,0-0.2,0c-0.2,0-0.5-0.1-0.7-0.1c0,0,0,0,0,0c0,0,0,0-0.1,0h0
								c0,0,0,0,0,0c0,0,0,0,0,0h-0.1c0,0,0,0,0,0c0,0-0.1,0-0.1,0h0c0,0-0.1,0-0.1,0c0,0,0,0-0.1,0h0c-0.1,0-0.1,0-0.2,0
								c0,0,0,0,0,0c0,0-0.1,0-0.1,0c-0.1,0-0.1,0-0.1,0c0,0,0,0-0.1,0c0,0-0.1,0-0.1,0h0c-0.1,0-0.1,0-0.2-0.1
								c-0.1,0-0.2-0.1-0.4-0.1c-0.3-0.1-0.6-0.2-0.9-0.3c0,0,0,0,0,0c0,0,0,0,0,0c0,0,0,0,0,0c0,0,0,0-0.1,0
								c-0.1,0-0.1-0.1-0.2-0.1c0,0,0,0-0.1,0c0,0,0,0-0.1,0c0,0,0,0-0.1,0h0c0,0,0,0,0,0c0,0,0,0-0.1,0c-0.1,0-0.1-0.1-0.2-0.1
								c-0.1,0-0.2-0.1-0.2-0.1l0,0c0,0,0,0,0,0c0,0,0,0,0,0l0,0c-0.1,0-0.1,0-0.1-0.1h0l0,0c-0.2-0.1-0.4-0.2-0.6-0.3c0,0,0,0,0,0
								c-0.2-0.1-0.4-0.2-0.6-0.3c-0.4-0.2-0.7-0.4-1.1-0.6c0,0,0,0,0,0c0,0,0,0,0,0c0,0,0,0-0.1,0c-0.1,0-0.1-0.1-0.2-0.1l0,0
								c0,0,0,0,0,0c-0.1,0-0.2-0.1-0.4-0.2c-0.1-0.1-0.3-0.2-0.4-0.3c-0.1-0.1-0.2-0.2-0.3-0.2c0,0,0,0-0.1,0c0,0,0,0,0,0
								c0,0,0,0,0,0c0,0,0,0-0.1,0c0,0,0,0,0,0c0,0,0,0,0,0l0,0c0,0,0,0,0,0c0,0-0.1,0-0.1-0.1c0,0-0.1,0-0.1-0.1c0,0-0.1,0-0.1-0.1
								c0,0-0.1-0.1-0.1-0.1c0,0-0.1-0.1-0.1-0.1v0c0,0,0,0,0,0c0,0,0,0,0,0h0c0,0,0,0,0,0l0,0c0,0-0.1-0.1-0.1-0.1
								c-0.1-0.1-0.2-0.2-0.4-0.3c-0.1-0.1-0.2-0.3-0.4-0.4c0,0,0,0,0,0c0,0,0,0,0,0c0,0,0,0,0,0c0,0,0,0,0,0c0,0-0.1,0-0.1-0.1
								c-0.2-0.2-0.4-0.4-0.6-0.6c-0.2-0.2-0.4-0.4-0.6-0.7c-0.3-0.4-0.6-0.7-0.9-1.1c-0.1-0.1-0.1-0.2-0.2-0.3
								c-0.3-0.4-0.5-0.7-0.6-1c0,0,0,0,0,0c0,0,0-0.1-0.1-0.1c-1.5-2.7-2.2-5.4-2.4-7.8c0-0.3,0-0.6-0.1-0.9c0-0.1,0-0.3,0-0.4
								c0-0.9,0-1.8,0.1-2.7v0c0.2-1.7,0.7-3.3,1.3-4.7c0.1-0.2,0.2-0.5,0.3-0.7c1.5-3.1,3.7-5.6,5.5-7h0c1.1-0.8,2.1-1.4,2.7-1.5
								c0,0,0,0,0,0c0,0,0,0,0.1,0c0,0,0,0,0.1,0c0,0,0.1,0,0.2-0.1c0.3-0.1,0.8-0.3,0.9-0.4c0,0,0.1,0,0.1,0c0,0,0.1,0,0.2-0.1
								c0,0,0,0,0,0c0,0,0,0,0.1,0c0,0,0,0,0,0c0.6-0.3,1.8-0.7,3-0.9c0.2,0,0.5-0.1,0.7-0.1c0.2,0,0.3-0.1,0.5-0.1
								c0.1,0,0.2,0,0.3,0c0.1,0,0.2,0,0.3,0c1-0.1,1.8-0.2,2-0.1h0.1c0.4,0,0.8,0,1.2,0c0.8,0.1,1.5,0.2,2.2,0.3
								c0.2,0,0.3,0.1,0.5,0.1c0.2,0,0.3,0.1,0.5,0.1c0,0,0.1,0,0.1,0c0,0,0.1,0,0.1,0c0.1,0,0.2,0,0.3,0.1c0.1,0,0.1,0,0.2,0.1
								c0.1,0,0.2,0.1,0.3,0.1c0.1,0,0.2,0.1,0.3,0.1c0.1,0,0.2,0.1,0.3,0.1c0.1,0,0.2,0.1,0.3,0.1c0.1,0,0.3,0.1,0.4,0.2
								c0.1,0.1,0.4,0.2,0.7,0.3c0,0,0,0,0,0c0.2,0.1,0.4,0.1,0.5,0.2c0,0,0.1,0.1,0.1,0.1c0,0,0,0,0,0c0,0,0,0,0,0c0,0,0,0,0,0
								c0,0,0,0,0,0c0,0,0,0,0,0c0,0,0,0,0,0c0,0,0,0,0.1,0c0.4,0.2,0.9,0.5,1.4,0.8c0,0,0,0,0,0c0,0,0,0,0.1,0c0,0,0,0,0,0
								c0,0,0.1,0.1,0.1,0.1c0.5,0.3,0.9,0.6,1.3,0.9c0.1,0.1,0.2,0.1,0.3,0.2c0,0,0,0,0,0v0c0,0,0,0,0,0c0,0,0.1,0,0.1,0.1
								c0,0,0.1,0.1,0.1,0.1c0,0,0.1,0,0.1,0.1c0,0,0.1,0,0.1,0.1c0,0,0.1,0.1,0.1,0.1c0.1,0,0.1,0.1,0.2,0.2c0,0,0,0,0,0
								c0.1,0.1,0.2,0.2,0.3,0.3v0c0,0,0,0,0,0c0,0,0.1,0.1,0.2,0.2c0,0,0,0,0,0c0,0,0,0,0,0s0,0,0,0v0h0c0,0,0,0,0,0c0,0,0,0,0,0.1
								c0,0,0,0,0,0.1c0,0,0.1,0.1,0.1,0.1c0,0,0,0,0,0c0.1,0.1,0.2,0.2,0.3,0.3c0.1,0.1,0.1,0.1,0.1,0.1c0,0,0,0,0,0c0,0,0,0,0,0v0
								c0,0,0,0,0,0c0.1,0.1,0.3,0.3,0.5,0.5c0.1,0.1,0.1,0.2,0.2,0.3c0.1,0.1,0.1,0.2,0.2,0.3c0,0,0,0.1,0.1,0.1
								c0.1,0.1,0.2,0.3,0.3,0.4c0.1,0.1,0.2,0.2,0.2,0.4c0,0,0.1,0.1,0.1,0.1c0,0.1,0.1,0.2,0.1,0.2c0,0,0,0,0,0c0,0,0,0,0,0
								c0,0,0,0,0,0.1v0c0,0,0,0,0,0h0c0,0,0,0,0,0c0,0.1,0.1,0.1,0.1,0.2c0.8,1.2,1.6,2.8,2,4.5c0,0.1,0.1,0.2,0.1,0.3
								c0.1,0.2,0.1,0.4,0.2,0.6c0,0.2,0.1,0.3,0.1,0.5c0,0.1,0,0.1,0,0.2C275.7,273.9,275.8,276.1,275.5,278.4
								C275.5,278.4,275.5,278.4,275.5,278.4z M244.4,288.7L244.4,288.7C244.4,288.7,244.4,288.7,244.4,288.7
								C244.4,288.7,244.4,288.7,244.4,288.7z M245.3,289.6C245.3,289.6,245.3,289.6,245.3,289.6
								C245.3,289.6,245.3,289.6,245.3,289.6L245.3,289.6C245.3,289.6,245.3,289.6,245.3,289.6z M250,292.4
								C250,292.4,250,292.5,250,292.4C250,292.5,250,292.5,250,292.4c0.1,0.1,0.1,0.1,0.1,0.1C250.1,292.5,250,292.5,250,292.4z"/>
						</g>
					</g>
					<g>
						<path class="st40" d="M224.1,277.1l-1.5-1.2c0.1-0.1,6-7.3,15.7-3.7l-0.7,1.8C229.2,270.9,224.1,277.1,224.1,277.1z"/>
					</g>
				</g>
				<g>
					<g>
						<g>
							<path class="st41" d="M201.3,413.1c0,0,4.5-10.5,30.3-11.5c22.1-0.9,29.5-4.7,29.5-4.7s5.7,10.7,10.5,14.1l-39.1,22.6
								l-31.5-2.4L201.3,413.1z"/>
						</g>
						<g>
							<path class="st41" d="M138.3,401.6c11.7-6.8,16.4-15.9,16.4-15.9s42.6,6.2,46.7,23.1l-0.4,14.6l-41.1-3.4
								C159.8,420,132.1,405.2,138.3,401.6z"/>
						</g>
						<g>
							<path class="st28" d="M139.6,397.3l61.4,25.6l6.4,43.9l-60.9-20.8c-2.9-1-5.1-3.6-5.5-6.7l-5.2-39.2
								C135.6,398,137.7,396.5,139.6,397.3z"/>
						</g>
						<polygon class="st42" points="140.4,408.7 144.1,438.3 148,443.4 199.7,460.5 196.4,430.7 192,424.8 144.7,405.1 						"/>
						<g>
							<path class="st43" d="M271.5,409.9l-70.6,13l6.4,43.9l62.3-7.1c4.5-0.5,7.8-4.7,7.2-9.2L271.5,409.9z"/>
						</g>
						<polygon class="st42" points="207.4,430.8 212,425.5 262.5,416.1 268.2,420.6 273.3,457.6 211,465.1 						"/>
						<path class="st28" d="M249.1,436.7c0,5.6-4.6,10.2-10.2,10.2c-5.6,0-10.2-4.6-10.2-10.2c0-5.6,4.6-10.2,10.2-10.2
							C244.6,426.5,249.1,431.1,249.1,436.7z"/>
					</g>
					<g>
						<g>
							<path class="st30" d="M348.7,434.2c-5-24.7-28-76.3-50.9-90.2c-9.6-5.8-16.1,10.3-19.7,23.8c-2.6,9.8-0.6,20.2,5.3,28.4
								l28.1,47l-65.4,11.5c-1.1-1.5-2.1-3.1-2.9-4.7c-4.2-7.8-10.8-12.5-10.8-12.5l-4.9-6.6c-2.3,0.5-3.5,2.1-4.1,4
								c-1.1,3.6,0.2,7.4,3,9.9l3.2,2.9c0,0-8.8,0.8-11.7,0.2c-8.3-1.7-20.3-11.1-26.2-16.8c-0.9-0.9-4.2-3.2-5.4-3.7
								c-1.3-0.6-4.3-0.4-4.9,2.3c-0.5,2.2,5.1,4.9,6,7c0.2,0.6,0.4,2.1-0.2,1.8c-3.2-1.7-8.3-7.3-11.7-8.8
								c-1.4-0.6-4.3-0.8-5.8,2.4c-0.4,0.9,2.2,3.4,2.2,3.4s-2.9-0.2-2.2,1.5c1.8,4.2,7.8,8.8,7.8,8.8s-2.4,0.2-1.7,2.2
								c4,10.6,21.9,15.6,30.2,18.7c4.9,1.8,16.8,3.6,24.5,4.5c0,0,0,0,0,0c63.9,14.7,90.6,15,102.3,12.8
								c6.2-1.1,11.4-5.1,14.3-10.7C350.4,466.9,353,455.5,348.7,434.2z"/>
						</g>
						<g>
							<path class="st33" d="M297.8,344c-10.3-4.3-16.1,10.3-19.7,23.8c-2.6,9.8-0.6,20.2,5.3,28.4l24.9,41.5
								c-2.7,2.6-1.1,6.2-1.1,6.2c4.2-0.3,7.7,0,10.4,0.6c8.3,2.2,23,7.5,32.6,19.2C355.8,462.7,350.9,366.1,297.8,344z"/>
						</g>
					</g>
				</g>
			</g>
		</g>
		<g>
			<path class="st38" d="M174.8,246.1c46.3-18.4,98.6-20.3,145.7-5.5c3.4-42.3-36.4-90.2-79-83.9C183,165.8,173.6,218.6,174.8,246.1
				z"/>
		</g>
	</g>
</g>
<g id="TEXT">
</g>
</svg>
