<?xml version="1.0" encoding="utf-8"?>
<!-- Generator: Adobe Illustrator 24.3.0, SVG Export Plug-In . SVG Version: 6.00 Build 0)  -->
<svg version="1.1" id="Layer_1" xmlns="http://www.w3.org/2000/svg" xmlns:xlink="http://www.w3.org/1999/xlink" x="0px" y="0px"
	 viewBox="0 0 500 343.7" style="enable-background:new 0 0 500 343.7;" xml:space="preserve">
<style type="text/css">
	.st0{fill:#FDBF73;}
	.st1{fill:#F5F5E0;}
	.st2{fill:#5F3034;}
	.st3{fill:#F15E30;}
	.st4{fill:#F89B60;}
	.st5{fill:#FFF4D5;}
	.st6{fill:#2E2B44;}
	.st7{fill:#4D232E;}
</style>
<g>
	<g>
		<path class="st0" d="M428.4,313h69.7c-14.9-14.4-30.9-35.4-46.6-59c-14.6-21.9-28.9-46.1-42-69.4c-15.7-28-29.5-54.7-39.4-74.7
			c0.1,0.1,0.2,0.3,0.2,0.5c-0.2-0.3-0.3-0.6-0.5-0.9c-0.1-0.3-0.3-0.6-0.4-0.9c0-0.1-0.1-0.1-0.1-0.2c-0.3-0.6-0.6-1.2-0.9-1.8
			c0,0,0-0.1,0-0.1c-0.1-0.1-0.1-0.3-0.2-0.4c0,0,0,0,0,0c-7.1-14.3-12-24.6-13.8-28.5c0,0,0,0,0,0c-0.2-0.5-0.4-0.8-0.5-1.1
			c0-0.1-0.1-0.1-0.1-0.2c0,0,0-0.1,0-0.1c0,0,0,0,0,0c0,0,0-0.1-0.1-0.1c0,0,0-0.1-0.1-0.1c0,0,0,0,0,0c0,0,0-0.1,0-0.1
			c0,0,0,0,0,0c0,0,0,0,0,0c0,0,0,0,0,0l-3,0c0,0,0,0,0,0c0-0.1,0-0.2,0-0.3c0,0,0-0.1,0-0.1c0-0.1,0-0.2,0-0.4
			c0-7.3-2.6-13.9-6.8-18.7c-4.2-4.8-10.1-7.8-16.6-7.8c-6.3,0-12,2.8-16.2,7.3c-4.2-4.5-9.9-7.3-16.2-7.3c-6.3,0-12,2.8-16.2,7.3
			c-4.2-4.5-9.9-7.3-16.2-7.3c-6.3,0-12,2.8-16.2,7.3c-4.2-4.5-9.9-7.3-16.2-7.3c-6.3,0-12,2.8-16.2,7.3c-4.2-4.5-9.9-7.3-16.2-7.3
			c-6.3,0-12,2.8-16.2,7.3c-4.2-4.5-9.9-7.3-16.2-7.3c-6.3,0-12,2.8-16.2,7.3c-4.2-4.5-9.9-7.3-16.2-7.3c-6.3,0-12,2.8-16.2,7.3
			c-4.2-4.5-9.9-7.3-16.2-7.3c-6.5,0-12.4,3-16.6,7.8c-4.2,4.8-6.8,11.4-6.8,18.7c0,0.9,0,1.8,0.1,2.7l-2.3,0
			c0,0-20.5,64.8-37.9,135.1c-9.5,32.4-21.1,71.5-35.2,118.1l13-2c-0.2,1.9-0.4,3.8-0.5,5.7l60.1-7.8l78.1,7.7l0.4,1.2l279.5-1.2
			c-0.9-6.2-2-12.7-3.4-19.7C428.7,314.3,428.6,313.7,428.4,313z M79.7,77.8c-0.1-0.9-0.1-1.8-0.1-2.7c0-6.7,2.4-12.7,6.2-17
			c3.8-4.3,9-7,14.8-7c5.6,0,10.8,2.5,14.6,6.8c-3.5,4.6-5.6,10.7-5.6,17.2c0,0.8,0,1.6,0.1,2.4L79.7,77.8z M121.5,75.4
			c0,0,0,0.1,0,0.1c0,0.1,0,0.1,0,0.2c0,0.1,0,0.1,0,0.2c0,0.1,0,0.1,0,0.2c0,0.1,0,0.1,0,0.2c0,0.1,0,0.1,0,0.2c0,0.1,0,0.1,0,0.2
			c0,0.1,0,0.1,0,0.2c0,0.1,0,0.1,0,0.2c0,0.1,0,0.1,0,0.2c0,0.1,0,0.2,0,0.3l0,0l-9.3,0.1c-0.1-0.8-0.1-1.6-0.1-2.4
			c0-5.8,1.8-11.1,4.8-15.2c3,4.1,4.8,9.4,4.8,15.2C121.5,75.2,121.5,75.3,121.5,75.4z M123.9,77.4c0-0.1,0-0.2,0-0.4c0,0,0,0,0-0.1
			c0-0.1,0-0.2,0-0.3c0,0,0-0.1,0-0.1c0-0.1,0-0.2,0-0.3c0,0,0-0.1,0-0.1c0-0.1,0-0.2,0-0.3c0,0,0-0.1,0-0.1c0-0.1,0-0.2,0-0.3
			c0,0,0-0.1,0-0.1c0-0.1,0-0.2,0-0.4c0-6.6-2.1-12.6-5.6-17.2c3.8-4.2,8.9-6.8,14.6-6.8c5.6,0,10.8,2.5,14.6,6.8
			c-3.5,4.6-5.6,10.7-5.6,17.2c0,0.7,0,1.5,0.1,2.2L123.9,77.4z M153.8,75.4c0,0,0,0.1,0,0.1c0,0.1,0,0.1,0,0.2c0,0.1,0,0.1,0,0.2
			c0,0.1,0,0.1,0,0.2c0,0.1,0,0.1,0,0.2c0,0.1,0,0.1,0,0.2c0,0.1,0,0.1,0,0.2c0,0.1,0,0.1,0,0.2c0,0.1,0,0.1,0,0.2
			c0,0.1,0,0.1,0,0.2c0,0,0,0.1,0,0.1l-9.4,0.1c-0.1-0.7-0.1-1.5-0.1-2.2c0-5.8,1.8-11.1,4.8-15.2c3,4.1,4.8,9.4,4.8,15.2
			C153.8,75.2,153.8,75.3,153.8,75.4z M156.3,77.2c0,0,0-0.1,0-0.1c0,0,0,0,0-0.1c0-0.1,0-0.2,0-0.3c0,0,0-0.1,0-0.1
			c0-0.1,0-0.2,0-0.3c0,0,0-0.1,0-0.1c0-0.1,0-0.2,0-0.3c0,0,0-0.1,0-0.1c0-0.1,0-0.2,0-0.3c0,0,0-0.1,0-0.1c0-0.1,0-0.2,0-0.4
			c0-6.6-2.1-12.6-5.6-17.2c3.8-4.2,8.9-6.8,14.6-6.8c5.6,0,10.8,2.5,14.6,6.8c-3.5,4.6-5.6,10.7-5.6,17.2c0,0.7,0,1.3,0.1,2
			L156.3,77.2z M186.2,75.4c0,0,0,0.1,0,0.1c0,0.1,0,0.1,0,0.2c0,0.1,0,0.1,0,0.2c0,0.1,0,0.1,0,0.2c0,0.1,0,0.1,0,0.2
			c0,0.1,0,0.1,0,0.2c0,0.1,0,0.1,0,0.2c0,0.1,0,0.1,0,0.2c0,0.1,0,0.1,0,0.2c0,0,0,0,0,0.1l-9.4,0.1c0-0.7-0.1-1.3-0.1-2
			c0-5.8,1.8-11.1,4.8-15.2c3,4.1,4.8,9.4,4.8,15.2C186.2,75.2,186.2,75.3,186.2,75.4z M188.7,77c0-0.1,0-0.2,0-0.3c0,0,0-0.1,0-0.1
			c0-0.1,0-0.2,0-0.3c0,0,0-0.1,0-0.1c0-0.1,0-0.2,0-0.3c0,0,0-0.1,0-0.1c0-0.1,0-0.2,0-0.3c0,0,0-0.1,0-0.1c0-0.1,0-0.2,0-0.4
			c0-6.6-2.1-12.6-5.6-17.2c3.8-4.2,8.9-6.8,14.6-6.8c5.6,0,10.8,2.5,14.6,6.8c-3.5,4.6-5.6,10.7-5.6,17.2c0,0.6,0,1.2,0.1,1.8
			L188.7,77z M218.6,75.4c0,0,0,0.1,0,0.1c0,0.1,0,0.1,0,0.2c0,0.1,0,0.1,0,0.2c0,0.1,0,0.1,0,0.2c0,0.1,0,0.1,0,0.2
			c0,0.1,0,0.1,0,0.2c0,0.1,0,0.1,0,0.2c0,0.1,0,0.1,0,0.2l-9.4,0.1c0-0.6-0.1-1.2-0.1-1.7c0-5.8,1.8-11.1,4.8-15.2
			c3,4.1,4.8,9.4,4.8,15.2C218.6,75.2,218.6,75.3,218.6,75.4z M221,76.8C221,76.8,221,76.7,221,76.8c0-0.1,0-0.1,0-0.2
			c0-0.1,0-0.2,0-0.3c0,0,0-0.1,0-0.1c0-0.1,0-0.2,0-0.2c0,0,0-0.1,0-0.1c0-0.1,0-0.2,0-0.3c0,0,0-0.1,0-0.1c0-0.1,0-0.2,0-0.4
			c0-6.6-2.1-12.6-5.6-17.2c3.8-4.2,8.9-6.8,14.6-6.8c5.6,0,10.8,2.5,14.6,6.8c-3.5,4.6-5.6,10.7-5.6,17.2c0,0.5,0,1,0,1.5L221,76.8
			z M251,75.4c0,0,0,0.1,0,0.1c0,0.1,0,0.1,0,0.2c0,0.1,0,0.1,0,0.2c0,0.1,0,0.1,0,0.2c0,0.1,0,0.1,0,0.2c0,0.1,0,0.1,0,0.2
			c0,0,0,0.1,0,0.1l-9.5,0.1c0-0.5,0-1,0-1.5c0-5.8,1.8-11.1,4.8-15.2c3,4.1,4.8,9.4,4.8,15.2C251,75.2,251,75.3,251,75.4z
			 M253.4,76.5c0-0.1,0-0.1,0-0.2c0,0,0-0.1,0-0.1c0-0.1,0-0.2,0-0.2c0,0,0-0.1,0-0.1c0-0.1,0-0.2,0-0.3c0,0,0-0.1,0-0.1
			c0-0.1,0-0.2,0-0.4c0-6.6-2.1-12.6-5.6-17.2c3.8-4.2,8.9-6.8,14.6-6.8c5.6,0,10.8,2.5,14.6,6.8c-3.5,4.6-5.6,10.7-5.6,17.2
			c0,0.4,0,0.9,0,1.3L253.4,76.5z M283.3,75.4c0,0,0,0.1,0,0.1c0,0.1,0,0.1,0,0.2c0,0.1,0,0.1,0,0.2c0,0.1,0,0.1,0,0.2
			c0,0.1,0,0.1,0,0.2c0,0,0,0,0,0.1l-9.5,0.1c0-0.4,0-0.9,0-1.3c0-5.8,1.8-11.1,4.8-15.2c3,4.1,4.8,9.4,4.8,15.2
			C283.3,75.2,283.3,75.3,283.3,75.4z M285.8,76.3C285.8,76.3,285.8,76.3,285.8,76.3c0-0.2,0-0.2,0-0.3c0,0,0-0.1,0-0.1
			c0-0.1,0-0.2,0-0.3c0,0,0-0.1,0-0.1c0-0.1,0-0.2,0-0.4c0-6.6-2.1-12.6-5.6-17.2c3.8-4.2,8.9-6.8,14.6-6.8c5.6,0,10.8,2.5,14.6,6.8
			c-3.5,4.6-5.6,10.7-5.6,17.2c0,0.4,0,0.7,0,1.1L285.8,76.3z M315.7,75.4c0,0,0,0.1,0,0.1c0,0.1,0,0.1,0,0.2c0,0.1,0,0.1,0,0.2
			c0,0.1,0,0.1,0,0.2l-9.5,0.1c0-0.4,0-0.7,0-1.1c0-5.8,1.8-11.1,4.8-15.2c3,4.1,4.8,9.4,4.8,15.2C315.7,75.2,315.7,75.3,315.7,75.4
			z M348.1,75.4c0,0,0,0.1,0,0.1c0,0.1,0,0.1,0,0.2c0,0,0,0.1,0,0.1l-29.9,0.2c0,0,0-0.1,0-0.1c0,0,0-0.1,0-0.1c0-0.1,0-0.2,0-0.3
			c0,0,0-0.1,0-0.1c0-0.1,0-0.2,0-0.4c0-6.6-2.1-12.6-5.6-17.2c3.8-4.2,8.9-6.8,14.6-6.8c5.7,0,10.9,2.6,14.8,7
			c3.8,4.3,6.2,10.3,6.2,17C348.1,75.2,348.1,75.3,348.1,75.4z"/>
		<path class="st1" d="M428.4,313h69.7c-14.9-14.4-30.9-35.4-46.6-59c-14.6-21.9-28.9-46.1-42-69.4c-15.7-28-29.5-54.7-39.4-74.7
			c0.2,0.3,0.3,0.7,0.5,1H84.9l-10-33.2c0,0-11.6,68.9-37.9,135.1c-9.5,32.4-21.1,71.5-35.2,118.1l13-2c-0.2,1.9-0.4,3.8-0.5,5.7
			l60.1-7.8l78.1,7.7l0.4,1.2l279.5-1.2c-0.9-6.2-2-12.7-3.4-19.7C428.7,314.3,428.6,313.7,428.4,313z"/>
		<path class="st2" d="M74.9,77.8c0,0-20.5,64.8-37.9,135.1C27,253.6,18,296.1,14.8,329c-0.2,1.9-0.4,3.8-0.5,5.7l60.1-7.8l78.1,7.7
			L74.9,77.8z"/>
		<path class="st3" d="M369.9,109.5c-0.1-0.3-0.3-0.6-0.4-0.9c0-0.1-0.1-0.1-0.1-0.2c-0.3-0.6-0.6-1.2-0.9-1.8c0,0,0-0.1,0-0.1
			c-0.1-0.1-0.1-0.3-0.2-0.4c0,0,0,0,0,0c-7.1-14.3-12-24.6-13.8-28.5c0,0,0,0,0,0c-0.2-0.5-0.4-0.8-0.5-1.1c0-0.1-0.1-0.1-0.1-0.2
			c0,0,0-0.1,0-0.1c0,0,0,0,0,0c0,0,0-0.1-0.1-0.1c0,0,0-0.1-0.1-0.1c0,0,0,0,0,0c0,0,0-0.1,0-0.1c0,0,0,0,0,0c0,0,0,0,0,0
			c0,0,0,0,0,0l-3,0c-0.1,4.5-1.2,8.6-3,12.3c-1.5,3.1-3.6,5.7-6.1,7.9c-2.2,1.9-4.7,3.4-7.5,4.4c-0.5-0.7-0.8-1.5-1.1-2.3
			c2.5-0.8,4.9-2.2,6.9-4c2.5-2.2,4.5-5,6-8.2c1.4-3,2.2-6.5,2.3-10.1l0,0l-29.9,0.2l0,0c-0.1,4.4-1.2,8.5-3,12.1
			c-1.5,3.1-3.6,5.7-6.1,7.9c-2.2,1.9-4.7,3.4-7.5,4.4c-0.5-0.7-0.8-1.5-1.1-2.3c2.5-0.8,4.9-2.2,6.9-4c2.5-2.2,4.5-5,6-8.2
			c1.3-3,2.1-6.3,2.2-9.9l-9.5,0.1l-2.5,0l-17.9,0.1c-0.2,4.3-1.2,8.3-3,11.8c-1.5,3.1-3.6,5.7-6.1,7.9c-2.2,1.9-4.7,3.4-7.4,4.4
			c-0.5-0.7-0.8-1.5-1.1-2.3c2.5-0.8,4.9-2.2,6.9-4c2.5-2.2,4.5-5,6-8.2c1.3-2.9,2.1-6.2,2.2-9.6l-9.5,0.1l-2.5,0l-17.9,0.1h0
			c-0.2,4.2-1.3,8.1-3,11.6c-1.5,3.1-3.6,5.7-6.1,7.9c-2.2,1.9-4.7,3.4-7.5,4.4c-0.5-0.7-0.8-1.5-1.1-2.3c2.5-0.8,4.9-2.2,6.9-4
			c2.5-2.2,4.5-5,6-8.2c1.3-2.9,2.1-6,2.2-9.4l0,0l-9.5,0.1l-2.5,0L221,76.8l0,0c-0.2,4.1-1.3,8-3,11.4c-1.5,3.1-3.6,5.7-6.1,7.9
			c-2.2,1.9-4.7,3.4-7.5,4.4c-0.5-0.7-0.8-1.5-1.1-2.3c2.5-0.8,4.9-2.2,6.9-4c2.5-2.2,4.5-5,6-8.2c1.2-2.8,2-5.9,2.2-9.2l-9.4,0.1
			l-2.5,0l-18,0.1l0,0c-0.3,4-1.3,7.8-3,11.2c-1.5,3.1-3.6,5.7-6.1,7.9c-2.2,1.9-4.7,3.4-7.5,4.4c-0.5-0.7-0.8-1.5-1.1-2.3
			c2.5-0.8,4.9-2.2,6.9-4c2.5-2.2,4.5-5,6-8.2c1.2-2.7,2-5.7,2.2-9l-9.4,0.1l-2.5,0l-18,0.1h0c-0.3,3.9-1.3,7.6-3,10.9
			c-1.5,3.1-3.6,5.7-6.1,7.9c-2.2,1.9-4.7,3.4-7.5,4.4c-0.5-0.7-0.8-1.5-1.1-2.3c2.5-0.8,4.9-2.2,6.9-4c2.5-2.2,4.5-5,6-8.2
			c1.2-2.7,1.9-5.6,2.2-8.7l-9.4,0.1l-2.5,0l-18,0.1l0,0c-0.3,3.9-1.3,7.5-2.9,10.7c-1.5,3.1-3.6,5.7-6.1,7.9
			c-2.2,1.9-4.7,3.4-7.5,4.4c-0.5-0.7-0.8-1.5-1.1-2.3c2.5-0.8,4.9-2.2,6.9-4c2.5-2.2,4.5-5,6-8.2c1.2-2.6,1.9-5.5,2.2-8.5l-9.3,0.1
			l-2.5,0l-29.9,0.2l-2.5,0l-2.3,0l10,33.2h285.8C370.4,110.5,370.2,110,369.9,109.5z"/>
		<path class="st4" d="M178.8,313l-31.4-67.6L93.2,128.9L84.9,111L170.1,322l258.7-7c-0.1-0.6-0.3-1.3-0.4-1.9H178.8z"/>
		<path class="st1" d="M214.4,199l-2.7-5.7l-27.8-15.1c-2.1,3.7-4.1,7.5-6.2,11.2c-0.9,1.7-1.8,3.6-3.6,4.6
			c-2.2,1.2-4.5,0.3-6.3-1.2c-3.1-2.5-6-5.2-8.9-7.8c-1.4-1.2-1.2-3.5,0-4.7c1.3-1.3,3.4-1.2,4.7,0c2.6,2.3,5.1,4.5,7.7,6.8
			c0,0,0.1,0,0.1,0.1c0.8-1.4,1.5-2.7,2.3-4.1c1.5-2.6,2.9-5.3,4.4-7.9l-33.9-18.4h-9.8v-1.3h7.4l-10.7-5.8l23.1,49.6H214.4z"/>
		<polygon class="st1" points="397.5,294.3 237.2,294.3 271.8,313 432.1,313 		"/>
		<polygon class="st5" points="215.9,199 222.3,199 213.7,194.4 		"/>
		<polygon class="st1" points="237.4,248.4 177,248.4 177,247.1 236.7,247.1 215,200.4 154.7,200.4 185.2,266 234.8,292.9 
			258,292.9 		"/>
		<polygon class="st1" points="320,292.9 299.3,248.4 238.8,248.4 259.5,292.9 		"/>
		<polygon class="st5" points="296.5,239.4 300.1,247.1 310.7,247.1 		"/>
		<polygon class="st1" points="224.7,200.4 216.5,200.4 238.2,247.1 298.6,247.1 294.6,238.3 		"/>
		<polygon class="st1" points="300.7,248.4 321.4,292.9 395,292.9 313.1,248.4 		"/>
		<polygon class="st1" points="129.1,148.4 93.2,128.9 147.4,245.4 183.2,264.9 		"/>
		<path class="st1" d="M253.3,146.3l16.6,9h44.9c-7.8-15.1-13.1-26.3-14.9-30.3l-1.4-0.8l-55.1,0.4L253.3,146.3z"/>
		<path class="st1" d="M302.7,128.1c1.6,3.4,4,8.3,7,14.3c1.9,3.9,4.1,8.2,6.5,12.9h39.3l-53.7-29.2
			C302,126.7,302.3,127.4,302.7,128.1z"/>
		<path class="st1" d="M396.4,200.4h-43.6l65.3,35.5C410.5,224.1,403.2,212,396.4,200.4z"/>
		<polygon class="st1" points="295.9,122.9 274,111 188.4,111 211.3,123.4 		"/>
		<path class="st1" d="M316.9,156.6c5,9.6,10.9,20.8,17.5,32.5c0.3,0.6,0.6,1.1,1,1.7l15.1,8.2h45.3c-1.8-3.1-3.5-6.2-5.2-9.3
			c-4.3-7.7-8.3-15.1-12-22l-20.6-11.2H316.9z"/>
		<path class="st1" d="M315.4,156.6h-43.1l60.8,33.1C326.4,177.6,320.4,166.3,315.4,156.6z"/>
		<polygon class="st5" points="241.9,125 242.8,124.6 213.7,124.8 251.3,145.2 		"/>
		<path class="st1" d="M380.6,168.9c3.4,6.4,7.1,13.2,11,20.2c8.7,15.5,18.5,32.1,29,48.1l31,16.8c-14.6-21.9-28.9-46.1-42-69.4
			L380.6,168.9z"/>
		<path class="st6" d="M339.9,94.2c2.5-2.2,4.5-5,6-8.2c-1.5-1.4-3.4-2.3-5.8-2.2c-3.4,0.1-5.7,2-7,4.5c-1.1,2.2-1.4,4.8-0.9,7.3
			c0.2,0.9,0.4,1.7,0.7,2.5C335.5,97.3,337.8,96,339.9,94.2z"/>
		<path class="st6" d="M341.5,96c-2.2,1.9-4.7,3.4-7.5,4.4c0.2,0.4,0.5,0.8,0.8,1.1c1.4,1.7,3.4,2.9,5.6,3c3.2,0.2,6.3-1.8,7.7-4.6
			c1.8-3.5,1.4-8.3-0.6-11.8C346,91.2,344,93.9,341.5,96z"/>
		<path class="st6" d="M307.5,94.2c2.5-2.2,4.5-5,6-8.2c-1.5-1.4-3.4-2.3-5.8-2.2c-3.4,0.1-5.7,2-7,4.5c-1.1,2.2-1.4,4.8-0.9,7.3
			c0.2,0.9,0.4,1.7,0.7,2.5C303.1,97.3,305.4,96,307.5,94.2z"/>
		<path class="st6" d="M309.1,96c-2.2,1.9-4.7,3.4-7.5,4.4c0.2,0.4,0.5,0.8,0.8,1.1c1.4,1.7,3.4,2.9,5.6,3c3.2,0.2,6.3-1.8,7.7-4.6
			c1.8-3.5,1.4-8.3-0.6-11.8C313.6,91.2,311.6,93.9,309.1,96z"/>
		<path class="st6" d="M275.1,94.2c2.5-2.2,4.5-5,6-8.2c-1.5-1.4-3.4-2.3-5.8-2.2c-3.4,0.1-5.7,2-7,4.5c-1.1,2.2-1.4,4.8-0.9,7.3
			c0.2,0.9,0.4,1.7,0.7,2.5C270.7,97.3,273.1,96,275.1,94.2z"/>
		<path class="st6" d="M276.8,96c-2.2,1.9-4.7,3.4-7.4,4.4c0.2,0.4,0.5,0.8,0.8,1.1c1.4,1.7,3.4,2.9,5.6,3c3.2,0.2,6.3-1.8,7.7-4.6
			c1.8-3.5,1.4-8.3-0.6-11.8C281.3,91.2,279.2,93.9,276.8,96z"/>
		<path class="st6" d="M244.4,96c-2.2,1.9-4.7,3.4-7.5,4.4c0.2,0.4,0.5,0.8,0.8,1.1c1.4,1.7,3.4,2.9,5.6,3c3.2,0.2,6.3-1.8,7.7-4.6
			c1.8-3.5,1.4-8.3-0.6-11.8C248.9,91.2,246.8,93.9,244.4,96z"/>
		<path class="st6" d="M242.7,94.2c2.5-2.2,4.5-5,6-8.2c-1.5-1.4-3.4-2.3-5.8-2.2c-3.4,0.1-5.7,2-7,4.5c-1.1,2.2-1.4,4.8-0.9,7.3
			c0.2,0.9,0.4,1.7,0.7,2.5C238.3,97.3,240.7,96,242.7,94.2z"/>
		<path class="st6" d="M212,96c-2.2,1.9-4.7,3.4-7.5,4.4c0.2,0.4,0.5,0.8,0.8,1.1c1.4,1.7,3.4,2.9,5.6,3c3.2,0.2,6.3-1.8,7.7-4.6
			c1.8-3.5,1.4-8.3-0.6-11.8C216.5,91.2,214.5,93.9,212,96z"/>
		<path class="st6" d="M210.4,94.2c2.5-2.2,4.5-5,6-8.2c-1.5-1.4-3.4-2.3-5.8-2.2c-3.4,0.1-5.7,2-7,4.5c-1.1,2.2-1.4,4.8-0.9,7.3
			c0.2,0.9,0.4,1.7,0.7,2.5C206,97.3,208.3,96,210.4,94.2z"/>
		<path class="st6" d="M178,94.2c2.5-2.2,4.5-5,6-8.2c-1.5-1.4-3.4-2.3-5.8-2.2c-3.4,0.1-5.7,2-7,4.5c-1.1,2.2-1.4,4.8-0.9,7.3
			c0.2,0.9,0.4,1.7,0.7,2.5C173.6,97.3,175.9,96,178,94.2z"/>
		<path class="st6" d="M179.6,96c-2.2,1.9-4.7,3.4-7.5,4.4c0.2,0.4,0.5,0.8,0.8,1.1c1.4,1.7,3.4,2.9,5.6,3c3.2,0.2,6.3-1.8,7.7-4.6
			c1.8-3.5,1.4-8.3-0.6-11.8C184.1,91.2,182.1,93.9,179.6,96z"/>
		<path class="st6" d="M145.6,94.2c2.5-2.2,4.5-5,6-8.2c-1.5-1.4-3.4-2.3-5.8-2.2c-3.4,0.1-5.7,2-7,4.5c-1.1,2.2-1.4,4.8-0.9,7.3
			c0.2,0.9,0.4,1.7,0.7,2.5C141.2,97.3,143.6,96,145.6,94.2z"/>
		<path class="st6" d="M147.2,96c-2.2,1.9-4.7,3.4-7.5,4.4c0.2,0.4,0.5,0.8,0.8,1.1c1.4,1.7,3.4,2.9,5.6,3c3.2,0.2,6.3-1.8,7.7-4.6
			c1.8-3.5,1.4-8.3-0.6-11.8C151.8,91.2,149.7,93.9,147.2,96z"/>
		<path class="st6" d="M113.2,94.2c2.5-2.2,4.5-5,6-8.2c-1.5-1.4-3.4-2.3-5.8-2.2c-3.4,0.1-5.7,2-7,4.5c-1.1,2.2-1.4,4.8-0.9,7.3
			c0.2,0.9,0.4,1.7,0.7,2.5C108.8,97.3,111.2,96,113.2,94.2z"/>
		<path class="st6" d="M114.9,96c-2.2,1.9-4.7,3.4-7.5,4.4c0.2,0.4,0.5,0.8,0.8,1.1c1.4,1.7,3.4,2.9,5.6,3c3.2,0.2,6.3-1.8,7.7-4.6
			c1.8-3.5,1.4-8.3-0.6-11.8C119.4,91.2,117.3,93.9,114.9,96z"/>
		<path class="st6" d="M464.7,293.1c-14.9-14.4-30.1-34.5-44.1-55.9c-10.5-15.9-20.3-32.6-29-48.1c-3.9-7-7.6-13.8-11-20.2
			c-5.4-10.1-10-19.2-13.6-26.5c-3-6-5.3-10.9-7-14.3c-0.8-1.7-1.4-3-1.8-3.9c-0.4-0.9-0.6-1.4-0.6-1.4l-0.2-0.4l-61.4,0.4
			l-84.6,0.5l-93.5,0.6l11.3,24.3l54.2,116.5l13.6,29.4h269L464.7,293.1z M418.1,235.9c2.5,3.8,5,7.5,7.5,11.2H370
			c-10.4-15.1-20.3-31.2-29.3-46.7h55.7C403.2,212,410.5,224.1,418.1,235.9z M276.3,199h-60.4l-2.2-4.7l-17.6-37.8h60.4L276.3,199z
			 M258.1,156.6h57.3c5,9.8,11,21.1,17.7,33.1c0,0,0,0.1,0.1,0.1c1.7,3,3.5,6.1,5.2,9.3h-60.6L258.1,156.6z M276.9,200.4l17.6,38
			l4.1,8.7h-60.4l-21.7-46.7H276.9z M296.5,239.4l-18.1-39h60.8c8.9,15.4,18.8,31.6,29.2,46.7h-68.2L296.5,239.4z M378.5,167.8
			c3.7,6.9,7.7,14.3,12,22c1.7,3,3.5,6.1,5.2,9.3h-55.7c-1.6-2.8-3.1-5.5-4.7-8.2c-0.3-0.6-0.6-1.1-1-1.7
			c-6.6-11.8-12.5-22.9-17.5-32.5h55.8C374.4,160.1,376.4,163.9,378.5,167.8z M356.5,123.8c1.1,2.3,6.7,14.3,15.5,31.4h-55.8
			c-2.4-4.7-4.6-9-6.5-12.9c-3-6-5.3-10.9-7-14.3c-0.4-0.8-0.7-1.5-1-2.1c-0.3-0.7-0.6-1.3-0.9-1.8c0,0,0,0,0,0L356.5,123.8z
			 M298.3,124.2l1.1,0c0.1,0.2,0.2,0.5,0.4,0.8c1.8,3.9,7.2,15.1,14.9,30.3h-57.2l-4.2-9l-10.1-21.7L298.3,124.2z M213.7,124.8
			l29.1-0.2l-0.9,0.4l9.4,20.2l4.7,10.1h-60.4L181.4,125L213.7,124.8z M131,149.4l-11.2-24.1L180,125l0,0l14.1,30.3l-60.3,0.1
			L131,149.4z M134.4,156.6h60.3l17.1,36.7l2.7,5.7h-60.3L134.4,156.6z M197.7,292.9l-12.5-27l-30.5-65.6H215l21.7,46.7H177v1.3
			h60.3l20.7,44.5H197.7z M259.5,292.9l-20.7-44.5h60.4l20.7,44.5H259.5z M321.4,292.9l-20.7-44.5h68.5
			c11.7,16.9,23.9,32.5,36.1,44.5H321.4z M407.3,292.9c-12.2-11.8-24.6-27.5-36.4-44.5h55.7c11.7,16.9,23.9,32.5,36.1,44.5H407.3z"
			/>
		<path class="st7" d="M14.8,329c-0.2,1.9-0.4,3.8-0.5,5.7l60.1-7.8l0.5-249c0,0-20.5,64.8-37.9,135.1C27,253.6,18,296.1,14.8,329z"
			/>
	</g>
	<g>
		<circle class="st3" cx="406.7" cy="84.9" r="76.9"/>
		<circle class="st1" cx="406.7" cy="84.9" r="66.2"/>
		<path class="st6" d="M413.5,46l-1.9,59.9c-0.4,6.2-9.2,6.2-9.7,0c0,0-1.9-59.9-1.9-59.9c-0.1-3.7,2.8-6.9,6.5-7
			C410.4,38.8,413.6,42.1,413.5,46L413.5,46z"/>
		<circle class="st6" cx="406.7" cy="124.2" r="6.5"/>
	</g>
	<path class="st3" d="M339.3,231.3l-13.2-9l11.7-10.8c1.4-1.3,1.4-3.4,0.2-4.7c-1.3-1.4-3.4-1.4-4.7-0.2l-12.9,11.9l-14.5-9.9
		c-1.5-1-3.6-0.6-4.6,0.9c-1,1.5-0.6,3.6,0.9,4.6l13.2,9l-11.7,10.8c-1.4,1.3-1.4,3.4-0.2,4.7c1.3,1.4,3.4,1.4,4.7,0.2l12.9-11.9
		l14.5,9.9c1.5,1,3.6,0.6,4.6-0.9C341.3,234.5,340.9,232.4,339.3,231.3z"/>
</g>
</svg>
