<?xml version="1.0" encoding="utf-8"?>
<!-- Generator: Adobe Illustrator 24.3.0, SVG Export Plug-In . SVG Version: 6.00 Build 0)  -->
<svg version="1.1" id="Layer_1" xmlns="http://www.w3.org/2000/svg" xmlns:xlink="http://www.w3.org/1999/xlink" x="0px" y="0px"
	 viewBox="0 0 500 500" style="enable-background:new 0 0 500 500;" xml:space="preserve">
<style type="text/css">
	.st0{fill-rule:evenodd;clip-rule:evenodd;fill:#F8B54D;}
	.st1{fill-rule:evenodd;clip-rule:evenodd;fill:#FFD15C;}
	.st2{fill-rule:evenodd;clip-rule:evenodd;fill:#FDE187;}
	.st3{fill-rule:evenodd;clip-rule:evenodd;fill:#F5F5E0;}
	.st4{fill-rule:evenodd;clip-rule:evenodd;fill:#4B2511;}
	.st5{fill-rule:evenodd;clip-rule:evenodd;fill:#FFFFFF;}
</style>
<path class="st0" d="M183.9,363.2h131.9c-20.6-23.1-30.8-53.1-36-79.3c-6.4-30-5.6-54-5.6-54H225c0,0,0.9,24-5.1,54
	C215.1,310.1,204.8,340.1,183.9,363.2L183.9,363.2z"/>
<path class="st0" d="M177.9,245c-1.3,0-2.6,0-3.9-0.9l-54-27.8c-24-12.4-41.5-34.7-48.4-60.4L56.2,95c-2.6-10.3-0.4-21.4,6.4-30
	c6.8-8.6,16.7-13.7,27.8-13.7h87.4c4.7,0,8.6,3.9,8.6,9c0,4.7-3.9,8.6-8.6,8.6H90.5c-5.6,0-10.7,2.6-14.1,6.8
	c-3.4,4.3-4.7,9.9-3.4,15l15.4,60.8c5.6,21,19.7,39,39.4,49.3l54.4,27.8c3.9,2.2,5.6,7.7,3.4,11.6C184.3,243.2,181.3,245,177.9,245
	L177.9,245z"/>
<path class="st0" d="M320.9,245c-3,0-6-1.7-7.7-4.7c-2.1-3.9-0.4-9.4,3.9-11.6l54-27.8c19.7-10.3,34.3-28.3,39.4-49.3l15.4-60.8
	c1.3-5.1,0.4-10.7-3-15c-3.4-4.3-8.6-6.8-14.1-6.8h-87.8c-4.7,0-8.6-3.9-8.6-8.6c0-5.1,3.8-9,8.6-9h87.8c10.7,0,21,5.1,27.8,13.7
	c6.4,8.6,9,19.7,6,30l-15.4,60.8c-6.4,25.7-24,48-48,60.4l-54,27.8C323.9,245,322.2,245,320.9,245L320.9,245z"/>
<path class="st1" d="M249.4,293.4L249.4,293.4c-58.2,0-105.8-47.1-106.2-105.4l-1.3-164.5h107.9h107.1L355.6,188c0,0.9,0,1.7,0,2.6
	v0.4c0,0.9,0,1.7,0,2.6l0,0c0,0.9,0,1.7-0.4,2.6l0,0c0,0.9,0,1.7,0,2.6l0,0c0,0.9-0.4,1.7-0.4,2.6c0,1.7-0.4,3.4-0.9,5.1v0.4l0,0
	c0,0.8-0.4,1.7-0.4,2.6c-0.4,2.6-1.3,4.7-1.7,7.3h-0.4c0,0.9-0.4,1.7-0.4,2.6l0,0C337.2,262.5,296.9,293.4,249.4,293.4L249.4,293.4z
	"/>
<rect x="177.9" y="358.9" class="st2" width="143.1" height="16.7"/>
<path class="st1" d="M141.9,396.6h215l0,0c0-13.7-11.1-25.3-25.3-25.3H167.6C153.4,371.3,141.9,382.9,141.9,396.6L141.9,396.6z"/>
<rect x="108.9" y="395.3" class="st3" width="281.4" height="94.7"/>
<rect x="189.4" y="422.3" class="st4" width="120.4" height="40.3"/>
<path class="st5" d="M199.7,446.7c2.1,0,3.9-2.1,3.9-4.3c0-2.1-1.7-3.9-3.9-3.9c-2.1,0-4.3,1.7-4.3,3.9
	C195.4,444.6,197.6,446.7,199.7,446.7L199.7,446.7z"/>
<path class="st5" d="M300.8,446.7c2.2,0,3.9-2.1,3.9-4.3c0-2.1-1.7-3.9-3.9-3.9c-2.1,0-3.9,1.7-3.9,3.9
	C296.9,444.6,298.7,446.7,300.8,446.7L300.8,446.7z"/>
</svg>
