<svg width="17" height="17" viewBox="0 0 17 17" fill="none" xmlns="http://www.w3.org/2000/svg">
<g clip-path="url(#clip0_116_33991)">
<path d="M15.725 1.53205C15.3212 1.19514 14.8474 0.952385 14.3381 0.821409C13.8288 0.690433 13.2967 0.674527 12.7805 0.774844L11.531 1.08084C10.8789 1.20034 10.2894 1.54469 9.865 2.05397C9.44062 2.56325 9.20825 3.20521 9.20833 3.86814V14.8239C8.73861 14.8926 8.26139 14.8926 7.79167 14.8239V3.86814C7.79402 3.21133 7.56702 2.5743 7.14984 2.06699C6.73266 1.55968 6.15148 1.2139 5.50658 1.08934L4.17917 0.766344C3.66857 0.67291 3.14368 0.692854 2.64164 0.824764C2.13961 0.956674 1.6727 1.19732 1.27398 1.52968C0.875264 1.86204 0.554474 2.27798 0.334321 2.74805C0.114168 3.21813 3.45755e-05 3.73085 0 4.24993L0 11.895C4.06979e-05 12.7243 0.291108 13.5273 0.82247 14.164C1.35383 14.8007 2.09179 15.2308 2.90771 15.3793L7.36029 16.1889C8.11393 16.3258 8.88607 16.3258 9.63971 16.1889L14.0958 15.3793C14.9111 15.2301 15.6482 14.7997 16.1789 14.163C16.7095 13.5264 17.0001 12.7238 17 11.895V4.24993C17.0003 3.73103 16.8862 3.21845 16.6659 2.74868C16.4455 2.27891 16.1242 1.86351 15.725 1.53205Z" fill="#16122D"/>
</g>
<defs>
<clipPath id="clip0_116_33991">
<rect width="17" height="17" fill="white"/>
</clipPath>
</defs>
</svg>
