<svg width="17" height="17" viewBox="0 0 17 17" fill="none" xmlns="http://www.w3.org/2000/svg">
<g clip-path="url(#clip0_116_34078)">
<path d="M10.4996 8.29317C10.5366 8.31338 10.5673 8.34336 10.5884 8.37983C10.6095 8.4163 10.6202 8.45787 10.6193 8.5C10.6215 8.53594 10.6149 8.57186 10.6001 8.60468C10.5852 8.6375 10.5627 8.66623 10.5343 8.68842L6.72917 10.5924C6.69293 10.6124 6.6521 10.6227 6.6107 10.6222C6.5693 10.6217 6.52874 10.6104 6.49302 10.5894C6.45729 10.5685 6.42763 10.5386 6.40694 10.5028C6.38625 10.4669 6.37524 10.4263 6.375 10.3849V6.61512C6.3742 6.5731 6.38485 6.53164 6.40582 6.4952C6.42678 6.45877 6.45726 6.42872 6.494 6.40829C6.52782 6.38879 6.56617 6.37853 6.60521 6.37854C6.66232 6.38022 6.718 6.39683 6.76671 6.42671L10.4996 8.29317ZM17 3.54167V13.4583C16.9989 14.3973 16.6254 15.2975 15.9614 15.9614C15.2975 16.6254 14.3973 16.9989 13.4583 17H3.54167C2.6027 16.9989 1.70252 16.6254 1.03857 15.9614C0.374625 15.2975 0.00112473 14.3973 0 13.4583L0 3.54167C0.00112473 2.6027 0.374625 1.70252 1.03857 1.03857C1.70252 0.374625 2.6027 0.00112473 3.54167 0L13.4583 0C14.3973 0.00112473 15.2975 0.374625 15.9614 1.03857C16.6254 1.70252 16.9989 2.6027 17 3.54167ZM12.036 8.5C12.0363 8.20155 11.9556 7.90861 11.8027 7.65231C11.6498 7.39601 11.4303 7.18592 11.1676 7.04437L7.429 5.17792C7.17719 5.03344 6.89181 4.95773 6.60149 4.95838C6.31118 4.95904 6.02614 5.03602 5.77498 5.18163C5.52382 5.32723 5.31537 5.53632 5.17054 5.78793C5.02571 6.03954 4.94959 6.32481 4.94983 6.61512V10.3849C4.94813 10.6751 5.02358 10.9606 5.16845 11.2122C5.31332 11.4637 5.52241 11.6722 5.77433 11.8164C6.02934 11.9653 6.31913 12.0442 6.61442 12.0452C6.88759 12.0464 7.15629 11.9759 7.39358 11.8405L11.2016 9.93721C11.4562 9.79383 11.6678 9.58496 11.8145 9.33225C11.9613 9.07955 12.0377 8.7922 12.036 8.5Z" fill="#16122D"/>
</g>
<defs>
<clipPath id="clip0_116_34078">
<rect width="17" height="17" fill="white"/>
</clipPath>
</defs>
</svg>
