<svg width="17" height="17" viewBox="0 0 17 17" fill="none" xmlns="http://www.w3.org/2000/svg">
<g clip-path="url(#clip0_116_33990)">
<path d="M12.0417 0H5.66675V11.3333H15.5834V3.54167C15.5834 2.60236 15.2103 1.70152 14.5461 1.03733C13.8819 0.373139 12.9811 0 12.0417 0V0Z" fill="#5344C6"/>
<path d="M3.11321 11.3765C3.25423 11.3477 3.39781 11.3332 3.54175 11.3333H4.25008V0.0708008C3.45011 0.234093 2.73113 0.668763 2.21482 1.30124C1.69851 1.93373 1.41658 2.72517 1.41675 3.54163V12.0593C1.91191 11.6857 2.49729 11.4501 3.11321 11.3765Z" fill="#5344C6"/>
<path d="M15.5834 12.75H3.54175C2.97816 12.75 2.43766 12.9739 2.03915 13.3724C1.64063 13.7709 1.41675 14.3114 1.41675 14.875C1.41675 15.4386 1.64063 15.9791 2.03915 16.3776C2.43766 16.7761 2.97816 17 3.54175 17H12.0417C12.5068 17 12.9674 16.9084 13.3971 16.7304C13.8268 16.5524 14.2172 16.2915 14.5461 15.9627C14.875 15.6338 15.1358 15.2434 15.3138 14.8137C15.4918 14.384 15.5834 13.9234 15.5834 13.4583V12.75Z" fill="#5344C6"/>
</g>
<defs>
<clipPath id="clip0_116_33990">
<rect width="17" height="17" fill="white"/>
</clipPath>
</defs>
</svg>
