<svg width="11" height="11" viewBox="0 0 11 11" fill="none" xmlns="http://www.w3.org/2000/svg">
<g clip-path="url(#clip0_116_45713)">
<path d="M0.608175 5.68341L2.23984 6.87508L1.62017 8.79412C1.52003 9.09176 1.51877 9.41379 1.61656 9.7122C1.71435 10.0106 1.90597 10.2694 2.16284 10.4501C2.41532 10.6365 2.72127 10.7364 3.03512 10.7348C3.34897 10.7333 3.65391 10.6303 3.90451 10.4414L5.49997 9.26712L7.09588 10.44C7.3479 10.6254 7.65221 10.7261 7.96505 10.7276C8.2779 10.7291 8.58317 10.6314 8.83698 10.4485C9.09079 10.2656 9.28007 10.0069 9.3776 9.70963C9.47512 9.41237 9.47588 9.09184 9.37976 8.79412L8.76009 6.87508L10.3918 5.68341C10.6434 5.4994 10.8305 5.24055 10.9263 4.94384C11.0221 4.64714 11.0217 4.32775 10.9251 4.0313C10.8285 3.73485 10.6407 3.47651 10.3886 3.29316C10.1364 3.10982 9.83271 3.01086 9.52093 3.01041H7.51663L6.90842 1.11475C6.81278 0.816353 6.62484 0.556045 6.3717 0.371361C6.11857 0.186676 5.81331 0.0871582 5.49997 0.0871582C5.18662 0.0871582 4.88137 0.186676 4.62823 0.371361C4.37509 0.556045 4.18715 0.816353 4.09151 1.11475L3.4833 3.01041H1.48084C1.16906 3.01086 0.865387 3.10982 0.613207 3.29316C0.361027 3.47651 0.173235 3.73485 0.0766553 4.0313C-0.0199244 4.32775 -0.0203519 4.64714 0.075434 4.94384C0.17122 5.24055 0.358319 5.4994 0.610008 5.68341H0.608175Z" fill="#FAB932"/>
</g>
<defs>
<clipPath id="clip0_116_45713">
<rect width="11" height="11" fill="white"/>
</clipPath>
</defs>
</svg>
