<svg width="17" height="17" viewBox="0 0 17 17" fill="none" xmlns="http://www.w3.org/2000/svg">
<g clip-path="url(#clip0_116_33989)">
<path d="M1.1381 12.75C1.72401 13.7669 3.02334 14.1162 4.04022 13.5303C4.04092 13.5299 4.04158 13.5295 4.04228 13.5291L4.35748 13.3471C4.95248 13.8562 5.6364 14.2509 6.3748 14.5116V14.875C6.3748 16.0486 7.3262 17 8.4998 17C9.6734 17 10.6248 16.0486 10.6248 14.875V14.5116C11.3633 14.2505 12.0473 13.8553 12.6421 13.3457L12.9587 13.5284C13.9759 14.1152 15.2761 13.7664 15.8629 12.7493C16.4497 11.7322 16.1009 10.4319 15.0837 9.84509L14.7692 9.66377C14.9108 8.89342 14.9108 8.10372 14.7692 7.33334L15.0837 7.15202C16.1009 6.56522 16.4497 5.26499 15.8629 4.24784C15.2761 3.23073 13.9759 2.88187 12.9587 3.46866L12.6436 3.65072C12.048 3.14228 11.3636 2.74822 10.6248 2.48837V2.125C10.6248 0.951402 9.6734 0 8.4998 0C7.3262 0 6.3748 0.951402 6.3748 2.125V2.48837C5.6363 2.74945 4.95235 3.1447 4.35748 3.6543L4.04085 3.47086C3.02371 2.88402 1.72347 3.23289 1.13668 4.25C0.549877 5.26711 0.898709 6.56738 1.91585 7.15418L2.23035 7.3355C2.08878 8.10585 2.08878 8.89555 2.23035 9.66593L1.91585 9.84725C0.901531 10.4356 0.553828 11.7333 1.1381 12.75ZM8.4998 5.66668C10.0646 5.66668 11.3331 6.9352 11.3331 8.5C11.3331 10.0648 10.0646 11.3333 8.4998 11.3333C6.935 11.3333 5.66648 10.0648 5.66648 8.5C5.66648 6.9352 6.935 5.66668 8.4998 5.66668Z" fill="#16122D"/>
</g>
<defs>
<clipPath id="clip0_116_33989">
<rect width="17" height="17" fill="white"/>
</clipPath>
</defs>
</svg>
