<svg width="9" height="9" viewBox="0 0 9 9" fill="none" xmlns="http://www.w3.org/2000/svg">
<g clip-path="url(#clip0_116_45743)">
<path d="M7.6845 2.98851L4.10775 0.365758C3.82839 0.161189 3.49783 0.0379746 3.15273 0.0097711C2.80762 -0.0184324 2.46145 0.0494768 2.15257 0.205972C1.8437 0.362466 1.58419 0.601434 1.40282 0.896385C1.22144 1.19134 1.12529 1.53075 1.125 1.87701V7.12513C1.12446 7.47173 1.22012 7.81167 1.40132 8.10713C1.58252 8.40259 1.84216 8.64196 2.15134 8.79861C2.46051 8.95526 2.8071 9.02303 3.1525 8.99439C3.49791 8.96575 3.8286 8.84181 4.10775 8.63638L7.6845 6.01363C7.92183 5.83946 8.11482 5.61186 8.24784 5.34925C8.38086 5.08663 8.45017 4.79639 8.45017 4.50201C8.45017 4.20763 8.38086 3.91738 8.24784 3.65477C8.11482 3.39215 7.92183 3.16455 7.6845 2.99038V2.98851Z" fill="#5344C6"/>
</g>
<defs>
<clipPath id="clip0_116_45743">
<rect width="9" height="9" fill="white"/>
</clipPath>
</defs>
</svg>
