<svg width="16" height="16" viewBox="0 0 16 16" fill="none" xmlns="http://www.w3.org/2000/svg">
<path d="M8.86194 12.3907L5.13794 8.66667C5.01296 8.54165 4.94275 8.37211 4.94275 8.19533C4.94275 8.01856 5.01296 7.84902 5.13794 7.724L8.86194 4C8.95517 3.90679 9.07395 3.84332 9.20325 3.81761C9.33255 3.7919 9.46658 3.8051 9.58838 3.85555C9.71018 3.906 9.81429 3.99142 9.88754 4.10103C9.9608 4.21064 9.99991 4.3395 9.99994 4.47133V11.9193C9.99991 12.0512 9.9608 12.18 9.88754 12.2896C9.81429 12.3992 9.71018 12.4847 9.58838 12.5351C9.46658 12.5856 9.33255 12.5988 9.20325 12.5731C9.07395 12.5473 8.95517 12.4839 8.86194 12.3907Z" fill="#5344C6"/>
</svg>
