<svg width="17" height="17" viewBox="0 0 17 17" fill="none" xmlns="http://www.w3.org/2000/svg">
<g clip-path="url(#clip0_116_34013)">
<path d="M1.41668 7.79168H9.20836C9.99072 7.79168 10.625 7.1574 10.625 6.375V1.41668C10.625 0.634279 9.99072 0 9.20832 0H1.41668C0.634279 0 0 0.634279 0 1.41668V6.375C0 7.1574 0.634279 7.79168 1.41668 7.79168Z" fill="#16122D"/>
<path d="M16.7576 0.62475C16.4943 0.234215 16.0542 6.64063e-05 15.5832 0H13.4582C12.6758 0 12.0415 0.634279 12.0415 1.41668V6.375C12.0415 7.1574 12.6757 7.79168 13.4582 7.79168H15.5832C16.3656 7.79168 16.9998 7.1574 16.9998 6.375V1.41668C17.0003 1.13438 16.9159 0.858467 16.7576 0.62475Z" fill="#16122D"/>
<path d="M4.33357 9.4505C4.09986 9.29219 3.82394 9.20779 3.54164 9.20825H1.41664C0.634279 9.20825 0 9.84253 0 10.6249V15.5833C0 16.3657 0.634279 16.9999 1.41668 16.9999H3.54168C4.32408 16.9999 4.95836 16.3657 4.95836 15.5833V10.6249C4.95826 10.1539 4.72411 9.7138 4.33357 9.4505Z" fill="#16122D"/>
<path d="M16.3752 9.4505C16.1415 9.29219 15.8656 9.20779 15.5833 9.20825H7.79168C7.00928 9.20825 6.375 9.84253 6.375 10.6249V15.5833C6.375 16.3657 7.00928 16.9999 7.79168 16.9999H15.5834C16.3658 16.9999 17 16.3657 17 15.5833V10.6249C16.9999 10.1539 16.7658 9.7138 16.3752 9.4505Z" fill="#16122D"/>
</g>
<defs>
<clipPath id="clip0_116_34013">
<rect width="17" height="17" fill="white"/>
</clipPath>
</defs>
</svg>
