<svg width="14" height="14" viewBox="0 0 14 14" fill="none" xmlns="http://www.w3.org/2000/svg">
<path d="M7.00005 2.33335C7.64439 2.33335 8.16673 1.81101 8.16673 1.16668C8.16673 0.522339 7.64439 0 7.00005 0C6.35571 0 5.83337 0.522339 5.83337 1.16668C5.83337 1.81101 6.35571 2.33335 7.00005 2.33335Z" fill="#16122D"/>
<path d="M7.00005 8.16673C7.64439 8.16673 8.16673 7.64439 8.16673 7.00005C8.16673 6.35571 7.64439 5.83337 7.00005 5.83337C6.35571 5.83337 5.83337 6.35571 5.83337 7.00005C5.83337 7.64439 6.35571 8.16673 7.00005 8.16673Z" fill="#16122D"/>
<path d="M7.00005 14C7.64439 14 8.16673 13.4777 8.16673 12.8333C8.16673 12.189 7.64439 11.6666 7.00005 11.6666C6.35571 11.6666 5.83337 12.189 5.83337 12.8333C5.83337 13.4777 6.35571 14 7.00005 14Z" fill="#16122D"/>
</svg>
