<?xml version="1.0" encoding="utf-8"?>
<!-- Generator: Adobe Illustrator 24.3.0, SVG Export Plug-In . SVG Version: 6.00 Build 0)  -->
<svg version="1.1" xmlns="http://www.w3.org/2000/svg" xmlns:xlink="http://www.w3.org/1999/xlink" x="0px" y="0px"
	 viewBox="0 0 500 500" style="enable-background:new 0 0 500 500;" xml:space="preserve">
<style type="text/css">
	.st0{fill-rule:evenodd;clip-rule:evenodd;fill:#91CFD5;}
	.st1{fill-rule:evenodd;clip-rule:evenodd;fill:#FFFFFF;}
	.st2{fill-rule:evenodd;clip-rule:evenodd;fill:#E5E9F9;}
	.st3{fill-rule:evenodd;clip-rule:evenodd;fill:#21214A;}
	.st4{fill-rule:evenodd;clip-rule:evenodd;fill:#FDFDFD;}
	.st5{fill-rule:evenodd;clip-rule:evenodd;fill:#EEC12E;}
	.st6{fill-rule:evenodd;clip-rule:evenodd;fill:#EAAC29;}
	.st7{fill-rule:evenodd;clip-rule:evenodd;fill:#E1764B;}
	.st8{fill-rule:evenodd;clip-rule:evenodd;fill:#D45F3C;}
	.st9{fill-rule:evenodd;clip-rule:evenodd;fill:#E69C36;}
	.st10{fill-rule:evenodd;clip-rule:evenodd;fill:#CB8038;}
	.st11{fill-rule:evenodd;clip-rule:evenodd;fill:#E48928;}
	.st12{fill-rule:evenodd;clip-rule:evenodd;fill:#666666;}
	.st13{fill-rule:evenodd;clip-rule:evenodd;fill:#B6BBCA;}
	.st14{fill-rule:evenodd;clip-rule:evenodd;fill:#E3C040;}
	.st15{fill-rule:evenodd;clip-rule:evenodd;fill:#DD9B41;}
	.st16{fill-rule:evenodd;clip-rule:evenodd;fill:#F9ECC9;}
	.st17{fill-rule:evenodd;clip-rule:evenodd;fill:#ECD6AC;}
	.st18{fill-rule:evenodd;clip-rule:evenodd;fill:#D5603E;}
	.st19{fill-rule:evenodd;clip-rule:evenodd;fill:#D7754E;}
	.st20{fill-rule:evenodd;clip-rule:evenodd;fill:#BF573A;}
	.st21{fill-rule:evenodd;clip-rule:evenodd;fill:#DD5253;}
	.st22{fill-rule:evenodd;clip-rule:evenodd;fill:#C63A3A;}
	.st23{fill-rule:evenodd;clip-rule:evenodd;fill:#F0CA99;}
	.st24{fill-rule:evenodd;clip-rule:evenodd;fill:#CB9A70;}
	.st25{fill-rule:evenodd;clip-rule:evenodd;fill:#E8B695;}
	.st26{fill-rule:evenodd;clip-rule:evenodd;fill:#E29C71;}
	.st27{fill-rule:evenodd;clip-rule:evenodd;fill:#E69797;}
	.st28{fill-rule:evenodd;clip-rule:evenodd;fill:#508CA6;}
	.st29{fill-rule:evenodd;clip-rule:evenodd;fill:#43778E;}
</style>
<g id="BACKGROUND">
	<rect x="0.1" class="st0" width="499.9" height="499.9"/>
</g>
<g id="OBJECTS">
	<g>
		<path class="st1" d="M202.6,258.8c38,0.4,69.5-0.8,102.1-0.1c59.7,1.9,19.9-39.4-2.9-15.2c12.2-35.3-40.4-43.9-51.6-9.9
			c-9.5-19-35.8-8.5-28.8,9.4C202.9,234.1,185.4,258.3,202.6,258.8z"/>
		<path class="st2" d="M202.6,258.8c38,0.4,69.5-0.8,102.1-0.1c37.4,1.2,35.8-14.6,23.7-20.6c-0.5,1.3-1.7,2.7-3.5,4.1
			c-7.3,5.8-37.7,10.4-36.7,9.1c9.4-12.4,0.1-12.9-11.2-6.2c-2.2,1.3-10.5,6.8-11.7,8.6c0.2-3.5,4.8-10.5-9.6-10.6
			c-6.4-0.1-16.7,3.3-16.7,11c0-0.1-30.5-4.3-32.4-4.8c-0.9-0.2-4.2-1.1-7.8-2.2C194.1,252.2,193.9,258.5,202.6,258.8z"/>
		<path class="st3" d="M255.5,258.7c-11-1.4-46.2-0.9-52.9-1c-3.2-0.1-4.9-1-5.6-2.4c-0.5-1.1-0.4-2.6,0.3-4.1
			c0.8-1.7,2.2-3.4,4-4.9c7.4-6,14.6-4.8,22.4-0.9c-2.6-5.6-4-11,0.7-16.2c1.3-1.5,3-2.7,4.9-3.5c1.9-0.8,4-1.2,6.1-1.2
			c8.1,0.2,11.8,5.5,15.1,11.9c4-12.8,12.1-21.8,26-23.2c3.7-0.4,7.5,0,10.9,1c3.4,1,6.5,2.6,8.9,4.9c5,4.5,7.6,11.5,5.4,20.6
			c-0.5,2-1.2,4.1-1.7,6.1c2.5-1.8,3.9-3.2,6.1-4.8c6.4-4.7,13.6-4.9,19.3-3c3.9,1.3,7.1,3.7,8.6,6.4c1.4,2.5,1.3,5.2-0.9,7.5
			c-8,8-44.4,5.5-56.1,6.6c14.7,0,47.4,5.3,57.6-5c3.1-3.1,3.2-6.8,1.3-10.1c-1.8-3.1-5.3-5.9-9.8-7.4c-6.5-2.2-14.9-1.8-22.2,4
			c2.3-9.9-0.6-17.5-6.1-22.5c-2.7-2.5-6.1-4.3-9.8-5.3c-3.7-1.1-7.7-1.4-11.7-1c-10.6,1.1-21.3,7.4-26.4,19.9
			c-3.7-5.9-9.2-8.5-14.5-8.6c-2.5-0.1-4.9,0.4-7,1.3c-2.2,0.9-4.2,2.3-5.7,4c-3,3.3-4.4,7.9-3.1,13.3c-7.7-2.7-15-0.3-19.7,3.5
			c-2.1,1.7-3.7,3.7-4.6,5.7c-1,2.1-1.1,4.2-0.3,6c1.5,3,8,3.1,18.1,3.2C228.8,259.7,250.5,258.7,255.5,258.7z"/>
	</g>
	<g>
		<path class="st4" d="M86.2,270.1c5.5-12.4-9.5-38.8-29.2-36.6c9.7-13-4.1-38.6-26.8-33.1c3.5-7.4,2.5-47.9-30.7-52.5v82.2
			C30.7,246.2,73.8,265.2,86.2,270.1z"/>
		<path class="st2" d="M-0.5,183.3v46.8c16.1,8.3,35.3,17.4,51.9,24.9c-3.3-23.8-20.8-36.4-35.5-38.9
			C15.4,203.7,9.2,191.1-0.5,183.3z"/>
		<path class="st3" d="M85.5,268.6c0.6-2,0.8-4.3,0.5-6.8c-0.5-4.7-2.6-10-5.8-14.6c-3.2-4.6-7.5-8.6-12.5-10.8
			c-3.3-1.4-6.9-2.1-10.6-1.7l-2.7,0.3l1.6-2.2c2.9-3.9,3.5-9,2.3-14.1c-0.6-2.6-1.7-5.1-3.2-7.4c-1.5-2.3-3.4-4.4-5.7-6.1
			c-4.9-3.6-11.4-5.4-19-3.6l-1.3-1.7c1.5-3.2,2.1-12.8-0.6-23c-1.3-4.9-3.3-9.8-6.4-14.2c-5.5-7.8-13.2-13.4-22.6-14.8
			c12.8,0.8,18.5,4.9,24.5,13.4c3.3,4.6,5.4,9.8,6.8,15c2.4,9.1,2.2,18,1.1,22.6c7.5-1.2,14,0.7,18.9,4.4c2.5,1.9,4.6,4.2,6.3,6.7
			c1.7,2.5,2.9,5.3,3.5,8.2c1.2,4.9,0.8,9.9-1.4,14c3.3,0,6.5,0.7,9.5,2c5.4,2.4,10,6.7,13.5,11.6c3.4,4.9,5.6,10.6,6.2,15.7
			c0.4,3.3,0.1,6.5-1.1,9.1l-0.5,1l-1.1-0.4c-11.3-4.5-48.2-20.6-78.3-35.7c-2.8-1.4-5.4-2.7-8.1-4.1v-2.7c2.9,1.5,6,3.1,9.1,4.6
			C37.7,248,73.1,263.6,85.5,268.6z"/>
		<path class="st3" d="M18.6,193.3c13.6,0.8,14.1,9.1,13,21.3C29.2,201.6,29.8,198.2,18.6,193.3z"/>
	</g>
	<g>
		<path class="st4" d="M215.7,356.8c10.4-9.6,24.7-2.8,27.5,8.4c12.1-37.9,90.4-21.8,65.2,47.3c14.9-5.8,32.1,11.9,21.8,31.5
			c-11.7,20.5-66.8,11.2-82.1,3.3C219.2,432.3,191.4,385.8,215.7,356.8z"/>
		<path class="st2" d="M302.9,456.2c-20,1.2-44.7-3.7-54-8.5c-15.2-7.9-35.1-30.5-32-47.1c7.6-39.8,41.5-21.3,30.5-0.7
			c9.6-27.2,49.8,1.8,28.5,20.8C294.8,414.3,333.1,440.5,302.9,456.2z"/>
		<path class="st3" d="M214.9,355.9c2.5-2.3,5.1-3.7,7.8-4.4c3.2-0.8,6.5-0.6,9.5,0.4c4.8,1.6,8.9,5.2,11,9.8
			c4.9-11.2,15.8-17,27.7-17.7c5.6-0.3,11.4,0.5,16.8,2.6c5.5,2,10.6,5.2,14.9,9.5c10.8,10.9,16.2,29.1,7.6,54.5
			c4.4-1,8.8-0.3,12.7,1.7c2.2,1.2,4.2,2.7,5.9,4.7c1.7,1.9,3.1,4.2,4.1,6.7c2.3,5.9,2.2,13.3-1.8,20.8l0,0
			c-5,8.8-17.4,12.4-31.4,12.9c-19.9,0.8-43.1-4.5-52.2-9.2c-4.3-2.2-8.5-5.1-12.5-8.5c-10.8-9.1-20.4-21.9-25.6-35.5
			c-5.3-13.7-6.2-28.3,0.3-40.8c1.3-2.6,3-5.1,5-7.4L214.9,355.9L214.9,355.9z M223.3,353.9c-2.3,0.6-4.6,1.8-6.8,3.8
			c-1.9,2.2-3.4,4.5-4.6,7c-6.1,11.9-5.3,25.8-0.2,38.9c5.1,13.2,14.4,25.7,24.9,34.5c3.9,3.3,8,6.1,12.1,8.2
			c8.9,4.6,31.6,9.7,51.1,8.9c13.2-0.5,24.9-3.8,29.4-11.7c3.6-6.9,3.7-13.5,1.6-18.9c-0.9-2.2-2.1-4.3-3.6-6
			c-1.5-1.7-3.3-3.1-5.2-4.1c-4-2.1-8.6-2.6-13.1-0.9l-2.4,0.9l0.9-2.5c9.3-25.5,4.2-43.6-6.3-54.2c-4-4.1-8.9-7.1-14.1-9
			c-5.2-1.9-10.6-2.7-15.9-2.4c-16.9,0.9-23.8,10.8-28.1,21.9c-1.4-5.9-4.1-11.7-11.5-14.1C228.9,353.3,226.1,353.2,223.3,353.9z"/>
	</g>
	<g>
		<path class="st4" d="M500,324.6c-23.1,7.5-35.9,31.6-31.5,55.2c-31.6-13.3-58,12.7-47.8,40.8c-44-14.7-83.9,34.9-87.1,79.3H500
			V324.6z"/>
		<path class="st2" d="M350.4,452.4c-9.4,14.3-15.5,31.2-16.7,47.5h56c42.3-8.1,82.2-20.9,110.3-40.2v-76.3
			c-12.4,12.5-21.2,27.8-20.2,41.8c-13.2-15.5-63.9-9.9-65.2,31.1C414.3,456.8,378,454.5,350.4,452.4z"/>
		<path class="st3" d="M499.8,324.6c-8.3,2.8-15,8.9-20.2,15.3c-6.5,7.9-10.2,17.9-10.7,28.4c-0.2,3.7,0.1,7.5,0.8,11.3l0.4,2.2
			l-2-0.8c-10.3-4.3-20.1-4.4-28.1-1.5c-4.1,1.5-7.8,3.8-10.8,6.7c-3,2.9-5.4,6.4-7.1,10.2c-2.9,7-3.3,15.3-0.2,23.9l0.8,2.3
			l-2.3-0.8c-17.2-5.7-33.8-1.4-47.8,8.7c-10.4,7.5-19.3,18.2-25.9,30.4c-6.6,12.1-10.8,25.6-11.8,38.7c0,0.2,0,0.3,0,0.5h-2.4
			c0-0.2,0-0.4,0-0.7c1.1-13.4,5.4-27.2,12.1-39.6c6.7-12.4,15.9-23.4,26.6-31.1c13.9-10.1,30.4-14.7,47.7-9.7
			c-2.5-8.4-1.9-16.5,1-23.4c1.8-4.2,4.4-7.9,7.6-11c3.3-3.1,7.2-5.6,11.7-7.2c8-2.9,17.6-3.1,27.8,0.7c-0.5-3.3-0.6-6.5-0.5-9.8
			c0.5-11,4.5-21.5,11.2-29.8C480,335.7,490.3,326.2,499.8,324.6z"/>
		<path class="st3" d="M480.2,377.8c-11.1,1.9-12.8,5.4-19.1,15.2C464.2,382.3,467.9,375,480.2,377.8z"/>
	</g>
	<g>
		<path class="st1" d="M249.4,89.1c-38,0.4-69.5-0.8-102.1-0.1c-59.7,1.9-19.9-39.4,2.9-15.2c-12.2-35.3,40.4-43.9,51.6-9.9
			c9.5-19,35.8-8.5,28.8,9.4C249.1,64.4,266.6,88.5,249.4,89.1z"/>
		<path class="st2" d="M249.4,89.1c-38,0.4-69.5-0.8-102.1-0.1c-37.4,1.2-35.8-14.6-23.7-20.6c0.5,1.3,1.7,2.7,3.5,4.1
			c7.3,5.8,37.7,10.4,36.7,9.1c-9.4-12.4-0.1-12.9,11.2-6.2c2.2,1.3,10.5,6.8,11.7,8.6c-0.2-3.5-4.8-10.5,9.6-10.6
			c6.4-0.1,16.7,3.3,16.7,11c0-0.1,30.5-4.3,32.4-4.8c0.9-0.2,4.2-1.1,7.8-2.2C257.9,82.5,258.1,88.8,249.4,89.1z"/>
		<path class="st3" d="M196.5,89c11-1.4,46.2-0.9,52.9-1c3.2-0.1,4.9-1,5.6-2.4c0.5-1.1,0.4-2.6-0.3-4.1c-0.8-1.7-2.2-3.4-4-4.9
			c-7.4-6-14.6-4.8-22.4-0.9c2.6-5.6,4-11-0.7-16.2c-1.3-1.5-3-2.7-4.9-3.5c-1.9-0.8-4-1.2-6.1-1.2c-8.1,0.2-11.8,5.5-15.1,11.9
			c-4-12.8-12.1-21.8-26-23.2c-3.7-0.4-7.5,0-10.9,1c-3.4,1-6.5,2.6-8.9,4.9c-5,4.5-7.6,11.5-5.4,20.6c0.5,2,1.2,4.1,1.7,6.1
			c-2.5-1.8-3.9-3.2-6.1-4.8c-6.4-4.7-13.6-4.9-19.3-3c-3.9,1.3-7.1,3.7-8.6,6.4c-1.4,2.5-1.3,5.2,0.9,7.5c8,8,44.4,5.5,56.1,6.6
			c-14.7,0-47.4,5.3-57.6-5c-3.1-3.1-3.2-6.8-1.3-10.1c1.8-3.1,5.3-5.9,9.8-7.4c6.5-2.2,14.9-1.8,22.2,4c-2.3-9.9,0.6-17.5,6.1-22.5
			c2.7-2.5,6.1-4.3,9.8-5.3c3.7-1.1,7.7-1.4,11.7-1c10.6,1.1,21.3,7.4,26.4,19.9c3.7-5.9,9.2-8.5,14.5-8.6c2.5-0.1,4.9,0.4,7,1.3
			c2.2,0.9,4.2,2.3,5.7,4c3,3.3,4.4,7.9,3.1,13.3c7.7-2.7,15-0.3,19.7,3.5c2.1,1.7,3.7,3.7,4.6,5.7c1,2.1,1.1,4.2,0.3,6
			c-1.5,3-8,3.1-18.1,3.2C223.2,90,201.5,89,196.5,89z"/>
	</g>
	<g>
		<g>
			<path class="st5" d="M130.1,212.1c-42.1,13.7-59.8,37.2-36.5,57.9c12.9,11.4,38.4,8.7,56,8.1c17.4-0.5,20.2,12.8,22.9-3.3
				C177.9,242.3,155.2,227.2,130.1,212.1z"/>
			<path class="st6" d="M93.6,270.1c12.6,11.8,38.4,8.7,56,8.1c9.4-0.3,18.2,1.8,21.4,2.7c5.5-42-27.2-50.2-25.2-47.9
				c18.6,20.6-56.3,0.9-21-11.7C110.1,224.9,65.8,243.9,93.6,270.1z"/>
			<path class="st3" d="M130,213.3c-18,5.9-31.4,13.6-38.9,22.1c-3,3.4-5.1,6.9-6.1,10.5c-1,3.5-0.9,7.1,0.2,10.7
				c1.4,4.3,4.4,8.5,9.1,12.7c11,9.8,31.9,8.9,48.6,8.1c2.3-0.1,4.5-0.2,6.7-0.3c7.4-0.2,12.2,1.9,15.5,3.4c1.3,0.6,2.4,1.1,3.1,1.2
				c1.4,0.2,2.3-1.2,3.2-7.1c2.6-15.9-1.6-27.6-9.5-37.1C154,228.1,142.3,220.7,130,213.3L130,213.3z M89.5,234
				c7.8-8.8,21.7-16.8,40.2-22.8l0.5-0.1l0.4,0.2c12.6,7.6,24.7,15.2,32.9,25c8.3,10,12.8,22.2,10,38.8c-1.2,7.5-2.7,9.3-5.6,8.8
				c-1.1-0.2-2.2-0.7-3.7-1.3c-3.1-1.4-7.7-3.5-14.6-3.3c-2.1,0.1-4.3,0.2-6.7,0.3c-17.1,0.8-38.4,1.7-50.1-8.7
				c-5-4.4-8.2-9-9.7-13.6c-1.3-4-1.4-8-0.3-11.9C84.1,241.4,86.3,237.6,89.5,234z"/>
			<path class="st4" d="M134.4,219.9c9.7,4.3,21.8,12.9,27,22.3C154.2,234.8,143.3,226.6,134.4,219.9z"/>
		</g>
		<g>
			<polygon class="st7" points="194.5,337.8 216.5,341.8 220,339.3 219,332.3 193.4,322.4 			"/>
			<polygon class="st8" points="192,333.8 216.3,342.6 220.4,339.5 191.5,329.2 			"/>
			<path class="st3" d="M195.5,336.9l20.7,3.9l2.6-1.9l-0.8-5.8l-23.5-9.1L195.5,336.9L195.5,336.9z M216.3,342.9l-22.8-4.2
				l-1.4-17.8c9.3,3.6,18.5,7.2,27.8,10.7l1.1,8.2l-4.4,3.2L216.3,342.9z"/>
			<polygon class="st9" points="193.2,354.3 218,357.5 216.5,341.8 191.6,334.3 			"/>
			<path class="st3" d="M194.2,353.3l22.6,3l-1.3-13.7l-22.7-6.9L194.2,353.3L194.2,353.3z M217.8,358.6l-25.6-3.4l-1.7-22.4
				c9,2.7,18,5.5,27,8.2l1.6,17.7L217.8,358.6z"/>
			<polygon class="st7" points="197.9,369.5 197.2,349.3 230.2,362.3 232,372.3 223.8,378.5 			"/>
			<path class="st3" d="M196.9,369.6l-0.8-21.8l35.1,13.8l2,11.1l-9.1,6.9c-9-3.1-18-6.2-27.1-9.4L196.9,369.6L196.9,369.6z
				 M198.3,350.9l0.7,17.9l24.6,8.5l7.2-5.5l-1.5-8.7L198.3,350.9z"/>
			<polygon class="st8" points="203.5,366.6 227.9,375.4 232,372.3 203.1,361.9 			"/>
			<polygon class="st9" points="194.9,362.6 227.9,375.4 237.7,441.5 204.8,438.6 			"/>
			<path class="st10" d="M227.9,405.7l9.8,35.8l-32.8-2.9l-6.4-49.3C211.1,399.7,213.1,400.7,227.9,405.7z"/>
			<path class="st3" d="M195.3,361.7l33.5,13c3.4,22.7,6.7,45.4,10.1,68.1l-35-3.1c-3.4-26.2-6.8-52.4-10.2-78.6L195.3,361.7
				L195.3,361.7z M226.9,376.1l-30.7-11.9l9.6,73.4l30.7,2.7L226.9,376.1z"/>
			<polygon class="st7" points="48.8,275.6 128.8,268.3 197.8,307.5 202.9,305.6 202.9,297.8 130.6,243.2 48.9,259.2 			"/>
			<polygon class="st8" points="129.5,262.1 197.8,307.5 202.9,305.6 129.4,255.6 82.5,264.8 82.3,270.4 			"/>
			<path class="st3" d="M49.8,274.4l78.9-7.2l0.6,0.1l68.5,39l3.9-1.5v-6.5l-71.5-54l-80.4,15.7L49.8,274.4L49.8,274.4z
				 M128.6,269.4l-80.9,7.4l0.2-18.4c27.7-5.4,55.3-10.8,83-16.3c24.4,18.4,48.7,36.8,73.1,55.2v9l-6.2,2.4L128.6,269.4z"/>
			<polygon class="st9" points="66.8,435.4 211,444 197.8,307.5 129.8,262 63.7,273.7 			"/>
			<path class="st11" d="M66.8,435.4L211,444l-13.9-94.7c-20.7-8-47.2-43.5-61-63.9c-2.6,7.4-4.5,28-5.7,24.1c0.2-7.1-0.9-44.2-1-47
				c-10.8,1.4-44.2,7.5-51.8,8.7l0.4-0.1c-0.1,0.1-0.3,0.1-0.4,0.1l-14,2.5L66.8,435.4z"/>
			<path class="st3" d="M67.8,434.4l142,8.4l-13.1-134.7l-67.3-45l-64.8,11.4L67.8,434.4L67.8,434.4z M211,445l-145.2-8.6
				c-1.1-54.5-2.1-109.1-3.1-163.6l67-11.8l0.8,0.2l68.4,45.8c4.5,46.1,8.9,92.1,13.4,138.2L211,445z"/>
			<path class="st12" d="M175.3,340.9c-8.3,7.7-27.3,84.3-18.6,94.5c2,2.3,24.6,8.1,25.2,5C187.4,412.4,181,368.6,175.3,340.9z"/>
			<polygon class="st7" points="0.1,240.7 77.5,276.2 82.2,274.1 82.5,264.8 0.1,216.4 			"/>
			<polygon class="st8" points="0.1,236.5 77.5,276.2 82.2,273.6 0.1,229.9 			"/>
			<path class="st3" d="M0.1,239.5l77.4,35.5l3.6-1.7l0.3-8.1L0.1,217.6v-2.4c27.8,16.3,55.7,32.7,83.6,49l-0.4,10.6l-5.7,2.6
				l-0.4-0.2l-77-35.3V239.5z"/>
			<polygon class="st9" points="0.1,273.6 78.6,299 77.5,276.2 0.1,236.5 			"/>
			<path class="st11" d="M0.1,270.4c9.4,2.8,25.5,9.7,38.7,15.7l38.9,12.4l-3.8-9.8c-21-9.4-51.7-23.7-73.8-35.3V270.4z"/>
			<path class="st3" d="M0.1,272.5l77.4,25l-1-20.6L0.1,237.7v-2.3c26.1,13.4,52.3,26.8,78.4,40.3l1.2,24.8l-1.4-0.5L0.1,274.7
				V272.5z"/>
			<path class="st4" d="M198.6,432.5c-3.5-40.4-7.1-81-19.3-119.1c-3.3-0.1-6.5,0-10.7,0c-26.9,29.9-36.8,77.7-36,112.5
				c0.3,9.5,22.9,5.1,24.3,0.4c2.8-24.3,5.2-48.5,15.1-75.8c3.7,26.8,5.4,59,5.3,80.8C180.3,431.5,188,432,198.6,432.5z"/>
			<path class="st13" d="M178.3,313.4c-3-0.1-6,0-9.8,0c-17.1,19-27.3,45.2-32.3,70.7c4,3.7,10.3,8.5,10.6,6
				C149.7,365.9,162.8,332.2,178.3,313.4z"/>
			<path class="st13" d="M172,350.8c3.7,26.8,5.4,58.8,5.2,80.5c1.7,0.1,4.8,0.3,9,0.6c1.2-26.6-5.9-77.1-8.3-87.7
				c-0.5-2.5-0.6-6.9-1.8-4.9C175.1,340.9,173,346.5,172,350.8z"/>
			<path class="st3" d="M199.6,431.9l0.2,1.7l-1.2-0.1c-8.9-0.4-15.7-0.9-19.5-1.1l-2.9-0.2l0-1c0.1-11.4-0.4-25.7-1.3-40.6
				c-0.8-11.9-1.9-24.2-3.4-35.6c-8.3,24.6-10.8,46.7-13.3,68.9l-0.3,2.5l0,0.2c-0.7,2.2-4.8,4.3-9.6,5.3c-2.4,0.5-5,0.8-7.3,0.7
				c-2.4-0.1-4.7-0.6-6.4-1.6c-1.8-1.1-3-2.7-3-5v0c-0.5-19.1,2.3-42,9.3-63.7c5.8-18.3,14.6-35.7,27-49.5l0.3-0.4l0.5,0
				c2,0,3.8,0,5.5,0c1.8,0,3.5,0,5.2,0l0.7,0l0.2,0.7C192.5,351.1,196.1,391.6,199.6,431.9L199.6,431.9z M197.4,431.4
				c-3.5-39.7-7-79.6-19-116.9c-1.4,0-2.9,0-4.4,0c-1.6,0-3.2,0-5,0c-12,13.5-20.5,30.5-26.2,48.4c-6.9,21.5-9.6,44.2-9.2,63
				c0,1.5,0.8,2.6,2,3.3c1.4,0.8,3.3,1.2,5.4,1.3c2.2,0.1,4.6-0.1,6.8-0.6c4-0.8,7.4-2.3,8-3.8l0.3-2.4c2.7-23.5,5.3-47,14.8-73.5
				l2,0.2c1.8,12.7,3.1,26.7,3.9,40.1c0.9,14.5,1.4,28.5,1.3,39.8l0.9,0.1C182.8,430.6,189.2,431,197.4,431.4z"/>
			<path class="st3" d="M185.3,431.9c0.1-8.4-0.5-21.6-0.1-29.8c1,10,2.2,19.6,2.1,29.8L185.3,431.9z"/>
			<path class="st7" d="M0.1,299.8l151.9,47.5l4.4-3.6l0.5-11.1c-16.3-7.4-123.4-53.4-156.8-66V299.8z"/>
			<polygon class="st8" points="0.1,285.3 151.9,347.4 156.8,342.8 0.1,277.9 			"/>
			<path class="st3" d="M0.1,298.8l151.6,47.4l3.6-3l0.4-9.9c-10.9-4.9-52.8-23-91.7-39.3c-26-10.9-50.6-21.1-64-26.2v-2.2
				c0.1,0,0.2,0.1,0.4,0.1h0c13.2,5,38.2,15.3,64.4,26.3c39.8,16.8,82.6,35.2,92.4,39.7l0.6,0.3l-0.5,12.3l-5.2,4.3l-0.5-0.2
				L0.1,300.9V298.8z"/>
			<path class="st3" d="M179.9,314.2c-3.7,3.3-7.5,8.5-11.3,15.1c-3.9,6.8-9,15.8-12.5,25c0.8-8,8.5-22.1,10.7-26
				c3.9-6.8,7.9-12.2,11.7-15.6L179.9,314.2z"/>
			<path class="st9" d="M0.1,417.6l155,24.9c-2.4-29.7-2.2-66.1-3.1-95.1c-41.1-16.8-97.8-39.6-151.9-62.1V417.6z"/>
			<path class="st11" d="M0.1,417.6l155,24.9c-1.2-15.1-1.8-32-2.1-48.7c-54.2-12.5-115-32.4-146.3-51.9c-2.7-1.7-4.8-3-6.5-4.1
				V417.6z"/>
			<path class="st3" d="M0.1,416.5l153.8,24.7c-1.6-20.3-2-43.6-2.4-65.5c-0.2-9.6-0.3-18.9-0.6-27.6c-14-5.8-31-12.6-49.1-20
				C70,315.2,34.4,300.7,0.1,286.4v-2.3c34.7,14.4,70.5,29,102.6,42c17.7,7.2,34.2,13.9,49.7,20.2l0.6,0.3l0,0.7
				c0.3,8.9,0.4,18.5,0.6,28.4c0.4,22.3,0.8,46.1,2.5,66.7l0.1,1.3l-1.3-0.2L0.1,418.6V416.5z"/>
			<path class="st11" d="M9.7,424.7c12.1,1.4,28.4,3.9,42.2,6.2c-0.3-5.8-3.9-34.6-9.2-60.5c-4.6-22.6-10.4-43-16.4-43.9
				c-5.8-0.9-14.1,19.6-16.4,43.7C8.1,389.5,8.1,410.9,9.7,424.7z"/>
			<path class="st3" d="M10.6,423.7c5.4,0.6,11.6,1.5,17.9,2.4c7.3,1.1,15,2.3,22.2,3.5c-0.4-4.4-1.6-14.8-3.5-27.4
				c-1.5-9.9-3.4-21-5.5-31.6c-2.5-12.3-5.4-23.9-8.4-32c-2.4-6.5-4.8-10.7-7.1-11l-0.1,0c-2.1-0.2-4.8,3.5-7.4,9.6
				c-2.8,6.5-5.3,15.5-6.8,25.7c-0.4,2.5-0.7,5-0.9,7.5c-0.9,9.5-1.4,19.4-1.4,28.7C9.5,408.3,9.9,416.9,10.6,423.7L10.6,423.7z
				 M28.3,428.2c-6.7-1-13.1-1.9-18.7-2.5l-0.8-0.1l-0.1-0.8c-0.8-7-1.2-16.1-1.2-25.8c0-9.4,0.5-19.4,1.4-28.9
				c0.3-2.6,0.6-5.2,0.9-7.6c1.6-10.3,4.1-19.6,7-26.2c3-7,6.4-11.1,9.5-10.8l0.2,0c3.1,0.5,6.1,5.2,8.8,12.4c3.1,8.3,6,20,8.5,32.4
				c2.2,10.7,4.1,21.9,5.6,31.7c2.1,14.1,3.5,25.5,3.6,29l0.1,1.3l-1.3-0.2C44.3,430.7,36.2,429.4,28.3,428.2z"/>
			<path class="st3" d="M170.9,350.2c0.5-1.5,1.4-3.7,2.3-5.8c1.5-3.6,2.7-6.3,4.3-9.8c2.8,17.3,5.5,37.7,7.2,56.7
				c-1.7-10.2-3.8-21.3-4.5-25.9c-1-7.1-2.3-14.3-3.9-23.2c-0.4,1-0.8,2-1.3,3c-0.9,2.1-1.7,4.2-2.2,5.7L170.9,350.2z"/>
			<path class="st14" d="M42,429.3c3.4,0.5,6.7,1.1,9.9,1.6c-0.3-5.8-3.9-34.6-9.2-60.5c-4.6-22.6-10.4-43-16.4-43.9
				c-1.3-0.2-2.8,0.7-4.3,2.5C32.6,360.8,38.5,396.3,42,429.3z"/>
			<path class="st15" d="M39.2,354.4c-3.9-15.5-8.3-27.2-12.8-27.9c-1.3-0.2-2.8,0.7-4.3,2.5c2.4,7.2,4.5,14.7,6.5,22.2
				C30.9,349.2,34.1,349.4,39.2,354.4z"/>
			<path class="st3" d="M43,428.4l4.2,0.7l3.7,0.6c-0.4-4.4-1.6-14.8-3.5-27.4c-1.5-9.9-3.4-21-5.5-31.6c-2.5-12.3-5.4-23.9-8.4-32
				c-2.4-6.5-4.8-10.7-7.1-11c-0.4-0.1-0.9,0.1-1.4,0.3c-0.5,0.3-1,0.7-1.6,1.3c5.2,15.8,9.2,32.5,12.4,49.3
				C38.9,395.2,41.2,412.1,43,428.4L43,428.4z M46.8,431.1c-1.7-0.3-3.4-0.5-4.9-0.8l-0.8-0.1l-0.1-0.8c-1.7-16.4-4.1-33.5-7.3-50.5
				c-3.2-16.9-7.3-33.7-12.5-49.6l-0.2-0.5l0.4-0.4c0.8-1,1.7-1.8,2.5-2.3c0.9-0.5,1.8-0.8,2.7-0.6c3.1,0.5,6.1,5.2,8.8,12.4
				c3.1,8.3,6,20,8.5,32.4c2.2,10.7,4.1,21.9,5.6,31.7c2.1,14.1,3.5,25.5,3.6,29l0.1,1.3l-1.3-0.2C50,431.6,48.3,431.3,46.8,431.1z"
				/>
			<path class="st11" d="M58.8,441.8c12.1,1.4,25.8,3.6,39.7,5.9c-0.4-8.1-3.5-38.7-9.2-64.8c-4.5-20.7-10.9-38.8-16.4-39.6
				c-6.8-1-11.8,15-13.9,35.2C56.5,403.4,57.9,434.2,58.8,441.8z"/>
			<path class="st3" d="M59.7,440.8c5.8,0.7,12,1.6,18.4,2.5c6.1,0.9,12.6,2,19.2,3.1c-0.4-5.6-1.5-17.6-3.5-31.6
				c-1.4-10.1-3.3-21.3-5.6-31.7c-2.4-10.9-5.3-21-8.3-28.3c-2.6-6.2-5.1-10.2-7.3-10.5l-0.1,0c-2.4-0.2-4.6,2.3-6.5,6.7
				c-2.1,4.8-3.8,11.6-5,19.6c-0.4,2.6-0.7,5.3-1,8c-1,10-1.4,20.8-1.4,30.8C58.6,423.4,59.2,435.7,59.7,440.8L59.7,440.8z
				 M77.8,445.4c-6.7-1-13.1-1.9-19.1-2.6l-0.8-0.1l-0.1-0.8c-0.5-4.6-1.2-17.5-1.2-32.6c0-10,0.4-21,1.4-31c0.3-2.8,0.6-5.5,1-8.1
				c1.2-8.1,3-15.1,5.2-20.1c2.3-5.3,5.2-8.3,8.6-8l0.3,0c3,0.4,6,4.9,8.9,11.8c3.1,7.4,6,17.7,8.4,28.6c2.3,10.5,4.1,21.7,5.6,31.9
				c2.2,15.2,3.4,28.2,3.6,33.1l0.1,1.3l-1.3-0.2C91.5,447.6,84.6,446.5,77.8,445.4z"/>
			<path class="st14" d="M89.4,446.2c3,0.5,6,1,9.1,1.5c-0.4-8.1-3.5-38.7-9.2-64.8c-4.5-20.7-10.9-38.8-16.4-39.6
				c-1.9-0.3-3.6,0.7-5.1,2.7C79.3,373,85.6,411.4,89.4,446.2z"/>
			<path class="st15" d="M85.1,366.2c-3.8-12.9-8.3-22.4-12.2-23c-1.9-0.3-3.6,0.7-5.1,2.7c2.3,5.4,4.4,11.3,6.3,17.5
				C76.8,362.1,80.4,362.4,85.1,366.2z"/>
			<path class="st3" d="M90.4,445.3l3.7,0.6l3.2,0.5c-0.4-5.6-1.5-17.6-3.5-31.6c-1.4-10.1-3.3-21.3-5.6-31.7
				c-2.4-10.9-5.3-21-8.3-28.3c-2.6-6.2-5.1-10.2-7.3-10.5c-0.7-0.1-1.3,0-2,0.4c-0.6,0.3-1.2,0.8-1.8,1.5
				c5.7,13.5,10.1,29.7,13.5,46.8C86,410.1,88.5,428.1,90.4,445.3L90.4,445.3z M93.8,447.9l-5.3-0.9l-0.1-0.8
				c-1.9-17.4-4.4-35.6-7.9-52.9c-3.5-17.3-7.9-33.5-13.6-47l-0.2-0.6l0.4-0.5c0.9-1.1,1.8-2,2.8-2.5c1-0.6,2.1-0.8,3.3-0.6
				c3,0.4,6,4.9,8.9,11.8c3.1,7.4,6,17.7,8.4,28.6c2.3,10.5,4.1,21.7,5.6,31.9c2.2,15.2,3.4,28.2,3.6,33.1l0.1,1.3L93.8,447.9z"/>
			<path class="st11" d="M105.9,457.1c12.1,1.4,25.8,3.6,39.7,5.9c-0.4-8.1-3.5-38.7-9.2-64.8c-4.5-20.7-10.9-38.8-16.4-39.6
				c-6.8-1-11.8,15-13.9,35.2C103.6,418.7,105,449.6,105.9,457.1z"/>
			<path class="st3" d="M106.9,456.2c5.8,0.7,12,1.6,18.4,2.5c6.1,0.9,12.6,2,19.2,3.1c-0.4-5.6-1.5-17.6-3.5-31.6
				c-1.4-10.1-3.3-21.3-5.6-31.7c-2.4-10.9-5.3-21-8.3-28.3c-2.6-6.2-5.1-10.2-7.3-10.5l-0.1,0c-2.4-0.2-4.6,2.3-6.5,6.7
				c-2.1,4.8-3.8,11.6-5,19.6c-0.4,2.6-0.7,5.3-1,8c-1,10-1.4,20.8-1.4,30.8C105.7,438.8,106.4,451.1,106.9,456.2L106.9,456.2z
				 M125,460.8c-6.7-1-13.1-1.9-19.1-2.6l-0.8-0.1l-0.1-0.8c-0.5-4.6-1.2-17.5-1.2-32.6c0-10,0.4-21,1.4-31c0.3-2.8,0.6-5.5,1-8.1
				c1.2-8.1,3-15.1,5.2-20.1c2.3-5.3,5.2-8.3,8.6-8l0.3,0c3,0.4,6,4.9,8.9,11.8c3.1,7.4,6,17.7,8.4,28.6c2.3,10.5,4.1,21.7,5.6,31.9
				c2.2,15.2,3.4,28.2,3.6,33.1l0.1,1.3l-1.3-0.2C138.6,462.9,131.8,461.8,125,460.8z"/>
			<path class="st14" d="M134.9,461.3c3.5,0.6,7.1,1.1,10.7,1.7c-0.4-8.1-3.5-38.7-9.2-64.8c-4.5-20.7-10.9-38.8-16.4-39.6
				c-1.8-0.3-3.5,0.6-5,2.5C125.7,389.3,131.5,427.4,134.9,461.3z"/>
			<path class="st15" d="M132.2,381.5c-3.8-12.9-8.2-22.4-12.1-23c-1.8-0.3-3.5,0.6-5,2.5c2.3,6.1,4.4,12.7,6.2,19.5
				C123.5,378.2,126.7,377.1,132.2,381.5z"/>
			<path class="st3" d="M135.9,460.4l4.5,0.7l4.1,0.7c-0.4-5.6-1.5-17.6-3.5-31.6c-1.4-10.1-3.3-21.3-5.6-31.7
				c-2.4-10.9-5.3-21-8.3-28.3c-2.6-6.2-5.1-10.2-7.3-10.5c-0.7-0.1-1.3,0-1.9,0.3c-0.6,0.3-1.1,0.7-1.7,1.4
				c5.2,14,9.3,30.5,12.4,47.6C131.9,425.9,134.2,443.7,135.9,460.4L135.9,460.4z M140.1,463.2c-1.9-0.3-3.7-0.6-5.3-0.9l-0.8-0.1
				l-0.1-0.8c-1.7-16.9-4-34.9-7.2-52.1c-3.2-17.2-7.3-33.8-12.6-47.8l-0.2-0.6l0.4-0.5c0.9-1.1,1.8-1.9,2.8-2.4
				c1-0.5,2.1-0.7,3.2-0.5c3,0.4,6,4.9,8.9,11.8c3.1,7.4,6,17.7,8.4,28.6c2.3,10.5,4.1,21.7,5.6,31.9c2.2,15.2,3.4,28.2,3.6,33.1
				l0.1,1.3L140.1,463.2z"/>
			<path class="st3" d="M156,344.7c-38.9-16.4-77.7-32.7-116.6-49.1c-4.6-1.9-22-10.2-29.7-14.8l147,62L156,344.7z"/>
			<path class="st3" d="M81.7,274.5c-19.1-10.2-39.8-22.1-58.8-32.4c14,5,53.1,26.9,59.8,30.5C82.3,273.3,82,273.9,81.7,274.5z"/>
			<path class="st3" d="M202.3,306.4c-19-13.3-38.1-26.7-57.1-40c9.3,4.3,30.6,18.6,58.3,38.3C203.1,305.3,202.7,305.9,202.3,306.4z
				"/>
			<path class="st3" d="M131.6,243.3c-0.4,4.4-0.8,8.8-1.2,13.2c-10.1,1.8-22.4,3.4-32.5,5.2c8.3-3.9,26-6.2,30.5-7l1.1-11.6
				L131.6,243.3z"/>
			<path class="st3" d="M130,254.8c5.1,3.4,8.5,6.1,11.3,9.7c-3.7-2.4-8.7-5.6-12.5-7.9C129.2,255.9,129.6,255.3,130,254.8z"/>
			<path class="st3" d="M231.6,373.2c-7.9-3.1-15.6-6.5-23.5-9.6c7.9,1.5,20.2,6.1,24.3,7.6C232.1,371.9,231.8,372.6,231.6,373.2z"
				/>
			<path class="st3" d="M219.6,340.1c-5.2-1.8-10.5-3.6-15.7-5.4c4.4-0.3,13,2.3,16.4,3.5C220.1,338.8,219.9,339.4,219.6,340.1z"/>
			<path class="st3" d="M130.7,261.8c0.3,17.1,0.7,34.3-0.4,51.5c-1.1-16.9-1.2-34.4-2-51.4L130.7,261.8z"/>
			<path class="st1" d="M195,312.8c1,11,1.5,19.7,1.7,30.7C194.4,329.8,194.3,326.7,195,312.8z"/>
			<path class="st1" d="M163,271c9.5,6.7,17,12.3,26,19.6C177,283.4,173.2,280.6,163,271z"/>
			<path class="st1" d="M101,312c10.5,4.5,20.2,8.5,30.5,13.4C117.1,320.9,114,319.9,101,312z"/>
			<path class="st1" d="M33.1,239.1c11.3,6.1,22.1,12.2,33.2,18.7C50.7,251.2,47,248.9,33.1,239.1z"/>
			<path class="st1" d="M225.9,381.2c2.7,14.4,1.9,7.1,2.3,21.8h0C225.5,388.6,226.3,395.8,225.9,381.2z"/>
			<path class="st1" d="M139.1,289.8c6.7,10,7.9,11,16.7,19C144.7,301.8,144.4,301.9,139.1,289.8z"/>
			<path class="st1" d="M27.7,268.8c12.5,3.5,6.4,1.3,18.3,6.6C33.4,272.3,39.5,274.5,27.7,268.8z"/>
			<path class="st1" d="M94.6,377.7c4.5,1.7,6.9,2.1,10.1,5.1C99.8,381.9,99.7,381.2,94.6,377.7z"/>
			<path class="st1" d="M211.2,400.2c7.4,1.7,4.1,0.2,10.1,4.3C214.4,402.5,217.8,403.9,211.2,400.2z"/>
		</g>
	</g>
	<g>
		<path class="st16" d="M500,499.9V450c-191.3-8.2-387.5-26.3-499.9-43.8v93.8H500z"/>
		<path class="st17" d="M500,499.9v-15.2c-52.9-0.5-101.7-2.5-66.8-4.5c71.6-4.1,70.4-10.6-7.7-15.3c-89.8-5.4-312.3-26-425.4-45.6
			v80.6H500z"/>
		<path class="st3" d="M0.1,405c100.4,15.7,267.9,31.8,439.1,40.9c20.3,1.1,40.6,2.1,60.8,2.9v2.4c-20.3-0.9-40.7-1.8-61-2.9
			c-171-9.1-338.4-25.3-439-40.9V405z"/>
	</g>
	<g>
		<g>
			<path class="st15" d="M440.3,309.8c0.5,7.8-1.8,16.7-3,20.2c11.3,36.9,20.4,106.9-11.5,161.9C385.5,443.9,372,334,440.3,309.8z"
				/>
			<path class="st14" d="M439.5,337.6c10.2,38.3,16.2,102.9-13.7,154.3c3.1-25.5,9.1-65.5,10.1-78.8c0.9-11.7-16.5-34.7-24.8-43.1
				c-1-1,15,2.2,26.6,21.9c-0.8-2.2-14.2-22-16-24.2c-5.9-7.2-4.9-8.1-0.7-16.6C427.9,337,430.5,331.9,439.5,337.6z"/>
			<path class="st3" d="M441.7,309.8c0.2,3.3-0.1,6.7-0.5,9.9c-0.6,4.3-1.7,8.2-2.4,10.4c6.5,21.4,12.3,53.8,9.8,87.9
				c-1.8,25.1-8,51.2-21.6,74.7l-1,1.7l-1.3-1.5c-9.7-11.6-17.9-26.6-23.7-43.2c-8-22.5-11.7-47.8-9.4-70.9
				c2.3-23.3,10.8-44.3,27.3-58.2c5.9-5,12.9-9,21-11.9l1.7-0.6L441.7,309.8L441.7,309.8z M438.5,319.3c0.4-2.4,0.6-5,0.6-7.5
				c-7,2.7-13.1,6.3-18.4,10.8c-15.9,13.3-24,33.7-26.3,56.3c-2.3,22.7,1.4,47.6,9.3,69.7c5.5,15.6,13.1,29.8,22,40.9
				c12.7-22.6,18.5-47.6,20.3-71.7c2.4-33.9-3.3-66.1-9.8-87.3l0-0.8C436.7,327.6,437.8,323.7,438.5,319.3z"/>
			<path class="st3" d="M409.2,367.6c5.4,1.7,11,5.1,15.9,9.3c5.2,4.5,9.8,9.8,12.6,14.9c-7.7-7.4-19.1-18.4-29.3-21.6L409.2,367.6z
				"/>
			<path class="st1" d="M434.8,340.9c6.9,31.8,4.2,15.8,8.2,48h0C436,357.2,438.8,373.2,434.8,340.9z"/>
		</g>
		<g>
			<path class="st7" d="M300.3,392.6c-2.2,8.7-10.8,64-18,107.3h147.9c-6.7-39.7-11.8-90.8-10.9-101.9c-12.3,0.4-36.8-2.2-51.3-2.7
				C347,394.8,321.5,392.6,300.3,392.6z"/>
			<path class="st18" d="M300.3,392.6c-1.1,4.3-4.5,25-7.8,45.2c6.8,21.4,32.6,30.9,55.3,30.3c18.1-0.5,44.4-10.9,56.1-24.7
				c4.2,9.8,6,33.2,6.3,56.5h19.9c-6.7-39.7-11.8-90.8-10.9-101.9c-12.3,0.4-36.8-2.2-51.3-2.7C347,394.8,321.5,392.6,300.3,392.6z"
				/>
			<path class="st3" d="M301.4,394c-1.7,7.7-6.1,34.9-10.9,64.7c-2.2,13.8-4.6,28.1-6.7,41.3H281c2.2-13.3,4.6-27.8,6.8-41.7
				c5.1-31.4,9.7-59.9,11.2-65.9l0.3-1.1h1.1c12.6,0,26.9,0.8,40.8,1.5c9.3,0.5,18.6,1,27,1.2c6,0.2,13.5,0.7,21.2,1.3
				c11.2,0.8,22.8,1.6,30,1.4l1.5-0.1l-0.1,1.5c-0.6,8.2,2,38.8,6.2,70.2c1.4,10.7,3,21.5,4.7,31.5h-2.8c-1.7-10-3.2-20.6-4.6-31.2
				c-4-30-6.6-59.2-6.3-69.3c-7.4,0.1-18.2-0.7-28.8-1.4c-7.8-0.6-15.3-1.1-21.1-1.3c-8.6-0.3-17.7-0.7-27-1.2
				C327.6,394.8,313.8,394.1,301.4,394z"/>
			<path class="st1" d="M295.6,453.3c-0.9,14.3-2.3,22.8-5.1,36.8C290.9,474.5,292,468.3,295.6,453.3z"/>
		</g>
		<g>
			<path class="st5" d="M418.1,279.2c13.6-43.4,19.8-92.9,10.3-127.1c-7.9-28.7-36.1-48.2-76.2-51.1c-21.2-6.1-47.5-3.3-65.1,4.9
				c-19,42.3-22.4,79.1,16.8,111.6c0.4,1,8.7,22.4,11.7,34.5c-7.6,5-0.4,8.7,1.5,10c-0.9,2.4-1.7,5.8-2.4,8.7
				c-8.5,0.3-27.1,10.2-28.7,17.9c-2.1,9.9-2.4,21.8-2.7,32c0,37.4,9,139.7,46.3,145.8c34.5,5.6,66.6-40.1,72.3-62.3
				c-7.8-46.7,5-82.7,30.1-116.6C426.7,283.7,419.7,280,418.1,279.2z"/>
			<path class="st6" d="M418.1,279.2c10.9-34.6,17-73.1,14.2-104.7c-7.1-18.5-18.4-40.3-30.5-50.5c12.2,28.3-18.3,11.1-43.7-16.7
				c-17.1-4.5-47.5-4.6-39.6,4.7c27.7,32,35.2,36.9,54.7,75.4c5.6,11,8.1,30.7,11.2,36.6c-8.4,17.1-42.8,31.7-59.3,30
				c-0.1,0,8.6,10.2,23.2,6.8c20.7-4.8,33.9-18.3,21.2-5.4c-15.9,16.2-32.1,19.4-31.9,19.4c14.1,4,40.3-13.4,40.2-13.2
				c-7.7,16.3-28.6,25.4-51.7,25.2c-19,22.7-15.2,65.7-9.7,106.1c-9.3,51.4,22.7,47.8,55.1,24.3c-1.6,5.4-20.1,47.8-52.8,33.7
				c8,11.1,20.9,9.9,29.4,6c23.2-10.6,37-52,39.7-60.2c0.6-1.9,1.2-3.7,1.9-5.6l12.1-38.7c2-10.6,5.2-20.7,9.5-30.4l2.9-9.1l2.3-1.5
				c4.4-8.2,9.6-16.2,15.4-24C426.7,283.7,419.7,280,418.1,279.2z"/>
			<path class="st3" d="M416.8,278.8c7.1-22.6,12.2-46.9,14-69.8c1.7-20.8,0.7-40.4-3.7-56.5c-3.9-14.1-12.8-26-25.7-34.6
				c-12.8-8.6-29.6-14.1-49.2-15.5l-0.3,0c-10.1-2.9-21.5-3.8-32.5-3c-11.4,0.9-22.4,3.5-31.2,7.5c-9.3,20.8-14.7,40.2-13.1,58.3v0
				c1.6,18.2,10.4,35.2,29.7,51.2l0.4,0.5c0.3,0.6,4,10.2,7.3,20.1c1.7,5.2,3.4,10.4,4.4,14.7l0.2,0.9l-0.8,0.5
				c-3,1.9-3.1,3.5-2.4,4.6c0.8,1.1,2.3,2.1,3.3,2.8c0.2,0.1,0.4,0.3,0.6,0.4l0.9,0.6l-0.4,1c-0.4,1-0.8,2.3-1.1,3.6
				c-1.2,4.2-1.8,8.2-2.6,12.5c-0.4-0.6-1.2-3.6-1.2-6.4c-4.3,0.6-10.7,3.2-16.1,6.6c-5.1,3.2-9.3,7-10,10.1
				c-1.9,8.9-2.3,19.4-2.6,28.8l-0.1,2.9c0,22.7,3.3,69,14.2,103.3c6.9,21.9,16.9,38.7,30.9,41c14.1,2.3,27.8-4.3,39.4-14.3
				c16-13.8,27.9-34,31.2-46.7c-3.9-23.4-2.6-44.2,2.8-63.4c5.3-18.8,14.6-36.1,26.8-52.8c-1.6-1.1-3.4-2.2-5.1-3.2
				c-3.4-2-6.5-3.6-7.5-4.1l-1.1-0.5L416.8,278.8L416.8,278.8z M433.6,209.2c-1.8,22.7-6.8,46.8-13.8,69.3c1.5,0.8,3.9,2.1,6.6,3.7
				c2.1,1.3,4.4,2.7,6.4,4.2l1.1,0.8l-0.8,1.1c-12.5,16.8-21.9,34.1-27.2,53c-5.3,18.9-6.5,39.4-2.7,62.5l0,0.6
				c-3.3,13.1-15.6,34.1-32.2,48.4c-12.2,10.5-26.6,17.4-41.6,14.9c-15.3-2.5-25.9-20.1-33.1-42.9c-11-34.6-14.3-81.4-14.3-104.2
				l0.1-3c0.3-9.6,0.7-20.3,2.7-29.3c0.9-4,5.6-8.4,11.2-11.9c5.9-3.7,12.9-6.5,17.7-7c0.3-1.4,0.7-2.8,1-4.1c0.3-1,0.5-1.9,0.8-2.8
				c-1.2-0.7-2.8-1.8-3.8-3.3c-1.4-2.2-1.6-4.9,2.4-7.8c-1-3.9-2.5-8.8-4.1-13.5c-3.1-9.1-6.4-17.8-7.1-19.6
				c-19.7-16.4-28.8-34-30.5-52.9c-1.7-18.8,4-38.8,13.5-60.2l0.7-0.7c9.2-4.3,20.7-7.1,32.6-8c11.3-0.8,22.9,0,33.3,3
				c20.1,1.5,37.3,7.1,50.4,15.9c13.4,9,22.7,21.4,26.8,36.2C434.3,168.2,435.3,188.2,433.6,209.2z"/>
			<path class="st15" d="M293,110.2c-13.5,20.9-18.3,52.3-10.3,71.6c16.6-0.4,41.9-50.4,30.9-58.6C306.6,118,301,115.4,293,110.2z"
				/>
			<path class="st3" d="M383.6,225.1c6.3-8.3,11.9-18.6,15.9-29.2c3.9-10.4,6.3-21,6.6-30.5c1,24.3-6.1,42.8-20.3,61.4L383.6,225.1z
				"/>
			<path class="st3" d="M353.2,100c7.9,7.5,14.5,17.7,19.3,29.5c2.2,5.5,6.4,19.9,6.1,39.3c-0.9-13.6-3.9-26.7-8.6-38.3
				c-4.7-11.5-11.1-21.4-18.7-28.6L353.2,100z"/>
			<path class="st3" d="M417.5,280.5c-8.2-4-17.2-7.5-27.1-8.4c11-1.2,24.5,4.1,28.3,6L417.5,280.5z"/>
			<path class="st3" d="M363.5,267.5c6.5-3.2,14.7-8.8,20.6-13.1c-13.4,13.3-40.7,32.3-58.5,15.9C339.4,276.3,350.2,274,363.5,267.5
				z"/>
			<path class="st3" d="M382.9,417.6c-10.4,18.7-12.4,21-27.7,35.8c12.4-15.8,15.7-19,24.9-37.2L382.9,417.6z"/>
			<path class="st1" d="M345.9,103.9c-16-0.1-17.5-1.8-31.7,4.1C326.1,99.1,331.2,101.2,345.9,103.9z"/>
			<path class="st1" d="M410.3,131c9.8,16.1,6.3,7.6,10.7,25.5C413.9,139.7,417.4,148.2,410.3,131z"/>
			<path class="st1" d="M374,263.5c-10.5,10.4-19.2,16.5-35.3,14.9c-2.3-0.2-4.2-1.8-5.9-3.2C348.5,280.6,361.5,272.7,374,263.5z"/>
		</g>
		<g>
			<path class="st19" d="M399.4,367.1c-3.4-26.2,7-65.9,24.6-86.6c10.1,5.1,19.6,17.6,21.4,23.3c-13.3,14.4-32,36.5-37.8,64.7
				C405.2,371.1,401.4,371.1,399.4,367.1z"/>
			<path class="st20" d="M399.3,365.6c-1.2-9.1,1.5-28.6,3.5-39.6c5.3,23.3,23.5-13.3,42.4-23c-11.9,13.4-34.1,49-37.5,65.6
				C405.2,371.1,401.2,369.6,399.3,365.6z"/>
			<path class="st3" d="M398.1,367.3c-1.8-13.6,0.1-30.6,4.7-46.8c4.4-15.6,11.4-30.5,20.2-40.8l0.7-0.8l1,0.5
				c4.7,2.4,9.2,6.2,12.9,10.3c4.6,5.1,8.1,10.5,9.2,13.8l0.2,0.8l-0.5,0.6c-6.6,7.2-14.6,16.2-21.6,27c-7,10.7-13,23.1-15.9,37.1
				l-0.4,0.7c-0.6,0.6-1.3,1.1-2,1.5c-1.1,0.5-2.3,0.8-3.5,0.6c-1.2-0.2-2.3-0.7-3.3-1.7c-0.6-0.6-1.1-1.3-1.6-2.2L398.1,367.3
				L398.1,367.3z M405.4,321.2c-4.5,15.8-6.3,32.3-4.6,45.5c0.3,0.5,0.6,1,0.9,1.3c0.5,0.5,1.1,0.8,1.8,0.9l0,0
				c0.6,0.1,1.3,0,1.9-0.3c0.4-0.2,0.7-0.4,1-0.7c3-14.1,9.1-26.7,16.2-37.6c6.9-10.7,14.7-19.6,21.3-26.8c-1.2-3-4.3-7.7-8.3-12.1
				c-3.3-3.6-7.2-7-11.2-9.2C416.2,292.2,409.6,306.4,405.4,321.2z"/>
			<path class="st3" d="M436.2,290.1c-17.8,21.9-25.5,41.1-32,68.3c3.1-26.6,13.3-49.3,29.7-70.4L436.2,290.1z"/>
		</g>
		<g>
			<path class="st15" d="M280.5,363c-12.9,16.2-22.7,43.6-21.4,65.1c6.1,5.2,15.9,6.5,19.8,2.8C279.5,430.3,285.2,383.9,280.5,363z"
				/>
			<path class="st3" d="M279.7,366.3c-5.7,7.9-10.7,18-14.2,28.6c-3.6,10.9-5.6,22.4-5,32.5c2.8,2.2,6.3,3.6,9.5,4
				c3.3,0.5,6.3,0,8-1.6c0.3-0.3,2.5-19.3,2.9-38.4C281.1,382.3,280.9,373.3,279.7,366.3L279.7,366.3z M262.9,394.1
				c4-12,9.8-23.5,16.5-31.9l1.8-2.2l0.6,2.8c1.7,7.5,2.1,18.1,1.8,28.8c-0.5,19.8-3.3,40-3.8,40.4c-2.3,2.2-6.1,2.9-10.2,2.3
				c-3.9-0.6-8.1-2.3-11.4-5l-0.5-0.4l0-0.6C257.1,417.6,259.1,405.5,262.9,394.1z"/>
		</g>
		<g>
			<path class="st19" d="M309.2,269.3c-1.3,13.4-1,37.8,0.4,57c-8.7-13-16.1-23.9-17.8-48.8C292.3,274.7,303.4,269.2,309.2,269.3z"
				/>
			<path class="st3" d="M310.6,269.4c-0.7,6.5-0.9,15.6-0.8,25.4c0.1,10.4,0.5,21.6,1.2,31.3l-2.5,0.9l-0.1-0.1
				c-8.8-13.1-16.3-24.2-17.9-49.3l0-0.3c0.3-1.9,3.7-4.4,7.7-6.3c3.7-1.7,8-3.1,11-3l1.5,0L310.6,269.4L310.6,269.4z M307,294.9
				c-0.1-9.1,0.2-17.7,0.7-24.1c-2.5,0.3-5.6,1.4-8.3,2.7c-3.2,1.5-5.8,3.2-6.2,4.2c1.5,21.6,7.4,32.5,14.7,43.6
				C307.3,312.7,307,303.5,307,294.9z"/>
			<path class="st3" d="M301.4,272.4c-1.1,4.9-0.5,6.6-0.9,11.4c-2.4-5.1-2.6-6.5-2.2-12.1L301.4,272.4z"/>
		</g>
		<g>
			<path class="st21" d="M378.3,404.9c-0.7-1.7-1.3-3.7-1.7-5.2c0.5-4.2,3-10.8,7-14.7c2.1,0,4.3,0,6.8,0c0.9,0,1.4-0.6,1.1-1.7
				c-5.2-26.2-9.1-62.5-8.2-85.9c0.5-11.7-2.2-12.9-11-11.8c-25.9,3.2-84.1,1.1-99.1-5.3c-5.1,2-10.7,7.8-12.3,13.5
				c-1.4,5.2,0.1,9.7,3.1,12.7c4.6,26.5,7.1,74.2,20.4,96.7c9.6,8.4,57.3,9.7,90.6,5.8C377.3,408.8,379.3,408,378.3,404.9z"/>
			<path class="st22" d="M378.3,404.9c-0.7-1.7-1.3-3.7-1.7-5.2c0.5-4.2,3-10.8,7-14.7c2.1,0,4.3,0,6.8,0c0.9,0,1.4-0.6,1.1-1.7
				c-5.2-26.2-9.1-62.5-8.2-85.9c0.5-11.7-2.2-12.9-11-11.8c-25.9,3.2-74.3,3.7-89.3-2.7c-14.3,6-13.1,24.1,4.5,25.4
				c11.3,0.9,23.1-6,33.3-5c4,0.4,6.8-0.3,13.5,0.6c9.1,1.2,19.9,0.8,28.9,0.4c7.4-0.3,12.6,11.2,8.3,9.5l0.5,0.5
				c-0.9,15.1-12.1,31.6-22.4,41.9c-12.6,12.6-18.3,8.9-36.1,5.6c-8.2-1.5-7.3-3.6-0.9,11.8c2.1,5.1,3.5,3-6.2,5.7
				c-8.8,2.5-22.6-0.6-24.5-12.2c0-0.2-0.6,17.8,3.4,36.7c11.2,7.9,57.3,9,89.8,5.2C377.3,408.8,379.3,408,378.3,404.9z"/>
			<path class="st3" d="M377,405.3c-0.3-0.9-0.7-1.9-1-2.8c-0.3-0.9-0.5-1.7-0.7-2.4l0-0.5c0.3-2.4,1.2-5.5,2.6-8.5
				c1.2-2.6,2.8-5.1,4.7-7l1-0.4c1.5,0,3,0,4.6,0l2,0l0-0.1c-2.7-13.6-5-29.9-6.5-45.8c-1.4-14.7-2.1-29.1-1.7-40.4v0
				c0.2-5.4-0.2-8.3-1.6-9.6c-1.3-1.2-3.9-1.2-7.9-0.7c-13.7,1.7-36.3,1.9-56.9,0.8c-18.2-1-34.8-3-42.4-6c-2.3,1-4.7,2.8-6.6,5
				c-2,2.2-3.6,4.8-4.3,7.4c-0.6,2.3-0.6,4.4-0.1,6.2c1.9,7.7,15.8,12.4,26,14.1c-11.5,0.1-20.3-4-22.2-5.1
				c1.1,6.4,1.8,12.3,2.8,20.5c3.2,25.3,7.1,55.9,16.8,72.5c4.4,3.7,16.8,5.9,32.2,6.9c17.9,1.2,39.6,0.5,57.2-1.5
				c0.8-0.1,1.6-0.3,1.9-0.7C377.2,406.8,377.3,406.3,377,405.3L377,405.3z M378.6,401.7c0.3,0.9,0.6,1.8,1,2.8l0,0.1
				c0.7,2.1,0.2,3.6-0.8,4.6c-0.9,0.9-2.2,1.3-3.5,1.4l0,0c-17.8,2.1-39.6,2.7-57.7,1.5c-16.1-1-29.2-3.5-34-7.7l-0.3-0.3
				c-10.1-17.1-14-48-17.3-73.8c-1.1-8.5-2.1-16.3-3.2-23c-1.6-1.7-2.7-3.8-3.3-6.1c-0.6-2.3-0.6-4.9,0.2-7.6c0.8-3,2.6-6,4.9-8.5
				c2.4-2.7,5.4-4.8,8.2-5.9l1,0c7,3,23.6,5,42,6c20.4,1.1,42.8,0.9,56.4-0.8c4.8-0.6,8-0.5,10.1,1.5c2,1.9,2.7,5.5,2.5,11.7
				c-0.4,11.2,0.3,25.4,1.7,40c1.5,15.7,3.8,32,6.5,45.5c0.1,0.3,0.1,0.5,0.1,0.8c0,0.7-0.2,1.2-0.5,1.7c-0.4,0.5-0.9,0.8-1.5,0.9
				c-0.2,0-0.4,0.1-0.6,0.1l-2.2,0c-1.4,0-2.7,0-4,0c-1.5,1.6-2.8,3.7-3.8,5.8c-1.2,2.6-2.1,5.3-2.3,7.4
				C378.2,400.3,378.4,400.9,378.6,401.7z"/>
			<path class="st1" d="M376.6,399.7c0.6-5,4.1-13.5,9.4-16.6v0c-4.7-21.7-10.3-56.1-9.2-89.4c-29.2,3.2-67.3,2-98.5-3.6
				c-2.8-0.4-6.6,4.5-6.6,8.7c0.1,6.3,10.9,7.3,15.8,8.2c13.3,2.6,58,6,73,3.7c5.3-1.1,6.1,0.2,5.4,8.2
				C366.4,353.3,368.9,368.9,376.6,399.7z"/>
			<path class="st3" d="M376.6,394c0.6-1.7,1.4-3.4,2.3-5c1.5-2.6,3.4-5,5.6-6.6c-2.6-12.3-5.5-28.4-7.3-46.1
				c-1.4-13.2-2.1-27.3-1.8-41.2c-14.5,1.5-31,1.9-47.7,1.3c-16.9-0.6-34-2.3-49.5-5.1c-0.1,0-0.1,0-0.2,0c-0.8,0-1.8,0.8-2.7,1.9
				c-1,1.2-1.8,2.9-2,4.5c0,0.3-0.1,0.7-0.1,1c0.1,4.4,7.8,5.7,12.7,6.5c0.7,0.1,1.4,0.2,1.9,0.3c7.4,1.4,24.4,3.1,40.7,3.9
				c12.9,0.6,25.2,0.7,31.7-0.3c3.3-0.7,5.2-0.5,6.4,1.3c1,1.5,1,4.1,0.7,8.4c0.2,17.1,0.9,29.5,2.6,41.5
				C371.4,371,373.5,381.2,376.6,394L376.6,394z M381.3,390.4c-1.8,3.2-3,6.9-3.3,9.5l-2.7,0.2c-3.9-15.5-6.4-27.1-8.1-39.2
				c-1.7-12.1-2.4-24.7-2.6-42v-0.1c0.3-3.7,0.3-5.8-0.2-6.6c-0.4-0.6-1.5-0.5-3.5-0.1l-0.1,0c-6.7,1.1-19.3,1-32.3,0.3
				c-16.4-0.8-33.7-2.5-41.1-4c-0.6-0.1-1.2-0.2-1.9-0.3h0c-5.8-1-14.9-2.5-15-9.2c0-0.5,0-0.9,0.1-1.4c0.3-2.1,1.3-4.2,2.6-5.8
				c1.4-1.7,3.2-2.9,4.9-2.9c0.2,0,0.4,0,0.6,0l0.1,0c15.3,2.8,32.3,4.5,49.2,5.1c17.2,0.6,34.2,0.1,48.9-1.5l1.6-0.2l-0.1,1.6
				c-0.5,14.3,0.3,28.8,1.7,42.4c1.9,17.9,4.8,34.3,7.5,46.7l0,0.3v0.8l-0.7,0.4C384.6,385.5,382.7,387.8,381.3,390.4L381.3,390.4z"
				/>
			<path class="st3" d="M377.3,295c-3.9,1.7-7.6,3.8-9.9,6.4c-2.2,2.4-3.1,5.3-2,8.7l-2.6,0.9c-1.5-4.5-0.3-8.3,2.5-11.4
				c2.6-2.9,6.6-5.2,10.9-7.1L377.3,295z"/>
			<path class="st3" d="M273.2,293.6c17.9,3.4,32.4,5,50.3,7c-19.3-0.4-31.8-1.6-50.8-4.8L273.2,293.6z"/>
			<path class="st3" d="M272.6,298.4c14.2,2.3,28.3,4.4,42.6,6.5c-15.3-0.7-27.8-2.3-42.9-4.3L272.6,298.4z"/>
			<path class="st3" d="M368.5,300.1c-14.9,1.5-21.4,1.5-36.3-0.1c13.6-0.2,22.3-0.3,36-2.1L368.5,300.1z"/>
			<path class="st3" d="M363.3,305.8c-18.7,0.3-9.4,0.6-27.9-0.8c18.5-0.6,9.3-0.2,27.7-1.4L363.3,305.8z"/>
			<path class="st3" d="M372.2,296.6c0.5,11.2,0.7,20.9,0.3,32.1c-1.1-10.7-1.7-21.2-2.5-32L372.2,296.6z"/>
			<path class="st3" d="M374.1,356.7c-0.7-15.2-0.7-7.6-0.2-22.6c1.6,14.9,0.8,7.3,2.4,22.6H374.1z"/>
			<path class="st1" d="M273.4,316.9c2.9,17.1,5.5,32.8,7.7,50.1C275.7,345.7,274.4,338.9,273.4,316.9z"/>
		</g>
		<g>
			<path class="st7" d="M290.1,393.8c-8.5,2.4-16.6,2.4-19,2.3c-13.9,8.9-13.4,28.9-1.6,36.6c14.2,9.1,38.6,5.2,48.9-5.1
				C305,419,299.4,413.4,290.1,393.8z"/>
			<path class="st18" d="M279.2,395.9c-3.8,0.4-6.8,0.3-8.1,0.3c-13.9,8.9-13.4,28.9-1.6,36.6c14.2,9.1,38.6,5.2,48.9-5.1
				c-6-3.8-10.4-7-14.2-11.1C245.7,438.8,271.1,404.4,279.2,395.9z"/>
			<path class="st3" d="M289.4,395.5c-2.9,0.8-5.8,1.3-8.3,1.6c-4.3,0.5-7.8,0.5-9.5,0.5c-2.5,1.7-4.5,3.8-6,6.1
				c-2.3,3.5-3.4,7.6-3.4,11.6c0,4,1,7.9,3.1,11.2c1.3,2,3,3.8,5.1,5.2c6.6,4.2,15.5,5.5,24.1,4.6c8.5-0.9,16.6-3.9,21.9-8.4
				c-6.1-4-10.6-7.4-14.6-12.1C297.5,410.9,293.9,404.8,289.4,395.5L289.4,395.5z M280.7,394.3c2.8-0.3,5.9-0.9,9.1-1.8l1.1-0.3
				l0.5,1.1c4.6,9.7,8.2,15.9,12.4,20.7c4.1,4.8,8.8,8.3,15.5,12.5l1.4,0.9l-1.2,1.2c-5.6,5.6-15,9.4-24.8,10.4
				c-9.2,1-18.7-0.5-25.8-5.1c-2.4-1.6-4.4-3.6-6-6c-2.4-3.7-3.6-8.2-3.6-12.7c0-4.5,1.3-9.1,3.9-13.1c1.8-2.7,4.2-5.2,7.2-7.2
				l0.8-0.2C272.7,394.8,276.2,394.9,280.7,394.3z"/>
			<path class="st1" d="M269.6,411.4c6.9-7.6,3-4.4,11.7-9.7C274.4,409.3,278.3,406,269.6,411.4z"/>
		</g>
		<g>
			<path class="st23" d="M348.7,330.3c-1.1,3.7-2.2,7.4-2.2,7.4c-2.8-3.2-9.1-12.7-14.7-19.5c-11.1-13.7-10.6,3.4-3.9,15.5
				c-2.2-0.9-7.6-4-12.3-5.9c-8.8-3.7-8.6,1.6-5.2,7.1c3.1,5.1,7.1,8.2,9.3,10.8c-4.3-1.4-17.3-6.6-13.3,0.7
				c3.1,5.3,7.6,8.6,12,12.2c-4.6-0.2-13.6-1.6-9.5,4.6c6.3,9.7,34.3,19.6,42.2,20.7c5.8,0.5,7.9-34.3,5.9-51.9
				C355.4,318,351.8,320,348.7,330.3z"/>
			<path class="st24" d="M317,358.4c-4.8-0.3-11.8-1-8.1,4.7c6.3,9.7,34.3,19.6,42.2,20.7c2.9,0.2,4.8-8.3,5.8-19
				c-4.8,0.7-9.9,1-15.5,0.5C331.4,364.5,323.9,362,317,358.4z"/>
			<path class="st3" d="M350,330.7c-1,3.3-2,6.6-2.8,9.9c-2.7-3.2-5.1-6.4-7.6-9.8c-2.7-3.8-5.9-8.2-8.8-11.7
				c-2.4-2.9-4-4.3-5.1-4.5c-0.3-0.1-0.4,0-0.6,0.2c-0.3,0.4-0.5,1.2-0.5,2.2c-0.2,3.9,1.6,10.5,4.6,16l2.8,3.8l-4.5-1.9
				c-1-0.4-2.5-1.2-4.4-2.1c-2.4-1.2-5.3-2.7-8-3.8c-2.1-0.9-3.6-1.2-4.6-1.1c-0.4,0-0.6,0.2-0.7,0.3c-0.1,0.2-0.2,0.6-0.2,1
				c0.1,1.3,0.8,3,2,4.8c2.1,3.4,4.5,5.8,6.6,7.9c1,1,1.8,1.8,2.6,2.7l3.9,3.5c-0.7-0.2-6.6-1.7-7.3-1.9c-3.5-1.2-9-3.1-10.4-2.3
				c-0.1,0.1,0,0.5,0.6,1.6c2.6,4.6,6.4,7.6,10.3,10.7l1.4,1.1l3.4,2.3c-0.7,0-5.7,0.1-6.4,0c-2.6-0.2-5.7-0.4-6.9,0.4
				c-0.4,0.2-0.3,0.9,0.6,2.2c2.4,3.7,8.4,7.6,15.2,10.9c9.9,4.9,21.3,8.5,25.9,9.2l0,0c0.8-0.1,1.6-2.1,2.4-5.4
				c0.9-3.7,1.6-8.9,2.1-14.5c0.8-10.3,0.8-22.3-0.1-30.5c-0.5-4.4-1.2-7.1-1.9-8.3l-0.2-0.4c0,0-0.1,0.1-0.4,0.3
				C352.1,324.8,351.1,327.3,350,330.7L350,330.7z M345.9,334.8l1.5-4.9c1.2-3.8,2.4-6.6,3.7-8c0.8-0.9,1.6-1.3,2.5-1.3
				c0.9,0,1.7,0.6,2.4,1.7c1,1.6,1.8,4.6,2.3,9.5c0.9,8.4,0.9,20.5,0.1,31c-0.5,5.8-1.2,11.1-2.2,15c-1.1,4.4-2.7,7.2-4.8,7.5
				c-0.2,0-0.4,0-0.5,0l-0.1,0c-4.7-0.6-16.6-4.4-26.8-9.4c-7.2-3.5-13.6-7.7-16.3-11.9c-2-3.1-1.5-4.9,0.2-6c1.5-0.9,3.9-1,6.3-0.9
				c-3.4-2.8-6.6-5.7-9-10l0,0c-1.6-2.8-1.1-4.5,0.5-5.3c1.9-1,5.7-0.1,9.2,0.9c-1.8-1.9-3.8-4.1-5.6-7c-1.3-2.2-2.2-4.3-2.4-6.1
				c-0.1-1.1,0.1-2,0.6-2.8c0.6-0.8,1.4-1.3,2.7-1.5c1.4-0.2,3.3,0.2,5.9,1.3c2.7,1.1,5.7,2.7,8.2,3.9l0.6,0.3
				c-2.2-5-3.3-10.3-3.2-13.9c0.1-1.5,0.4-2.8,1-3.7c0.8-1.1,1.9-1.6,3.5-1.3c1.7,0.4,3.9,2.1,6.6,5.5c3,3.7,6.2,8.1,8.9,11.9
				C343.4,331.4,344.8,333.3,345.9,334.8z"/>
		</g>
		<g>
			<path class="st14" d="M283.2,395.4c-8.1,4-22.4,14.8-24.1,32.8C239.7,413.8,262.9,389,283.2,395.4z"/>
			<path class="st3" d="M283.8,396.6c-4.6,2.3-11.3,6.8-16.3,13.7c-3.5,4.8-6.3,10.8-7,17.9l-0.2,2.4l-2-1.4
				c-5.4-4-7.7-8.7-7.9-13.5c-0.1-3.4,0.9-6.8,2.8-9.8c1.8-3,4.4-5.7,7.5-7.9c6.3-4.4,14.8-6.5,22.9-4L283.8,396.6L283.8,396.6z
				 M265.3,408.7c4.3-5.8,9.6-10.1,14.1-12.8c-6.1-0.8-12.2,1-17.1,4.4c-2.8,1.9-5.1,4.4-6.7,7c-1.6,2.6-2.5,5.5-2.4,8.3
				c0.1,3.4,1.6,6.8,4.9,9.8C259.2,418.9,261.9,413.3,265.3,408.7z"/>
		</g>
		<g>
			<path class="st23" d="M329.2,419c9.3-1.4,10.4,1.7,5.6,4.3c-6.8,3.7-24.6,7.4-37,2c-20.9-10-12.3-36.2-6.2-43.6
				c4-4.9,5.4-1.7,5.3,3.2c-0.1,4.3-0.4,9.7-0.2,11.9c9.2-2.2,20-9.6,27.1-13.9c7.8-4.7,8,0.6,4,6.1c-4,5.5-10.8,12.5-12.5,14.6
				c6.6-1.7,11.3-4.8,17.9-7.2c4.3-1.6,7.7,0.3,0.5,7.1c-1.7,1.8-6.7,6-10.2,7.7c4.2-0.5,10-1.5,13.6-2.6c7-2.1,8.3,0.5,1.7,5.5
				C335.9,416.1,330.7,418.4,329.2,419z"/>
			<path class="st24" d="M329.2,419c9.3-1.4,10.4,1.7,5.6,4.3c-6.8,3.7-24.6,7.4-37,2c-7.6-3.6-11.3-9.4-12.6-15.6
				c7.9,6.8,19.4,11,29.7,10.5c7.2-0.3,13.9-1.9,20.3-4C332.7,417.5,330.2,418.6,329.2,419z"/>
			<path class="st3" d="M335.7,417.5c0.5,0.1,1,0.2,1.3,0.4c0.8,0.4,1.4,0.9,1.7,1.5c0.3,0.7,0.3,1.5,0,2.3c-0.5,1-1.5,2-3.2,2.8
				c-4,2.2-11.7,4.4-19.9,4.8c-6.2,0.3-12.8-0.3-18.3-2.8l0,0c-2-1-3.8-2.1-5.4-3.4c-6.2-5-8.5-11.9-8.7-18.8
				c-0.1-6.8,1.8-13.5,4.1-18.3c1-2.1,2.1-3.9,3.2-5.2c1.2-1.4,2.2-2.3,3.1-2.7c0.9-0.4,1.7-0.4,2.5,0c0.7,0.3,1.2,0.9,1.5,1.7v0
				c0.5,1.2,0.7,3,0.7,5v0c0,1.7-0.1,3.4-0.1,5.1c-0.1,1.8-0.1,3.6-0.1,5c7.1-2.1,15.1-7.1,21.3-11c1.3-0.8,2.6-1.6,3.7-2.3
				c2.5-1.5,4.4-2.1,5.7-2c1.1,0.1,1.8,0.5,2.4,1.2c0.5,0.7,0.7,1.5,0.6,2.4c-0.1,1.8-1.1,4.1-2.8,6.4c-2.7,3.6-6.5,7.9-9.3,11
				c1.9-0.7,3.8-1.6,5.7-2.5c2.3-1.1,4.7-2.2,7.5-3.2c1.6-0.6,3.2-0.8,4.3-0.4c0.8,0.2,1.5,0.7,1.8,1.4c0.4,0.7,0.5,1.5,0.2,2.4
				c-0.4,1.5-1.7,3.5-4.5,6c-1,1-2.9,2.7-5.1,4.4c0.4-0.1,0.9-0.2,1.3-0.2c2.2-0.4,4.2-0.9,5.8-1.3c2.6-0.8,4.5-1,5.7-0.7
				c0.9,0.2,1.5,0.7,1.9,1.4c0.3,0.7,0.3,1.5-0.1,2.3c-0.5,1.3-2,3-4.6,4.9C338.5,415.9,337.1,416.7,335.7,417.5L335.7,417.5z
				 M326.4,418.7l2.3-1c0.9-0.3,3.1-1.3,5.3-2.5c1.4-0.8,2.8-1.6,3.9-2.4c3.6-2.8,5.9-5.1-0.5-3.1c-5.6,1.7-12.1,2.2-17.9,1.9
				l3.3-1.9c1.4-0.7,3.1-1.8,4.7-3c0.9-0.7,14.7-12.4,6.1-9.2c-2.6,1-5,2-7.3,3.1c-5.5,2.5-9.5,3.7-14.6,4.3l2.3-2.4
				c0.6-0.7,1.7-2,3.2-3.6c2.8-3.1,6.6-7.4,9.3-11c3.3-4.5,3.9-7.8-2.2-4.1c-1.2,0.7-2.4,1.5-3.7,2.3c-6.9,4.3-15.8,9.9-23.8,11.8
				l-1.6,0.4l-0.1-1.6c-0.1-1.4,0-4.1,0.1-6.9c0.1-1.7,0.1-3.5,0.1-5.1c0-3.8,0-5.8-2.9-2.3c-0.9,1.1-1.9,2.7-2.8,4.7
				c-2.2,4.5-4,10.8-3.9,17.1c0.1,6.2,2.2,12.3,7.6,16.7c1.4,1.1,3,2.1,4.8,3l0,0c5.1,2.3,11.2,2.9,17,2.6c7.8-0.4,15-2.4,18.7-4.5
				c1.1-0.6,1.7-1.1,2-1.6C333.1,419.1,330.9,419.6,326.4,418.7z"/>
		</g>
		<g>
			<g>
				<path class="st3" d="M307.6,120.6c-2.9-2.1-5.2-3.6-7.6-5c-2-1.2-4.1-2.3-6.7-3.5c-2.6,5.4-7.5,15.2-11.3,23.9
					c0.8-3.8,2.2-8.3,3.8-12.8c1.7-4.8,3.7-9.6,5.6-13.5l0.6-1.2l1.2,0.5c3.2,1.4,5.7,2.7,8.2,4.2c2.5,1.4,4.9,3,7.8,5.2
					L307.6,120.6z"/>
				<path class="st25" d="M308.4,119.5c-29.9,25.1-26.3,41.6-25.4,69.1c0.3,8.5-1.2,17,0.3,24.5c3.8,18.4,16.5,33.1,39.1,41.9
					c8.7,3.4,48.7-11.5,62.3-29.2C377,180.9,340,141.2,308.4,119.5z"/>
				<path class="st26" d="M297.7,239.6c6.3,6.2,14.5,11.4,24.7,15.4c8.7,3.4,48.7-11.5,62.3-29.2c-3.1-18.1-10.9-35.3-21.3-50.9
					c5.4,15.4,9,33,7.8,42.9c-2.2,17.9-34.7,34.1-50.9,30.1C309.6,245.4,304.3,243.3,297.7,239.6z"/>
				<path class="st3" d="M308.5,121.2c-26,22.2-25.4,37.6-24.4,60.6c0.1,2.1,0.2,4.4,0.3,6.8c0.1,3.2,0,6.4-0.2,9.5
					c-0.2,5.2-0.5,10.2,0.5,14.8c1.9,9.1,6,17.3,12.5,24.3c6.3,6.7,14.8,12.4,25.7,16.6c4.5,1.7,18.2-1.9,32.1-8.4
					c11.2-5.2,22.2-12.3,28.3-19.9c-3.5-19.8-12.7-38.5-24.6-55.1C344.1,150.2,325.6,133.1,308.5,121.2L308.5,121.2z M281.3,181.9
					c-1-24-1.7-40,26.2-63.5l0.8-0.7l0.9,0.6c17.5,12,36.7,29.6,51.7,50.4c12.2,17.1,21.7,36.4,25.2,56.9l0.1,0.6l-0.4,0.5
					c-6.3,8.1-18,15.7-29.7,21.2c-14.4,6.7-29.1,10.4-34.2,8.4c-11.3-4.4-20.2-10.3-26.7-17.3c-6.9-7.4-11.2-16-13.2-25.6
					c-1-4.9-0.8-10.1-0.5-15.5c0.1-3.1,0.3-6.2,0.2-9.3C281.5,186.4,281.4,184.1,281.3,181.9z"/>
				<path class="st19" d="M308.4,119.5c-14.7,12.4-21.3,22.7-24.1,33.2c16.6-13.7,41-9.1,62.6,0.9
					C334.7,139.9,321.1,128.2,308.4,119.5z"/>
				<path class="st3" d="M308.5,121.2c-6.9,5.8-11.9,11.2-15.5,16.4c-2.8,3.9-4.8,7.7-6.1,11.5c7.1-4.6,15.3-6.4,24-6.3
					c10,0.1,20.5,2.9,30.7,7c-4.5-4.8-9.2-9.3-13.9-13.4C321.2,130.7,314.8,125.6,308.5,121.2L308.5,121.2z M290.7,136
					c3.9-5.5,9.3-11.3,16.8-17.6l0.8-0.7l0.9,0.6c6.6,4.5,13.5,9.9,20.3,15.9c6.3,5.6,12.6,11.8,18.5,18.4l-1.6,2.2
					c-11.6-5.3-24-9.1-35.5-9.3c-9.5-0.1-18.4,2.2-25.7,8.2l-2.2-1.4C284.4,146.9,286.8,141.6,290.7,136z"/>
			</g>
			<g>
				<path class="st3" d="M334.1,192.3c2.5-3.6,5.5-5.3,11.8-4.5C340.2,190,337.8,191,334.1,192.3z"/>
				<path class="st3" d="M335.8,179.6c0,1.3-0.8,11.5,1.7,10.8c1-0.3,2-0.6,2.4-1.5C342.1,183.5,335.8,173.4,335.8,179.6z"/>
				<path class="st3" d="M302,192.1c-3.4-4.5-7.3-5.6-11.7-4.9C294.4,188.6,299.5,191.2,302,192.1z"/>
				<path class="st3" d="M296.8,179c0,0.8-0.7,6.7-0.5,9.4c0.1,1,2.9,1.7,3.2,1.3C302.5,184.9,297.2,173.1,296.8,179z"/>
				<path class="st3" d="M344.3,161.3c-3.2-2.4-6.4-2.9-10.1-1.4c1.5-2.2,3.4-3.7,5.3-3.5C341.5,156.6,343.3,158.5,344.3,161.3z"/>
				<path class="st3" d="M299.3,159.9c-2.6-2.1-7.6-1.6-10.2,0.7c1.2-2.1,2.7-4.3,4.1-4.6C294.9,155.6,298,157.1,299.3,159.9z"/>
				<path class="st22" d="M347.9,213.6c3.7,33.3-23,35.4-34.4,5.7C324.1,220.2,338.2,216.4,347.9,213.6z"/>
				<path class="st4" d="M320.3,220.3c7.6,0.2,16-3.4,23.1-4.8C337.9,221.8,328.3,225.6,320.3,220.3z"/>
				<path class="st27" d="M346.3,231.9c-2,10.4-12.1,13.9-23.6,4.2C329.9,231.4,338.2,230.2,346.3,231.9z"/>
				<path class="st3" d="M347,215.2c1.4,6.8-1.8,21.7-6.3,25.2c7-1.7,10.1-17.6,9-26.3l-0.4-1.9c-7.4,2.2-26.3,7.2-37.3,5.9
					c3.7,10.4,11,24.9,23.3,23.9c-6.5-1.1-15.8-11-19.7-21.4C325.4,221.4,337.5,217.6,347,215.2z"/>
				<path class="st4" d="M341,195.1c1.7-2,7.4-5.2,11.1-6.4c4.8-1.5,9.2-0.6,10.4,0.9C356.2,190.4,348.1,192.6,341,195.1z"/>
				<path class="st4" d="M300.5,195.8c-1.9-1.9-8-4.4-12-5.2c-5-1-9.4,0.4-10.4,2.1C284.2,194.7,292.8,194.8,300.5,195.8z"/>
			</g>
		</g>
		<g>
			<path class="st3" d="M428.3,412.2c1.7,7.7,0.6,17.4-1.2,22.4c0-3.2,0-7.2-0.3-11.1c-0.2-3.9-0.6-7.8-1.2-10.7L428.3,412.2z"/>
			<path class="st7" d="M408.8,369c6.9,10.2,14.1,21.9,18.1,43.5c-17.5,21-55.6,2-71.1-14.9c-10.8-13.9-5.7-41.5,1.9-49.3
				C370.9,358.7,396.6,363.9,408.8,369z"/>
			<path class="st18" d="M408.8,369c6.9,10.2,14.1,21.9,18.1,43.5c-17.5,21-55.6,2-71.1-14.9c-6.7-8.7-7.3-22.7-4.9-33.9
				c4.7,31.3,54.6,46.8,59.2,31.9c2-6.6,0.5-19.1-8.4-29.1C404.3,367.2,406.8,368.1,408.8,369z"/>
			<path class="st3" d="M410,368.2c3.5,5.1,7.1,10.7,10.3,17.7c3.2,7,6,15.4,8.1,26.3l0.1,0.6l-0.4,0.5c-0.8,1-1.6,1.8-2.5,2.6
				c-8.5,7.8-20.3,8.5-32.2,5.5c-11.7-3-23.5-9.7-32.1-16.9c-2.4-2-4.6-4-6.4-6l-0.1-0.1c-5.1-6.5-6.8-15.8-6.4-24.8
				c0.4-11.1,4-21.8,8.4-26.3l0.9-0.9l1,0.8c8.9,7.1,23.9,11.8,36.3,15.6c5.6,1.7,10.7,3.3,14.5,4.9L410,368.2L410,368.2z
				 M417.7,387c-3-6.7-6.4-12-9.8-16.9c-3.7-1.5-8.5-3-13.9-4.7c-12.2-3.8-26.8-8.3-36.2-15.3c-3.6,4.5-6.5,13.9-6.8,23.6
				c-0.3,8.4,1.2,17.1,5.9,23c1.8,1.9,3.8,3.8,6.1,5.7c8.4,7,19.8,13.4,31,16.3c11.1,2.9,22,2.2,29.7-4.8c0.6-0.6,1.2-1.2,1.8-1.9
				C423.5,401.7,420.8,393.7,417.7,387z"/>
			<path class="st1" d="M359.2,381.3c9.8,8.8,20.4,16.3,33.4,19.4C378.6,400.7,367.4,391.9,359.2,381.3z"/>
		</g>
	</g>
	<g>
		<path class="st28" d="M0.1,431.8c5.8-9.2,12.7-14.2,18.8-10.8c5.4,3,10.6,20.7,11.3,39.8c10.4-38.2,27-52.5,36-51.1
			c8.4,1.3,12.1,13.3,5.6,28.4c47.4-54.2,91.9-10.8,21.9,32.5c18.6-3.8,27.7,7.9,26.5,15.7c-0.7,4.7-4.3,9.6-10.1,13.6H0.1V431.8z"
			/>
		<path class="st29" d="M115.3,475c3.7,3.4,5.4,7.8,4.8,11.4c-0.7,4.7-4.3,9.6-10.1,13.6H83.3C100.4,492.4,113.9,483.8,115.3,475z"
			/>
		<path class="st29" d="M122.9,414.9c13.3,7,10.2,31.4-29.3,55.8c0.2,0,0.3-0.1,0.5-0.1c-11.6,6.1-23.5,11.7-34.6,15.4
			c-0.1,0,10.7-8.5,14-11.1c14.3-11.7,28.5-23.4,40.5-37.3C119.3,431.5,124.2,422.6,122.9,414.9z"/>
		<path class="st29" d="M68,410.2c7.1,2.7,9.7,14,3.8,28c-4.8,6.7-16.9,26-16.9,25.9c2.1-8.3,9.1-22.1,11-31
			C68.3,421.4,71,418.2,68,410.2z"/>
		<path class="st29" d="M12.1,419.1c1.6-0.1,5.2,1.1,6.7,2c5.4,3,10.6,20.7,11.3,39.8c0.5-2,1.1-3.9,1.7-5.7
			c-1.3,10.7-7.6,36.9-7.5,39.5C23.6,468.9,26.1,440,12.1,419.1z"/>
		<path class="st3" d="M0.1,429.4c1.8-2.7,3.8-5,5.8-6.7c3.1-2.7,6.4-4.2,9.6-4c1.4,0.1,2.7,0.5,4,1.2c3,1.7,5.9,7.2,8.1,14.9
			c1.5,5.4,2.7,11.8,3.4,18.6c4.2-13.4,9.2-23.4,14.3-30.6c7.7-10.9,15.6-15.2,21.1-14.4c0.9,0.1,1.7,0.4,2.5,0.7
			c2.9,1.2,5,3.7,6.3,7.1c1.2,3.3,1.6,7.4,0.9,12c-0.2,1.4-0.5,2.8-0.9,4.3c15.1-15.5,29.6-21.5,40-21c5.5,0.2,9.8,2.2,12.7,5.5
			c2.8,3.3,4.1,7.9,3.2,13.4c-1.6,10.4-11,24.2-31.8,38.2c2-0.1,3.9,0,5.7,0.3c4.8,0.7,8.6,2.6,11.4,5.1c2.8,2.5,4.5,5.6,5.1,8.5
			c0.3,1.4,0.3,2.7,0.1,4c-0.7,4.6-3.9,9.4-9.2,13.4h-4.6c6.5-4,10.5-9,11.2-13.8c0.1-1,0.1-2-0.1-3.1c-0.5-2.4-1.9-5-4.3-7.1
			c-2.4-2.1-5.7-3.8-10-4.5c-3.1-0.5-6.6-0.4-10.6,0.4l-7.2,1.4l6.2-3.8c23.5-14.5,33.8-28.9,35.5-39.5c0.7-4.7-0.3-8.5-2.6-11.2
			c-2.3-2.7-6.1-4.4-10.8-4.6c-10.7-0.5-26.3,6.5-42.3,24.8l-5.8,6.4l3.6-7.7c1.5-3.4,2.4-6.7,2.8-9.7c0.6-4.2,0.3-7.9-0.7-10.8
			c-1-2.7-2.7-4.7-4.9-5.6c-0.6-0.2-1.2-0.4-1.9-0.5c-4.6-0.7-11.6,3.3-18.6,13.3c-5.7,8.1-11.5,20.2-16,36.9l-2.7,9.1l0.1-9.4
			c-0.3-9.4-1.8-18.4-3.8-25.4c-2-7-4.4-11.9-6.8-13.3c-0.9-0.5-1.9-0.8-2.9-0.9c-2.5-0.2-5.1,1.1-7.7,3.4c-2.6,2.3-5.2,5.7-7.5,9.7
			V429.4z"/>
		<path class="st3" d="M23.5,499.9c10.6-7.4,21.5-15.7,32.1-24.4c5.7-4.7,28.9-24.8,54.2-49.2c-12.1,14.7-31.9,33.2-53.1,50.6
			c-10,8.1-20.2,16-30.2,23H23.5z"/>
		<path class="st3" d="M57.7,435.1c-2.2,6.4-7.5,19.7-12.4,31.9c-5,12.4-9.5,23.9-10,26.1l-1.7-0.4c0.5-2.3,5.1-13.9,10.1-26.4
			C45.3,462.3,50.6,447.3,57.7,435.1z"/>
		<path class="st3" d="M15.8,479.3c0.4,8.2,0.8,15.4,1.2,20.7h-1.8c-0.4-5.3-0.8-12.4-1.2-20.6c-0.5-11.5-1.1-24.9-1.5-38
			C14.3,452.8,15.6,474.1,15.8,479.3z"/>
		<path class="st3" d="M31.2,494.7l0.7-0.1c13.4-1,44.4-3.4,61.9-6.4c-16.3,5.8-54.2,7.6-61.7,8.1l-0.7,0.1L31.2,494.7z"/>
		<path class="st3" d="M31.7,458.1c-1.9,10.7-3.6,20.6-6.1,31.2c1.2-10.6,2.7-21,4.2-31.5c0.1-0.5,0.6-0.9,1.1-0.8
			C31.4,457.1,31.8,457.6,31.7,458.1z"/>
		<path class="st3" d="M96.8,469.5c-11.3,5.3-21.2,10.4-32.8,15.1c10.7-5.7,21.2-11.4,32-16.8c0.5-0.2,1,0,1.3,0.5
			C97.5,468.8,97.3,469.3,96.8,469.5z"/>
		<path class="st3" d="M73.8,435.9c-7.2,10.7-14.3,21.3-21.5,32c6.4-12,12.6-21.6,19.9-33c0.3-0.4,0.9-0.6,1.3-0.3
			C74,434.8,74.1,435.4,73.8,435.9z"/>
	</g>
	<g>
		<path class="st28" d="M499.5,471.8c-2-15.6-15.1-33.5-18-32.7c-2,0.6-0.7,10.5,1.7,19.2c-6-10.2-26.6-27.5-30.7-25.8
			c-4.3,1.7,11.8,27.6,12.6,28.8c-7.2-6.5-37.1-12.5-28-0.1c3.2,4.3,8.3,9.1,12.5,12.4c-10.2-2.2-40.1-3.2-49.3,8.4
			c-4.5,5.7,10,12.5,29.5,17.9H500v-24.7C499.8,473.9,499.7,472.7,499.5,471.8z"/>
		<path class="st29" d="M482.1,439.2c-0.2-0.1-0.4-0.1-0.6,0c-2,0.6-0.7,10.5,1.7,19.2c-0.1-0.2-0.2-0.3-0.3-0.5
			c2.8,12.5,4.5,26.8,3.7,26c-4.8-5.3-7.6-19-16.6-27.5c-3.6-3.4-8-10.4-11.9-14.3c-9-9-5.6-5.7-1.9,4c3.7,7.2,8.4,14.7,8.8,15.4
			c-0.3-0.2-0.5-0.5-0.8-0.7c3.6,5.3,7.7,10.6,10.6,14.4c3.7,4.9,7.8,7.2,11,15.1c1.4,3.4-4.5-1-7.4-4.8c-5.9-7.8-54.7-36.7-37-20
			c10.6,10,18.6,16,31.6,24.6c19,12.6-34.2-3.3-42.6-4c-2.9-0.3-16.7-3.6-30.6-3.2c1.2,6.1,14.7,12.3,31.6,17.2H500v-3
			c-2.7-10.2-9.2-31.4-10.4-35.1C489.5,461.5,484.9,443.9,482.1,439.2z"/>
		<path class="st3" d="M500,467.8c-0.2-1.1-0.5-2.1-0.8-3.2c-2-6.8-5.5-13.4-8.9-18.3c-3.5-5.2-7.1-8.5-8.8-8.3
			c-0.1,0-0.2,0-0.3,0.1c-1.6,0.5-2,3.3-1.7,7.3c0.2,2.2,0.6,4.8,1.1,7.5c-3.5-4.2-8.2-8.8-12.7-12.7c-6.7-5.7-13.4-9.7-15.9-8.7
			c-0.1,0-0.2,0.1-0.3,0.2h0c-1.5,0.9-1.4,3.4-0.3,6.6c0.9,2.7,2.6,6.1,4.3,9.5c1.9,3.7,4,7.3,5.7,10.1c-5.2-2.5-12.7-4.5-18.4-4.8
			c-2.2-0.1-4.1,0.1-5.6,0.5c-1.7,0.6-2.9,1.6-3.2,3.1c-0.3,1.4,0.2,3.2,1.9,5.4c1.5,2.1,3.5,4.2,5.6,6.3c1.2,1.2,2.5,2.4,3.8,3.5
			c-7-0.9-17.5-1.1-26.9,0.5c-8,1.4-15.4,4.1-19.3,9.1c-0.8,1-1.1,2.1-1.1,3.1c0.2,2.8,3.2,5.6,8.1,8.2c4.7,2.5,11.1,4.9,18.5,7.1
			l0.6,0.2h8.9c-3-0.8-6-1.6-8.7-2.4c-7.3-2.2-13.6-4.6-18.1-6.9c-4.2-2.2-6.8-4.4-6.9-6.2c0-0.5,0.2-1,0.6-1.5
			c3.5-4.4,10.3-6.9,17.8-8.2c11.4-1.9,24.3-1.1,30.4,0.2l7,2.3l-6-4.4c-2.2-1.7-4.6-3.9-6.9-6.1c-2-2-3.9-4.1-5.3-6
			c-1.2-1.6-1.6-2.8-1.5-3.5c0.1-0.6,0.7-1,1.6-1.3c1.2-0.4,2.8-0.5,4.7-0.4c7.2,0.3,17.5,3.6,21.3,7l7,6.3l-5.2-7.9
			c-0.4-0.6-4.6-7.4-8.2-14.2c-1.7-3.3-3.3-6.6-4.2-9.2c-0.7-2.1-1.1-3.5-0.8-3.7c1.6-0.6,7.4,3.2,13.5,8.3
			c6.3,5.3,12.9,12.1,15.8,17l4,6.7l-1.8-7.6c-1.2-4.5-2.2-9.3-2.5-13c-0.2-2.7-0.3-4.6,0-4.8c0.9,0,3.5,2.9,6.5,7.3
			c3.2,4.7,6.6,11.2,8.6,17.7c0.7,2.3,1.2,4.5,1.5,6.7l0,0.1c0.7,3.6,1.3,12.5,1.5,20.6c0.1,2.1,0.1,4.1,0.1,5.9V467.8L500,467.8z
			 M500,499.9L500,499.9L500,499.9L500,499.9z"/>
		<path class="st3" d="M494.5,499.9c-9.1-16.9-15.4-36.4-29.1-50.6c11.5,15.6,17.7,33.9,26.2,50.6H494.5z"/>
		<path class="st3" d="M495.4,499.9c-12.2-13.6-32.5-29.5-46.2-36.5c12.5,9.1,30.9,23.1,42.9,36.5H495.4z"/>
		<path class="st3" d="M482.9,499.9c-21.6-6.6-51.7-15.6-65.1-16.5c11.5,2.2,36.6,10,57.1,16.5H482.9z"/>
		<path class="st3" d="M500,497.5c-3.3-16-7.7-33.3-13.5-47.5c3.8,15,8.3,33.4,11.4,50h2.1V497.5z"/>
		<path class="st3" d="M462.8,461.1c9.9,10.7,4.9,5.3,15,16.2c-8-12.6-3.7-6.5-13-18.1L462.8,461.1z"/>
		<path class="st3" d="M480.3,455.7c6,13.3,2.9,6.7,9.2,19.8c-3.8-14-1.6-7.1-6.6-20.8L480.3,455.7z"/>
		<path class="st3" d="M448.8,471.5c7.9,5.6,13.4,9.6,22.4,13.5c-9.9-1.7-15.6-6-23.9-11.2L448.8,471.5z"/>
	</g>
	<g>
		<g>
			<g>
				<polygon class="st2" points="153.4,181.7 165.1,169.5 169.2,177.3 				"/>
				<polygon class="st1" points="176.2,189.8 208.9,152 149.9,148.2 158.4,161.6 169.2,177.3 				"/>
				<path class="st3" d="M176.4,188.3l30.7-35.6l-55.5-3.6l7.8,12.3l-4.6,18.6l11.5-10L176.4,188.3L176.4,188.3z M209.6,152.5
					l-33.5,38.8l-11.6-20.8L153,180.9l4.5-19.2l-9.2-14.6l62.6,4L209.6,152.5z"/>
				<polygon class="st2" points="153.4,181.7 165.6,168.9 208.9,152 158.4,161.6 				"/>
				<path class="st3" d="M155,178.9c3.1-2.8,6.9-7.2,10.1-10.7c12.9-4.5,21.6-7.9,38.6-14.3c-9.2,1.7-18.9,2.7-28.1,4.4
					c7.6-2.7,27.8-6.2,33.2-7.2l0.6,1.6c-17.6,6.8-29.6,12-43.2,17.3l-14.1,13.2c1.9-7.5,3.7-15,5.6-22.5c3.7-0.7,8.7-1.1,13.9-1.7
					c-3.2,1.2-8.9,2.6-12.5,3.3C157.6,168.2,156.5,173,155,178.9z"/>
				<path class="st3" d="M152.4,182.8c9-3.1,5.6-1.5,14.7-4.9c-9.6,1.7-4.9,0.7-14.1,3.1C152.7,181,151.9,182.9,152.4,182.8z"/>
			</g>
		</g>
		<path class="st1" d="M45.6,2.8L45,4.3l-0.5,1.3l-0.5,1.3l-0.5,1.3l-0.5,1.3l-0.6,1.6l1.7,0.6l0.5-1.6l0.5-1.3l0.5-1.3l0.5-1.3
			L46.7,5l0.6-1.5L45.6,2.8L45.6,2.8z M39.9,19.6l-0.4,1.5l-0.4,1.3l-0.3,1.3l-0.3,1.3l-0.3,1.3l-0.3,1.3l-0.2,0.6l1.7,0.4l0.2-0.6
			l0.3-1.3l0.3-1.3l0.3-1.3l0.3-1.3l0.4-1.3l0.4-1.5L39.9,19.6L39.9,19.6z M35.8,36.8l-0.1,0.8l-0.2,1.2L35.2,40L35,41.3l-0.2,1.2
			l-0.2,1.2L34.4,45l-0.1,0.5l1.7,0.2l0.1-0.5l0.2-1.2l0.2-1.2l0.2-1.2l0.2-1.2l0.2-1.2l0.2-1.2l0.1-0.8L35.8,36.8L35.8,36.8z
			 M33.4,54.3l-0.1,1.6l-0.1,1.2l-0.1,1.2l-0.1,1.2l0,1.2l0,1.2l0,1.3l1.8,0l0-1.3l0-1.2l0-1.2l0.1-1.2l0.1-1.2L35,56l0.1-1.6
			L33.4,54.3L33.4,54.3z M33.2,72l0.1,1.5l0.1,1.1l0.1,1.1l0.1,1.1l0.1,1.1l0.1,1.1l0.1,1.1l0.1,0.6l1.7-0.2l-0.1-0.6L35.5,79
			l-0.1-1.1l-0.1-1.1l-0.1-1.1l-0.1-1.1L35,73.4l-0.1-1.5L33.2,72L33.2,72z M35.3,89.6l0.1,0.5l0.2,1.1l0.2,1.1l0.2,1.1l0.3,1.1
			l0.3,1l0.3,1l0.3,1l0.2,0.7l1.7-0.5L38.9,97l-0.3-1l-0.3-1l-0.3-1l-0.3-1l-0.2-1l-0.2-1l-0.2-1.1l-0.1-0.5L35.3,89.6L35.3,89.6z
			 M40.3,106.6l0.4,1l0.4,1l0.4,1l0.4,1l0.4,1l0.4,1l0.4,0.9l0.5,0.9l0.2,0.4l1.6-0.8l-0.2-0.4l-0.5-0.9l-0.4-0.9l-0.4-0.9l-0.4-0.9
			l-0.4-0.9l-0.4-1l-0.4-1l-0.4-1L40.3,106.6L40.3,106.6z M48.3,122.5l0.6,0.9l0.6,0.9l0.6,0.9l0.6,0.9l0.6,0.8l0.6,0.8l0.6,0.8
			l0.6,0.8l0.4,0.5l1.4-1.1l-0.4-0.4l-0.6-0.8l-0.6-0.8l-0.6-0.8l-0.6-0.8l-0.6-0.8l-0.6-0.8l-0.6-0.9l-0.6-0.9L48.3,122.5
			L48.3,122.5z M59.3,136.4l0.7,0.7l0.7,0.7l0.8,0.7l0.8,0.7l0.8,0.7l0.8,0.7l0.8,0.7l0.8,0.7l0.4,0.4l1.1-1.3l-0.4-0.3l-0.8-0.7
			l-0.8-0.7l-0.8-0.7l-0.8-0.7l-0.7-0.7l-0.7-0.7l-0.7-0.7l-0.7-0.7L59.3,136.4L59.3,136.4z M72.8,147.9l1.1,0.8l0.9,0.6l0.9,0.6
			l0.9,0.6l0.9,0.6l1,0.6l1,0.6l0.8,0.5l0.9-1.5l-0.8-0.4l-0.9-0.6l-0.9-0.6l-0.9-0.6l-0.9-0.6l-0.9-0.6l-0.9-0.6l-1.1-0.7
			L72.8,147.9L72.8,147.9z M88.2,156.7l0.4,0.2l1.1,0.5l1.1,0.5l1.1,0.5l1.1,0.4l1.1,0.4l1.1,0.4l1.3,0.5l0.6-1.7l-1.3-0.5l-1.1-0.4
			l-1.1-0.4l-1.1-0.4l-1.1-0.4l-1.1-0.5l-1-0.5l-0.4-0.2L88.2,156.7L88.2,156.7z M104.9,162.7l0.6,0.2l1.2,0.3l1.2,0.3l1.2,0.3
			l1.2,0.3l1.2,0.3l1.3,0.3l0.6,0.1l0.3-1.7l-0.6-0.1l-1.2-0.3l-1.2-0.3l-1.2-0.3l-1.2-0.3l-1.2-0.3l-1.2-0.3l-0.6-0.2L104.9,162.7
			L104.9,162.7z M122.2,166.3l1.1,0.2l1.3,0.2l1.4,0.2l1.4,0.2l1.4,0.1l1.4,0.1l0.9,0.1l0.1-1.8l-0.8-0.1l-1.4-0.1l-1.4-0.1
			l-1.3-0.2l-1.3-0.2l-1.3-0.2l-1.1-0.2L122.2,166.3z"/>
	</g>
</g>
</svg>
