<svg width="56" height="56" viewBox="0 0 56 56" fill="none" xmlns="http://www.w3.org/2000/svg">
<g clip-path="url(#clip0_116_37255)">
<path d="M7.63947 17.4312C5.44065 20.0523 0 22.6592 0 27.3376C0 30.4096 0.281899 33.8761 5.42656 36.6099C9.52819 38.7941 8.89392 43.9375 8.89392 43.9375C9.09125 47.6718 12.2767 49.1373 16.0683 49.4333C19.8598 49.7292 22.3969 46.6572 25.4978 49.6164C28.6128 52.5757 34.1803 55.1967 38.296 49.2923C41.566 44.5857 42.5104 42.6129 48.7122 42.3311C56.5208 41.9788 57.7048 33.2561 54.3361 29.5077C54.1669 29.3245 53.9978 29.1414 53.8287 28.9723C50.6432 25.6889 48.4021 25.1112 48.7827 19.2209C49.3465 10.3291 45.9778 6.1016 41.3123 4.69244C36.2663 3.17055 31.0512 8.13079 26.9919 6.63708C22.6224 5.04473 19.3947 2.5787 14.5319 5.04473C9.89466 7.38393 9.85238 14.8102 7.63947 17.4312Z" fill="#9792EF"/>
<path d="M46.256 36.7214L45.524 33.7854L30.8409 31.7022L16.4956 28.976L14.9611 30.416L5.71204 41.7825L23.633 41.0834C23.5204 41.391 23.633 41.8244 23.7034 42.1599C23.802 42.6912 22.4787 43.4182 21.5073 44.2431C20.55 45.068 19.5505 47.1371 19.5505 47.1371C19.5505 47.1371 21.7044 47.5146 21.7748 47.5286C21.8311 47.5286 24.534 42.2298 24.703 41.7825C24.7593 41.6426 24.886 41.4889 25.0267 41.3351L45.5381 49.472L46.256 36.7214Z" fill="#5344C6"/>
<path d="M50.6644 14.8862L15.3004 28.5787L14.5264 29.4934C17.96 28.9305 17.7771 30.4363 19.7613 30.6614C17.7349 31.9139 15.8632 35.1787 13.8227 35.6712C12.1622 36.0653 9.06626 36.8674 7.96861 37.1488L5.02747 40.5966L5.70294 41.8772L50.2282 27.087L51.1992 15.4913L50.6644 14.8862Z" fill="#381D0B"/>
<path d="M42.446 41.2581C40.9825 40.0056 41.3625 36.2483 40.3774 34.2922C42.3475 34.9114 43.8814 33.7012 46.9914 36.192L47.0899 34.0811L16.8483 11.2556L5.82953 19.0658L5.25256 19.8398L45.4998 49.6453L46.3722 48.9698L46.5693 44.9028C45.7812 44.1992 43.6281 42.2713 42.446 41.2581Z" fill="#381D0B"/>
<path d="M46.9915 36.1919L46.2316 36.783C46.2316 36.783 45.3169 35.7979 43.9378 35.4179C42.5587 35.0239 41.9817 35.6572 40.1101 34.9254C39.5331 34.3062 39.9975 33.7292 39.9975 33.7292L44.2333 33.87L46.9915 36.1919Z" fill="#381D0B"/>
<path d="M42.4461 41.258C40.9826 40.0056 41.3625 36.2482 40.3774 34.2922C42.3476 34.9114 43.8815 33.7011 46.9915 36.1919L47.09 34.0811L15.1033 10.4253L5.82959 19.0658L46.3723 48.9697L46.5693 44.9028C45.7813 44.1992 43.6282 42.2712 42.4461 41.258Z" fill="#4C230C"/>
<path d="M31.2866 22.3868L17.5519 27.7062L27.1211 34.7706L41.5454 29.986L31.2866 22.3868Z" fill="#381D0B"/>
<path d="M14.5264 29.4794L14.9485 30.4363C14.9485 30.4363 15.9618 29.8734 16.989 30.4363C18.0023 30.9992 18.8607 31.8154 20.4649 31.4073C20.7886 30.4363 20.4649 29.6905 20.4649 29.6905C20.4649 29.6905 16.8483 28.5787 16.7639 28.5787C16.6795 28.5787 14.5264 29.4794 14.5264 29.4794Z" fill="#381D0B"/>
<path d="M15.3004 28.5788L14.5264 29.4935C17.96 28.9306 17.7771 30.4504 19.7613 30.6615C17.7349 31.9139 15.8632 35.1787 13.8227 35.6713C12.1622 36.0653 9.06626 36.8674 7.96861 37.1489L5.02747 40.5966L49.4823 26.3272L50.6644 14.8722L15.3004 28.5788Z" fill="#682F13"/>
<path d="M31.371 21.7255L15.1033 27.1293L24.771 34.2922L25.8265 33.9263L31.371 21.7255Z" fill="#381D0B"/>
<path d="M31.3711 21.7255L16.2291 26.7493L25.8265 33.9263L31.3711 21.7255Z" fill="#4C230C"/>
<path d="M6.7443 18.7702C6.7443 18.7702 23.3216 31.5761 23.9408 32.0265C24.56 32.4768 25.8125 33.2508 27.7826 32.6456C29.7527 32.0265 48.835 25.9049 48.835 25.9049L50.2141 14.3515L50.0874 14.0419L31.1741 19.8819L16.8202 9.34167L6.73022 18.4465C6.7443 18.4184 6.7443 18.7702 6.7443 18.7702Z" fill="#381D0B"/>
<path d="M6.74426 18.4184C6.74426 18.4184 23.3216 31.2243 23.9408 31.6747C24.56 32.125 25.8124 32.899 27.7826 32.2938C29.7527 31.6747 48.5676 25.6376 48.5676 25.6376L50.0874 14.0278L31.174 19.5301L16.8201 8.98987L6.74426 18.4184Z" fill="#844914"/>
<path d="M17.6364 8.76465L7.26501 18.3339L23.8424 31.1398C23.8424 31.1398 24.743 30.7177 25.3903 30.7177C26.0377 30.7177 27.4308 31.9842 27.4308 31.9842L47.7655 25.3561L49.3838 13.8729L47.6389 13.099L31.6385 18.8546L18.2556 8.76465H17.6364Z" fill="#ECB67B"/>
<path d="M47.9625 13.2397C47.8077 14.1826 47.6388 15.1255 47.47 16.0683L46.9352 18.8828L46.3723 21.6973L46.0768 23.1045L45.7672 24.4977L46.0064 23.0905L46.2597 21.6832L46.7945 18.8687L47.3574 16.0542C47.5685 15.1114 47.7655 14.1685 47.9625 13.2397Z" fill="#E2A05D"/>
<path d="M48.2159 13.3945C48.0751 14.3233 47.9344 15.2521 47.7796 16.1809L47.3012 18.9531L46.7946 21.7254L46.5272 23.1045L46.2457 24.4836L46.4568 23.0904L46.682 21.6973L47.1604 18.925L47.667 16.1527C47.85 15.238 48.0189 14.3092 48.2159 13.3945Z" fill="#E2A05D"/>
<path d="M48.5395 13.5493C48.4129 14.4781 48.2581 15.4069 48.1173 16.3357L47.667 19.1079L47.1745 21.8802L46.9212 23.2593L46.6538 24.6384L46.8649 23.2452L47.076 21.8521L47.5263 19.0798L48.0188 16.3075C48.1877 15.3928 48.3566 14.464 48.5395 13.5493Z" fill="#E2A05D"/>
<path d="M48.8491 13.676C48.7224 14.6048 48.5817 15.5336 48.4551 16.4624L48.0188 19.2487L47.5544 22.021L47.3152 23.4142L47.0619 24.7933L47.2589 23.4001L47.47 22.0069L47.9062 19.2206L48.3706 16.4483C48.5113 15.5195 48.6802 14.6048 48.8491 13.676Z" fill="#E2A05D"/>
<path d="M49.1586 13.8307C49.0461 14.7735 48.9053 15.7164 48.7787 16.6452L48.3565 19.4597L47.9062 22.2742L47.681 23.6814L47.4277 25.0886L47.6107 23.6814L47.8077 22.2742L48.2299 19.4597L48.6802 16.6452C48.835 15.6883 48.9898 14.7595 49.1586 13.8307Z" fill="#E2A05D"/>
<path d="M8.95374 17.8414C8.95374 17.8414 12.697 20.5292 15.8774 22.3024C19.0437 24.0755 24.9963 28.4802 25.4185 30.7036C27.3323 28.7616 29.7528 26.2708 34.3123 25.7923C38.8718 25.3139 44.5289 24.7228 45.3029 24.2725C45.6969 22.3305 47.667 13.0849 47.667 13.0849C47.667 13.0849 45.4014 13.5352 42.9809 13.7041C40.5604 13.8589 33.0176 15.4491 31.6667 18.8406C30.569 16.1246 28.9507 14.5062 25.8125 13.0849C22.6744 11.6636 18.2556 8.75061 18.2556 8.75061L8.95374 17.8414Z" fill="#FFE6BD"/>
<path d="M25.4044 30.7037C27.3183 28.7617 29.7387 26.2708 34.2982 25.7924C38.8577 25.3139 44.5148 24.7229 45.2888 24.2726C45.6828 22.3306 47.653 13.085 47.653 13.085C47.653 13.085 45.3873 13.5353 42.9668 13.7041C40.5464 13.8589 33.0035 15.4491 31.6526 18.8406L25.4044 30.7037Z" fill="#FFE9D2"/>
<path d="M37.5912 25.8627C28.9647 27.5796 25.4044 30.7177 25.4044 30.7177C26.0518 30.7177 27.4449 31.9842 27.4449 31.9842L47.7796 25.3561C47.7796 25.3561 46.0909 24.6244 45.2888 24.2866C44.2896 24.8495 42.4743 24.8495 37.5912 25.8627Z" fill="#FFC892"/>
<path d="M20.1976 24.4696C17.4534 22.5979 8.95367 17.8414 8.95367 17.8414L7.27905 18.3199L23.8564 31.1258C23.8564 31.1258 24.757 30.7036 25.4044 30.7036C25.728 28.7054 22.9417 26.3412 20.1976 24.4696Z" fill="#FFC892"/>
<path d="M20.1976 24.4696C17.4535 22.5979 8.95374 17.8414 8.95374 17.8414C8.95374 17.8414 19.9162 25.1732 21.3093 26.116C22.7025 27.0589 25.32 29.4512 25.4185 30.7036C25.7281 28.7054 22.9417 26.3412 20.1976 24.4696Z" fill="#ECB67B"/>
<path d="M8.78479 18.2635C8.78479 18.2635 22.9135 28.255 25.4044 30.7036C23.589 28.2831 13.3443 20.9232 8.78479 18.2635Z" fill="#ECB67B"/>
<path d="M8.32043 18.2635L10.375 19.7693L12.4296 21.2891L16.5247 24.3288L20.5916 27.3966L22.618 28.9445L24.6304 30.4925L22.5758 28.9868L20.5212 27.481L16.4402 24.4273L12.3733 21.3595L10.3469 19.8256L8.32043 18.2635Z" fill="#ECB67B"/>
<path d="M26.0518 30.7036C26.7976 30.2955 27.5716 29.9155 28.3315 29.5356C29.1055 29.1697 29.8654 28.8038 30.6534 28.452C31.0475 28.2831 31.4274 28.1002 31.8355 27.9454C32.2296 27.7765 32.6236 27.6217 33.0317 27.481C33.8479 27.2136 34.6782 26.9885 35.5084 26.7915C36.3387 26.5944 37.1831 26.4256 38.0133 26.2567C38.8436 26.0878 39.688 25.919 40.5323 25.7642C41.3767 25.6094 42.2069 25.4546 43.0513 25.2857C43.8956 25.1168 44.7259 24.962 45.5421 24.7087C45.1481 24.8635 44.74 24.9902 44.3178 25.1028C43.9097 25.2153 43.4875 25.3139 43.0794 25.4124C42.2491 25.6094 41.4189 25.7782 40.5745 25.9612C38.8999 26.313 37.2394 26.6367 35.5788 27.0448C34.7485 27.2418 33.9183 27.4529 33.1161 27.7062C32.7221 27.8328 32.314 27.9876 31.92 28.1565L30.7379 28.635C29.9498 28.9586 29.1758 29.2964 28.3878 29.6482C27.5997 30 26.8257 30.3518 26.0518 30.7036Z" fill="#ECB67B"/>
<path d="M26.7131 30.8865C28.247 30.197 29.795 29.5637 31.3711 29.0008C32.1592 28.7194 32.9613 28.452 33.7634 28.2128C34.1575 28.0861 34.5656 27.9735 34.9737 27.8609C35.3818 27.7484 35.7899 27.6499 36.198 27.5513C37.8304 27.1432 39.4487 26.7211 41.067 26.2989C41.8832 26.0878 42.6854 25.8627 43.4875 25.6375C43.8956 25.5249 44.2896 25.4123 44.6977 25.2998C45.1058 25.1872 45.4999 25.0605 45.8939 24.9198C44.3178 25.4968 42.6994 25.933 41.0811 26.3974C39.4628 26.8477 37.8444 27.2699 36.212 27.678C34.5796 28.072 32.9754 28.5505 31.3993 29.0993C30.6112 29.3667 29.8231 29.6622 29.0351 29.9577C28.2611 30.2533 27.4871 30.5628 26.7131 30.8865Z" fill="#ECB67B"/>
<path d="M25.3621 28.0158L25.2355 27.7766C24.7992 27.0167 22.7447 25.1732 20.6479 23.8363C18.6496 22.5557 12.7392 18.6999 12.6688 18.6577L12.5281 18.5591L20.0709 10.7349L20.1976 10.8193C20.2538 10.8474 25.2636 13.7323 27.2197 15.0129C29.1899 16.2935 30.7097 18.2777 30.7237 18.3058L30.8223 18.4747L30.8082 18.5169C30.78 18.5732 27.8108 23.8222 25.4184 27.9173L25.3621 28.0158ZM12.7955 18.6154C13.4569 19.0376 18.8185 22.5416 20.7042 23.7378C22.6039 24.948 24.6867 26.7212 25.2777 27.6359C27.5434 23.7378 30.3156 18.8547 30.5971 18.3762C30.386 18.1088 28.9647 16.3357 27.1493 15.1536C25.2918 13.9434 20.676 11.2696 20.1694 10.9882L12.7955 18.6154Z" fill="#E2A05D"/>
<path d="M27.5434 27.9595L27.2338 28.2691L32.3139 18.4184V18.4044C32.328 18.3903 34.0448 16.589 36.0431 15.8572C39.0546 14.83 44.1911 14.3233 44.2474 14.3093L44.5851 14.2811L44.5569 14.3796C44.5569 14.3796 42.5164 20.9092 41.7143 23.4986L41.7002 23.5408L41.4188 23.5689C30.0905 24.3289 27.5715 27.9314 27.5434 27.9595ZM32.4265 18.4888L27.7826 27.5092C28.7677 26.5523 32.2013 24.0615 41.3766 23.4282C42.1365 20.9937 43.9237 15.2521 44.177 14.45C43.4593 14.5204 38.8717 15.041 36.0994 15.9839C34.1996 16.6875 32.5391 18.3762 32.4265 18.4888Z" fill="#E2A05D"/>
<path d="M21.5767 47.661H21.5204C22.0129 43.2 21.5204 41.0188 21.5204 40.9906L21.5767 40.9766C21.5767 40.9906 22.0692 43.1859 21.5767 47.661Z" fill="#992B2B"/>
<path d="M21.7597 47.661H21.7034C22.1959 43.2 21.7034 41.0188 21.7034 40.9906L21.7597 40.9766C21.7597 40.9906 22.2522 43.1859 21.7597 47.661Z" fill="#992B2B"/>
<path d="M21.2389 47.6188H21.1826C21.6752 43.1437 21.2248 40.9203 21.2248 40.8921L21.2811 40.8781C21.2811 40.8921 21.7314 43.1296 21.2389 47.6188Z" fill="#992B2B"/>
<path d="M19.5924 47.281H19.5361C19.5361 47.2247 20.0427 42.3275 21.253 40.8781L21.2952 40.9203C20.099 42.3416 19.6065 47.2247 19.5924 47.281Z" fill="#992B2B"/>
<path d="M19.7051 47.281H19.6488C19.6488 47.2247 20.1554 42.3275 21.3656 40.8781L21.4079 40.9203C20.2117 42.3416 19.7051 47.2247 19.7051 47.281Z" fill="#992B2B"/>
<path d="M19.888 47.4499H19.8317C20.2961 42.5808 21.4359 40.8358 21.45 40.8218L21.5063 40.8499C21.4781 40.864 20.3523 42.5949 19.888 47.4499Z" fill="#992B2B"/>
<path d="M20.0569 47.5062H20.0006C20.465 42.6371 21.6049 40.8921 21.6189 40.8781L21.6752 40.9062C21.6471 40.9203 20.5213 42.6512 20.0569 47.5062Z" fill="#992B2B"/>
<path d="M21.0841 47.647L21.0278 47.6329C21.0419 47.5766 21.7596 42.3839 21.2952 40.9626L21.3515 40.9485C21.83 42.3979 21.1263 47.4359 21.0841 47.647Z" fill="#992B2B"/>
<path d="M21.3374 47.7032H21.2811C21.2952 47.6469 21.9144 42.4401 21.4078 41.0329L21.4641 41.0188C21.9707 42.426 21.3656 47.4921 21.3374 47.7032Z" fill="#992B2B"/>
<path d="M20.2117 47.4359L20.1554 47.4218C20.1835 47.1826 20.9857 41.6521 21.3656 41.0048L21.4219 41.0329C21.0279 41.6662 20.2117 47.3796 20.2117 47.4359Z" fill="#992B2B"/>
<path d="M20.859 47.5484L20.8027 47.5343C20.8168 47.4921 21.4923 43.3407 21.4219 41.1313H21.4782C21.5486 43.3407 20.859 47.5062 20.859 47.5484Z" fill="#992B2B"/>
<path d="M20.7605 47.5484L20.7042 47.5343C20.7183 47.4921 21.3938 43.3407 21.3234 41.1313H21.3797C21.436 43.3407 20.7605 47.5062 20.7605 47.5484Z" fill="#992B2B"/>
<path d="M20.5635 47.5343H20.5072C20.7324 45.3109 21.4641 40.7655 21.4641 40.7233L21.5204 40.7373C21.5063 40.7655 20.7887 45.3109 20.5635 47.5343Z" fill="#992B2B"/>
<path d="M20.4509 47.5343H20.3947C20.6198 45.3109 21.3516 40.7655 21.3516 40.7233L21.4079 40.7373C21.4079 40.7655 20.6902 45.3109 20.4509 47.5343Z" fill="#992B2B"/>
<path d="M21.6752 47.661L21.6049 47.6469C22.1537 43.186 21.6049 41.0047 21.6049 40.9766L21.6611 40.9625C21.6752 40.9907 22.224 43.186 21.6752 47.661Z" fill="#BC4646"/>
<path d="M21.2952 47.6188L21.2249 47.6047C21.7737 43.1437 21.2249 40.9625 21.2249 40.9344L21.2811 40.9203C21.3093 40.9484 21.844 43.1297 21.2952 47.6188Z" fill="#BC4646"/>
<path d="M19.4939 47.281H19.4236C19.4236 47.2247 19.9865 42.3275 21.3234 40.8781L21.3656 40.9203C20.0568 42.3416 19.4939 47.2247 19.4939 47.281Z" fill="#BC4646"/>
<path d="M19.6065 47.281H19.5361C19.5361 47.2247 20.099 42.3275 21.4359 40.8781L21.4781 40.9203C20.1694 42.3416 19.6065 47.2247 19.6065 47.281Z" fill="#BC4646"/>
<path d="M19.7895 47.4359H19.7191C20.2257 42.5668 21.4922 40.8218 21.5063 40.8077L21.5626 40.85C21.5485 40.85 20.2961 42.5809 19.7895 47.4359Z" fill="#BC4646"/>
<path d="M19.9443 47.4921H19.8739C20.3805 42.6231 21.647 40.8781 21.6611 40.864L21.7174 40.9062C21.7033 40.9062 20.4509 42.6371 19.9443 47.4921Z" fill="#BC4646"/>
<path d="M21.1826 47.661L21.1263 47.647C21.1404 47.5907 21.9425 42.398 21.4219 40.9766L21.4782 40.9485C21.9988 42.3979 21.2249 47.45 21.1826 47.661Z" fill="#992B2B"/>
<path d="M21.4218 47.7032L21.3514 47.6891C21.3655 47.6328 22.041 42.426 21.4922 41.0187L21.5485 40.9906C22.1114 42.426 21.4499 47.4921 21.4218 47.7032Z" fill="#BC4646"/>
<path d="M20.085 47.4217L20.0287 47.4076C20.0709 47.1684 20.9434 41.6239 21.3656 40.9906L21.4219 41.0187C20.9997 41.652 20.099 47.3654 20.085 47.4217Z" fill="#BC4646"/>
<path d="M20.9434 47.5766L20.8871 47.5625C20.9012 47.5203 21.647 43.3689 21.5766 41.1595H21.647C21.7033 43.3689 20.9434 47.5344 20.9434 47.5766Z" fill="#BC4646"/>
<path d="M20.6057 47.5344L20.5494 47.5203C20.5635 47.4781 21.4501 43.1579 21.3797 40.9485H21.4501C21.5064 43.1579 20.6198 47.4922 20.6057 47.5344Z" fill="#BC4646"/>
<path d="M20.5494 47.5343H20.479C20.7323 45.3109 21.5344 40.7655 21.5344 40.7233L21.5907 40.7373C21.6048 40.7655 20.8027 45.3109 20.5494 47.5343Z" fill="#BC4646"/>
<path d="M20.3243 47.5343H20.2539C20.5072 45.3109 21.3093 40.7655 21.3093 40.7233L21.3656 40.7373C21.3797 40.7655 20.5776 45.3109 20.3243 47.5343Z" fill="#BC4646"/>
<path d="M24.0534 15.8432C24.2645 15.7728 24.4193 15.604 24.4896 15.407C24.4896 15.4633 24.5037 15.5336 24.5318 15.5899C24.6726 15.9839 25.0807 16.1809 25.4606 16.0402C25.6154 15.9839 25.7421 15.8854 25.8265 15.7447C25.8124 15.8714 25.8124 15.998 25.8546 16.1247C25.9954 16.5187 26.4035 16.7157 26.7834 16.575C26.7975 16.5609 26.8256 16.5609 26.8397 16.5468C26.8397 16.6313 26.8538 16.7016 26.8819 16.7861C27.0227 17.1801 27.4308 17.3771 27.8107 17.2364C27.8529 17.2223 27.9092 17.1942 27.9514 17.166C27.8389 17.349 27.8107 17.5882 27.8811 17.7993C28.0077 18.1652 28.3877 18.3622 28.7536 18.2637C28.5847 18.4607 28.5143 18.7421 28.6128 19.0095C28.7536 19.4035 29.1617 19.6006 29.5416 19.4598C29.9216 19.3191 30.1186 18.8969 29.9779 18.5029C29.8512 18.137 29.4713 17.94 29.1054 18.0385C29.2742 17.8415 29.3446 17.56 29.2461 17.2927C29.1054 16.8986 28.6973 16.7016 28.3173 16.8424C28.2751 16.8564 28.2188 16.8846 28.1766 16.9127C28.2892 16.7298 28.3173 16.4905 28.247 16.2795C28.1062 15.8854 27.6981 15.6884 27.3182 15.8291C27.3041 15.8432 27.276 15.8432 27.2619 15.8573C27.2619 15.7728 27.2478 15.7025 27.2197 15.618C27.0789 15.224 26.6708 15.027 26.2909 15.1677C26.1361 15.224 26.0094 15.3225 25.925 15.4633C25.9391 15.3366 25.9391 15.2099 25.8969 15.0833C25.7561 14.6893 25.348 14.4923 24.9681 14.633C24.757 14.7033 24.6022 14.8722 24.5318 15.0692C24.5318 15.0129 24.5178 14.9426 24.4896 14.8863C24.3489 14.4923 23.9408 14.2952 23.5608 14.436C23.1809 14.5767 22.9839 14.9989 23.1246 15.3929C23.2512 15.7869 23.6734 15.9839 24.0534 15.8432Z" fill="#FFE6BD"/>
<path d="M21.2812 16.5468C21.6611 16.4061 21.8581 15.9839 21.7315 15.6039C21.9003 15.8994 22.2662 16.0402 22.604 15.9135C22.9839 15.7728 23.1809 15.3506 23.0402 14.9566C22.8995 14.5626 22.4914 14.3656 22.1114 14.5063C21.7315 14.647 21.5345 15.0692 21.6611 15.4491C21.4922 15.1536 21.1264 15.0129 20.7886 15.1395C20.4087 15.2803 20.2116 15.7024 20.3524 16.0965C20.479 16.4764 20.9012 16.6734 21.2812 16.5468Z" fill="#FFE6BD"/>
<path d="M25.2214 28.6633C25.1369 28.4381 24.9681 28.2692 24.757 28.213C25.0947 28.0582 25.2636 27.6501 25.1369 27.2842C25.0243 26.9886 24.757 26.7916 24.4614 26.7916C24.6303 26.5946 24.7007 26.3132 24.6022 26.0458C24.4755 25.6799 24.1096 25.4829 23.7438 25.5673C23.8704 25.3703 23.9126 25.1311 23.8282 24.8919C23.7015 24.54 23.3638 24.343 23.012 24.4134C23.0401 24.2867 23.0401 24.146 22.9838 24.0053C22.8572 23.6253 22.4491 23.4283 22.0832 23.5409C22.1113 23.4002 22.1113 23.2595 22.0691 23.1187C21.9425 22.7528 21.5625 22.5558 21.2107 22.6403C21.2389 22.4995 21.2389 22.3588 21.1826 22.2181C21.07 21.8944 20.7463 21.6974 20.4227 21.7256C20.5071 21.5567 20.5071 21.3597 20.4508 21.1627C20.3523 20.8953 20.1131 20.7123 19.8598 20.6701C19.9442 20.5012 19.9723 20.2761 19.902 20.0791C19.8457 19.9102 19.719 19.7695 19.5783 19.685C19.8175 19.488 19.9301 19.1503 19.8175 18.8407C19.7753 18.7281 19.719 18.6437 19.6487 18.5593C20.0005 18.4045 20.1834 17.9964 20.0568 17.6305C20.0427 17.6023 20.0427 17.5742 20.0286 17.5601C20.0849 17.546 20.1412 17.546 20.1834 17.5179C20.5634 17.3772 20.7604 16.955 20.6197 16.561C20.4789 16.1669 20.0708 15.9699 19.6909 16.1106C19.3109 16.2514 19.1139 16.6735 19.2546 17.0676C19.2687 17.0957 19.2687 17.1239 19.2828 17.1379C19.2265 17.152 19.1702 17.152 19.128 17.1802C18.748 17.3209 18.551 17.7431 18.6917 18.1371C18.734 18.2497 18.7902 18.3341 18.8606 18.4185C18.5088 18.5733 18.3259 18.9814 18.4525 19.3473C18.5088 19.5162 18.6355 19.6569 18.7762 19.7413C18.5369 19.9384 18.4244 20.2761 18.5369 20.5857C18.6355 20.8531 18.8747 21.036 19.128 21.0782C19.0436 21.2471 19.0154 21.4722 19.0858 21.6693C19.1983 21.9929 19.522 22.1899 19.8457 22.1618C19.7612 22.3307 19.7612 22.5277 19.8175 22.7247C19.9442 23.0906 20.3241 23.2876 20.676 23.2032C20.6478 23.3439 20.6478 23.4846 20.7041 23.6253C20.8308 24.0053 21.2389 24.2023 21.6047 24.0897C21.5766 24.2304 21.5766 24.3712 21.6188 24.5119C21.7455 24.8637 22.0832 25.0607 22.435 24.9904C22.4069 25.117 22.4069 25.2577 22.4632 25.3985C22.5898 25.7643 22.9557 25.9614 23.3216 25.8769C23.1949 26.0739 23.1527 26.3132 23.2371 26.5524C23.3497 26.8479 23.6171 27.0449 23.9126 27.0449C23.7438 27.242 23.6734 27.5234 23.7719 27.7908C23.8563 28.0159 24.0252 28.1848 24.2363 28.2411C23.8985 28.3959 23.7297 28.804 23.8563 29.1699C23.9126 29.3106 23.9971 29.4373 24.1096 29.5217C23.9971 29.5076 23.8845 29.5217 23.7719 29.5639C23.3919 29.7046 23.1949 30.1268 23.3357 30.5208C23.3919 30.6897 23.5045 30.8164 23.6452 30.9149C23.4764 30.8304 23.2794 30.8164 23.0823 30.8867C22.7024 31.0274 22.5054 31.4496 22.6461 31.8436C22.7024 32.0125 22.829 32.1532 22.9838 32.2377C22.8572 32.2095 22.7165 32.2236 22.5898 32.2658C22.2099 32.4065 22.0128 32.8287 22.1536 33.2227C22.2239 33.4198 22.3506 33.5605 22.5194 33.6449C22.435 33.6449 22.3365 33.659 22.2521 33.6871C21.8721 33.8279 21.6751 34.25 21.8158 34.6441C21.9143 34.9255 22.1676 35.1085 22.435 35.1366C22.4209 35.1366 22.4069 35.1507 22.3928 35.1507C22.0128 35.2914 21.8158 35.7136 21.9566 36.1076C22.0128 36.2624 22.1254 36.389 22.2521 36.4735C22.618 36.3609 22.9698 36.2061 23.3357 36.0794C23.3779 35.9247 23.3919 35.7558 23.3357 35.601C23.2371 35.3195 22.9838 35.1366 22.7165 35.1084C22.7305 35.1084 22.7446 35.0944 22.7587 35.0944C23.1386 34.9537 23.3357 34.5315 23.1949 34.1375C23.1246 33.9404 22.9979 33.7997 22.829 33.7153C22.9135 33.7153 23.012 33.7012 23.0964 33.6731C23.4764 33.5323 23.6734 33.1102 23.5327 32.7161C23.4764 32.5473 23.3497 32.4065 23.1949 32.3221C23.3216 32.3503 23.4623 32.3503 23.589 32.294C23.9689 32.1532 24.1659 31.7311 24.0252 31.337C23.9689 31.1682 23.8563 31.0415 23.7156 30.943C23.8845 31.0274 24.0815 31.0415 24.2785 30.9712C24.6585 30.8304 24.8555 30.4083 24.7147 30.0142C24.6585 29.8735 24.574 29.7468 24.4614 29.6624C24.574 29.6765 24.6866 29.6624 24.7992 29.6202C25.1651 29.4654 25.348 29.0432 25.2214 28.6633Z" fill="#FFE6BD"/>
<path d="M29.9216 22.4714C29.9779 22.4573 30.0342 22.4573 30.0764 22.4292C30.4564 22.2885 30.6534 21.8663 30.5127 21.4723C30.4001 21.1345 30.0764 20.9516 29.7387 20.9797C29.7527 20.9797 29.7527 20.9797 29.7668 20.9656C30.1468 20.8249 30.3438 20.4027 30.2031 20.0087C30.0623 19.6147 29.6542 19.4177 29.2743 19.5584C28.8943 19.6991 28.6973 20.1213 28.838 20.5153C28.9506 20.8531 29.2743 21.036 29.612 21.0079C29.5979 21.0079 29.5979 21.0079 29.5839 21.0219C29.2039 21.1627 29.0069 21.5848 29.1476 21.9789C29.218 22.1899 29.3869 22.3588 29.5839 22.4292C29.5276 22.4433 29.4713 22.4433 29.4291 22.4714C29.0491 22.6121 28.8521 23.0343 28.9928 23.4283C29.0632 23.6394 29.2321 23.7942 29.415 23.8786C29.3306 23.8786 29.2602 23.8927 29.1758 23.9209C28.7958 24.0616 28.5988 24.4838 28.7395 24.8778C28.7958 25.0467 28.9084 25.1733 29.0491 25.2577C28.8803 25.1592 28.6551 25.1311 28.4581 25.2155C28.0781 25.3562 27.8811 25.7784 28.0218 26.1725C28.0922 26.3695 28.2188 26.5102 28.3877 26.5946C28.2611 26.5665 28.1203 26.5665 27.9796 26.6228C27.5997 26.7635 27.4026 27.1857 27.5434 27.5797C27.5715 27.6501 27.5997 27.7204 27.6419 27.7767C27.473 27.6782 27.2478 27.6501 27.0508 27.7345C26.6709 27.8752 26.4739 28.2974 26.6146 28.6914C26.6709 28.8321 26.7553 28.9447 26.8538 29.0292C26.6709 28.9166 26.4457 28.9025 26.2487 28.9729C25.8687 29.1136 25.6717 29.5358 25.8125 29.9298C25.8547 30.0424 25.911 30.1268 25.9813 30.2112C25.8265 30.155 25.6436 30.1409 25.4747 30.2112C25.0948 30.352 24.8977 30.7741 25.0385 31.1682C25.1229 31.4074 25.3199 31.5903 25.5592 31.6466C25.4888 31.6466 25.4184 31.6607 25.3481 31.6889C24.9681 31.8296 24.7711 32.2517 24.9118 32.6458C25.0244 32.9413 25.2918 33.1383 25.5873 33.1383C25.5592 33.1383 25.5169 33.1524 25.4747 33.1665C25.0948 33.3072 24.8977 33.7294 25.0385 34.1234C25.1792 34.5174 25.5873 34.7144 25.9673 34.5737C26.3472 34.433 26.5442 34.0108 26.4035 33.6168C26.2909 33.3213 26.0235 33.1242 25.728 33.1242C25.7562 33.1242 25.7984 33.1102 25.8406 33.0961C26.2206 32.9554 26.4176 32.5332 26.2768 32.1392C26.1924 31.8999 25.9954 31.717 25.7562 31.6607C25.8265 31.6607 25.8969 31.6466 25.9673 31.6185C26.3472 31.4778 26.5442 31.0556 26.4035 30.6616C26.3613 30.549 26.305 30.4645 26.2346 30.3801C26.3894 30.4364 26.5724 30.4505 26.7412 30.3801C27.1212 30.2394 27.3182 29.8172 27.1775 29.4232C27.1212 29.2825 27.0368 29.1699 26.9383 29.0854C27.1212 29.198 27.3464 29.2121 27.5434 29.1417C27.9233 29.001 28.1203 28.5788 27.9796 28.1848C27.9515 28.1144 27.9233 28.0441 27.8811 27.9878C28.05 28.0863 28.2751 28.1144 28.4722 28.03C28.8521 27.8893 29.0491 27.4671 28.9084 27.0731C28.838 26.8761 28.7114 26.7353 28.5425 26.6509C28.6692 26.6791 28.8099 26.6791 28.9506 26.6228C29.3306 26.482 29.5276 26.0599 29.3869 25.6658C29.3306 25.497 29.218 25.3703 29.0913 25.2859C29.2602 25.3844 29.4854 25.4125 29.6824 25.3281C30.0623 25.1874 30.2593 24.7652 30.1186 24.3712C30.0483 24.1601 29.8794 24.0053 29.6965 23.9209C29.7809 23.9209 29.8512 23.9068 29.9357 23.8786C30.3156 23.7379 30.5127 23.3157 30.3719 22.9217C30.2734 22.6966 30.1186 22.5418 29.9216 22.4714Z" fill="#FFE6BD"/>
<path d="M21.8863 41.0187C21.7878 41.1876 21.5485 41.2298 21.3656 41.1032C21.1827 40.9906 21.1123 40.7654 21.2249 40.5966C21.3234 40.4277 21.5626 40.3855 21.7456 40.5121C21.9285 40.6247 21.9848 40.8639 21.8863 41.0187Z" fill="#A85000"/>
<path d="M21.7456 40.5122C21.6189 40.4278 21.4782 40.4278 21.3656 40.4841C21.3656 40.6107 21.436 40.7374 21.5626 40.8218C21.6893 40.9062 21.83 40.9062 21.9426 40.8499C21.9285 40.7233 21.8581 40.5966 21.7456 40.5122Z" fill="#A0510A"/>
<path d="M21.6329 40.681C21.3796 40.5262 21.3093 40.2025 21.4641 39.9492L22.4069 38.4575C22.5617 38.2042 22.8854 38.1339 23.1387 38.2887C23.392 38.4434 23.4624 38.7671 23.3076 39.0204L22.3647 40.5121C22.2099 40.7654 21.8862 40.8358 21.6329 40.681Z" fill="#A85000"/>
<path d="M22.4351 38.4294C22.4773 38.5842 22.5758 38.739 22.7447 38.8375C22.9557 38.9642 23.1809 38.9782 23.3638 38.9079C23.4483 38.6827 23.3638 38.4154 23.1528 38.2746C22.8995 38.1339 22.5899 38.2043 22.4351 38.4294Z" fill="#A0510A"/>
<path d="M21.7174 40.3856C21.633 40.3293 21.6048 40.2308 21.6611 40.1463L22.5618 38.7109C22.618 38.6265 22.7166 38.5984 22.801 38.6547C22.8854 38.7109 22.9136 38.8094 22.8573 38.8939L21.9566 40.3293C21.9004 40.4137 21.7878 40.4419 21.7174 40.3856Z" fill="#D67116"/>
<path d="M23.7157 38.5702C23.575 38.7954 23.2091 38.8376 22.9136 38.6546C22.618 38.4717 22.5055 38.134 22.6462 37.8947C22.7869 37.6696 23.1528 37.6273 23.4483 37.8103C23.7298 38.0073 23.8564 38.345 23.7157 38.5702Z" fill="#A85000"/>
<path d="M23.5749 38.2043C23.5186 38.2887 23.3498 38.2887 23.195 38.1902C23.0402 38.0917 22.9698 37.951 23.0261 37.8525C23.0824 37.754 23.2513 37.7681 23.406 37.8666C23.5608 37.9792 23.6312 38.1199 23.5749 38.2043Z" fill="#D67116"/>
<path d="M23.2794 38.0354C23.4764 37.4866 23.3076 37.0644 23.3076 37.0644L23.3639 37.0363C23.3779 37.0503 23.5046 37.4162 23.3779 37.9228C23.6031 37.7117 23.969 37.5147 24.0956 37.5147V37.5851C23.9971 37.5851 23.5327 37.8243 23.3357 38.0635L23.2794 38.0354Z" fill="#773A08"/>
<path d="M25.6435 15.5617C25.7843 15.9557 26.2205 16.1668 26.6145 16.0261C27.0086 15.8853 27.2196 15.4491 27.0789 15.0551C26.9382 14.661 26.5019 14.4499 26.1079 14.5907C25.7139 14.7314 25.5028 15.1676 25.6435 15.5617Z" fill="#B75F08"/>
<path d="M26.0094 14.9847C26.0235 15.1535 26.1924 15.2802 26.3894 15.2802C26.5864 15.2661 26.7412 15.1254 26.7271 14.9565C26.7131 14.7877 26.5442 14.661 26.3472 14.661C26.1502 14.661 25.9954 14.8158 26.0094 14.9847Z" fill="#D67116"/>
<path d="M24.2645 15.0128C24.4052 15.4069 24.8415 15.618 25.2355 15.4772C25.6295 15.3365 25.8406 14.9003 25.6999 14.5062C25.5592 14.1122 25.1229 13.9011 24.7289 14.0418C24.3349 14.1826 24.1238 14.6188 24.2645 15.0128Z" fill="#B75F08"/>
<path d="M24.6163 14.4218C24.6304 14.5907 24.7993 14.7173 24.9963 14.7173C25.1933 14.7033 25.3481 14.5625 25.334 14.3937C25.32 14.2248 25.1511 14.0981 24.9541 14.0981C24.7711 14.1122 24.6163 14.2529 24.6163 14.4218Z" fill="#D67116"/>
<path d="M22.8009 14.8018C22.9416 15.1958 23.3778 15.4069 23.7719 15.2662C24.1659 15.1254 24.377 14.6892 24.2363 14.2952C24.0955 13.9011 23.6593 13.6901 23.2653 13.8308C22.8712 13.9715 22.6602 14.4078 22.8009 14.8018Z" fill="#B75F08"/>
<path d="M23.1527 14.2248C23.1668 14.3937 23.3357 14.5203 23.5327 14.5203C23.7297 14.5062 23.8845 14.3655 23.8704 14.1966C23.8563 14.0278 23.6875 13.9011 23.4904 13.9011C23.3075 13.9011 23.1527 14.0559 23.1527 14.2248Z" fill="#D67116"/>
<path d="M21.2811 14.8721C21.4218 15.2661 21.8581 15.4772 22.2521 15.3365C22.6461 15.1958 22.8572 14.7595 22.7165 14.3655C22.5758 13.9715 22.1395 13.7604 21.7455 13.9011C21.3515 14.0418 21.1404 14.4781 21.2811 14.8721Z" fill="#B75F08"/>
<path d="M21.6329 14.2811C21.647 14.4499 21.8159 14.5766 22.0129 14.5766C22.2099 14.5625 22.3647 14.4218 22.3506 14.2529C22.3366 14.0841 22.1677 13.9574 21.9707 13.9574C21.7877 13.9715 21.6329 14.1122 21.6329 14.2811Z" fill="#D67116"/>
<path d="M19.916 15.5054C20.0568 15.8994 20.493 16.1105 20.887 15.9698C21.2811 15.8291 21.4922 15.3928 21.3514 14.9988C21.2107 14.6048 20.7745 14.3937 20.3804 14.5344C19.9723 14.6751 19.7753 15.1114 19.916 15.5054Z" fill="#B75F08"/>
<path d="M20.2679 14.9284C20.2819 15.0973 20.4508 15.2239 20.6478 15.2239C20.8448 15.2099 20.9996 15.0691 20.9856 14.9003C20.9715 14.7314 20.8026 14.6047 20.6056 14.6047C20.4086 14.6047 20.2538 14.7595 20.2679 14.9284Z" fill="#D67116"/>
<path d="M18.7622 16.5327C18.9029 16.9268 19.3392 17.1379 19.7332 16.9971C20.1272 16.8564 20.3383 16.4202 20.1976 16.0261C20.0568 15.6321 19.6206 15.421 19.2266 15.5617C18.8325 15.7025 18.6215 16.1387 18.7622 16.5327Z" fill="#B75F08"/>
<path d="M19.1281 15.9417C19.1422 16.1106 19.311 16.2372 19.508 16.2372C19.7051 16.2232 19.8599 16.0824 19.8458 15.9136C19.8317 15.7447 19.6628 15.618 19.4658 15.618C19.2688 15.6321 19.114 15.7728 19.1281 15.9417Z" fill="#D67116"/>
<path d="M18.1711 17.6162C18.3118 18.0103 18.7481 18.2214 19.1421 18.0806C19.5361 17.9399 19.7472 17.5037 19.6065 17.1096C19.4658 16.7156 19.0295 16.5045 18.6355 16.6452C18.2415 16.786 18.0304 17.2222 18.1711 17.6162Z" fill="#B75F08"/>
<path d="M18.537 17.0392C18.5511 17.2081 18.72 17.3348 18.917 17.3348C19.114 17.3207 19.2688 17.18 19.2547 17.0111C19.2406 16.8422 19.0718 16.7156 18.8748 16.7156C18.6777 16.7156 18.5229 16.8704 18.537 17.0392Z" fill="#D67116"/>
<path d="M17.9319 18.8546C18.0726 19.2487 18.5088 19.4598 18.9029 19.319C19.2969 19.1783 19.508 18.7421 19.3672 18.348C19.2265 17.954 18.7903 17.7429 18.3963 17.8836C18.0022 18.0244 17.7911 18.4606 17.9319 18.8546Z" fill="#B75F08"/>
<path d="M18.2837 18.2776C18.2978 18.4465 18.4666 18.5732 18.6636 18.5732C18.8607 18.5591 19.0155 18.4184 19.0014 18.2495C18.9873 18.0806 18.8184 17.954 18.6214 17.954C18.4385 17.954 18.2837 18.1088 18.2837 18.2776Z" fill="#D67116"/>
<path d="M18.0163 20.1211C18.1571 20.5151 18.5933 20.7262 18.9873 20.5855C19.3814 20.4448 19.5924 20.0085 19.4517 19.6145C19.311 19.2205 18.8748 19.0094 18.4807 19.1501C18.0867 19.2908 17.8756 19.7271 18.0163 20.1211Z" fill="#B75F08"/>
<path d="M18.3682 19.5301C18.3822 19.699 18.5511 19.8256 18.7481 19.8256C18.9451 19.8115 19.0999 19.6708 19.0859 19.5019C19.0718 19.3331 18.9029 19.2064 18.7059 19.2064C18.523 19.2205 18.3682 19.3612 18.3682 19.5301Z" fill="#D67116"/>
<path d="M18.5932 21.2188C18.734 21.6128 19.1702 21.8239 19.5642 21.6832C19.9583 21.5424 20.1694 21.1062 20.0286 20.7122C19.8879 20.3181 19.4517 20.1071 19.0576 20.2478C18.6636 20.3885 18.4525 20.8247 18.5932 21.2188Z" fill="#B75F08"/>
<path d="M18.9451 20.6277C18.9591 20.7966 19.128 20.9233 19.325 20.9233C19.522 20.9092 19.6768 20.7685 19.6628 20.5996C19.6487 20.4307 19.4798 20.3041 19.2828 20.3041C19.0999 20.3181 18.9451 20.4589 18.9451 20.6277Z" fill="#D67116"/>
<path d="M19.3531 22.2884C19.4938 22.6824 19.9301 22.8935 20.3241 22.7527C20.7182 22.612 20.9292 22.1758 20.7885 21.7817C20.6478 21.3877 20.2115 21.1766 19.8175 21.3174C19.4235 21.4722 19.2124 21.8943 19.3531 22.2884Z" fill="#B75F08"/>
<path d="M19.719 21.7114C19.7331 21.8802 19.902 22.0069 20.099 22.0069C20.296 21.9928 20.4508 21.8521 20.4367 21.6832C20.4227 21.5143 20.2538 21.3877 20.0568 21.3877C19.8598 21.3877 19.705 21.5425 19.719 21.7114Z" fill="#D67116"/>
<path d="M20.282 23.203C20.4227 23.5971 20.859 23.8081 21.253 23.6674C21.647 23.5267 21.8581 23.0905 21.7174 22.6964C21.5767 22.3024 21.1404 22.0913 20.7464 22.232C20.3383 22.3728 20.1413 22.809 20.282 23.203Z" fill="#B75F08"/>
<path d="M20.6338 22.626C20.6479 22.7949 20.8168 22.9216 21.0138 22.9216C21.2108 22.9075 21.3656 22.7668 21.3515 22.5979C21.3374 22.429 21.1686 22.3024 20.9716 22.3024C20.7745 22.3024 20.6198 22.4572 20.6338 22.626Z" fill="#D67116"/>
<path d="M21.2389 24.1177C21.3796 24.5117 21.8158 24.7228 22.2099 24.5821C22.6039 24.4414 22.815 24.0051 22.6743 23.6111C22.5335 23.2171 22.0973 23.006 21.7033 23.1467C21.3092 23.2874 21.0981 23.7237 21.2389 24.1177Z" fill="#B75F08"/>
<path d="M21.5907 23.5267C21.6048 23.6955 21.7736 23.8222 21.9707 23.8222C22.1677 23.8081 22.3225 23.6674 22.3084 23.4985C22.2943 23.3297 22.1255 23.203 21.9284 23.203C21.7455 23.2171 21.5907 23.3578 21.5907 23.5267Z" fill="#D67116"/>
<path d="M22.1114 25.0325C22.2521 25.4265 22.6884 25.6376 23.0824 25.4969C23.4765 25.3562 23.6875 24.9199 23.5468 24.5259C23.4061 24.1319 22.9698 23.9208 22.5758 24.0615C22.1818 24.2022 21.9707 24.6385 22.1114 25.0325Z" fill="#B75F08"/>
<path d="M22.4633 24.4415C22.4773 24.6103 22.6462 24.737 22.8432 24.737C23.0402 24.7229 23.195 24.5822 23.181 24.4133C23.1669 24.2445 22.998 24.1178 22.801 24.1178C22.6181 24.1178 22.4633 24.2726 22.4633 24.4415Z" fill="#D67116"/>
<path d="M22.9135 26.2005C23.0543 26.5945 23.4905 26.8056 23.8845 26.6649C24.2786 26.5241 24.4897 26.0879 24.3489 25.6939C24.2082 25.2998 23.772 25.0887 23.3779 25.2295C22.9839 25.3702 22.7728 25.8064 22.9135 26.2005Z" fill="#B75F08"/>
<path d="M23.2654 25.6094C23.2795 25.7783 23.4483 25.905 23.6453 25.905C23.8424 25.8909 23.9971 25.7502 23.9831 25.5813C23.969 25.4124 23.8001 25.2858 23.6031 25.2858C23.4061 25.2998 23.2654 25.4406 23.2654 25.6094Z" fill="#D67116"/>
<path d="M23.4763 27.4669C23.6171 27.861 24.0533 28.0721 24.4473 27.9313C24.8414 27.7906 25.0525 27.3544 24.9117 26.9603C24.771 26.5663 24.3348 26.3552 23.9407 26.4959C23.5326 26.6367 23.3356 27.0729 23.4763 27.4669Z" fill="#B75F08"/>
<path d="M23.8282 26.8759C23.8422 27.0448 24.0111 27.1714 24.2081 27.1714C24.4051 27.1574 24.5599 27.0166 24.5459 26.8478C24.5318 26.6789 24.3629 26.5522 24.1659 26.5522C23.9689 26.5663 23.8141 26.707 23.8282 26.8759Z" fill="#D67116"/>
<path d="M23.5609 28.8883C23.7016 29.2824 24.1379 29.4934 24.5319 29.3527C24.9259 29.212 25.137 28.7758 24.9963 28.3817C24.8556 27.9877 24.4193 27.7766 24.0253 27.9173C23.6313 28.0581 23.4202 28.4802 23.5609 28.8883Z" fill="#B75F08"/>
<path d="M23.9127 28.2973C23.9268 28.4662 24.0957 28.5928 24.2927 28.5928C24.4897 28.5787 24.6445 28.438 24.6304 28.2692C24.6163 28.1003 24.4475 27.9736 24.2505 27.9736C24.0675 27.9736 23.9127 28.1284 23.9127 28.2973Z" fill="#D67116"/>
<path d="M23.012 30.2533C23.1527 30.6474 23.589 30.8584 23.983 30.7177C24.377 30.577 24.5881 30.1407 24.4474 29.7467C24.3067 29.3527 23.8704 29.1416 23.4764 29.2823C23.0683 29.423 22.8713 29.8452 23.012 30.2533Z" fill="#A85000"/>
<path d="M23.3638 29.6623C23.3778 29.8312 23.5467 29.9578 23.7437 29.9578C23.9407 29.9437 24.0955 29.803 24.0815 29.6341C24.0674 29.4653 23.8985 29.3386 23.7015 29.3386C23.5186 29.3386 23.3638 29.4934 23.3638 29.6623Z" fill="#D67116"/>
<path d="M22.2802 31.5761C22.421 31.9701 22.8572 32.1812 23.2512 32.0405C23.6453 31.8997 23.8564 31.4635 23.7156 31.0695C23.5749 30.6754 23.1387 30.4644 22.7446 30.6051C22.3506 30.7458 22.1395 31.182 22.2802 31.5761Z" fill="#A85000"/>
<path d="M22.6321 30.999C22.6462 31.1679 22.815 31.2946 23.012 31.2805C23.209 31.2664 23.3638 31.1257 23.3498 30.9568C23.3357 30.788 23.1668 30.6613 22.9698 30.6754C22.7869 30.6754 22.6321 30.8302 22.6321 30.999Z" fill="#D67116"/>
<path d="M21.7595 32.9834C21.9003 33.3775 22.3365 33.5885 22.7306 33.4478C23.1246 33.3071 23.3357 32.8708 23.1949 32.4768C23.0542 32.0828 22.618 31.8717 22.2239 32.0124C21.8158 32.1532 21.6188 32.5894 21.7595 32.9834Z" fill="#A85000"/>
<path d="M22.1114 32.4064C22.1254 32.5753 22.2943 32.7019 22.4913 32.6878C22.6883 32.6738 22.8431 32.5331 22.8291 32.3642C22.815 32.1953 22.6461 32.0687 22.4491 32.0827C22.2521 32.0827 22.0973 32.2235 22.1114 32.4064Z" fill="#D67116"/>
<path d="M21.3937 34.4329C21.5344 34.8269 21.9706 35.038 22.3646 34.8973C22.7587 34.7566 22.9698 34.3203 22.829 33.9263C22.6883 33.5323 22.2521 33.3212 21.858 33.4619C21.464 33.6026 21.2529 34.0389 21.3937 34.4329Z" fill="#A85000"/>
<path d="M21.7596 33.8418C21.7736 34.0107 21.9425 34.1373 22.1395 34.1233C22.3365 34.1092 22.4913 33.9685 22.4773 33.7996C22.4632 33.6307 22.2943 33.5041 22.0973 33.5182C21.9003 33.5322 21.7455 33.673 21.7596 33.8418Z" fill="#D67116"/>
<path d="M21.5485 35.9245C21.6892 36.3185 22.1255 36.5296 22.5195 36.3889C22.9135 36.2481 23.1246 35.8119 22.9839 35.4179C22.8432 35.0238 22.4069 34.8127 22.0129 34.9535C21.6048 35.0942 21.4078 35.5164 21.5485 35.9245Z" fill="#A85000"/>
<path d="M21.9003 35.3334C21.9144 35.5023 22.0832 35.6289 22.2803 35.6149C22.4773 35.6008 22.6321 35.4601 22.618 35.2912C22.6039 35.1223 22.4351 34.9957 22.238 35.0097C22.041 35.0097 21.8862 35.1645 21.9003 35.3334Z" fill="#D67116"/>
<path d="M22.3365 37.1911C22.4772 37.5851 22.9135 37.7962 23.3075 37.6555C23.7015 37.5147 23.9126 37.0785 23.7719 36.6845C23.6312 36.2904 23.1949 36.0793 22.8009 36.2201C22.4069 36.3608 22.1958 36.783 22.3365 37.1911Z" fill="#A85000"/>
<path d="M22.7024 36.6C22.7165 36.7689 22.8854 36.8955 23.0824 36.8815C23.2794 36.8674 23.4342 36.7267 23.4201 36.5578C23.406 36.3889 23.2372 36.2623 23.0402 36.2763C22.8432 36.2763 22.6884 36.4311 22.7024 36.6Z" fill="#D67116"/>
<path d="M23.7298 37.768C23.8705 38.162 24.3067 38.3731 24.7008 38.2324C25.0948 38.0916 25.3059 37.6554 25.1652 37.2614C25.0244 36.8673 24.5882 36.6562 24.1942 36.797C23.7861 36.9377 23.589 37.3739 23.7298 37.768Z" fill="#A85000"/>
<path d="M24.0816 37.1909C24.0956 37.3598 24.2645 37.4865 24.4615 37.4724C24.6585 37.4583 24.8133 37.3176 24.7993 37.1487C24.7852 36.9799 24.6163 36.8532 24.4193 36.8673C24.2223 36.8673 24.0675 37.008 24.0816 37.1909Z" fill="#D67116"/>
<path d="M24.9258 36.8673C25.0665 37.2614 25.5028 37.4724 25.8968 37.3317C26.2908 37.191 26.5019 36.7548 26.3612 36.3607C26.2205 35.9667 25.7842 35.7556 25.3902 35.8963C24.9821 36.0371 24.7851 36.4733 24.9258 36.8673Z" fill="#A85000"/>
<path d="M25.2776 36.2763C25.2917 36.4451 25.4606 36.5718 25.6576 36.5577C25.8546 36.5436 26.0094 36.4029 25.9953 36.2341C25.9812 36.0652 25.8124 35.9385 25.6154 35.9526C25.4183 35.9667 25.2635 36.1074 25.2776 36.2763Z" fill="#D67116"/>
<path d="M24.771 35.3756C24.9117 35.7697 25.348 35.9808 25.742 35.84C26.1361 35.6993 26.3471 35.2631 26.2064 34.869C26.0657 34.475 25.6294 34.2639 25.2354 34.4046C24.8273 34.5313 24.6303 34.9675 24.771 35.3756Z" fill="#A85000"/>
<path d="M25.1228 34.7846C25.1369 34.9534 25.3058 35.0801 25.5028 35.066C25.6998 35.052 25.8546 34.9112 25.8405 34.7424C25.8265 34.5735 25.6576 34.4468 25.4606 34.4609C25.2636 34.4609 25.1088 34.6157 25.1228 34.7846Z" fill="#D67116"/>
<path d="M24.771 33.8418C24.9117 34.2359 25.348 34.4469 25.742 34.3062C26.1361 34.1655 26.3471 33.7292 26.2064 33.3352C26.0657 32.9412 25.6294 32.7301 25.2354 32.8708C24.8273 33.0115 24.6303 33.4478 24.771 33.8418Z" fill="#A85000"/>
<path d="M25.1228 33.2648C25.1369 33.4337 25.3058 33.5603 25.5028 33.5462C25.6998 33.5322 25.8546 33.3914 25.8405 33.2226C25.8265 33.0537 25.6576 32.9271 25.4606 32.9411C25.2636 32.9411 25.1088 33.0959 25.1228 33.2648Z" fill="#D67116"/>
<path d="M24.6303 32.3361C24.7711 32.7301 25.2073 32.9412 25.6013 32.8005C25.9954 32.6598 26.2065 32.2235 26.0657 31.8295C25.925 31.4355 25.4888 31.2244 25.0947 31.3651C24.7007 31.5058 24.4896 31.9421 24.6303 32.3361Z" fill="#A85000"/>
<path d="M24.9822 31.7591C24.9963 31.9279 25.1651 32.0546 25.3621 32.0405C25.5591 32.0264 25.7139 31.8857 25.6999 31.7168C25.6858 31.548 25.5169 31.4213 25.3199 31.4354C25.137 31.4354 24.9822 31.5902 24.9822 31.7591Z" fill="#D67116"/>
<path d="M24.771 30.8444C24.9117 31.2384 25.348 31.4495 25.742 31.3088C26.1361 31.1681 26.3471 30.7318 26.2064 30.3378C26.0657 29.9438 25.6294 29.7327 25.2354 29.8734C24.8273 30.0141 24.6303 30.4504 24.771 30.8444Z" fill="#A85000"/>
<path d="M25.1228 30.2534C25.1369 30.4223 25.3058 30.5489 25.5028 30.5348C25.6998 30.5208 25.8546 30.38 25.8405 30.2112C25.8265 30.0423 25.6576 29.9156 25.4606 29.9156C25.2636 29.9438 25.1088 30.0845 25.1228 30.2534Z" fill="#D67116"/>
<path d="M25.5732 29.5919C25.7139 29.986 26.1502 30.1971 26.5442 30.0563C26.9382 29.9156 27.1493 29.4794 27.0086 29.0853C26.8679 28.6913 26.4316 28.4802 26.0376 28.6209C25.6436 28.7617 25.4325 29.1979 25.5732 29.5919Z" fill="#B75F08"/>
<path d="M25.925 29.015C25.9391 29.1838 26.108 29.3105 26.305 29.3105C26.502 29.2964 26.6568 29.1557 26.6427 28.9868C26.6287 28.8179 26.4598 28.6913 26.2628 28.6913C26.0798 28.6913 25.925 28.8461 25.925 29.015Z" fill="#D67116"/>
<path d="M26.4175 28.3395C26.5582 28.7335 26.9945 28.9446 27.3885 28.8039C27.7825 28.6632 27.9936 28.2269 27.8529 27.8329C27.7122 27.4389 27.2759 27.2278 26.8819 27.3685C26.4738 27.5092 26.2768 27.9455 26.4175 28.3395Z" fill="#B75F08"/>
<path d="M26.7694 27.7485C26.7834 27.9173 26.9523 28.044 27.1493 28.044C27.3463 28.0299 27.5011 27.8892 27.4871 27.7203C27.473 27.5515 27.3041 27.4248 27.1071 27.4248C26.9242 27.4248 26.7553 27.5796 26.7694 27.7485Z" fill="#D67116"/>
<path d="M27.3885 27.2136C27.5292 27.6077 27.9655 27.8188 28.3595 27.678C28.7536 27.5373 28.9646 27.1011 28.8239 26.707C28.6832 26.313 28.2469 26.1019 27.8529 26.2427C27.4589 26.3834 27.2478 26.8196 27.3885 27.2136Z" fill="#B75F08"/>
<path d="M27.7404 26.6226C27.7544 26.7915 27.9233 26.9181 28.1203 26.9181C28.3173 26.9041 28.4721 26.7633 28.4581 26.5945C28.444 26.4256 28.2751 26.299 28.0781 26.299C27.8952 26.313 27.7404 26.4537 27.7404 26.6226Z" fill="#D67116"/>
<path d="M27.8811 25.7924C28.0218 26.1864 28.4581 26.3975 28.8521 26.2568C29.2461 26.1161 29.4572 25.6798 29.3165 25.2858C29.1757 24.8917 28.7395 24.6807 28.3455 24.8214C27.9514 24.9621 27.7404 25.3984 27.8811 25.7924Z" fill="#B75F08"/>
<path d="M28.247 25.2014C28.2611 25.3702 28.4299 25.4969 28.6269 25.4969C28.824 25.4828 28.9788 25.3421 28.9788 25.1732C28.9788 25.0043 28.7958 24.8777 28.5988 24.8777C28.3877 24.8918 28.2329 25.0325 28.247 25.2014Z" fill="#D67116"/>
<path d="M28.6551 24.4695C28.7958 24.8635 29.232 25.0746 29.6261 24.9339C30.0201 24.7932 30.2312 24.3569 30.0904 23.9629C29.9497 23.5689 29.5135 23.3578 29.1195 23.4985C28.7113 23.6392 28.5143 24.0755 28.6551 24.4695Z" fill="#B75F08"/>
<path d="M29.0069 23.8925C29.0209 24.0614 29.1898 24.188 29.3868 24.188C29.5838 24.174 29.7386 24.0332 29.7386 23.8644C29.7386 23.6955 29.5557 23.5688 29.3587 23.5688C29.1476 23.5688 28.9928 23.7236 29.0069 23.8925Z" fill="#D67116"/>
<path d="M28.9084 23.006C29.0491 23.4 29.4854 23.6111 29.8794 23.4704C30.2735 23.3297 30.4845 22.8934 30.3438 22.4994C30.2031 22.1054 29.7668 21.8943 29.3728 22.035C28.9788 22.1757 28.7677 22.612 28.9084 23.006Z" fill="#B75F08"/>
<path d="M29.2603 22.415C29.2743 22.5838 29.4432 22.7105 29.6402 22.7105C29.8372 22.6964 29.992 22.5557 29.992 22.3868C29.992 22.218 29.8091 22.0913 29.6121 22.0913C29.4151 22.1054 29.2603 22.2461 29.2603 22.415Z" fill="#D67116"/>
<path d="M29.0913 21.5425C29.232 21.9365 29.6682 22.1476 30.0623 22.0069C30.4563 21.8662 30.6674 21.4299 30.5266 21.0359C30.3859 20.6419 29.9497 20.4308 29.5556 20.5715C29.1475 20.6982 28.9365 21.1344 29.0913 21.5425Z" fill="#B75F08"/>
<path d="M29.443 20.9515C29.4571 21.1203 29.626 21.247 29.823 21.247C30.02 21.2329 30.1748 21.0922 30.1748 20.9233C30.1748 20.7545 29.9919 20.6278 29.7948 20.6278C29.5838 20.6278 29.429 20.7826 29.443 20.9515Z" fill="#D67116"/>
<path d="M28.7816 20.0508C28.9224 20.4448 29.3586 20.6559 29.7526 20.5152C30.1467 20.3745 30.3578 19.9382 30.217 19.5442C30.0763 19.1502 29.6401 18.9391 29.246 19.0798C28.8379 19.2205 28.6409 19.6568 28.7816 20.0508Z" fill="#B75F08"/>
<path d="M29.1335 19.4738C29.1475 19.6427 29.3164 19.7693 29.5134 19.7693C29.7104 19.7553 29.8652 19.6145 29.8652 19.4457C29.8652 19.2768 29.6823 19.1501 29.4853 19.1501C29.2742 19.1501 29.1194 19.2909 29.1335 19.4738Z" fill="#D67116"/>
<path d="M28.5284 18.5309C28.6691 18.9249 29.1054 19.136 29.4994 18.9953C29.8934 18.8546 30.1045 18.4183 29.9638 18.0243C29.8231 17.6303 29.3868 17.4192 28.9928 17.5599C28.5988 17.7006 28.3877 18.1369 28.5284 18.5309Z" fill="#B75F08"/>
<path d="M28.8802 17.9399C28.8943 18.1087 29.0632 18.2354 29.2602 18.2354C29.4572 18.2213 29.612 18.0806 29.612 17.9117C29.612 17.7429 29.4291 17.6162 29.2321 17.6162C29.035 17.6303 28.8802 17.771 28.8802 17.9399Z" fill="#D67116"/>
<path d="M27.7685 17.2926C27.9093 17.6867 28.3455 17.8977 28.7395 17.757C29.1336 17.6163 29.3446 17.18 29.2039 16.786C29.0632 16.392 28.6269 16.1809 28.2329 16.3216C27.8389 16.4624 27.6278 16.8986 27.7685 17.2926Z" fill="#B75F08"/>
<path d="M28.1204 16.7016C28.1344 16.8705 28.3033 16.9971 28.5003 16.9971C28.6973 16.983 28.8521 16.8423 28.8381 16.6735C28.824 16.5046 28.6551 16.3779 28.4581 16.3779C28.2752 16.392 28.1204 16.5327 28.1204 16.7016Z" fill="#D67116"/>
<path d="M26.7272 16.2512C26.8679 16.6453 27.3042 16.8564 27.6982 16.7156C28.0922 16.5749 28.3033 16.1387 28.1626 15.7446C28.0219 15.3506 27.5856 15.1395 27.1916 15.2802C26.7835 15.421 26.5865 15.8572 26.7272 16.2512Z" fill="#B75F08"/>
<path d="M27.079 15.6602C27.0931 15.8291 27.262 15.9557 27.459 15.9557C27.656 15.9417 27.8108 15.8009 27.7967 15.6321C27.7826 15.4632 27.6138 15.3365 27.4168 15.3365C27.2197 15.3506 27.0649 15.4913 27.079 15.6602Z" fill="#D67116"/>
</g>
<defs>
<clipPath id="clip0_116_37255">
<rect width="56" height="56" fill="white"/>
</clipPath>
</defs>
</svg>
