<?xml version="1.0" encoding="utf-8"?>
<!-- Generator: Adobe Illustrator 24.3.0, SVG Export Plug-In . SVG Version: 6.00 Build 0)  -->
<svg version="1.1" id="Layer_1" xmlns="http://www.w3.org/2000/svg" xmlns:xlink="http://www.w3.org/1999/xlink" x="0px" y="0px"
	 viewBox="0 0 62 47" style="enable-background:new 0 0 62 47;" xml:space="preserve">
<style type="text/css">
	.st0{fill:#E9F4F7;}
	.st1{fill:#818F38;}
	.st2{fill:#D7E07C;}
	.st3{fill:#9FA137;}
	.st4{fill:#C8CD3E;}
	.st5{fill:#B4BF3C;}
	.st6{clip-path:url(#SVGID_2_);fill:#C8CD3E;}
	.st7{fill:#BCB832;}
	.st8{fill:#FFDF99;}
	.st9{fill:#FCCF7F;}
	.st10{fill:#0D5748;}
	.st11{fill:#2B9E88;}
	.st12{fill:#269681;}
	.st13{fill:#43AF9A;}
	.st14{fill:#5ABCAA;}
	.st15{fill:#74C9B9;}
	.st16{fill:#F9C673;}
	.st17{fill:#E8B257;}
	.st18{fill:#944921;}
	.st19{fill:#B55727;}
	.st20{fill:#FFFFFF;}
	.st21{fill:#DE5A3C;}
	.st22{fill:#723316;}
	.st23{fill:#6AC6B4;}
	.st24{fill:#8E4F21;}
	.st25{fill:#FECF0A;}
	.st26{fill:#FEED55;}
	.st27{fill:#FEBC11;}
	.st28{fill:#CD7B29;}
	.st29{fill:#E99723;}
	.st30{fill:#ACB337;}
	.st31{fill:#9EA037;}
</style>
<rect x="-0.2" y="-0.2" class="st0" width="62.1" height="47.1"/>
<g>
	<g>
		<g>
			<g>
				<path class="st1" d="M12.7,41.9c0,0,0-5.5,4-8.6c4-3,5.2,0.7,2.8,2.8C17,38.1,13,40.7,12.7,41.9z"/>
			</g>
		</g>
		<g>
			<g>
				<g>
					<path class="st2" d="M13.2,32.6L13.2,32.6c-0.1,0-0.6-1.4-0.5-3.2c0-1.1,0.3-2.1,0.7-3.1c0.5-1.2,1.4-2.2,2.5-3.1l0,0
						c-2.5,2-3.1,4.5-3.2,6.2C12.7,31.2,13.2,32.6,13.2,32.6z"/>
				</g>
			</g>
			<g>
				<g>
					<path class="st2" d="M15.6,23.4c0,0,0.4-1,1.2-1.2C17.6,22,16.5,23,15.6,23.4z"/>
				</g>
			</g>
			<g>
				<g>
					<path class="st2" d="M15,24c0,0-0.1-1,0.6-1.5C16.3,21.9,15.6,23.2,15,24z"/>
				</g>
			</g>
			<g>
				<g>
					<path class="st2" d="M14.4,24.7c0,0-0.3-1,0.1-1.7C15,22.4,14.8,23.8,14.4,24.7z"/>
				</g>
			</g>
			<g>
				<g>
					<path class="st2" d="M14.9,24.1c0,0,0.6-0.8,1.4-0.8C17.1,23.3,15.8,23.9,14.9,24.1z"/>
				</g>
			</g>
			<g>
				<g>
					<path class="st2" d="M14.4,24.7c0,0,0.8-0.7,1.6-0.5C16.8,24.4,15.3,24.7,14.4,24.7z"/>
				</g>
			</g>
			<g>
				<g>
					<path class="st2" d="M13.8,25.5c0,0-0.6-0.8-0.3-1.6C13.7,23.1,13.9,24.5,13.8,25.5z"/>
				</g>
			</g>
			<g>
				<g>
					<path class="st2" d="M13.8,25.6c0,0,0.9-0.8,1.8-0.6C16.4,25.2,14.9,25.6,13.8,25.6z"/>
				</g>
			</g>
			<g>
				<g>
					<path class="st2" d="M13.4,26.4c0,0-0.9-0.6-0.9-1.4C12.4,24.2,13.1,25.4,13.4,26.4z"/>
				</g>
			</g>
			<g>
				<g>
					<path class="st2" d="M13.1,27.3c0,0-0.9-0.6-0.9-1.4C12.1,25.1,12.8,26.4,13.1,27.3z"/>
				</g>
			</g>
			<g>
				<g>
					<path class="st2" d="M12.8,28.2c0,0-0.9-0.4-1.1-1.3C11.6,26.1,12.5,27.3,12.8,28.2z"/>
				</g>
			</g>
			<g>
				<g>
					<path class="st2" d="M12.7,29.4c0,0-0.9-0.4-1.1-1.3C11.5,27.3,12.4,28.4,12.7,29.4z"/>
				</g>
			</g>
			<g>
				<g>
					<path class="st2" d="M12.7,30.2c0,0-0.9-0.4-1.1-1.3C11.5,28.1,12.4,29.3,12.7,30.2z"/>
				</g>
			</g>
			<g>
				<g>
					<path class="st2" d="M13.3,26.6c0,0,0.7-0.9,1.7-0.8S14.4,26.4,13.3,26.6z"/>
				</g>
			</g>
			<g>
				<g>
					<path class="st2" d="M13,27.4c0,0,0.8-0.9,1.7-0.7C15.6,26.7,14.1,27.3,13,27.4z"/>
				</g>
			</g>
			<g>
				<g>
					<path class="st2" d="M12.8,28.4c0,0,0.4-1,1.3-1.1C14.9,27.2,13.8,28.1,12.8,28.4z"/>
				</g>
			</g>
			<g>
				<g>
					<path class="st2" d="M12.7,29.3c0,0,0.4-0.9,1.1-1C14.6,28.2,13.6,29,12.7,29.3z"/>
				</g>
			</g>
			<g>
				<g>
					<path class="st2" d="M12.8,30.9c0,0-0.7-0.3-0.8-0.9C11.8,29.4,12.5,30.2,12.8,30.9z"/>
				</g>
			</g>
			<g>
				<g>
					<path class="st2" d="M12.7,30.3c0,0,0.2-0.9,1.1-1.1C15.1,29,13.6,29.9,12.7,30.3z"/>
				</g>
			</g>
			<g>
				<g>
					<path class="st2" d="M12.8,31.1c0,0,0-0.8,0.6-1C14.1,29.9,13.5,30.7,12.8,31.1z"/>
				</g>
			</g>
			<g>
				<g>
					<path class="st2" d="M13,31.9c0,0-0.8-0.1-1-0.7C11.8,30.6,12.6,31.3,13,31.9z"/>
				</g>
			</g>
			<g>
				<g>
					<path class="st2" d="M13.1,32.1c0,0-0.2-0.8,0.4-1.1C14.1,30.6,13.6,31.5,13.1,32.1z"/>
				</g>
			</g>
		</g>
		<g>
			<g>
				<path class="st3" d="M14.6,41.9c0,0,1.6-6.7-2.2-11.9c-3.8-5.2-6.2-1.1-4,2.3C10.7,35.7,14.7,40.3,14.6,41.9z"/>
			</g>
			<g>
				<g>
					<path class="st4" d="M14.4,42.4C14.4,42.4,14.4,42.4,14.4,42.4c-0.1,0-0.1-0.1-0.1-0.1c0-0.1,1.2-6-5.6-13.8c0,0,0-0.1,0-0.1
						c0,0,0.1,0,0.1,0C15.7,36.2,14.5,42.3,14.4,42.4C14.5,42.4,14.5,42.4,14.4,42.4z"/>
				</g>
				<g>
					<path class="st4" d="M10.6,30.6l-2.7-0.8c0,0,0,0,0-0.1c0,0,0,0,0.1,0l2.6,0.7l-0.1-2.3c0,0,0,0,0,0c0,0,0,0,0,0L10.6,30.6z"/>
				</g>
				<g>
					<path class="st4" d="M12.1,33L9,32.6c0,0,0,0,0-0.1c0,0,0,0,0.1,0l3,0.4l0.1-2.9c0,0,0,0,0,0c0,0,0,0,0,0L12.1,33z"/>
				</g>
				<g>
					<path class="st4" d="M13.2,35.2l-2.8-0.7c0,0,0,0,0-0.1c0,0,0,0,0.1,0l2.7,0.7l0.6-2.1c0,0,0,0,0.1,0c0,0,0,0,0,0.1L13.2,35.2z
						"/>
				</g>
				<g>
					<path class="st4" d="M14,37.4l-2.3-1c0,0,0,0,0-0.1c0,0,0,0,0.1,0l2.2,1l0.6-1.7c0,0,0,0,0.1,0c0,0,0,0,0,0.1L14,37.4z"/>
				</g>
				<g>
					<path class="st4" d="M14.4,39.1l-1.5-0.8c0,0,0,0,0-0.1c0,0,0,0,0.1,0l1.4,0.7l0.4-1.1c0,0,0,0,0.1,0c0,0,0,0,0,0.1L14.4,39.1z
						"/>
				</g>
			</g>
		</g>
		<g>
			<g>
				<path class="st4" d="M13.8,41.9c0,0-3.3-4.4-1.9-9.3c1.4-4.8,4.6-2.5,3.9,0.6C15,36.4,13.3,40.9,13.8,41.9z"/>
			</g>
			<g>
				<g>
					<path class="st3" d="M14.1,42.3C14.1,42.3,14.1,42.3,14.1,42.3c-0.1-0.1-3-4.2,0-11.8c0,0,0.1-0.1,0.1,0c0,0,0.1,0.1,0,0.1
						c-3,7.5-0.2,11.6-0.2,11.6C14.2,42.2,14.2,42.3,14.1,42.3C14.1,42.3,14.1,42.3,14.1,42.3z"/>
				</g>
				<g>
					<path class="st3" d="M13.5,32.7l-0.7-1.8c0,0,0,0,0,0c0,0,0,0,0,0l0.6,1.7l1.9-1.3c0,0,0,0,0.1,0c0,0,0,0,0,0L13.5,32.7z"/>
				</g>
				<g>
					<path class="st3" d="M13,34.8l-1-2.1c0,0,0,0,0,0c0,0,0,0,0.1,0L13,34.8l2.3-1.2c0,0,0,0,0.1,0c0,0,0,0,0,0L13,34.8z"/>
				</g>
				<g>
					<path class="st3" d="M12.9,36.7l-1.2-1.4c0,0,0,0,0,0c0,0,0,0,0.1,0L12.9,36.7l2-1.4c0,0,0,0,0.1,0c0,0,0,0,0,0L12.9,36.7z"/>
				</g>
				<g>
					<path class="st3" d="M12.9,38.5l-1.1-1.2c0,0,0,0,0-0.1c0,0,0,0,0.1,0l1,1.1l1.4-1.3c0,0,0,0,0.1,0c0,0,0,0,0,0.1L12.9,38.5z"
						/>
				</g>
				<g>
					<path class="st3" d="M13.2,39.9l-0.7-0.8c0,0,0,0,0-0.1c0,0,0,0,0.1,0l0.7,0.7l0.9-0.9c0,0,0,0,0.1,0c0,0,0,0,0,0.1L13.2,39.9z
						"/>
				</g>
			</g>
		</g>
		<g>
			<g>
				<g>
					<g>
						<path class="st5" d="M9.2,38l0.1-0.1C7.9,34,6.3,33,6.3,33l-0.1,0.2C6.2,33.2,7.7,34.1,9.2,38z"/>
					</g>
				</g>
			</g>
			<g>
				<g>
					<g>
						<g>
							<path class="st5" d="M7.2,33.9c0,0,0.3-1.3-1.8-1.5C5.8,33.8,6.4,33.9,7.2,33.9z"/>
						</g>
					</g>
				</g>
			</g>
			<g>
				<g>
					<g>
						<g>
							<path class="st5" d="M7.8,34.9c0,0-0.4-1.3-2.4-0.4C6.6,35.5,7.1,35.3,7.8,34.9z"/>
						</g>
					</g>
				</g>
			</g>
			<g>
				<g>
					<g>
						<g>
							<path class="st5" d="M8.6,36.3c0,0-0.4-1.3-2.4-0.4C7.4,36.9,8,36.7,8.6,36.3z"/>
						</g>
					</g>
				</g>
			</g>
			<g>
				<g>
					<g>
						<g>
							<path class="st5" d="M8.6,36.2c0,0,1.4-0.2,0.7-2.3C8.2,34.9,8.3,35.5,8.6,36.2z"/>
						</g>
					</g>
				</g>
			</g>
			<g>
				<g>
					<g>
						<g>
							<path class="st5" d="M7.8,34.8c0,0,1.2-0.2,0.7-2.1C7.4,33.6,7.5,34.1,7.8,34.8z"/>
						</g>
					</g>
				</g>
			</g>
			<g>
				<g>
					<g>
						<g>
							<path class="st5" d="M9.1,37.5c0,0-0.3-1.1-1.9-0.3C8.1,38,8.6,37.8,9.1,37.5z"/>
						</g>
					</g>
				</g>
			</g>
			<g>
				<g>
					<g>
						<g>
							<path class="st5" d="M9.1,37.4c0,0,1.1,0,0.8-1.7C8.9,36.3,8.9,36.8,9.1,37.4z"/>
						</g>
					</g>
				</g>
			</g>
		</g>
		<g>
			<g>
				<g>
					<g>
						<path class="st5" d="M11.8,40.6l0-0.2C5.9,39.7,4,41.3,4,41.3l0.1,0.2C4.1,41.5,6.1,40,11.8,40.6z"/>
					</g>
				</g>
			</g>
			<g>
				<g>
					<g>
						<g>
							<path class="st5" d="M5.1,40.8c0,0-1.1-0.8-2.1,1.1C4.5,42.1,4.9,41.6,5.1,40.8z"/>
						</g>
					</g>
				</g>
			</g>
			<g>
				<g>
					<g>
						<g>
							<path class="st5" d="M6.3,40.6c0,0-1.4-0.1-1.3,2C6.3,42,6.4,41.4,6.3,40.6z"/>
						</g>
					</g>
				</g>
			</g>
			<g>
				<g>
					<g>
						<g>
							<path class="st5" d="M7.9,40.4c0,0-1.4-0.1-1.3,2C8,41.8,8,41.2,7.9,40.4z"/>
						</g>
					</g>
				</g>
			</g>
			<g>
				<g>
					<g>
						<g>
							<path class="st5" d="M7.8,40.4c0,0,0.3-1.3-1.8-1.5C6.4,40.3,7,40.4,7.8,40.4z"/>
						</g>
					</g>
				</g>
			</g>
			<g>
				<g>
					<g>
						<g>
							<path class="st5" d="M6.2,40.6c0,0,0.3-1.2-1.6-1.4C4.9,40.5,5.5,40.7,6.2,40.6z"/>
						</g>
					</g>
				</g>
			</g>
			<g>
				<g>
					<g>
						<g>
							<path class="st5" d="M9.2,40.4c0,0-1.1-0.1-1,1.6C9.2,41.5,9.3,41,9.2,40.4z"/>
						</g>
					</g>
				</g>
			</g>
			<g>
				<g>
					<g>
						<g>
							<path class="st5" d="M9.1,40.4c0,0,0.4-1-1.3-1.4C8,40.1,8.4,40.3,9.1,40.4z"/>
						</g>
					</g>
				</g>
			</g>
		</g>
		<g>
			<g>
				<path class="st1" d="M14.5,41.7c0,0-2-4.1-6.2-5.1c-4.2-1-3.7,2.1-1,2.9C9.8,40.2,13.9,40.9,14.5,41.7z"/>
			</g>
			<g>
				<g>
					<path class="st4" d="M14.6,42.1C14.6,42.1,14.6,42.1,14.6,42.1c-0.1-0.1-2-3.6-8.8-4.7c0,0-0.1,0-0.1-0.1c0,0,0-0.1,0.1-0.1
						C12.7,38.4,14.6,42,14.6,42.1C14.7,42,14.7,42.1,14.6,42.1C14.6,42.1,14.6,42.1,14.6,42.1z"/>
				</g>
				<g>
					<path class="st4" d="M5.9,38.5C5.9,38.5,5.9,38.5,5.9,38.5C5.9,38.4,5.9,38.4,5.9,38.5l1.6-0.8l-1-1.1c0,0,0,0,0,0c0,0,0,0,0,0
						l1.1,1.2L5.9,38.5C5.9,38.5,5.9,38.5,5.9,38.5z"/>
				</g>
				<g>
					<path class="st4" d="M7.7,39.4C7.7,39.4,7.7,39.4,7.7,39.4C7.7,39.3,7.7,39.3,7.7,39.4l1.7-1.1l-1.2-1.5c0,0,0,0,0,0
						c0,0,0,0,0,0l1.2,1.5L7.7,39.4C7.7,39.4,7.7,39.4,7.7,39.4z"/>
				</g>
				<g>
					<path class="st4" d="M9.2,39.7C9.2,39.7,9.2,39.7,9.2,39.7C9.1,39.7,9.2,39.7,9.2,39.7l1.7-0.9l-0.6-1.3c0,0,0,0,0,0
						c0,0,0,0,0,0l0.6,1.4L9.2,39.7C9.2,39.7,9.2,39.7,9.2,39.7z"/>
				</g>
				<g>
					<path class="st4" d="M10.7,40.1C10.6,40.1,10.6,40.1,10.7,40.1C10.6,40.1,10.6,40.1,10.7,40.1l1.5-0.5l-0.4-1.1c0,0,0,0,0,0
						c0,0,0,0,0,0l0.5,1.2L10.7,40.1C10.7,40.2,10.7,40.2,10.7,40.1z"/>
				</g>
				<g>
					<path class="st4" d="M12.1,40.6C12.1,40.6,12.1,40.6,12.1,40.6C12.1,40.6,12.1,40.6,12.1,40.6l1-0.3l-0.3-0.8c0,0,0,0,0,0
						c0,0,0,0,0,0l0.3,0.8L12.1,40.6C12.1,40.6,12.1,40.6,12.1,40.6z"/>
				</g>
			</g>
		</g>
	</g>
	<g>
		<g>
			<g>
				<g>
					<path class="st2" d="M43.4,32.6L43.4,32.6c0.1,0,0.6-1.4,0.5-3.2c0-1.1-0.3-2.1-0.7-3.1c-0.5-1.2-1.4-2.2-2.5-3.1l0,0
						c2.5,2,3.1,4.5,3.2,6.2C43.9,31.2,43.4,32.6,43.4,32.6z"/>
				</g>
			</g>
			<g>
				<g>
					<path class="st2" d="M41,23.4c0,0-0.4-1-1.2-1.2C39,22,40.1,23,41,23.4z"/>
				</g>
			</g>
			<g>
				<g>
					<path class="st2" d="M41.6,24c0,0,0.1-1-0.6-1.5C40.4,21.9,41,23.2,41.6,24z"/>
				</g>
			</g>
			<g>
				<g>
					<path class="st2" d="M42.2,24.7c0,0,0.3-1-0.1-1.7C41.6,22.4,41.8,23.8,42.2,24.7z"/>
				</g>
			</g>
			<g>
				<g>
					<path class="st2" d="M41.7,24.1c0,0-0.6-0.8-1.4-0.8C39.5,23.3,40.8,23.9,41.7,24.1z"/>
				</g>
			</g>
			<g>
				<g>
					<path class="st2" d="M42.2,24.7c0,0-0.8-0.7-1.6-0.5C39.8,24.4,41.3,24.7,42.2,24.7z"/>
				</g>
			</g>
			<g>
				<g>
					<path class="st2" d="M42.8,25.5c0,0,0.6-0.8,0.3-1.6C42.9,23.1,42.7,24.5,42.8,25.5z"/>
				</g>
			</g>
			<g>
				<g>
					<path class="st2" d="M42.8,25.6c0,0-0.9-0.8-1.8-0.6S41.7,25.6,42.8,25.6z"/>
				</g>
			</g>
			<g>
				<g>
					<path class="st2" d="M43.2,26.4c0,0,0.9-0.6,0.9-1.4C44.2,24.2,43.5,25.4,43.2,26.4z"/>
				</g>
			</g>
			<g>
				<g>
					<path class="st2" d="M43.5,27.3c0,0,0.9-0.6,0.9-1.4C44.5,25.1,43.8,26.4,43.5,27.3z"/>
				</g>
			</g>
			<g>
				<g>
					<path class="st2" d="M43.8,28.2c0,0,0.9-0.4,1.1-1.3C45,26.1,44.1,27.3,43.8,28.2z"/>
				</g>
			</g>
			<g>
				<g>
					<path class="st2" d="M43.9,29.4c0,0,0.9-0.4,1.1-1.3C45.1,27.3,44.2,28.5,43.9,29.4z"/>
				</g>
			</g>
			<g>
				<g>
					<path class="st2" d="M43.9,30.4c0,0,0.9-0.4,1.1-1.3C45.1,28.3,44.2,29.5,43.9,30.4z"/>
				</g>
			</g>
			<g>
				<g>
					<path class="st2" d="M43.3,26.6c0,0-0.7-0.9-1.7-0.8S42.2,26.4,43.3,26.6z"/>
				</g>
			</g>
			<g>
				<g>
					<path class="st2" d="M43.6,27.4c0,0-0.8-0.9-1.7-0.7C41,26.7,42.5,27.3,43.6,27.4z"/>
				</g>
			</g>
			<g>
				<g>
					<path class="st2" d="M43.8,28.4c0,0-0.4-1-1.3-1.1C41.7,27.2,42.9,28.1,43.8,28.4z"/>
				</g>
			</g>
			<g>
				<g>
					<path class="st2" d="M43.9,29.3c0,0-0.4-0.9-1.1-1C42,28.2,43,29,43.9,29.3z"/>
				</g>
			</g>
			<g>
				<g>
					<path class="st2" d="M43.8,30.9c0,0,0.7-0.3,0.8-0.9C44.8,29.4,44.1,30.2,43.8,30.9z"/>
				</g>
			</g>
			<g>
				<g>
					<path class="st2" d="M43.9,30.3c0,0-0.4-0.9-1-1.1C40.8,28.7,43,29.9,43.9,30.3z"/>
				</g>
			</g>
			<g>
				<g>
					<path class="st2" d="M43.8,31.1c0,0,0-0.8-0.6-1C42.5,29.9,43.1,30.7,43.8,31.1z"/>
				</g>
			</g>
			<g>
				<g>
					<path class="st2" d="M43.6,31.9c0,0,0.8-0.1,1-0.7C44.8,30.6,44,31.3,43.6,31.9z"/>
				</g>
			</g>
			<g>
				<g>
					<path class="st2" d="M43.6,32.1c0,0,0.2-0.8-0.4-1.1C42.6,30.6,43,31.5,43.6,32.1z"/>
				</g>
			</g>
		</g>
		<g>
			<g>
				<path class="st3" d="M42,41.9c0,0-1.6-6.7,2.2-11.9c3.8-5.2,6.2-1.1,4,2.3C45.9,35.7,42,40.3,42,41.9z"/>
			</g>
			<g>
				<g>
					<path class="st4" d="M42.2,42.4C42.2,42.4,42.2,42.4,42.2,42.4c0.1,0,0.1-0.1,0.1-0.1c0-0.1-1.2-6,5.6-13.8c0,0,0-0.1,0-0.1
						c0,0-0.1,0-0.1,0C40.9,36.2,42.1,42.3,42.2,42.4C42.1,42.4,42.1,42.4,42.2,42.4z"/>
				</g>
				<g>
					<path class="st4" d="M46.1,30.6l2.7-0.8c0,0,0,0,0-0.1c0,0,0,0-0.1,0l-2.6,0.7l0.1-2.3c0,0,0,0,0,0c0,0,0,0,0,0L46.1,30.6z"/>
				</g>
				<g>
					<path class="st4" d="M44.5,33l3.1-0.4c0,0,0,0,0-0.1c0,0,0,0-0.1,0l-3,0.4L44.5,30c0,0,0,0,0,0c0,0,0,0,0,0L44.5,33z"/>
				</g>
				<g>
					<path class="st4" d="M43.4,35.2l2.8-0.7c0,0,0,0,0-0.1c0,0,0,0-0.1,0l-2.7,0.7L42.9,33c0,0,0,0-0.1,0c0,0,0,0,0,0.1L43.4,35.2z
						"/>
				</g>
				<g>
					<path class="st4" d="M42.6,37.4l2.3-1c0,0,0,0,0-0.1c0,0,0,0-0.1,0l-2.2,1l-0.6-1.7c0,0,0,0-0.1,0c0,0,0,0,0,0.1L42.6,37.4z"/>
				</g>
				<g>
					<path class="st4" d="M42.3,39.1l1.5-0.8c0,0,0,0,0-0.1c0,0,0,0-0.1,0L42.3,39l-0.4-1.1c0,0,0,0-0.1,0c0,0,0,0,0,0.1L42.3,39.1z
						"/>
				</g>
			</g>
		</g>
		<g>
			<g>
				<path class="st4" d="M42.8,41.9c0,0,3.3-4.4,1.9-9.3c-1.4-4.8-4.6-2.5-3.9,0.6C41.6,36.4,43.3,40.9,42.8,41.9z"/>
			</g>
			<g>
				<g>
					<path class="st3" d="M42.5,42.3C42.5,42.3,42.6,42.3,42.5,42.3c0.1-0.1,3-4.2,0-11.8c0,0-0.1-0.1-0.1,0c0,0-0.1,0.1,0,0.1
						c3,7.5,0.2,11.6,0.2,11.6C42.4,42.2,42.4,42.3,42.5,42.3C42.5,42.3,42.5,42.3,42.5,42.3z"/>
				</g>
				<g>
					<path class="st3" d="M43.1,32.7l0.7-1.8c0,0,0,0,0,0c0,0,0,0,0,0L43,32.5l-1.9-1.3c0,0,0,0-0.1,0c0,0,0,0,0,0L43.1,32.7z"/>
				</g>
				<g>
					<path class="st3" d="M43.6,34.8l1-2.1c0,0,0,0,0,0c0,0,0,0-0.1,0L43.6,34.8l-2.3-1.2c0,0,0,0-0.1,0c0,0,0,0,0,0L43.6,34.8z"/>
				</g>
				<g>
					<path class="st3" d="M43.7,36.7l1.2-1.4c0,0,0,0,0,0c0,0,0,0-0.1,0L43.7,36.7l-2-1.4c0,0,0,0-0.1,0c0,0,0,0,0,0L43.7,36.7z"/>
				</g>
				<g>
					<path class="st3" d="M43.7,38.5l1.1-1.2c0,0,0,0,0-0.1c0,0,0,0-0.1,0l-1,1.1l-1.4-1.3c0,0,0,0-0.1,0c0,0,0,0,0,0.1L43.7,38.5z"
						/>
				</g>
				<g>
					<path class="st3" d="M43.5,39.9l0.7-0.8c0,0,0,0,0-0.1c0,0,0,0-0.1,0l-0.7,0.7l-0.9-0.9c0,0,0,0-0.1,0c0,0,0,0,0,0.1L43.5,39.9
						z"/>
				</g>
			</g>
		</g>
		<g>
			<g>
				<path class="st3" d="M42.9,41c0,0-1.1-5.4-5.7-7.6c-4.6-2.1-5,1.8-2.1,3.3C38,38.2,42.5,39.8,42.9,41z"/>
			</g>
			<g>
				<g>
					<path class="st4" d="M43,41.4C43,41.4,43.1,41.4,43,41.4c0-0.1-1.2-5-8.8-7.7c0,0-0.1,0-0.1,0c0,0,0,0.1,0,0.1
						c7.6,2.7,8.8,7.5,8.8,7.6C42.9,41.4,43,41.4,43,41.4C43,41.4,43,41.4,43,41.4z"/>
				</g>
				<g>
					<path class="st4" d="M36.2,34.6l-0.9-1.7c0,0,0,0-0.1,0c0,0,0,0,0,0.1l0.9,1.6l-2.2,0.6c0,0,0,0,0,0c0,0,0,0,0,0L36.2,34.6z"/>
				</g>
				<g>
					<path class="st4" d="M38.1,35.7l-1-2.1c0,0,0,0,0,0c0,0,0,0,0,0.1l0.9,2.1l-2.3,1c0,0,0,0,0,0c0,0,0,0,0,0L38.1,35.7z"/>
				</g>
				<g>
					<path class="st4" d="M39.6,36.8l-0.3-1.8c0,0,0,0,0,0c0,0,0,0,0,0L39.6,36.8l-2.3,0.6c0,0,0,0,0,0c0,0,0,0,0,0L39.6,36.8z"/>
				</g>
				<g>
					<path class="st4" d="M41,38l-0.2-1.6c0,0,0,0,0,0c0,0,0,0,0,0L41,38l-2,0.1c0,0,0,0,0,0c0,0,0,0,0,0L41,38z"/>
				</g>
				<g>
					<path class="st4" d="M41.8,39.1L41.8,38c0,0,0,0,0,0c0,0,0,0,0,0L41.8,39.1l-1.3,0c0,0,0,0,0,0c0,0,0,0,0,0L41.8,39.1z"/>
				</g>
			</g>
		</g>
		<g>
			<g>
				<g>
					<g>
						<path class="st5" d="M47.4,38l-0.1-0.1c1.5-3.9,3-4.9,3.1-4.9l0.1,0.2C50.4,33.2,48.9,34.1,47.4,38z"/>
					</g>
				</g>
			</g>
			<g>
				<g>
					<g>
						<g>
							<path class="st5" d="M49.4,33.9c0,0-0.3-1.3,1.8-1.5C50.8,33.8,50.2,33.9,49.4,33.9z"/>
						</g>
					</g>
				</g>
			</g>
			<g>
				<g>
					<g>
						<g>
							<path class="st5" d="M48.8,34.9c0,0,0.4-1.3,2.4-0.4C50,35.5,49.5,35.3,48.8,34.9z"/>
						</g>
					</g>
				</g>
			</g>
			<g>
				<g>
					<g>
						<g>
							<path class="st5" d="M48,36.3c0,0,0.4-1.3,2.4-0.4C49.2,36.9,48.6,36.7,48,36.3z"/>
						</g>
					</g>
				</g>
			</g>
			<g>
				<g>
					<g>
						<g>
							<path class="st5" d="M48,36.2c0,0-1.4-0.2-0.7-2.3C48.4,34.9,48.3,35.5,48,36.2z"/>
						</g>
					</g>
				</g>
			</g>
			<g>
				<g>
					<g>
						<g>
							<path class="st5" d="M48.8,34.8c0,0-1.2-0.2-0.7-2.1C49.2,33.6,49.1,34.1,48.8,34.8z"/>
						</g>
					</g>
				</g>
			</g>
			<g>
				<g>
					<g>
						<g>
							<path class="st5" d="M47.5,37.5c0,0,0.3-1.1,1.9-0.3C48.5,38,48,37.8,47.5,37.5z"/>
						</g>
					</g>
				</g>
			</g>
			<g>
				<g>
					<g>
						<g>
							<path class="st5" d="M47.5,37.4c0,0-1.1,0-0.8-1.7C47.7,36.3,47.7,36.8,47.5,37.4z"/>
						</g>
					</g>
				</g>
			</g>
		</g>
		<g>
			<g>
				<g>
					<g>
						<path class="st5" d="M44.8,40.6l0-0.2c5.9-0.7,7.8,0.9,7.8,0.9l-0.1,0.2C52.5,41.5,50.5,40,44.8,40.6z"/>
					</g>
				</g>
			</g>
			<g>
				<g>
					<g>
						<g>
							<path class="st5" d="M51.5,40.8c0,0,1.1-0.8,2.1,1.1C52.1,42.1,51.7,41.6,51.5,40.8z"/>
						</g>
					</g>
				</g>
			</g>
			<g>
				<g>
					<g>
						<g>
							<path class="st5" d="M50.3,40.6c0,0,1.4-0.1,1.3,2C50.3,42,50.2,41.4,50.3,40.6z"/>
						</g>
					</g>
				</g>
			</g>
			<g>
				<g>
					<g>
						<g>
							<path class="st5" d="M48.7,40.4c0,0,1.4-0.1,1.3,2C48.6,41.8,48.6,41.2,48.7,40.4z"/>
						</g>
					</g>
				</g>
			</g>
			<g>
				<g>
					<g>
						<g>
							<path class="st5" d="M48.8,40.4c0,0-0.3-1.3,1.8-1.5C50.2,40.3,49.6,40.4,48.8,40.4z"/>
						</g>
					</g>
				</g>
			</g>
			<g>
				<g>
					<g>
						<g>
							<path class="st5" d="M50.4,40.6c0,0-0.3-1.2,1.6-1.4C51.7,40.5,51.1,40.7,50.4,40.6z"/>
						</g>
					</g>
				</g>
			</g>
			<g>
				<g>
					<g>
						<g>
							<path class="st5" d="M47.4,40.4c0,0,1.1-0.1,1,1.6C47.4,41.5,47.3,41,47.4,40.4z"/>
						</g>
					</g>
				</g>
			</g>
			<g>
				<g>
					<g>
						<g>
							<path class="st5" d="M47.5,40.4c0,0-0.4-1,1.3-1.4C48.6,40.1,48.2,40.3,47.5,40.4z"/>
						</g>
					</g>
				</g>
			</g>
		</g>
		<g>
			<g>
				<path class="st1" d="M42.1,41.7c0,0,2-4.1,6.2-5.1c4.2-1,3.7,2.1,1,2.9C46.8,40.2,42.7,40.9,42.1,41.7z"/>
			</g>
			<g>
				<g>
					<path class="st4" d="M42,42.1C42,42.1,42,42.1,42,42.1c0.1-0.1,2-3.6,8.8-4.7c0,0,0.1,0,0.1-0.1c0,0,0-0.1-0.1-0.1
						C43.9,38.4,42,42,42,42.1C41.9,42,41.9,42.1,42,42.1C42,42.1,42,42.1,42,42.1z"/>
				</g>
				<g>
					<path class="st4" d="M50.7,38.5C50.7,38.5,50.7,38.5,50.7,38.5C50.7,38.4,50.7,38.4,50.7,38.5l-1.6-0.8l1-1.1c0,0,0,0,0,0
						c0,0,0,0,0,0L49,37.7L50.7,38.5C50.7,38.5,50.7,38.5,50.7,38.5z"/>
				</g>
				<g>
					<path class="st4" d="M48.9,39.4C48.9,39.4,48.9,39.4,48.9,39.4C48.9,39.3,48.9,39.3,48.9,39.4l-1.7-1.1l1.2-1.5c0,0,0,0,0,0
						c0,0,0,0,0,0l-1.2,1.5L48.9,39.4C48.9,39.4,48.9,39.4,48.9,39.4z"/>
				</g>
				<g>
					<path class="st4" d="M47.4,39.7C47.4,39.7,47.4,39.7,47.4,39.7C47.5,39.7,47.5,39.7,47.4,39.7l-1.7-0.9l0.6-1.3c0,0,0,0,0,0
						c0,0,0,0,0,0l-0.6,1.4L47.4,39.7C47.4,39.7,47.4,39.7,47.4,39.7z"/>
				</g>
				<g>
					<path class="st4" d="M45.9,40.1C46,40.1,46,40.1,45.9,40.1C46,40.1,46,40.1,45.9,40.1l-1.5-0.5l0.4-1.1c0,0,0,0,0,0
						c0,0,0,0,0,0l-0.5,1.2L45.9,40.1C45.9,40.2,45.9,40.2,45.9,40.1z"/>
				</g>
				<g>
					<path class="st4" d="M44.5,40.6C44.5,40.6,44.5,40.6,44.5,40.6C44.5,40.6,44.5,40.6,44.5,40.6l-1-0.3l0.3-0.8c0,0,0,0,0,0
						c0,0,0,0,0,0l-0.3,0.8L44.5,40.6C44.5,40.6,44.5,40.6,44.5,40.6z"/>
				</g>
			</g>
		</g>
	</g>
</g>
<g>
	<defs>
		
			<rect id="SVGID_1_" x="2.7" y="-12.2" transform="matrix(-1.836970e-16 1 -1 -1.836970e-16 49.6683 -12.2977)" width="56.5" height="61.8"/>
	</defs>
	<clipPath id="SVGID_2_">
		<use xlink:href="#SVGID_1_"  style="overflow:visible;"/>
	</clipPath>
	<ellipse class="st6" cx="31" cy="48.4" rx="33.2" ry="9.8"/>
	<path class="st6" d="M35.3,39.1c0,0,0.6-2.9-2.7-4c1,0.6,1.4,1.6,1.4,2.7c-0.6-1.4-1.9-1.8-2.5-1.6c1.1,0.5,1.6,1.8,1.5,2.1
		c-0.8-1.1-2-1-2-1c0.7,0.4,0.8,1.1,0.8,1.1c-1.3-0.6-1.8-0.2-1.8-0.2c0.7,0.1,0.7,0.9,0.7,0.9L35.3,39.1z"/>
</g>
<ellipse class="st7" cx="28.3" cy="42.4" rx="18.5" ry="1.8"/>
<g>
	<g>
		<path class="st8" d="M30,13c0,0-0.3-0.8-0.2-1.2c0-0.4,0.5-0.8,0.5-1.3c0.1-0.6,0.3-0.8,0.4-1.2C30.7,9,30.4,9,30.2,9.3
			c-0.2,0.3-0.3,0.8-0.4,0.9c-0.2,0.1-0.2-0.9-0.6-1.5c-0.4-0.6-0.6-0.5-0.7-0.4c-0.1,0.1,0.1,0.4,0.2,0.6C28.8,9,29,9.5,29,9.6
			c-0.4-0.6-0.7-1-1-1.1c-0.2-0.1-0.3,0.1-0.2,0.3c0.1,0.2,0.6,0.6,0.7,1c-0.3-0.4-0.7-0.8-0.9-0.9c-0.2-0.1-0.2,0.2,0,0.4
			s0.6,0.6,0.6,0.7c-0.3-0.3-0.6-0.5-0.8-0.5c-0.2,0-0.2,0.2,0.1,0.4c0.3,0.2,0.5,0.7,0.6,1.1c0,0.4,0.4,0.6,0.5,0.7
			c0.1,0.1,0.2,1.8,0.2,1.8L30,13z"/>
		<path class="st9" d="M29.2,13c-0.1-0.2-0.3-1.1-0.1-1.1c0.2-0.1,0.3-0.1,0.4-0.3c0,0-0.4,0.1-0.9,0.1c-0.4,0-0.5-0.5-0.5-0.5
			c0,0.4,0.4,0.6,0.5,0.7c0.1,0.1,0.2,0.9,0.2,1.4C28.9,13.2,29.2,13.1,29.2,13z"/>
		<path class="st9" d="M29.7,10.2c0,0-0.7,0-0.8,0.9C29,10.8,29.3,10.3,29.7,10.2z"/>
		<path class="st9" d="M28.1,10.4c0,0,0.4-0.8,1.3-0.7C29,9.7,28.4,10,28.1,10.4z"/>
	</g>
	<g>
		<path class="st8" d="M44,13c0,0,0.3-0.8,0.2-1.2c0-0.4-0.5-0.8-0.5-1.3c-0.1-0.6-0.3-0.8-0.4-1.2C43.3,9,43.7,9,43.9,9.3
			c0.2,0.3,0.3,0.8,0.4,0.9c0.2,0.1,0.2-0.9,0.6-1.5c0.4-0.6,0.6-0.5,0.7-0.4c0.1,0.1-0.1,0.4-0.2,0.6C45.2,9,45,9.5,45,9.6
			c0.4-0.6,0.7-1,1-1.1c0.2-0.1,0.3,0.1,0.2,0.3c-0.1,0.2-0.6,0.6-0.7,1c0.3-0.4,0.7-0.8,0.9-0.9c0.2-0.1,0.2,0.2,0,0.4
			c-0.2,0.2-0.6,0.6-0.6,0.7c0.3-0.3,0.6-0.5,0.8-0.5c0.2,0,0.2,0.2-0.1,0.4c-0.3,0.2-0.5,0.7-0.6,1.1c0,0.4-0.4,0.6-0.5,0.7
			c-0.1,0.1-0.2,1.8-0.2,1.8L44,13z"/>
		<path class="st9" d="M44.9,13c0.1-0.2,0.3-1.1,0.1-1.1s-0.3-0.1-0.4-0.3c0,0,0.4,0.1,0.9,0.1c0.4,0,0.5-0.5,0.5-0.5
			c0,0.4-0.4,0.6-0.5,0.7c-0.1,0.1-0.2,0.9-0.2,1.4C45.1,13.2,44.8,13.1,44.9,13z"/>
		<path class="st9" d="M44.4,10.2c0,0,0.7,0,0.8,0.9C45,10.8,44.8,10.3,44.4,10.2z"/>
		<path class="st9" d="M46,10.4c0,0-0.4-0.8-1.3-0.7C45.1,9.7,45.6,10,46,10.4z"/>
	</g>
	<g>
		<g>
			<path class="st8" d="M35.6,39.9c0,0-0.2,0.7-0.2,1c0,0.3,0.3,0.8,0.2,1.3c-0.1,0.4-0.7,0.3-1.2,0.4c-0.4,0-2.2,0.1-2.2,0.1
				l-0.2-1.4c0,0,1.1-0.1,1.4-0.4c0.3-0.2,0.3-1,0.3-1H35.6z"/>
			<path class="st9" d="M35.6,41.9c0-0.4-0.2-0.7-0.2-1c0-0.3,0.2-1,0.2-1h-1.8c0,0,0,0.5-0.1,0.8C34.6,40.4,35.3,41.1,35.6,41.9z"
				/>
			<path class="st10" d="M32.9,42.5c0,0,1,0,1.7-0.1c0.7-0.1,0.9-0.2,1,0c0.1,0.2,0,0.4-0.5,0.4c-0.4,0-2,0.1-2.6,0.2
				c-0.6,0.1-1.9,0.2-2.4-0.2c-0.5-0.4-0.1-1.3,0.9-1.5s1.3-0.2,1.3-0.2S33.1,41.3,32.9,42.5z"/>
		</g>
		<g>
			<path class="st8" d="M39.4,39.9c0,0,0.2,0.7,0.2,1c0,0.3-0.3,0.8-0.2,1.3c0.1,0.4,0.7,0.3,1.2,0.4c0.4,0,2.2,0.1,2.2,0.1l0.2-1.4
				c0,0-1.1-0.1-1.4-0.4c-0.3-0.2-0.3-1-0.3-1H39.4z"/>
			<path class="st9" d="M41.4,40.7c-0.2-0.3-0.1-0.8-0.1-0.8h-1.8c0,0,0.2,0.7,0.2,1c0,0.2-0.1,0.4-0.2,0.7
				C39.9,41,40.6,40.6,41.4,40.7z"/>
			<path class="st10" d="M42.1,42.5c0,0-1,0-1.7-0.1c-0.7-0.1-0.9-0.2-1,0c-0.1,0.2,0,0.4,0.5,0.4c0.4,0,2,0.1,2.6,0.2
				c0.6,0.1,1.9,0.2,2.4-0.2c0.5-0.4,0.1-1.3-0.9-1.5c-1-0.2-1.3-0.2-1.3-0.2S42,41.3,42.1,42.5z"/>
		</g>
		<path class="st11" d="M33.5,29.5c0,0-0.5,10.2-0.5,10.7c1.5,0.3,3-0.1,3-0.1l1.5-10.2l1.6,10.4h2.8c0,0,0-8.9-0.8-13.5
			C40.3,22.2,33.7,25.4,33.5,29.5z"/>
		<path class="st12" d="M41.1,26.8c-0.8-4.6-7.3-1.4-7.6,2.7c0,0-0.1,1.7-0.2,3.8c0.9-1,2.4-1.3,3.8-1l0.3-2.3l0.6,3.9
			c0.7-1.2,2-2.1,3.5-2C41.5,30,41.3,28.2,41.1,26.8z"/>
	</g>
	<path class="st13" d="M36.2,18c0,0-1,0-1.5-0.2s-2.5-1.4-3.2-2.3c-0.7-0.9-1.5-3.4-1.5-3.4l-2.3,1.2c0,0,0.3,1.7,1.5,3.8
		c1.2,2.1,4,3.4,4.4,3.7c0.4,0.3-0.1,3.9-0.3,6.3c-0.1,2.4-0.7,3.7-0.7,3.7s3.5,1.7,8.6,0.4c0.1-1.9-0.1-3.4-0.1-3.4l0.8,3.2
		l0.7-0.3c0,0-1-4.8-1-7.1c0-2.3,0.3-3,0.3-3s2.7-1.9,3.4-3.2c0.7-1.3,0.9-4.6,0.9-4.6l-2.3-0.3c0,0-0.2,2.4-0.6,3
		c-0.4,0.6-2.5,2.2-3.2,2.4c-0.7,0.2-1.2-0.2-1.2-0.2L36.2,18z"/>
	<path class="st14" d="M36.2,18c0,0-1,0-1.5-0.2s-2.5-1.4-3.2-2.3c-0.7-0.9-1.5-3.4-1.5-3.4L28.2,13c0,0,0.1,1.7,1.3,3.7
		c1.2,2.1,3.7,3.7,4.1,4c0.4,0.3-0.1,3.9-0.3,6.3c-0.1,2.4-0.7,3.7-0.7,3.7s3.5,1.7,8.6,0.4c0.1-1.9-0.1-3.4-0.1-3.4l0.8,3.2
		l0.7-0.3c0,0-1-4.8-1-7.1c0-2.3,0.3-3,0.3-3s2.7-1.9,3.4-3.2c0.7-1.3,0.9-4.6,0.9-4.6l-1.8-0.3c0,0-0.2,2.3-0.7,3.1
		c-0.7,1.2-2.9,2-3.6,2.2c-0.7,0.2-1.2-0.2-1.2-0.2L36.2,18z"/>
	<path class="st13" d="M40.2,17.9c0,0-0.4,1.5,1.1,2.4C40.5,19.4,40.2,18.8,40.2,17.9z"/>
	<path class="st13" d="M33.6,20.8c0,0-0.2-1.4,1.1-2.4C34.1,19.2,33.8,19.6,33.6,20.8z"/>
	<path class="st15" d="M41.2,31.2c0.1-1.9-0.1-3.4-0.1-3.4l0.8,3.2l0.7-0.3c0,0-0.1-0.3-0.2-0.9l-0.3,0.1l-0.6-2.8l-0.5-0.6
		c0,0-0.1,0.3-0.4,0.6c0,0.3,0,3.4,0,3.4s-1.1,0.4-3.8,0.2c-2.1-0.1-3.4-0.5-3.9-0.6c-0.1,0.4-0.2,0.7-0.2,0.7S36.1,32.4,41.2,31.2z
		"/>
	<path class="st15" d="M43.7,13.6c0.8,0.3,1.9,0.4,2.3,0.4c0-0.3,0.1-0.6,0.1-0.8c-1,0-1.8-0.2-2.3-0.3C43.8,13,43.8,13.3,43.7,13.6
		z"/>
	<path class="st15" d="M27.7,13.7c0.1,0.2,0.1,0.5,0.2,0.8c0.4-0.1,1.7-0.6,2.3-1.2c-0.1-0.3-0.2-0.5-0.2-0.7
		C29.9,12.7,28.9,13.3,27.7,13.7z"/>
	<g>
		<g>
			<polygon class="st16" points="36,16.6 35.9,17.6 37.2,18.8 39,17.2 39,16.5 			"/>
			<g>
				<g>
					<g>
						<g>
							<path class="st9" d="M40.5,13.9c0,0,0.6-0.6,1,0c0.4,0.6-0.4,1.3-0.9,1.3c-0.5,0-0.5-0.3-0.5-0.4
								C40.1,14.6,40.5,13.9,40.5,13.9z"/>
							<g>
								<path class="st17" d="M41.1,14.8c0,0,0.3-0.1,0.3-0.6c0-0.4-0.5-0.4-0.7-0.2c-0.1,0.2-0.1,0.3-0.1,0.4c0,0.1,0,0.2-0.2,0.2
									s-0.1,0.2,0.1,0.2c0.1,0,0.3-0.1,0.2-0.3c0-0.2,0-0.4,0.2-0.4c0.2,0,0.3,0.1,0.3,0.3C41.3,14.5,41.2,14.8,41.1,14.8z"/>
								<path class="st17" d="M40.8,14.5c0,0,0.1-0.2,0.2-0.1c0.1,0.1-0.1,0.3-0.3,0.4c0.2,0,0.5-0.2,0.5-0.4c0-0.2-0.3-0.2-0.4-0.1
									C40.7,14.5,40.8,14.5,40.8,14.5z"/>
							</g>
						</g>
						<g>
							<path class="st9" d="M34.2,13.9c0,0-0.6-0.6-1,0c-0.4,0.6,0.4,1.3,0.9,1.3c0.5,0,0.5-0.3,0.5-0.4
								C34.5,14.6,34.2,13.9,34.2,13.9z"/>
							<g>
								<path class="st17" d="M33.6,14.8c0,0-0.3-0.1-0.3-0.6c0-0.4,0.5-0.4,0.7-0.2c0.1,0.2,0.1,0.3,0.1,0.4c0,0.1,0,0.2,0.2,0.2
									s0.1,0.2-0.1,0.2c-0.1,0-0.3-0.1-0.2-0.3c0-0.2,0-0.4-0.2-0.4c-0.2,0-0.3,0.1-0.3,0.3C33.4,14.5,33.5,14.8,33.6,14.8z"/>
								<path class="st17" d="M33.9,14.5c0,0-0.1-0.2-0.2-0.1c-0.1,0.1,0.1,0.3,0.3,0.4c-0.2,0-0.5-0.2-0.5-0.4
									c0-0.2,0.3-0.2,0.4-0.1C34,14.5,33.9,14.5,33.9,14.5z"/>
							</g>
						</g>
					</g>
					<g>
						<path class="st8" d="M36.5,10.2c0,0-1.7,0.3-2.4,2.5c-0.6,1.9,0.9,4.3,2.9,4.4c2.2,0.1,3.6-1.9,3.6-3.5
							C40.6,11.5,39,9.6,36.5,10.2z"/>
						<path class="st9" d="M36.5,10.2c0,0-1.7,0.3-2.4,2.5c-0.6,1.9,0.9,4.3,2.9,4.4c2.2,0.1,3.6-1.9,3.6-3.5
							C40.6,11.5,39,9.6,36.5,10.2z M38.7,16.2c-0.6,0.6-0.9,0.8-1.6,0.8c-0.7,0-1.3-0.5-1.6-0.9c-0.3-0.5-0.5-0.7-0.8-1.3
							c-0.4-0.5-0.6-1-0.5-1.7c0.1-0.6,0.7-0.9,1-1.4c0.3-0.4,0.7-0.6,1-0.7c0.5-0.2,0.6-0.2,1.2-0.3c-0.3,0.2-0.1,0.6-0.9,1
							c0.4-0.1,0.6-0.1,0.9-0.4c0.3-0.3,0.6-0.3,0.8-0.4c0,0.2-0.9,1-1.3,1.2c0.4,0.1,1.5,0,2-0.7c0,0,0.6,0.8,0.8,1.2
							c0.2,0.3,0.6,1.2,0.1,1.8S39.3,15.5,38.7,16.2z"/>
					</g>
					<g>
						<g>
							<path class="st18" d="M38.7,12.4c0,0,0.5-0.1,1,0.4c-0.1-0.4-0.4-0.6-0.9-0.7C38.4,12.1,38.5,12.4,38.7,12.4z"/>
						</g>
						<g>
							<path class="st18" d="M35.9,12.4c0,0-0.5-0.1-1,0.4c0.1-0.4,0.4-0.6,0.9-0.7C36.2,12.1,36.1,12.4,35.9,12.4z"/>
						</g>
						<path class="st9" d="M36.9,14.4c0,0,0.2,0.2,0.5,0.1c0.3,0,0.3-0.2,0.4-0.1c0.1,0.1-0.1,0.3-0.5,0.3c-0.4,0-0.5-0.1-0.5-0.2
							C36.8,14.4,36.9,14.4,36.9,14.4z"/>
						<g>
							<path class="st19" d="M36.2,15.1c0,0,1.1,0.3,2.1,0C38.2,16.3,36.7,16.9,36.2,15.1z"/>
							<path class="st20" d="M36.3,15.1c0,0.1,0.2,0.4,0.9,0.4c0.8,0,1-0.2,1.1-0.4C37.4,15.4,36.5,15.2,36.3,15.1z"/>
							<path class="st21" d="M37.3,15.7c-0.4-0.2-0.7,0-0.8,0.1c0.4,0.7,1.2,0.6,1.6,0C37.9,15.7,37.6,15.6,37.3,15.7z"/>
						</g>
					</g>
				</g>
			</g>
		</g>
		<g>
			<path class="st9" d="M38.2,13.3c0,0,0.2-0.7,0.7-0.6c0.6,0,0.7,0.8,0.7,0.8L38.2,13.3z"/>
			<g>
				<path class="st20" d="M38.2,13.3c0,0,0.1-0.1,0.3-0.2c0.2-0.2,0.7-0.3,0.9,0.1c0.2,0.3,0.2,0.3,0.2,0.3s-0.3,0.2-0.8,0.2
					C38.4,13.6,38.2,13.3,38.2,13.3z"/>
				<g>
					<path class="st18" d="M39.2,13.4c0,0.2-0.2,0.3-0.3,0.3c-0.2,0-0.3-0.2-0.3-0.3s0.2-0.3,0.3-0.3C39.1,13,39.2,13.2,39.2,13.4z"
						/>
					<path class="st22" d="M39.1,13.4c0,0.1-0.1,0.2-0.2,0.2s-0.2-0.1-0.2-0.2s0.1-0.2,0.2-0.2S39.1,13.2,39.1,13.4z"/>
				</g>
				<path class="st22" d="M38.2,13.3c0,0,0.2,0,0.4-0.1c0.2-0.1,0.5-0.1,0.7,0.2c0.2,0.2,0.3,0.2,0.4,0.2c-0.1,0-0.2-0.1-0.3-0.3
					c-0.1-0.2-0.4-0.3-0.7-0.3C38.5,13,38.2,13.3,38.2,13.3z"/>
				<path class="st20" d="M39,13.5C39,13.6,39,13.6,39,13.5c-0.1,0.1-0.2,0-0.2,0C38.9,13.5,38.9,13.4,39,13.5
					C39,13.4,39,13.5,39,13.5z"/>
			</g>
		</g>
		<g>
			<path class="st9" d="M36.4,13.3c0,0-0.2-0.7-0.7-0.6c-0.6,0-0.7,0.8-0.7,0.8L36.4,13.3z"/>
			<g>
				<path class="st20" d="M36.4,13.3c0,0-0.1-0.1-0.3-0.2c-0.2-0.2-0.7-0.3-0.9,0.1c-0.2,0.3-0.2,0.3-0.2,0.3s0.3,0.2,0.8,0.2
					C36.3,13.6,36.4,13.3,36.4,13.3z"/>
				<g>
					<path class="st18" d="M35.4,13.4c0,0.2,0.2,0.3,0.3,0.3c0.2,0,0.3-0.2,0.3-0.3S35.9,13,35.7,13C35.6,13,35.4,13.2,35.4,13.4z"
						/>
					<circle class="st22" cx="35.7" cy="13.4" r="0.2"/>
				</g>
				<path class="st22" d="M36.4,13.3c0,0-0.2,0-0.4-0.1c-0.2-0.1-0.5-0.1-0.7,0.2c-0.2,0.2-0.3,0.2-0.4,0.2c0.1,0,0.2-0.1,0.3-0.3
					c0.1-0.2,0.4-0.3,0.7-0.3C36.1,13,36.4,13.3,36.4,13.3z"/>
				<circle class="st20" cx="35.7" cy="13.5" r="0.1"/>
			</g>
		</g>
		<path class="st22" d="M35.2,11c0,0,0.1,0.8-0.4,1.2c-0.5,0.4-0.8,1.3-0.6,1.9c-0.3-0.4-0.5-0.6-0.8-0.5c0.3-1.2-0.3-1.9,0.1-3.2
			c0.4-1.3,2.2-2.6,3.9-2.4c1.8,0.2,2.4,0.7,2.6,1.5c0.1,0.8-1.1,2.3-2.9,2.3c0.6-0.2,1-0.7,0.9-1c-0.6,0.6-1.3,0.7-1.7,0.6
			c0.5-0.1,0.9-1,0.9-1C36.1,11.2,35.2,11,35.2,11z"/>
		<path class="st22" d="M39.2,10.7c0,0,0,0.8,0.4,1.2c0.4,0.4,0.9,1.7,0.7,2.4c0.3-0.6,0.7-0.6,0.9-0.6c-0.4-1.3,0.3-2.8-0.4-3.6
			c-0.7-0.8-1.4-0.6-1.4-0.6L39.2,10.7z"/>
		<path class="st14" d="M34.5,9c0,0,4.3-0.7,6.6,2.7c0.6-1.2-0.5-3.1-1.9-3.8C37.4,7,35.3,7.8,34.5,9z"/>
		<path class="st13" d="M35.7,8.9c0.9-0.9,2.5-1.3,4-0.8c-0.1-0.1-0.3-0.2-0.4-0.2C37.4,7,35.3,7.8,34.5,9C34.5,9,35,8.9,35.7,8.9z"
			/>
	</g>
	<path class="st23" d="M36.5,18.6c0,0-0.1,2.8,0,3.4c0.1,0.6,0.7,1,0.7,1s0.9-0.5,1-1.1c0.1-0.5,0.2-3.4,0.2-3.4
		S37.1,19.1,36.5,18.6z"/>
	<path class="st15" d="M35.9,17.2L35.7,18c0,0,0.3,0.7,1.4,1c1.3,0,2.2-0.7,2.3-1.1c0-0.3-0.4-1.1-0.4-1.1s-0.1,0.5-0.7,0.7
		c-0.8,0.3-1,1.1-1,1.1S37,17.4,35.9,17.2z"/>
</g>
<g>
	<g>
		<path class="st8" d="M13.7,10.9c0,0-0.4-0.7-0.4-1.1c0-0.4,0.3-0.9,0.3-1.4c0-0.6,0.2-0.9,0.2-1.2c0-0.3-0.4-0.3-0.5,0
			C13,7.5,13,8,12.9,8.2c-0.1,0.2-0.4-0.9-0.8-1.4c-0.5-0.5-0.7-0.4-0.8-0.3c-0.1,0.1,0.2,0.4,0.3,0.5c0.2,0.2,0.4,0.6,0.5,0.8
			c-0.5-0.5-0.9-0.9-1.2-0.9c-0.3,0-0.3,0.2-0.1,0.4c0.2,0.2,0.7,0.5,0.9,0.9c-0.3-0.3-0.9-0.7-1.1-0.7c-0.2,0-0.2,0.2,0.1,0.4
			c0.3,0.2,0.7,0.5,0.8,0.6C11.1,8.2,10.7,8,10.6,8c-0.2,0-0.2,0.2,0.1,0.4c0.3,0.1,0.6,0.6,0.7,0.9c0.1,0.4,0.5,0.5,0.6,0.6
			c0.1,0.1,0.6,1.7,0.6,1.7L13.7,10.9z"/>
		<path class="st9" d="M12.8,11c-0.1-0.2-0.5-1-0.3-1.1c0.2-0.1,0.3-0.1,0.4-0.3c0,0-0.4,0.2-0.8,0.2c-0.4,0-0.6-0.4-0.6-0.4
			c0.1,0.3,0.5,0.5,0.6,0.6c0.1,0.1,0.3,0.8,0.5,1.3C12.7,11.2,12.9,11.1,12.8,11z"/>
		<path class="st9" d="M12.8,8.2c0,0-0.7,0.1-0.6,1C12.3,8.9,12.5,8.4,12.8,8.2z"/>
		<path class="st9" d="M11.3,8.6c0,0,0.3-0.8,1.1-0.9C12.1,7.8,11.5,8.2,11.3,8.6z"/>
	</g>
	<g>
		<g>
			<path class="st8" d="M18.5,39.9c0,0-0.2,0.7-0.2,1c0,0.3,0.3,0.8,0.2,1.3c-0.1,0.4-0.7,0.3-1.2,0.4c-0.4,0-2.2,0.1-2.2,0.1
				l-0.2-1.4c0,0,1.1-0.1,1.4-0.4c0.3-0.2,0.3-1,0.3-1H18.5z"/>
			<path class="st9" d="M18.5,41.9c0-0.4-0.2-0.7-0.2-1c0-0.3,0.2-1,0.2-1h-1.8c0,0,0,0.5-0.1,0.8C17.5,40.4,18.2,41.1,18.5,41.9z"
				/>
			<path class="st24" d="M15.8,42.5c0,0,1,0,1.7-0.1c0.7-0.1,0.9-0.2,1,0c0.1,0.2,0,0.4-0.5,0.4s-2,0.1-2.6,0.2
				c-0.6,0.1-1.9,0.2-2.4-0.2c-0.5-0.4-0.1-1.3,0.9-1.5s1.3-0.2,1.3-0.2S16,41.3,15.8,42.5z"/>
		</g>
		<g>
			<path class="st8" d="M23,39.9c0,0,0.2,0.7,0.2,1c0,0.3-0.3,0.8-0.2,1.3c0.1,0.4,0.7,0.3,1.2,0.4c0.4,0,2.2,0.1,2.2,0.1l0.2-1.4
				c0,0-1.1-0.1-1.4-0.4c-0.3-0.2-0.3-1-0.3-1H23z"/>
			<path class="st9" d="M23,41.9c0-0.4,0.2-0.7,0.2-1c0-0.3-0.2-1-0.2-1h1.8c0,0,0,0.5,0.1,0.8C24.1,40.4,23.4,41.1,23,41.9z"/>
			<path class="st24" d="M25.7,42.5c0,0-1,0-1.7-0.1c-0.7-0.1-0.9-0.2-1,0c-0.1,0.2,0,0.4,0.5,0.4s2,0.1,2.6,0.2
				c0.6,0.1,1.9,0.2,2.4-0.2c0.5-0.4,0.1-1.3-0.9-1.5c-1-0.2-1.3-0.2-1.3-0.2S25.6,41.3,25.7,42.5z"/>
		</g>
		<g>
			<path class="st25" d="M19.3,16.5c0,0-3.3-1.3-5.5-6.9c-1.6,0.4-2.3,1.7-2.3,1.7s1.6,4.4,5.1,7.5c0.6,1-0.1,2.2,0.3,6.7
				c0.3,3-2.1,13.8-2.1,14.5c4.2,1.1,9.6,1.1,12.7-0.4c-1.2-2.6-2.2-8.3-2.4-12.2c-0.2-3.9,1.2-7.4,1.5-7.7
				c-0.8-1.2-2.4-1.8-2.4-1.8L19.3,16.5z"/>
			<path class="st26" d="M12,12.4c0.1-0.3,0.4-0.9,0.9-1.2c0.5-0.4,1.1-0.5,1.3-0.6c-0.1-0.2-0.2-0.4-0.2-0.6
				c-0.2,0.1-0.9,0.3-1.5,0.8c-0.5,0.4-0.7,0.8-0.8,1C11.8,12,11.9,12.2,12,12.4z"/>
			<g>
				<path class="st25" d="M17,24.1c-0.1-1-0.1-1.8-0.2-2.5c0,0.9,0,2,0.2,3.4c0,0.1,0,0.1,0,0.2C17,24.8,17,24.4,17,24.1z"/>
				<path class="st26" d="M27.4,39.1c-0.1-0.2-0.2-0.5-0.3-0.8c-3.1,1.3-8.1,1.3-12,0.3C15,39,15,39.3,14.9,39.5
					C19.1,40.6,24.3,40.5,27.4,39.1z"/>
			</g>
			<path class="st27" d="M18.7,40.6c1.2,0.1,2.5,0.1,3.6,0.1c-0.1-1.5-0.5-5.7-0.5-7.1c0-1.8-0.5-5.3-1.4-3.4
				c-0.9,1.9-1.2,4.7-1.4,7.7C18.9,39.4,18.8,40.2,18.7,40.6z"/>
			<path class="st27" d="M19.3,16.5C19.3,16.5,19.3,16.5,19.3,16.5C19.2,16.5,19.2,16.5,19.3,16.5c-0.2-0.1-0.8-0.4-1.5-1
				c0,0,0,0,0,0c-1.1,0.2-1.8,1.3-2,2.4c0,0,0,0,0,0c0.1,0.1,0.1,0.2,0.2,0.2c0,0,0,0,0,0c0.1,0.1,0.1,0.1,0.2,0.2c0,0,0,0,0,0
				c0.1,0.1,0.1,0.1,0.2,0.2c0,0,0,0,0,0c0.1,0.1,0.2,0.1,0.2,0.2c0.6,1-0.1,2.2,0.3,6.7c0.1,0.7,0,1.9-0.2,3.2
				c1.1-2.1,2.7-2.5,3.3-2.7l0.4,2.1c1-0.5,1.3-0.6,2.1-0.7c1.1-0.1,1.9,0.4,2.6,1.1c0-0.1,0-0.2,0-0.3c0,0,0-0.1,0-0.1
				c0-0.1,0-0.1,0-0.2c0,0,0-0.1,0-0.1c0-0.1,0-0.2,0-0.3c-0.2-3.9,1.2-7.4,1.5-7.7c-0.8-1.2-2.4-1.8-2.4-1.8L19.3,16.5
				C19.3,16.5,19.3,16.5,19.3,16.5C19.3,16.5,19.3,16.5,19.3,16.5z"/>
			<path class="st25" d="M26.7,19.6c0,0,1.4,2.2,2.1,4.6c0.2,1.9-1.8,2.6-2.5,1.8c-0.7-0.8-0.7-1.5-1.1-3c-0.4-1.5-0.2-2.8,0.4-3.4
				C26.1,18.9,26.7,19.6,26.7,19.6z"/>
			<path class="st27" d="M27.5,21.1c-0.5-0.9-0.8-1.5-0.8-1.5s-0.6-0.7-1.1,0c-0.6,0.7-0.8,1.9-0.4,3.4c0,0.2,0.1,0.3,0.1,0.5
				C25.6,22.3,26.2,21.1,27.5,21.1z"/>
		</g>
		<path class="st28" d="M18.5,14.3c0,0,0,0.7-0.8,1.2c-0.8,0.5-1.8,1.9-0.5,4.9c0.9,2-0.6,4.2-1.8,4.9c5.4,1.6,8.4-2.1,9.2-3.3
			c0.7-1.2,2.3-1.4,2.8-1.1c-0.2-1.5-1.5-2.3-1.7-2.9c-0.2-0.5-0.2-0.7,0.1-1.1C24.9,17.2,18.5,14.3,18.5,14.3z"/>
		<path class="st29" d="M18.5,14.3c0,0,0,0.7-0.8,1.2c-0.8,0.5-1.3,1.2-0.2,4.2c1.1,2.9,0,4.6-1.3,5.3c4.3,0.9,7.8-2.6,8.6-3.8
			c0.7-1.2,2.2-1.2,2.6-0.3c-0.2-1.5-1.5-2.3-1.7-2.9c-0.2-0.5-0.2-0.7,0.1-1.1C24.9,17.2,18.5,14.3,18.5,14.3z"/>
		<g>
			<g>
				<g>
					<g>
						<g>
							<g>
								<path class="st8" d="M23.2,10.6c0,0-1.7-0.4-3.1,1.4c-1.3,1.5-0.9,4.3,1,5.2c1.9,1,4-0.4,4.6-1.9
									C26.5,13.4,25.7,11.1,23.2,10.6z"/>
							</g>
							<path class="st9" d="M25.6,14.3c0,0-0.4-1.4-1.7-2c-1.2-0.6-2.6-0.4-3-0.2c-0.4,0.3-0.6,0.6-0.7,1.4c-0.1,0.8-0.4,2.6,1,3.7
								c-1.9-1.1-2.7-3.3-1.9-4.6c0.8-1.3,1.9-2.9,3.4-2.6c1.6,0.3,3.5,2.1,3.6,2.9C26.6,13.7,25.6,14.3,25.6,14.3z"/>
							<g>
								<g>
									<path class="st18" d="M24.3,13.5c0,0,0.5-0.1,1,0.5c-0.1-0.4-0.4-0.7-0.8-0.7C24,13.2,24.1,13.6,24.3,13.5z"/>
								</g>
								<g>
									<path class="st18" d="M21.9,12.5c0,0-0.3-0.4-1-0.4c0.3-0.2,0.7-0.2,1.1,0.1C22.3,12.5,22,12.7,21.9,12.5z"/>
								</g>
								<path class="st9" d="M21.9,14.7c0,0,0.1,0.2,0.4,0.3c0.2,0.1,0.4-0.1,0.4,0.1c0.1,0.1-0.2,0.2-0.6,0.1
									c-0.4-0.2-0.4-0.3-0.4-0.4C21.8,14.6,21.9,14.6,21.9,14.7z"/>
							</g>
						</g>
					</g>
				</g>
				<g>
					<path class="st9" d="M23.6,14.3c0,0,0.2-0.6,0.8-0.5c0.6,0.1,0.6,0.9,0.6,0.9L23.6,14.3z"/>
					<g>
						<path class="st20" d="M23.6,14.3c0,0,0.1-0.1,0.3-0.1c0.3-0.1,0.7-0.2,0.9,0.3c0.1,0.3,0.2,0.3,0.2,0.3s-0.3,0.2-0.8,0.1
							C23.7,14.7,23.6,14.3,23.6,14.3z"/>
						<g>
							<path class="st18" d="M24.6,14.6c0,0.2-0.2,0.3-0.4,0.3c-0.2,0-0.3-0.2-0.3-0.4c0-0.2,0.2-0.3,0.4-0.3
								C24.5,14.2,24.6,14.4,24.6,14.6z"/>
							<path class="st22" d="M24.4,14.5c0,0.1-0.1,0.2-0.2,0.2c-0.1,0-0.2-0.1-0.2-0.2c0-0.1,0.1-0.2,0.2-0.2
								C24.4,14.3,24.4,14.4,24.4,14.5z"/>
						</g>
						<path class="st22" d="M23.6,14.3c0,0,0.2,0,0.4-0.1c0.2-0.1,0.5,0,0.7,0.3c0.2,0.2,0.3,0.3,0.4,0.2c-0.1,0-0.2-0.1-0.3-0.4
							c-0.1-0.3-0.4-0.4-0.6-0.3C23.9,14.1,23.6,14.3,23.6,14.3z"/>
						<path class="st20" d="M24.3,14.7C24.3,14.7,24.3,14.8,24.3,14.7c-0.1,0.1-0.2,0-0.2,0C24.2,14.6,24.2,14.6,24.3,14.7
							C24.3,14.6,24.3,14.6,24.3,14.7z"/>
					</g>
				</g>
				<g>
					<path class="st9" d="M21.8,13.5c0,0,0.3-0.6-0.2-0.9c-0.5-0.3-1.1,0.2-1.1,0.2L21.8,13.5z"/>
					<g>
						<path class="st20" d="M21.8,13.5c0,0,0-0.1-0.1-0.3c-0.1-0.3-0.3-0.6-0.8-0.4c-0.3,0.1-0.4,0.1-0.4,0.1s0.1,0.4,0.5,0.6
							C21.5,13.7,21.8,13.5,21.8,13.5z"/>
						<g>
							<path class="st18" d="M21,13c-0.1,0.1-0.1,0.4,0.1,0.5c0.1,0.1,0.4,0.1,0.5-0.1c0.1-0.1,0.1-0.4-0.1-0.5
								C21.3,12.8,21.1,12.8,21,13z"/>
							<path class="st22" d="M21.1,13.1c-0.1,0.1-0.1,0.2,0,0.3c0.1,0.1,0.2,0.1,0.3,0c0.1-0.1,0.1-0.2,0-0.3
								C21.3,13,21.2,13,21.1,13.1z"/>
						</g>
						<path class="st22" d="M21.8,13.5c0,0-0.1-0.1-0.2-0.4c-0.1-0.2-0.3-0.3-0.7-0.3c-0.3,0-0.4,0-0.5-0.1c0.1,0,0.2,0.1,0.5,0
							c0.3-0.1,0.5,0,0.7,0.2C21.8,13.1,21.8,13.5,21.8,13.5z"/>
						<path class="st20" d="M21.1,13.2c0,0,0,0.1,0,0.1c0,0,0.1,0,0.1,0c0,0,0-0.1,0-0.1C21.1,13.2,21.1,13.2,21.1,13.2z"/>
					</g>
				</g>
			</g>
			<path class="st20" d="M20.1,12.2c0,0,1.6-1.2,3.5-0.5c1.8,0.7,2.2,3.3,2.2,3.3s1-2.4-0.8-3.7S21.1,10.2,20.1,12.2z"/>
			<path class="st29" d="M27,13c-0.1-3-2.9-4.3-5.2-3.5c-1.9,0.7-3,2.1-3.3,4.5c-0.4,3,2.1,4.6,2.1,4.6C25.2,19.3,27.1,16,27,13z
				 M25.3,15.4c-0.4,0.8-2.3,2.3-4,1.9c-0.1,0-0.1,0-0.2-0.1c-0.3-0.2-1.1-0.9-1.3-2.3c-0.2-1.7,0.5-3.1,1.5-3.8c1-0.8,3-0.6,3.9,1
				C25.9,13.2,25.7,14.6,25.3,15.4z"/>
			<path class="st28" d="M25.6,17.1c0,0-0.6-0.2-1.6,0.2c-1,0.5-2.1,0.8-3.1,0.3c0.6,0.5,1.1,0.7,2.3,0.4
				C24.4,17.7,24.8,17,25.6,17.1z"/>
			<path class="st28" d="M18.5,14.4c0,0-0.3,1.8,0.8,3.2c1.1,1.5,2.4,1.5,3.4,0.9c1.1-0.5,2-1,3-0.4c-0.5-0.1-1.8,0-2.7,0.9
				c-1,0.9-3,0.7-4.2-0.8C17.6,16.8,18.5,14.4,18.5,14.4z"/>
			<path class="st28" d="M25.2,10.7c0,0,1,2.6,0.3,4.4C26,14,26.5,12.9,25.2,10.7z"/>
			<g>
				<path class="st19" d="M21.2,15.3c0,0,0.7,0.5,1.4,0.6C22.2,16.7,21,16.7,21.2,15.3z"/>
				<path class="st20" d="M21.3,15.3c0,0.1,0,0.3,0.5,0.6c0.6,0.2,0.7,0.1,0.9,0C22,15.8,21.4,15.4,21.3,15.3z"/>
				<path class="st21" d="M21.8,16c-0.2-0.2-0.5-0.2-0.6-0.2c0.1,0.6,0.7,0.7,1.1,0.4C22.2,16.2,22.1,16,21.8,16z"/>
			</g>
		</g>
		<g>
			<g>
				<polygon class="st3" points="19.3,19.9 25,18.8 26,25.9 20.5,27 18.8,20.3 				"/>
				<polygon class="st20" points="19.3,20 24.9,18.9 25.8,26 25.4,26.3 20.5,27.1 18.9,20.4 				"/>
				<polygon class="st30" points="18.8,20.3 24.6,19.2 25.5,26.4 20,27.4 				"/>
				<path class="st31" d="M25.4,25.9c-2-0.5-3.9-1.2-5.9-1.5l0.3,1.6c1.1,0.7,2.5,0.7,3.8,0.6l1.9-0.4L25.4,25.9z"/>
			</g>
			<g>
				<path class="st9" d="M21.3,25.5c0,0-0.4-0.1-0.7-0.2c-0.3-0.1-0.6,0.1-1.1-0.2c-0.6-0.4-1-1.9-0.3-2.5c0.1,0.5,0.6,0.6,0.8,0.6
					c0.2,0,0.3-0.1,0-0.4c-0.3-0.3-0.4-0.6-0.3-0.8c0.1-0.2,0.3-0.1,0.3-0.1s0.4,0.5,0.6,0.7c0.2,0.2,0.2,0.6,0.3,0.7
					c0.1,0.1,0.3,0.3,0.3,0.3L21.3,25.5z"/>
				<path class="st8" d="M21.3,25.5c0,0-0.4-0.1-0.7-0.2c-0.3-0.1-0.6,0.1-1.1-0.2c-0.6-0.4-1-1.9-0.3-2.5c0.1,0.5,0.7,0.7,0.9,0.7
					c0.2,0,0.3-0.2,0-0.6c-0.3-0.3-0.5-0.5-0.4-0.7c0.1-0.2,0.3-0.1,0.3-0.1s0.4,0.5,0.6,0.7c0.2,0.2,0.2,0.6,0.3,0.7
					c0.1,0.1,0.3,0.3,0.3,0.3L21.3,25.5z"/>
				<path class="st9" d="M21.5,23.7c0,0-0.2-0.1-0.3-0.2c-0.5,0.4-0.6,1.2-0.4,1.9c0.3,0.1,0.6,0.2,0.6,0.2L21.5,23.7z"/>
				<path class="st9" d="M18.9,23.1c0,0-0.1,0.4,0.3,0.6C19,23.7,18.8,23.4,18.9,23.1z"/>
				<path class="st9" d="M18.9,23.8c0,0,0.1,0.4,0.5,0.4C19.2,24.3,18.9,24.2,18.9,23.8z"/>
				<path class="st9" d="M19,24.4c0,0,0.2,0.4,0.6,0.3C19.4,24.8,19.1,24.7,19,24.4z"/>
				<path class="st25" d="M28.3,23.5c0,0-4.5,0.7-6.9,0c-0.8,1.3-0.1,2.5-0.1,2.5s3,0.8,5.5,0.6C29.3,26.3,29,23.8,28.3,23.5z"/>
				<path class="st26" d="M22.5,23.7C22.5,23.7,22.5,23.7,22.5,23.7c-0.2,0-0.4,0-0.5-0.1l0,0c0,0-0.6,0.8-0.1,2.5
					c0.2,0,0.4,0.1,0.6,0.1C22.4,25.8,22.2,24.8,22.5,23.7z"/>
				<path class="st27" d="M25.7,23.7c0,0,1.6,0,2.1,0.1C28.3,24,27.6,23.3,25.7,23.7z"/>
			</g>
		</g>
	</g>
	<path class="st28" d="M21.1,17.2c-0.3-0.2-1.1-0.9-1.3-2.3c-0.2-1.4,0.2-2.6,1-3.4c0,0,0,0,0,0c0.4-0.6,1.6-1.6,3.4-1.6
		c-2.6-0.4-4.8,1.2-4.7,3.9C19.7,16.6,21.1,17.2,21.1,17.2z"/>
</g>
</svg>
