<?xml version="1.0" encoding="utf-8"?>
<!-- Generator: Adobe Illustrator 24.3.0, SVG Export Plug-In . SVG Version: 6.00 Build 0)  -->
<svg version="1.1" id="Layer_1" xmlns="http://www.w3.org/2000/svg" xmlns:xlink="http://www.w3.org/1999/xlink" x="0px" y="0px"
	 viewBox="0 0 62 47" style="enable-background:new 0 0 62 47;" xml:space="preserve">
<style type="text/css">
	.st0{fill:#7EBCE7;}
	.st1{fill:#444870;}
	.st2{fill:#282745;}
	.st3{fill:#608FCB;}
	.st4{fill:#689FD5;}
	.st5{fill:#6067AF;}
	.st6{fill:#242C4F;}
	.st7{fill:#FADC9A;}
	.st8{fill:#5F8CC9;stroke:#242C4F;stroke-width:3;stroke-miterlimit:10;}
	.st9{fill:#5F8CC9;}
	.st10{fill:none;stroke:#FADC9A;stroke-miterlimit:10;}
	.st11{fill:none;stroke:#5F8CC9;stroke-miterlimit:10;}
	.st12{fill:#FAB68D;}
	.st13{clip-path:url(#SVGID_4_);}
	.st14{fill:#BE5550;}
	.st15{fill:#F1957A;}
	.st16{fill:#F1CBB4;}
	.st17{clip-path:url(#SVGID_6_);}
	.st18{fill:#443F70;}
	.st19{fill:#3B2F57;}
	.st20{fill:#FCB74C;}
	.st21{fill:#FFCA63;}
	.st22{fill:none;stroke:#D1814A;stroke-linecap:round;stroke-miterlimit:10;}
	.st23{fill:#C25A28;}
	.st24{fill:#5C3932;}
	.st25{fill:#202736;}
	.st26{fill:#FFFFFF;}
	.st27{fill:#DCE1F2;}
	.st28{clip-path:url(#SVGID_8_);}
	.st29{fill:#DA806A;}
	.st30{clip-path:url(#SVGID_10_);}
	.st31{fill:#D0D3EB;}
	.st32{opacity:0.6;fill:#C3C6E4;enable-background:new    ;}
	.st33{clip-path:url(#SVGID_12_);}
	.st34{fill:none;stroke:#B2B1D8;stroke-miterlimit:10;}
	.st35{fill:#1D2F52;}
	.st36{fill:none;stroke:#B2B1D8;stroke-linecap:round;stroke-miterlimit:10;}
</style>
<rect x="-0.5" y="-9.4" class="st0" width="63.1" height="63.1"/>
<g>
	<g>
		<g>
			<rect x="-0.5" y="-9.4" class="st1" width="63.1" height="42.6"/>
			<g>
				<rect x="5" y="16.9" class="st2" width="5.4" height="16.3"/>
				<rect x="9.1" y="20.3" class="st2" width="10.7" height="12.9"/>
				<rect x="19.3" y="17.7" class="st2" width="15.4" height="15.4"/>
				<rect x="33.3" y="20.8" class="st2" width="15.4" height="12.4"/>
				<rect x="44.8" y="15.4" class="st2" width="15.4" height="17.8"/>
			</g>
		</g>
		<g>
			<path class="st3" d="M59.5-8.4v41.7h-6.2V1c-7.8-5.8-22.8-8.5-22.8-8.5S16.2-4.6,8.8,1v32.2H2.6V-8.4H59.5z"/>
			<path class="st4" d="M62.6-9.4v42.6h-6.9v-33c-8.6-6-25.2-8.7-25.2-8.7s-15.9,3-24.1,8.7v33h-6.9V-9.4H62.6z"/>
		</g>
	</g>
	<g>
		<g>
			<g>
				<polygon class="st5" points="59.8,47.3 33,47.3 30.3,37.2 44.7,37.1 				"/>
				<polygon class="st6" points="57.6,46.7 34.1,46.7 31,37.4 44.3,37.3 				"/>
				<polygon class="st7" points="56.9,46.5 34.5,46.5 31.3,37.4 44.1,37.4 				"/>
				<polygon class="st8" points="51.3,44.8 37.1,44.8 33.6,38 42.9,38 				"/>
				<g>
					<g>
						<g>
							<g>
								<polygon class="st9" points="50.6,45.8 53.8,45.8 54.7,45.8 54.7,45.8 52.8,44.3 51.8,44.3 53.3,45.4 50.2,45.4 								"/>
							</g>
							<g>
								<polygon class="st9" points="39.8,45.8 36.7,45.8 35.7,45.8 35.7,45.8 35.1,44.3 36,44.3 36.5,45.4 39.6,45.4 								"/>
							</g>
						</g>
						<polygon class="st9" points="45.3,45.8 43.5,45.7 45,45.5 46.7,45.7 						"/>
					</g>
					<g>
						<g>
							<g>
								<polygon class="st9" points="34.8,37.6 32.9,37.6 32.3,37.6 32.3,37.6 32.5,38.2 33.1,38.2 32.9,37.8 34.8,37.8 								"/>
							</g>
							<g>
								<polygon class="st9" points="41.3,37.6 43.2,37.6 43.7,37.6 43.8,37.6 44.6,38.2 44,38.2 43.3,37.7 41.4,37.8 								"/>
							</g>
						</g>
						<polygon class="st9" points="38.1,37.8 37.1,37.7 38,37.6 39.1,37.7 						"/>
					</g>
					<g>
						<g>
							<polygon class="st9" points="34.1,40.7 33.8,41.1 33.3,40.7 33.6,40.4 							"/>
							<polygon class="st9" points="48,40.7 48,41.1 47.2,40.7 47.2,40.4 							"/>
						</g>
						<g>
							<path class="st9" d="M50,42.5c-0.1,0-0.3,0-0.3-0.1c0,0,0-0.1,0.1-0.1c0.1,0,0.3,0,0.3,0.1C50.2,42.4,50.2,42.5,50,42.5z"/>
							<path class="st9" d="M34.7,42.5c-0.1,0-0.2,0-0.3-0.1c0,0,0.1-0.1,0.2-0.1c0.1,0,0.2,0,0.3,0.1
								C34.9,42.4,34.8,42.5,34.7,42.5z"/>
						</g>
						<g>
							<path class="st9" d="M45.5,39c-0.1,0-0.2,0-0.2,0c0,0,0,0,0.1,0c0.1,0,0.2,0,0.2,0C45.6,39,45.6,39,45.5,39z"/>
							<path class="st9" d="M33.2,39c-0.1,0-0.2,0-0.2,0C32.9,39,33,39,33.2,39c0.1-0.1,0.2-0.1,0.2,0C33.3,39,33.3,39,33.2,39z"/>
						</g>
					</g>
				</g>
				<polygon class="st10" points="49.9,44.4 37.8,44.4 34.3,38.2 42.5,38.2 				"/>
				<polygon class="st10" points="37.5,42 35.2,38.4 41.9,38.3 46.1,42 43.6,44.1 				"/>
				<g>
					<polygon class="st7" points="44,42.3 44.4,42.4 42.3,42.6 39.8,42.4 41.9,42.1 					"/>
					<polygon class="st7" points="41.1,41.2 41.1,41.2 41.1,41.2 					"/>
					<path class="st10" d="M40.1,41.8c0.1-0.2,0.6-0.1,0.6-0.1c0.2-0.1,0.6-0.1,0.8,0l-0.4-0.5l-1.9,0.2l0.3,0.3
						C39.6,41.7,40.1,41.8,40.1,41.8z"/>
					<polygon class="st7" points="41.1,41.2 41.1,41.2 41.1,41.2 					"/>
					<path class="st10" d="M41.5,41.7c0.2-0.2,0.9,0,0.9,0c0.4-0.1,0.8,0.1,0.8,0.1c0.1-0.1,0.3-0.1,0.5-0.1l-0.4-0.3l-2.3-0.2
						L41.5,41.7C41.5,41.7,41.5,41.7,41.5,41.7z"/>
					<g>
						<path class="st7" d="M41.9,42.2l2.5,0.2l-0.6-0.6c-0.2,0-0.4,0-0.5,0.1c0,0-0.5-0.2-0.9-0.1c0,0-0.7-0.2-0.9,0c0,0,0,0,0,0
							c0,0,0,0-0.1,0c-0.2,0-0.6-0.1-0.8,0c0,0-0.6-0.1-0.6,0.1c0,0-0.5-0.1-0.7,0l0.5,0.6L41.9,42.2z"/>
					</g>
					<path class="st7" d="M41.5,41.7l-0.4-0.5l0,0l0,0L41.5,41.7C41.5,41.7,41.5,41.7,41.5,41.7z"/>
					<line class="st10" x1="41.2" y1="41.3" x2="43.4" y2="41.5"/>
					<line class="st10" x1="41.3" y1="41.5" x2="43.6" y2="41.6"/>
					<line class="st10" x1="41.4" y1="41.6" x2="43.7" y2="41.8"/>
					<line class="st10" x1="41.2" y1="41.3" x2="39.2" y2="41.5"/>
					<line class="st10" x1="41.3" y1="41.5" x2="39.3" y2="41.6"/>
					<line class="st10" x1="41.4" y1="41.6" x2="39.4" y2="41.8"/>
					<line class="st10" x1="43.3" y1="41.7" x2="43.2" y2="41.6"/>
					<line class="st10" x1="42.4" y1="41.7" x2="42.3" y2="41.5"/>
					<line class="st10" x1="41.7" y1="41.6" x2="41.6" y2="41.5"/>
					<line class="st10" x1="42.8" y1="41.6" x2="42.7" y2="41.5"/>
					<line class="st10" x1="42" y1="41.4" x2="41.9" y2="41.3"/>
					<line class="st10" x1="42.9" y1="41.7" x2="43" y2="41.8"/>
					<line class="st10" x1="41.1" y1="41.6" x2="41" y2="41.5"/>
					<line class="st10" x1="40.3" y1="41.7" x2="40.2" y2="41.6"/>
					<line class="st10" x1="39.5" y1="41.8" x2="39.5" y2="41.6"/>
					<line class="st10" x1="39.9" y1="41.6" x2="39.8" y2="41.5"/>
					<line class="st10" x1="40.5" y1="41.5" x2="40.4" y2="41.4"/>
					<line class="st10" x1="40" y1="41.4" x2="39.9" y2="41.3"/>
					<line class="st10" x1="40.8" y1="41.4" x2="40.7" y2="41.3"/>
					<line class="st10" x1="39.5" y1="41.5" x2="39.4" y2="41.4"/>
					<polyline class="st11" points="44.3,42.4 42,42.2 39.9,42.4 					"/>
					<line class="st11" x1="42" y1="42.2" x2="41.5" y2="41.7"/>
				</g>
			</g>
			<g>
				<g>
					<g>
						<g>
							<path class="st12" d="M42.3,38.8c-0.1,0.1-0.3,0.1-0.4,0c0,0.1-0.1,0.3-0.2,0.3s-0.3,0-0.4-0.1c0,0.1-0.2,0.2-0.3,0.2
								c-0.1,0-0.3-0.1-0.3-0.2c-0.1,0.1-0.2,0.2-0.4,0.2c-0.2,0-0.3-0.2-0.3-0.3c-0.1,0.2-0.4,0.3-0.6,0.2
								c-0.2-0.1-0.3-0.3-0.4-0.6c-0.1-0.4-0.2-0.8-0.3-1.2c-0.1-0.5-0.1-1,0-1.5c0.9,0.3,1.9,0.4,2.8,0.4c0,0.2,0,0.4,0.1,0.6
								c0.1,0.4,0.2,0.8,0.4,1.1c0.1,0.1,0.2,0.3,0.2,0.4C42.4,38.6,42.4,38.7,42.3,38.8z"/>
							<g>
								<g>
									<path id="SVGID_1_" class="st12" d="M38.8,36c-0.1,0.9,0,1.9,0.3,2.7c0.1,0.2,0.2,0.4,0.4,0.6c0.2,0.1,0.5,0,0.6-0.2
										c0,0.2,0.1,0.3,0.3,0.3s0.3-0.1,0.4-0.2c0.1,0.1,0.2,0.2,0.3,0.2c0.1,0,0.2-0.1,0.3-0.2c0.1,0.1,0.2,0.2,0.4,0.1
										c0.1-0.1,0.2-0.2,0.2-0.3c0.1,0.1,0.3,0.1,0.4,0s0.1-0.3,0.1-0.4c0-0.1-0.1-0.3-0.2-0.4c-0.3-0.5-0.5-1.1-0.5-1.7
										C40.7,36.4,39.8,36.3,38.8,36z"/>
								</g>
								<g>
									<defs>
										<path id="SVGID_2_" d="M38.8,36c-0.1,0.9,0,1.9,0.3,2.7c0.1,0.2,0.2,0.4,0.4,0.6c0.2,0.1,0.5,0,0.6-0.2
											c0,0.2,0.1,0.3,0.3,0.3s0.3-0.1,0.4-0.2c0.1,0.1,0.2,0.2,0.3,0.2c0.1,0,0.2-0.1,0.3-0.2c0.1,0.1,0.2,0.2,0.4,0.1
											c0.1-0.1,0.2-0.2,0.2-0.3c0.1,0.1,0.3,0.1,0.4,0s0.1-0.3,0.1-0.4c0-0.1-0.1-0.3-0.2-0.4c-0.3-0.5-0.5-1.1-0.5-1.7
											C40.7,36.4,39.8,36.3,38.8,36z"/>
									</defs>
									<clipPath id="SVGID_4_">
										<use xlink:href="#SVGID_2_"  style="overflow:visible;"/>
									</clipPath>
									<g class="st13">
										<path class="st14" d="M40.1,39.3c0.1-0.2,0.1-0.5-0.1-0.7C40.2,38.7,40.3,39,40.1,39.3z"/>
										<path class="st14" d="M40.8,39.3c0.1-0.2,0-0.5-0.2-0.7C40.9,38.8,40.9,39.1,40.8,39.3z"/>
										<path class="st14" d="M41.3,39.3c0.1-0.2,0-0.4-0.1-0.7C41.5,38.8,41.5,39.1,41.3,39.3z"/>
										<path class="st14" d="M41.9,39.1c0-0.2,0-0.4-0.2-0.6C41.9,38.6,42,38.9,41.9,39.1z"/>
									</g>
								</g>
							</g>
						</g>
						<path class="st15" d="M41.7,37c-0.8,0.6-1.9,0.8-2.9,0.6c-0.1-0.5-0.1-1,0-1.5c0.9,0.3,1.9,0.4,2.8,0.4
							C41.7,36.6,41.7,36.8,41.7,37z"/>
					</g>
					<g>
						<g>
							<path class="st16" d="M37.5,39.3c-0.2,0.1-0.5,0.1-0.6-0.1c0,0.1-0.2,0.2-0.3,0.2c-0.1,0-0.3,0-0.3-0.1
								c-0.1,0.2-0.5,0.3-0.6,0c-0.2,0.2-0.6,0.1-0.7-0.2c-0.1,0.2-0.3,0.2-0.4,0c-0.1-0.1-0.1-0.3-0.1-0.4c0-0.4,0-0.9,0.1-1.3
								c0.1-0.4,0.1-0.7,0.3-1.1c0.8,0,1.6-0.1,2.4-0.3c0,0.3,0.1,0.7,0.1,1c0.1,0.3,0.1,0.7,0.2,1c0.1,0.2,0.2,0.4,0.2,0.6
								C37.7,39,37.7,39.2,37.5,39.3z"/>
							<g>
								<g>
									<path id="SVGID_3_" class="st12" d="M37.2,36.1c0,0.7,0.1,1.3,0.4,2c0.1,0.2,0.2,0.4,0.2,0.6c0,0.2-0.1,0.5-0.2,0.6
										c-0.2,0.1-0.5,0.1-0.6-0.1c0,0.1-0.2,0.2-0.3,0.2s-0.3,0-0.3-0.1c-0.1,0.2-0.5,0.3-0.6,0c-0.2,0.2-0.6,0.1-0.7-0.2
										c-0.1,0.2-0.3,0.2-0.4,0c-0.1-0.1-0.1-0.3-0.1-0.4c0-0.8,0.1-1.6,0.3-2.4C35.6,36.4,36.4,36.3,37.2,36.1z"/>
								</g>
								<g>
									<defs>
										<path id="SVGID_5_" d="M37.2,36.1c0,0.7,0.1,1.3,0.4,2c0.1,0.2,0.2,0.4,0.2,0.6c0,0.2-0.1,0.5-0.2,0.6
											c-0.2,0.1-0.5,0.1-0.6-0.1c0,0.1-0.2,0.2-0.3,0.2s-0.3,0-0.3-0.1c-0.1,0.2-0.5,0.3-0.6,0c-0.2,0.2-0.6,0.1-0.7-0.2
											c-0.1,0.2-0.3,0.2-0.4,0c-0.1-0.1-0.1-0.3-0.1-0.4c0-0.8,0.1-1.6,0.3-2.4C35.6,36.4,36.4,36.3,37.2,36.1z"/>
									</defs>
									<clipPath id="SVGID_6_">
										<use xlink:href="#SVGID_5_"  style="overflow:visible;"/>
									</clipPath>
									<g class="st17">
										<path class="st14" d="M37,39.6c-0.1-0.3-0.1-0.6-0.2-1C36.7,38.9,36.7,39.3,37,39.6z"/>
										<path class="st14" d="M36.4,39.7c0-0.3-0.1-0.6-0.1-1C36.1,39,36.2,39.4,36.4,39.7z"/>
										<path class="st14" d="M35.7,39.7c0-0.3,0-0.7,0-1C35.5,39,35.5,39.4,35.7,39.7z"/>
										<path class="st14" d="M35,39.5c0-0.3,0-0.6,0-0.9C34.9,38.9,34.9,39.3,35,39.5z"/>
									</g>
								</g>
							</g>
						</g>
						<path class="st15" d="M37.3,37.1c-0.7,0.3-1.5,0.4-2.3,0.4c-0.2,0-0.3,0-0.4-0.1c0.1-0.4,0.1-0.7,0.3-1.1
							c0.8,0,1.6-0.1,2.4-0.3C37.2,36.5,37.2,36.8,37.3,37.1z"/>
					</g>
					<g>
						<path class="st18" d="M42.1,21.5l0,1L42,36.6c-1.2,1.2-3.4,0.2-3.4,0.2l-0.2-12.4l-0.6,12.4c-2.2,0.9-3.6-0.2-3.6-0.2
							l-0.1-14.1l0-1.5l3.4-1.1l1.1-0.4l0.4,0.2L42.1,21.5z"/>
						<path class="st19" d="M42.1,21.5l0,1c-1.1,0.5-2.3,0.8-3.5,0.7c0-0.3-0.1-0.5-0.1-0.8c-0.1,0.3-0.1,0.6-0.2,0.8
							c-1.4,0-2.8-0.3-4.2-0.8l0-1.5l3.4-1.1c0.5,0,1-0.1,1.5-0.1L42.1,21.5z"/>
					</g>
				</g>
				<g>
					<g>
						<path class="st20" d="M42.8,21.9c-1.9,1.1-4.1,0.9-4.1,0.9l-0.3-2l-0.3,1.9c-2.5,0.3-4.6-1.2-4.6-1.2l0.1-0.6l0.6-3l-0.4-4.3
							c0,0-0.5-3.5,0.1-4.2C34.6,8.8,38,8,38,8s2.9,1,4.1,1.8c0.7,0.4,0,7.4,0,7.9c0,0.3,0.4,2.7,0.6,3.8
							C42.8,21.7,42.8,21.9,42.8,21.9z"/>
						<path class="st21" d="M42.8,21.9c-1.9,1.1-4.1,0.9-4.1,0.9l-0.3-2l-0.3,1.9c-2.5,0.3-4.6-1.2-4.6-1.2l0.1-0.6
							c1.1,0.8,2.5,1.3,3.9,1.3c0.8-4.3,0.8-8.8,0.3-13.2c0.2,0,0.6,0.1,0.9,0.1c0.3,3.5,0.4,7,0.2,10.5c-0.1,0.9-0.1,1.8,0.3,2.6
							c1.2,0,2.4-0.3,3.4-0.9C42.8,21.7,42.8,21.9,42.8,21.9z"/>
						<path class="st21" d="M34.6,20.5c0.9-0.1,1.7-0.3,2.5-0.6c0,0.1,0.1,0.3,0.1,0.4c-0.8,0.3-1.7,0.5-2.6,0.5
							C34.7,20.7,34.7,20.6,34.6,20.5z"/>
						<path class="st21" d="M42.1,20.4c-0.8-0.1-1.6-0.2-2.4-0.4c0,0.1-0.1,0.2-0.1,0.3c0.8,0.3,1.6,0.5,2.4,0.5
							C42.1,20.7,42.1,20.6,42.1,20.4z"/>
					</g>
					<g>
						<g>
							<path class="st12" d="M39.5,8.5c0,0-0.8,0.5-1.3,0.5c-0.5,0-1.4-0.9-1.4-0.9l0-0.4L36.9,7l2.6,0.5l0,0.9V8.5z"/>
							<path class="st15" d="M39.5,8.4c-1.1,0.4-2.2-0.3-2.7-0.7L36.9,7l2.6,0.5L39.5,8.4z"/>
						</g>
						<path class="st21" d="M36.7,7.9c-0.1,0-0.3,0.5-0.3,0.6s1,1.2,2,1.2s1.4-0.9,1.4-0.9c0-0.1-0.1-0.7-0.2-0.6
							c-0.1,0.1-0.4,0.5-1.3,0.5C37.6,8.6,36.8,7.9,36.7,7.9z"/>
					</g>
					<path class="st22" d="M38.4,8.7c0,0.4-0.1,1-0.1,1s0.6,6,0,11.2"/>
				</g>
				<g>
					<g>
						<polygon class="st15" points="39.7,18.8 38.1,18.6 36.9,18.9 37,17.3 40,17.2 						"/>
						<g>
							<path class="st21" d="M43.7,18.1c-0.2,0.6-2.3,1-3.4,1.1c-0.5,0.1-0.8,0.1-0.8,0.1l-0.2-2.7l0.7-0.2l2.1-0.6
								c0,0,0.2-0.9,0.1-3.4c-0.1-1.6-0.4-2.8-0.4-2.8s0.8,0.4,1,0.7C43.4,11.5,44,17.2,43.7,18.1z"/>
							<g>
								<path class="st20" d="M42.2,15.8c0.2-0.2,0.4-0.3,0.7-0.2c0.2,0,0.5,0.1,0.6,0.3C43.1,15.8,42.7,15.8,42.2,15.8z"/>
								<path class="st20" d="M42.1,16c0.3-0.1,0.6,0,0.9,0.2c0.3,0.2,0.4,0.4,0.5,0.7C43.1,16.5,42.7,16.2,42.1,16z"/>
							</g>
						</g>
					</g>
					<g>
						<path class="st23" d="M37.2,16.9c0.1-0.2,0.3-0.3,0.5-0.4c0.2,0.9,0.1,1.8-0.1,2.7C37.2,18.6,37.1,17.8,37.2,16.9z"/>
						<g>
							<g>
								<polygon class="st12" points="38.1,18.4 38,18.4 36.8,18.4 37,16.7 37.8,16.8 37.9,16.9 38.1,16.9 38.1,18.3 								"/>
								<g>
									<path class="st12" d="M41.9,17.2L41.9,17.2c0,0.1-0.1,0.3-0.2,0.3c-0.1,0-0.1,0-0.2,0.1c0,0.1,0,0.1-0.1,0.2
										c0,0.1-0.1,0.2-0.2,0.3c-0.1,0-0.2,0.1-0.3,0.1c0,0.1,0,0.1-0.1,0.1c-0.1,0.2-0.2,0.3-0.4,0.3c-0.3,0.1-0.6,0.2-1.1,0.1
										s-0.9-0.1-1.3-0.3c0,0,0,0-0.1,0c0-0.1,0-0.1,0-0.2c-0.1-0.5,0-0.8,0-1.3c0,0,0,0,0,0c0.3-0.2,0.5-0.4,0.7-0.6
										c0.2-0.1,0.4-0.2,0.6-0.2c0.3,0,0.5,0,0.8-0.1c0.1,0,0.2,0.1,0.2,0.1c0,0.1,0,0.1-0.1,0.2c0.4,0.1,0.9,0.1,1.3,0
										c0.1,0,0.2,0.1,0.2,0.2v0c0,0.1-0.1,0.2-0.2,0.2c-0.4,0-0.9,0.1-1.3,0.2c0.5,0.1,0.9,0.1,1.4,0
										C41.8,17,41.9,17.1,41.9,17.2z"/>
									<g>
										<path class="st14" d="M40.2,16.4c-0.4,0-0.7,0-1.1,0.1C39.5,16.3,39.8,16.3,40.2,16.4z"/>
										<path class="st14" d="M41.4,17.6c-0.4,0.1-0.9,0.2-1.3,0.2C40.6,17.7,41,17.7,41.4,17.6z"/>
										<path class="st14" d="M40.8,18.2c-0.4,0.1-0.8,0.2-1.1,0.2C40,18.3,40.4,18.2,40.8,18.2z"/>
									</g>
								</g>
							</g>
							<path class="st15" d="M39.4,18.7c-0.4,0-0.9-0.1-1.3-0.3l-1.2-0.1l0.2-1.7l0.8,0.2c-0.1,0.3-0.1,0.6-0.1,0.9
								c0,0.2,0.1,0.4,0.2,0.5c0,0,0,0,0,0c0.1,0,0.1,0.1,0.2,0.1C38.5,18.5,38.9,18.7,39.4,18.7z"/>
						</g>
						<g>
							<path class="st21" d="M37.6,19.3c-0.3,0-0.5,0-0.8,0c-1.8-0.1-3.7-0.7-3.9-0.9c-0.3-0.3-0.4-1.5-0.4-2.7c0-1,0.4-4.6,0.7-5.3
								s0.9-1,0.9-1s1,1.1,1.1,3c0.1,1.4,0.1,3.6,0.1,3.6c0.6,0.1,1,0.3,1.7,0.5c0.2,0.1,0.4,0.1,0.6,0.2
								C37.5,17.3,37.5,19.1,37.6,19.3z"/>
							<g>
								<path class="st20" d="M35.3,16c-0.5,0.1-0.9,0.4-1.1,0.9c0-0.3,0.1-0.5,0.3-0.7C34.7,16,35,16,35.3,16z"/>
								<path class="st20" d="M35.2,15.9c-0.4-0.4-1.2-0.4-1.9,0C33.9,15.7,34.7,15.7,35.2,15.9z"/>
							</g>
						</g>
					</g>
				</g>
				<g>
					<path class="st15" d="M35.7,4c0.4-0.1,0.8,0.2,0.9,0.7c0.1,0.5-0.1,1-0.4,1.1c-0.4,0.1-0.8-0.2-0.9-0.7
						C35.1,4.6,35.3,4.1,35.7,4z"/>
					<path class="st15" d="M40.1,4.7c0.2-0.5,0.6-0.8,0.9-0.7c0.4,0.1,0.5,0.6,0.4,1.1c-0.2,0.5-0.6,0.8-0.9,0.7
						C40.2,5.7,40,5.2,40.1,4.7z"/>
					<ellipse class="st12" cx="38.4" cy="4.7" rx="2.5" ry="3.3"/>
					<path class="st24" d="M36.8,3.4c-0.2,0.7-0.5,1.3-0.9,1.8c-0.2-0.3-0.3-0.7-0.4-1.1c0-0.2,0-0.5,0.1-0.7
						C36,3.2,36.4,3.2,36.8,3.4z"/>
					<path class="st24" d="M40.5,3.7c0.1,0.5,0.2,1,0.5,1.4c0.2-0.4,0.3-0.9,0.3-1.3C41.1,3.8,40.8,3.7,40.5,3.7z"/>
					<g>
						<g>
							<path class="st24" d="M36.6,4.6c0.2-0.2,0.4-0.3,0.6-0.3c0.2,0,0.5,0.1,0.6,0.3C37.5,4.4,37,4.4,36.6,4.6z"/>
							<path class="st24" d="M39.3,4.5c0.1-0.2,0.4-0.3,0.6-0.3c0.2,0,0.5,0.2,0.6,0.3C40.1,4.5,39.7,4.5,39.3,4.5z"/>
						</g>
						<g>
							<path class="st25" d="M36.7,5.4c0.4,0.1,0.8,0.1,1.2,0.1C37.6,5.7,37.1,5.7,36.7,5.4z"/>
							<path class="st25" d="M39.3,5.4c0.4,0.1,0.8,0.1,1.2,0c-0.2,0.1-0.4,0.2-0.6,0.2C39.7,5.6,39.5,5.6,39.3,5.4z"/>
						</g>
						<g>
							<path class="st14" d="M38.7,5.6c0,0.3,0,0.5,0,0.8c0.1-0.1,0.2-0.2,0.2-0.4S38.8,5.7,38.7,5.6z"/>
							<path class="st14" d="M38.8,7c0-0.1-0.2-0.2-0.3-0.2c-0.1,0-0.2,0-0.3,0.1c0,0-0.1,0.1-0.1,0.1c0,0,0.1,0.1,0.1,0.1
								c0.1,0,0.2,0,0.3,0C38.7,7.1,38.8,7.1,38.8,7z"/>
						</g>
					</g>
					<g>
						<path class="st26" d="M41.3,4c-1.9,0.2-3.9,0.1-5.8-0.2C35.2-0.8,41.9-0.4,41.3,4z"/>
					</g>
				</g>
			</g>
		</g>
		<g>
			<g>
				<polygon class="st9" points="8.3,43.9 30,43.9 28.7,35.8 16.4,35.8 				"/>
				<polygon class="st6" points="9.8,43.4 28.9,43.4 28.2,35.9 16.8,35.9 				"/>
				<polygon class="st7" points="10.3,43.3 28.5,43.3 27.9,36 17,36 				"/>
				<polygon class="st8" points="14.1,42 25.8,42 26.2,36.5 18.3,36.5 				"/>
				<g>
					<g>
						<g>
							<g>
								<polygon class="st9" points="15.1,42.7 12.6,42.7 11.8,42.7 11.8,42.7 12.7,41.6 13.5,41.6 12.8,42.4 15.3,42.4 								"/>
							</g>
							<g>
								<polygon class="st9" points="23.9,42.7 26.5,42.7 27.2,42.7 27.3,42.7 27.3,41.6 26.5,41.6 26.5,42.4 23.9,42.4 								"/>
							</g>
						</g>
						<polygon class="st9" points="19.5,42.8 20.9,42.6 19.6,42.5 18.2,42.6 						"/>
					</g>
					<g>
						<g>
							<g>
								<polygon class="st9" points="25.1,36.2 26.7,36.2 27.2,36.2 27.2,36.2 27.2,36.7 26.7,36.7 26.7,36.3 25.1,36.3 								"/>
							</g>
							<g>
								<polygon class="st9" points="19.5,36.2 17.9,36.2 17.4,36.2 17.4,36.2 17,36.7 17.5,36.7 17.8,36.3 19.5,36.3 								"/>
							</g>
						</g>
						<polygon class="st9" points="22.2,36.3 23.1,36.2 22.3,36.2 21.4,36.2 						"/>
					</g>
					<g>
						<g>
							<polygon class="st9" points="26.8,38.7 27.1,39 27.5,38.7 27.1,38.5 							"/>
							<polygon class="st9" points="15.2,38.7 15.3,39 15.8,38.7 15.7,38.5 							"/>
						</g>
						<g>
							<path class="st9" d="M14.2,40.1c0.1,0,0.2,0,0.2-0.1c0,0,0-0.1-0.1-0.1c-0.1,0-0.2,0-0.2,0.1C14,40.1,14.1,40.1,14.2,40.1z"
								/>
							<path class="st9" d="M26.9,40.1c0.1,0,0.2,0,0.2-0.1c0,0-0.1-0.1-0.2-0.1c-0.1,0-0.2,0-0.2,0.1
								C26.7,40.1,26.8,40.1,26.9,40.1z"/>
						</g>
						<g>
							<path class="st9" d="M16.5,37.3c0.1,0,0.2,0,0.2,0C16.7,37.3,16.7,37.3,16.5,37.3c0-0.1-0.1-0.1-0.1,0
								C16.4,37.3,16.4,37.3,16.5,37.3z"/>
							<path class="st9" d="M27,37.3c0.1,0,0.2,0,0.2,0C27.1,37.3,27.1,37.3,27,37.3c-0.1-0.1-0.2-0.1-0.2,0
								C26.8,37.3,26.9,37.3,27,37.3z"/>
						</g>
					</g>
				</g>
				<polygon class="st10" points="15.1,41.7 25,41.7 25.7,36.6 18.7,36.6 				"/>
				<polygon class="st10" points="24.4,39.8 25,36.8 19.3,36.8 17.3,39.8 20.2,41.4 				"/>
				<g>
					<polygon class="st7" points="19.1,40 18.9,40.1 20.7,40.2 22.6,40.1 20.8,39.8 					"/>
					<polygon class="st7" points="21.1,39.1 21.1,39.1 21.1,39.1 					"/>
					<path class="st10" d="M22.2,39.6c-0.1-0.2-0.6-0.1-0.6-0.1c-0.2-0.1-0.6,0-0.7,0l0.2-0.4l1.7,0.2l-0.1,0.3
						C22.6,39.5,22.2,39.6,22.2,39.6z"/>
					<polygon class="st7" points="21.1,39.1 21.1,39.1 21.1,39.1 					"/>
					<path class="st10" d="M20.9,39.5c-0.2-0.1-0.7,0-0.7,0c-0.3-0.1-0.7,0.1-0.7,0.1c-0.1-0.1-0.3-0.1-0.4,0l0.2-0.3l1.8-0.2
						L20.9,39.5C20.9,39.5,20.9,39.5,20.9,39.5z"/>
					<g>
						<path class="st7" d="M20.8,39.9l-2,0.2l0.3-0.5c0.1,0,0.3,0,0.4,0c0,0,0.3-0.1,0.7-0.1c0,0,0.5-0.2,0.7,0c0,0,0,0,0,0
							c0,0,0,0,0,0c0.1,0,0.4-0.1,0.7,0c0,0,0.4-0.1,0.6,0.1c0,0,0.4-0.1,0.5,0l-0.1,0.5L20.8,39.9z"/>
					</g>
					<path class="st7" d="M20.9,39.5l0.2-0.4l0,0l0,0L20.9,39.5C21,39.5,21,39.5,20.9,39.5z"/>
					<line class="st10" x1="21.1" y1="39.2" x2="19.3" y2="39.4"/>
					<line class="st10" x1="21.1" y1="39.3" x2="19.2" y2="39.5"/>
					<line class="st10" x1="21" y1="39.4" x2="19.2" y2="39.6"/>
					<line class="st10" x1="21.1" y1="39.2" x2="22.8" y2="39.4"/>
					<line class="st10" x1="21.1" y1="39.3" x2="22.8" y2="39.5"/>
					<line class="st10" x1="21" y1="39.4" x2="22.7" y2="39.6"/>
					<line class="st10" x1="19.5" y1="39.5" x2="19.5" y2="39.4"/>
					<line class="st10" x1="20.2" y1="39.5" x2="20.2" y2="39.4"/>
					<line class="st10" x1="20.7" y1="39.4" x2="20.8" y2="39.3"/>
					<line class="st10" x1="19.8" y1="39.4" x2="19.9" y2="39.3"/>
					<line class="st10" x1="20.4" y1="39.3" x2="20.5" y2="39.2"/>
					<line class="st10" x1="19.8" y1="39.5" x2="19.8" y2="39.6"/>
					<line class="st10" x1="21.3" y1="39.4" x2="21.3" y2="39.3"/>
					<line class="st10" x1="22" y1="39.5" x2="22" y2="39.4"/>
					<line class="st10" x1="22.6" y1="39.6" x2="22.6" y2="39.5"/>
					<line class="st10" x1="22.3" y1="39.4" x2="22.3" y2="39.3"/>
					<line class="st10" x1="21.7" y1="39.4" x2="21.7" y2="39.3"/>
					<line class="st10" x1="22.1" y1="39.3" x2="22.1" y2="39.2"/>
					<line class="st10" x1="21.4" y1="39.2" x2="21.4" y2="39.2"/>
					<line class="st10" x1="22.6" y1="39.4" x2="22.6" y2="39.3"/>
					<polyline class="st11" points="18.9,40.1 20.8,39.9 22.6,40 					"/>
					<line class="st11" x1="20.8" y1="39.9" x2="21" y2="39.5"/>
				</g>
			</g>
			<g>
				<path class="st27" d="M16.4,19.3c-0.2-1.3,0.9-5.5,1.6-7.6c0.2-0.5,0.6-0.9,1.1-1.2l0.6-0.3c-0.5,2.8-1.4,5.8-1.6,8.6
					C17.6,18.8,17,19,16.4,19.3z"/>
				<g>
					<g>
						<g>
							<g>
								<path class="st12" d="M25.4,37.1c0,0.1,0,0.3-0.1,0.4c-0.1,0.1-0.3,0.1-0.4,0c-0.1,0.2-0.4,0.3-0.6,0.2
									c-0.1,0.2-0.5,0.2-0.6,0c-0.1,0.1-0.2,0.2-0.3,0.1c-0.1,0-0.2-0.1-0.3-0.2c-0.1,0.2-0.4,0.2-0.5,0.1
									c-0.2-0.1-0.2-0.3-0.2-0.5s0.1-0.4,0.2-0.6c0.1-0.2,0.1-0.3,0.1-0.5c0.1-0.4,0.2-0.9,0.2-1.3c0.8,0.2,1.5,0.2,2.2,0.2
									c0.1,0.3,0.2,0.5,0.2,0.8C25.4,36.2,25.4,36.7,25.4,37.1z"/>
								<g>
									<g>
										<defs>
											<path id="SVGID_7_" d="M23,34.7c0,0.6-0.1,1.2-0.3,1.8c-0.1,0.2-0.1,0.4-0.2,0.6c0,0.2,0.1,0.4,0.2,0.5
												c0.2,0.1,0.4,0.1,0.5-0.1c0,0.1,0.1,0.2,0.3,0.2c0.1,0,0.2,0,0.3-0.1c0.1,0.2,0.5,0.2,0.6,0c0.2,0.1,0.5,0.1,0.6-0.2
												c0.1,0.1,0.3,0.1,0.4,0c0.1-0.1,0.1-0.3,0.1-0.4c0-0.7-0.1-1.5-0.3-2.2C24.4,34.9,23.7,34.9,23,34.7z"/>
										</defs>
										<clipPath id="SVGID_8_">
											<use xlink:href="#SVGID_7_"  style="overflow:visible;"/>
										</clipPath>
										<g class="st28">
											<path class="st29" d="M23.2,37.8c0.1-0.3,0.1-0.6,0.1-0.9C23.4,37.2,23.4,37.6,23.2,37.8z"/>
											<path class="st29" d="M23.7,37.9c0-0.3,0.1-0.6,0.1-0.9C23.9,37.3,23.9,37.7,23.7,37.9z"/>
											<path class="st29" d="M24.3,37.9c0-0.3,0-0.6,0-0.9C24.5,37.3,24.5,37.6,24.3,37.9z"/>
											<path class="st29" d="M24.9,37.8c0-0.3,0-0.6,0-0.8C25.1,37.2,25.1,37.5,24.9,37.8z"/>
										</g>
									</g>
								</g>
							</g>
							<path class="st15" d="M25.3,35.7c-0.8,0.4-1.7,0.5-2.5,0.3c0.1-0.4,0.2-0.9,0.2-1.3c0.8,0.2,1.5,0.2,2.2,0.2
								C25.2,35.2,25.3,35.5,25.3,35.7z"/>
						</g>
						<g>
							<g>
								<path class="st12" d="M21.5,35.7c0,0.5-0.1,0.9-0.3,1.3c-0.1,0.2-0.2,0.4-0.4,0.5s-0.5,0-0.5-0.2c0,0.1-0.1,0.3-0.3,0.3
									s-0.3-0.1-0.3-0.2c-0.1,0.1-0.2,0.2-0.3,0.2c-0.1,0-0.2-0.1-0.3-0.2c-0.1,0.1-0.2,0.2-0.3,0.1c-0.1-0.1-0.2-0.2-0.2-0.3
									c-0.1,0.1-0.3,0.1-0.3,0c-0.1-0.1-0.1-0.2-0.1-0.4c0-0.1,0.1-0.2,0.2-0.4c0.1-0.1,0.1-0.3,0.2-0.4c0.1-0.4,0.2-0.7,0.2-1.1
									c0.9,0,1.7-0.1,2.5-0.3C21.5,35,21.6,35.3,21.5,35.7z"/>
								<g>
									<g>
										<defs>
											<path id="SVGID_9_" d="M21.5,34.6c0.1,0.8,0,1.7-0.3,2.4c-0.1,0.2-0.2,0.4-0.4,0.5s-0.5,0-0.5-0.2c0,0.1-0.1,0.3-0.3,0.3
												s-0.3-0.1-0.3-0.2c-0.1,0.1-0.2,0.2-0.3,0.2c-0.1,0-0.2-0.1-0.3-0.2c-0.1,0.1-0.2,0.2-0.3,0.1c-0.1-0.1-0.2-0.2-0.2-0.3
												c-0.1,0.1-0.3,0.1-0.3,0c-0.1-0.1-0.1-0.2-0.1-0.4c0-0.1,0.1-0.2,0.2-0.4c0.3-0.5,0.4-1,0.4-1.5
												C19.8,35,20.7,34.9,21.5,34.6z"/>
										</defs>
										<clipPath id="SVGID_10_">
											<use xlink:href="#SVGID_9_"  style="overflow:visible;"/>
										</clipPath>
										<g class="st30">
											<path class="st29" d="M20.4,37.5c-0.1-0.2-0.1-0.5,0.1-0.7C20.2,37,20.2,37.3,20.4,37.5z"/>
											<path class="st29" d="M19.8,37.5c-0.1-0.2,0-0.4,0.1-0.6C19.7,37.1,19.6,37.4,19.8,37.5z"/>
											<path class="st29" d="M19.3,37.5c-0.1-0.2,0-0.4,0.1-0.6C19.1,37.1,19.1,37.4,19.3,37.5z"/>
											<path class="st29" d="M18.8,37.4c0-0.2,0-0.4,0.2-0.6C18.7,36.9,18.7,37.2,18.8,37.4z"/>
										</g>
									</g>
								</g>
							</g>
							<path class="st15" d="M21.5,35.7c-0.8,0.4-1.9,0.6-2.8,0.4c0.1-0.4,0.2-0.7,0.2-1.1c0.9,0,1.7-0.1,2.5-0.3
								C21.5,35,21.6,35.3,21.5,35.7z"/>
						</g>
					</g>
					<g>
						<g>
							<path class="st18" d="M25.8,21l0,1.4l0,6l0,2.2l0,4.4c0,0-1.2,1-3.2,0.2l-0.3-5.2l-0.1-1.6l-0.2-4.4L21.8,29l0,0.9V30l0,1.7
								l0,0l-0.1,3.6c0,0-2,0.9-3-0.1l0-5.4l0-1.6l0-5.7v-0.9l2.7-1.6l0.3-0.2l1,0.3L25.8,21z"/>
						</g>
						<path class="st19" d="M18.7,28.2c0.9,0.6,2.1,0.9,3.2,0.9l-0.1,2.6c0-0.2-0.1-0.3-0.1-0.5c-0.1-0.5-0.6-0.9-1.1-1
							c-0.7,0-1.3-0.2-1.9-0.4"/>
						<path class="st19" d="M25.8,28.4l0,2.2c0,0,0,0,0,0c-0.2-0.4-0.6-0.6-1-0.5c-0.8,0.1-1.7,0.1-2.5-0.1l-0.1-1.6
							C23.3,28.7,24.6,28.7,25.8,28.4z"/>
					</g>
				</g>
				<g>
					<path class="st31" d="M27.1,28.9c-4.6,1.9-9.5,0.3-9.5,0.3s0.1-2.3,0.3-5.2c0.3-5.3,0.8-12.8,1.2-13.4c0.5-0.7,2.9-1,2.9-1
						s2.4,0.4,3.4,1c0.3,0.2,0.8,5.8,1.1,10.7C26.8,25.3,27.1,28.9,27.1,28.9z"/>
					<path class="st32" d="M27.1,28.9c-4.6,1.9-9.5,0.3-9.5,0.3s0.1-2.3,0.3-5.2c1.6,0.5,3.3,0.3,4.8-0.3c1.4-0.6,2.7-1.4,3.9-2.4
						C26.8,25.3,27.1,28.9,27.1,28.9z"/>
					<g>
						<g>
							<defs>
								<path id="SVGID_11_" d="M27.1,28.9c-4.6,1.9-9.5,0.3-9.5,0.3s0.9-17.7,1.5-18.5c0.5-0.7,2.9-1,2.9-1s2.4,0.4,3.4,1
									C26,11,27.1,28.9,27.1,28.9z"/>
							</defs>
							<clipPath id="SVGID_12_">
								<use xlink:href="#SVGID_11_"  style="overflow:visible;"/>
							</clipPath>
							<g class="st33">
								<g>
									<path class="st34" d="M20.4,9.2c-0.1,0.8,0.2,1.7,0.9,2.2c0.1,0.5,0.4,1.1,0.7,1.5c0.4-0.5,0.5-1,0.7-1.5
										c0.7-0.4,1.2-1.2,1.5-2c0.2,0,0.3,0.1,0.6,0.1c0.3,0.8,0.3,1.7-0.4,2.1c0.2,0.6-0.2,1.2-0.9,1.5c-0.2,0.9-0.6,1.8-1.5,2.2
										c-0.7-0.3-1.4-1.1-1.5-2c-0.6-0.1-1-1-0.5-1.5c-1.1-0.5-0.5-1.7-0.1-2.3C20,9.3,20.1,9.2,20.4,9.2z"/>
									<g>
										<circle class="st34" cx="23.5" cy="11.9" r="0.5"/>
										<circle class="st34" cx="24.2" cy="10.6" r="0.3"/>
										<circle class="st34" cx="20.1" cy="10.6" r="0.3"/>
										<circle class="st34" cx="22" cy="13.9" r="0.5"/>
										<circle class="st34" cx="20.7" cy="12.1" r="0.5"/>
									</g>
								</g>
								<g>
									<path class="st34" d="M17,28.2c3.5,1,7.4,0.9,10.9-0.5"/>
									<g>
										<circle class="st34" cx="21.5" cy="27.9" r="0.6"/>
										<circle class="st34" cx="23.5" cy="27.8" r="0.6"/>
										<circle class="st34" cx="25.4" cy="27.4" r="0.6"/>
										<circle class="st34" cx="19.8" cy="27.7" r="0.6"/>
										<circle class="st34" cx="17.9" cy="27.4" r="0.6"/>
										<circle class="st34" cx="27.2" cy="27" r="0.6"/>
									</g>
								</g>
							</g>
						</g>
					</g>
				</g>
				<g>
					<g>
						<path class="st12" d="M23.3,9.8c0,0-0.6,1.2-1.3,1.2c-0.7,0-1.1-1.1-1.1-1.1l0-0.2l0.1-0.9l2.2-0.3l0.1,0.8L23.3,9.8z"/>
						<path class="st12" d="M21.8,10.9c0,0.3,0.1,0.6,0.2,1c0.1-0.3,0.2-0.7,0.4-1C22.2,10.9,22,10.8,21.8,10.9z"/>
						<path class="st15" d="M23.3,9.3c-0.2,0.2-0.4,0.3-0.7,0.4c-0.5,0.2-1,0.2-1.6,0.1c0,0-0.1,0-0.1,0l0.1-0.9l2.2-0.3L23.3,9.3z"
							/>
					</g>
					<g>
						
							<ellipse transform="matrix(0.9675 -0.2528 0.2528 0.9675 -1.0559 5.189)" class="st15" cx="19.7" cy="6.7" rx="0.6" ry="0.9"/>
						<path class="st15" d="M23.6,6.5c0.1-0.5,0.5-0.7,0.9-0.6c0.3,0.1,0.5,0.6,0.4,1c-0.1,0.5-0.5,0.7-0.9,0.6
							C23.6,7.4,23.5,7,23.6,6.5z"/>
						<ellipse class="st12" cx="22" cy="6.5" rx="2.4" ry="3.1"/>
						<g>
							<g>
								<path class="st35" d="M23.9,6.5c-0.2-0.2-0.4-0.3-0.6-0.3c-0.2,0-0.5,0.1-0.6,0.3C23.1,6.3,23.5,6.4,23.9,6.5z"/>
								<path class="st35" d="M21.4,6.5c-0.1-0.2-0.4-0.3-0.6-0.2s-0.4,0.2-0.6,0.3C20.6,6.5,21.1,6.4,21.4,6.5z"/>
							</g>
							<g>
								<path class="st25" d="M23.8,7.3c-0.4,0.1-0.8,0.1-1.2,0.1C22.9,7.5,23.4,7.5,23.8,7.3z"/>
								<path class="st25" d="M21.4,7.3c-0.4,0.1-0.8,0.1-1.1,0c0.2,0.1,0.3,0.2,0.5,0.2C21,7.5,21.2,7.4,21.4,7.3z"/>
							</g>
							<g>
								<path class="st14" d="M21.9,7.5c0,0.2,0,0.5,0,0.7c-0.1-0.1-0.2-0.2-0.2-0.4C21.8,7.7,21.8,7.6,21.9,7.5z"/>
							</g>
							<path class="st14" d="M21.8,8.7c0-0.1,0.2-0.1,0.3-0.1c0.1,0,0.1,0.1,0.1,0.1c0,0,0,0-0.1,0C22,8.8,21.8,8.8,21.8,8.7z"/>
						</g>
						<g>
							<g>
								<path class="st35" d="M23.7,5.2c0.2,0.6,0.4,1.2,0.7,1.7c0.3-0.4,0.4-0.9,0.4-1.4C24.4,5.5,24,5.4,23.7,5.2z"/>
								<path class="st35" d="M20.1,5.2c-0.2,0.6-0.4,1.2-0.5,1.8c-0.2-0.4-0.3-0.9-0.3-1.4c0-0.1,0-0.2,0-0.2
									C19.6,5.2,19.9,5.4,20.1,5.2z"/>
							</g>
							<path class="st26" d="M24.7,5.7c-1.8,0.3-3.6,0.3-5.4,0C18.9,1.5,25.1,1.6,24.7,5.7z"/>
						</g>
					</g>
				</g>
				<g>
					<g>
						<polyline class="st15" points="23.6,18.3 20.9,18.4 20,18 19,18.1 18.8,19.8 20.6,19.6 23.7,20 						"/>
						<g>
							<g>
								<path class="st27" d="M27.5,20c-0.3,0.8-4.1,0.8-4.1,0.8l-0.1-2.6c0,0,2.2-0.6,2.4-0.8c0.3-0.3-0.4-6.9-0.4-6.9
									s0.9,0.3,1.4,1.4C27.4,13.7,28.1,18.2,27.5,20z"/>
							</g>
							<path class="st36" d="M23.7,18.1c0.2,0.8,0.2,1.7,0.2,2.5"/>
						</g>
					</g>
					<g>
						<g>
							<g>
								<polygon class="st12" points="20,19.7 19.9,19.7 18.8,19.6 19,18 19.7,18.2 19.9,18.3 20.1,18.3 20,19.6 								"/>
								<g>
									<path class="st12" d="M23.6,18.8L23.6,18.8c0,0.1-0.1,0.2-0.2,0.3c-0.1,0-0.1,0-0.1,0c0,0.1-0.1,0.1-0.1,0.2
										c-0.1,0.1-0.1,0.2-0.2,0.2c-0.1,0-0.2,0.1-0.3,0.1c0,0,0,0.1-0.1,0.1c-0.1,0.1-0.2,0.2-0.4,0.3c-0.3,0.1-0.6,0.1-1,0.1
										c-0.4-0.1-0.8-0.2-1.3-0.4c0,0,0,0-0.1,0c0-0.1,0-0.1,0-0.2c0-0.4,0-0.8,0.1-1.2c0,0,0,0,0,0c0.3-0.2,0.5-0.3,0.7-0.5
										c0.2-0.1,0.4-0.2,0.6-0.2c0.3,0,0.5,0,0.8-0.1c0.1,0,0.2,0.1,0.2,0.1c0,0.1,0,0.1-0.1,0.2c0.4,0.1,0.8,0.1,1.2,0.1
										c0.1,0,0.2,0.1,0.2,0.2v0c0,0.1-0.1,0.2-0.2,0.2c-0.4,0-0.8,0-1.2,0.1c0.4,0.1,0.9,0.1,1.3,0.1
										C23.5,18.6,23.6,18.7,23.6,18.8z"/>
									<g>
										<path class="st14" d="M22.1,17.9c-0.3,0-0.7,0-1,0C21.4,17.8,21.7,17.8,22.1,17.9z"/>
										<path class="st14" d="M23.2,19.1c-0.4,0.1-0.8,0.1-1.2,0.1C22.3,19.2,22.7,19.1,23.2,19.1z"/>
										<path class="st14" d="M22.6,19.6c-0.4,0.1-0.7,0.1-1.1,0.1C21.8,19.6,22.2,19.6,22.6,19.6z"/>
									</g>
								</g>
							</g>
							<path class="st15" d="M21.2,20.1c-0.4-0.1-0.8-0.2-1.3-0.4l-1.1-0.1L19,18l0.7,0.2c-0.1,0.3-0.2,0.6-0.1,0.9
								c0,0.2,0.1,0.4,0.2,0.4l0,0c0.1,0,0.1,0.1,0.2,0.1C20.4,19.8,20.8,20,21.2,20.1z"/>
						</g>
						<g>
							<path class="st27" d="M19.8,20.9c-0.2-0.8-0.2-2,0.1-2.9c-0.7-0.1-1.8-0.3-2.4-0.6c-0.4,0.2-0.8,0.6-1,1
								c-0.2,0.5-0.2,1,0.1,1.4c0.3,0.5,0.8,0.7,1.3,0.8C18.4,20.8,19.2,20.9,19.8,20.9z"/>
							<path class="st36" d="M19.4,18c-0.3,0.9-0.4,1.8-0.2,2.7"/>
						</g>
					</g>
				</g>
			</g>
		</g>
	</g>
</g>
</svg>
