<?xml version="1.0" encoding="utf-8"?>
<!-- Generator: Adobe Illustrator 24.3.0, SVG Export Plug-In . SVG Version: 6.00 Build 0)  -->
<svg version="1.1" id="Layer_1" xmlns="http://www.w3.org/2000/svg" xmlns:xlink="http://www.w3.org/1999/xlink" x="0px" y="0px"
	 viewBox="0 0 465.9 252" style="enable-background:new 0 0 465.9 252;" xml:space="preserve">
<style type="text/css">
	.st0{clip-path:url(#SVGID_2_);}
	.st1{fill:#E7A184;}
	.st2{fill:#F0E6D2;}
	.st3{fill:#BD5D5A;}
	.st4{opacity:0.27;fill:#010101;}
	.st5{fill:#E9B796;}
	.st6{opacity:0.31;fill:#010101;}
	.st7{fill:#ECCFB5;}
	.st8{fill:#2B2C6C;}
	.st9{fill:#46469D;}
	.st10{fill:#F2F1A0;}
	.st11{fill:#FEC97C;}
	.st12{fill:#F1EC6E;}
	.st13{fill:#FFFFFF;}
	.st14{opacity:0.65;fill:#FFFFFF;}
	.st15{fill:#B2D678;}
	.st16{fill:#26B677;}
	.st17{fill:#0C6A73;}
	.st18{fill:#1F2353;}
	.st19{fill:#ECF7F5;}
	.st20{fill:#C8E7DB;}
	.st21{fill:#48459C;}
	.st22{fill:#2A2C6A;}
	.st23{opacity:0.21;fill:#010101;}
	.st24{opacity:0.16;fill:#010101;}
	.st25{fill:#283981;}
	.st26{fill:#B1DDCC;}
	.st27{fill:#ECB7D0;}
	.st28{fill:#8A4040;}
	.st29{fill:#010101;}
	.st30{fill:#F8F29A;}
	.st31{fill:#F3A81D;}
	.st32{fill:#AE4F4F;}
	.st33{fill:#CC6969;}
	.st34{fill:#F99C35;}
	.st35{opacity:0.15;fill:#FFFFFF;}
	.st36{opacity:0.15;fill:#010101;}
</style>
<g>
	<defs>
		<rect id="SVGID_1_" x="0.3" y="0.1" width="464.3" height="252"/>
	</defs>
	<clipPath id="SVGID_2_">
		<use xlink:href="#SVGID_1_"  style="overflow:visible;"/>
	</clipPath>
	<g class="st0">
		<rect x="-5.5" y="-177.2" class="st1" width="476.8" height="476.8"/>
		<rect x="-5.5" y="-177.2" class="st2" width="476.8" height="308.5"/>
		<g>
			<rect x="-5.5" y="126.7" class="st3" width="476.8" height="7.6"/>
			<rect x="-5.5" y="131" class="st4" width="476.8" height="3.2"/>
		</g>
		<rect x="-5.5" y="160.2" class="st5" width="476.8" height="5.5"/>
		<rect x="-5.5" y="183.2" class="st5" width="476.8" height="5.5"/>
		<rect x="-5.5" y="209.1" class="st5" width="476.8" height="5.5"/>
		<rect x="-5.5" y="232.1" class="st5" width="476.8" height="5.5"/>
		<g>
			<path class="st6" d="M307.9-77.9L307.9-77.9c-0.1-12.8-3.9-25-11.4-36.3c-5.6-8.6-13.4-16.6-22.9-24
				c-15.8-12.1-31.5-18.2-32.2-18.5l-4.7-1.8l-4.7,1.9c-0.7,0.3-16.4,6.6-32.2,18.9c-9.6,7.4-17.3,15.5-22.9,24.1
				c-7.5,11.4-11.3,23.5-11.3,36.1c0,1.9,0.1,3.9,0.2,5.9v174.4h142.3l0-13.3L307.9-77.9z"/>
			<path class="st6" d="M433.5,102.7l0-10.2l-0.2-129.2v-0.1c-0.1-9.8-3-19.2-8.8-28c-4.4-6.6-10.3-12.8-17.7-18.5
				c-12.2-9.3-24.3-14-24.8-14.2l-3.6-1.4l-3.6,1.4c-0.5,0.2-12.6,5.1-24.8,14.5c-7.4,5.7-13.3,12-17.7,18.6
				c-5.8,8.8-8.7,18.2-8.7,27.9c0,1.5,0,3,0.1,4.5v134.6H433.5z"/>
			<path class="st6" d="M150.6-38.6L150.6-38.6L150.6-38.6c-0.1-9.8-3-19.3-8.8-28c-4.4-6.6-10.3-12.8-17.7-18.5
				c-12.2-9.3-24.3-14-24.8-14.2l-3.6-1.4l-3.6,1.4c-0.5,0.2-12.6,5.1-24.8,14.5c-7.4,5.7-13.3,12-17.7,18.6
				c-5.8,8.8-8.7,18.2-8.7,27.9c0,1.5,0,3,0.1,4.5v134.6h109.8l0-10.2L150.6-38.6z"/>
		</g>
		<path class="st7" d="M153.4-77.1c-0.2-2.3-0.2-4.6-0.2-6.8c0-13.6,4.4-26.8,13.1-39.3c6.7-9.6,16-18.8,27.6-27.3
			c19.4-14.1,38.5-21.5,39.3-21.8l3-1.1l3,1.1c0.8,0.3,19.9,7.3,39.3,21.3c11.6,8.3,20.8,17.5,27.6,27.1
			c8.7,12.4,13.1,25.7,13.2,39.5L319.4,22l0.2,104.6H153.4V-77.1z"/>
		<path class="st7" d="M311.6-34.9c-0.1-1.8-0.2-3.6-0.2-5.4c0-10.8,3.4-21.3,10.1-31.2c5.2-7.6,12.3-14.9,21.3-21.6
			c14.9-11.2,29.7-17,30.4-17.3l2.3-0.9l2.3,0.9c0.6,0.2,15.4,5.8,30.3,16.9c8.9,6.6,16.1,13.8,21.3,21.5
			c6.7,9.9,10.1,20.4,10.2,31.3l0.2,140.9l0,26.3H311.6V-34.9z"/>
		<path class="st7" d="M33.2-37.2C33-39,33-40.9,33-42.7c0-11,3.4-21.6,10.1-31.6c5.2-7.7,12.3-15.1,21.3-21.9
			c14.9-11.4,29.7-17.3,30.4-17.5l2.3-0.9l2.3,0.9c0.6,0.2,15.4,5.9,30.3,17.1c8.9,6.7,16.1,14,21.3,21.8
			c6.7,10,10.1,20.7,10.2,31.8l0.1,71.5l0.2,98.2H33.2V-37.2z"/>
		<path class="st8" d="M172.5-73.1c-0.1-1.8-0.2-3.7-0.2-5.5c0-10.9,3.4-21.5,10.1-31.5c5.2-7.7,12.3-15.1,21.2-21.9
			c14.9-11.3,29.7-17.2,30.3-17.5l2.3-0.9l2.3,0.9c0.6,0.2,15.3,5.9,30.2,17.1c8.9,6.7,16,14,21.2,21.7c6.7,10,10.1,20.6,10.2,31.7
			l0.1,85.4l0.1,83.9H172.5V-73.1z"/>
		<path class="st8" d="M327.2-34.3c-0.1-1.4-0.1-2.8-0.1-4.2c0-8.4,2.6-16.6,7.8-24.3c4-6,9.5-11.6,16.4-16.9
			c11.5-8.8,22.9-13.3,23.4-13.5l1.8-0.7l1.8,0.7c0.5,0.2,11.8,4.5,23.3,13.2c6.9,5.2,12.4,10.8,16.4,16.8
			c5.2,7.7,7.8,15.9,7.9,24.5l0.2,110l0,20.6h-98.7V-34.3z"/>
		<path class="st8" d="M47.5-36.2c-0.1-1.4-0.1-2.8-0.1-4.2c0-8.4,2.6-16.6,7.8-24.3c4-6,9.5-11.6,16.4-16.9
			C83-90.4,94.4-94.9,94.9-95.1l1.8-0.7l1.8,0.7c0.5,0.2,11.8,4.5,23.3,13.2c6.9,5.2,12.4,10.8,16.4,16.8c5.2,7.7,7.8,15.9,7.9,24.5
			l0.1,55l0.1,75.6H47.5V-36.2z"/>
		<path class="st9" d="M146.1,14.3l0.1,75.6H47.5V53.2C65.9,40.1,96.4,25,146.1,14.3z"/>
		<path class="st9" d="M300.3,6.4l0.1,83.9H172.5V9.4c17.2-2.7,36.4-5,57.6-6.5C255.8,1.1,279.1,2.6,300.3,6.4z"/>
		<path class="st9" d="M426,91.8h-98.7V12.9c42.8,12.9,75.2,35.6,98.7,58.3L426,91.8z"/>
		<path class="st3" d="M306.9,96.8l0-12.9l-0.3-162.8V-79c-0.1-12.3-3.9-24.2-11.3-35.2c-5.6-8.3-13.2-16.2-22.7-23.3
			c-15.6-11.7-31.2-17.7-31.8-18l-4.6-1.8l-4.6,1.8c-0.7,0.3-16.2,6.5-31.8,18.3c-9.5,7.2-17.1,15.1-22.7,23.4
			c-7.4,11.1-11.2,22.9-11.2,35.1c0,1.9,0.1,3.8,0.2,5.7V96.8H306.9z M294,83.9H178.9V-73.3c-0.1-1.7-0.2-3.5-0.2-5.3
			c0-42.2,57.5-64.9,57.5-64.9s57.2,21.7,57.5,64.6L294,83.9z"/>
		<path class="st3" d="M430.9,96.8l0-9.9l-0.2-125.6v0c-0.1-9.5-3-18.7-8.7-27.2c-4.3-6.4-10.2-12.5-17.5-18
			c-12.1-9.1-24-13.7-24.5-13.8l-3.6-1.4l-3.6,1.4c-0.5,0.2-12.5,5-24.6,14.1c-7.3,5.6-13.2,11.6-17.5,18.1
			c-5.7,8.5-8.6,17.7-8.6,27.1c0,1.5,0,2.9,0.1,4.4V96.8H430.9z M421,86.8h-88.8V-34.5c-0.1-1.3-0.1-2.7-0.1-4.1
			c0-32.6,44.4-50.1,44.4-50.1s44.1,16.7,44.4,49.8L421,86.8z"/>
		<path class="st3" d="M151.2,84.9L151-40.7v0l0,0c-0.1-9.5-3-18.7-8.7-27.2c-4.3-6.4-10.2-12.5-17.5-18
			c-12.1-9.1-24-13.7-24.5-13.9l-3.6-1.4l-3.6,1.4c-0.5,0.2-12.5,5-24.6,14.1C61.2-80,55.3-73.9,51-67.5c-5.7,8.5-8.6,17.7-8.6,27.1
			c0,1.5,0,2.9,0.1,4.4V94.9h108.7L151.2,84.9z M141.3,84.9H52.5V-36.4c-0.1-1.3-0.1-2.7-0.1-4.1c0-32.6,44.4-50.1,44.4-50.1
			s44.1,16.7,44.4,49.8L141.3,84.9z"/>
		<path class="st4" d="M146.2,89.9l-0.1-75.6l-0.1-55c-0.1-8.5-2.7-16.8-7.9-24.5c-4-6-9.5-11.6-16.4-16.8
			c-11.5-8.6-22.8-13-23.3-13.2l-1.8-0.7l-1.8,0.7c-0.5,0.2-11.9,4.7-23.4,13.5c-6.9,5.2-12.4,10.9-16.4,16.9
			C50-57,47.4-48.9,47.4-40.4c0,1.4,0,2.8,0.1,4.2V89.9H146.2z M96.7-90.5c0,0,44.1,16.7,44.4,49.8l0.2,125.6H52.5V-36.4
			c-0.1-1.3-0.1-2.7-0.1-4.1C52.3-73,96.7-90.5,96.7-90.5z"/>
		<path class="st4" d="M300.4,90.3l-0.1-83.9l-0.1-85.4c-0.1-11.1-3.5-21.7-10.2-31.7c-5.2-7.7-12.3-15-21.2-21.7
			c-14.9-11.2-29.6-16.8-30.2-17.1l-2.3-0.9l-2.3,0.9c-0.6,0.2-15.4,6.1-30.3,17.5c-8.9,6.8-16.1,14.1-21.2,21.9
			c-6.7,10-10.1,20.6-10.1,31.5c0,1.8,0.1,3.7,0.2,5.5V90.3H300.4z M236.2-143.4c0,0,57.2,21.7,57.5,64.6L294,83.9H178.9V-73.3
			c-0.1-1.7-0.2-3.5-0.2-5.3C178.7-120.8,236.2-143.4,236.2-143.4z"/>
		<path class="st4" d="M300.4,90.3l-0.1-83.9l-0.1-85.4c-0.1-11.1-3.5-21.7-10.2-31.7c-5.2-7.7-12.3-15-21.2-21.7
			c-14.9-11.2-29.6-16.8-30.2-17.1l-2.3-0.9l-2.3,0.9c-0.6,0.2-15.4,6.1-30.3,17.5c-8.9,6.8-16.1,14.1-21.2,21.9
			c-6.7,10-10.1,20.6-10.1,31.5c0,1.8,0.1,3.7,0.2,5.5V90.3H300.4z M236.2-143.4c0,0,57.2,21.7,57.5,64.6L294,83.9H178.9V-73.3
			c-0.1-1.7-0.2-3.5-0.2-5.3C178.7-120.8,236.2-143.4,236.2-143.4z"/>
		<path class="st4" d="M426,91.8l0-20.6l-0.2-110c-0.1-8.5-2.7-16.8-7.9-24.5c-4-6-9.5-11.6-16.4-16.8c-11.5-8.6-22.8-13-23.3-13.2
			l-1.8-0.7l-1.8,0.7c-0.5,0.2-11.9,4.7-23.4,13.5c-6.9,5.2-12.4,10.9-16.4,16.9c-5.2,7.7-7.8,15.9-7.8,24.3c0,1.4,0,2.8,0.1,4.2
			V91.8H426z M376.4-88.6c0,0,44.1,16.7,44.4,49.8L421,86.8h-88.8V-34.5c-0.1-1.3-0.1-2.7-0.1-4.1C332.1-71.1,376.4-88.6,376.4-88.6
			z"/>
		<g>
			<g>
				<ellipse class="st2" cx="237.2" cy="204.2" rx="221.1" ry="50.7"/>
			</g>
			<g>
				<ellipse class="st7" cx="237.2" cy="203.4" rx="204.6" ry="42.2"/>
			</g>
			<g>
				<path class="st2" d="M237.2,227.9c-12.9,0-25.5-0.6-37.3-1.8c-11.4-1.2-21.7-2.8-30.6-5c-9-2.2-16-4.7-21-7.5
					c-2.6-1.5-4.7-3.1-6-4.7c-1.5-1.8-2.2-3.6-2.2-5.4c0-1.8,0.8-3.7,2.2-5.4c1.4-1.6,3.4-3.2,6-4.7c5-2.8,12-5.4,21-7.5
					c8.8-2.1,19.1-3.8,30.6-5c11.8-1.2,24.3-1.8,37.3-1.8s25.5,0.6,37.3,1.8c11.4,1.2,21.7,2.8,30.6,5c9,2.2,16,4.7,21,7.5
					c2.6,1.5,4.7,3.1,6,4.7c1.5,1.8,2.2,3.6,2.2,5.4c0,1.8-0.8,3.7-2.2,5.4c-1.4,1.6-3.4,3.2-6,4.7c-5,2.8-12,5.4-21,7.5
					c-8.8,2.1-19.1,3.8-30.6,5C262.7,227.3,250.1,227.9,237.2,227.9z M237.2,182.2c-25.2,0-48.8,2.4-66.5,6.6
					c-8.5,2-15.1,4.4-19.7,7c-4.4,2.5-6.7,5.1-6.7,7.7c0,2.6,2.2,5.2,6.7,7.7c4.6,2.6,11.2,5,19.7,7c17.7,4.3,41.4,6.6,66.5,6.6
					c25.2,0,48.8-2.4,66.5-6.6c8.5-2,15.1-4.4,19.7-7c4.4-2.5,6.7-5.1,6.7-7.7c0-2.6-2.2-5.2-6.7-7.7c-4.6-2.6-11.2-5-19.7-7
					C286,184.5,262.4,182.2,237.2,182.2z"/>
			</g>
			<g>
				<ellipse class="st2" cx="237.2" cy="203.7" rx="52.7" ry="13"/>
			</g>
			<g>
				<path class="st2" d="M236.1,240.6c-26.3,0-51.8-1-75.8-2.9c-23.2-1.8-44.1-4.5-62-7.8c-18-3.4-32.2-7.3-42.2-11.7
					c-10.8-4.8-16.3-9.9-16.3-15.4c0-5.5,5.5-10.7,16.3-15.4c10-4.4,24.1-8.3,42.2-11.7c17.9-3.3,38.8-6,62-7.8
					c24-1.9,49.5-2.9,75.8-2.9s51.8,1,75.8,2.9c23.2,1.8,44.1,4.5,62,7.8c18,3.4,32.2,7.3,42.2,11.7c10.8,4.8,16.3,9.9,16.3,15.4
					c0,5.5-5.5,10.7-16.3,15.4c-10,4.4-24.1,8.3-42.2,11.7c-17.9,3.3-38.8,6-62,7.8C287.9,239.7,262.4,240.6,236.1,240.6z
					 M236.1,168.2c-51.7,0-100.3,3.7-136.8,10.6c-17.6,3.3-31.4,7.1-41.1,11.3c-4.7,2.1-8.4,4.3-10.8,6.4c-2.3,2.1-3.5,4.2-3.5,6.3
					c0,2.1,1.2,4.2,3.5,6.3c2.4,2.2,6,4.4,10.8,6.4c9.6,4.2,23.4,8,41.1,11.3c36.5,6.8,85.1,10.6,136.8,10.6s100.3-3.7,136.8-10.6
					c17.6-3.3,31.4-7.1,41.1-11.3c4.7-2.1,8.4-4.3,10.8-6.4c2.3-2.1,3.5-4.2,3.5-6.3c0-2.1-1.2-4.2-3.5-6.3c-2.4-2.2-6-4.4-10.8-6.4
					c-9.6-4.2-23.4-8-41.1-11.3C336.4,172,287.8,168.2,236.1,168.2z"/>
			</g>
		</g>
		<g>
			<polygon class="st10" points="117.6,-7.3 118.7,-3.8 115.8,-6 112.9,-3.8 112.9,-3.8 114,-7.3 111.1,-9.4 111.1,-9.4 114.7,-9.4 
				115.8,-12.8 115.8,-12.8 115.8,-12.8 115.8,-12.8 116.9,-9.4 120.5,-9.4 			"/>
			<polygon class="st11" points="120.5,-9.4 115.8,-7.9 117.6,-7.3 			"/>
			<polygon class="st11" points="115.8,-7.9 118.7,-3.8 115.8,-6 			"/>
			<polygon class="st11" points="112.9,-3.8 115.8,-7.9 114,-7.3 			"/>
			<polygon class="st11" points="115.8,-7.9 115.8,-12.8 116.9,-9.4 			"/>
			<polygon class="st11" points="111.1,-9.4 115.8,-7.9 114.7,-9.4 			"/>
		</g>
		<g>
			<polygon class="st10" points="85.3,20.8 86.4,24.3 83.5,22.2 80.6,24.3 80.6,24.3 81.7,20.8 78.8,18.7 78.8,18.7 82.4,18.7 
				83.5,15.3 83.5,15.3 83.5,15.3 83.5,15.3 84.6,18.7 88.2,18.7 			"/>
			<polygon class="st11" points="88.2,18.7 83.5,20.2 85.3,20.8 			"/>
			<polygon class="st11" points="83.5,20.2 86.4,24.3 83.5,22.2 			"/>
			<polygon class="st11" points="80.6,24.3 83.5,20.2 81.7,20.8 			"/>
			<polygon class="st11" points="83.5,20.2 83.5,15.3 84.6,18.7 			"/>
			<polygon class="st11" points="78.8,18.7 83.5,20.2 82.4,18.7 			"/>
		</g>
		<g>
			<polygon class="st10" points="263.8,55.9 264.9,59.3 262,57.2 259.1,59.3 259.1,59.3 260.2,55.9 257.3,53.8 257.3,53.8 
				260.9,53.8 262,50.4 262,50.3 262,50.3 262,50.3 263.1,53.8 266.7,53.8 			"/>
			<polygon class="st12" points="266.7,53.8 262,55.3 263.8,55.9 			"/>
			<polygon class="st12" points="262,55.3 264.9,59.3 262,57.2 			"/>
			<polygon class="st12" points="259.1,59.3 262,55.3 260.2,55.9 			"/>
			<polygon class="st12" points="262,55.3 262,50.4 263.1,53.8 			"/>
			<polygon class="st12" points="257.3,53.8 262,55.3 260.9,53.8 			"/>
		</g>
		<g>
			<polygon class="st10" points="368.5,-47.7 369.6,-44.3 366.7,-46.4 363.8,-44.3 363.8,-44.3 364.9,-47.7 362,-49.8 362,-49.8 
				365.6,-49.8 366.7,-53.2 366.7,-53.2 366.7,-53.2 366.7,-53.2 367.8,-49.8 371.4,-49.8 			"/>
			<polygon class="st12" points="371.4,-49.8 366.7,-48.3 368.5,-47.7 			"/>
			<polygon class="st12" points="366.7,-48.3 369.6,-44.2 366.7,-46.4 			"/>
			<polygon class="st12" points="363.8,-44.2 366.7,-48.3 364.9,-47.7 			"/>
			<polygon class="st12" points="366.7,-48.3 366.7,-53.2 367.8,-49.8 			"/>
			<polygon class="st12" points="362,-49.8 366.7,-48.3 365.6,-49.8 			"/>
		</g>
		<circle class="st13" cx="117.5" cy="11.2" r="0.7"/>
		<path class="st13" d="M68.6,66.9c0,0.8-0.6,1.4-1.4,1.4s-1.4-0.6-1.4-1.4c0-0.8,0.6-1.4,1.4-1.4S68.6,66.2,68.6,66.9z"/>
		<path class="st13" d="M63.6-37.8c0,0.3-0.3,0.6-0.6,0.6c-0.3,0-0.6-0.3-0.6-0.6c0-0.3,0.3-0.6,0.6-0.6
			C63.3-38.4,63.6-38.1,63.6-37.8z"/>
		<path class="st13" d="M102.7,30.8c0,0.7-0.6,1.3-1.3,1.3c-0.7,0-1.3-0.6-1.3-1.3c0-0.7,0.6-1.3,1.3-1.3
			C102.2,29.6,102.7,30.1,102.7,30.8z"/>
		<ellipse transform="matrix(0.9246 -0.3809 0.3809 0.9246 6.19 24.9202)" class="st13" cx="66" cy="-3.2" rx="1.8" ry="1.8"/>
		<circle class="st13" cx="192.5" cy="65.7" r="1.3"/>
		<circle class="st13" cx="199.4" cy="-36.6" r="1.8"/>
		<circle class="st13" cx="252.1" cy="-18.5" r="1.6"/>
		
			<ellipse transform="matrix(0.2298 -0.9732 0.9732 0.2298 231.1233 267.717)" class="st13" cx="284.7" cy="-12.2" rx="1.8" ry="1.8"/>
		<circle class="st13" cx="231.5" cy="26.3" r="1.4"/>
		<path class="st13" d="M346.6,4.7c0,0.4-0.3,0.7-0.7,0.7s-0.7-0.3-0.7-0.7s0.3-0.7,0.7-0.7S346.6,4.3,346.6,4.7z"/>
		<circle class="st13" cx="403.9" cy="-35.7" r="1.6"/>
		<circle class="st13" cx="401.3" cy="6.4" r="2"/>
		<path class="st13" d="M369.9,45.9c0,0.9-0.7,1.6-1.6,1.6s-1.6-0.7-1.6-1.6c0-0.9,0.7-1.6,1.6-1.6S369.9,45,369.9,45.9z"/>
		<path class="st13" d="M375-17.8c0,0.5-0.4,0.9-0.9,0.9c-0.5,0-0.9-0.4-0.9-0.9c0-0.5,0.4-0.9,0.9-0.9
			C374.6-18.7,375-18.3,375-17.8z"/>
		<path class="st14" d="M251.1-46.7c0,0-40.2,39.8-37.6,42.2C215.9-2.2,251.1-46.7,251.1-46.7z"/>
		<path class="st14" d="M393.5,5.6c0,0-23.2,23-21.8,24.4S393.5,5.6,393.5,5.6z"/>
		<path class="st14" d="M99.4,41.6c0,0-23.2,23-21.8,24.4C79.1,67.4,99.4,41.6,99.4,41.6z"/>
		<path class="st15" d="M179,21.8c0.3-0.2,0.3-0.7,0.4-1c0.1-0.9,0.5-1.7,0.9-2.4c0.2-0.4,0.4-0.7,0.7-1.1c0.8-0.9,2.1-1.2,3.3-1.5
			c0,0,0.1,0,0.1,0c0,0,0,0.1,0,0.1c0,0.3-0.1,0.6-0.2,0.9c-0.2,0.7-0.4,1.4-0.7,2c-0.3,0.6-0.8,1.2-1.4,1.5
			c-0.3,0.1-0.6,0.2-0.8,0.3c-0.6,0.2-1.2,0.3-1.9,0.5"/>
		<path class="st16" d="M161.5,79.3c-0.3-0.9-1.3-1.4-2.1-2c-1.3-0.9-2.2-2.2-2.7-3.7c-0.5-1.5-0.4-3.1,0.1-4.6
			c0.1-0.2,0.2-0.4,0.4-0.4c0.1,0,0.2,0.1,0.2,0.2c0.2,0.4,0.4,0.7,0.7,1c0.4,0.4,0.9,0.7,1.2,1.2c0.9,1.2,0.7,2.9,0.9,4.4
			c0.1,1.1,0.5,2.2,1.1,3.1"/>
		<g>
			<g>
				<path class="st17" d="M169.9,86.9c-1.5,0-2.8-0.3-4-0.8c-2.7-1.3-4.3-4.1-4.9-8.3c-0.5-3.6,0-6,1.8-7.7c1.5-1.5,3.7-2.1,6-2.8
					c4.4-1.3,9-2.6,9.5-10.2c0-0.2,0.2-0.3,0.4-0.3c0.2,0,0.3,0.2,0.3,0.4c-0.5,8-5.6,9.5-10,10.8c-4.5,1.3-8.3,2.4-7.3,9.7
					c0.6,3.9,2.1,6.5,4.6,7.7c5,2.4,12.4-1.8,12.5-1.8c0.2-0.1,0.4,0,0.5,0.1c0.1,0.2,0,0.4-0.1,0.5c-0.1,0-1.9,1.1-4.5,1.9
					C172.9,86.6,171.3,86.9,169.9,86.9z"/>
			</g>
			<g>
				<path class="st17" d="M165.8,44.3c-0.2,0-0.3-0.1-0.3-0.2c-0.1-0.2-1.2-4.3,6.7-9.7c3.9-2.7,5.5-7.2,6.2-10.5
					c0.7-3.6,0.5-6.6,0.5-6.6c0-0.2,0.1-0.4,0.3-0.4c0.2,0,0.4,0.1,0.4,0.3c0,0.1,0.2,3.1-0.5,6.8c-0.4,2.2-1.1,4.1-2,5.8
					c-1.1,2.1-2.6,3.9-4.4,5.1c-7.5,5.2-6.4,8.9-6.4,9c0.1,0.2,0,0.4-0.2,0.4C165.8,44.3,165.8,44.3,165.8,44.3z"/>
			</g>
			<g>
				<path class="st17" d="M165.8,18.6c-0.2,0-0.3-0.1-0.3-0.3c0-0.1-0.2-2.6,0.5-6c0.7-3.1,2.2-7.5,5.9-11c3.5-3.4,5.1-8.7,5.8-12.5
					c0.8-4.2,0.7-7.6,0.7-7.7c0-0.2,0.1-0.4,0.3-0.4c0.2,0,0.4,0.1,0.4,0.3c0,0,0.1,3.5-0.7,7.8c-0.5,2.5-1.1,4.8-2,6.8
					c-1.1,2.5-2.4,4.6-4.1,6.1c-3.5,3.4-5,7.6-5.7,10.6c-0.7,3.3-0.5,5.8-0.5,5.8C166.2,18.4,166.1,18.6,165.8,18.6
					C165.9,18.6,165.9,18.6,165.8,18.6z"/>
			</g>
			<path class="st15" d="M178.6-83.1c-0.3-1-0.5-2-0.7-3c-0.1-0.9-0.2-1.8,0-2.7c0.3-1.6,1.3-3,2.4-4.2c1.5,3.1,1,7.1-1.3,9.7"/>
			<path class="st15" d="M177.6-72.3c0-0.4-0.2-0.8-0.4-1.1c-1.1-1.6-3-2.6-4-4.2c-0.9-1.4-1.1-3.2-0.9-4.9c1.1,0.3,2.3,0.7,3.3,1.3
				c0.5,0.3,0.9,0.6,1.2,1c0.4,0.5,0.6,1.1,0.7,1.8c0.4,1.8,0.3,3.7,0.2,5.6"/>
			<path class="st15" d="M177.9-72.1c0.4-2.3,1.7-4.3,3.6-5.7c1.2-0.9,2.7-1.5,4.1-1c-0.2,0.8-0.4,1.7-0.7,2.5
				c-0.3,0.8-0.8,1.6-1.5,2c-0.6,0.4-1.3,0.6-2,0.8c-1.1,0.3-2.1,0.5-3.2,0.6"/>
			<path class="st16" d="M172.3-66.2c0.1-0.6,0.1-1.1-0.1-1.7c-0.1-0.3-0.3-0.6-0.5-0.9c-0.6-0.9-1.1-2-1-3.1c0-1,0.5-2,1-2.9
				c1.2,1.1,2,2.6,2.2,4.2c0.2,1.6-0.4,3.3-1.5,4.5"/>
			<path class="st16" d="M169.3-62.8c1.5-1.4,3.4-2.2,5.4-2.4c0.4,0,0.7,0,1.1,0c0.3,0.1,0.6,0.2,0.9,0.3c0.8,0.3,1.6,0.7,2.3,1.1
				c0,0,0,0,0.1,0c0,0.1,0,0.1-0.1,0.2c-0.4,0.2-0.7,0.4-1.1,0.6c-0.9,0.4-1.8,0.9-2.7,1.1c-0.9,0.3-1.9,0.4-2.9,0.3
				c-1.1-0.2-2.1-0.7-3-1.2"/>
			<path class="st15" d="M166.2-56.1c0.2-0.6,0.1-1.2-0.2-1.8c-0.3-0.5-0.7-0.9-1.1-1.3c-0.8-0.8-1.4-1.6-1.9-2.6
				c-0.4-1-0.5-2.1-0.1-3.1c0.5,0.2,1,0.4,1.6,0.7c0.6,0.3,1.2,0.5,1.6,1c0.3,0.4,0.5,1,0.6,1.5c0.2,1.2,0,2.5-0.1,3.7
				c-0.1,0.6-0.1,1.2-0.2,1.9"/>
			<path class="st15" d="M166.1-55c0.1-0.4,0.5-0.8,0.8-1.2c0.6-0.7,1.3-1.4,2.1-1.8c0.4-0.2,0.8-0.2,1.2-0.3c1-0.1,2.1-0.3,3.1,0
				c0,0,0.1,0,0.1,0.1c0,0,0,0.1,0,0.1c-0.6,0.9-1.2,1.7-2.1,2.2c-0.8,0.4-1.7,0.6-2.7,0.6c-0.9,0-1.8,0-2.7,0.2"/>
			<g>
				<path class="st17" d="M166-54.6C166-54.6,166-54.6,166-54.6c-0.2,0-0.4-0.2-0.3-0.4c0-0.1,0-1.8,1-4.2c0.9-2.2,2.7-5.3,6.6-8
					c3.7-2.5,4.9-6.8,5.3-9.9c0.4-3.4-0.1-6.3-0.1-6.3c0-0.2,0.1-0.4,0.3-0.4c0.2,0,0.4,0.1,0.4,0.3c0,0.1,0.5,3,0.1,6.5
					c-0.2,2.1-0.8,3.9-1.5,5.6c-1,2-2.3,3.7-4.1,4.8c-3.7,2.6-5.5,5.6-6.3,7.7c-0.9,2.2-0.9,3.9-0.9,3.9
					C166.4-54.8,166.2-54.6,166-54.6z"/>
			</g>
			<path class="st15" d="M178.8-50.7c-0.5-1.8-0.8-3.6-0.8-5.4c0-0.5,0-1,0.1-1.5c0.4-1.6,1.8-2.7,3.2-3.5c0.7,1.6,0.5,3.4,0.2,5.2
				c-0.4,2-1,4-2.5,5.3"/>
			<path class="st16" d="M176.8-39.9c-0.3-1-1.4-1.7-2.2-2.4c-1-0.9-1.8-2-2.2-3.3c-0.4-1.3-0.4-2.7,0.2-4c0-0.1,0.1-0.2,0.2-0.2
				c0.1,0,0.1,0,0.2,0.1C175.9-47.5,177.4-43.6,176.8-39.9"/>
			<path class="st15" d="M176.9-39.9c0.6-2.2,2.4-3.8,4.2-5.3c0.6-0.5,1.2-1,1.9-1.3c1-0.5,2.1-0.7,3.2-0.5
				c-0.3,0.8-0.6,1.6-0.9,2.4c-0.3,0.8-0.7,1.6-1.3,2.3c-0.6,0.6-1.3,1-2.1,1.4c-1,0.4-2,0.7-3,0.7c-0.7,0.1-1.4,0-2.1,0.2"/>
			<path class="st15" d="M171.6-31.7c0-0.7-0.3-1.5-0.7-2.1c-0.4-0.6-0.9-1.2-1.3-1.8c-1.2-2-1-4.8,0.4-6.7c0,0,0.1-0.1,0.1-0.1
				c0,0,0.1,0,0.1,0.1c1.7,1.2,2.8,3.1,3,5.1c0.2,2-0.5,4.1-1.9,5.6"/>
			<path class="st16" d="M168.9-27.3c2-1.8,4.4-3.4,7.1-3.9c1.8-0.3,3.7-0.2,5.4,0.4c0.1,0,0.1,0,0.1,0.1c0,0.1,0,0.1-0.1,0.2
				c-0.8,1.3-2.2,2.1-3.7,2.5s-3,0.5-4.5,0.5c-1.5,0-3,0.1-4.5,0.4"/>
			<path class="st15" d="M166.4-20.5c-0.7-1.8-1.9-3.4-2.5-5.3c-0.9-2.8-0.1-6,1.9-8.1c0.9,1.7,1.9,3.4,1.9,5.3
				c0.1,2.6-1.6,5-1.4,7.6"/>
			<path class="st16" d="M165.8-14.7c0.5-2.1,1.7-4.1,3.4-5.5c1.7-1.4,3.9-2.2,6.1-1.9c0.1,0,0.2,0,0.2,0.1c0,0,0,0.1,0,0.2
				c0,1.4-0.5,2.9-1.4,4c-0.9,1.1-2.2,1.9-3.6,2.3c-1.2,0.3-2.6,0.2-3.8,0.7c-0.4,0.2-0.8,0.6-1.2,0.7c-0.5,0.2-1.2-0.2-1.6-0.4
				c-0.6-0.2-1.1-0.5-1.5-1c-0.3-0.3-0.4-0.7-0.6-1.1c-0.3-0.7-0.5-1.5-0.3-2.2c0.6,0.4,1.3,0.8,1.9,1.2c0.4,0.2,0.7,0.5,1,0.8
				c0.3,0.4,0.6,0.8,0.8,1.2c0.3,0.5,0.5,1.1,0.7,1.6"/>
			<g>
				<path class="st17" d="M165.8-14c-0.2,0-0.3-0.1-0.3-0.3c0-0.1-0.1-2.8,0.7-6.5c0.7-3.4,2.3-8.1,5.9-11.8
					c3.5-3.5,5.1-8.4,5.8-11.9c0.8-3.8,0.8-6.7,0.8-6.8c0-0.2,0.2-0.4,0.3-0.4c0.2,0,0.4,0.2,0.4,0.3c0,0.1,0,3.1-0.8,6.9
					c-0.7,3.6-2.4,8.6-6,12.2c-3.5,3.5-5,8.2-5.7,11.4c-0.7,3.5-0.7,6.3-0.7,6.3C166.2-14.1,166.1-14,165.8-14
					C165.9-14,165.9-14,165.8-14z"/>
			</g>
			<path class="st15" d="M178.6-18.6c-0.5-0.9-0.9-1.9-1-2.9c-0.1-1,0-2.1,0.7-2.9c0.3-0.4,0.7-0.7,1.1-1c0.5,1.1,0.7,2.3,0.6,3.5
				c-0.1,1.2-0.6,2.3-1.1,3.3"/>
			<path class="st16" d="M177.7-9.7c0.1-0.2,0.1-0.5,0-0.7c-0.1-0.2-0.3-0.4-0.4-0.6c-0.6-0.7-1.3-1.2-1.8-2c-1-1.5-1.1-3.5-0.3-5.1
				c1.1,0.8,1.8,2.1,2.2,3.4s0.4,2.7,0.4,4.1"/>
			<path class="st15" d="M177-6.9c0.1-1,0.5-1.9,1-2.8c0.7-1.4,1.5-2.7,2.7-3.7c1.2-1,2.6-1.7,4.2-1.7c0.1,0,0.1,0,0.1,0
				c0.1,0.1,0.1,0.2,0.1,0.3c-0.2,1.1-0.4,2.2-0.9,3.2c-0.5,1-1.2,1.9-2.2,2.4c-0.5,0.3-1.1,0.4-1.7,0.5c-0.9,0.2-1.9,0.3-2.8,0.4"
				/>
			<path class="st15" d="M175.1-2.5c0.2-1-0.1-2-0.7-2.8s-1.3-1.5-1.9-2.3c-0.6-0.8-1.1-1.7-1.4-2.7s-0.2-2.1,0.2-3
				c1.1,1.1,2.8,1.5,3.8,2.7c0.7,0.8,1,1.9,1,2.9c0.1,1-0.1,2.1-0.3,3.1c-0.1,0.4-0.2,0.9-0.4,1.2"/>
			<path class="st16" d="M172.8,1.2c2.2-2.2,5.3-3.6,8.4-3.7c0.7,0,1.5,0,2.1,0.4c0.1,0,0.1,0.1,0.1,0.2c0,0.1,0,0.1,0,0.2
				c-0.5,0.9-1.1,1.7-2,2.2c-0.6,0.3-1.2,0.4-1.9,0.5c-1.7,0.2-3.5,0.3-5.2,0.1c-0.6,0-1.1-0.1-1.7-0.1"/>
			<path class="st16" d="M167.9,7.3c0.2-0.7,0-1.4-0.4-1.9c-0.4-0.6-0.8-1.1-1.3-1.6c-0.9-1.1-1.4-2.5-1.3-4
				c0.1-0.7,0.3-1.4,0.6-2.1c0.5-1.2,1.1-2.4,2.1-3.2c0,0,0.1,0,0.1,0c0,0,0,0,0.1,0.1c0.4,0.8,0.9,1.6,1.3,2.4
				c0.3,0.6,0.6,1.2,0.7,1.8c0.1,0.8,0.1,1.6-0.1,2.3c-0.3,1.9-0.9,3.8-1.5,5.6"/>
			<path class="st15" d="M166.1,13.4c0.4-0.8,1-1.4,1.5-2.1c0.7-0.9,1.5-1.7,2.3-2.5c0.9-0.7,1.8-1.4,2.9-1.7
				c0.8-0.2,1.6-0.3,2.4-0.3c0.6,0,1.2,0,1.8,0c0.2,0,0.5,0,0.7,0.1c0.1,0,0.1,0,0.1,0.1c0,0,0,0.1,0,0.1c0,1.5-0.9,2.9-2.2,3.7
				c-1.3,0.8-2.8,1.1-4.3,1.3c-1.7,0.2-3.5,0.2-5,0.8"/>
			<path class="st15" d="M165.6,17.9c-0.4-0.7-1.2-1.1-1.9-1.6c-1.2-0.8-2.1-2-2.6-3.3c-0.5-1.3-0.6-2.8-0.2-4.2
				c0.8,0.7,2.1,0.8,2.9,1.4c0.3,0.3,0.6,0.6,0.8,0.9c0.6,0.9,0.9,2.1,1,3.2c0.1,1.1,0.1,2.2,0,3.3"/>
			<path class="st16" d="M165.5,43.9c-0.4-0.3-0.8-0.6-1.2-1c-0.3-0.2-0.5-0.4-0.7-0.7c-0.3-0.5-0.4-1.1-0.5-1.6
				c-0.1-0.7-0.1-1.5,0.1-2.2c0.9,0.5,1.5,1.3,1.9,2.2c0.4,0.9,0.5,2,0.4,3"/>
			<path class="st15" d="M179,17.4c-0.2-1-0.7-1.8-0.9-2.8c-0.2-0.9-0.2-1.9,0.2-2.8c0.3-0.9,1-1.7,1.8-2.1c0.1,0.2,0.2,0.5,0.2,0.8
				c0.3,1,0.5,2,0.4,3c-0.1,0.6-0.3,1.2-0.5,1.8c-0.3,0.7-0.6,1.5-1.1,2.1"/>
			<path class="st16" d="M178.5,23.7c0.1-0.2,0-0.5-0.1-0.6s-0.4-0.3-0.6-0.4c-0.7-0.4-1.4-0.8-2-1.2c-0.3-0.2-0.7-0.4-1-0.7
				c-0.4-0.4-0.6-1-0.8-1.5c-0.2-0.5-0.3-0.9-0.3-1.4c0-0.5,0.1-1,0.5-1.3c0,0,0,0,0.1,0c0,0,0,0,0.1,0c0.5,0.5,0.9,1,1.4,1.3
				c0.3,0.2,0.7,0.3,1,0.5c0.9,0.6,1.2,1.7,1.5,2.7c0.2,0.7,0.4,1.4,0.6,2.1"/>
			<path class="st16" d="M177.5,28c0.6-1,1.4-1.9,2.4-2.7c1.4-1.1,3.2-1.8,4.9-1.7c0.1,0,0.1,0,0.2,0.1c0,0,0,0.1,0,0.1
				c-0.2,0.4-0.4,0.8-0.7,1.1c-0.3,0.4-0.6,0.9-1,1.2c-0.7,0.6-1.6,1-2.5,1.1c-0.9,0.2-1.9,0.2-2.8,0.2"/>
			<path class="st15" d="M175.6,31.2c-0.1-0.5-0.6-0.9-1-1.2c-0.6-0.5-1.1-1-1.6-1.6c-0.2-0.3-0.4-0.7-0.6-1
				c-0.1-0.3-0.2-0.7-0.2-1.1c0-0.8,0.4-1.6,0.8-2.3c0.5,0.7,1.4,1,2,1.7c0.5,0.6,0.6,1.5,0.6,2.3c0,1-0.1,2,0.1,3"/>
			<path class="st16" d="M173.8,33.5c0.8-0.7,1.6-1.2,2.6-1.5c1.1-0.3,2.2-0.3,3.3-0.3c0.4,0,0.7,0,1.1,0.1c0.3,0.1,0.5,0.2,0.8,0.3
				c0.3,0.2,0.6,0.3,0.9,0.6c0,0,0.1,0.1,0.1,0.1c0,0.1,0,0.2-0.1,0.2c-0.9,0.9-2.2,1.4-3.5,1.4c-1.3,0.1-2.6-0.3-3.7-0.8
				c-0.4-0.2-0.8-0.4-1.2-0.5"/>
			<path class="st15" d="M169.2,36.9c0.2-0.9-0.2-1.8-0.5-2.7c-0.4-0.9-0.8-1.8-0.6-2.7c0.1-0.3,0.2-0.7,0.4-1
				c0.3-0.7,0.7-1.3,1.2-1.8c0.7,0.8,1.4,1.6,1.5,2.7c0.1,0.6,0,1.2-0.1,1.7c-0.2,1.3-0.7,2.6-1.7,3.5"/>
			<path class="st16" d="M167.2,39.7c0.7-0.9,1.7-1.5,2.8-1.9c1.1-0.4,2.2-0.6,3.4-0.6c0.5,0,1,0,1.5,0.1c0.3,0.1,0.6,0.2,0.9,0.4
				c0.2,0.1,0.5,0.2,0.7,0.3c0,0,0,0,0.1,0c0,0,0,0.1,0,0.1c-0.3,0.6-1,1-1.6,1.2c-0.6,0.2-1.3,0.3-2,0.4c-0.7,0.1-1.3,0.1-2,0
				c-0.6-0.1-1.2-0.3-1.8-0.4c-0.6-0.1-1.3-0.2-1.9-0.1"/>
			<path class="st16" d="M178.1,59.3c0-1.4-0.2-2.9-0.3-4.3c-0.1-1.4-0.1-2.9,0.4-4.3c0.4-1.4,1.3-2.7,2.5-3.4
				c0.1,0.9,0.2,1.9,0.3,2.8c0.1,0.6,0.1,1.3,0.1,1.9c0,1-0.3,2-0.6,3c-0.5,1.4-1.1,2.8-2.1,3.9"/>
			<path class="st16" d="M172.6,66.3c0.5-0.7,0.8-1.6,0.7-2.5c-0.1-0.9-0.5-1.8-0.6-2.7c-0.3-1.6,0.3-3.3,1.4-4.4
				c0.7,1.1,1.4,2.2,1.4,3.5c0,0.6-0.1,1.2-0.3,1.7c-0.5,1.6-1.4,3.1-2.5,4.2"/>
			<path class="st15" d="M175.9,64.3c1.2-1.4,2.8-2.4,4.6-2.8c0.6-0.1,1.2-0.2,1.7-0.1c0.5,0.1,1.1,0.3,1.6,0.5
				c0.1,0,0.2,0.1,0.3,0.2c0.1,0.1,0.1,0.2,0,0.3c-0.1,0.6-0.5,1.1-1,1.5c-1.5,1.2-3.7,1.5-5.5,0.8c-0.5-0.2-0.9-0.4-1.4-0.5"/>
			<path class="st15" d="M169.7,67.5c0.4-0.2,0.9-0.3,1.4-0.4c1.7-0.2,3.4-0.2,5.1,0.2c1.6,0.5,3.2,1.4,4.3,2.7
				c-1.2,0.4-2.4,0.7-3.6,0.8c-0.5,0-1.1,0-1.6-0.1c-0.6-0.1-1.1-0.4-1.6-0.7c-1.3-0.8-2.4-1.8-3.6-2.9"/>
			<path class="st15" d="M163.4,69.8c0.5-0.4,0.8-0.9,1.1-1.5c0.3-0.8,0.4-1.7,0.7-2.5c0.7-2.1,2.8-3.6,4.9-3.8
				c-0.1,2.3-1.5,4.6-3.5,5.7c-0.8,0.5-1.7,0.8-2.3,1.5"/>
			<path class="st15" d="M161.2,76.2c0.6-2.4,2.7-4.2,5.1-4.7c1-0.2,2.1-0.3,3.1,0.1c0.1,0,0.2,0.1,0.2,0.1c0,0.1,0,0.1,0,0.2
				c-0.4,1.1-1.3,2-2.3,2.6s-2.2,0.9-3.4,1c-0.9,0.1-1.8,0-2.6,0.4"/>
			<path class="st16" d="M164.3,84.5c-0.1-0.7-0.3-1.5-0.4-2.2c-0.1-0.5-0.2-1.1-0.2-1.6c0-1.6,0.7-3.1,2-4c0.3,0.7,0.6,1.4,0.8,2.2
				c0.2,0.8,0.2,1.6-0.2,2.3c-0.3,0.7-0.8,1.2-1.3,1.7c-0.3,0.3-0.7,0.7-1,1"/>
			<path class="st16" d="M165.5,85.4c-0.6-0.4-1.3-0.6-2-0.7c-1.9-0.4-3.9-0.6-5.7,0.2c-0.5,0.2-0.9,0.5-1.2,0.9
				c0,0.1-0.1,0.2-0.1,0.2c0,0.1,0.1,0.1,0.2,0.2c1.4,0.9,3.2,1,4.9,0.7c0.5-0.1,1-0.3,1.4-0.5c0.8-0.4,1.4-1.1,2.2-1.3"/>
			<path class="st15" d="M172.7,86.1c-1.2-0.1-2.5-0.5-3.6-1.1c-0.3-0.2-0.6-0.4-0.9-0.6c-0.6-0.5-0.8-1.3-1-2c0-0.1,0-0.1,0-0.2
				c0-0.1,0.1-0.1,0.2-0.1c0.4,0,0.7,0,1.1-0.1c0.7,0,1.4-0.1,2,0.2c1.5,0.7,1.8,3,3.3,3.7"/>
			<path class="st15" d="M176.4,85.1c-0.7,0.6-1.4,1.2-2.1,1.9c-0.7,0.6-1.3,1.3-1.6,2.2c-0.4,1.2-0.1,2.5,0.3,3.7
				c0.6-1.4,2-2.2,2.8-3.4c0.5-0.7,0.8-1.6,0.9-2.4c0.1-0.7,0-1.6,0.4-2.2"/>
		</g>
		<g>
			<g>
				<path class="st17" d="M302.9,86.5c1.5,0,2.8-0.3,4-0.8c2.7-1.3,4.3-4.1,4.9-8.3c0.5-3.6,0-6-1.8-7.7c-1.5-1.5-3.7-2.1-6-2.8
					c-4.4-1.3-9-2.6-9.5-10.2c0-0.2-0.2-0.3-0.4-0.3c-0.2,0-0.3,0.2-0.3,0.4c0.5,8,5.6,9.5,10,10.8c4.5,1.3,8.3,2.4,7.3,9.7
					c-0.6,3.9-2.1,6.5-4.6,7.7c-5,2.4-12.4-1.8-12.5-1.8c-0.2-0.1-0.4,0-0.5,0.1c-0.1,0.2,0,0.4,0.1,0.5c0.1,0,1.9,1.1,4.5,1.9
					C299.9,86.3,301.5,86.5,302.9,86.5z"/>
			</g>
			<g>
				<path class="st17" d="M307.1,43.9c0.2,0,0.3-0.1,0.3-0.2c0.1-0.2,1.2-4.3-6.7-9.7c-3.9-2.7-5.5-7.2-6.2-10.5
					c-0.7-3.6-0.5-6.6-0.5-6.6c0-0.2-0.1-0.4-0.3-0.4c-0.2,0-0.4,0.1-0.4,0.3c0,0.1-0.2,3.1,0.5,6.8c0.4,2.2,1.1,4.1,2,5.8
					c1.1,2.1,2.6,3.9,4.4,5.1c7.5,5.2,6.4,8.9,6.4,9c-0.1,0.2,0,0.4,0.2,0.4C307,43.9,307.1,43.9,307.1,43.9z"/>
			</g>
			<g>
				<path class="st17" d="M307,18.2c0.2,0,0.3-0.1,0.3-0.3c0-0.1,0.2-2.6-0.5-6c-0.7-3.1-2.2-7.5-5.9-11c-3.5-3.4-5.1-8.7-5.8-12.5
					c-0.8-4.2-0.7-7.6-0.7-7.7c0-0.2-0.1-0.4-0.3-0.4c-0.2,0-0.4,0.1-0.4,0.3c0,0-0.1,3.5,0.7,7.8c0.5,2.5,1.1,4.8,2,6.8
					c1.1,2.5,2.4,4.6,4.1,6.1c3.5,3.4,5,7.6,5.7,10.6c0.7,3.3,0.5,5.8,0.5,5.8C306.6,18,306.8,18.2,307,18.2
					C307,18.2,307,18.2,307,18.2z"/>
			</g>
			<path class="st15" d="M294.2-83.4c0.3-1,0.5-2,0.7-3c0.1-0.9,0.2-1.8,0-2.7c-0.3-1.6-1.3-3-2.4-4.2c-1.5,3.1-1,7.1,1.3,9.7"/>
			<path class="st15" d="M295.3-72.6c0-0.4,0.2-0.8,0.4-1.1c1.1-1.6,3-2.6,4-4.2c0.9-1.4,1.1-3.2,0.9-4.9c-1.1,0.3-2.3,0.7-3.3,1.3
				c-0.5,0.3-0.9,0.6-1.2,1c-0.4,0.5-0.6,1.1-0.7,1.8c-0.4,1.8-0.3,3.7-0.2,5.6"/>
			<path class="st15" d="M295-72.5c-0.4-2.3-1.7-4.3-3.6-5.7c-1.2-0.9-2.7-1.5-4.1-1c0.2,0.8,0.4,1.7,0.7,2.5c0.3,0.8,0.8,1.6,1.5,2
				c0.6,0.4,1.3,0.6,2,0.8c1.1,0.3,2.1,0.5,3.2,0.6"/>
			<path class="st16" d="M300.6-66.5c-0.1-0.6-0.1-1.1,0.1-1.7c0.1-0.3,0.3-0.6,0.5-0.9c0.6-0.9,1.1-2,1-3.1c0-1-0.5-2-1-2.9
				c-1.2,1.1-2,2.6-2.2,4.2c-0.2,1.6,0.4,3.3,1.5,4.5"/>
			<path class="st16" d="M303.6-63.1c-1.5-1.4-3.4-2.2-5.4-2.4c-0.4,0-0.7,0-1.1,0c-0.3,0.1-0.6,0.2-0.9,0.3
				c-0.8,0.3-1.6,0.7-2.3,1.1c0,0,0,0-0.1,0c0,0.1,0,0.1,0.1,0.2c0.4,0.2,0.7,0.4,1.1,0.6c0.9,0.4,1.8,0.9,2.7,1.1
				c0.9,0.3,1.9,0.4,2.9,0.3c1.1-0.2,2.1-0.7,3-1.2"/>
			<path class="st15" d="M306.7-56.4c-0.2-0.6-0.1-1.2,0.2-1.8c0.3-0.5,0.7-0.9,1.1-1.3c0.8-0.8,1.4-1.6,1.9-2.6
				c0.4-1,0.5-2.1,0.1-3.1c-0.5,0.2-1,0.4-1.6,0.7c-0.6,0.3-1.2,0.5-1.6,1c-0.3,0.4-0.5,1-0.6,1.5c-0.2,1.2,0,2.5,0.1,3.7
				c0.1,0.6,0.1,1.2,0.2,1.9"/>
			<path class="st15" d="M306.8-55.3c-0.1-0.4-0.5-0.8-0.8-1.2c-0.6-0.7-1.3-1.4-2.1-1.8c-0.4-0.2-0.8-0.2-1.2-0.3
				c-1-0.1-2.1-0.3-3.1,0c0,0-0.1,0-0.1,0.1c0,0,0,0.1,0,0.1c0.6,0.9,1.2,1.7,2.1,2.2c0.8,0.4,1.7,0.6,2.7,0.6s1.8,0,2.7,0.2"/>
			<g>
				<path class="st17" d="M306.8-54.9C306.8-54.9,306.8-54.9,306.8-54.9c0.2,0,0.4-0.2,0.3-0.4c0-0.1,0-1.8-1-4.2
					c-0.9-2.2-2.7-5.3-6.6-8c-3.7-2.5-4.9-6.8-5.3-9.9c-0.4-3.4,0.1-6.3,0.1-6.3c0-0.2-0.1-0.4-0.3-0.4c-0.2,0-0.4,0.1-0.4,0.3
					c0,0.1-0.5,3-0.1,6.5c0.2,2.1,0.8,3.9,1.5,5.6c1,2,2.3,3.7,4.1,4.8c3.7,2.6,5.5,5.6,6.3,7.7c0.9,2.2,0.9,3.9,0.9,3.9
					C306.5-55.1,306.6-54.9,306.8-54.9z"/>
			</g>
			<path class="st15" d="M294-51.1c0.5-1.8,0.8-3.6,0.8-5.4c0-0.5,0-1-0.1-1.5c-0.4-1.6-1.8-2.7-3.2-3.5c-0.7,1.6-0.5,3.4-0.2,5.2
				c0.4,2,1,4,2.5,5.3"/>
			<path class="st16" d="M296-40.3c0.3-1,1.4-1.7,2.2-2.4c1-0.9,1.8-2,2.2-3.3c0.4-1.3,0.4-2.7-0.2-4c0-0.1-0.1-0.2-0.2-0.2
				c-0.1,0-0.1,0-0.2,0.1C296.9-47.9,295.4-44,296-40.3"/>
			<path class="st15" d="M296-40.2c-0.6-2.2-2.4-3.8-4.2-5.3c-0.6-0.5-1.2-1-1.9-1.3c-1-0.5-2.1-0.7-3.2-0.5
				c0.3,0.8,0.6,1.6,0.9,2.4c0.3,0.8,0.7,1.6,1.3,2.3c0.6,0.6,1.3,1,2.1,1.4c1,0.4,2,0.7,3,0.7c0.7,0.1,1.4,0,2.1,0.2"/>
			<path class="st15" d="M301.3-32.1c0-0.7,0.3-1.5,0.7-2.1c0.4-0.6,0.9-1.2,1.3-1.8c1.2-2,1-4.8-0.4-6.7c0,0-0.1-0.1-0.1-0.1
				c0,0-0.1,0-0.1,0.1c-1.7,1.2-2.8,3.1-3,5.1c-0.2,2,0.5,4.1,1.9,5.6"/>
			<path class="st16" d="M304-27.6c-2-1.8-4.4-3.4-7.1-3.9c-1.8-0.3-3.7-0.2-5.4,0.4c-0.1,0-0.1,0-0.1,0.1c0,0.1,0,0.1,0.1,0.2
				c0.8,1.3,2.2,2.1,3.7,2.5c1.5,0.4,3,0.5,4.5,0.5c1.5,0,3,0.1,4.5,0.4"/>
			<path class="st15" d="M306.5-20.8c0.7-1.8,1.9-3.4,2.5-5.3c0.9-2.8,0.1-6-1.9-8.1c-0.9,1.7-1.9,3.4-1.9,5.3
				c-0.1,2.6,1.6,5,1.4,7.6"/>
			<path class="st16" d="M307.1-15c-0.5-2.1-1.7-4.1-3.4-5.5c-1.7-1.4-3.9-2.2-6.1-1.9c-0.1,0-0.2,0-0.2,0.1c0,0,0,0.1,0,0.2
				c0,1.4,0.5,2.9,1.4,4c0.9,1.1,2.2,1.9,3.6,2.3c1.2,0.3,2.6,0.2,3.8,0.7c0.4,0.2,0.8,0.6,1.2,0.7c0.5,0.2,1.2-0.2,1.6-0.4
				c0.6-0.2,1.1-0.5,1.5-1c0.3-0.3,0.4-0.7,0.6-1.1c0.3-0.7,0.5-1.5,0.3-2.2c-0.6,0.4-1.3,0.8-1.9,1.2c-0.4,0.2-0.7,0.5-1,0.8
				c-0.3,0.4-0.6,0.8-0.8,1.2c-0.3,0.5-0.5,1.1-0.7,1.6"/>
			<g>
				<path class="st17" d="M307-14.3c0.2,0,0.3-0.1,0.3-0.3c0-0.1,0.1-2.8-0.7-6.5c-0.7-3.4-2.3-8.1-5.9-11.8
					c-3.5-3.5-5.1-8.4-5.8-11.9c-0.8-3.8-0.8-6.7-0.8-6.8c0-0.2-0.2-0.4-0.3-0.4c-0.2,0-0.4,0.2-0.4,0.3c0,0.1,0,3.1,0.8,6.9
					c0.7,3.6,2.4,8.6,6,12.2c3.5,3.5,5,8.2,5.7,11.4c0.7,3.5,0.7,6.3,0.7,6.3C306.7-14.5,306.8-14.3,307-14.3
					C307-14.3,307-14.3,307-14.3z"/>
			</g>
			<path class="st15" d="M294.3-19c0.5-0.9,0.9-1.9,1-2.9c0.1-1,0-2.1-0.7-2.9c-0.3-0.4-0.7-0.7-1.1-1c-0.5,1.1-0.7,2.3-0.6,3.5
				c0.1,1.2,0.6,2.3,1.1,3.3"/>
			<path class="st16" d="M295.2-10.1c-0.1-0.2-0.1-0.5,0-0.7c0.1-0.2,0.3-0.4,0.4-0.6c0.6-0.7,1.3-1.2,1.8-2c1-1.5,1.1-3.5,0.3-5.1
				c-1.1,0.8-1.8,2.1-2.2,3.4c-0.4,1.3-0.4,2.7-0.4,4.1"/>
			<path class="st15" d="M295.8-7.3c-0.1-1-0.5-1.9-1-2.8c-0.7-1.4-1.5-2.7-2.7-3.7c-1.2-1-2.6-1.7-4.2-1.7c-0.1,0-0.1,0-0.1,0
				c-0.1,0.1-0.1,0.2-0.1,0.3c0.2,1.1,0.4,2.2,0.9,3.2c0.5,1,1.2,1.9,2.2,2.4c0.5,0.3,1.1,0.4,1.7,0.5c0.9,0.2,1.9,0.3,2.8,0.4"/>
			<path class="st15" d="M297.7-2.9c-0.2-1,0.1-2,0.7-2.8c0.6-0.8,1.3-1.5,1.9-2.3c0.6-0.8,1.1-1.7,1.4-2.7s0.2-2.1-0.2-3
				c-1.1,1.1-2.8,1.5-3.8,2.7c-0.7,0.8-1,1.9-1,2.9c-0.1,1,0.1,2.1,0.3,3.1c0.1,0.4,0.2,0.9,0.4,1.2"/>
			<path class="st16" d="M300,0.8c-2.2-2.2-5.3-3.6-8.4-3.7c-0.7,0-1.5,0-2.1,0.4c-0.1,0-0.1,0.1-0.1,0.2c0,0.1,0,0.1,0,0.2
				c0.5,0.9,1.1,1.7,2,2.2c0.6,0.3,1.2,0.4,1.9,0.5c1.7,0.2,3.5,0.3,5.2,0.1c0.5,0,1.1-0.1,1.7-0.1"/>
			<path class="st16" d="M304.9,7c-0.2-0.7,0-1.4,0.4-1.9c0.4-0.6,0.8-1.1,1.3-1.6c0.9-1.1,1.4-2.5,1.3-4c-0.1-0.7-0.3-1.4-0.6-2.1
				c-0.5-1.2-1.1-2.4-2.1-3.2c0,0-0.1,0-0.1,0c0,0,0,0-0.1,0.1c-0.4,0.8-0.9,1.6-1.3,2.4c-0.3,0.6-0.6,1.2-0.7,1.8
				c-0.1,0.8-0.1,1.6,0.1,2.3c0.3,1.9,0.9,3.8,1.5,5.6"/>
			<path class="st15" d="M306.7,13.1c-0.4-0.8-1-1.4-1.5-2.1c-0.7-0.9-1.5-1.7-2.3-2.5s-1.8-1.4-2.9-1.7c-0.8-0.2-1.6-0.3-2.4-0.3
				c-0.6,0-1.2,0-1.8,0c-0.2,0-0.5,0-0.7,0.1c-0.1,0-0.1,0-0.1,0.1c0,0,0,0.1,0,0.1c0,1.5,0.9,2.9,2.2,3.7c1.3,0.8,2.8,1.1,4.3,1.3
				c1.7,0.2,3.5,0.2,5,0.8"/>
			<path class="st15" d="M307.2,17.5c0.4-0.7,1.2-1.1,1.9-1.6c1.2-0.8,2.1-2,2.6-3.3c0.5-1.3,0.6-2.8,0.2-4.2
				c-0.8,0.7-2.1,0.8-2.9,1.4c-0.3,0.3-0.6,0.6-0.8,0.9c-0.6,0.9-0.9,2.1-1,3.2c-0.1,1.1-0.1,2.2,0,3.3"/>
			<path class="st16" d="M307.3,43.6c0.4-0.3,0.8-0.6,1.2-1c0.3-0.2,0.5-0.4,0.7-0.7c0.3-0.5,0.4-1.1,0.5-1.6
				c0.1-0.7,0.1-1.5-0.1-2.2c-0.9,0.5-1.5,1.3-1.9,2.2c-0.4,0.9-0.5,2-0.4,3"/>
			<path class="st15" d="M293.9,17c0.2-1,0.7-1.8,0.9-2.8c0.2-0.9,0.2-1.9-0.2-2.8c-0.3-0.9-1-1.7-1.8-2.1c-0.1,0.2-0.2,0.5-0.2,0.8
				c-0.3,1-0.5,2-0.4,3c0.1,0.6,0.3,1.2,0.5,1.8c0.3,0.7,0.6,1.5,1.1,2.1"/>
			<path class="st16" d="M294.3,23.4c-0.1-0.2,0-0.5,0.1-0.6s0.4-0.3,0.6-0.4c0.7-0.4,1.4-0.8,2-1.2c0.3-0.2,0.7-0.4,1-0.7
				c0.4-0.4,0.6-1,0.8-1.5c0.2-0.5,0.3-0.9,0.3-1.4c0-0.5-0.1-1-0.5-1.3c0,0,0,0-0.1,0c0,0,0,0-0.1,0c-0.5,0.5-0.9,1-1.4,1.3
				c-0.3,0.2-0.7,0.3-1,0.5c-0.9,0.6-1.2,1.7-1.5,2.7c-0.2,0.7-0.4,1.4-0.6,2.1"/>
			<path class="st16" d="M295.3,27.7c-0.6-1-1.4-1.9-2.4-2.7c-1.4-1.1-3.2-1.8-4.9-1.7c-0.1,0-0.1,0-0.2,0.1c0,0,0,0.1,0,0.1
				c0.2,0.4,0.4,0.8,0.7,1.1c0.3,0.4,0.6,0.9,1,1.2c0.7,0.6,1.6,1,2.5,1.1c0.9,0.2,1.9,0.2,2.8,0.2"/>
			<path class="st15" d="M297.2,30.8c0.1-0.5,0.6-0.9,1-1.2c0.6-0.5,1.1-1,1.6-1.6c0.2-0.3,0.4-0.7,0.6-1c0.1-0.3,0.2-0.7,0.2-1.1
				c0-0.8-0.4-1.6-0.8-2.3c-0.5,0.7-1.4,1-2,1.7c-0.5,0.6-0.6,1.5-0.6,2.3c0,1,0.1,2-0.1,3"/>
			<path class="st16" d="M299.1,33.2c-0.8-0.7-1.6-1.2-2.6-1.5c-1.1-0.3-2.2-0.3-3.3-0.3c-0.4,0-0.7,0-1.1,0.1
				c-0.3,0.1-0.5,0.2-0.8,0.3c-0.3,0.2-0.6,0.3-0.9,0.6c0,0-0.1,0.1-0.1,0.1c0,0.1,0,0.2,0.1,0.2c0.9,0.9,2.2,1.4,3.5,1.4
				c1.3,0.1,2.6-0.3,3.7-0.8c0.4-0.2,0.8-0.4,1.2-0.5"/>
			<path class="st15" d="M303.6,36.6c-0.2-0.9,0.2-1.8,0.5-2.7s0.8-1.8,0.6-2.7c-0.1-0.3-0.2-0.7-0.4-1c-0.3-0.7-0.7-1.3-1.2-1.8
				c-0.7,0.8-1.4,1.6-1.5,2.7c-0.1,0.6,0,1.2,0.1,1.7c0.2,1.3,0.7,2.6,1.7,3.5"/>
			<path class="st16" d="M305.6,39.3c-0.7-0.9-1.7-1.5-2.8-1.9c-1.1-0.4-2.2-0.6-3.4-0.6c-0.5,0-1,0-1.5,0.1
				c-0.3,0.1-0.6,0.2-0.9,0.4c-0.2,0.1-0.5,0.2-0.7,0.3c0,0,0,0-0.1,0c0,0,0,0.1,0,0.1c0.3,0.6,1,1,1.6,1.2c0.6,0.2,1.3,0.3,2,0.4
				c0.7,0.1,1.3,0.1,2,0c0.6-0.1,1.2-0.3,1.8-0.4c0.6-0.1,1.3-0.2,1.9-0.1"/>
			<path class="st16" d="M294.7,59c0-1.4,0.2-2.9,0.3-4.3c0.1-1.4,0.1-2.9-0.4-4.3c-0.4-1.4-1.3-2.7-2.5-3.4
				c-0.1,0.9-0.2,1.9-0.3,2.8c-0.1,0.6-0.1,1.3-0.1,1.9c0,1,0.3,2,0.6,3c0.5,1.4,1.1,2.8,2.1,3.9"/>
			<path class="st16" d="M300.3,65.9c-0.5-0.7-0.8-1.6-0.7-2.5c0.1-0.9,0.5-1.8,0.6-2.7c0.3-1.6-0.3-3.3-1.4-4.4
				c-0.7,1.1-1.4,2.2-1.4,3.5c0,0.6,0.1,1.2,0.3,1.7c0.5,1.6,1.4,3.1,2.5,4.2"/>
			<path class="st15" d="M296.9,64c-1.2-1.4-2.8-2.4-4.6-2.8c-0.6-0.1-1.2-0.2-1.7-0.1c-0.5,0.1-1.1,0.3-1.6,0.5
				c-0.1,0-0.2,0.1-0.3,0.2c-0.1,0.1-0.1,0.2,0,0.3c0.1,0.6,0.5,1.1,1,1.5c1.5,1.2,3.7,1.5,5.5,0.8c0.5-0.2,0.9-0.4,1.4-0.5"/>
			<path class="st15" d="M303.2,67.2c-0.4-0.2-0.9-0.3-1.4-0.4c-1.7-0.2-3.4-0.2-5.1,0.2c-1.6,0.5-3.2,1.4-4.3,2.7
				c1.2,0.4,2.4,0.7,3.6,0.8c0.5,0,1.1,0,1.6-0.1c0.6-0.1,1.1-0.4,1.6-0.7c1.3-0.8,2.4-1.8,3.6-2.9"/>
			<path class="st15" d="M309.4,69.4c-0.5-0.4-0.8-0.9-1.1-1.5c-0.3-0.8-0.4-1.7-0.7-2.5c-0.7-2.1-2.8-3.6-4.9-3.8
				c0.1,2.3,1.5,4.6,3.5,5.7c0.8,0.5,1.7,0.8,2.3,1.5"/>
			<path class="st15" d="M311.7,75.9c-0.6-2.4-2.7-4.2-5.1-4.7c-1-0.2-2.1-0.3-3.1,0.1c-0.1,0-0.2,0.1-0.2,0.1c0,0.1,0,0.1,0,0.2
				c0.4,1.1,1.3,2,2.3,2.6c1,0.6,2.2,0.9,3.4,1c0.9,0.1,1.8,0,2.6,0.4"/>
			<path class="st16" d="M308.6,84.2c0.1-0.7,0.3-1.5,0.4-2.2c0.1-0.5,0.2-1.1,0.2-1.6c0-1.6-0.7-3.1-2-4c-0.3,0.7-0.6,1.4-0.8,2.2
				c-0.2,0.8-0.2,1.6,0.2,2.3c0.3,0.7,0.8,1.2,1.3,1.7c0.3,0.3,0.7,0.7,1,1"/>
			<path class="st16" d="M307.3,85.1c0.6-0.4,1.3-0.6,2-0.7c1.9-0.4,3.9-0.6,5.7,0.2c0.5,0.2,0.9,0.5,1.2,0.9c0,0.1,0.1,0.2,0.1,0.2
				c0,0.1-0.1,0.1-0.2,0.2c-1.4,0.9-3.2,1-4.9,0.7c-0.5-0.1-1-0.3-1.4-0.5c-0.8-0.4-1.4-1.1-2.2-1.3"/>
			<path class="st15" d="M300.2,85.7c1.2-0.1,2.5-0.5,3.6-1.1c0.3-0.2,0.6-0.4,0.9-0.6c0.6-0.5,0.8-1.3,1-2c0-0.1,0-0.1,0-0.2
				c0-0.1-0.1-0.1-0.2-0.1c-0.4,0-0.7,0-1.1-0.1c-0.7,0-1.4-0.1-2,0.2c-1.5,0.7-1.8,3-3.3,3.7"/>
			<path class="st15" d="M296.5,84.8c0.7,0.6,1.4,1.2,2.1,1.9c0.7,0.6,1.3,1.3,1.6,2.2c0.4,1.2,0.1,2.5-0.3,3.7
				c-0.6-1.4-2-2.2-2.8-3.4c-0.5-0.7-0.8-1.6-0.9-2.4c-0.1-0.7,0-1.6-0.4-2.2"/>
		</g>
		<g>
			<g>
				
					<rect x="230.6" y="105.9" transform="matrix(0.7071 -0.7071 0.7071 0.7071 -9.7451 199.9257)" class="st3" width="11.7" height="11.7"/>
				<g>
					<path class="st1" d="M244.7,111.1l-8.3-8.3l-0.6,0.6l-7.7,7.7l-0.6,0.6l0.6,0.6l7.7,7.7l0.6,0.6l8.3-8.3l0.6-0.6L244.7,111.1z
						 M236.5,119.4l-7.7-7.7l7.7-7.7l7.7,7.7L236.5,119.4z"/>
					<polygon class="st4" points="236.5,115.3 236.5,119.4 244.2,111.7 240,111.7 					"/>
					
						<rect x="233.9" y="109.2" transform="matrix(0.7071 0.7071 -0.7071 0.7071 148.2597 -134.478)" class="st1" width="5" height="5"/>
					<polygon class="st4" points="228.7,111.7 232.9,111.7 236.5,108.2 236.5,104 					"/>
				</g>
			</g>
			<g>
				
					<rect x="261.9" y="106" transform="matrix(0.7071 -0.7071 0.7071 0.7071 -0.6702 222.1141)" class="st3" width="11.7" height="11.7"/>
				<g>
					<path class="st1" d="M276.1,111.3l-8.3-8.3l-0.6,0.6l-7.7,7.7l-0.6,0.6l0.6,0.6l7.7,7.7l0.6,0.6l8.3-8.3l0.6-0.6L276.1,111.3z
						 M267.8,119.6l-7.7-7.7l7.7-7.7l7.7,7.7L267.8,119.6z"/>
					<polygon class="st4" points="267.8,115.4 267.8,119.6 275.5,111.9 271.3,111.9 					"/>
					
						<rect x="265.3" y="109.3" transform="matrix(0.7071 0.7071 -0.7071 0.7071 157.5323 -156.5845)" class="st1" width="5" height="5"/>
					<polygon class="st4" points="260.1,111.9 264.2,111.9 267.8,108.3 267.8,104.2 					"/>
				</g>
			</g>
			<g>
				
					<rect x="421.5" y="105.9" transform="matrix(0.7071 -0.7071 0.7071 0.7071 46.1575 334.8864)" class="st3" width="11.7" height="11.7"/>
				<g>
					<path class="st1" d="M435.6,111.1l-8.3-8.3l-0.6,0.6l-7.7,7.7l-0.6,0.6l0.6,0.6l7.7,7.7l0.6,0.6l8.3-8.3l0.6-0.6L435.6,111.1z
						 M427.3,119.4l-7.7-7.7l7.7-7.7l7.7,7.7L427.3,119.4z"/>
					<polygon class="st4" points="427.3,115.3 427.3,119.4 435,111.7 430.9,111.7 					"/>
					
						<rect x="424.8" y="109.2" transform="matrix(0.7071 0.7071 -0.7071 0.7071 204.1622 -269.4388)" class="st1" width="5" height="5"/>
					<polygon class="st4" points="419.6,111.7 423.8,111.7 427.3,108.2 427.3,104 					"/>
				</g>
			</g>
			<g>
				
					<rect x="452.8" y="106" transform="matrix(0.7071 -0.7071 0.7071 0.7071 55.2324 357.0748)" class="st3" width="11.7" height="11.7"/>
				<g>
					<path class="st1" d="M466.9,111.3l-8.3-8.3l-0.6,0.6l-7.7,7.7l-0.6,0.6l0.6,0.6l7.7,7.7l0.6,0.6l8.3-8.3l0.6-0.6L466.9,111.3z
						 M458.6,119.6l-7.7-7.7l7.7-7.7l7.7,7.7L458.6,119.6z"/>
					<polygon class="st4" points="458.6,115.4 458.6,119.6 466.4,111.9 462.2,111.9 					"/>
					
						<rect x="456.1" y="109.3" transform="matrix(0.7071 0.7071 -0.7071 0.7071 213.4348 -291.5452)" class="st1" width="5" height="5"/>
					<polygon class="st4" points="450.9,111.9 455.1,111.9 458.6,108.3 458.6,104.2 					"/>
				</g>
			</g>
			<g>
				
					<rect x="360" y="105.9" transform="matrix(0.7071 -0.7071 0.7071 0.7071 28.1581 291.4321)" class="st3" width="11.7" height="11.7"/>
				<g>
					<path class="st1" d="M374.2,111.1l-8.3-8.3l-0.6,0.6l-7.7,7.7l-0.6,0.6l0.6,0.6l7.7,7.7l0.6,0.6l8.3-8.3l0.6-0.6L374.2,111.1z
						 M365.9,119.4l-7.7-7.7l7.7-7.7l7.7,7.7L365.9,119.4z"/>
					<polygon class="st4" points="365.9,115.3 365.9,119.4 373.6,111.7 369.4,111.7 					"/>
					
						<rect x="363.4" y="109.2" transform="matrix(0.7071 0.7071 -0.7071 0.7071 186.1617 -225.9838)" class="st1" width="5" height="5"/>
					<polygon class="st4" points="358.2,111.7 362.3,111.7 365.9,108.2 365.9,104 					"/>
				</g>
			</g>
			<g>
				
					<rect x="391.3" y="106" transform="matrix(0.7071 -0.7071 0.7071 0.7071 37.233 313.6204)" class="st3" width="11.7" height="11.7"/>
				<g>
					<path class="st1" d="M405.5,111.3l-8.3-8.3l-0.6,0.6l-7.7,7.7l-0.6,0.6l0.6,0.6l7.7,7.7l0.6,0.6l8.3-8.3l0.6-0.6L405.5,111.3z
						 M397.2,119.6l-7.7-7.7l7.7-7.7l7.7,7.7L397.2,119.6z"/>
					<polygon class="st4" points="397.2,115.4 397.2,119.6 404.9,111.9 400.7,111.9 					"/>
					
						<rect x="394.7" y="109.3" transform="matrix(0.7071 0.7071 -0.7071 0.7071 195.4342 -248.0901)" class="st1" width="5" height="5"/>
					<polygon class="st4" points="389.5,111.9 393.6,111.9 397.2,108.3 397.2,104.2 					"/>
				</g>
			</g>
			<g>
				
					<rect x="296" y="105.9" transform="matrix(0.7071 -0.7071 0.7071 0.7071 9.4215 246.198)" class="st3" width="11.7" height="11.7"/>
				<g>
					<path class="st1" d="M310.2,111.1l-8.3-8.3l-0.6,0.6l-7.7,7.7l-0.6,0.6l0.6,0.6l7.7,7.7l0.6,0.6l8.3-8.3l0.6-0.6L310.2,111.1z
						 M301.9,119.4l-7.7-7.7l7.7-7.7l7.7,7.7L301.9,119.4z"/>
					<polygon class="st4" points="301.9,115.3 301.9,119.4 309.6,111.7 305.5,111.7 					"/>
					
						<rect x="299.4" y="109.2" transform="matrix(0.7071 0.7071 -0.7071 0.7071 167.4262 -180.7503)" class="st1" width="5" height="5"/>
					<polygon class="st4" points="294.2,111.7 298.3,111.7 301.9,108.2 301.9,104 					"/>
				</g>
			</g>
			<g>
				
					<rect x="327.4" y="106" transform="matrix(0.7071 -0.7071 0.7071 0.7071 18.4964 268.3863)" class="st3" width="11.7" height="11.7"/>
				<g>
					<path class="st1" d="M341.5,111.3l-8.3-8.3l-0.6,0.6l-7.7,7.7l-0.6,0.6l0.6,0.6l7.7,7.7l0.6,0.6l8.3-8.3l0.6-0.6L341.5,111.3z
						 M333.2,119.6l-7.7-7.7l7.7-7.7l7.7,7.7L333.2,119.6z"/>
					<polygon class="st4" points="333.2,115.4 333.2,119.6 340.9,111.9 336.8,111.9 					"/>
					
						<rect x="330.7" y="109.3" transform="matrix(0.7071 0.7071 -0.7071 0.7071 176.6989 -202.8567)" class="st1" width="5" height="5"/>
					<polygon class="st4" points="325.5,111.9 329.7,111.9 333.2,108.3 333.2,104.2 					"/>
				</g>
			</g>
			<g>
				
					<rect x="10.1" y="106" transform="matrix(0.7071 -0.7071 0.7071 0.7071 -74.4307 44.0409)" class="st3" width="11.7" height="11.7"/>
				<g>
					<path class="st1" d="M24.2,111.3l-8.3-8.3l-0.6,0.6l-7.7,7.7l-0.6,0.6l0.6,0.6l7.7,7.7l0.6,0.6l8.3-8.3l0.6-0.6L24.2,111.3z
						 M15.9,119.6l-7.7-7.7l7.7-7.7l7.7,7.7L15.9,119.6z"/>
					<polygon class="st4" points="15.9,115.4 15.9,119.6 23.7,111.9 19.5,111.9 					"/>
					
						<rect x="13.4" y="109.3" transform="matrix(0.7071 0.7071 -0.7071 0.7071 83.7719 21.4888)" class="st1" width="5" height="5"/>
					<polygon class="st4" points="8.2,111.9 12.4,111.9 15.9,108.3 15.9,104.2 					"/>
				</g>
			</g>
			<g>
				
					<rect x="169.6" y="105.9" transform="matrix(0.7071 -0.7071 0.7071 0.7071 -27.6029 156.8131)" class="st3" width="11.7" height="11.7"/>
				<g>
					<path class="st1" d="M183.8,111.1l-8.3-8.3l-0.6,0.6l-7.7,7.7l-0.6,0.6l0.6,0.6l7.7,7.7l0.6,0.6l8.3-8.3l0.6-0.6L183.8,111.1z
						 M175.5,119.4l-7.7-7.7l7.7-7.7l7.7,7.7L175.5,119.4z"/>
					<polygon class="st4" points="175.5,115.3 175.5,119.4 183.2,111.7 179,111.7 					"/>
					
						<rect x="173" y="109.2" transform="matrix(0.7071 0.7071 -0.7071 0.7071 130.4011 -91.3653)" class="st1" width="5" height="5"/>
					<polygon class="st4" points="167.8,111.7 171.9,111.7 175.5,108.2 175.5,104 					"/>
				</g>
			</g>
			<g>
				
					<rect x="201" y="106" transform="matrix(0.7071 -0.7071 0.7071 0.7071 -18.528 179.0015)" class="st3" width="11.7" height="11.7"/>
				<g>
					<path class="st1" d="M215.1,111.3l-8.3-8.3l-0.6,0.6l-7.7,7.7l-0.6,0.6l0.6,0.6l7.7,7.7l0.6,0.6l8.3-8.3l0.6-0.6L215.1,111.3z
						 M206.8,119.6l-7.7-7.7l7.7-7.7l7.7,7.7L206.8,119.6z"/>
					<polygon class="st4" points="206.8,115.4 206.8,119.6 214.5,111.9 210.4,111.9 					"/>
					
						<rect x="204.3" y="109.3" transform="matrix(0.7071 0.7071 -0.7071 0.7071 139.6737 -113.4716)" class="st1" width="5" height="5"/>
					<polygon class="st4" points="199.1,111.9 203.3,111.9 206.8,108.3 206.8,104.2 					"/>
				</g>
			</g>
			<g>
				
					<rect x="108.2" y="105.9" transform="matrix(0.7071 -0.7071 0.7071 0.7071 -45.6023 113.3588)" class="st3" width="11.7" height="11.7"/>
				<g>
					<path class="st1" d="M122.3,111.1l-8.3-8.3l-0.6,0.6l-7.7,7.7l-0.6,0.6l0.6,0.6l7.7,7.7l0.6,0.6l8.3-8.3l0.6-0.6L122.3,111.1z
						 M114,119.4l-7.7-7.7l7.7-7.7l7.7,7.7L114,119.4z"/>
					<polygon class="st4" points="114,115.3 114,119.4 121.7,111.7 117.6,111.7 					"/>
					
						<rect x="111.5" y="109.2" transform="matrix(0.7071 0.7071 -0.7071 0.7071 112.4024 -47.9111)" class="st1" width="5" height="5"/>
					<polygon class="st4" points="106.3,111.7 110.5,111.7 114,108.2 114,104 					"/>
				</g>
			</g>
			<g>
				
					<rect x="139.5" y="106" transform="matrix(0.7071 -0.7071 0.7071 0.7071 -36.5274 135.5471)" class="st3" width="11.7" height="11.7"/>
				<g>
					<path class="st1" d="M153.6,111.3l-8.3-8.3l-0.6,0.6l-7.7,7.7l-0.6,0.6l0.6,0.6l7.7,7.7l0.6,0.6l8.3-8.3l0.6-0.6L153.6,111.3z
						 M145.4,119.6l-7.7-7.7l7.7-7.7l7.7,7.7L145.4,119.6z"/>
					<polygon class="st4" points="145.4,115.4 145.4,119.6 153.1,111.9 148.9,111.9 					"/>
					
						<rect x="142.8" y="109.3" transform="matrix(0.7071 0.7071 -0.7071 0.7071 121.6751 -70.0175)" class="st1" width="5" height="5"/>
					<polygon class="st4" points="137.6,111.9 141.8,111.9 145.4,108.3 145.4,104.2 					"/>
				</g>
			</g>
			<g>
				
					<rect x="44.2" y="105.9" transform="matrix(0.7071 -0.7071 0.7071 0.7071 -64.3389 68.1248)" class="st3" width="11.7" height="11.7"/>
				<g>
					<path class="st1" d="M58.3,111.1l-8.3-8.3l-0.6,0.6l-7.7,7.7l-0.6,0.6l0.6,0.6l7.7,7.7l0.6,0.6l8.3-8.3l0.6-0.6L58.3,111.1z
						 M50.1,119.4l-7.7-7.7l7.7-7.7l7.7,7.7L50.1,119.4z"/>
					<polygon class="st4" points="50.1,115.3 50.1,119.4 57.8,111.7 53.6,111.7 					"/>
					<rect x="47.5" y="109.2" transform="matrix(0.7071 0.7071 -0.7071 0.7071 93.6659 -2.677)" class="st1" width="5" height="5"/>
					<polygon class="st4" points="42.4,111.7 46.5,111.7 50.1,108.2 50.1,104 					"/>
				</g>
			</g>
			<g>
				
					<rect x="75.5" y="106" transform="matrix(0.7071 -0.7071 0.7071 0.7071 -55.264 90.3132)" class="st3" width="11.7" height="11.7"/>
				<g>
					<path class="st1" d="M89.7,111.3l-8.3-8.3l-0.6,0.6l-7.7,7.7l-0.6,0.6l0.6,0.6l7.7,7.7l0.6,0.6l8.3-8.3l0.6-0.6L89.7,111.3z
						 M81.4,119.6l-7.7-7.7l7.7-7.7l7.7,7.7L81.4,119.6z"/>
					<polygon class="st4" points="81.4,115.4 81.4,119.6 89.1,111.9 84.9,111.9 					"/>
					
						<rect x="78.9" y="109.3" transform="matrix(0.7071 0.7071 -0.7071 0.7071 102.9385 -24.7834)" class="st1" width="5" height="5"/>
					<polygon class="st4" points="73.7,111.9 77.8,111.9 81.4,108.3 81.4,104.2 					"/>
				</g>
			</g>
		</g>
		<path class="st18" d="M120.5,57.3c0,0-1.6,4.8-3.6,13.4c-2,8.6,10.3,13.5,15.6,12.1c5.4-1.5,7.3-5.8,7.3-5.8s0.8-1.7-1.7-2.1
			c-2.4-0.4-3.1-3.5-6.6-3.6c-3.4-0.1-9.1-0.6-9-4.1c0.1-3.5,4.9-14.2,4.9-14.2L120.5,57.3z"/>
		<ellipse class="st6" cx="240.1" cy="207.4" rx="87.6" ry="18.9"/>
		<g>
			<g>
				<path class="st19" d="M274,158.3c-0.4,3-8.8,6.9-19.1,7.9c-7.4,0.7-15.7-0.2-22.6-4.1c-9.6-5.5-10.9-18.3-10.1-28.2
					c0.6-7,2.2-12.7,2.8-13.2c1.3-1.3,14-25.7,14-25.7s7.8,4.5,5.7,25.3c-2.1,20.8,0.6,23.2,1.7,26.6
					C247.6,150.4,274.7,153.2,274,158.3z"/>
				<path class="st20" d="M254.9,166.2c-7.4,0.7-15.7-0.2-22.6-4.1c-9.6-5.5-10.9-18.3-10.1-28.2c4-10.1,17.3-36.6,17.3-36.6
					s6.6,4.4,1.3,18.5s-10.5,28.7-1.4,40.6C243.3,161.6,249.8,164.4,254.9,166.2z"/>
				<path class="st21" d="M279,196.5c0,0.2-0.1,0.4-0.1,0.6c-0.4,2.9-1.4,5.6-3.1,7.9c-0.3,0.4-0.7,0.9-1.1,1.3
					c-3.1,3.2-8,5.4-15.6,5.7c-0.2,0-0.5,0-0.7,0c-2.5,0-5.2-0.1-8.2-0.5c-1.6-0.2-3.2-0.3-4.8-0.4c-0.3,0-0.5,0-0.8,0
					c-8.6-0.5-16.8,0.4-24.4,1.4c-0.6,0.1-1.1,0.2-1.7,0.2c-10.8,1.6-20.3,3.4-28,2.1c-0.4-0.1-0.8-0.1-1.2-0.2
					c-2.4-0.5-4.6-1.4-6.7-2.7c-1.6-1-2.9-2.2-4.1-3.6c-0.2-0.2-0.3-0.4-0.4-0.5c-2.6-3.3-4.1-7.2-4.9-11.2c0-0.2-0.1-0.4-0.1-0.6
					c-0.4-2.3-0.7-4.7-0.8-6.8c0-0.6,0-1.3,0-1.9c0-0.2,0-0.4,0-0.6c0-3.6,0.3-6.5,0.6-8.1c0.1-0.8,0.2-1.2,0.2-1.2
					c4.1-16.7,18.2-18.9,36.3-18.5c0.6,0,1.3,0,1.9,0.1c3.7,0.1,7.5,0.3,11.4,0.5c0.3,0,0.5,0,0.8,0c3.7,0.2,7.5,0.4,11.3,0.5
					c0.2,0,0.5,0,0.7,0c0.7,0,1.5,0,2.2,0c2,0,3.9,0.1,5.7,0.2c0.2,0,0.5,0,0.7,0c0.9,0.1,1.8,0.2,2.7,0.2c0.2,0,0.4,0,0.6,0.1
					c1,0.1,2.1,0.3,3,0.4c0.2,0,0.4,0.1,0.6,0.1c1.5,0.2,2.8,0.5,4.2,0.9c0.2,0.1,0.4,0.1,0.6,0.2c1.5,0.4,3,0.9,4.3,1.4
					c0.3,0.1,0.5,0.2,0.8,0.3c0.2,0.1,0.5,0.2,0.7,0.3c1.7,0.8,3.3,1.6,4.7,2.5c0.4,0.3,0.8,0.5,1.2,0.8c0,0,0,0,0,0
					c0.3,0.2,0.6,0.5,0.9,0.7c3.1,2.5,5.3,5.5,6.8,8.7c0.1,0.2,0.2,0.4,0.3,0.6c1.2,2.6,2,5.3,2.6,8c0,0.1,0,0.2,0.1,0.3
					c0,0.1,0.1,0.2,0.1,0.4c0,0.2,0.1,0.4,0.1,0.6C279.1,190,279.4,193.3,279,196.5z"/>
				<path class="st22" d="M276.3,196.6c-0.1-3-0.5-6-1.1-9.2c0.4-0.1,0.7-0.1,1-0.2c0.9-0.2,1.6-0.3,2.3-0.5c0-0.2-0.1-0.4-0.1-0.6
					c-0.7,0.2-1.4,0.3-2.3,0.5c-0.3,0.1-0.7,0.1-1,0.2c-0.4-1.8-0.9-3.6-1.5-5.5c-0.3-1.1-0.7-2.1-1-3.1c1.1-0.2,2.2-0.5,3.1-0.8
					c-0.1-0.2-0.2-0.4-0.3-0.6c-0.8,0.3-1.9,0.6-3.1,0.8c-1.4-3.8-3-7.1-4.3-9.6c0.2,0,0.4,0,0.6,0.1c-0.3-0.2-0.6-0.5-0.9-0.7
					c0,0,0,0,0,0c0,0,0,0,0,0c-0.4-0.3-0.8-0.5-1.2-0.8c0.1,0.2,0.3,0.5,0.4,0.8c-1.4-0.1-3-0.2-4.7-0.3c-0.3-1.1-0.7-2.1-1.1-3.2
					c-0.3-0.1-0.5-0.2-0.8-0.3c0.4,1.2,0.9,2.3,1.2,3.5c-0.9,0-1.8-0.1-2.7-0.1c-0.8,0-1.6-0.1-2.5-0.1c-0.1-1.9-0.2-3.5-0.3-4.7
					c-0.2-0.1-0.4-0.1-0.6-0.2c0.1,1.2,0.2,2.9,0.3,4.8c-1.7,0-3.5,0-5.5,0c0.4-1.9,0.7-3.8,1-5.7c-0.2,0-0.4-0.1-0.6-0.1
					c-0.3,2-0.6,4-1,5.8c-1.2,0-2.5,0.1-3.8,0.2c0.3-0.8,0.5-1.5,0.7-2.1c0.5-1.8,0.9-3.2,1.1-4.3c-0.2,0-0.4,0-0.6-0.1
					c-0.2,1.1-0.5,2.5-1.1,4.3c-0.2,0.7-0.5,1.5-0.8,2.3c-1.8,0.1-3.5,0.3-5.3,0.5c1.6-2.4,3.1-4.8,4.5-7.3c-0.2,0-0.5,0-0.7,0
					c-1.4,2.6-3,5.1-4.6,7.5c-2.4,0.3-4.8,0.7-7.1,1.3c-1.2,0.3-2.3,0.5-3.4,0.6c3.1-3.6,5.5-6.8,7-9.3c0.1-0.1,0.1-0.2,0.2-0.3
					c-0.2,0-0.5,0-0.7,0c-1.6,2.5-4.1,6-7.4,9.7c-4.5,0.3-7.7-0.7-10.1-2.2c0.3-0.3,0.5-0.6,0.8-0.9c2-2.6,3.8-4.9,5.4-6.9
					c-0.3,0-0.5,0-0.8,0c-1.5,2-3.2,4.2-5.1,6.6c-0.3,0.3-0.5,0.7-0.8,1c-3.4-2.5-4.7-6-5.4-7.8c0-0.1-0.1-0.2-0.1-0.3
					c-0.2-0.5-0.3-0.7-0.6-0.7c-0.1,0-0.3,0-1.4,0.6c-0.6,0.4-1.6,0.9-3,1.9c-1.9,1.2-3.8,2.4-3.8,2.5l-0.2,0.1l0,0.2
					c0,0,0.8,4.6,3,8.9c0.5,1.1,1.1,2.1,1.7,2.9c-2.9,1.9-6,3.4-9.1,4.7c-0.7-2.4-0.7-4.8-0.6-6.7c0.2-2.9,1-5.1,1-5.1l0.1-0.2
					l-0.1-0.1c-0.1-0.1-2.1-2.3-4.4-1.8c-1.9,0.5-3.4,2.7-4.5,6.7c-0.8,3.1-0.9,6.8-0.3,10.4c-1,0.3-1.9,0.5-2.8,0.8
					c-1.6,0.4-3.1,0.8-4.6,1.1c-0.4-5.3,0.2-9.4,0.2-9.4l-0.6-0.1c0,0-0.6,4.3-0.2,9.7c-3.5,0.7-6.6,1.2-9,1.5c0,0.2,0,0.4,0,0.6
					c2.4-0.3,5.6-0.8,9-1.5c0.1,0.7,0.2,1.5,0.3,2.2c0.4,2.4,0.9,4.6,1.7,6.7c-3.2,0.6-6.6,1.1-10.2,1.3c0,0.2,0.1,0.4,0.1,0.6
					c3.5-0.2,7-0.7,10.3-1.3c0.4,1,0.9,2,1.4,2.9c1.3,2.3,2.9,4.2,4.8,5.7c-4.4,1.7-8.4,3-11.6,3.9c0.1,0.2,0.3,0.4,0.4,0.5
					c3-0.9,7.1-2.1,11.7-3.9c0.9,0.7,2,1.3,3.1,1.9c2.7,1.4,5.3,1.9,7.9,1.9c1.5,0,2.9-0.2,4.4-0.5c-4.8,2.5-10.3,4.8-16.3,6.9
					c0.4,0.1,0.8,0.2,1.2,0.2c6.4-2.3,12.3-4.9,17.7-7.8c2-0.6,4-1.3,6.1-2c5.6-2,11.6-4.2,19.2-4.4c-2.5,2.9-5.1,5.2-7.5,7.1
					c-2.6,2.1-5.2,3.7-7.5,5c0.6-0.1,1.1-0.2,1.7-0.2c2-1.2,4.1-2.6,6.2-4.3c2.9-2.3,5.6-4.8,8-7.7c3.5,0,7.4,0.4,11.7,1.4
					c1.2,0.3,2.4,0.6,3.5,0.8c-1.3,2.9-3,5.7-5,8.3c0.3,0,0.5,0,0.8,0c1.9-2.5,3.5-5.2,4.9-8.2c4.4,1,8.2,1.6,11.4,2.1
					c-1,2.8-2.2,5.2-3.3,7.1c0.2,0,0.5,0,0.7,0c1-1.9,2.2-4.2,3.2-7c4.8,0.6,8.3,0.8,10.7,0.8c0.7,0,1.3,0,1.9-0.1
					c0,0.2-0.1,0.4-0.1,0.6c0.4-0.4,0.8-0.8,1.1-1.3c-0.1,0-0.1,0-0.2,0c0.3-1.8,0.5-3.8,0.6-5.7c0-0.7,0-1.4,0-2.1
					c1.1,0,1.9,0,2.6,0c0-0.2,0.1-0.4,0.1-0.6C278.3,196.6,277.4,196.6,276.3,196.6z M275.6,196.6c-0.2,0-0.5,0-0.7,0
					c-2.3-0.1-5.7-0.3-10.1-1c0.4-2.5,0.6-5.1,0.7-7.7c3.8,0.1,6.8-0.1,9.1-0.4C275.1,190.4,275.5,193.4,275.6,196.6z M243.4,185.4
					c-3.2,0-6.1,0.3-8.8,0.7c1.5-1.8,2.9-3.7,4.2-5.7c0.8-1.2,1.5-2.3,2.2-3.5c1.8-0.1,3.8-0.1,5.8,0
					C245.8,179.9,244.7,182.8,243.4,185.4z M247.5,176.9c2.5,0.1,5.2,0.3,8,0.8c-0.1,1.6-0.2,3.2-0.4,4.8c-0.1,1.2-0.3,2.4-0.5,3.7
					c-3.8-0.6-7.2-0.8-10.4-0.8C245.4,182.7,246.5,179.9,247.5,176.9z M238.3,180.1c-1.3,1.9-2.8,4-4.6,6.1
					c-1.8,0.3-3.5,0.5-5.2,0.8c-3,0.5-5.8,1-8.8,1.2c1.3-1,2.5-1.9,3.7-2.9c2.8-2.3,5.4-4.8,7.8-7.3c2.8-0.5,5.8-0.9,9.1-1
					C239.6,178,239,179,238.3,180.1z M218.4,188.4c-3.1,0.2-6.2,0.2-9.8-0.3c-1-0.1-2-0.3-2.9-0.6c3.8-2,7.5-4.4,10.9-7.1
					c0.1,0,0.2,0,0.3,0c3-0.3,5.8-0.9,8.9-1.4c1.3-0.2,2.7-0.5,4.1-0.7C226.3,182,222.3,185.4,218.4,188.4z M208.5,188.7
					c3.2,0.4,6.1,0.5,8.9,0.3c-5.2,3.8-10.4,6.8-15.2,9.3c-2.6-0.3-5-1.5-7.1-3.8c-0.5-0.6-1.1-1.2-1.5-1.9c3-1,5.9-2.1,8.7-3.4
					c0.9-0.4,1.8-0.9,2.6-1.3C206,188.3,207.2,188.5,208.5,188.7z M218.7,189c3.4-0.2,6.6-0.8,9.9-1.3c1.5-0.2,3-0.5,4.5-0.7
					c-1.8,2.1-3.9,4.2-6.3,6.4c-4.6,0.8-8.8,1.9-12.6,2.8c-3.1,0.8-6.1,1.6-8.8,2c-0.6,0.1-1.2,0.2-1.8,0.2
					C209,195.6,214,192.4,218.7,189z M234,186.8c2.9-0.4,5.9-0.7,9.1-0.8c-1.1,2.2-2.2,4.2-3.3,6.1c-4.2,0-8.2,0.4-11.9,1
					C230.1,191.1,232.1,189,234,186.8z M241.6,190.4c0.8-1.4,1.6-2.9,2.3-4.4c3.2,0,6.7,0.2,10.6,0.8c-0.4,2.2-0.8,4.4-1.5,6.7
					c-4.3-0.9-8.5-1.3-12.4-1.3C240.9,191.5,241.3,191,241.6,190.4z M255.1,186.9c3.7,0.5,6.9,0.8,9.7,0.9c0,2.8-0.3,5.3-0.7,7.6
					c-3-0.4-6.5-1.1-10.5-1.9C254.2,191.4,254.7,189.2,255.1,186.9z M273,181.5c0.5,1.7,1,3.5,1.4,5.4c-2.3,0.3-5.2,0.5-8.9,0.4
					c0-0.7,0-1.4,0-2.1c-0.1-2.1-0.2-4.2-0.5-6.4c1.3,0,2.6,0,3.9,0c1.1-0.1,2.2-0.2,3.1-0.3C272.3,179.4,272.6,180.4,273,181.5z
					 M267.2,168c1.4,2.5,3,5.9,4.4,9.8c-1.8,0.3-4.1,0.5-6.9,0.4c-0.5-3.5-1.3-7-2.4-10.5C264.2,167.7,265.8,167.8,267.2,168z
					 M256.3,167.3c0.8,0,1.7,0,2.4,0.1c1,0,2,0.1,3,0.1c1.2,3.7,2,7.2,2.4,10.5c-2-0.1-4.3-0.3-6.9-0.8c-0.4-0.1-0.7-0.1-1.1-0.2
					C256.4,173.5,256.4,170.1,256.3,167.3z M256.1,177.8c0.3,0.1,0.7,0.1,1,0.2c2.5,0.4,4.9,0.7,7.1,0.8c0.4,3,0.6,5.9,0.6,8.5
					c-2.8-0.1-6-0.4-9.6-0.9c0.2-1.2,0.4-2.5,0.5-3.7C255.9,180.9,256,179.3,256.1,177.8z M250,167.4c2-0.1,3.9-0.1,5.6,0
					c0.1,2.8,0.1,6.1-0.1,9.7c-2.8-0.4-5.4-0.6-7.9-0.7C248.6,173.4,249.4,170.5,250,167.4z M245.4,167.6c1.3-0.1,2.6-0.1,3.9-0.2
					c-0.7,3.2-1.5,6.1-2.3,8.9c-2-0.1-3.9-0.1-5.7,0C243.2,173,244.5,170,245.4,167.6z M239.2,168.2c1.9-0.2,3.7-0.4,5.6-0.6
					c-0.9,2.5-2.3,5.4-4.1,8.7c-3.2,0.2-6.1,0.5-8.8,1C234.5,174.4,237,171.3,239.2,168.2z M227.7,170.1c1.3-0.1,2.7-0.3,4.1-0.7
					c2.1-0.5,4.3-0.9,6.5-1.2c-2.4,3.3-4.9,6.4-7.6,9.2c-1.7,0.3-3.4,0.6-5,0.9c-2.8,0.5-5.5,1-8.1,1.3c2-1.6,4-3.3,5.9-5.2
					C225,173,226.4,171.6,227.7,170.1z M216.9,167.7c2.4,1.6,5.4,2.5,8.8,2.5c0.3,0,0.7,0,1,0c-1.2,1.3-2.4,2.6-3.8,3.9
					c-1.9,1.9-4.1,3.8-6.6,5.7c-3.2,0.2-6-1.3-8.4-4.4C211.5,173.1,214.5,170.6,216.9,167.7z M206,172c-1.9-3.7-2.7-7.6-2.9-8.5
					c2.2-1.5,6.5-4.2,7.5-4.7c0.1,0.1,0.1,0.4,0.2,0.6c0.6,1.5,1.9,5,5.1,7.6c0.2,0.1,0.4,0.3,0.5,0.4c-2.5,2.9-5.5,5.4-8.8,7.5
					C207.1,174,206.5,173.1,206,172z M203.5,178.1c1.4-0.7,2.8-1.5,4-2.4c0.7,1,1.5,1.8,2.3,2.5c1.7,1.4,3.6,2.2,5.7,2.2
					c-3.1,2.3-6.7,4.7-10.7,6.7c-2.4-0.9-4.3-2.4-5.5-4.3c-0.5-0.7-0.8-1.5-1.1-2.3C200.1,179.8,201.8,179,203.5,178.1z
					 M198.8,183.2c1.2,2,3,3.4,5.3,4.4c-3.3,1.7-6.9,3.2-10.9,4.5c-1.5-2.4-2.7-5.4-3.3-8.5c2.7-0.8,5.3-1.7,7.7-2.7
					C198,181.6,198.3,182.4,198.8,183.2z M190.1,172.9c1-3.7,2.3-5.8,4-6.2c1.7-0.4,3.3,1,3.7,1.5c-0.2,0.6-0.7,2.6-0.9,5.1
					c-0.2,2-0.1,4.5,0.6,7c-2.6,1.1-5.2,2-7.6,2.7C189.3,179.5,189.3,176,190.1,172.9z M182.2,187.9c-0.1-0.8-0.2-1.5-0.3-2.2
					c1.5-0.3,3.1-0.7,4.7-1.1c0.9-0.2,1.8-0.5,2.7-0.8c0.1,0.3,0.1,0.5,0.2,0.8c0.7,2.9,1.7,5.5,3.1,7.7c-2.8,0.9-5.6,1.6-8.7,2.2
					C183.1,192.2,182.5,189.9,182.2,187.9z M184.2,195.1c3-0.6,6-1.4,8.8-2.3c0.5,0.8,1.1,1.5,1.7,2.2c1.9,2.1,4.2,3.4,6.6,3.8
					c-0.9,0.5-1.9,0.9-2.8,1.3c-2.8,1.3-5.5,2.5-8.1,3.5C187.4,201.3,185.5,198.2,184.2,195.1z M207.9,206.5c-2.3,0.6-4.5,1-6.7,1
					c-2.5,0-5-0.5-7.6-1.8c-1-0.5-1.8-1-2.6-1.6c2.5-1,5.1-2.1,7.8-3.3c1.2-0.6,2.4-1.2,3.6-1.8c1,0.1,2,0,3-0.2
					c2.8-0.5,5.7-1.3,8.9-2.1c3.6-0.9,7.4-1.9,11.6-2.7C221.1,198.3,215.2,202.5,207.9,206.5z M234.1,200c-2.1,0-4.1,0.2-6.2,0.5
					c-5.2,0.8-9.8,2.5-13.8,3.9c-1.1,0.4-2.1,0.8-3.1,1.1c3.3-1.9,6.4-3.9,9.3-6c2.4-1.8,4.7-3.6,6.8-5.6c3.9-0.7,8-1.1,12.3-1.1
					C237.7,195.5,235.9,197.8,234.1,200z M249.9,202.2c-1.2-0.3-2.4-0.5-3.6-0.8c-3.9-0.9-7.6-1.4-11.3-1.4c1.9-2.2,3.6-4.6,5.2-7.2
					c4,0,8.2,0.4,12.6,1.3C252.1,196.8,251.1,199.5,249.9,202.2z M261.9,204.3c-3.2-0.4-6.9-1.1-11.3-2c0,0,0-0.1,0.1-0.1
					c1.1-2.5,2.1-5.2,2.8-8c4,0.9,7.5,1.5,10.6,1.9c-0.4,2.6-1,4.8-1.7,6.9C262.2,203.4,262.1,203.9,261.9,204.3z M275,205.1
					c-0.6,0-1.3,0.1-2.1,0.1c-2.3,0-5.7-0.1-10.3-0.7c0.1-0.4,0.3-0.8,0.4-1.2c0.7-2.3,1.3-4.6,1.7-7c4.5,0.6,7.9,0.9,10.2,1
					c0.3,0,0.5,0,0.7,0C275.7,199.8,275.5,202.4,275,205.1z"/>
				<path class="st23" d="M172.8,178.5c0.1-0.8,0.2-1.2,0.2-1.2c4.1-16.7,18.2-18.9,36.3-18.5c0.6,0,1.3,0,1.9,0.1
					c3.7,0.1,7.5,0.3,11.4,0.5c0.3,0,0.5,0,0.8,0c3.7,0.2,7.5,0.4,11.3,0.5c0.2,0,0.5,0,0.7,0c0.7,0,1.5,0,2.2,0
					c2,0,3.9,0.1,5.7,0.2c0.2,0,0.5,0,0.7,0c0.9,0.1,1.8,0.2,2.7,0.2c0.2,0,0.4,0,0.6,0.1c1,0.1,2.1,0.3,3,0.4
					c0.2,0,0.4,0.1,0.6,0.1c1.5,0.2,2.8,0.5,4.2,0.9c0.2,0.1,0.4,0.1,0.6,0.2c1.5,0.4,3,0.9,4.3,1.4c0.3,0.1,0.5,0.2,0.8,0.3
					c0.2,0.1,0.5,0.2,0.7,0.3c-4.3,0.4-9.9,2.6-20.5,2.2c-20.5-0.9-23.2,15.2-33.3,10.6C198.9,172.6,182,182.1,172.8,178.5z"/>
				<path class="st24" d="M279,196.5c0,0.2-0.1,0.4-0.1,0.6c-0.4,2.9-1.4,5.6-3.1,7.9c-0.3,0.4-0.7,0.9-1.1,1.3
					c-3.1,3.2-8,5.4-15.6,5.7c-0.2,0-0.5,0-0.7,0c-2.5,0-5.2-0.1-8.2-0.5c-1.6-0.2-3.2-0.3-4.8-0.4c-0.3,0-0.5,0-0.8,0
					c-8.6-0.5-16.8,0.4-24.4,1.4c-0.6,0.1-1.1,0.2-1.7,0.2c-10.8,1.6-20.3,3.4-28,2.1c-0.4-0.1-0.8-0.1-1.2-0.2
					c-2.4-0.5-4.6-1.4-6.7-2.7c-1.6-1-2.9-2.2-4.1-3.6c-0.2-0.2-0.3-0.4-0.4-0.5c-2.6-3.3-4.1-7.2-4.9-11.2c0-0.2-0.1-0.4-0.1-0.6
					c-0.4-2.3-0.7-4.7-0.8-6.8c1.8,4.3,5.9,9.3,14.6,14.1c20.7,11.3,30.9,4.1,37.8-5.4c6.9-9.5,9-17.8,13-20.7
					c4-2.8-7,12.1-2.7,22.8c4.3,10.8,11.5,4.8,27.4,5.1c10.5,0.2,16.1-9.2,15.9-19.3c0,0.1,0.1,0.2,0.1,0.4c0,0.2,0.1,0.4,0.1,0.6
					C279.1,190,279.4,193.3,279,196.5z"/>
				<path class="st19" d="M230.9,138.2c-0.2,3.5,0,7.4,0.5,11c0.7,4.9,1.8,9.5,2.6,12.5c0.6,2.1,1,3.4,1,3.4s-2.2-0.5-6.2-1
					c-2.9-0.4-6.9-0.7-11.7-0.8c-11.3-0.3-13.1,5.9-23.9,10.7c-10.7,4.8-20.3,3.2-20.3,3.2s-0.2-2.4-0.1-7.8
					c0.1-5,0.4-12.4,1.5-22.8c2.1-21.7,5.7-53.4,18.5-62.5c7.3-5.1,13.8-6.1,18.4-7.1c4-0.9,6.4-0.9,6.4-0.9s7.9,3.4,10.4,6.6
					c0.8,1,2.5,2.4,4.5,4.2c4.8,4.4,11.1,11.2,9.6,19.6C240,118.4,231.7,126.4,230.9,138.2z"/>
				<path class="st22" d="M232.5,87c-0.6,4-6.7,9.8-14.4,4.8c-7.1-4.6-7.2-12.2-6.9-14.7c4-0.9,6.4-0.9,6.4-0.9s7.9,3.4,10.4,6.6
					C228.8,83.7,230.5,85.1,232.5,87z"/>
				<path class="st7" d="M235.9,78.4c-2.3,1.2-5.4,3.2-6.1,6.1c-0.2,1.1-0.7,2.2-1.5,3.2c-1.3,1.8-3.5,2.9-6.7,1.9
					c-5.9-1.8-9-10.5-5.8-13.4c3.1-2.9,8.7-14.4,8.7-14.4s2.1,1.7,4.5,3.9C233.7,70,239.6,76.4,235.9,78.4z"/>
				<path class="st1" d="M235.9,78.4c-2.3,1.2-5.4,3.2-6.1,6.1c-0.2,1.1-0.7,2.2-1.5,3.2c-0.3-0.2-0.6-0.4-0.9-0.7
					c-1.3-1.7-0.5-4.1-1-6.2c-0.4-1.8-1.8-3.2-2.6-4.9c-1.5-3.1-1.1-7.1,1.2-9.7l3.9-0.4c0,0,0.1,0,0.1,0
					C233.7,70,239.6,76.4,235.9,78.4z"/>
				<path class="st7" d="M259.1,55.2c0,1.1-0.1,2.2-0.4,3.3c-0.6,3-2.1,6.1-4.5,8.9c-6.2,7.2-7.9,14.5-16,14.1
					c-2-0.1-4.3-0.7-7.2-1.9c-3.9-1.5-6-5.3-6.6-10c-0.6-5,0.7-11.1,3.8-16.4c5.9-10.3,16.8-15.1,24.2-10.8
					C256.7,44.9,259.2,49.8,259.1,55.2z"/>
				<path class="st25" d="M237,52c-0.3,0.2-0.5,0.5-0.8,0.7c-3.8,3-9.6,5.4-9.6,5.4c-1.6,1.4-1.2,3.4-1.5,5.3c-0.2,2-1.8,4-3.4,3.6
					c-2.1-0.4-2.5-1.9-3.2-3.9c-0.3-0.8-0.6-1.7-1.1-2.7c-0.1-0.2-0.2-0.4-0.3-0.6c-2.1-3.7,2.2-4.2,1.1-9.6
					c-0.1-0.5-0.1-1.1-0.1-1.6c0.1-1.4,0.6-2.7,1.4-3.8c0.4-0.6,0.9-1.2,1.4-1.7c0.6-0.6,1.2-1.2,1.7-1.6c0.9-0.7,1.5-1.2,1.5-1.2
					s3.6-0.1,8.6,2.4c2.3,1.2,4.3,2.5,5.3,4C239.1,48.5,239,50.3,237,52z"/>
				<path class="st22" d="M236.2,52.7c-3.8,3-9.6,5.4-9.6,5.4c-1.6,1.4-1.2,3.4-1.5,5.3c-0.2,2-1.8,4-3.4,3.6
					c-2.1-0.4-2.5-1.9-3.2-3.9c-0.3-0.8-0.6-1.7-1.1-2.7c0.7,0,1.5-0.1,2.1-0.3c0.8-0.3,1.5-1,1.7-1.8c0.3-0.9,0-2,0.5-2.8
					c0.6-0.9,1.9-1,2.5-1.8c0.5-0.7,0.3-1.8-0.4-2.5c-0.6-0.6-1.5-1-2.4-1.2c-1.1-0.3-2.4-0.7-3.4-1.4c0.1-1.4,0.6-2.7,1.4-3.8
					c0.4-0.6,0.9-1.2,1.4-1.7c0.6-0.6,1.2-1.2,1.7-1.6c0.1,0,0.2,0.1,0.3,0.1c2.2,0.7,4.5,1.5,6.7,2.2c0.6,0.2,1.1,0.4,1.7,0.7
					c0.9,0.5,1.5,1.4,1.8,2.3c0.2,0.5,0.2,1,0.4,1.5c0.3,0.6,0.9,1,1.3,1.5C235.6,50.7,236,51.7,236.2,52.7z"/>
				<path class="st18" d="M237,52c-3.7,3.3-10.4,6.1-10.4,6.1c-1.6,1.4-1.2,3.4-1.5,5.3c-0.2,2-1.8,4-3.4,3.6
					c-2.1-0.4-2.5-1.9-3.2-3.9c0.5,0.7,1.2,1.3,2.1,1.2c0.9-0.1,1.6-1,1.8-1.8c0.2-0.9,0.1-1.8,0.2-2.8c0.2-1.9,1.1-3.8,2.7-4.9
					c1.4-0.9,3.1-1.2,4.5-2.2c0.3-0.2,0.6-0.5,0.8-0.8c0.3-0.7-0.2-1.4-0.8-1.8c-0.6-0.3-1.4-0.4-2.1-0.5c-2-0.4-3.8-1.3-5.2-2.8
					c-0.4-0.5-0.8-1-1.3-1.3c-0.5-0.4-1.2-0.6-1.8-0.5c0,0,0,0,0,0c0.4-0.6,0.9-1.2,1.4-1.7c0.3,0.3,0.6,0.8,0.5,1.3
					c3.3-0.1,6.7,0.1,10,0.6c2.2,0.3,4.5,0.8,6.6,1.7C239.1,48.5,239,50.3,237,52z"/>
				<ellipse class="st7" cx="225.1" cy="56.7" rx="3.2" ry="5.3"/>
				<ellipse class="st1" cx="225.2" cy="57.2" rx="1.8" ry="3"/>
				<path class="st1" d="M259.1,55.2c0,1.1-0.1,2.2-0.4,3.3c-0.6,3-2.1,6.1-4.5,8.9c-6.2,7.2-7.9,14.5-16,14.1
					c1-0.3,2.2-0.3,2.5-0.5c2.4-0.8,4.4-2.4,5.9-4.4c1.5-2,2.5-4.3,3.2-6.7c0.4-1.4,0.7-2.8,1.6-3.9c0.8-1,1.9-1.6,2.9-2.4
					C256.8,61.5,258,58.2,259.1,55.2C259,55.2,259,55.2,259.1,55.2z"/>
				<path class="st19" d="M259.1,58.9c-16.8-4.5-28.4-10-34.3-13.2c-2.9-1.6-4.3-2.5-4.3-2.5c0.4-0.9,0.8-1.7,1.2-2.5
					c8.1-14.2,24.7-12,32.8-5.4c0.3,0.3,0.6,0.5,0.9,0.8c2.1,2,3.3,4.5,4,7.1C261.5,50.7,259.1,58.9,259.1,58.9z"/>
				<path class="st20" d="M259.1,58.9c-25.1-6.7-38.6-15.7-38.6-15.7c0.4-0.9,0.8-1.7,1.2-2.5c2.3,1.3,7.8,3.6,18.7,3.9
					c10.9,0.3,14.1-4.6,14-9.2c0.3,0.3,0.6,0.5,0.9,0.8C263.4,43.7,259.1,58.9,259.1,58.9z"/>
				<path class="st26" d="M259.1,58.9c-16.8-4.5-28.4-10-34.3-13.2c5.2,2.5,14,6,23.3,6.2c10.1,0.2,11.6-4.5,11.4-8.6
					C261.5,50.7,259.1,58.9,259.1,58.9z"/>
				<path class="st20" d="M237.7,159.9c0,0-1.4,0.7-3.7,1.8c-1.4,0.7-3.2,1.5-5.2,2.5c-2.9-0.4-6.9-0.7-11.7-0.8
					c-11.3-0.3-13.1,5.9-23.9,10.7c-10.7,4.8-20.3,3.2-20.3,3.2s-0.2-2.4-0.1-7.8c9.1-9.2,4.9-21.5,7.4-42.3c3-25,9.5-30.9,9.5-30.9
					s11-3.4,18.5,1.6c7.6,5-4.1,46.2,3.6,46.2c7.7,0,26,5.8,26,5.8l-6.5-0.7L237.7,159.9z"/>
				<path class="st7" d="M268.4,156.1c-0.1,2.4-1.5,4.8-4.7,6.6c-7.4,4.1-31.1-3.4-31.1-3.4l2.8-3.6l4.7-6c0,0,7.8-3.9,10.6-3.1
					c2.8,0.8-1.8,4.4-1.9,4.5c0.1,0,10.7-3.6,15.2-1.9C266.7,150.2,268.6,153,268.4,156.1z"/>
				<path class="st19" d="M183.4,156.9c-0.4-11.4-0.3-45.2,3.5-55.4c3.8-10.2,9.9-13.1,17.4-10.2s5.4,15.3,2.8,30.2
					c-2.6,14.9-3.6,21.2-3.4,23.8c0.2,2.6,37.8,2.9,37.8,2.9l0.3,15.8c0,0-28.9-0.4-42.9,0.5C184.9,165.4,183.6,161.8,183.4,156.9z"
					/>
				<g>
					<path class="st27" d="M263.8,156.6c-0.1,2.4-1.5,4.8-4.7,6.6c-7.4,4.1-31.1-3.4-31.1-3.4l2.8-3.6
						C236.2,158.6,254.7,165.6,263.8,156.6z"/>
					<g>
						<path class="st28" d="M292.7,180.7l-14.9,15.4l-13-6.1c0,0-1.3-10.1-0.4-10.6c0.8-0.4,16.1-5.5,18.2-4.2
							C284.7,176.5,292.7,180.7,292.7,180.7z"/>
						<path class="st28" d="M241,189.1l21.8,22.6c0.4,0.4,0.9,0.6,1.4,0.6h9.8L262,201.7c-1.2-1.1-1.3-2.9-0.2-4.1
							c0.6-0.6,1.4-1,2.2-1c0.7,0,1.4,0.2,1.9,0.7l16.9,15h7.6l-10.2-9c-1.2-1.1-1.3-2.9-0.2-4.1c0.6-0.6,1.4-1,2.2-1
							c0.7,0,1.4,0.2,1.9,0.7l15,13.3h8.6c0.7,0,1.3-0.3,1.6-0.8c0.5-0.7,0.6-1.8-0.2-2.6l-21.8-22.6c-0.4-0.4-0.9-0.6-1.4-0.6
							h-43.3C240.7,185.8,239.8,187.9,241,189.1z"/>
						<path class="st3" d="M284.5,189.1l-8.9,9.2l-12.9,13.4c-0.4,0.4-0.9,0.6-1.4,0.6h-11.6l6.5-7.4l4.1-4.6
							c0.5-0.5,0.7-1.2,0.7-1.9c0-0.8-0.3-1.6-1-2.2c-1.2-1.1-3-1-4.1,0.2l-4.2,4.7l-9.9,11.1h-8.8l10.3-11.6
							c0.5-0.5,0.7-1.2,0.7-1.9v0c0-0.8-0.3-1.6-1-2.1c-1.2-1.1-3-1-4.1,0.2l-2.2,2.5l-1.5,1.7l-9.9,11.2l-0.1,0.1H218
							c-1.5,0-2.3-1.5-1.9-2.7c0.1-0.2,0.2-0.5,0.4-0.7l9.7-10.1l12.1-12.6c0.4-0.4,0.9-0.6,1.4-0.6h43.3c0.7,0,1.3,0.3,1.6,0.8
							C285.2,187.3,285.2,188.4,284.5,189.1z"/>
						<path class="st28" d="M292.7,180.5c-0.4,0.4-0.9,0.6-1.4,0.6l-3.8,0l-39.5,0l0,0c-0.7,0-1.3-0.3-1.6-0.8
							c-0.5-0.7-0.6-1.8,0.2-2.6l21.8-22.7c0.4-0.4,0.9-0.6,1.4-0.6l3.8,0l39.5,0h0c1.8,0,2.7,2.1,1.4,3.4L292.7,180.5z"/>
						<path class="st29" d="M294,177.9"/>
						<polygon class="st11" points="312.1,149.4 274.9,149.4 246.4,177.9 283.4,184.1 						"/>
						<polygon class="st30" points="312.1,156.2 312.1,149.4 283.8,177.7 283.8,184.9 						"/>
						<polygon class="st31" points="261.4,155.8 215.3,155.8 220.4,160.8 263.5,160.8 						"/>
						<polygon class="st11" points="215.3,155.7 217.6,160.7 264.6,161.9 261.6,155.5 						"/>
						<path class="st30" d="M283.8,177.7l-22.2-22.2v7l22.3,22.3C283.9,184.8,283.8,177.7,283.8,177.7z"/>
						<path class="st3" d="M283.1,185c-0.2,0.2-0.4,0.4-0.7,0.6c-0.3,0.1-0.6,0.2-0.9,0.2h-43.3c-0.5,0-1.1-0.2-1.4-0.6L215,162.6
							c-0.2-0.2-0.4-0.5-0.5-0.7c-0.1-0.4-0.1-0.9,0-1.3c0.1-0.3,0.2-0.5,0.4-0.7c0.4-0.4,0.9-0.7,1.5-0.7h43.3
							c0.5,0,1.1,0.2,1.4,0.6l0.9,0.9l20.9,21.7C283.7,183.2,283.6,184.3,283.1,185z"/>
					</g>
					<path class="st32" d="M283.1,185c-0.2,0.2-0.4,0.4-0.7,0.6c-0.1,0.1-0.3,0.1-0.4,0.2c-0.2,0-0.3,0.1-0.5,0.1h-43.3
						c-0.5,0-1.1-0.2-1.4-0.6l-0.2-0.2L215,162.6c-0.2-0.2-0.4-0.5-0.5-0.7c0-0.4,0-0.9,0-1.3c0.1-0.3,0.2-0.5,0.4-0.7
						c2.6,3.7,16,21.5,37.2,19.5c14.4-1.3,13.1-11.2,9.9-18.7l20.9,21.7c0.2,0.2,0.3,0.4,0.4,0.6C283.6,183.7,283.5,184.4,283.1,185
						z"/>
					<path class="st33" d="M258.4,159.2c-1.3,3.4-5.1,9.2-16.8,9.8c-13.3,0.7-21.3-6.7-24-9.8H258.4z"/>
					<path class="st32" d="M284.5,189.1l-2.2,2.3l-6.6,6.9c-19.8-12-38.1-6-49.4,0.6l11.3-11.8l0.8-0.8c0.3-0.3,0.6-0.5,0.9-0.6
						c0.2,0,0.3-0.1,0.5-0.1h43.3c0.7,0,1.3,0.3,1.6,0.8C285.2,187.3,285.2,188.4,284.5,189.1z"/>
					<path class="st33" d="M251.9,201.3l-9.9,11.1h-8.8l10.3-11.6c0.5-0.5,0.7-1.2,0.7-1.9v0C246.9,199.1,249.4,199.9,251.9,201.3z"
						/>
					<path class="st33" d="M260.8,212.4h-11.1l6.5-7.4C257.9,206.9,259.5,209.4,260.8,212.4z"/>
					<path class="st28" d="M284.5,189.1l-2.2,2.3c-3.1-1.8-9.6-4.4-21.3-5.1c-13-0.8-20.3,0.2-23.4,0.9l0.8-0.8
						c0.3-0.3,0.6-0.5,0.9-0.6h-1.1c-0.5,0-1.1-0.2-1.4-0.6l-0.2-0.2c5.2,0.5,16.3-0.4,27.8-1.6c8.5-0.9,15.1-0.7,18.9-0.3
						c0.3,0.7,0.2,1.4-0.2,2c-0.2,0.2-0.4,0.4-0.7,0.6c-0.1,0.1-0.3,0.1-0.4,0.2h1c0.7,0,1.3,0.3,1.6,0.8
						C285.2,187.3,285.2,188.4,284.5,189.1z"/>
				</g>
				<path class="st33" d="M235.5,201.1l-9.9,11.2h-3.3c-1.5,0-2.3-1.5-1.9-2.7C223.9,207.1,229.4,203.5,235.5,201.1z"/>
			</g>
			<polygon class="st22" points="222,92.8 219.6,122.5 222.6,122.6 224.7,92.4 			"/>
		</g>
		<g>
			<g>
				<path class="st15" d="M40,5.5c0,0,2.7-34.2-19.7-41.6C20.3-36.1,23.5-18.2,40,5.5z"/>
				<path class="st16" d="M56.4,1.8c0,0,20.3-13.9,42.1,2.2c0,0-2.3-15-19.4-17.1C62-15.3,56.4,1.8,56.4,1.8z"/>
				<path class="st16" d="M37,56.8c0,0,0.6-12.6-8.2-18.7c-12.1-8.5-21,0.9-21,0.9S29.2,42.9,37,56.8z"/>
				<path class="st16" d="M54.5,52.6c0,0,7.1-18.4,23.1-12C77.6,40.6,69.7,45.6,54.5,52.6z"/>
				<path class="st15" d="M54.2,83.7c0,0,8.2-9.7,17.5-5.4C71.7,78.4,71.2,83.2,54.2,83.7z"/>
				<path class="st16" d="M34.1,81.8c0,0-7.3-10.3-15.7-5.3c0,0-0.6,1.4,5.5,2.2C29.9,79.4,34.1,81.8,34.1,81.8z"/>
				<path class="st16" d="M67.2,18.5c0,0,11.7-11.2,24.6-0.3C91.9,18.2,79.1,19.5,67.2,18.5z"/>
				<path class="st15" d="M55.3,21.7c0,0-0.6-10.6,8.6-12.7C64,9,62.2,17.9,55.3,21.7z"/>
				<path class="st16" d="M60.2,26.5c0,0,8.4-5.3,18,2C78.2,28.6,70.8,31.6,60.2,26.5z"/>
				<path class="st15" d="M25.8,12.1c0,0-7.3-15.2-25.1-9C0.7,3.1,7.7,11.5,25.8,12.1z"/>
				<path class="st16" d="M36,18.5c0,0,4.3-7.2-2-15.1C34,3.4,30.2,11.5,36,18.5z"/>
				<path class="st16" d="M29.5,23.5c0,0-12.5-8-24.6,0.8C4.9,24.3,15.8,31.6,29.5,23.5z"/>
				<path class="st16" d="M47.4,15.2c0,0-6.8-12.1,3.5-21.2C50.9-6,54.2,3.8,47.4,15.2z"/>
				<path class="st15" d="M44.7-5.2c0,0-1.6-23.8,18.1-29.7C62.8-34.9,59-17.8,44.7-5.2z"/>
				<path class="st16" d="M29.2,9.7c0,0,4.7-11.5-0.5-20.3C28.8-10.6,21.6-1,29.2,9.7z"/>
				<path class="st16" d="M51.7,64.8c0,0,4.8-11.3,20.9-6.6C72.5,58.2,68.5,64.5,51.7,64.8z"/>
				<path class="st16" d="M49.3,55.3c0,0-4.6-12.4,5-18.8C54.3,36.5,56.9,45.1,49.3,55.3z"/>
				<path class="st16" d="M29.9,67.5c0,0-6.2-12.3-20.7-6.6C9.2,61,15.3,69,29.9,67.5z"/>
				<path class="st16" d="M35.3,68c0,0-2.8-5.1-9.6-11.1C25.7,56.9,34.8,53.7,35.3,68z"/>
				<path class="st16" d="M48.6,81.7c0,0,0.1-11.5,12.3-12.6C60.9,69.2,59.6,76.8,48.6,81.7z"/>
				<path class="st16" d="M36.9,98.5c0,0-3.3-9.8-15.9-6.6C21,91.9,23.9,98.8,36.9,98.5z"/>
				<path class="st16" d="M49.7,99.9c0,0,2.7-9.4,13.8-8.2C63.5,91.7,62.8,99.5,49.7,99.9z"/>
				<g>
					<path class="st17" d="M90.8-4.1c0,0-2.8-1.9-6.9-3.4c-2.4-0.8-4.8-1.4-7.2-1.5C73.8-9.3,71-9,68.4-8.1
						c-7.8,2.5-13.8,9.7-17.9,21.2c-0.8,2.3-1.5,4.7-2.2,7.4c-0.2-1.2-0.4-3.1-0.5-5.3c-0.2-3.6-0.1-8.9,1.2-14
						c0-0.2-0.1-0.3-0.2-0.3c-0.2,0-0.3,0.1-0.3,0.2c-1.3,5.1-1.4,10.5-1.2,14.1c0.2,3.9,0.7,6.7,0.7,6.7c0,0,0,0,0,0.1
						c-1.5,6.7-2.5,14.7-3,23.8c-0.5,9.2-0.4,19.5,0.1,30.7c-0.1,0.3-0.1,0.7-0.2,1c-1.2,7.7-1.4,15.1-1.3,20
						c0.1,5.3,0.5,8.8,0.5,8.8c0,0.1,0.1,0.3,0.3,0.3c0,0,0,0,0,0c0.2,0,0.3-0.2,0.3-0.3c0,0-0.4-3.5-0.5-8.7
						c-0.1-4.5,0-11.1,1-18.2c0.1,1.1,0.1,2.1,0.2,3.2c0.3,4.8,0.7,9.5,1.1,13.8c-0.3,1.7-0.5,3.6-0.5,5.5c-0.1,4.3,0.7,7.6,0.7,7.6
						c0,0.1,0.1,0.2,0.3,0.2c0,0,0,0,0.1,0c0.2,0,0.2-0.2,0.2-0.3c0,0-0.7-3.2-0.7-7.5c0-0.9,0.1-2,0.2-3.1c0.2,1.6,0.3,3.2,0.5,4.8
						c-0.3,0.5-0.4,0.9-0.4,0.9c-0.1,0.1,0,0.3,0.2,0.4c0,0,0.1,0,0.1,0c0.1,0,0.2-0.1,0.3-0.2c1.3,12,2.6,20.1,2.6,20.2
						c0,0.1,0.1,0.2,0.3,0.2c0,0,0,0,0,0c0.2,0,0.3-0.2,0.2-0.3c0-0.1-1.4-8.6-2.7-21.1c0.4-0.8,1.1-2.1,2.2-3.5
						c1.7-2.1,4.7-4.9,9.3-5.7c0.2,0,0.3-0.2,0.2-0.3c0-0.2-0.2-0.3-0.3-0.2c-2.1,0.4-4,1.2-5.8,2.3c-1.4,0.9-2.7,2.1-3.8,3.5
						c-0.8,1-1.4,2-1.9,2.8c-0.2-2-0.4-4-0.6-6.2c0.5-2.8,1.6-5.9,3.5-8.5c3.2-4.4,8.2-6.9,14.8-7.6c0.2,0,0.3-0.2,0.3-0.3
						c0-0.2-0.2-0.3-0.3-0.3c-6.8,0.7-12,3.3-15.2,7.8c-1.4,2-2.5,4.3-3.2,7c-0.1-0.9-0.2-1.8-0.2-2.7c0,0,0.1-0.1,0.1-0.2
						c0,0,0.1-3.3,1.2-7.1c1-3.5,3-8.1,6.9-10.6c0.1-0.1,0.2-0.3,0.1-0.4c-0.1-0.1-0.3-0.2-0.4-0.1c-1.8,1.1-3.4,2.8-4.7,4.9
						c-1,1.7-1.9,3.7-2.5,6c-0.5,1.7-0.7,3.2-0.9,4.4c-0.2-2.1-0.3-4.2-0.5-6.4c-0.1-1.9-0.2-3.9-0.3-5.9c0.3-2,0.8-4,1.3-6.1
						c0.2-0.3,1.4-2.2,3.5-4.3c2.2-2.1,5.9-4.7,11.1-5.6c0.2,0,0.3-0.2,0.2-0.3c0-0.2-0.2-0.3-0.3-0.2c-2.4,0.4-4.6,1.2-6.7,2.3
						c-1.7,0.9-3.3,2.1-4.7,3.4c-1.2,1.1-2.1,2.2-2.7,3c3.1-11.3,9.4-22.6,22-26c0.2,0,0.2-0.2,0.2-0.3c0-0.2-0.2-0.2-0.3-0.2
						c-7.1,2-12.9,6.5-17.1,13.7c-0.8,1.4-1.6,2.8-2.3,4.4c-0.3-2.3-0.9-9.3,1.4-15c0.1-0.1,0-0.3-0.2-0.4c-0.1-0.1-0.3,0-0.4,0.2
						c-1.5,3.7-1.7,7.8-1.7,10.7c0,3.1,0.4,5.4,0.4,5.4c0,0,0,0.1,0,0.1c-1.6,3.8-2.9,8-3.8,12.8c-0.4-10.2-0.5-21.5,0.3-32.3
						c0,0,0.1-0.1,0.1-0.2c0,0,0-0.1,0-0.1c0.8-2,3.4-7.7,8.3-13.1l0,0c0,0,2-0.9,5.2-1.4c3-0.5,7.6-0.7,12.7,0.9
						c0.1,0,0.3,0,0.4-0.2c0-0.1,0-0.3-0.2-0.4c-5.3-1.6-10-1.4-13-0.9c-1.9,0.3-3.4,0.7-4.3,1c5.5-5.8,13.6-11,25.1-11
						c0.1,0,0.1,0,0.2,0c0,0,0,0,0,0c0.2,0,0.3-0.1,0.3-0.3c0-0.2-0.1-0.3-0.3-0.3c-5.6,0-10.9,1.2-15.7,3.6
						c-3.7,1.9-7.1,4.5-10.2,7.7c0.1-0.8,0.3-2.2,0.7-3.8c0.6-2.5,1.9-6.2,4.5-9.5c0.1-0.1,0.1-0.3,0-0.4c-0.1-0.1-0.3-0.1-0.4,0
						c-2.6,3.4-3.9,7.1-4.6,9.7c-0.6,2.3-0.7,4.1-0.8,4.6c-4.3,4.7-6.8,9.6-8,12.2c0.8-9.9,2.3-19.2,5-26.8
						C55,1.9,60.9-5.1,68.5-7.6C74.3-9.4,79.9-8.3,83.6-7c4.1,1.4,6.8,3.3,6.8,3.3c0.1,0.1,0.3,0.1,0.4-0.1
						C90.9-3.9,90.9-4.1,90.8-4.1z M46,41.5C46,41.5,46,41.5,46,41.5l-0.1,0c0,0,0,0,0,0L46,41.5z"/>
					<path class="st17" d="M43.3,49.8c0-2.2,0-4.3-0.1-6.4c0,0,0-0.1,0-0.1c0,0,0-0.1,0-0.2c-0.2-9.4-0.7-18.1-1.6-26
						c0-0.7-0.1-5.8,1-12.5c1.2-6.7,3.9-16.6,10.1-25.5c0.1-0.1,0.1-0.3-0.1-0.4c-0.1-0.1-0.3-0.1-0.4,0.1c-2.8,4-5.1,8.4-6.9,13.3
						C44-3.9,42.9,0.2,42.1,4.6c-0.6,3.3-0.8,6.2-1,8.4c-0.4-2.8-0.8-5.4-1.2-8c-1.3-7.3-2.9-13.7-4.9-18.9
						c-2.2-5.8-4.9-10.4-7.9-13.7c-0.1-0.1-0.3-0.1-0.4,0c-0.1,0.1-0.1,0.3,0,0.4C32.5-21,36.8-10.1,39.4,5.1
						c0.7,3.8,1.2,7.8,1.7,12.1c0,0.1,0,0.1,0,0.1c0,0,0,0,0,0.1c0.7,6.7,1.2,14,1.4,21.8c0-0.2-0.1-0.5-0.2-0.7
						c-0.6-2.7-1.8-6.8-4-11.2c-0.1-0.2-0.2-0.4-0.3-0.6c-0.5-2-2.3-9.8-2.7-16.3c0-0.2-0.1-0.3-0.3-0.3c-0.2,0-0.3,0.1-0.3,0.3
						c0.3,5.1,1.5,11.1,2.3,14.4c-1.6-2.8-3.4-5.3-5.5-7.6c-0.2-0.7-2.9-8.9-3.3-16.5c0-0.2-0.1-0.3-0.3-0.3c-0.2,0-0.3,0.1-0.3,0.3
						c0.3,6.2,2.1,12.8,2.9,15.5c-0.6-0.6-1.2-1.2-1.8-1.8C24,9.9,18.2,6.6,11.5,4.6c-0.2,0-0.3,0-0.4,0.2c0,0.2,0,0.3,0.2,0.4
						c14.3,4.2,22,13.7,26,21.3c-0.9-0.6-2.6-1.5-5-2.3c-2.2-0.7-4.5-1.2-7-1.5c-3-0.3-6.2-0.2-9.5,0.2c-0.2,0-0.3,0.2-0.2,0.3
						c0,0.2,0.2,0.3,0.3,0.2c7.2-1,12.8,0.1,16.2,1.2c3.7,1.2,5.6,2.7,5.7,2.8l0.1,0.1c3.8,7.6,4.7,14.4,4.8,15.6
						c0,2.2,0.1,4.4,0.1,6.7c0,11-0.4,21.6-0.9,30.6c-0.2-2.2-0.4-4.5-0.7-6.8c-1.3-9.7-3.7-17.7-7-23.7c-4.2-7.5-10-11.9-17.1-13
						c-0.2,0-0.3,0.1-0.3,0.2c0,0.2,0.1,0.3,0.2,0.3c7,1.1,12.6,5.3,16.7,12.7c3.3,5.9,5.6,13.8,7,23.5c0.3,2.1,0.5,4.1,0.7,6.1
						c-0.7-1.4-2-3.7-4.1-6.2c-0.2-0.2-0.4-0.4-0.6-0.6c0,0,0-0.1,0-0.1c0-0.1-0.1-2-0.8-4.5c-0.6-2.3-1.9-5.5-4.2-7.9
						c-0.1-0.1-0.3-0.1-0.4,0c-0.1,0.1-0.1,0.3,0,0.4c2.3,2.3,3.5,5.4,4.1,7.6c0.4,1.6,0.6,3,0.7,3.8c-1.7-1.8-3.5-3.3-5.5-4.7
						c-3.1-2-6.6-3.5-10.4-4.3c-0.2,0-0.3,0.1-0.3,0.2c0,0.2,0.1,0.3,0.2,0.3c8.4,1.8,13.8,6.4,16.8,10c3.3,3.9,4.6,7.4,4.6,7.5
						c0,0,0,0,0,0.1c0.1,1.2,0.2,2.3,0.2,3.5c-0.6,8.5-1.2,15.1-1.5,18.7c0-0.2,0-0.5,0-0.7c0,0,0-0.1,0-0.1c0-0.7,0.1-1.3,0.1-2
						c0-3.1-0.2-6-0.8-8.6c-0.7-3.3-1.8-6.1-3.4-8.4c-2.8-4.1-7-6.6-12.4-7.4c-0.2,0-0.3,0.1-0.3,0.2c0,0.2,0.1,0.3,0.2,0.3
						c5.3,0.8,9.3,3.2,12,7.1c3.5,5.1,4.1,11.9,4.1,16.7c0,0.3,0,0.6,0,0.9c-0.4-0.8-1.1-1.9-2.2-3.1c-1.1-1.2-2.3-2.2-3.7-3
						c-1.7-1-3.5-1.5-5.5-1.7c-0.2,0-0.3,0.1-0.3,0.3c0,0.2,0.1,0.3,0.3,0.3c4.3,0.4,7.2,2.7,8.8,4.5c1.6,1.8,2.4,3.5,2.6,3.9
						c-0.2,4.2-0.9,7.2-0.9,7.2c0,0.2,0.1,0.3,0.2,0.3c0,0,0,0,0.1,0c0.1,0,0.2-0.1,0.3-0.2c0,0,0.3-1.4,0.6-3.7
						c0,0.1,0.1,0.2,0.2,0.2c0,0,0,0,0,0c0.1,0,0.3-0.1,0.3-0.3c0-0.1,0.7-6.3,1.4-16c0,2.1,0,4.1,0,5.8c-0.1,6-0.5,10.1-0.5,10.1
						c0,0.2,0.1,0.3,0.3,0.3c0,0,0,0,0,0c0.1,0,0.3-0.1,0.3-0.3c0,0,0.4-4.1,0.5-10.2c0.1-3.1,0.1-7-0.2-11.4
						C42.8,75.1,43.4,62.7,43.3,49.8z"/>
				</g>
				<g>
					<path class="st34" d="M62.8,109c0,1.2,0,2.4,0,3.6c0,1.1-0.1,2.3-0.1,3.4c-0.1,1.4-0.2,2.7-0.3,4c-0.3,4-0.8,7.7-1.4,11.3
						c-1.1,6-2.5,11.3-4.3,15.7c-0.6,1.4-1.2,2.8-1.8,4c-0.1,0.1-0.1,0.3-0.2,0.4c-0.6,1.1-1.2,2-1.8,2.9H34.7c-0.7-1-1.4-2.1-2-3.4
						c-0.6-1.2-1.3-2.6-1.8-4c-2.8-7.1-4.9-16.4-5.7-27c-0.1-1.3-0.2-2.7-0.3-4c-0.1-1.1-0.1-2.3-0.1-3.4c0-1.2,0-2.4,0-3.6
						c0-0.2,0-0.3,0-0.5c0-1.7,0-3.5,0.1-5.2h37.9c0.1,1.7,0.1,3.4,0.1,5.2C62.8,108.7,62.8,108.9,62.8,109z"/>
					<path class="st11" d="M62.8,109c0,1.2,0,2.4,0,3.6h-38c0-1.2,0-2.4,0-3.6c0-0.2,0-0.3,0-0.5h38.1
						C62.8,108.7,62.8,108.9,62.8,109z"/>
					<path class="st11" d="M62.6,116c-0.1,1.4-0.2,2.7-0.3,4H25.1c-0.1-1.3-0.2-2.7-0.3-4H62.6z"/>
					<path class="st11" d="M56.6,147.1c-0.6,1.4-1.2,2.8-1.8,4H32.7c-0.6-1.2-1.3-2.6-1.8-4H56.6z"/>
				</g>
			</g>
			<path class="st35" d="M62.8,109c0,1.2,0,2.4,0,3.6c0,1.1-0.1,2.3-0.1,3.4c-0.1,1.4-0.2,2.7-0.3,4c-0.3,4-0.8,7.7-1.4,11.3
				c-20.7,3.2-25.8-21.2-26.8-28h28.5c0.1,1.7,0.1,3.4,0.1,5.2C62.8,108.7,62.8,108.9,62.8,109z"/>
			<path class="st36" d="M54.5,151.5c-0.6,1.1-1.2,2-1.8,2.9H34.7c-0.7-1-1.4-2.1-2-3.4c-0.6-1.2-1.3-2.6-1.8-4
				c-2.8-7.1-4.9-16.4-5.7-27c-0.1-1.3-0.2-2.7-0.3-4c-0.1-1.1-0.1-2.3-0.1-3.4c0-1.2,0-2.4,0-3.6c0-0.2,0-0.3,0-0.5
				c0-1.7,0-3.5,0.1-5.2h4.3C29.7,112.6,33.3,143.9,54.5,151.5z"/>
		</g>
		<g>
			<g>
				<path class="st15" d="M426.5,9.3c0,0-2.7-34.2,19.7-41.6C446.1-32.3,442.9-14.5,426.5,9.3z"/>
				<path class="st16" d="M410,5.6c0,0-20.3-13.9-42.1,2.2c0,0,2.3-15,19.4-17.1S410,5.6,410,5.6z"/>
				<path class="st16" d="M429.5,60.6c0,0-0.6-12.6,8.2-18.7c12.1-8.5,21,0.9,21,0.9S437.2,46.7,429.5,60.6z"/>
				<path class="st16" d="M412,56.4c0,0-7.1-18.4-23.1-12C388.8,44.4,396.8,49.4,412,56.4z"/>
				<path class="st15" d="M412.3,87.5c0,0-8.2-9.7-17.5-5.4C394.8,82.1,395.3,87,412.3,87.5z"/>
				<path class="st16" d="M432.3,85.6c0,0,7.3-10.3,15.7-5.3c0,0,0.6,1.4-5.5,2.2C436.6,83.2,432.3,85.6,432.3,85.6z"/>
				<path class="st16" d="M399.2,22.3c0,0-11.7-11.2-24.6-0.3C374.6,22,387.4,23.3,399.2,22.3z"/>
				<path class="st15" d="M411.1,25.4c0,0,0.6-10.6-8.6-12.7C402.5,12.8,404.2,21.7,411.1,25.4z"/>
				<path class="st16" d="M406.3,30.3c0,0-8.4-5.3-18,2C388.3,32.3,395.7,35.4,406.3,30.3z"/>
				<path class="st15" d="M440.7,15.8c0,0,7.3-15.2,25.1-9C465.8,6.9,458.8,15.3,440.7,15.8z"/>
				<path class="st16" d="M430.4,22.3c0,0-4.3-7.2,2-15.1C432.5,7.2,436.3,15.3,430.4,22.3z"/>
				<path class="st16" d="M437,27.3c0,0,12.5-8,24.6,0.8C461.5,28.1,450.7,35.4,437,27.3z"/>
				<path class="st16" d="M419,19c0,0,6.8-12.1-3.5-21.2C415.5-2.2,412.3,7.5,419,19z"/>
				<path class="st15" d="M421.8-1.4c0,0,1.6-23.8-18.1-29.7C403.7-31.1,407.5-14.1,421.8-1.4z"/>
				<path class="st16" d="M437.2,13.5c0,0-4.7-11.5,0.5-20.3C437.7-6.8,444.9,2.8,437.2,13.5z"/>
				<path class="st16" d="M414.8,68.6c0,0-4.8-11.3-20.9-6.6C393.9,62,397.9,68.2,414.8,68.6z"/>
				<path class="st16" d="M417.2,59.1c0,0,4.6-12.4-5-18.8C412.2,40.3,409.5,48.9,417.2,59.1z"/>
				<path class="st16" d="M436.6,71.3c0,0,6.2-12.3,20.7-6.6C457.3,64.7,451.1,72.8,436.6,71.3z"/>
				<path class="st16" d="M431.2,71.7c0,0,2.8-5.1,9.6-11.1C440.7,60.6,431.6,57.5,431.2,71.7z"/>
				<path class="st16" d="M417.8,85.5c0,0-0.1-11.5-12.3-12.6C405.5,72.9,406.8,80.5,417.8,85.5z"/>
				<path class="st16" d="M429.5,102.3c0,0,3.3-9.8,15.9-6.6C445.4,95.7,442.5,102.6,429.5,102.3z"/>
				<path class="st16" d="M416.8,103.7c0,0-2.7-9.4-13.8-8.2C402.9,95.5,403.7,103.3,416.8,103.7z"/>
				<g>
					<path class="st17" d="M375.6,0c0.1,0.1,0.3,0.2,0.4,0.1c0,0,2.8-1.9,6.8-3.3c3.7-1.3,9.4-2.5,15.1-0.6
						c7.6,2.5,13.5,9.5,17.5,20.9c2.7,7.6,4.2,16.9,5,26.8c-1.2-2.7-3.7-7.5-8-12.2c0-0.5-0.2-2.3-0.8-4.6c-0.6-2.6-2-6.3-4.6-9.7
						c-0.1-0.1-0.3-0.1-0.4,0c-0.1,0.1-0.1,0.3,0,0.4c2.6,3.3,3.8,6.9,4.5,9.5c0.4,1.6,0.6,3,0.7,3.8c-3.1-3.3-6.5-5.8-10.2-7.7
						c-4.8-2.4-10.1-3.7-15.7-3.6c-0.2,0-0.3,0.1-0.3,0.3c0,0.2,0.1,0.3,0.3,0.3c0,0,0,0,0,0c0.1,0,0.1,0,0.2,0
						c11.4,0,19.6,5.2,25.1,11c-0.9-0.3-2.4-0.7-4.3-1c-3-0.5-7.7-0.7-13,0.9c-0.1,0-0.2,0.2-0.2,0.4c0,0.2,0.2,0.2,0.4,0.2
						c5.1-1.6,9.7-1.4,12.7-0.9c3.2,0.5,5.2,1.4,5.2,1.4l0,0c4.9,5.5,7.5,11.1,8.3,13.1c0,0,0,0.1,0,0.1c0,0.1,0.1,0.1,0.1,0.2
						c0.8,10.8,0.7,22.1,0.3,32.3c-0.9-4.7-2.2-9-3.8-12.8c0,0,0-0.1,0-0.1c0,0,0.4-2.3,0.4-5.4c0-2.9-0.3-7-1.7-10.7
						c-0.1-0.1-0.2-0.2-0.4-0.2c-0.1,0.1-0.2,0.2-0.2,0.4c2.2,5.6,1.7,12.7,1.4,15c-0.7-1.6-1.5-3-2.3-4.4
						c-4.2-7.1-10-11.7-17.1-13.7c-0.2,0-0.3,0-0.3,0.2c0,0.2,0,0.3,0.2,0.3c12.5,3.4,18.8,14.8,22,26c-0.6-0.8-1.5-1.9-2.7-3
						c-1.4-1.4-3-2.5-4.7-3.4c-2.1-1.1-4.4-1.9-6.7-2.3c-0.2,0-0.3,0.1-0.3,0.2c0,0.2,0.1,0.3,0.2,0.3c5.2,0.9,8.9,3.5,11.1,5.6
						c2.2,2,3.3,3.9,3.5,4.3c0.5,2.1,0.9,4.1,1.3,6.1c-0.1,2-0.2,4-0.3,5.9c-0.1,2.2-0.3,4.3-0.5,6.4c-0.2-1.2-0.5-2.8-0.9-4.4
						c-0.6-2.3-1.5-4.3-2.5-6c-1.3-2.1-2.9-3.8-4.7-4.9c-0.1-0.1-0.3,0-0.4,0.1c-0.1,0.1,0,0.3,0.1,0.4c4,2.4,6,7.1,6.9,10.6
						c1.1,3.8,1.2,7.1,1.2,7.1c0,0.1,0,0.1,0.1,0.2c-0.1,0.9-0.2,1.8-0.2,2.7c-0.7-2.7-1.8-5-3.2-7c-3.3-4.5-8.4-7.2-15.2-7.8
						c-0.2,0-0.3,0.1-0.3,0.3c0,0.2,0.1,0.3,0.3,0.3c6.7,0.6,11.7,3.2,14.8,7.6c1.9,2.6,2.9,5.7,3.5,8.5c-0.2,2.1-0.4,4.2-0.6,6.2
						c-0.4-0.8-1.1-1.8-1.9-2.8c-1.1-1.4-2.4-2.6-3.8-3.5c-1.8-1.2-3.7-2-5.8-2.3c-0.2,0-0.3,0.1-0.3,0.2c0,0.2,0.1,0.3,0.2,0.3
						c4.6,0.8,7.6,3.5,9.3,5.7c1.1,1.3,1.8,2.6,2.2,3.5c-1.4,12.5-2.7,21-2.7,21.1c0,0.2,0.1,0.3,0.2,0.3c0,0,0,0,0,0
						c0.1,0,0.3-0.1,0.3-0.2c0-0.1,1.3-8.2,2.6-20.2c0,0.1,0.1,0.2,0.3,0.2c0,0,0.1,0,0.1,0c0.1-0.1,0.2-0.2,0.2-0.4
						c0,0-0.1-0.4-0.4-0.9c0.2-1.5,0.3-3.1,0.5-4.8c0.1,1.1,0.2,2.1,0.2,3.1c0.1,4.2-0.7,7.5-0.7,7.5c0,0.2,0.1,0.3,0.2,0.3
						c0,0,0,0,0.1,0c0.1,0,0.2-0.1,0.3-0.2c0,0,0.7-3.3,0.7-7.6c0-1.9-0.2-3.8-0.5-5.5c0.4-4.3,0.8-9,1.1-13.8
						c0.1-1.1,0.1-2.1,0.2-3.2c1,7,1.1,13.7,1,18.2c-0.1,5.2-0.5,8.7-0.5,8.7c0,0.2,0.1,0.3,0.3,0.3c0,0,0,0,0,0
						c0.1,0,0.3-0.1,0.3-0.3c0,0,0.4-3.5,0.5-8.8c0.1-4.9-0.1-12.3-1.3-20c-0.1-0.3-0.1-0.7-0.2-1c0.6-11.2,0.6-21.5,0.1-30.7
						c-0.5-9.1-1.5-17-3-23.8c0,0,0,0,0-0.1c0,0,0.5-2.8,0.7-6.7c0.2-3.6,0.1-9-1.2-14.1c0-0.2-0.2-0.2-0.3-0.2
						c-0.2,0-0.2,0.2-0.2,0.3c1.3,5,1.3,10.4,1.2,14c-0.1,2.3-0.3,4.2-0.5,5.3c-0.6-2.7-1.4-5.2-2.2-7.4
						c-4.1-11.6-10.1-18.7-17.9-21.2c-2.6-0.8-5.4-1.2-8.3-0.9c-2.3,0.2-4.7,0.7-7.2,1.5c-4.1,1.4-6.9,3.3-6.9,3.4
						C375.5-0.3,375.5-0.1,375.6,0z M420.6,45.2C420.6,45.2,420.6,45.2,420.6,45.2l-0.1,0c0,0,0,0,0,0L420.6,45.2z"/>
					<path class="st17" d="M423.1,53.6c0-2.2,0-4.3,0.1-6.4c0,0,0-0.1,0-0.1c0,0,0-0.1,0-0.2c0.2-9.4,0.7-18.1,1.6-26
						c0-0.7,0.1-5.8-1-12.5c-1.2-6.7-3.9-16.6-10.1-25.5c-0.1-0.1-0.1-0.3,0.1-0.4c0.1-0.1,0.3-0.1,0.4,0.1c2.8,4,5.1,8.4,6.9,13.3
						c1.4,3.9,2.5,8.1,3.3,12.4c0.6,3.3,0.8,6.2,1,8.4c0.4-2.8,0.8-5.4,1.2-8c1.3-7.3,2.9-13.7,4.9-18.9c2.2-5.8,4.9-10.4,7.9-13.7
						c0.1-0.1,0.3-0.1,0.4,0c0.1,0.1,0.1,0.3,0,0.4C434-17.2,429.7-6.3,427,8.9c-0.7,3.8-1.2,7.8-1.7,12.1c0,0.1,0,0.1,0,0.1
						c0,0,0,0,0,0.1c-0.7,6.7-1.2,14-1.4,21.8c0-0.2,0.1-0.5,0.2-0.7c0.6-2.7,1.8-6.8,4-11.2c0.1-0.2,0.2-0.4,0.3-0.6
						c0.5-2,2.3-9.8,2.7-16.3c0-0.2,0.1-0.3,0.3-0.3c0.2,0,0.3,0.1,0.3,0.3c-0.3,5.1-1.5,11.1-2.3,14.4c1.6-2.8,3.4-5.3,5.5-7.6
						c0.2-0.7,2.9-8.9,3.3-16.5c0-0.2,0.1-0.3,0.3-0.3c0.2,0,0.3,0.1,0.3,0.3c-0.3,6.2-2.1,12.8-2.9,15.5c0.6-0.6,1.2-1.2,1.8-1.8
						c4.8-4.5,10.6-7.7,17.3-9.7c0.2,0,0.3,0,0.4,0.2c0,0.2,0,0.3-0.2,0.4c-14.3,4.2-22,13.7-26,21.3c0.9-0.6,2.6-1.5,5-2.3
						c2.2-0.7,4.5-1.2,7-1.5c3-0.3,6.2-0.2,9.5,0.2c0.2,0,0.3,0.2,0.2,0.3c0,0.2-0.2,0.3-0.3,0.2c-7.2-1-12.8,0.1-16.2,1.2
						c-3.7,1.2-5.6,2.7-5.7,2.8l-0.1,0.1c-3.8,7.6-4.7,14.4-4.8,15.6c0,2.2-0.1,4.4-0.1,6.7c0,11,0.4,21.6,0.9,30.6
						c0.2-2.2,0.4-4.5,0.7-6.8c1.3-9.7,3.7-17.7,7-23.7c4.2-7.5,10-11.9,17.1-13c0.2,0,0.3,0.1,0.3,0.2c0,0.2-0.1,0.3-0.2,0.3
						c-7,1.1-12.6,5.3-16.7,12.7c-3.3,5.9-5.6,13.8-7,23.5c-0.3,2.1-0.5,4.1-0.7,6.1c0.7-1.4,2-3.7,4.1-6.2c0.2-0.2,0.4-0.4,0.6-0.6
						c0,0,0-0.1,0-0.1c0-0.1,0.1-2,0.8-4.5c0.6-2.3,1.9-5.5,4.2-7.9c0.1-0.1,0.3-0.1,0.4,0c0.1,0.1,0.1,0.3,0,0.4
						c-2.3,2.3-3.5,5.4-4.1,7.6c-0.4,1.6-0.6,3-0.7,3.8c1.7-1.8,3.5-3.3,5.5-4.7c3.1-2,6.6-3.5,10.4-4.3c0.2,0,0.3,0.1,0.3,0.2
						c0,0.2-0.1,0.3-0.2,0.3c-8.4,1.8-13.8,6.4-16.8,10c-3.3,3.9-4.6,7.4-4.6,7.5c0,0,0,0,0,0.1c-0.1,1.2-0.2,2.3-0.2,3.5
						c0.6,8.5,1.2,15.1,1.5,18.7c0-0.2,0-0.5,0-0.7c0,0,0-0.1,0-0.1c0-0.7-0.1-1.3-0.1-2c0-3.1,0.2-6,0.8-8.6
						c0.7-3.3,1.8-6.1,3.4-8.4c2.8-4.1,7-6.6,12.4-7.4c0.2,0,0.3,0.1,0.3,0.2c0,0.2-0.1,0.3-0.2,0.3c-5.3,0.8-9.3,3.2-12,7.1
						c-3.5,5.1-4.1,11.9-4.1,16.7c0,0.3,0,0.6,0,0.9c0.4-0.8,1.1-1.9,2.2-3.1c1.1-1.2,2.3-2.2,3.7-3c1.7-1,3.5-1.5,5.5-1.7
						c0.2,0,0.3,0.1,0.3,0.3c0,0.2-0.1,0.3-0.3,0.3c-4.3,0.4-7.2,2.7-8.8,4.5c-1.6,1.8-2.4,3.5-2.6,3.9c0.2,4.2,0.9,7.2,0.9,7.2
						c0,0.2-0.1,0.3-0.2,0.3c0,0,0,0-0.1,0c-0.1,0-0.2-0.1-0.3-0.2c0,0-0.3-1.4-0.6-3.7c0,0.1-0.1,0.2-0.2,0.2c0,0,0,0,0,0
						c-0.1,0-0.3-0.1-0.3-0.3c0-0.1-0.7-6.3-1.4-16c0,2.1,0,4.1,0,5.8c0.1,6,0.5,10.1,0.5,10.1c0,0.2-0.1,0.3-0.3,0.3c0,0,0,0,0,0
						c-0.1,0-0.3-0.1-0.3-0.3c0,0-0.4-4.1-0.5-10.2c-0.1-3.1-0.1-7,0.2-11.4C423.6,78.9,423.1,66.5,423.1,53.6z"/>
				</g>
				<g>
					<path class="st34" d="M403.7,112.8c0,1.2,0,2.4,0,3.6c0,1.1,0.1,2.3,0.1,3.4c0.1,1.4,0.2,2.7,0.3,4c0.3,4,0.8,7.7,1.4,11.3
						c1.1,6,2.5,11.3,4.3,15.7c0.6,1.4,1.2,2.8,1.8,4c0.1,0.1,0.1,0.3,0.2,0.4c0.6,1.1,1.2,2,1.8,2.9h18.1c0.7-1,1.4-2.1,2-3.4
						c0.6-1.2,1.3-2.6,1.8-4c2.8-7.1,4.9-16.4,5.7-27c0.1-1.3,0.2-2.7,0.3-4c0.1-1.1,0.1-2.3,0.1-3.4c0-1.2,0-2.4,0-3.6
						c0-0.2,0-0.3,0-0.5c0-1.7,0-3.5-0.1-5.2h-37.9c-0.1,1.7-0.1,3.4-0.1,5.2C403.7,112.5,403.7,112.6,403.7,112.8z"/>
					<path class="st11" d="M403.7,112.8c0,1.2,0,2.4,0,3.6h38c0-1.2,0-2.4,0-3.6c0-0.2,0-0.3,0-0.5h-38.1
						C403.7,112.5,403.7,112.6,403.7,112.8z"/>
					<path class="st11" d="M403.8,119.8c0.1,1.4,0.2,2.7,0.3,4h37.2c0.1-1.3,0.2-2.7,0.3-4H403.8z"/>
					<path class="st11" d="M409.8,150.8c0.6,1.4,1.2,2.8,1.8,4h22.1c0.6-1.2,1.3-2.6,1.8-4H409.8z"/>
				</g>
			</g>
			<path class="st35" d="M403.7,112.8c0,1.2,0,2.4,0,3.6c0,1.1,0.1,2.3,0.1,3.4c0.1,1.4,0.2,2.7,0.3,4c0.3,4,0.8,7.7,1.4,11.3
				c20.7,3.2,25.8-21.2,26.8-28h-28.5c-0.1,1.7-0.1,3.4-0.1,5.2C403.7,112.5,403.7,112.6,403.7,112.8z"/>
			<path class="st36" d="M411.9,155.3c0.6,1.1,1.2,2,1.8,2.9h18.1c0.7-1,1.4-2.1,2-3.4c0.6-1.2,1.3-2.6,1.8-4
				c2.8-7.1,4.9-16.4,5.7-27c0.1-1.3,0.2-2.7,0.3-4c0.1-1.1,0.1-2.3,0.1-3.4c0-1.2,0-2.4,0-3.6c0-0.2,0-0.3,0-0.5
				c0-1.7,0-3.5-0.1-5.2h-4.3C436.8,116.4,433.2,147.7,411.9,155.3z"/>
		</g>
	</g>
</g>
</svg>
