<?xml version="1.0" encoding="utf-8"?>
<!-- Generator: Adobe Illustrator 24.3.0, SVG Export Plug-In . SVG Version: 6.00 Build 0)  -->
<svg version="1.1" id="Layer_1" xmlns="http://www.w3.org/2000/svg" xmlns:xlink="http://www.w3.org/1999/xlink" x="0px" y="0px"
	 viewBox="0 0 500 500" style="enable-background:new 0 0 500 500;" xml:space="preserve">
<g>
	<g>
		<path style="fill:#FFFFFF;" d="M314.1,379.12c6,7.45,13.49,12.06,21.54,15.92c8.55,4.1,17.71,6.59,26.56,9.87
			c7.2,2.67,8.85,4.91,8.81,12.62c-0.02,5.1-0.32,10.2-0.64,15.29c-0.22,3.44-1.93,6.07-5.63,5.78
			c-34.81-2.7-67.77-10.72-93.66-36.13c-14.7-14.43-21-33.34-25.17-53.04c-1.53-7.23-3.26-14.43-4.95-21.86
			c-2.01,0.97-1.82,2.06-1.77,2.87c0.82,12.9-4.86,23.31-12.14,33.33c-21.79,30.01-47.98,55.36-78.89,75.85
			c-11.2,7.42-23.22,12.53-36.82,13.56c-12.3,0.93-21.65-3.93-28.73-13.72c-6.87-9.49-10.17-20.21-10.57-31.82
			c-0.95-27.61,5.71-53.58,17.18-78.49c0.87-1.9,1.7-3.9,4.83-3.4c0.17,5.52-1.61,10.71-2.94,15.94c-2.51,9.89-5.36,19.7-6.84,29.83
			c-1.57,10.65-0.84,21.12,2.48,31.38c4.7,14.52,15.22,20.73,30.28,17.74c10.91-2.16,20.96-6.62,30.01-12.94
			c29.35-20.48,55.36-44.41,76.55-73.49c9.43-12.94,11.53-25.44,5.06-40.71c-12.97-30.61-23.28-62.31-36.35-92.92
			c-6.02-14.1-4.22-28.39,1.69-42.7c31.18,49,53.13,101.53,61.78,159.55c0.87-4.48,1.78-8.95,2.62-13.43
			c2.31-12.45,8.09-22.85,16.99-32c23.49-24.15,51.04-42.51,80.55-58.26c2.63-1.4,5.25-2.83,7.87-4.25
			c-0.64-2.92-2.57-4.58-3.9-6.57c-10.39-15.52-8.84-35.01,3.87-48.57c6.77-7.23,14.7-9.47,24.18-6.17
			c14.87,5.18,26.16,15.37,37.72,25.55c10.13,8.92,8.04,19.11,5.39,29.68c-2.45,9.77-9.51,14.49-19.15,16.04
			c-6.02,0.96-11.48,3.77-17.21,5.67c-3.02,1-3.81,3.18-3.61,6.21c0.23,3.55,0.05,7.13,0.05,10.7c-3.27,0.84-4.02-1.81-5.32-3.45
			c-5.78-7.35-7.16-7.76-15.75-3.85c-25.78,11.72-49.79,26.28-71.43,44.63c-2.16,1.83-4.51,3.42-6.8,5.1
			c-0.92,0.67-2,1.27-1.59,2.66c0.42,1.41,1.38,2.21,2.93,2.16c1.51-0.05,3.02-0.06,4.54-0.12c65-2.4,130-4.81,195-7.21
			c1.65-0.06,3.3-0.01,5.9-0.01c-2.62,9.15-4.93,17.67-7.52,26.1c-1.03,3.35-4.49,3.8-7.28,4.8
			c-37.72,13.51-75.51,26.86-113.18,40.51c-13.68,4.95-27.09,10.63-40.66,15.89C324.22,371.46,319.18,374.7,314.1,379.12z
			 M302.57,390.52c1.62-2.03,1.87-4.57,2.12-6.92c2.68-25.3,17.21-40.72,40.51-48.85c14.1-4.92,28.24-9.68,42.35-14.59
			c2.09-0.73,4.58-0.97,6.43-3.96c-46.68,1.28-92.53,2.55-138.69,3.81C259.21,351.95,273.81,375.94,302.57,390.52z M403.43,192.28
			c-10.48-9.01-20.84-15.2-34.44-13.09c-4.29,0.67-5.36,2.56-3.03,6.05c3.03,4.55,6.31,8.93,9.55,13.33c1.8,2.45,4.14,2.99,7,1.86
			C389.15,197.79,395.83,195.23,403.43,192.28z"/>
		<path style="fill:#FFFFFF;" d="M5.45,277.8c-0.24,4.24-0.49,7.2-0.56,10.16c-0.1,4.42,2.36,6.07,6.5,5.73
			c3.28-0.27,6.28-1.45,9.03-3.15c5.63-3.48,11.26-6.95,16.73-10.67c8.95-6.08,17.91-12.04,29.56-13.78
			c-1.5-7.24-3.01-13.99-4.25-20.8c-0.6-3.29-2.88-2.93-5.13-2.94c-10.97-0.05-21.93-0.1-32.9-0.13c-4.96-0.01-9.8-0.78-14.53-2.19
			c-5.61-1.67-7.27-4.9-5.16-10.34c2.48-6.41,6.84-11.13,13.03-14.34c21.19-10.98,21.15-11.04,19.49-34.92
			c-0.81-11.69-1.66-23.38-2.26-35.08c-0.1-1.88-1.4-5.22,2.13-5.35c3.13-0.11,2.12,3.05,2.34,4.85
			c2.09,17.27,4.02,34.56,6.07,51.83c0.84,7.12,2.37,13.93,9.77,17.39c0.81,0.38,1.73,0.53,3.54,1.07
			c-0.39-5.19-0.74-9.77-1.09-14.36c-0.51-6.6-1.23-13.19-1.48-19.79c-0.13-3.32-1.13-4.9-6.57-3.27c6.18-4.6,5.8-9.26,5.27-14.03
			c-1.11-10.15-2.33-20.29-3.06-30.46c-0.25-3.49-0.82-7.43,3.77-10.66c2.01,14.66,4.03,29.31,6.05,44.06
			c3.84-0.14,5.62-3.66,9.31-4.07c-1.78,5.59-2.82,11.11-1.62,16.76c0.35,1.65,0.8,3.32,1.49,4.86c1.28,2.86,3.18,5.69,6.58,5.35
			c3.35-0.34,3.91-3.65,4.51-6.47c1.69-7.92,1.81-16.22,5.82-23.56c0.84-1.55,1.08-3.71,4.3-4.1c1.19,4.63,0.69,9.22,0.17,13.76
			c-0.43,3.78-0.78,7.52,0.27,11.25c1.26,4.45,4.02,7.42,8.7,7.73c4.73,0.31,7.81-2.51,9.59-6.64c2.11-4.91,1.2-10.04,0.58-15.1
			c-0.71-5.88-1.47-11.75-0.24-17.86c4.04,0.63,3.3,3.54,3.67,5.42c1.64,8.35,2.94,16.76,6.59,24.57c2.18,4.68,5.51,7.05,10.82,6.1
			c3.78-0.67,5.27-2.41,3.64-6.33c-2.91-6.98-5.55-14.06-8.39-21.07c-1.32-3.26-1.35-6.5-0.54-10.48c4.7,3.31,9.81,5.46,7.19,12.51
			c-0.74,2,1.5,3.75,2.08,5.72c1.49,5.08,2.82,10.2,3.39,15.49c0.7,6.58-1.56,10.75-6.9,12.76c-5.35,2.01-10.05,0.4-13.75-4.84
			c-1.18-1.67-2.14-3.51-3.43-5.65c-2.18,1.79-2.32,4.39-3.45,6.38c-3.3,5.86-8.11,8.37-14.04,7.12c-5.35-1.13-8.52-4.88-9.02-11.54
			c-0.35-4.67-0.07-9.38-0.54-14.16c-4.2,8.54-1.04,19.73-10.1,26.58c-12.25-4.54-9.38-17.55-14.18-26.43
			c-2.62,1.98-2.14,4.5-1.97,6.83c0.77,10.94,1.72,21.86,2.41,32.8c0.35,5.53,3.44,7.58,8.5,7.68c11.2,0.22,21.76-2.33,31.66-7.53
			c6.33-3.33,12.58-6.81,19.05-10.32c2.76,3.21,5.33,6.2,8.52,9.92c5.06-6.38,10.43-12.12,14.31-18.97
			c1.44-2.54,0.41-5.57-0.01-8.37c-2.63-17.77-5.23-35.54-7.97-53.29c-0.55-3.56-0.35-6.75,2.94-10.45
			c3.13,6.99,6.06,13.52,8.92,19.92c-1.27,1.96-3.14-0.04-4.72,1.76c2.25,13.86,4.6,28.2,6.86,42.54c0.48,3.04,2.74,2.82,4.72,2.7
			c5.15-0.31,9.07,2.03,12.7,5.28c7.38,6.6,6.71,16.11-1.65,21.41c-2.21,1.4-4.77,2.26-7.11,3.48c-3.32,1.74-4.22,4.54-3.49,8.12
			c0.74,3.62,3.52,2.75,5.82,2.78c5.62,0.07,11.25,0.02,16.9,0.02c0.34,3.51-1.78,4.44-3.98,5.07c-1.99,0.57-4.05,0.96-6.11,1.2
			c-7.16,0.82-14.95,0.69-14.36,12.61c-3.2-3.5-1.99-6.74-3.75-9.39c-5.48,0-11.22,0-17.72,0c0.65,7.08,1.27,13.9,1.97,21.45
			c11.6-4.51,22.43-8.81,33.32-12.91c4.06-1.53,8.21-2.95,12.45-3.78c4.55-0.9,6.44,1.76,4.44,5.99
			c-4.49,9.46-10.56,17.84-18.62,24.98c2.48,3.09,6.51,2.62,9.58,5.58c-7.42,2.06-14.35,3.92-21.25,5.9
			c-8.36,2.4-9.61,5.3-5.79,13.14c5.15,10.58,13.97,13.32,24.43,7.55c5.56-3.07,10.31-7.58,17-9.95c-0.98,4.97-3.06,8.43-7.01,10.76
			c-5.21,3.07-10.22,6.49-15.56,9.32c-14.67,7.79-19.6,6.85-32.16-6.03c-1.79,4.88-3.25,9.96-8.91,11.39
			c-5.62,1.42-9.14-2.56-13.08-5.11c-0.52,0.14-0.99,0.11-1.2,0.33c-10.04,11.01-15.82,11.05-25.77-0.23
			c-2.91-3.3-5.11-3.2-7.74,0.06c-2.76,3.43-4.47,7.44-6.63,11.21c-2.74,4.79-6.46,8.76-10.7,12.69c-4.25-3.76-7.01-8.5-10.6-12.64
			c-5.34,2.44-10.51,5.17-15.93,7.21c-6.94,2.61-13.88,2.75-19.41-3.22c-5.58-6.02-4.96-13-2.05-20.5
			c1.66,9.3,5.09,17.03,16.01,16.48c10.71-0.55,18.4-6.13,23.07-15.82c1.88,0.06,1.21,2.67,3.51,2.95c2.62-2.29,5.54-4.85,8.94-7.83
			c-4.37-2.3-8.46-2.34-12.51-2.59c-4.26-0.26-7.87-1.27-8.64-6.36c-0.84-5.5,1.96-11.02,7.03-13.72c4.4-2.35,7.56-0.37,10.47,2.78
			c9.35,10.12,8.9,22.51-1.29,32.72c-3.21,3.21-6.52,6.18-2.25,10.93c1.96,2.17,3.83,2.81,6.33,0.87c2.32-1.79,3.86-4.01,5.06-6.68
			c2.95-6.56,6.19-12.98,11.52-18.03c2.82-2.67,5.41-2.79,8.26,0.27c11.14,11.95,14.36,11.79,24.6-0.79
			c0.47-0.58,1.01-1.1,1.52-1.65c2.25,0.87,1.91,3.18,2.88,4.7c1.8,2.81,4.02,4.6,7.5,3.63c3.3-0.92,6.2-2.82,6.09-6.53
			c-0.35-12.06-1.05-24.1-1.64-36.53c-21.33,1.35-42.79,6.71-60.57-10.93c-0.33,6.24,3.18,9.11,7.04,11.93
			c5.14,3.74,5.66,6.39,2.69,12.03c-0.48-0.07-1.19,0.06-1.5-0.24c-9.21-8.75-19.04-7.52-29.2-1.94
			c-9.48,5.21-18.23,11.47-26.74,18.1c-3.16,2.47-6.48,4.61-10.62,5.02c-6.64,0.65-10.66-2.36-11.46-8.89
			C1,288.44,1.69,283.46,5.45,277.8z M70.7,241.15c1.86,7.66,6.01,12.31,11.99,15.3c13.87,6.92,28.37,7.06,43.15,3.65
			c2.46-0.57,4.43-2.04,4.29-4.56c-0.37-6.31-1.17-12.6-1.97-20.54c-13.65,9.34-27.69,13.83-41.16,19.73
			c-0.36-0.82-0.72-1.63-1.08-2.44c10.53-4.61,21.06-9.22,31.59-13.82c-0.15-0.37-0.3-0.74-0.45-1.11
			C101.87,238.6,86.67,239.84,70.7,241.15z M147.55,307.63c0.82-1.19,0.08-1.99-0.26-2.8c-6.11-14.76-2.03-24.27,12.58-30.92
			c10.7-4.87,16.43-14.88,24.11-24.17c-6.54-0.36-11.55,1.16-16.46,3.03c-9.17,3.48-17.44,9-26.95,11.72
			c-3.02,0.86-3.25,3.25-2.88,5.91c1.27,9.15,2.49,18.31,3.75,27.47C142.02,302.02,144.41,305.02,147.55,307.63z M59.59,233.1
			c0.48-6.07,0.37-6.6-4.64-8.7c-7.26-3.03-11.21-8.55-13.07-15.93c-0.45-1.77-0.12-3.8-2.24-6.03
			c-6.39,13.87-21.29,17.67-32.24,27.31C25.13,237.15,42.25,233.95,59.59,233.1z M121.47,209.16c-16.3,10.9-33.84,18.07-53.68,19.44
			c1.77,4.52,4.82,4.45,8.16,4.18c15.21-1.23,30.43-2.33,45.64-3.53c2.49-0.2,5.51,0.52,6.32-3.2c0.81-3.68,3.52-7.34-0.77-10.78
			C125.11,213.66,123.55,211.45,121.47,209.16z M156.86,210.68c5.34-2.79,10.09-4.85,14.25-7.99c-5.13-7.15-9.56-9.25-15.99-7.63
			C155.09,200.06,155.88,204.98,156.86,210.68z M152.9,228.09c-2.25-3.2,0.92-7.67-4.15-8.34c-3.88-0.52-7.91-0.12-11.85,0.18
			c-2.19,0.17-4.19,1.52-4.23,3.85c-0.04,2.59,1.95,4.15,4.43,4.25C141.78,228.24,146.48,228.09,152.9,228.09z M137.52,210.72
			c4.56,0,8.01,0,11.73,0c0.38-4.33,0.15-8.24-1.42-12.67C143.58,201.77,141.09,205.93,137.52,210.72z"/>
		<path style="fill:#FFFFFF;" d="M135.26,73.58c-15.03-1.98-29.86,0.43-46.24,3.51c6.09-10.15,10.68-19.37,17.39-27.24
			c2.17-2.55,5.66-2.93,8.89-3.13c10.95-0.66,21.91-1.08,32.88-0.19c9.1,0.74,11.44,4.28,8.04,12.74
			c-8.2,20.42-22.62,33.6-44.64,37.72c-3.72,0.7-7.44,1.36-11.17,1.94c-1.55,0.24-3.56,1.33-4.24-1.19
			c-0.56-2.06,1.42-2.43,2.64-3.09c6.85-3.63,13.75-7.16,20.61-10.77c5.45-2.86,10.87-5.76,16.3-8.65
			C135.57,74.7,135.41,74.14,135.26,73.58z"/>
		<path style="fill:#FFFFFF;" d="M154.81,144.26c0.27-7.75,3.82-12.02,9.17-15.07c36.29-20.67,72.19-42.07,110.12-59.73
			c24.84-11.57,49.63-23.26,74.45-34.89c1.5-0.7,2.93-1.75,5.04-1.31c0.86,6.14-2.64,9.3-7.61,11.64
			c-17.44,8.21-34.86,16.48-52.29,24.72c-45,21.25-88.1,46.02-131.38,70.48C160.18,141.3,158.04,142.47,154.81,144.26z"/>
		<path style="fill:#FFFFFF;" d="M405.84,92.86c-3.84-1.95-7.32-3.73-11.54-5.88c-9.2,19.36-22.81,35.04-38.97,48.65
			c-15.85,13.36-33.21,24.58-50.36,36.19c29.02-28.08,63.38-50.79,86.14-86.06c-5.14-2.88-9.9-5.49-14.6-8.21
			c-5.83-3.37-7.14-6.75-5.46-13.22c1.77-6.82,4.58-12.77,11.56-15.83c5.75-2.52,8.6-1.76,11.88,3.51
			c3.26,5.22,4.31,10.9,3.23,16.86c-0.8,4.48,0.1,7.4,4.64,9.52C408.31,81.16,409.01,84.77,405.84,92.86z M393.03,73.76
			c0.64-8.58-1.51-14.31-5.71-15.59c-5.37-1.64-8.8,1.27-11.67,5.24c0.94,1.97,2.7,2.39,4.11,3.18
			C383.95,68.95,388.23,71.18,393.03,73.76z"/>
		<path style="fill:#FFFFFF;" d="M218.41,161.02c2.93-5.8,5.82-10.85,11.57-13.84c39.07-20.27,78.09-40.64,117.14-60.95
			c1.47-0.76,3.08-1.25,4.67-1.88c1.49,6.33,0.17,9-6.2,12.21c-13.49,6.8-27.03,13.52-40.57,20.23
			c-26.75,13.27-52.94,27.59-79.07,42.02C223.94,159.93,222.1,161.96,218.41,161.02z"/>
		<path style="fill:#FFFFFF;" d="M465.04,382.27c-2.14,6.47-4.63,11.39-7.87,15.79c-9.15,12.4-21.49,19.92-36.57,22.93
			c-1.47,0.29-3.01,0.37-4.51,0.35c-7.25-0.09-10.78-4.24-9.57-11.39c1.05-6.23,3.92-11.8,6.61-17.43c1.37-2.87,2.78-5.73,4.81-9.91
			c-6.95,2.14-12.72,3.92-18.6,5.73c1.75-12.28,11.49-18.54,23.42-15.18c3.3,0.93,3.61,3.62,2.68,6.37
			c-2.11,6.27-4.32,12.51-8.76,17.65c-2.49,2.89-5.71,6.62-3.81,9.97c2.1,3.71,6.96,2.65,10.91,1.8
			c13.82-2.99,24.97-10.38,34.37-20.72C459.83,386.36,461.05,383.9,465.04,382.27z"/>
		<path style="fill:#FFFFFF;" d="M287.44,175.73c5.03,10.29,12.74,18.77,11.68,30.67c-0.45,5.11-0.47,10.63-6.91,12.24
			c-6.08,1.52-10.05-1.91-13.38-6.39c-0.89-1.2-1.65-2.51-2.84-4.36c-1.26,3.61-3.27,6.12-5.78,8.33
			c-7.33,6.45-13.47,4.82-16.6-4.65c-3.12-9.44-2.13-19.05-0.88-28.65c0.15-1.19,0.49-2.23,2.02-2.41c2.29,0.71,1.38,2.74,1.43,4.24
			c0.19,5.1-0.12,10.23,0.41,15.29c0.47,4.47,3.03,7.98,7.89,8.24c3.74,0.2,7.86-5.4,7.52-9.94c-0.47-6.21-1.39-12.39-1.94-18.59
			c-0.15-1.68-1.14-4.08,1.68-4.64c2.83-0.56,2.84,2.07,3.34,3.66c1.86,5.95,3.54,11.96,5.21,17.96c1.22,4.37,3.31,8.02,7.62,10.02
			c2.12,0.99,4.2,0.58,5.92-0.64c1.78-1.27,0.66-3.13,0.14-4.68c-2.1-6.27-4.32-12.5-6.41-18.78
			C286.94,180.75,285.52,178.91,287.44,175.73z"/>
		<path style="fill:#FFFFFF;" d="M209.01,48.82c0.99-9.83,1.03-18.12,2.7-26.2c0.61-2.96,1.13-5.95,1.98-8.84
			c1.31-4.43,3.42-8.23,9.01-7.44c5.59,0.8,8.92,4.99,8.68,10.73c-0.07,1.64,0.11,3.41-1.15,4.71c-2.36,0.57-3.56-1.27-5.15-2.09
			c-5.84-3.05-8.94-1.89-10.12,4.69c-1.07,5.92-1.34,11.99-1.81,18.01c-0.63,8.03-0.2,16.18-3.27,25.25
			c-4.91-8.16-9.53-15.36-13.62-22.84c-2.27-4.15-4.36-6.8-9.85-5.76c-3.58,0.68-7.87-0.25-9.83-4.15
			c-2.04-4.07-0.44-8.23,1.32-11.98c1.55-3.3,6.97-2.79,10.61,0.99c6.42,6.67,12.18,13.92,17.82,21.27
			C206.89,45.89,207.41,46.64,209.01,48.82z"/>
		<path style="fill:#FFFFFF;" d="M276.13,456.99c-2.59,0.34-4.02-1.08-5.64-1.97c-5.92-3.24-7.71-2.76-9.98,3.68
			c-2.87,8.12-2.56,16.74-3.41,25.18c-0.38,3.82,0.19,7.94-2.46,11.11c-2.08,0.26-2.47-1.18-3.06-2.3
			c-2.11-4.01-4.32-7.98-6.22-12.09c-2.55-5.53-4.88-9.96-12.57-10.51c-8.29-0.59-10.41-5.47-8.14-13.28
			c1.6-5.53,5.16-6.76,9.63-3.01c7.43,6.23,14.28,12.98,17.73,22.4c0.32,0.88,0.75,1.74,1.22,2.55c0.15,0.26,0.59,0.36,1.21,0.72
			c1.51-9.14,2.84-18.18,4.52-27.15c1.83-9.77,4.24-12.45,9.43-11.35C275.68,442.53,278.23,447.72,276.13,456.99z"/>
		<path style="fill:#FFFFFF;" d="M474.32,241.15c0.62-5.19,1.26-10.38,1.86-15.57c0.53-4.51,1.2-9,3.09-13.17
			c1.72-3.81,4.16-7.11,8.95-6.22c4.6,0.85,7.02,4.15,7.73,8.69c0.38,2.44,0.36,4.87-0.86,7.17c-2.35,0.3-4-1.15-5.61-2.31
			c-4.4-3.18-6.93-1.25-8.64,2.95c-2.97,7.32-2.79,15.15-3.54,22.83c-0.4,4.1-0.44,8.31-4.03,11.63c-3.82-4.25-5.41-9.54-7.74-14.4
			c-1.6-3.35-3.37-6.07-7.4-7.06c-2.68-0.66-5.14-2.34-7.58-3.76c-5.71-3.32-6.84-8.26-3.28-13.86c2.15-3.38,6.85-3.42,10.06,0.32
			C463.42,225.48,470.05,232.23,474.32,241.15z"/>
		<path style="fill:#FFFFFF;" d="M275.89,4.96c2.24,1.83-0.21,4.08,1.04,6.06c3.08,0.95,6.58,1.71,9.81,3.1
			c6.93,2.97,9.61,8.19,9.24,17.05c-0.31,7.37-3.69,12.18-10.32,14.68c-9.13,3.44-15.9-1.31-15.61-11.08
			c0.28-9.25,2.19-18.31,3.43-27.45C273.64,6.19,273.9,5.05,275.89,4.96z M274.74,20.45c-2.54,7.8-1.73,11.82,2.49,14.08
			c4.58,2.46,9.54,0.72,14.17-5.3C285.91,26.34,280.51,23.49,274.74,20.45z"/>
		<path style="fill:#FFFFFF;" d="M452.4,122.5c-2.23,6.36-3.09,12.85-7.91,17.52c-2.77,2.68-6.09,1.55-8.39-1.3
			c-2.78-3.44-4.7-7.41-4.47-11.93c0.53-10.74,2.5-21.32,4.17-31.93c0.19-1.22,0.42-2.7,2.64-2.76c0.92,3.73-0.67,7.26-1.13,10.81
			c-0.74,5.63-1.13,11.23-0.92,16.9c0.15,4.07,1.27,7.8,5.39,9.05c4.08,1.24,4.9-3.16,7-5.26
			C449.29,123.1,449.51,122.29,452.4,122.5z"/>
		<path style="fill:#FFFFFF;" d="M128.54,356.68c0.14,7.87-4.98,15.07-3.01,23c0.56,2.24,1.93,4.47,4.01,5.91
			c3.26-1.55,4.12-5.85,8.9-7.17c-1.34,6.49-2.15,12.38-5.7,17.33c-2.53,3.53-6.37,3.15-8.73-0.74c-2.52-4.13-3.44-8.75-2.97-13.57
			c0.8-8.09,3.16-15.85,5.14-23.69C126.36,357.1,126.76,356.33,128.54,356.68z"/>
		<path style="fill:#FFFFFF;" d="M1.68,264.95c4.99-2.99,8.63-5.17,12.75-7.65c-3.56-1.98-7.28,0.18-10.04-1.91
			c0.7-6.51,5.85-8.59,17.48-5.9C23.32,258.3,15.71,264.58,1.68,264.95z"/>
		<path style="fill:#FFFFFF;" d="M129.75,116.48c-20.24,9.21-40.49,18.43-60.73,27.64c-0.38-0.83-0.76-1.66-1.14-2.49
			c20.23-9.24,40.46-18.49,60.69-27.73C128.97,114.76,129.36,115.62,129.75,116.48z"/>
		<path style="fill:#FFFFFF;" d="M104.36,297.56c-3.84-0.34-6.51-0.57-9.21-0.81c1.57-7.74,9.39-11.03,15.63-7.09
			c2.05,1.29,1.4,2.84,1,4.43c-1.7,6.84-7.28,10.29-16.54,9.94C98.2,301.93,100.83,300.07,104.36,297.56z"/>
		<path style="fill:#FFFFFF;" d="M124.93,274.81c-16.41,6.69-32.82,13.37-48.96,19.95c-0.55,2.99,3.02,3.86,2.27,6.44
			c-5.22-0.99-6.3-3.26-3.51-7.28c0.99-1.42,2.17-2.64,3.77-3.33c14.57-6.28,29.27-12.23,44.23-17.5c0.45-0.16,1.04,0.08,1.56,0.13
			C124.51,273.75,124.72,274.28,124.93,274.81z"/>
		<path style="fill:#FFFFFF;" d="M63.4,132.38c0.99,2.12,1.7,3.62,2.95,6.28c-3.05-1.23-4.54-2.53-5.07-4.73
			c-0.46-1.93,0.77-3.38,2.26-4.19c14.04-7.67,28.54-14.33,43.69-19.51c0.23-0.08,0.62,0.32,2.12,1.18
			C93.73,118.54,78.82,125.35,63.4,132.38z"/>
		<path style="fill:#FFFFFF;" d="M108.16,340.46c-7.81-3.04-8.47-4.61-4.43-10.6c4.15,1.86,8.5,3.46,11.06-2.6
			c2.01,0.95,3.82,1.55,5.34,2.58c2.06,1.4,1.99,3.41,0.89,5.49c-0.9,1.7-2.05,2.33-4.11,1.85
			C111.98,336.05,111.95,336.17,108.16,340.46z"/>
		<path style="fill:#FFFFFF;" d="M57.95,262.21c-15.69,7.15-31.38,14.29-47.07,21.44c-0.38-0.83-0.75-1.67-1.13-2.5
			c15.68-7.25,31.36-14.49,47.04-21.74C57.18,260.34,57.56,261.27,57.95,262.21z"/>
		<path style="fill:#FFFFFF;" d="M113.61,199.76c-12.18,4.89-24.36,9.79-36.53,14.68c-0.36-0.89-0.72-1.78-1.08-2.68
			c12.19-4.92,24.38-9.84,36.57-14.77C112.91,197.91,113.26,198.84,113.61,199.76z"/>
		<path style="fill:#FFFFFF;" d="M157.82,300.34c2.5-5.5,27.47-17,32.7-15.5C178.83,290.38,168.32,295.36,157.82,300.34z"/>
		<path style="fill:#FFFFFF;" d="M50.94,307.86c-1.72,5.15-20.96,14.49-26.3,12.48C33.04,316.35,41.44,312.36,50.94,307.86z"/>
		<path style="fill:#FFFFFF;" d="M97.25,146.26c1.72-2.3,0.56-4.76,1.57-7.07c2.63,0.53,2.51,3.89,4.71,4.78
			c1.59-1.29-1.1-3.2,0.98-4.84c2.02,2.57,1.89,5.49,2.33,8.25c-13.63,3.68-13.15,1.49-13.39-5.45
			C95.68,142.39,95.08,145.24,97.25,146.26z"/>
		<path style="fill:#FFFFFF;" d="M34.89,174.91c-7.41,5-15.08,6.9-22.36,9.71C14.8,180.34,29.63,173.8,34.89,174.91z"/>
		<path style="fill:#FFFFFF;" d="M161.48,178.71c-3.28-3.13-6.46-5.73-8.05-10.18c4.05-1.02,4.62,2.84,7.11,3.53
			c2.34-1.56,0.81-8.62,8.01-4.87C161.73,168.62,163.85,174.6,161.48,178.71z"/>
		<path style="fill:#FFFFFF;" d="M15.91,202.62c6.91-1.24,6.07-5.76,4.07-12.02c4.12,4.16,6.14,7.45,8.02,11.23
			C24,202.74,20.41,204.29,15.91,202.62z"/>
		<path style="fill:#FFFFFF;" d="M34.35,304.56c0,3.24,0,5.61,0,8.81c-4.28-3.4-7.27-6.98-10.26-11.05
			C29.27,298.73,29.99,308.19,34.35,304.56z"/>
		<path style="fill:#FFFFFF;" d="M97.48,167.72c2.86,0.48,1.19,6.96,6.73,4.55c-0.11,2.36-0.22,4.77-0.36,7.56
			C95.08,173.47,93.64,170.48,97.48,167.72z"/>
		<path style="fill:#FFFFFF;" d="M123.24,297.34c-2.63-4.13-8.99-6.43-7.5-12.57c3.91-0.07,2.97,6.39,7.5,3.19
			C123.24,291.17,123.24,294.25,123.24,297.34z"/>
		<path style="fill:#FFFFFF;" d="M123.87,133.61c1.08,0.19,0.58-2.24,2.24-1.73c-0.38,2.7-0.04,5.52-1.49,8.61
			c-3.5-3.19-6.07-6.71-8.99-10.8C120.46,127.41,120.99,132.66,123.87,133.61z"/>
	</g>
</g>
</svg>
