<svg width="42" height="42" viewBox="0 0 42 42" fill="none" xmlns="http://www.w3.org/2000/svg">
<rect width="42" height="42" rx="8" fill="white"/>
<g clip-path="url(#clip0_166_274)">
<path d="M17.568 27.75C17.8587 28.4185 18.3384 28.9876 18.9481 29.3873C19.5578 29.787 20.271 30 21 30C21.729 30 22.4422 29.787 23.0519 29.3873C23.6616 28.9876 24.1412 28.4185 24.432 27.75H17.568Z" fill="#16122D"/>
<path d="M28.7941 21.4118L27.4921 17.1195C27.0752 15.6183 26.1686 14.2993 24.9165 13.3721C23.6644 12.4449 22.1384 11.9626 20.5808 12.0017C19.0232 12.0408 17.5233 12.5992 16.3193 13.5881C15.1153 14.577 14.2762 15.9397 13.9351 17.46L12.9241 21.6128C12.7897 22.1646 12.7824 22.7397 12.9028 23.2947C13.0232 23.8498 13.268 24.3702 13.6189 24.8168C13.9698 25.2634 14.4175 25.6245 14.9283 25.8727C15.4391 26.121 15.9997 26.25 16.5676 26.25H25.2053C25.7909 26.25 26.3683 26.1129 26.8914 25.8497C27.4144 25.5864 27.8685 25.2044 28.2174 24.7341C28.5662 24.2638 28.8001 23.7183 28.9002 23.1414C29.0004 22.5645 28.964 21.9721 28.7941 21.4118V21.4118Z" fill="#16122D"/>
</g>
<circle cx="14.5" cy="14.5" r="4.5" fill="#F52C00"/>
<defs>
<clipPath id="clip0_166_274">
<rect width="18" height="18" fill="white" transform="translate(12 12)"/>
</clipPath>
</defs>
</svg>
