<?xml version="1.0" encoding="utf-8"?>
<!-- Generator: Adobe Illustrator 24.3.0, SVG Export Plug-In . SVG Version: 6.00 Build 0)  -->
<svg version="1.1" id="Layer_1" xmlns="http://www.w3.org/2000/svg" xmlns:xlink="http://www.w3.org/1999/xlink" x="0px" y="0px"
	 viewBox="0 0 500 500" style="enable-background:new 0 0 500 500;" xml:space="preserve">
<style type="text/css">
	.st0{fill:#9792EF;}
	.st1{fill:#5344C6;}
	.st2{fill:#381D0B;}
	.st3{fill:#4C230C;}
	.st4{fill:#682F13;}
	.st5{fill:#844914;}
	.st6{fill:#ECB67B;}
	.st7{fill:#E2A05D;}
	.st8{fill:#FFE6BD;}
	.st9{fill:#FFE9D2;}
	.st10{fill:#FFC892;}
	.st11{fill:#992B2B;}
	.st12{fill:#BC4646;}
	.st13{fill:#A85000;}
	.st14{fill:#A0510A;}
	.st15{fill:#D67116;}
	.st16{fill:#773A08;}
	.st17{fill:#B75F08;}
</style>
<g id="BACKGROUND">
</g>
<path class="st0" d="M105.2,166.3C89.6,184.9,51,203.4,51,236.6c0,21.8,2,46.4,38.5,65.8c29.1,15.5,24.6,52,24.6,52
	c1.4,26.5,24,36.9,50.9,39s44.9-19.7,66.9,1.3c22.1,21,61.6,39.6,90.8-2.3c23.2-33.4,29.9-47.4,73.9-49.4
	c55.4-2.5,63.8-64.4,39.9-91c-1.2-1.3-2.4-2.6-3.6-3.8c-22.6-23.3-38.5-27.4-35.8-69.2c4-63.1-19.9-93.1-53-103.1
	c-35.8-10.8-72.8,24.4-101.6,13.8c-31-11.3-53.9-28.8-88.4-11.3C121.2,95,120.9,147.7,105.2,166.3z"/>
<path class="st1" d="M378.8,303.9l-5.2-21L269.3,268l-101.9-19.5l-10.9,10.3l-65.7,81.3l127.3-5c-0.8,2.2,0,5.3,0.5,7.7
	c0.7,3.8-8.7,9-15.6,14.9c-6.8,5.9-13.9,20.7-13.9,20.7s15.3,2.7,15.8,2.8c0.4,0,19.6-37.9,20.8-41.1c0.4-1,1.3-2.1,2.3-3.2
	l145.7,58.2L378.8,303.9z"/>
<g>
	<g>
		<path class="st2" d="M410.3,148.3L159,245.6l-5.5,6.5c24.4-4,23.1,6.7,37.2,8.3c-14.4,8.9-27.7,32.1-42.2,35.6
			c-11.8,2.8-33.8,8.5-41.6,10.5L86,331l4.8,9.1l316.4-105.1l6.9-82.4L410.3,148.3z"/>
	</g>
	<g>
		<path class="st2" d="M351.9,335.7c-10.4-8.9-7.7-35.6-14.7-49.5c14,4.4,24.9-4.2,47,13.5l0.7-15L170,122.5L91.7,178l-4.1,5.5
			l286,211.8l6.2-4.8l1.4-28.9C375.6,356.6,360.3,342.9,351.9,335.7z"/>
		<path class="st2" d="M384.2,299.7l-5.4,4.2c0,0-6.5-7-16.3-9.7c-9.8-2.8-13.9,1.7-27.2-3.5c-4.1-4.4-0.8-8.5-0.8-8.5l30.1,1
			L384.2,299.7z"/>
		<path class="st3" d="M351.9,335.7c-10.4-8.9-7.7-35.6-14.7-49.5c14,4.4,24.9-4.2,47,13.5l0.7-15L157.6,116.6L91.7,178l288.1,212.5
			l1.4-28.9C375.6,356.6,360.3,342.9,351.9,335.7z"/>
		<polygon class="st2" points="272.6,201.6 175,239.4 243,289.6 345.5,255.6 		"/>
		<path class="st2" d="M153.5,252l3,6.8c0,0,7.2-4,14.5,0c7.2,4,13.3,9.8,24.7,6.9c2.3-6.9,0-12.2,0-12.2s-25.7-7.9-26.3-7.9
			C168.8,245.6,153.5,252,153.5,252z"/>
		<path class="st4" d="M159,245.6l-5.5,6.5c24.4-4,23.1,6.8,37.2,8.3c-14.4,8.9-27.7,32.1-42.2,35.6c-11.8,2.8-33.8,8.5-41.6,10.5
			L86,331l315.9-101.4l8.4-81.4L159,245.6z"/>
		<polygon class="st2" points="273.2,196.9 157.6,235.3 226.3,286.2 233.8,283.6 		"/>
		<polygon class="st3" points="273.2,196.9 165.6,232.6 233.8,283.6 		"/>
	</g>
	<g>
		<g>
			<g>
				<path class="st2" d="M98.2,175.9c0,0,117.8,91,122.2,94.2c4.4,3.2,13.3,8.7,27.3,4.4c14-4.4,149.6-47.9,149.6-47.9l9.8-82.1
					l-0.9-2.2l-134.4,41.5l-102-74.9l-71.7,64.7C98.2,173.4,98.2,175.9,98.2,175.9z"/>
				<path class="st5" d="M98.2,173.4c0,0,117.8,91,122.2,94.2c4.4,3.2,13.3,8.7,27.3,4.4c14-4.4,147.7-47.3,147.7-47.3l10.8-82.5
					l-134.4,39.1l-102-74.9L98.2,173.4z"/>
				<g>
					<path class="st6" d="M175.6,104.8l-73.7,68l117.8,91c0,0,6.4-3,11-3c4.6,0,14.5,9,14.5,9l144.5-47.1l11.5-81.6l-12.4-5.5
						l-113.7,40.9L180,104.8C180,104.8,175.6,104.8,175.6,104.8z"/>
					<path class="st7" d="M391.1,136.6c-1.1,6.7-2.3,13.4-3.5,20.1l-3.8,20l-4,20l-2.1,10l-2.2,9.9l1.7-10l1.8-10l3.8-20l4-20
						C388.3,149.9,389.7,143.2,391.1,136.6z"/>
					<path class="st7" d="M392.9,137.7c-1,6.6-2,13.2-3.1,19.8l-3.4,19.7l-3.6,19.7l-1.9,9.8l-2,9.8l1.5-9.9l1.6-9.9l3.4-19.7
						l3.6-19.7C390.3,150.8,391.5,144.2,392.9,137.7z"/>
					<path class="st7" d="M395.2,138.8c-0.9,6.6-2,13.2-3,19.8l-3.2,19.7l-3.5,19.7l-1.8,9.8l-1.9,9.8l1.5-9.9l1.5-9.9l3.2-19.7
						l3.5-19.7C392.7,151.9,393.9,145.3,395.2,138.8z"/>
					<path class="st7" d="M397.4,139.7c-0.9,6.6-1.9,13.2-2.8,19.8l-3.1,19.8l-3.3,19.7l-1.7,9.9l-1.8,9.8l1.4-9.9l1.5-9.9l3.1-19.8
						l3.3-19.7C395,152.8,396.2,146.3,397.4,139.7z"/>
					<path class="st7" d="M399.6,140.8c-0.8,6.7-1.8,13.4-2.7,20l-3,20l-3.2,20l-1.6,10l-1.8,10l1.3-10l1.4-10l3-20l3.2-20
						C397.3,154,398.4,147.4,399.6,140.8z"/>
					<path class="st8" d="M113.9,169.3c0,0,26.6,19.1,49.2,31.7c22.5,12.6,64.8,43.9,67.8,59.7c13.6-13.8,30.8-31.5,63.2-34.9
						s72.6-7.6,78.1-10.8c2.8-13.8,16.8-79.5,16.8-79.5s-16.1,3.2-33.3,4.4c-17.2,1.1-70.8,12.4-80.4,36.5
						c-7.8-19.3-19.3-30.8-41.6-40.9S180,104.7,180,104.7L113.9,169.3z"/>
					<path class="st9" d="M230.8,260.7c13.6-13.8,30.8-31.5,63.2-34.9s72.6-7.6,78.1-10.8c2.8-13.8,16.8-79.5,16.8-79.5
						s-16.1,3.2-33.3,4.4c-17.2,1.1-70.8,12.4-80.4,36.5L230.8,260.7z"/>
					<path class="st10" d="M317.4,226.3c-61.3,12.2-86.6,34.5-86.6,34.5c4.6,0,14.5,9,14.5,9l144.5-47.1c0,0-12-5.2-17.7-7.6
						C365,219.1,352.1,219.1,317.4,226.3z"/>
					<path class="st10" d="M193.8,216.4c-19.5-13.3-79.9-47.1-79.9-47.1l-11.9,3.4l117.8,91c0,0,6.4-3,11-3
						C233.1,246.5,213.3,229.7,193.8,216.4z"/>
					<path class="st6" d="M193.8,216.4c-19.5-13.3-79.9-47.1-79.9-47.1s77.9,52.1,87.8,58.8c9.9,6.7,28.5,23.7,29.2,32.6
						C233.1,246.5,213.3,229.7,193.8,216.4z"/>
				</g>
			</g>
			<g>
				<path class="st6" d="M112.7,172.3c0,0,100.4,71,118.1,88.4C217.9,243.5,145.1,191.2,112.7,172.3z"/>
				<polygon class="st6" points="109.4,172.3 124,183 138.6,193.8 167.7,215.4 196.6,237.2 211,248.2 225.3,259.2 210.7,248.5 
					196.1,237.8 167.1,216.1 138.2,194.3 123.8,183.4 				"/>
				<path class="st6" d="M235.4,260.7c5.3-2.9,10.8-5.6,16.2-8.3c5.5-2.6,10.9-5.2,16.5-7.7c2.8-1.2,5.5-2.5,8.4-3.6
					c2.8-1.2,5.6-2.3,8.5-3.3c5.8-1.9,11.7-3.5,17.6-4.9c5.9-1.4,11.9-2.6,17.8-3.8s11.9-2.4,17.9-3.5c6-1.1,11.9-2.2,17.9-3.4
					s11.9-2.3,17.7-4.1c-2.8,1.1-5.7,2-8.7,2.8c-2.9,0.8-5.9,1.5-8.8,2.2c-5.9,1.4-11.8,2.6-17.8,3.9c-11.9,2.5-23.7,4.8-35.5,7.7
					c-5.9,1.4-11.8,2.9-17.5,4.7c-2.8,0.9-5.7,2-8.5,3.2l-8.4,3.4c-5.6,2.3-11.1,4.7-16.7,7.2C246.4,255.7,240.9,258.2,235.4,260.7z
					"/>
				<path class="st6" d="M240.1,262c10.9-4.9,21.9-9.4,33.1-13.4c5.6-2,11.3-3.9,17-5.6c2.8-0.9,5.7-1.7,8.6-2.5
					c2.9-0.8,5.8-1.5,8.7-2.2c11.6-2.9,23.1-5.9,34.6-8.9c5.8-1.5,11.5-3.1,17.2-4.7c2.9-0.8,5.7-1.6,8.6-2.4
					c2.9-0.8,5.7-1.7,8.5-2.7c-11.2,4.1-22.7,7.2-34.2,10.5c-11.5,3.2-23,6.2-34.6,9.1c-11.6,2.8-23,6.2-34.2,10.1
					c-5.6,1.9-11.2,4-16.8,6.1C251.1,257.5,245.6,259.7,240.1,262z"/>
			</g>
		</g>
		<g>
			<path class="st7" d="M230.5,241.6l-0.9-1.7c-3.1-5.4-17.7-18.5-32.6-28c-14.2-9.1-56.2-36.5-56.7-36.8l-1-0.7l53.6-55.6l0.9,0.6
				c0.4,0.2,36,20.7,49.9,29.8c14,9.1,24.8,23.2,24.9,23.4l0.7,1.2l-0.1,0.3c-0.2,0.4-21.3,37.7-38.3,66.8L230.5,241.6z
				 M141.2,174.8c4.7,3,42.8,27.9,56.2,36.4c13.5,8.6,28.3,21.2,32.5,27.7c16.1-27.7,35.8-62.4,37.8-65.8
				c-1.5-1.9-11.6-14.5-24.5-22.9c-13.2-8.6-46-27.6-49.6-29.6L141.2,174.8z"/>
		</g>
		<g>
			<path class="st7" d="M246,241.2l-2.2,2.2l36.1-70l0-0.1c0.1-0.1,12.3-12.9,26.5-18.1c21.4-7.3,57.9-10.9,58.3-11l2.4-0.2
				l-0.2,0.7c0,0-14.5,46.4-20.2,64.8l-0.1,0.3l-2,0.2C264.1,215.4,246.2,241,246,241.2z M280.7,173.9l-33,64.1
				c7-6.8,31.4-24.5,96.6-29c5.4-17.3,18.1-58.1,19.9-63.8c-5.1,0.5-37.7,4.2-57.4,10.9C293.3,161.1,281.5,173.1,280.7,173.9z"/>
		</g>
	</g>
</g>
<g>
	<g>
		<g>
			<path class="st11" d="M203.6,381.2l-0.4,0c3.5-31.7,0-47.2,0-47.4l0.4-0.1C203.6,333.8,207.1,349.4,203.6,381.2z"/>
		</g>
		<g>
			<path class="st11" d="M204.9,381.2l-0.4,0c3.5-31.7,0-47.2,0-47.4l0.4-0.1C204.9,333.8,208.4,349.4,204.9,381.2z"/>
		</g>
		<g>
			<path class="st11" d="M201.2,380.9l-0.4,0c3.5-31.8,0.3-47.6,0.3-47.8l0.4-0.1C201.5,333.1,204.7,349,201.2,380.9z"/>
		</g>
		<g>
			<path class="st11" d="M189.5,378.5l-0.4,0c0-0.4,3.6-35.2,12.2-45.5l0.3,0.3C193.1,343.4,189.6,378.1,189.5,378.5z"/>
		</g>
		<g>
			<path class="st11" d="M190.3,378.5l-0.4,0c0-0.4,3.6-35.2,12.2-45.5l0.3,0.3C193.9,343.4,190.3,378.1,190.3,378.5z"/>
		</g>
		<g>
			<path class="st11" d="M191.6,379.7l-0.4,0c3.3-34.6,11.4-47,11.5-47.1l0.4,0.2C202.9,332.9,194.9,345.2,191.6,379.7z"/>
		</g>
		<g>
			<path class="st11" d="M192.8,380.1l-0.4,0c3.3-34.6,11.4-47,11.5-47.1l0.4,0.2C204.1,333.3,196.1,345.6,192.8,380.1z"/>
		</g>
		<g>
			<path class="st11" d="M200.1,381.1l-0.4-0.1c0.1-0.4,5.2-37.3,1.9-47.4l0.4-0.1C205.4,343.8,200.4,379.6,200.1,381.1z"/>
		</g>
		<g>
			<path class="st11" d="M201.9,381.5l-0.4,0c0.1-0.4,4.5-37.4,0.9-47.4l0.4-0.1C206.4,344,202.1,380,201.9,381.5z"/>
		</g>
		<g>
			<path class="st11" d="M193.9,379.6l-0.4-0.1c0.2-1.7,5.9-41,8.6-45.6l0.4,0.2C199.7,338.6,193.9,379.2,193.9,379.6z"/>
		</g>
		<g>
			<path class="st11" d="M198.5,380.4l-0.4-0.1c0.1-0.3,4.9-29.8,4.4-45.5l0.4,0C203.4,350.5,198.5,380.1,198.5,380.4z"/>
		</g>
		<g>
			<path class="st11" d="M197.8,380.4l-0.4-0.1c0.1-0.3,4.9-29.8,4.4-45.5l0.4,0C202.6,350.5,197.8,380.1,197.8,380.4z"/>
		</g>
		<g>
			<path class="st11" d="M196.4,380.3l-0.4,0c1.6-15.8,6.8-48.1,6.8-48.4l0.4,0.1C203.1,332.2,198,364.5,196.4,380.3z"/>
		</g>
		<g>
			<path class="st11" d="M195.6,380.3l-0.4,0c1.6-15.8,6.8-48.1,6.8-48.4l0.4,0.1C202.4,332.2,197.3,364.5,195.6,380.3z"/>
		</g>
		<g>
			<path class="st12" d="M204.3,381.2l-0.5-0.1c3.9-31.7,0-47.2,0-47.4l0.4-0.1C204.3,333.8,208.2,349.4,204.3,381.2z"/>
		</g>
		<g>
			<path class="st12" d="M201.6,380.9l-0.5-0.1c3.9-31.7,0-47.2,0-47.4l0.4-0.1C201.7,333.5,205.5,349,201.6,380.9z"/>
		</g>
		<g>
			<path class="st12" d="M188.8,378.5l-0.5,0c0-0.4,4-35.2,13.5-45.5l0.3,0.3C192.8,343.4,188.8,378.1,188.8,378.5z"/>
		</g>
		<g>
			<path class="st12" d="M189.6,378.5l-0.5,0c0-0.4,4-35.2,13.5-45.5l0.3,0.3C193.6,343.4,189.6,378.1,189.6,378.5z"/>
		</g>
		<g>
			<path class="st12" d="M190.9,379.6l-0.5,0c3.6-34.6,12.6-47,12.7-47.1l0.4,0.3C203.4,332.8,194.5,345.1,190.9,379.6z"/>
		</g>
		<g>
			<path class="st12" d="M192,380l-0.5,0c3.6-34.6,12.6-47,12.7-47.1l0.4,0.3C204.5,333.2,195.6,345.5,192,380z"/>
		</g>
		<g>
			<path class="st11" d="M200.8,381.2l-0.4-0.1c0.1-0.4,5.8-37.3,2.1-47.4l0.4-0.2C206.6,343.8,201.1,379.7,200.8,381.2z"/>
		</g>
		<g>
			<path class="st12" d="M202.5,381.5l-0.5-0.1c0.1-0.4,4.9-37.4,1-47.4l0.4-0.2C207.4,344,202.7,380,202.5,381.5z"/>
		</g>
		<g>
			<path class="st12" d="M193,379.5l-0.4-0.1c0.3-1.7,6.5-41.1,9.5-45.6l0.4,0.2C199.5,338.5,193.1,379.1,193,379.5z"/>
		</g>
		<g>
			<path class="st12" d="M199.1,380.6l-0.4-0.1c0.1-0.3,5.4-29.8,4.9-45.5l0.5,0C204.5,350.7,199.1,380.3,199.1,380.6z"/>
		</g>
		<g>
			<path class="st12" d="M196.7,380.3l-0.4-0.1c0.1-0.3,6.4-31,5.9-46.7l0.5,0C203.1,349.2,196.8,380,196.7,380.3z"/>
		</g>
		<g>
			<path class="st12" d="M196.3,380.3l-0.5,0c1.8-15.8,7.5-48.1,7.5-48.4l0.4,0.1C203.8,332.2,198.1,364.5,196.3,380.3z"/>
		</g>
		<g>
			<path class="st12" d="M194.7,380.3l-0.5,0c1.8-15.8,7.5-48.1,7.5-48.4l0.4,0.1C202.2,332.2,196.5,364.5,194.7,380.3z"/>
		</g>
	</g>
	<g>
		<g>
			<g>
				<path class="st8" d="M221.2,155.1c1.5-0.5,2.6-1.7,3.1-3.1c0,0.4,0.1,0.9,0.3,1.3c1,2.8,3.9,4.2,6.6,3.2c1.1-0.4,2-1.1,2.6-2.1
					c-0.1,0.9-0.1,1.8,0.2,2.7c1,2.8,3.9,4.2,6.6,3.2c0.1-0.1,0.3-0.1,0.4-0.2c0,0.6,0.1,1.1,0.3,1.7c1,2.8,3.9,4.2,6.6,3.2
					c0.3-0.1,0.7-0.3,1-0.5c-0.8,1.3-1,3-0.5,4.5c0.9,2.6,3.6,4,6.2,3.3c-1.2,1.4-1.7,3.4-1,5.3c1,2.8,3.9,4.2,6.6,3.2
					c2.7-1,4.1-4,3.1-6.8c-0.9-2.6-3.6-4-6.2-3.3c1.2-1.4,1.7-3.4,1-5.3c-1-2.8-3.9-4.2-6.6-3.2c-0.3,0.1-0.7,0.3-1,0.5
					c0.8-1.3,1-3,0.5-4.5c-1-2.8-3.9-4.2-6.6-3.2c-0.1,0.1-0.3,0.1-0.4,0.2c0-0.6-0.1-1.1-0.3-1.7c-1-2.8-3.9-4.2-6.6-3.2
					c-1.1,0.4-2,1.1-2.6,2.1c0.1-0.9,0.1-1.8-0.2-2.7c-1-2.8-3.9-4.2-6.6-3.2c-1.5,0.5-2.6,1.7-3.1,3.1c0-0.4-0.1-0.9-0.3-1.3
					c-1-2.8-3.9-4.2-6.6-3.2c-2.7,1-4.1,4-3.1,6.8C215.5,154.7,218.5,156.1,221.2,155.1z"/>
				<path class="st8" d="M201.5,160.1c2.7-1,4.1-4,3.2-6.7c1.2,2.1,3.8,3.1,6.2,2.2c2.7-1,4.1-4,3.1-6.8s-3.9-4.2-6.6-3.2
					c-2.7,1-4.1,4-3.2,6.7c-1.2-2.1-3.8-3.1-6.2-2.2c-2.7,1-4.1,4-3.1,6.8C195.8,159.6,198.8,161,201.5,160.1z"/>
				<path class="st8" d="M229.5,246.2c-0.6-1.6-1.8-2.8-3.3-3.2c2.4-1.1,3.6-4,2.7-6.6c-0.8-2.1-2.7-3.5-4.8-3.5
					c1.2-1.4,1.7-3.4,1-5.3c-0.9-2.6-3.5-4-6.1-3.4c0.9-1.4,1.2-3.1,0.6-4.8c-0.9-2.5-3.3-3.9-5.8-3.4c0.2-0.9,0.2-1.9-0.2-2.9
					c-0.9-2.7-3.8-4.1-6.4-3.3c0.2-1,0.2-2-0.1-3c-0.9-2.6-3.6-4-6.1-3.4c0.2-1,0.2-2-0.2-3c-0.8-2.3-3.1-3.7-5.4-3.5
					c0.6-1.2,0.6-2.6,0.2-4c-0.7-1.9-2.4-3.2-4.2-3.5c0.6-1.2,0.8-2.8,0.3-4.2c-0.4-1.2-1.3-2.2-2.3-2.8c1.7-1.4,2.5-3.8,1.7-6
					c-0.3-0.8-0.7-1.4-1.2-2c2.5-1.1,3.8-4,2.9-6.6c-0.1-0.2-0.1-0.4-0.2-0.5c0.4-0.1,0.8-0.1,1.1-0.3c2.7-1,4.1-4,3.1-6.8
					s-3.9-4.2-6.6-3.2c-2.7,1-4.1,4-3.1,6.8c0.1,0.2,0.1,0.4,0.2,0.5c-0.4,0.1-0.8,0.1-1.1,0.3c-2.7,1-4.1,4-3.1,6.8
					c0.3,0.8,0.7,1.4,1.2,2c-2.5,1.1-3.8,4-2.9,6.6c0.4,1.2,1.3,2.2,2.3,2.8c-1.7,1.4-2.5,3.8-1.7,6c0.7,1.9,2.4,3.2,4.2,3.5
					c-0.6,1.2-0.8,2.8-0.3,4.2c0.8,2.3,3.1,3.7,5.4,3.5c-0.6,1.2-0.6,2.6-0.2,4c0.9,2.6,3.6,4,6.1,3.4c-0.2,1-0.2,2,0.2,3
					c0.9,2.7,3.8,4.1,6.4,3.3c-0.2,1-0.2,2,0.1,3c0.9,2.5,3.3,3.9,5.8,3.4c-0.2,0.9-0.2,1.9,0.2,2.9c0.9,2.6,3.5,4,6.1,3.4
					c-0.9,1.4-1.2,3.1-0.6,4.8c0.8,2.1,2.7,3.5,4.8,3.5c-1.2,1.4-1.7,3.4-1,5.3c0.6,1.6,1.8,2.8,3.3,3.2c-2.4,1.1-3.6,4-2.7,6.6
					c0.4,1,1,1.9,1.8,2.5c-0.8-0.1-1.6,0-2.4,0.3c-2.7,1-4.1,4-3.1,6.8c0.4,1.2,1.2,2.1,2.2,2.8c-1.2-0.6-2.6-0.7-4-0.2
					c-2.7,1-4.1,4-3.1,6.8c0.4,1.2,1.3,2.2,2.4,2.8c-0.9-0.2-1.9-0.1-2.8,0.2c-2.7,1-4.1,4-3.1,6.8c0.5,1.4,1.4,2.4,2.6,3
					c-0.6,0-1.3,0.1-1.9,0.3c-2.7,1-4.1,4-3.1,6.8c0.7,2,2.5,3.3,4.4,3.5c-0.1,0-0.2,0.1-0.3,0.1c-2.7,1-4.1,4-3.1,6.8
					c0.4,1.1,1.2,2,2.1,2.6c2.6-0.8,5.1-1.9,7.7-2.8c0.3-1.1,0.4-2.3,0-3.4c-0.7-2-2.5-3.3-4.4-3.5c0.1,0,0.2-0.1,0.3-0.1
					c2.7-1,4.1-4,3.1-6.8c-0.5-1.4-1.4-2.4-2.6-3c0.6,0,1.3-0.1,1.9-0.3c2.7-1,4.1-4,3.1-6.8c-0.4-1.2-1.3-2.2-2.4-2.8
					c0.9,0.2,1.9,0.2,2.8-0.2c2.7-1,4.1-4,3.1-6.8c-0.4-1.2-1.2-2.1-2.2-2.8c1.2,0.6,2.6,0.7,4,0.2c2.7-1,4.1-4,3.1-6.8
					c-0.4-1-1-1.9-1.8-2.5c0.8,0.1,1.6,0,2.4-0.3C229.1,251.9,230.4,248.9,229.5,246.2z"/>
				<path class="st8" d="M262.9,202.2c0.4-0.1,0.8-0.1,1.1-0.3c2.7-1,4.1-4,3.1-6.8c-0.8-2.4-3.1-3.7-5.5-3.5c0.1,0,0.1,0,0.2-0.1
					c2.7-1,4.1-4,3.1-6.8s-3.9-4.2-6.6-3.2c-2.7,1-4.1,4-3.1,6.8c0.8,2.4,3.1,3.7,5.5,3.5c-0.1,0-0.1,0-0.2,0.1
					c-2.7,1-4.1,4-3.1,6.8c0.5,1.5,1.7,2.7,3.1,3.2c-0.4,0.1-0.8,0.1-1.1,0.3c-2.7,1-4.1,4-3.1,6.8c0.5,1.5,1.7,2.6,3,3.2
					c-0.6,0-1.1,0.1-1.7,0.3c-2.7,1-4.1,4-3.1,6.8c0.4,1.2,1.2,2.1,2.2,2.7c-1.2-0.7-2.8-0.9-4.2-0.3c-2.7,1-4.1,4-3.1,6.8
					c0.5,1.4,1.4,2.4,2.6,3c-0.9-0.2-1.9-0.2-2.9,0.2c-2.7,1-4.1,4-3.1,6.8c0.2,0.5,0.4,1,0.7,1.4c-1.2-0.7-2.8-0.9-4.2-0.3
					c-2.7,1-4.1,4-3.1,6.8c0.4,1,1,1.8,1.7,2.4c-1.3-0.8-2.9-0.9-4.3-0.4c-2.7,1-4.1,4-3.1,6.8c0.3,0.8,0.7,1.4,1.2,2
					c-1.1-0.4-2.4-0.5-3.6,0c-2.7,1-4.1,4-3.1,6.8c0.6,1.7,2,3,3.7,3.4c-0.5,0-1,0.1-1.5,0.3c-2.7,1-4.1,4-3.1,6.8
					c0.8,2.1,2.7,3.5,4.8,3.5c-0.2,0-0.5,0.1-0.8,0.2c-2.7,1-4.1,4-3.1,6.8s3.9,4.2,6.6,3.2c2.7-1,4.1-4,3.1-6.8
					c-0.8-2.1-2.7-3.5-4.8-3.5c0.2,0,0.5-0.1,0.8-0.2c2.7-1,4.1-4,3.1-6.8c-0.6-1.7-2-3-3.7-3.4c0.5,0,1-0.1,1.5-0.3
					c2.7-1,4.1-4,3.1-6.8c-0.3-0.8-0.7-1.4-1.2-2c1.1,0.4,2.4,0.5,3.6,0c2.7-1,4.1-4,3.1-6.8c-0.4-1-1-1.8-1.7-2.4
					c1.3,0.8,2.9,0.9,4.3,0.4c2.7-1,4.1-4,3.1-6.8c-0.2-0.5-0.4-1-0.7-1.4c1.2,0.7,2.8,0.9,4.2,0.3c2.7-1,4.1-4,3.1-6.8
					c-0.5-1.4-1.4-2.4-2.6-3c0.9,0.2,1.9,0.2,2.9-0.2c2.7-1,4.1-4,3.1-6.8c-0.4-1.2-1.2-2.1-2.1-2.7c1.2,0.7,2.8,0.9,4.2,0.3
					c2.7-1,4.1-4,3.1-6.8c-0.5-1.5-1.7-2.6-3-3.2c0.6,0,1.1-0.1,1.7-0.3c2.7-1,4.1-4,3.1-6.8C265.4,203.8,264.3,202.7,262.9,202.2z"
					/>
			</g>
		</g>
		<g>
			<g>
				<path class="st13" d="M205.8,334c-0.7,1.2-2.4,1.5-3.7,0.6c-1.3-0.8-1.8-2.4-1-3.6c0.7-1.2,2.4-1.5,3.7-0.6
					C206.1,331.2,206.5,332.9,205.8,334z"/>
				<path class="st14" d="M204.8,330.4c-0.9-0.6-1.9-0.6-2.7-0.2c0,0.9,0.5,1.8,1.4,2.4c0.9,0.6,1.9,0.6,2.7,0.2
					C206.1,331.9,205.6,331,204.8,330.4z"/>
				<path class="st13" d="M204,331.6L204,331.6c-1.8-1.1-2.3-3.4-1.2-5.2l6.7-10.6c1.1-1.8,3.4-2.3,5.2-1.2l0,0
					c1.8,1.1,2.3,3.4,1.2,5.2l-6.7,10.6C208.1,332.2,205.8,332.7,204,331.6z"/>
				<path class="st14" d="M209.7,315.6c0.3,1.1,1,2.2,2.2,2.9c1.5,0.9,3.1,1,4.4,0.5c0.6-1.6,0-3.5-1.5-4.5
					C213,313.5,210.8,314,209.7,315.6z"/>
				<path class="st15" d="M204.6,329.5L204.6,329.5c-0.6-0.4-0.8-1.1-0.4-1.7l6.4-10.2c0.4-0.6,1.1-0.8,1.7-0.4l0,0
					c0.6,0.4,0.8,1.1,0.4,1.7l-6.4,10.2C205.9,329.7,205.1,329.9,204.6,329.5z"/>
				<path class="st13" d="M218.8,316.6c-1,1.6-3.6,1.9-5.7,0.6s-2.9-3.7-1.9-5.4c1-1.6,3.6-1.9,5.7-0.6
					C218.9,312.6,219.8,315,218.8,316.6z"/>
				<path class="st15" d="M217.8,314c-0.4,0.6-1.6,0.6-2.7-0.1c-1.1-0.7-1.6-1.7-1.2-2.4s1.6-0.6,2.7,0.1
					C217.7,312.4,218.2,313.4,217.8,314z"/>
				<g>
					<path class="st16" d="M215.7,312.8c1.4-3.9,0.2-6.9,0.2-6.9l0.4-0.2c0.1,0.1,1,2.7,0.1,6.3c1.6-1.5,4.2-2.9,5.1-2.9l0,0.5
						c-0.7,0-4,1.7-5.4,3.4L215.7,312.8z"/>
				</g>
			</g>
			<g>
				<g>
					<path class="st17" d="M232.5,153.1c1,2.8,4.1,4.3,6.9,3.3c2.8-1,4.3-4.1,3.3-6.9c-1-2.8-4.1-4.3-6.9-3.3
						C233,147.2,231.5,150.3,232.5,153.1z"/>
					<path class="st15" d="M235.1,149c0.1,1.2,1.3,2.1,2.7,2.1c1.4-0.1,2.5-1.1,2.4-2.3s-1.3-2.1-2.7-2.1
						C236.1,146.7,235,147.8,235.1,149z"/>
				</g>
				<g>
					<path class="st17" d="M222.7,149.2c1,2.8,4.1,4.3,6.9,3.3c2.8-1,4.3-4.1,3.3-6.9c-1-2.8-4.1-4.3-6.9-3.3
						C223.2,143.3,221.7,146.4,222.7,149.2z"/>
					<path class="st15" d="M225.2,145c0.1,1.2,1.3,2.1,2.7,2.1c1.4-0.1,2.5-1.1,2.4-2.3s-1.3-2.1-2.7-2.1
						C226.3,142.8,225.2,143.8,225.2,145z"/>
				</g>
				<g>
					<path class="st17" d="M212.3,147.7c1,2.8,4.1,4.3,6.9,3.3c2.8-1,4.3-4.1,3.3-6.9c-1-2.8-4.1-4.3-6.9-3.3
						C212.8,141.8,211.3,144.9,212.3,147.7z"/>
					<path class="st15" d="M214.8,143.6c0.1,1.2,1.3,2.1,2.7,2.1c1.4-0.1,2.5-1.1,2.4-2.3s-1.3-2.1-2.7-2.1
						C215.9,141.3,214.8,142.4,214.8,143.6z"/>
				</g>
				<g>
					<path class="st17" d="M201.5,148.2c1,2.8,4.1,4.3,6.9,3.3c2.8-1,4.3-4.1,3.3-6.9c-1-2.8-4.1-4.3-6.9-3.3
						C202,142.3,200.5,145.4,201.5,148.2z"/>
					<path class="st15" d="M204,144c0.1,1.2,1.3,2.1,2.7,2.1c1.4-0.1,2.5-1.1,2.4-2.3s-1.3-2.1-2.7-2.1
						C205.1,141.8,204,142.8,204,144z"/>
				</g>
				<g>
					<path class="st17" d="M191.8,152.7c1,2.8,4.1,4.3,6.9,3.3c2.8-1,4.3-4.1,3.3-6.9c-1-2.8-4.1-4.3-6.9-3.3
						C192.2,146.8,190.8,149.9,191.8,152.7z"/>
					<path class="st15" d="M194.3,148.6c0.1,1.2,1.3,2.1,2.7,2.1c1.4-0.1,2.5-1.1,2.4-2.3s-1.3-2.1-2.7-2.1
						C195.3,146.3,194.2,147.4,194.3,148.6z"/>
				</g>
				<g>
					<path class="st17" d="M183.6,160c1,2.8,4.1,4.3,6.9,3.3c2.8-1,4.3-4.1,3.3-6.9c-1-2.8-4.1-4.3-6.9-3.3
						C184.1,154.1,182.6,157.2,183.6,160z"/>
					<path class="st15" d="M186.2,155.8c0.1,1.2,1.3,2.1,2.7,2.1c1.4-0.1,2.5-1.1,2.4-2.3s-1.3-2.1-2.7-2.1
						C187.2,153.6,186.1,154.6,186.2,155.8z"/>
				</g>
				<g>
					<path class="st17" d="M179.4,167.7c1,2.8,4.1,4.3,6.9,3.3c2.8-1,4.3-4.1,3.3-6.9c-1-2.8-4.1-4.3-6.9-3.3
						C179.9,161.8,178.4,164.9,179.4,167.7z"/>
					<path class="st15" d="M182,163.6c0.1,1.2,1.3,2.1,2.7,2.1c1.4-0.1,2.5-1.1,2.4-2.3s-1.3-2.1-2.7-2.1
						C183,161.3,181.9,162.4,182,163.6z"/>
				</g>
				<g>
					<path class="st17" d="M177.7,176.5c1,2.8,4.1,4.3,6.9,3.3c2.8-1,4.3-4.1,3.3-6.9c-1-2.8-4.1-4.3-6.9-3.3
						C178.2,170.6,176.7,173.7,177.7,176.5z"/>
					<path class="st15" d="M180.2,172.4c0.1,1.2,1.3,2.1,2.7,2.1c1.4-0.1,2.5-1.1,2.4-2.3s-1.3-2.1-2.7-2.1
						C181.3,170.1,180.2,171.2,180.2,172.4z"/>
				</g>
				<g>
					<path class="st17" d="M178.3,185.5c1,2.8,4.1,4.3,6.9,3.3c2.8-1,4.3-4.1,3.3-6.9c-1-2.8-4.1-4.3-6.9-3.3
						C178.8,179.6,177.3,182.7,178.3,185.5z"/>
					<path class="st15" d="M180.8,181.3c0.1,1.2,1.3,2.1,2.7,2.1c1.4-0.1,2.5-1.1,2.4-2.3s-1.3-2.1-2.7-2.1
						C181.9,179.1,180.8,180.1,180.8,181.3z"/>
				</g>
				<g>
					<path class="st17" d="M182.4,193.3c1,2.8,4.1,4.3,6.9,3.3c2.8-1,4.3-4.1,3.3-6.9c-1-2.8-4.1-4.3-6.9-3.3
						C182.9,187.4,181.4,190.5,182.4,193.3z"/>
					<path class="st15" d="M184.9,189.1c0.1,1.2,1.3,2.1,2.7,2.1c1.4-0.1,2.5-1.1,2.4-2.3s-1.3-2.1-2.7-2.1
						C186,186.9,184.9,187.9,184.9,189.1z"/>
				</g>
				<g>
					<path class="st17" d="M187.8,200.9c1,2.8,4.1,4.3,6.9,3.3c2.8-1,4.3-4.1,3.3-6.9c-1-2.8-4.1-4.3-6.9-3.3
						C188.3,195.1,186.8,198.1,187.8,200.9z"/>
					<path class="st15" d="M190.4,196.8c0.1,1.2,1.3,2.1,2.7,2.1c1.4-0.1,2.5-1.1,2.4-2.3s-1.3-2.1-2.7-2.1
						C191.4,194.5,190.3,195.6,190.4,196.8z"/>
				</g>
				<g>
					<path class="st17" d="M194.4,207.4c1,2.8,4.1,4.3,6.9,3.3c2.8-1,4.3-4.1,3.3-6.9c-1-2.8-4.1-4.3-6.9-3.3
						C194.8,201.5,193.4,204.6,194.4,207.4z"/>
					<path class="st15" d="M196.9,203.3c0.1,1.2,1.3,2.1,2.7,2.1c1.4-0.1,2.5-1.1,2.4-2.3s-1.3-2.1-2.7-2.1
						C197.9,201,196.8,202.1,196.9,203.3z"/>
				</g>
				<g>
					<path class="st17" d="M201.2,213.9c1,2.8,4.1,4.3,6.9,3.3c2.8-1,4.3-4.1,3.3-6.9c-1-2.8-4.1-4.3-6.9-3.3
						C201.7,208,200.2,211.1,201.2,213.9z"/>
					<path class="st15" d="M203.7,209.7c0.1,1.2,1.3,2.1,2.7,2.1c1.4-0.1,2.5-1.1,2.4-2.3s-1.3-2.1-2.7-2.1
						C204.8,207.5,203.7,208.5,203.7,209.7z"/>
				</g>
				<g>
					<path class="st17" d="M207.4,220.4c1,2.8,4.1,4.3,6.9,3.3c2.8-1,4.3-4.1,3.3-6.9c-1-2.8-4.1-4.3-6.9-3.3
						C207.9,214.5,206.4,217.6,207.4,220.4z"/>
					<path class="st15" d="M209.9,216.2c0.1,1.2,1.3,2.1,2.7,2.1c1.4-0.1,2.5-1.1,2.4-2.3s-1.3-2.1-2.7-2.1
						C211,213.9,209.9,215,209.9,216.2z"/>
				</g>
				<g>
					<path class="st17" d="M213.1,228.7c1,2.8,4.1,4.3,6.9,3.3c2.8-1,4.3-4.1,3.3-6.9c-1-2.8-4.1-4.3-6.9-3.3
						C213.6,222.8,212.1,225.9,213.1,228.7z"/>
					<path class="st15" d="M215.6,224.5c0.1,1.2,1.3,2.1,2.7,2.1c1.4-0.1,2.5-1.1,2.4-2.3s-1.3-2.1-2.7-2.1
						C216.6,222.3,215.6,223.3,215.6,224.5z"/>
				</g>
				<g>
					<path class="st17" d="M217.1,237.7c1,2.8,4.1,4.3,6.9,3.3c2.8-1,4.3-4.1,3.3-6.9c-1-2.8-4.1-4.3-6.9-3.3
						C217.5,231.8,216.1,234.9,217.1,237.7z"/>
					<path class="st15" d="M219.6,233.5c0.1,1.2,1.3,2.1,2.7,2.1c1.4-0.1,2.5-1.1,2.4-2.3s-1.3-2.1-2.7-2.1
						C220.6,231.3,219.5,232.3,219.6,233.5z"/>
				</g>
				<g>
					<path class="st17" d="M217.7,247.8c1,2.8,4.1,4.3,6.9,3.3c2.8-1,4.3-4.1,3.3-6.9c-1-2.8-4.1-4.3-6.9-3.3
						C218.2,241.9,216.7,244.9,217.7,247.8z"/>
					<path class="st15" d="M220.2,243.6c0.1,1.2,1.3,2.1,2.7,2.1c1.4-0.1,2.5-1.1,2.4-2.3s-1.3-2.1-2.7-2.1
						C221.3,241.3,220.2,242.4,220.2,243.6z"/>
				</g>
				<g>
					<path class="st13" d="M213.8,257.5c1,2.8,4.1,4.3,6.9,3.3c2.8-1,4.3-4.1,3.3-6.9c-1-2.8-4.1-4.3-6.9-3.3
						C214.2,251.6,212.8,254.6,213.8,257.5z"/>
					<path class="st15" d="M216.3,253.3c0.1,1.2,1.3,2.1,2.7,2.1c1.4-0.1,2.5-1.1,2.4-2.3s-1.3-2.1-2.7-2.1
						C217.4,251,216.3,252.1,216.3,253.3z"/>
				</g>
				<g>
					<path class="st13" d="M208.6,266.9c1,2.8,4.1,4.3,6.9,3.3c2.8-1,4.3-4.1,3.3-6.9c-1-2.8-4.1-4.3-6.9-3.3
						C209.1,261,207.6,264.1,208.6,266.9z"/>
					<path class="st15" d="M211.1,262.8c0.1,1.2,1.3,2.1,2.7,2c1.4-0.1,2.5-1.1,2.4-2.3c-0.1-1.2-1.3-2.1-2.7-2
						C212.2,260.5,211.1,261.6,211.1,262.8z"/>
				</g>
				<g>
					<path class="st13" d="M204.9,276.9c1,2.8,4.1,4.3,6.9,3.3c2.8-1,4.3-4.1,3.3-6.9c-1-2.8-4.1-4.3-6.9-3.3
						C205.3,271,203.9,274.1,204.9,276.9z"/>
					<path class="st15" d="M207.4,272.8c0.1,1.2,1.3,2.1,2.7,2c1.4-0.1,2.5-1.1,2.4-2.3c-0.1-1.2-1.3-2.1-2.7-2
						C208.4,270.5,207.3,271.5,207.4,272.8z"/>
				</g>
				<g>
					<path class="st13" d="M202.3,287.2c1,2.8,4.1,4.3,6.9,3.3c2.8-1,4.3-4.1,3.3-6.9c-1-2.8-4.1-4.3-6.9-3.3
						C202.8,281.3,201.3,284.4,202.3,287.2z"/>
					<path class="st15" d="M204.9,283c0.1,1.2,1.3,2.1,2.7,2c1.4-0.1,2.5-1.1,2.4-2.3c-0.1-1.2-1.3-2.1-2.7-2
						C205.9,280.8,204.8,281.8,204.9,283z"/>
				</g>
				<g>
					<path class="st13" d="M203.4,297.8c1,2.8,4.1,4.3,6.9,3.3c2.8-1,4.3-4.1,3.3-6.9c-1-2.8-4.1-4.3-6.9-3.3
						C203.8,291.9,202.4,294.9,203.4,297.8z"/>
					<path class="st15" d="M205.9,293.6c0.1,1.2,1.3,2.1,2.7,2c1.4-0.1,2.5-1.1,2.4-2.3c-0.1-1.2-1.3-2.1-2.7-2
						C206.9,291.3,205.8,292.4,205.9,293.6z"/>
				</g>
				<g>
					<path class="st13" d="M209,306.8c1,2.8,4.1,4.3,6.9,3.3c2.8-1,4.3-4.1,3.3-6.9c-1-2.8-4.1-4.3-6.9-3.3
						C209.5,300.9,208,303.9,209,306.8z"/>
					<path class="st15" d="M211.6,302.6c0.1,1.2,1.3,2.1,2.7,2c1.4-0.1,2.5-1.1,2.4-2.3c-0.1-1.2-1.3-2.1-2.7-2
						C212.6,300.3,211.5,301.4,211.6,302.6z"/>
				</g>
				<g>
					<path class="st13" d="M218.9,310.9c1,2.8,4.1,4.3,6.9,3.3s4.3-4.1,3.3-6.9c-1-2.8-4.1-4.3-6.9-3.3
						C219.3,305,217.9,308.1,218.9,310.9z"/>
					<path class="st15" d="M221.4,306.8c0.1,1.2,1.3,2.1,2.7,2c1.4-0.1,2.5-1.1,2.4-2.3c-0.1-1.2-1.3-2.1-2.7-2
						C222.4,304.5,221.3,305.5,221.4,306.8z"/>
				</g>
				<g>
					<path class="st13" d="M227.4,304.5c1,2.8,4.1,4.3,6.9,3.3c2.8-1,4.3-4.1,3.3-6.9c-1-2.8-4.1-4.3-6.9-3.3
						C227.8,298.6,226.4,301.7,227.4,304.5z"/>
					<path class="st15" d="M229.9,300.3c0.1,1.2,1.3,2.1,2.7,2c1.4-0.1,2.5-1.1,2.4-2.3c-0.1-1.2-1.3-2.1-2.7-2
						C230.9,298.1,229.8,299.1,229.9,300.3z"/>
				</g>
				<g>
					<path class="st13" d="M226.3,293.9c1,2.8,4.1,4.3,6.9,3.3c2.8-1,4.3-4.1,3.3-6.9c-1-2.8-4.1-4.3-6.9-3.3
						C226.7,287.9,225.3,291,226.3,293.9z"/>
					<path class="st15" d="M228.8,289.7c0.1,1.2,1.3,2.1,2.7,2c1.4-0.1,2.5-1.1,2.4-2.3c-0.1-1.2-1.3-2.1-2.7-2
						C229.8,287.4,228.7,288.5,228.8,289.7z"/>
				</g>
				<g>
					<path class="st13" d="M226.3,283c1,2.8,4.1,4.3,6.9,3.3c2.8-1,4.3-4.1,3.3-6.9c-1-2.8-4.1-4.3-6.9-3.3
						C226.7,277.1,225.3,280.2,226.3,283z"/>
					<path class="st15" d="M228.8,278.9c0.1,1.2,1.3,2.1,2.7,2c1.4-0.1,2.5-1.1,2.4-2.3c-0.1-1.2-1.3-2.1-2.7-2
						C229.8,276.6,228.7,277.7,228.8,278.9z"/>
				</g>
				<g>
					<path class="st13" d="M225.3,272.3c1,2.8,4.1,4.3,6.9,3.3c2.8-1,4.3-4.1,3.3-6.9c-1-2.8-4.1-4.3-6.9-3.3
						C225.8,266.4,224.3,269.5,225.3,272.3z"/>
					<path class="st15" d="M227.8,268.2c0.1,1.2,1.3,2.1,2.7,2c1.4-0.1,2.5-1.1,2.4-2.3s-1.3-2.1-2.7-2
						C228.9,265.9,227.8,267,227.8,268.2z"/>
				</g>
				<g>
					<path class="st13" d="M226.3,261.7c1,2.8,4.1,4.3,6.9,3.3c2.8-1,4.3-4.1,3.3-6.9c-1-2.8-4.1-4.3-6.9-3.3
						C226.7,255.8,225.3,258.9,226.3,261.7z"/>
					<path class="st15" d="M228.8,257.5c0.1,1.2,1.3,2.1,2.7,2c1.4-0.1,2.5-1.1,2.4-2.3c-0.1-1.2-1.3-2.1-2.7-2.1
						C229.8,255.3,228.7,256.3,228.8,257.5z"/>
				</g>
				<g>
					<path class="st17" d="M232,252.8c1,2.8,4.1,4.3,6.9,3.3c2.8-1,4.3-4.1,3.3-6.9c-1-2.8-4.1-4.3-6.9-3.3
						C232.5,246.9,231,250,232,252.8z"/>
					<path class="st15" d="M234.5,248.7c0.1,1.2,1.3,2.1,2.7,2.1c1.4-0.1,2.5-1.1,2.4-2.3s-1.3-2.1-2.7-2.1
						C235.6,246.4,234.5,247.5,234.5,248.7z"/>
				</g>
				<g>
					<path class="st17" d="M238,243.9c1,2.8,4.1,4.3,6.9,3.3c2.8-1,4.3-4.1,3.3-6.9c-1-2.8-4.1-4.3-6.9-3.3
						C238.4,238,237,241.1,238,243.9z"/>
					<path class="st15" d="M240.5,239.7c0.1,1.2,1.3,2.1,2.7,2.1c1.4-0.1,2.5-1.1,2.4-2.3s-1.3-2.1-2.7-2.1
						C241.6,237.4,240.4,238.5,240.5,239.7z"/>
				</g>
				<g>
					<path class="st17" d="M244.9,235.9c1,2.8,4.1,4.3,6.9,3.3c2.8-1,4.3-4.1,3.3-6.9c-1-2.8-4.1-4.3-6.9-3.3
						C245.4,230,243.9,233.1,244.9,235.9z"/>
					<path class="st15" d="M247.4,231.7c0.1,1.2,1.3,2.1,2.7,2.1c1.4-0.1,2.5-1.1,2.4-2.3s-1.3-2.1-2.7-2.1
						C248.5,229.5,247.4,230.5,247.4,231.7z"/>
				</g>
				<g>
					<path class="st17" d="M248.4,225.8c1,2.8,4.1,4.3,6.9,3.3c2.8-1,4.3-4.1,3.3-6.9c-1-2.8-4.1-4.3-6.9-3.3
						C248.9,219.9,247.4,223,248.4,225.8z"/>
					<path class="st15" d="M251,221.6c0.1,1.2,1.3,2.1,2.7,2.1c1.4-0.1,2.5-1.1,2.5-2.3s-1.3-2.1-2.7-2.1
						C252,219.4,250.9,220.4,251,221.6z"/>
				</g>
				<g>
					<path class="st17" d="M253.9,216.4c1,2.8,4.1,4.3,6.9,3.3c2.8-1,4.3-4.1,3.3-6.9c-1-2.8-4.1-4.3-6.9-3.3
						C254.3,210.5,252.9,213.6,253.9,216.4z"/>
					<path class="st15" d="M256.4,212.3c0.1,1.2,1.3,2.1,2.7,2.1c1.4-0.1,2.5-1.1,2.5-2.3s-1.3-2.1-2.7-2.1
						C257.4,210,256.3,211.1,256.4,212.3z"/>
				</g>
				<g>
					<path class="st17" d="M255.7,206c1,2.8,4.1,4.3,6.9,3.3c2.8-1,4.3-4.1,3.3-6.9c-1-2.8-4.1-4.3-6.9-3.3
						C256.2,200.1,254.7,203.2,255.7,206z"/>
					<path class="st15" d="M258.2,201.8c0.1,1.2,1.3,2.1,2.7,2.1c1.4-0.1,2.5-1.1,2.5-2.3s-1.3-2.1-2.7-2.1
						C259.3,199.6,258.2,200.6,258.2,201.8z"/>
				</g>
				<g>
					<path class="st17" d="M257,195.6c1,2.8,4.1,4.3,6.9,3.3c2.8-1,4.3-4.1,3.3-6.9c-1-2.8-4.1-4.3-6.9-3.3
						C257.4,189.6,255.9,192.7,257,195.6z"/>
					<path class="st15" d="M259.5,191.4c0.1,1.2,1.3,2.1,2.7,2.1c1.4-0.1,2.5-1.1,2.5-2.3s-1.3-2.1-2.7-2.1
						C260.5,189.1,259.4,190.2,259.5,191.4z"/>
				</g>
				<g>
					<path class="st17" d="M254.8,185c1,2.8,4.1,4.3,6.9,3.3c2.8-1,4.3-4.1,3.3-6.9c-1-2.8-4.1-4.3-6.9-3.3
						C255.2,179.1,253.8,182.2,254.8,185z"/>
					<path class="st15" d="M257.3,180.9c0.1,1.2,1.3,2.1,2.7,2.1c1.4-0.1,2.5-1.1,2.5-2.3s-1.3-2.1-2.7-2.1
						C258.3,178.6,257.2,179.6,257.3,180.9z"/>
				</g>
				<g>
					<path class="st17" d="M253,174.2c1,2.8,4.1,4.3,6.9,3.3c2.8-1,4.3-4.1,3.3-6.9c-1-2.8-4.1-4.3-6.9-3.3
						C253.5,168.3,252,171.4,253,174.2z"/>
					<path class="st15" d="M255.5,170c0.1,1.2,1.3,2.1,2.7,2.1c1.4-0.1,2.5-1.1,2.5-2.3s-1.3-2.1-2.7-2.1
						C256.6,167.8,255.5,168.8,255.5,170z"/>
				</g>
				<g>
					<path class="st17" d="M247.6,165.4c1,2.8,4.1,4.3,6.9,3.3c2.8-1,4.3-4.1,3.3-6.9c-1-2.8-4.1-4.3-6.9-3.3
						C248.1,159.5,246.6,162.6,247.6,165.4z"/>
					<path class="st15" d="M250.1,161.2c0.1,1.2,1.3,2.1,2.7,2.1c1.4-0.1,2.5-1.1,2.4-2.3s-1.3-2.1-2.7-2.1
						C251.2,159,250.1,160,250.1,161.2z"/>
				</g>
				<g>
					<path class="st17" d="M240.2,158c1,2.8,4.1,4.3,6.9,3.3c2.8-1,4.3-4.1,3.3-6.9c-1-2.8-4.1-4.3-6.9-3.3
						C240.6,152.1,239.2,155.2,240.2,158z"/>
					<path class="st15" d="M242.7,153.8c0.1,1.2,1.3,2.1,2.7,2.1c1.4-0.1,2.5-1.1,2.4-2.3s-1.3-2.1-2.7-2.1
						C243.7,151.6,242.6,152.6,242.7,153.8z"/>
				</g>
			</g>
		</g>
	</g>
</g>
</svg>
