<svg width="11" height="11" viewBox="0 0 11 11" fill="none" xmlns="http://www.w3.org/2000/svg">
<g clip-path="url(#clip0_116_45714)">
<path d="M10.3918 5.68341L8.76016 6.87508L9.37983 8.79412C9.47997 9.09176 9.48123 9.41379 9.38344 9.7122C9.28565 10.0106 9.09403 10.2694 8.83716 10.4501C8.58468 10.6365 8.27873 10.7364 7.96488 10.7348C7.65103 10.7333 7.34609 10.6303 7.09549 10.4414L5.50003 9.26712L3.90412 10.44C3.6521 10.6254 3.34779 10.7261 3.03495 10.7276C2.7221 10.7291 2.41683 10.6314 2.16302 10.4485C1.90921 10.2656 1.71993 10.0069 1.6224 9.70963C1.52488 9.41237 1.52412 9.09184 1.62024 8.79412L2.23991 6.87508L0.608242 5.68341C0.356553 5.4994 0.169454 5.24055 0.0736675 4.94384C-0.0221186 4.64714 -0.0216904 4.32775 0.0748901 4.0313C0.17147 3.73485 0.359261 3.47651 0.611442 3.29316C0.863622 3.10982 1.16729 3.01086 1.47907 3.01041H3.48337L4.09158 1.11475C4.18722 0.816353 4.37516 0.556045 4.6283 0.371361C4.88143 0.186676 5.18669 0.0871582 5.50003 0.0871582C5.81338 0.0871582 6.11863 0.186676 6.37177 0.371361C6.62491 0.556045 6.81285 0.816353 6.90849 1.11475L7.5167 3.01041H9.51916C9.83094 3.01086 10.1346 3.10982 10.3868 3.29316C10.639 3.47651 10.8268 3.73485 10.9233 4.0313C11.0199 4.32775 11.0204 4.64714 10.9246 4.94384C10.8288 5.24055 10.6417 5.4994 10.39 5.68341H10.3918Z" fill="#C0C0C0"/>
</g>
<path fill-rule="evenodd" clip-rule="evenodd" d="M5.0036 0.172958C5.16199 0.116525 5.32982 0.0871582 5.50003 0.0871582C5.81338 0.0871582 6.11863 0.186674 6.37177 0.371359C6.62491 0.556044 6.81285 0.816352 6.90849 1.11475L7.5167 3.01041H9.51916C9.83094 3.01086 10.1346 3.10982 10.3868 3.29316C10.639 3.4765 10.8268 3.73485 10.9233 4.0313C11.0199 4.32775 11.0204 4.64713 10.9246 4.94384C10.8288 5.24055 10.6417 5.4994 10.39 5.68341H10.3918L8.76016 6.87508L9.37983 8.79412C9.47997 9.09176 9.48123 9.41379 9.38344 9.7122C9.28565 10.0106 9.09403 10.2694 8.83716 10.4501C8.58468 10.6365 8.27873 10.7364 7.96488 10.7348C7.65103 10.7333 7.34609 10.6303 7.09549 10.4414L5.50003 9.26712L5.0036 9.63196V0.172958ZM0.00360203 4.55521C0.00165272 4.51139 0.00165272 4.46752 0.00360203 4.4237V4.55521Z" fill="#FAB932"/>
<defs>
<clipPath id="clip0_116_45714">
<rect width="11" height="11" fill="white" transform="matrix(-1 0 0 1 11 0)"/>
</clipPath>
</defs>
</svg>
