<?xml version="1.0" encoding="utf-8"?>
<!-- Generator: Adobe Illustrator 24.3.0, SVG Export Plug-In . SVG Version: 6.00 Build 0)  -->
<svg version="1.1" id="Layer_1" xmlns="http://www.w3.org/2000/svg" xmlns:xlink="http://www.w3.org/1999/xlink" x="0px" y="0px"
	 viewBox="0 0 500 500" style="enable-background:new 0 0 500 500;" xml:space="preserve">
<style type="text/css">
	.st0{fill:#FFC435;}
</style>
<g>
	<path class="st0" d="M394.6,312.2c-12-0.8-25.1,0.9-38.3,1.5c-7.9,0.4-15.8,2.2-23.7,3.3c-2.8,0.4-4.2,2.2-5.5,4.5
		c-9.8,16.9-22.1,32.2-32,49.1c-5.1,8.8-11.2,17-17.2,25.3c-6.5,9-10.6,19.3-16.3,28.8c-7.6,12.8-14.1,26.3-24.2,37.2
		c-6.8,7.4-13,15.5-21.6,21.2c-7.7,5.1-13.7,3.8-17.3-4.7c-3.8-8.9-6.3-18.3-8.3-27.7c-1.7-8.1-3.6-16.1-8.1-23.2
		c-7.4-11.6-8.5-24.8-10-38c-0.4-3.8-0.7-7.7-1.5-11.5c-0.9-4.3-1.4-8.6-0.6-13.1c1.5-8.5-0.6-17-0.6-25.6
		c-0.1-8.8-1.7-17.5-2.1-26.3c-0.2-5.1-2.2-7.6-7.1-8.4c-7.6-1.3-14.9-4.1-22.8-3.5c-2.7,0.2-5.5-0.7-8.2-1.2
		c-15.7-3.1-31.6-4.5-47.5-6c-14.3-1.4-28.4-4.3-42.3-7.7c-7.5-1.9-15.3-2.3-22.3-5.8c-1-0.5-2.1-0.7-3.1-1.2
		c-12.5-6.4-14.8-19.4-4.1-28.5c5.2-4.5,9.8-9.6,15-14c8.6-7.3,17.3-14.3,26.4-20.9c5.8-4.1,12.5-6.8,18.9-10.1
		c1.2-0.6,2.6-0.9,3.8-1.7c13.8-9.5,28.9-16.8,43.8-24.5c3.2-1.6,4.4-3.5,4.4-7c-0.1-14.9-0.2-29.8,0.2-44.7
		c0.3-8.5,1.8-16.9,2.4-25.4c1.4-21.2,5.6-41.9,9.5-62.8c1-5.4,1-10.9,1.8-16.3c0.6-4.7,2.6-8.3,8-9.2c3-0.5,5.5-0.1,7.7,1.7
		c2.7,2.3,5.9,4.5,7.7,7.5c7.1,11.4,17.7,20,24.1,32.1c5,9.4,13.2,16.9,20.8,24.5c8.7,8.7,17.7,16.9,24.9,27.3
		c4.9,7.2,11.5,14,19.3,19.1c3.7,2.4,6.4,2.9,10.4,1.3c16.8-7,34.2-12.4,51.6-17.8c19-5.9,37.7-12.4,56.4-19.1
		c13-4.7,26.1-8.7,39.2-13c1.6-0.5,3.2-0.8,4.9-1c9.3-1.1,14.3,4.9,10.2,13.1c-3.6,7.2-6.1,14.7-9.8,21.9c-3.1,6-4.1,13.1-5.7,19.7
		c-3.8,15-7.5,30-9.7,45.3c-0.7,4.6-2.7,9-3.7,13.5c-1.4,6.6-0.9,7.2,4.9,10.5c15.7,9,29.1,20.9,41.9,33.5
		c4.3,4.3,8.9,8.1,14.2,11.2c5.5,3.2,10.3,7.3,14.9,11.7c8,7.6,16.1,15.1,24.2,22.5c3.1,2.8,4.6,6.2,4.5,10.3
		c-0.1,4.1-1.7,7.1-5.7,9.3c-8.8,4.8-18.2,6-27.9,6.4c-13.8,0.6-27.4,2.3-41,4.8C413.6,312,404.7,311.4,394.6,312.2z"/>
</g>
</svg>
