<svg width="62" height="47" viewBox="0 0 62 47" fill="none" xmlns="http://www.w3.org/2000/svg">
<g clip-path="url(#clip0_124_1841)">
<path d="M61.9001 -0.199951H-0.199951V46.9001H61.9001V-0.199951Z" fill="#E9F4F7"/>
<path d="M12.7 41.9C12.7 41.9 12.7 36.4 16.7 33.3C20.7 30.3 21.9 34 19.5 36.1C17 38.1 13 40.7 12.7 41.9Z" fill="#818F38"/>
<path d="M13.1999 32.5999C13.0999 32.5999 12.5999 31.2 12.6999 29.4C12.6999 28.3 12.9999 27.2999 13.3999 26.2999C13.8999 25.0999 14.7999 24.1 15.8999 23.2C13.3999 25.2 12.7999 27.7 12.6999 29.4C12.6999 31.2 13.1999 32.5999 13.1999 32.5999Z" fill="#D7E07C"/>
<path d="M15.6001 23.4C15.6001 23.4 16.0001 22.4 16.8001 22.2C17.6001 22 16.5001 23 15.6001 23.4Z" fill="#D7E07C"/>
<path d="M15.0001 24C15.0001 24 14.9001 23 15.6001 22.5C16.3001 21.9 15.6001 23.2 15.0001 24Z" fill="#D7E07C"/>
<path d="M14.4 24.7C14.4 24.7 14.1 23.7 14.5 23C15 22.4 14.8 23.8 14.4 24.7Z" fill="#D7E07C"/>
<path d="M14.8999 24.0999C14.8999 24.0999 15.4999 23.2999 16.2999 23.2999C17.0999 23.2999 15.7999 23.8999 14.8999 24.0999Z" fill="#D7E07C"/>
<path d="M14.3999 24.7C14.3999 24.7 15.1999 24 15.9999 24.2C16.7999 24.4 15.2999 24.7 14.3999 24.7Z" fill="#D7E07C"/>
<path d="M13.8 25.5C13.8 25.5 13.2 24.7 13.5 23.9C13.7 23.1 13.9 24.5 13.8 25.5Z" fill="#D7E07C"/>
<path d="M13.8 25.6C13.8 25.6 14.7 24.8 15.6 25C16.4 25.2 14.9 25.6 13.8 25.6Z" fill="#D7E07C"/>
<path d="M13.3999 26.4C13.3999 26.4 12.4999 25.8 12.4999 25C12.3999 24.2 13.0999 25.4 13.3999 26.4Z" fill="#D7E07C"/>
<path d="M13.1001 27.3C13.1001 27.3 12.2001 26.7 12.2001 25.9C12.1001 25.1 12.8001 26.4 13.1001 27.3Z" fill="#D7E07C"/>
<path d="M12.8001 28.2C12.8001 28.2 11.9001 27.8 11.7001 26.9C11.6001 26.1 12.5001 27.3 12.8001 28.2Z" fill="#D7E07C"/>
<path d="M12.7 29.4C12.7 29.4 11.8 29 11.6 28.1C11.5 27.3 12.4 28.4 12.7 29.4Z" fill="#D7E07C"/>
<path d="M12.7 30.2C12.7 30.2 11.8 29.8 11.6 28.9C11.5 28.1 12.4 29.3 12.7 30.2Z" fill="#D7E07C"/>
<path d="M13.3 26.6C13.3 26.6 14 25.7 15 25.8C16 25.9 14.4 26.4 13.3 26.6Z" fill="#D7E07C"/>
<path d="M13 27.4C13 27.4 13.8 26.5 14.7 26.7C15.6 26.7 14.1 27.3 13 27.4Z" fill="#D7E07C"/>
<path d="M12.8 28.3999C12.8 28.3999 13.2 27.3999 14.1 27.2999C14.9 27.1999 13.8 28.0999 12.8 28.3999Z" fill="#D7E07C"/>
<path d="M12.7 29.3C12.7 29.3 13.1 28.4 13.8 28.3C14.6 28.2 13.6 29 12.7 29.3Z" fill="#D7E07C"/>
<path d="M12.8 30.9C12.8 30.9 12.1 30.6 12 30C11.8 29.4 12.5 30.2 12.8 30.9Z" fill="#D7E07C"/>
<path d="M12.7 30.3C12.7 30.3 12.9 29.4 13.8 29.2C15.1 29 13.6 29.9 12.7 30.3Z" fill="#D7E07C"/>
<path d="M12.8 31.0999C12.8 31.0999 12.8 30.2999 13.4 30.0999C14.1 29.8999 13.5 30.6999 12.8 31.0999Z" fill="#D7E07C"/>
<path d="M13.0001 31.8999C13.0001 31.8999 12.2001 31.7999 12.0001 31.1999C11.8001 30.5999 12.6001 31.2999 13.0001 31.8999Z" fill="#D7E07C"/>
<path d="M13.1001 32.0999C13.1001 32.0999 12.9001 31.2999 13.5001 30.9999C14.1001 30.5999 13.6001 31.4999 13.1001 32.0999Z" fill="#D7E07C"/>
<path d="M14.6 41.9C14.6 41.9 16.2 35.2 12.4 30C8.60003 24.8 6.20003 28.9 8.40003 32.3C10.7 35.7 14.7 40.3 14.6 41.9Z" fill="#9FA137"/>
<path d="M14.4002 42.4C14.3002 42.4 14.3002 42.3 14.3002 42.3C14.3002 42.2 15.5002 36.3 8.7002 28.5V28.4H8.8002C15.7002 36.2 14.5002 42.3 14.4002 42.4C14.5002 42.4 14.5002 42.4 14.4002 42.4Z" fill="#C8CD3E"/>
<path d="M10.6001 30.6L7.90015 29.8C7.90015 29.8 7.90015 29.8 7.90015 29.7C7.90015 29.7 7.90015 29.7 8.00015 29.7L10.6001 30.4L10.5001 28.1L10.6001 30.6Z" fill="#C8CD3E"/>
<path d="M12.1002 33L9.00024 32.6C9.00024 32.6 9.00024 32.6 9.00024 32.5C9.00024 32.5 9.00024 32.5 9.10024 32.5L12.1002 32.9L12.2002 30L12.1002 33Z" fill="#C8CD3E"/>
<path d="M13.2001 35.2L10.4001 34.5C10.4001 34.5 10.4001 34.5 10.4001 34.4C10.4001 34.4 10.4001 34.4 10.5001 34.4L13.2001 35.1L13.8001 33C13.8001 33 13.8001 33 13.9001 33C13.9001 33 13.9001 33 13.9001 33.1L13.2001 35.2Z" fill="#C8CD3E"/>
<path d="M14.0002 37.4L11.7002 36.4C11.7002 36.4 11.7002 36.4 11.7002 36.3C11.7002 36.3 11.7002 36.3 11.8002 36.3L14.0002 37.3L14.6002 35.6C14.6002 35.6 14.6002 35.6 14.7002 35.6C14.7002 35.6 14.7002 35.6 14.7002 35.7L14.0002 37.4Z" fill="#C8CD3E"/>
<path d="M14.4001 39.0999L12.9001 38.2999C12.9001 38.2999 12.9001 38.2999 12.9001 38.1999C12.9001 38.1999 12.9001 38.1999 13.0001 38.1999L14.4001 38.8999L14.8001 37.7999C14.8001 37.7999 14.8001 37.7999 14.9001 37.7999C14.9001 37.7999 14.9001 37.7999 14.9001 37.8999L14.4001 39.0999Z" fill="#C8CD3E"/>
<path d="M13.8 41.8999C13.8 41.8999 10.5 37.4999 11.9 32.5999C13.3 27.7999 16.5 30.0999 15.8 33.1999C15 36.3999 13.3 40.8999 13.8 41.8999Z" fill="#C8CD3E"/>
<path d="M14.1 42.2999C14 42.1999 11.1 38.0999 14.1 30.4999C14.1 30.4999 14.2 30.3999 14.2 30.4999C14.2 30.4999 14.3 30.5999 14.2 30.5999C11.2 38.0999 14 42.1999 14 42.1999C14.2 42.1999 14.2 42.2999 14.1 42.2999Z" fill="#9FA137"/>
<path d="M13.5 32.6999L12.8 30.8999L13.4 32.5999L15.3 31.2999C15.3 31.2999 15.3 31.2999 15.4 31.2999L13.5 32.6999Z" fill="#9FA137"/>
<path d="M13 34.7999L12 32.7C12 32.7 12 32.7 12.1 32.7L13 34.7999L15.3 33.5999C15.3 33.5999 15.3 33.5999 15.4 33.5999L13 34.7999Z" fill="#9FA137"/>
<path d="M12.9 36.6999L11.7 35.2999C11.7 35.2999 11.7 35.2999 11.8 35.2999L12.9 36.6999L14.9 35.2999C14.9 35.2999 14.9 35.2999 15 35.2999L12.9 36.6999Z" fill="#9FA137"/>
<path d="M12.9 38.4999L11.8 37.2999C11.8 37.2999 11.8 37.2999 11.8 37.1999C11.8 37.1999 11.8 37.1999 11.9 37.1999L12.9 38.2999L14.3 36.9999C14.3 36.9999 14.3 36.9999 14.4 36.9999C14.4 36.9999 14.4 36.9999 14.4 37.0999L12.9 38.4999Z" fill="#9FA137"/>
<path d="M13.2 39.8999L12.5 39.0999C12.5 39.0999 12.5 39.0999 12.5 38.9999C12.5 38.9999 12.5 38.9999 12.6 38.9999L13.3 39.6999L14.2 38.7999C14.2 38.7999 14.2 38.7999 14.3 38.7999C14.3 38.7999 14.3 38.7999 14.3 38.8999L13.2 39.8999Z" fill="#9FA137"/>
<path d="M9.19995 38L9.29995 37.9C7.89995 34 6.29995 33 6.29995 33L6.19995 33.2C6.19995 33.2 7.69995 34.1 9.19995 38Z" fill="#B4BF3C"/>
<path d="M7.1999 33.9C7.1999 33.9 7.4999 32.6 5.3999 32.4C5.7999 33.8 6.3999 33.9 7.1999 33.9Z" fill="#B4BF3C"/>
<path d="M7.7999 34.9C7.7999 34.9 7.3999 33.6 5.3999 34.5C6.5999 35.5 7.0999 35.3 7.7999 34.9Z" fill="#B4BF3C"/>
<path d="M8.59995 36.3C8.59995 36.3 8.19995 35 6.19995 35.9C7.39995 36.9 7.99995 36.7 8.59995 36.3Z" fill="#B4BF3C"/>
<path d="M8.59992 36.2C8.59992 36.2 9.99992 36 9.29992 33.9C8.19992 34.9 8.29992 35.5 8.59992 36.2Z" fill="#B4BF3C"/>
<path d="M7.79987 34.8001C7.79987 34.8001 8.99987 34.6001 8.49987 32.7001C7.39987 33.6001 7.49987 34.1001 7.79987 34.8001Z" fill="#B4BF3C"/>
<path d="M9.09995 37.5C9.09995 37.5 8.79995 36.4 7.19995 37.2C8.09995 38 8.59995 37.8 9.09995 37.5Z" fill="#B4BF3C"/>
<path d="M9.09987 37.4001C9.09987 37.4001 10.1999 37.4001 9.89987 35.7001C8.89987 36.3001 8.89987 36.8001 9.09987 37.4001Z" fill="#B4BF3C"/>
<path d="M11.8 40.6001V40.4001C5.9 39.7001 4 41.3001 4 41.3001L4.1 41.5001C4.1 41.5001 6.1 40.0001 11.8 40.6001Z" fill="#B4BF3C"/>
<path d="M5.1 40.8C5.1 40.8 4 40 3 41.9C4.5 42.1 4.9 41.6 5.1 40.8Z" fill="#B4BF3C"/>
<path d="M6.29999 40.6C6.29999 40.6 4.89999 40.5 4.99999 42.6C6.29999 42 6.39999 41.4 6.29999 40.6Z" fill="#B4BF3C"/>
<path d="M7.90008 40.4C7.90008 40.4 6.50008 40.3 6.60008 42.4C8.00008 41.8 8.00008 41.2 7.90008 40.4Z" fill="#B4BF3C"/>
<path d="M7.8 40.4C7.8 40.4 8.1 39.1 6 38.9C6.4 40.3 7 40.4 7.8 40.4Z" fill="#B4BF3C"/>
<path d="M6.2001 40.6001C6.2001 40.6001 6.5001 39.4001 4.6001 39.2001C4.9001 40.5001 5.5001 40.7001 6.2001 40.6001Z" fill="#B4BF3C"/>
<path d="M9.20003 40.4C9.20003 40.4 8.10003 40.3 8.20003 42C9.20003 41.5 9.30003 41 9.20003 40.4Z" fill="#B4BF3C"/>
<path d="M9.10005 40.4C9.10005 40.4 9.50005 39.4 7.80005 39C8.00005 40.1 8.40005 40.3 9.10005 40.4Z" fill="#B4BF3C"/>
<path d="M14.4999 41.6999C14.4999 41.6999 12.4999 37.5999 8.2999 36.5999C4.0999 35.5999 4.5999 38.6999 7.2999 39.4999C9.7999 40.1999 13.8999 40.8999 14.4999 41.6999Z" fill="#818F38"/>
<path d="M14.6 42.0999C14.5 41.9999 12.6 38.5 5.79995 37.4C5.79995 37.4 5.69995 37.3999 5.69995 37.2999C5.69995 37.2999 5.69995 37.2 5.79995 37.2C12.7 38.4 14.6 41.9999 14.6 42.0999C14.7 42.0999 14.7 41.9999 14.6 42.0999Z" fill="#C8CD3E"/>
<path d="M5.8999 38.5C5.8999 38.4 5.8999 38.4 5.8999 38.5L7.4999 37.7L6.4999 36.6L7.5999 37.8L5.8999 38.5Z" fill="#C8CD3E"/>
<path d="M9.19996 39.7L10.9 38.8L10.3 37.5L10.9 38.9L9.19996 39.7Z" fill="#C8CD3E"/>
<path d="M10.7 40.1L12.2 39.6L11.8 38.5L12.3 39.7L10.7 40.1C10.7 40.2 10.7 40.2 10.7 40.1Z" fill="#C8CD3E"/>
<path d="M43.4 32.5999C43.5 32.5999 44 31.2 43.9 29.4C43.9 28.3 43.6 27.2999 43.2 26.2999C42.7 25.0999 41.8 24.1 40.7 23.2C43.2 25.2 43.8 27.7 43.9 29.4C43.9 31.2 43.4 32.5999 43.4 32.5999Z" fill="#D7E07C"/>
<path d="M40.9999 23.4C40.9999 23.4 40.5999 22.4 39.7999 22.2C38.9999 22 40.0999 23 40.9999 23.4Z" fill="#D7E07C"/>
<path d="M41.6 24C41.6 24 41.7 23 41 22.5C40.4 21.9 41 23.2 41.6 24Z" fill="#D7E07C"/>
<path d="M42.1998 24.7C42.1998 24.7 42.4998 23.7 42.0998 23C41.5998 22.4 41.7998 23.8 42.1998 24.7Z" fill="#D7E07C"/>
<path d="M41.7 24.0999C41.7 24.0999 41.1 23.2999 40.3 23.2999C39.5 23.2999 40.8 23.8999 41.7 24.0999Z" fill="#D7E07C"/>
<path d="M42.2 24.7C42.2 24.7 41.4 24 40.6 24.2C39.8 24.4 41.3 24.7 42.2 24.7Z" fill="#D7E07C"/>
<path d="M42.8 25.5C42.8 25.5 43.4 24.7 43.1 23.9C42.9 23.1 42.7 24.5 42.8 25.5Z" fill="#D7E07C"/>
<path d="M42.8 25.6C42.8 25.6 41.9 24.8 41 25C40.1 25.2 41.7 25.6 42.8 25.6Z" fill="#D7E07C"/>
<path d="M43.2 26.4C43.2 26.4 44.0999 25.8 44.0999 25C44.1999 24.2 43.5 25.4 43.2 26.4Z" fill="#D7E07C"/>
<path d="M43.5 27.3C43.5 27.3 44.4 26.7 44.4 25.9C44.5 25.1 43.8 26.4 43.5 27.3Z" fill="#D7E07C"/>
<path d="M43.8 28.2C43.8 28.2 44.7001 27.8 44.9001 26.9C45.0001 26.1 44.1 27.3 43.8 28.2Z" fill="#D7E07C"/>
<path d="M43.8999 29.4C43.8999 29.4 44.7999 29 44.9999 28.1C45.0999 27.3 44.1999 28.5 43.8999 29.4Z" fill="#D7E07C"/>
<path d="M43.8999 30.4C43.8999 30.4 44.7999 30 44.9999 29.1C45.0999 28.3 44.1999 29.5 43.8999 30.4Z" fill="#D7E07C"/>
<path d="M43.2999 26.6C43.2999 26.6 42.5999 25.7 41.5999 25.8C40.5999 25.9 42.1999 26.4 43.2999 26.6Z" fill="#D7E07C"/>
<path d="M43.6 27.4C43.6 27.4 42.8 26.5 41.9 26.7C41 26.7 42.5 27.3 43.6 27.4Z" fill="#D7E07C"/>
<path d="M43.7999 28.3999C43.7999 28.3999 43.3999 27.3999 42.4999 27.2999C41.6999 27.1999 42.8999 28.0999 43.7999 28.3999Z" fill="#D7E07C"/>
<path d="M43.9 29.3C43.9 29.3 43.5 28.4 42.8 28.3C42 28.2 43 29 43.9 29.3Z" fill="#D7E07C"/>
<path d="M43.8 30.9C43.8 30.9 44.5 30.6 44.6 30C44.8 29.4 44.1 30.2 43.8 30.9Z" fill="#D7E07C"/>
<path d="M43.8999 30.3C43.8999 30.3 43.4999 29.4 42.8999 29.2C40.7999 28.7 42.9999 29.9 43.8999 30.3Z" fill="#D7E07C"/>
<path d="M43.8 31.0999C43.8 31.0999 43.8 30.2999 43.2 30.0999C42.5 29.8999 43.1 30.6999 43.8 31.0999Z" fill="#D7E07C"/>
<path d="M43.5999 31.8999C43.5999 31.8999 44.3999 31.7999 44.5999 31.1999C44.7999 30.5999 43.9999 31.2999 43.5999 31.8999Z" fill="#D7E07C"/>
<path d="M43.5999 32.0999C43.5999 32.0999 43.7999 31.2999 43.1999 30.9999C42.5999 30.5999 42.9999 31.4999 43.5999 32.0999Z" fill="#D7E07C"/>
<path d="M41.9999 41.9C41.9999 41.9 40.3999 35.2 44.1999 30C47.9999 24.8 50.3999 28.9 48.1999 32.3C45.8999 35.7 41.9999 40.3 41.9999 41.9Z" fill="#9FA137"/>
<path d="M42.1999 42.4C42.2999 42.4 42.2999 42.3 42.2999 42.3C42.2999 42.2 41.0999 36.3 47.8999 28.5V28.4H47.7999C40.8999 36.2 42.0999 42.3 42.1999 42.4C42.0999 42.4 42.0999 42.4 42.1999 42.4Z" fill="#C8CD3E"/>
<path d="M46.0999 30.6L48.7999 29.8C48.7999 29.8 48.7999 29.8 48.7999 29.7C48.7999 29.7 48.7999 29.7 48.6999 29.7L46.0999 30.4L46.1999 28.1L46.0999 30.6Z" fill="#C8CD3E"/>
<path d="M44.4998 33L47.5998 32.6C47.5998 32.6 47.5998 32.6 47.5998 32.5C47.5998 32.5 47.5998 32.5 47.4998 32.5L44.4998 32.9V30V33Z" fill="#C8CD3E"/>
<path d="M43.3998 35.2L46.1998 34.5C46.1998 34.5 46.1998 34.5 46.1998 34.4C46.1998 34.4 46.1998 34.4 46.0998 34.4L43.3998 35.1L42.8998 33C42.8998 33 42.8998 33 42.7998 33C42.7998 33 42.7998 33 42.7998 33.1L43.3998 35.2Z" fill="#C8CD3E"/>
<path d="M42.5999 37.4L44.8999 36.4C44.8999 36.4 44.8999 36.4 44.8999 36.3C44.8999 36.3 44.8999 36.3 44.7999 36.3L42.5999 37.3L41.9999 35.6C41.9999 35.6 41.9999 35.6 41.8999 35.6C41.8999 35.6 41.8999 35.6 41.8999 35.7L42.5999 37.4Z" fill="#C8CD3E"/>
<path d="M42.2998 39.1L43.7998 38.3C43.7998 38.3 43.7998 38.3 43.7998 38.2C43.7998 38.2 43.7998 38.2 43.6998 38.2L42.2998 39L41.8998 37.9C41.8998 37.9 41.8998 37.9 41.7998 37.9C41.7998 37.9 41.7998 37.9 41.7998 38L42.2998 39.1Z" fill="#C8CD3E"/>
<path d="M42.8 41.8999C42.8 41.8999 46.1 37.4999 44.7 32.5999C43.3 27.7999 40.1 30.0999 40.8 33.1999C41.6 36.3999 43.3 40.8999 42.8 41.8999Z" fill="#C8CD3E"/>
<path d="M42.4999 42.2999C42.5999 42.1999 45.4999 38.0999 42.4999 30.4999C42.4999 30.4999 42.3999 30.3999 42.3999 30.4999C42.3999 30.4999 42.2999 30.5999 42.3999 30.5999C45.3999 38.0999 42.5999 42.1999 42.5999 42.1999C42.3999 42.1999 42.3999 42.2999 42.4999 42.2999Z" fill="#9FA137"/>
<path d="M43.1 32.6999L43.8 30.8999L43 32.4999L41.1 31.1999C41.1 31.1999 41.1 31.1999 41 31.1999L43.1 32.6999Z" fill="#9FA137"/>
<path d="M43.5999 34.7999L44.5999 32.7C44.5999 32.7 44.6 32.7 44.5 32.7L43.5999 34.7999L41.2999 33.5999C41.2999 33.5999 41.3 33.5999 41.2 33.5999L43.5999 34.7999Z" fill="#9FA137"/>
<path d="M43.7001 36.6999L44.9001 35.2999C44.9001 35.2999 44.9001 35.2999 44.8001 35.2999L43.7001 36.6999L41.7001 35.2999C41.7001 35.2999 41.7001 35.2999 41.6001 35.2999L43.7001 36.6999Z" fill="#9FA137"/>
<path d="M43.7 38.4999L44.7999 37.2999C44.7999 37.2999 44.7999 37.2999 44.7999 37.1999C44.7999 37.1999 44.8 37.1999 44.7 37.1999L43.7 38.2999L42.2999 36.9999C42.2999 36.9999 42.3 36.9999 42.2 36.9999C42.2 36.9999 42.2 36.9999 42.2 37.0999L43.7 38.4999Z" fill="#9FA137"/>
<path d="M43.4999 39.8999L44.1999 39.0999C44.1999 39.0999 44.1999 39.0999 44.1999 38.9999C44.1999 38.9999 44.1999 38.9999 44.0999 38.9999L43.3999 39.6999L42.4999 38.7999C42.4999 38.7999 42.4999 38.7999 42.3999 38.7999C42.3999 38.7999 42.3999 38.7999 42.3999 38.8999L43.4999 39.8999Z" fill="#9FA137"/>
<path d="M42.8999 41C42.8999 41 41.7999 35.6 37.1999 33.4C32.5999 31.3 32.1999 35.2 35.0999 36.7C37.9999 38.2 42.4999 39.8 42.8999 41Z" fill="#9FA137"/>
<path d="M42.9999 41.4001C42.9999 41.3001 41.7999 36.4001 34.1999 33.7001H34.0999V33.8001C41.6999 36.5001 42.8999 41.3001 42.8999 41.4001H42.9999Z" fill="#C8CD3E"/>
<path d="M36.1999 34.6L35.2999 32.9C35.2999 32.9 35.2999 32.9 35.1999 32.9C35.1999 32.9 35.1999 32.9 35.1999 33L36.0999 34.6L33.8999 35.2L36.1999 34.6Z" fill="#C8CD3E"/>
<path d="M38.0999 35.7L37.0999 33.6C37.0999 33.6 37.0999 33.6 37.0999 33.7L38 35.8L35.7 36.8L38.0999 35.7Z" fill="#C8CD3E"/>
<path d="M47.4001 38L47.3 37.9C48.8 34 50.3001 33 50.4001 33L50.5 33.2C50.4 33.2 48.9001 34.1 47.4001 38Z" fill="#B4BF3C"/>
<path d="M49.4001 33.9C49.4001 33.9 49.1001 32.6 51.2001 32.4C50.8001 33.8 50.2001 33.9 49.4001 33.9Z" fill="#B4BF3C"/>
<path d="M48.8 34.9C48.8 34.9 49.2001 33.6 51.2001 34.5C50.0001 35.5 49.5 35.3 48.8 34.9Z" fill="#B4BF3C"/>
<path d="M48 36.3C48 36.3 48.4 35 50.4 35.9C49.2 36.9 48.6 36.7 48 36.3Z" fill="#B4BF3C"/>
<path d="M48 36.2C48 36.2 46.6 36 47.3 33.9C48.4 34.9 48.3 35.5 48 36.2Z" fill="#B4BF3C"/>
<path d="M48.8002 34.8001C48.8002 34.8001 47.6002 34.6001 48.1002 32.7001C49.2002 33.6001 49.1002 34.1001 48.8002 34.8001Z" fill="#B4BF3C"/>
<path d="M47.5 37.5C47.5 37.5 47.8 36.4 49.4 37.2C48.5 38 48 37.8 47.5 37.5Z" fill="#B4BF3C"/>
<path d="M47.5 37.4001C47.5 37.4001 46.4 37.4001 46.7 35.7001C47.7 36.3001 47.7 36.8001 47.5 37.4001Z" fill="#B4BF3C"/>
<path d="M44.8 40.6001V40.4001C50.7 39.7001 52.6 41.3001 52.6 41.3001L52.5 41.5001C52.5 41.5001 50.5 40.0001 44.8 40.6001Z" fill="#B4BF3C"/>
<path d="M51.5 40.8C51.5 40.8 52.6 40 53.6 41.9C52.1 42.1 51.7 41.6 51.5 40.8Z" fill="#B4BF3C"/>
<path d="M50.3 40.6C50.3 40.6 51.7 40.5 51.6 42.6C50.3 42 50.2 41.4 50.3 40.6Z" fill="#B4BF3C"/>
<path d="M48.7001 40.4C48.7001 40.4 50.1001 40.3 50.0001 42.4C48.6001 41.8 48.6001 41.2 48.7001 40.4Z" fill="#B4BF3C"/>
<path d="M48.8 40.4C48.8 40.4 48.5 39.1 50.6 38.9C50.2 40.3 49.6 40.4 48.8 40.4Z" fill="#B4BF3C"/>
<path d="M50.4001 40.6001C50.4001 40.6001 50.1001 39.4001 52.0001 39.2001C51.7001 40.5001 51.1001 40.7001 50.4001 40.6001Z" fill="#B4BF3C"/>
<path d="M47.4002 40.4C47.4002 40.4 48.5002 40.3 48.4002 42C47.4002 41.5 47.3002 41 47.4002 40.4Z" fill="#B4BF3C"/>
<path d="M47.4999 40.4C47.4999 40.4 47.0999 39.4 48.7999 39C48.5999 40.1 48.1999 40.3 47.4999 40.4Z" fill="#B4BF3C"/>
<path d="M42.1001 41.6999C42.1001 41.6999 44.1001 37.5999 48.3001 36.5999C52.5001 35.5999 52.0001 38.6999 49.3001 39.4999C46.8001 40.1999 42.7001 40.8999 42.1001 41.6999Z" fill="#818F38"/>
<path d="M42 42.0999C42.1 41.9999 44 38.5 50.8 37.4C50.8 37.4 50.9001 37.3999 50.9001 37.2999C50.9001 37.2999 50.9 37.2 50.8 37.2C43.9 38.4 42 41.9999 42 42.0999C41.9 42.0999 41.9 41.9999 42 42.0999Z" fill="#C8CD3E"/>
<path d="M50.7 38.5C50.7 38.4 50.7 38.4 50.7 38.5L49.1 37.7L50.1 36.6L49 37.7L50.7 38.5Z" fill="#C8CD3E"/>
<path d="M47.4 39.7C47.5 39.7 47.5 39.7 47.4 39.7L45.7 38.8L46.2999 37.5L45.7 38.9L47.4 39.7Z" fill="#C8CD3E"/>
<path d="M45.9001 40.1L44.4001 39.6L44.8 38.5L44.3 39.7L45.9001 40.1C45.9001 40.2 45.9001 40.2 45.9001 40.1Z" fill="#C8CD3E"/>
<mask id="mask0_124_1841" style="mask-type:luminance" maskUnits="userSpaceOnUse" x="0" y="-10" width="62" height="57">
<path d="M61.8684 46.9023L61.8684 -9.59766L0.068409 -9.59766L0.068409 46.9023L61.8684 46.9023Z" fill="white"/>
</mask>
<g mask="url(#mask0_124_1841)">
<path d="M31 58.2001C49.3359 58.2001 64.2 53.8125 64.2 48.4001C64.2 42.9877 49.3359 38.6001 31 38.6001C12.6642 38.6001 -2.19995 42.9877 -2.19995 48.4001C-2.19995 53.8125 12.6642 58.2001 31 58.2001Z" fill="#C8CD3E"/>
</g>
<mask id="mask1_124_1841" style="mask-type:luminance" maskUnits="userSpaceOnUse" x="0" y="-10" width="62" height="57">
<path d="M61.8684 46.9023L61.8684 -9.59766L0.068409 -9.59766L0.068409 46.9023L61.8684 46.9023Z" fill="white"/>
</mask>
<g mask="url(#mask1_124_1841)">
<path d="M35.3 39.1001C35.3 39.1001 35.9 36.2001 32.6 35.1001C33.6 35.7001 34 36.7001 34 37.8001C33.4 36.4001 32.1 36.0001 31.5 36.2001C32.6 36.7001 33.1 38.0001 33 38.3001C32.2 37.2001 31 37.3001 31 37.3001C31.7 37.7001 31.8 38.4001 31.8 38.4001C30.5 37.8001 30 38.2001 30 38.2001C30.7 38.3001 30.7 39.1001 30.7 39.1001H35.3Z" fill="#C8CD3E"/>
</g>
<path d="M28.3 44.2C38.5173 44.2 46.8 43.3941 46.8 42.4C46.8 41.4059 38.5173 40.6 28.3 40.6C18.0828 40.6 9.80005 41.4059 9.80005 42.4C9.80005 43.3941 18.0828 44.2 28.3 44.2Z" fill="#BCB832"/>
<path d="M29.9999 13.0001C29.9999 13.0001 29.6999 12.2001 29.7999 11.8001C29.7999 11.4001 30.2999 11.0001 30.2999 10.5001C30.3999 9.90008 30.5999 9.70008 30.6999 9.30008C30.6999 9.00008 30.3999 9.00008 30.1999 9.30008C29.9999 9.60008 29.8999 10.1001 29.7999 10.2001C29.5999 10.3001 29.5999 9.30008 29.1999 8.70008C28.7999 8.10008 28.5999 8.20008 28.4999 8.30008C28.3999 8.40008 28.5999 8.70008 28.6999 8.90008C28.7999 9.00008 28.9999 9.50008 28.9999 9.60008C28.5999 9.00008 28.2999 8.60008 27.9999 8.50008C27.7999 8.40008 27.6999 8.60008 27.7999 8.80008C27.8999 9.00008 28.3999 9.40008 28.4999 9.80008C28.1999 9.40008 27.7999 9.00008 27.5999 8.90008C27.3999 8.80008 27.3999 9.10008 27.5999 9.30008C27.7999 9.50008 28.1999 9.90008 28.1999 10.0001C27.8999 9.70008 27.5999 9.50008 27.3999 9.50008C27.1999 9.50008 27.1999 9.70008 27.4999 9.90008C27.7999 10.1001 27.9999 10.6001 28.0999 11.0001C28.0999 11.4001 28.4999 11.6001 28.5999 11.7001C28.6999 11.8001 28.7999 13.5001 28.7999 13.5001L29.9999 13.0001Z" fill="#FFDF99"/>
<path d="M29.1999 13.0001C29.0999 12.8001 28.8999 11.9001 29.0999 11.9001C29.2999 11.8001 29.3999 11.8001 29.4999 11.6001C29.4999 11.6001 29.0999 11.7001 28.5999 11.7001C28.1999 11.7001 28.0999 11.2001 28.0999 11.2001C28.0999 11.6001 28.4999 11.8001 28.5999 11.9001C28.6999 12.0001 28.7999 12.8001 28.7999 13.3001C28.8999 13.2001 29.1999 13.1001 29.1999 13.0001Z" fill="#FCCF7F"/>
<path d="M29.6999 10.2001C29.6999 10.2001 28.9999 10.2001 28.8999 11.1001C28.9999 10.8001 29.2999 10.3001 29.6999 10.2001Z" fill="#FCCF7F"/>
<path d="M28.0999 10.4001C28.0999 10.4001 28.4999 9.60006 29.3999 9.70006C28.9999 9.70006 28.3999 10.0001 28.0999 10.4001Z" fill="#FCCF7F"/>
<path d="M43.9998 13.0001C43.9998 13.0001 44.2998 12.2001 44.1998 11.8001C44.1998 11.4001 43.6998 11.0001 43.6998 10.5001C43.5998 9.90008 43.3998 9.70008 43.2998 9.30008C43.2998 9.00008 43.6998 9.00008 43.8998 9.30008C44.0998 9.60008 44.1998 10.1001 44.2998 10.2001C44.4998 10.3001 44.4998 9.30008 44.8998 8.70008C45.2998 8.10008 45.4998 8.20008 45.5998 8.30008C45.6998 8.40008 45.4998 8.70008 45.3998 8.90008C45.1998 9.00008 44.9998 9.50008 44.9998 9.60008C45.3998 9.00008 45.6998 8.60008 45.9998 8.50008C46.1998 8.40008 46.2998 8.60008 46.1998 8.80008C46.0998 9.00008 45.5998 9.40008 45.4998 9.80008C45.7998 9.40008 46.1998 9.00008 46.3998 8.90008C46.5998 8.80008 46.5998 9.10008 46.3998 9.30008C46.1998 9.50008 45.7998 9.90008 45.7998 10.0001C46.0998 9.70008 46.3998 9.50008 46.5998 9.50008C46.7998 9.50008 46.7998 9.70008 46.4998 9.90008C46.1998 10.1001 45.9998 10.6001 45.8998 11.0001C45.8998 11.4001 45.4998 11.6001 45.3998 11.7001C45.2998 11.8001 45.1998 13.5001 45.1998 13.5001L43.9998 13.0001Z" fill="#FFDF99"/>
<path d="M44.8999 13.0001C44.9999 12.8001 45.1999 11.9001 44.9999 11.9001C44.7999 11.9001 44.6999 11.8001 44.5999 11.6001C44.5999 11.6001 44.9999 11.7001 45.4999 11.7001C45.8999 11.7001 45.9999 11.2001 45.9999 11.2001C45.9999 11.6001 45.5999 11.8001 45.4999 11.9001C45.3999 12.0001 45.2999 12.8001 45.2999 13.3001C45.0999 13.2001 44.7999 13.1001 44.8999 13.0001Z" fill="#FCCF7F"/>
<path d="M44.3999 10.2001C44.3999 10.2001 45.0999 10.2001 45.1999 11.1001C44.9999 10.8001 44.7999 10.3001 44.3999 10.2001Z" fill="#FCCF7F"/>
<path d="M45.9997 10.4001C45.9997 10.4001 45.5997 9.60006 44.6997 9.70006C45.0997 9.70006 45.5997 10.0001 45.9997 10.4001Z" fill="#FCCF7F"/>
<path d="M35.5998 39.9C35.5998 39.9 35.3998 40.6 35.3998 40.9C35.3998 41.2 35.6998 41.7 35.5998 42.2C35.4998 42.6 34.8998 42.5 34.3998 42.6C33.9998 42.6 32.1998 42.7 32.1998 42.7L31.9998 41.3C31.9998 41.3 33.0998 41.2 33.3998 40.9C33.6998 40.7 33.6998 39.9 33.6998 39.9H35.5998Z" fill="#FFDF99"/>
<path d="M35.5997 41.9C35.5997 41.5 35.3997 41.2 35.3997 40.9C35.3997 40.6 35.5997 39.9 35.5997 39.9H33.7997C33.7997 39.9 33.7997 40.4 33.6997 40.7C34.5997 40.4 35.2997 41.1 35.5997 41.9Z" fill="#FCCF7F"/>
<path d="M32.8998 42.5C32.8998 42.5 33.8998 42.5 34.5998 42.4C35.2998 42.3 35.4998 42.2 35.5998 42.4C35.6998 42.6 35.5998 42.8 35.0998 42.8C34.6998 42.8 33.0998 42.9 32.4998 43C31.8998 43.1 30.5998 43.2 30.0998 42.8C29.5998 42.4 29.9998 41.5 30.9998 41.3C31.9998 41.1 32.2998 41.1 32.2998 41.1C32.2998 41.1 33.0998 41.3 32.8998 42.5Z" fill="#0D5748"/>
<path d="M39.3998 39.9C39.3998 39.9 39.5998 40.6 39.5998 40.9C39.5998 41.2 39.2998 41.7 39.3998 42.2C39.4998 42.6 40.0998 42.5 40.5998 42.6C40.9998 42.6 42.7998 42.7 42.7998 42.7L42.9998 41.3C42.9998 41.3 41.8998 41.2 41.5998 40.9C41.2998 40.7 41.2998 39.9 41.2998 39.9H39.3998Z" fill="#FFDF99"/>
<path d="M41.3998 40.7C41.1998 40.4 41.2998 39.9 41.2998 39.9H39.4998C39.4998 39.9 39.6998 40.6 39.6998 40.9C39.6998 41.1 39.5998 41.3 39.4998 41.6C39.8998 41 40.5998 40.6 41.3998 40.7Z" fill="#FCCF7F"/>
<path d="M42.0998 42.5C42.0998 42.5 41.0998 42.5 40.3998 42.4C39.6998 42.3 39.4998 42.2 39.3998 42.4C39.2998 42.6 39.3998 42.8 39.8998 42.8C40.2998 42.8 41.8998 42.9 42.4998 43C43.0998 43.1 44.3998 43.2 44.8998 42.8C45.3998 42.4 44.9998 41.5 43.9998 41.3C42.9998 41.1 42.6998 41.1 42.6998 41.1C42.6998 41.1 41.9998 41.3 42.0998 42.5Z" fill="#0D5748"/>
<path d="M33.4998 29.5C33.4998 29.5 32.9998 39.7 32.9998 40.2C34.4998 40.5 35.9998 40.1 35.9998 40.1L37.4998 29.9L39.0998 40.3H41.8998C41.8998 40.3 41.8998 31.4 41.0998 26.8C40.2998 22.2 33.6998 25.4 33.4998 29.5Z" fill="#2B9E88"/>
<path d="M41.0998 26.8C40.2998 22.2 33.7998 25.4 33.4998 29.5C33.4998 29.5 33.3998 31.2 33.2998 33.3C34.1998 32.3 35.6998 32 37.0998 32.3L37.3998 30L37.9998 33.9C38.6998 32.7 39.9998 31.8 41.4998 31.9C41.4998 30 41.2998 28.2 41.0998 26.8Z" fill="#269681"/>
<path d="M36.2 18C36.2 18 35.2 18 34.7 17.8C34.2 17.6 32.2 16.4 31.5 15.5C30.8 14.6 30 12.1 30 12.1L27.7 13.3C27.7 13.3 28 15 29.2 17.1C30.4 19.2 33.1999 20.5 33.5999 20.8C33.9999 21.1 33.4999 24.7 33.2999 27.1C33.1999 29.5 32.5999 30.8 32.5999 30.8C32.5999 30.8 36.1 32.5 41.2 31.2C41.3 29.3 41.0999 27.8 41.0999 27.8L41.9 31L42.5999 30.7C42.5999 30.7 41.5999 25.9 41.5999 23.6C41.5999 21.3 41.9 20.6 41.9 20.6C41.9 20.6 44.5999 18.7 45.2999 17.4C46 16.1 46.2 12.8 46.2 12.8L43.9 12.5C43.9 12.5 43.6999 14.9 43.2999 15.5C42.9 16.1 40.7999 17.7 40.0999 17.9C39.3999 18.1 38.9 17.7 38.9 17.7L36.2 18Z" fill="#43AF9A"/>
<path d="M36.2 18C36.2 18 35.2 18 34.7 17.8C34.2 17.6 32.2 16.4 31.5 15.5C30.8 14.6 30 12.1 30 12.1L28.2 13C28.2 13 28.3 14.7 29.5 16.7C30.7 18.8 33.1999 20.4 33.5999 20.7C33.9999 21 33.4999 24.6 33.2999 27C33.1999 29.4 32.5999 30.7 32.5999 30.7C32.5999 30.7 36.1 32.4 41.2 31.1C41.3 29.2 41.0999 27.7 41.0999 27.7L41.9 30.9L42.5999 30.6C42.5999 30.6 41.5999 25.8 41.5999 23.5C41.5999 21.2 41.9 20.5 41.9 20.5C41.9 20.5 44.5999 18.6 45.2999 17.3C46 16 46.2 12.7 46.2 12.7L44.4 12.4C44.4 12.4 44.2 14.7 43.7 15.5C43 16.7 40.7999 17.5 40.0999 17.7C39.3999 17.9 38.9 17.5 38.9 17.5L36.2 18Z" fill="#5ABCAA"/>
<path d="M40.2 17.9C40.2 17.9 39.8 19.4 41.3 20.3C40.5 19.4 40.2 18.8 40.2 17.9Z" fill="#43AF9A"/>
<path d="M33.5999 20.8C33.5999 20.8 33.3999 19.4 34.6999 18.4C34.0999 19.2 33.7999 19.6 33.5999 20.8Z" fill="#43AF9A"/>
<path d="M41.2 31.2C41.3 29.3 41.0999 27.8 41.0999 27.8L41.9 31L42.5999 30.7C42.5999 30.7 42.5 30.4 42.4 29.8L42.0999 29.9L41.5 27.1L41 26.5C41 26.5 40.8999 26.8 40.5999 27.1C40.5999 27.4 40.5999 30.5 40.5999 30.5C40.5999 30.5 39.4999 30.9 36.7999 30.7C34.6999 30.6 33.4 30.2 32.9 30.1C32.8 30.5 32.7 30.8 32.7 30.8C32.7 30.8 36.1 32.4 41.2 31.2Z" fill="#74C9B9"/>
<path d="M43.7 13.6C44.5 13.9 45.6 14 46 14C46 13.7 46.0999 13.4 46.0999 13.2C45.0999 13.2 44.2999 13 43.7999 12.9C43.7999 13 43.8 13.3 43.7 13.6Z" fill="#74C9B9"/>
<path d="M27.7 13.7C27.8 13.9 27.8 14.2 27.9 14.5C28.3 14.4 29.6 13.9 30.2 13.3C30.1 13 30 12.8 30 12.6C29.9 12.7 28.9 13.3 27.7 13.7Z" fill="#74C9B9"/>
<path d="M35.9999 16.6L35.8999 17.6L37.1999 18.8L38.9999 17.2V16.5L35.9999 16.6Z" fill="#F9C673"/>
<path d="M40.4999 13.9C40.4999 13.9 41.0999 13.3 41.4999 13.9C41.8999 14.5 41.0999 15.2 40.5999 15.2C40.0999 15.2 40.0999 14.9 40.0999 14.8C40.0999 14.6 40.4999 13.9 40.4999 13.9Z" fill="#FCCF7F"/>
<path d="M41.0998 14.8C41.0998 14.8 41.3998 14.7 41.3998 14.2C41.3998 13.8 40.8998 13.8 40.6998 14C40.5998 14.2 40.5998 14.3 40.5998 14.4C40.5998 14.5 40.5998 14.6 40.3998 14.6C40.1998 14.6 40.2998 14.8 40.4998 14.8C40.5998 14.8 40.7998 14.7 40.6998 14.5C40.6998 14.3 40.6998 14.1 40.8998 14.1C41.0998 14.1 41.1998 14.2 41.1998 14.4C41.2998 14.5 41.1998 14.8 41.0998 14.8Z" fill="#E8B257"/>
<path d="M40.7997 14.5001C40.7997 14.5001 40.8997 14.3001 40.9997 14.4001C41.0997 14.5001 40.8997 14.7001 40.6997 14.8001C40.8997 14.8001 41.1997 14.6001 41.1997 14.4001C41.1997 14.2001 40.8997 14.2001 40.7997 14.3001C40.6997 14.5001 40.7997 14.5001 40.7997 14.5001Z" fill="#E8B257"/>
<path d="M34.1999 13.9C34.1999 13.9 33.5999 13.3 33.1999 13.9C32.7999 14.5 33.5999 15.2 34.0999 15.2C34.5999 15.2 34.5999 14.9 34.5999 14.8C34.4999 14.6 34.1999 13.9 34.1999 13.9Z" fill="#FCCF7F"/>
<path d="M33.5998 14.8C33.5998 14.8 33.2998 14.7 33.2998 14.2C33.2998 13.8 33.7998 13.8 33.9998 14C34.0998 14.2 34.0998 14.3 34.0998 14.4C34.0998 14.5 34.0998 14.6 34.2998 14.6C34.4998 14.6 34.3998 14.8 34.1998 14.8C34.0998 14.8 33.8998 14.7 33.9998 14.5C33.9998 14.3 33.9998 14.1 33.7998 14.1C33.5998 14.1 33.4998 14.2 33.4998 14.4C33.3998 14.5 33.4998 14.8 33.5998 14.8Z" fill="#E8B257"/>
<path d="M33.8998 14.5001C33.8998 14.5001 33.7998 14.3001 33.6998 14.4001C33.5998 14.5001 33.7998 14.7001 33.9998 14.8001C33.7998 14.8001 33.4998 14.6001 33.4998 14.4001C33.4998 14.2001 33.7998 14.2001 33.8998 14.3001C33.9998 14.5001 33.8998 14.5001 33.8998 14.5001Z" fill="#E8B257"/>
<path d="M36.5 10.2C36.5 10.2 34.8 10.5 34.1 12.7C33.5 14.6 35 17 37 17.1C39.2 17.2 40.6 15.2 40.6 13.6C40.6 11.5 39 9.59999 36.5 10.2Z" fill="#FFDF99"/>
<path d="M36.5 10.2C36.5 10.2 34.8 10.5 34.1 12.7C33.5 14.6 35 17 37 17.1C39.2 17.2 40.6 15.2 40.6 13.6C40.6 11.5 39 9.59999 36.5 10.2ZM38.7 16.2C38.1 16.8 37.8 17 37.1 17C36.4 17 35.8 16.5 35.5 16.1C35.2 15.6 35 15.4 34.7 14.8C34.3 14.3 34.1 13.8 34.2 13.1C34.3 12.5 34.9 12.2 35.2 11.7C35.5 11.3 35.9 11.1 36.2 11C36.7 10.8 36.8 10.8 37.4 10.7C37.1 10.9 37.3 11.3 36.5 11.7C36.9 11.6 37.1 11.6 37.4 11.3C37.7 11 38 11 38.2 10.9C38.2 11.1 37.3 11.9 36.9 12.1C37.3 12.2 38.4 12.1 38.9 11.4C38.9 11.4 39.5 12.2 39.7 12.6C39.9 12.9 40.3 13.8 39.8 14.4C39.3 15 39.3 15.5 38.7 16.2Z" fill="#FCCF7F"/>
<path d="M38.6999 12.4C38.6999 12.4 39.1999 12.3 39.6999 12.8C39.5999 12.4 39.2999 12.2 38.7999 12.1C38.3999 12.1 38.4999 12.4 38.6999 12.4Z" fill="#944921"/>
<path d="M35.8999 12.4C35.8999 12.4 35.3999 12.3 34.8999 12.8C34.9999 12.4 35.2999 12.2 35.7999 12.1C36.1999 12.1 36.0999 12.4 35.8999 12.4Z" fill="#944921"/>
<path d="M36.8998 14.3999C36.8998 14.3999 37.0998 14.5999 37.3998 14.4999C37.6998 14.4999 37.6998 14.2999 37.7998 14.3999C37.8998 14.4999 37.6998 14.6999 37.2998 14.6999C36.8998 14.6999 36.7998 14.5999 36.7998 14.4999C36.7998 14.3999 36.8998 14.3999 36.8998 14.3999Z" fill="#FCCF7F"/>
<path d="M36.2 15.1C36.2 15.1 37.2999 15.4 38.2999 15.1C38.1999 16.3 36.7 16.9 36.2 15.1Z" fill="#B55727"/>
<path d="M36.3 15.1C36.3 15.2 36.5001 15.5 37.2001 15.5C38.0001 15.5 38.2 15.3 38.3 15.1C37.4 15.4 36.5 15.2 36.3 15.1Z" fill="white"/>
<path d="M37.3 15.7C36.9 15.5 36.6 15.7 36.5 15.8C36.9 16.5 37.7 16.4 38.1 15.8C37.9 15.7 37.6 15.6 37.3 15.7Z" fill="#DE5A3C"/>
<path d="M38.2 13.3C38.2 13.3 38.4 12.6 38.9 12.7C39.5 12.7 39.5999 13.5 39.5999 13.5L38.2 13.3Z" fill="#FCCF7F"/>
<path d="M38.2 13.2999C38.2 13.2999 38.3 13.1999 38.5 13.0999C38.7 12.8999 39.2 12.7999 39.4 13.1999C39.6 13.4999 39.5999 13.4999 39.5999 13.4999C39.5999 13.4999 39.2999 13.6999 38.7999 13.6999C38.3999 13.5999 38.2 13.2999 38.2 13.2999Z" fill="white"/>
<path d="M39.1999 13.4C39.1999 13.6 38.9999 13.7 38.8999 13.7C38.6999 13.7 38.5999 13.5 38.5999 13.4C38.5999 13.3 38.7999 13.1 38.8999 13.1C39.0999 13 39.1999 13.2 39.1999 13.4Z" fill="#944921"/>
<path d="M39.0999 13.4C39.0999 13.5 39 13.6 38.9 13.6C38.8 13.6 38.7 13.5 38.7 13.4C38.7 13.3 38.8 13.2 38.9 13.2C39 13.2 39.0999 13.2 39.0999 13.4Z" fill="#723316"/>
<path d="M38.2 13.2999C38.2 13.2999 38.3999 13.2999 38.5999 13.1999C38.7999 13.0999 39.0999 13.0999 39.2999 13.3999C39.4999 13.5999 39.6 13.5999 39.7 13.5999C39.6 13.5999 39.5 13.4999 39.4 13.2999C39.3 13.0999 39 12.9999 38.7 12.9999C38.5 12.9999 38.2 13.2999 38.2 13.2999Z" fill="#723316"/>
<path d="M39 13.4999C39 13.5999 39 13.5999 39 13.4999C38.9 13.5999 38.8 13.4999 38.8 13.4999C38.9 13.4999 38.9 13.3999 39 13.4999Z" fill="white"/>
<path d="M36.4 13.3C36.4 13.3 36.2 12.6 35.7 12.7C35.1 12.7 35 13.5 35 13.5L36.4 13.3Z" fill="#FCCF7F"/>
<path d="M36.4 13.2999C36.4 13.2999 36.3 13.1999 36.1 13.0999C35.9 12.8999 35.4 12.7999 35.2 13.1999C35 13.4999 35 13.4999 35 13.4999C35 13.4999 35.3 13.6999 35.8 13.6999C36.3 13.5999 36.4 13.2999 36.4 13.2999Z" fill="white"/>
<path d="M35.3999 13.3999C35.3999 13.5999 35.5999 13.6999 35.6999 13.6999C35.8999 13.6999 35.9999 13.4999 35.9999 13.3999C35.9999 13.2999 35.8999 12.9999 35.6999 12.9999C35.5999 12.9999 35.3999 13.1999 35.3999 13.3999Z" fill="#944921"/>
<path d="M35.7 13.5998C35.8105 13.5998 35.9 13.5103 35.9 13.3998C35.9 13.2894 35.8105 13.1998 35.7 13.1998C35.5895 13.1998 35.5 13.2894 35.5 13.3998C35.5 13.5103 35.5895 13.5998 35.7 13.5998Z" fill="#723316"/>
<path d="M36.3999 13.2999C36.3999 13.2999 36.1999 13.2999 35.9999 13.1999C35.7999 13.0999 35.4999 13.0999 35.2999 13.3999C35.0999 13.5999 34.9999 13.5999 34.8999 13.5999C34.9999 13.5999 35.0999 13.4999 35.1999 13.2999C35.2999 13.0999 35.5999 12.9999 35.8999 12.9999C36.0999 12.9999 36.3999 13.2999 36.3999 13.2999Z" fill="#723316"/>
<path d="M35.6999 13.5999C35.7551 13.5999 35.7999 13.5551 35.7999 13.4999C35.7999 13.4447 35.7551 13.3999 35.6999 13.3999C35.6446 13.3999 35.5999 13.4447 35.5999 13.4999C35.5999 13.5551 35.6446 13.5999 35.6999 13.5999Z" fill="white"/>
<path d="M35.1999 11C35.1999 11 35.2999 11.8 34.7999 12.2C34.2999 12.6 33.9999 13.5 34.1999 14.1C33.8999 13.7 33.6999 13.5 33.3999 13.6C33.6999 12.4 33.0999 11.7 33.4999 10.4C33.8999 9.09996 35.6999 7.79996 37.3999 7.99996C39.1999 8.19996 39.7999 8.69996 39.9999 9.49996C40.0999 10.3 38.8999 11.8 37.0999 11.8C37.6999 11.6 38.0999 11.1 37.9999 10.8C37.3999 11.4 36.6999 11.5 36.2999 11.4C36.7999 11.3 37.1999 10.4 37.1999 10.4C36.0999 11.2 35.1999 11 35.1999 11Z" fill="#723316"/>
<path d="M39.2 10.7C39.2 10.7 39.1999 11.5 39.5999 11.9C39.9999 12.3 40.4999 13.6 40.2999 14.3C40.5999 13.7 41 13.7 41.2 13.7C40.8 12.4 41.4999 10.9 40.7999 10.1C40.0999 9.30001 39.4 9.50001 39.4 9.50001L39.2 10.7Z" fill="#723316"/>
<path d="M34.5 9.00002C34.5 9.00002 38.8 8.30002 41.1 11.7C41.7 10.5 40.6 8.60002 39.2 7.90002C37.4 7.00002 35.3 7.80002 34.5 9.00002Z" fill="#5ABCAA"/>
<path d="M35.7 8.90002C36.6 8.00002 38.2 7.60002 39.7 8.10002C39.6 8.00002 39.4 7.90002 39.3 7.90002C37.4 7.00002 35.3 7.80002 34.5 9.00002C34.5 9.00002 35 8.90002 35.7 8.90002Z" fill="#43AF9A"/>
<path d="M36.4998 18.6C36.4998 18.6 36.3998 21.4 36.4998 22C36.5998 22.6 37.1998 23 37.1998 23C37.1998 23 38.0998 22.5 38.1998 21.9C38.2998 21.4 38.3998 18.5 38.3998 18.5C38.3998 18.5 37.0998 19.1 36.4998 18.6Z" fill="#6AC6B4"/>
<path d="M35.9 17.2001L35.7 18C35.7 18 35.9999 18.7 37.0999 19C38.3999 19 39.3 18.3 39.4 17.9C39.4 17.6 39 16.8 39 16.8C39 16.8 38.8999 17.3 38.2999 17.5C37.4999 17.8 37.2999 18.6 37.2999 18.6C37.2999 18.6 37 17.4001 35.9 17.2001Z" fill="#74C9B9"/>
<path d="M13.7001 10.9C13.7001 10.9 13.3001 10.2 13.3001 9.79998C13.3001 9.39998 13.6001 8.89998 13.6001 8.39998C13.6001 7.79998 13.8001 7.49998 13.8001 7.19998C13.8001 6.89998 13.4001 6.89998 13.3001 7.19998C13.0001 7.49998 13.0001 7.99998 12.9001 8.19998C12.8001 8.39998 12.5001 7.29998 12.1001 6.79998C11.6001 6.29998 11.4001 6.39998 11.3001 6.49998C11.2001 6.59998 11.5001 6.89998 11.6001 6.99998C11.8001 7.19998 12.0001 7.59998 12.1001 7.79998C11.6001 7.29998 11.2001 6.89998 10.9001 6.89998C10.6001 6.89998 10.6001 7.09998 10.8001 7.29998C11.0001 7.49998 11.5001 7.79998 11.7001 8.19998C11.4001 7.89998 10.8001 7.49998 10.6001 7.49998C10.4001 7.49998 10.4001 7.69998 10.7001 7.89998C11.0001 8.09998 11.4001 8.39998 11.5001 8.49998C11.1001 8.19998 10.7001 7.99998 10.6001 7.99998C10.4001 7.99998 10.4001 8.19998 10.7001 8.39998C11.0001 8.49998 11.3001 8.99998 11.4001 9.29998C11.5001 9.69998 11.9001 9.79998 12.0001 9.89998C12.1001 9.99998 12.6001 11.6 12.6001 11.6L13.7001 10.9Z" fill="#FFDF99"/>
<path d="M12.8 11C12.7 10.8 12.3 10 12.5 9.90002C12.7 9.80002 12.8 9.80003 12.9 9.60003C12.9 9.60003 12.5 9.80002 12.1 9.80002C11.7 9.80002 11.5 9.40002 11.5 9.40002C11.6 9.70002 12 9.90002 12.1 10C12.2 10.1 12.4 10.8 12.6 11.3C12.7 11.2 12.9 11.1 12.8 11Z" fill="#FCCF7F"/>
<path d="M12.8 8.19995C12.8 8.19995 12.1 8.29995 12.2 9.19995C12.3 8.89995 12.5 8.39995 12.8 8.19995Z" fill="#FCCF7F"/>
<path d="M11.3 8.59995C11.3 8.59995 11.6 7.79995 12.4 7.69995C12.1 7.79995 11.5 8.19995 11.3 8.59995Z" fill="#FCCF7F"/>
<path d="M18.4999 39.9C18.4999 39.9 18.2999 40.6 18.2999 40.9C18.2999 41.2 18.5999 41.7 18.4999 42.2C18.3999 42.6 17.7999 42.5 17.2999 42.6C16.8999 42.6 15.0999 42.7 15.0999 42.7L14.8999 41.3C14.8999 41.3 15.9999 41.2 16.2999 40.9C16.5999 40.7 16.5999 39.9 16.5999 39.9H18.4999Z" fill="#FFDF99"/>
<path d="M18.4999 41.9C18.4999 41.5 18.2999 41.2 18.2999 40.9C18.2999 40.6 18.4999 39.9 18.4999 39.9H16.6999C16.6999 39.9 16.6999 40.4 16.5999 40.7C17.4999 40.4 18.1999 41.1 18.4999 41.9Z" fill="#FCCF7F"/>
<path d="M15.7999 42.5C15.7999 42.5 16.7999 42.5 17.4999 42.4C18.1999 42.3 18.3999 42.2 18.4999 42.4C18.5999 42.6 18.4999 42.8 17.9999 42.8C17.4999 42.8 15.9999 42.9 15.3999 43C14.7999 43.1 13.4999 43.2 12.9999 42.8C12.4999 42.4 12.8999 41.5 13.8999 41.3C14.8999 41.1 15.1999 41.1 15.1999 41.1C15.1999 41.1 15.9999 41.3 15.7999 42.5Z" fill="#8E4F21"/>
<path d="M22.9999 39.9C22.9999 39.9 23.1999 40.6 23.1999 40.9C23.1999 41.2 22.8999 41.7 22.9999 42.2C23.0999 42.6 23.6999 42.5 24.1999 42.6C24.5999 42.6 26.3999 42.7 26.3999 42.7L26.5999 41.3C26.5999 41.3 25.4999 41.2 25.1999 40.9C24.8999 40.7 24.8999 39.9 24.8999 39.9H22.9999Z" fill="#FFDF99"/>
<path d="M23 41.9C23 41.5 23.2 41.2 23.2 40.9C23.2 40.6 23 39.9 23 39.9H24.8C24.8 39.9 24.8 40.4 24.9 40.7C24.1 40.4 23.4 41.1 23 41.9Z" fill="#FCCF7F"/>
<path d="M25.6999 42.5C25.6999 42.5 24.6999 42.5 23.9999 42.4C23.2999 42.3 23.0999 42.2 22.9999 42.4C22.8999 42.6 22.9999 42.8 23.4999 42.8C23.9999 42.8 25.4999 42.9 26.0999 43C26.6999 43.1 27.9999 43.2 28.4999 42.8C28.9999 42.4 28.5999 41.5 27.5999 41.3C26.5999 41.1 26.2999 41.1 26.2999 41.1C26.2999 41.1 25.5999 41.3 25.6999 42.5Z" fill="#8E4F21"/>
<path d="M19.3 16.5C19.3 16.5 16 15.2 13.8 9.59998C12.2 9.99998 11.5 11.3 11.5 11.3C11.5 11.3 13.1 15.7 16.6 18.8C17.2 19.8 16.5 21 16.9 25.5C17.2 28.5 14.8 39.3 14.8 40C19 41.1 24.4 41.1 27.5 39.6C26.3 37 25.3 31.3 25.1 27.4C24.9 23.5 26.3 20 26.6 19.7C25.8 18.5 24.2 17.9 24.2 17.9L19.3 16.5Z" fill="#FECF0A"/>
<path d="M12 12.4C12.1 12.1 12.4 11.5 12.9 11.2C13.4 10.8 14 10.7 14.2 10.6C14.1 10.4 14 10.2 14 10C13.8 10.1 13.1 10.3 12.5 10.8C12 11.2 11.8 11.6 11.7 11.8C11.8 12 11.9 12.2 12 12.4Z" fill="#FEED55"/>
<path d="M16.9998 24.1C16.8998 23.1 16.8998 22.3 16.7998 21.6C16.7998 22.5 16.7998 23.6 16.9998 25C16.9998 25.1 16.9998 25.1 16.9998 25.2C16.9998 24.8 16.9998 24.4 16.9998 24.1Z" fill="#FECF0A"/>
<path d="M27.3999 39.0999C27.2999 38.8999 27.1999 38.5999 27.0999 38.2999C23.9999 39.5999 18.9999 39.5999 15.0999 38.5999C14.9999 38.9999 14.9999 39.2999 14.8999 39.4999C19.0999 40.5999 24.2999 40.4999 27.3999 39.0999Z" fill="#FEED55"/>
<path d="M18.7 40.6C19.9 40.7 21.1999 40.7 22.2999 40.7C22.1999 39.2 21.7999 35 21.7999 33.6C21.7999 31.8 21.3 28.3 20.4 30.2C19.5 32.1 19.2 34.9 19 37.9C18.9 39.4 18.8 40.2 18.7 40.6Z" fill="#FEBC11"/>
<path d="M19.3 16.5C19.2 16.5 19.2 16.5 19.3 16.5C19.1 16.4 18.5 16.1 17.8 15.5C16.7 15.7 16 16.8 15.8 17.9C15.9 18 15.9 18.1 16 18.1C16.1 18.2 16.1 18.2 16.2 18.3C16.3 18.4 16.3 18.4 16.4 18.5C16.5 18.6 16.6 18.6 16.6 18.7C17.2 19.7 16.5 20.9 16.9 25.4C17 26.1 16.9 27.3 16.7 28.6C17.8 26.5 19.4 26.1 20 25.9L20.4 28C21.4 27.5 21.7 27.4 22.5 27.3C23.6 27.2 24.4 27.7 25.1 28.4C25.1 28.3 25.1 28.2 25.1 28.1V28C25.1 27.9 25.1 27.9 25.1 27.8V27.7C25.1 27.6 25.1 27.5 25.1 27.4C24.9 23.5 26.3 20 26.6 19.7C25.8 18.5 24.2 17.9 24.2 17.9L19.3 16.5Z" fill="#FEBC11"/>
<path d="M26.7 19.5999C26.7 19.5999 28.1 21.7999 28.8 24.1999C29 26.0999 27 26.7999 26.3 25.9999C25.6 25.1999 25.6 24.4999 25.2 22.9999C24.8 21.4999 25 20.1999 25.6 19.5999C26.1 18.8999 26.7 19.5999 26.7 19.5999Z" fill="#FECF0A"/>
<path d="M27.5 21.0999C27 20.1999 26.7 19.5999 26.7 19.5999C26.7 19.5999 26.1 18.8999 25.6 19.5999C25 20.2999 24.8 21.4999 25.2 22.9999C25.2 23.1999 25.3 23.2999 25.3 23.4999C25.6 22.2999 26.2 21.0999 27.5 21.0999Z" fill="#FEBC11"/>
<path d="M18.4999 14.2999C18.4999 14.2999 18.4999 14.9999 17.6999 15.4999C16.8999 15.9999 15.8999 17.3999 17.1999 20.3999C18.0999 22.3999 16.5999 24.5999 15.3999 25.2999C20.7999 26.8999 23.7999 23.1999 24.5999 21.9999C25.2999 20.7999 26.8999 20.5999 27.3999 20.8999C27.1999 19.3999 25.8999 18.5999 25.6999 17.9999C25.4999 17.4999 25.4999 17.2999 25.7999 16.8999C24.8999 17.1999 18.4999 14.2999 18.4999 14.2999Z" fill="#CD7B29"/>
<path d="M18.5 14.2999C18.5 14.2999 18.5 14.9999 17.7 15.4999C16.9 15.9999 16.4 16.6999 17.5 19.6999C18.6 22.5999 17.5 24.2999 16.2 24.9999C20.5 25.8999 23.9999 22.3999 24.7999 21.1999C25.4999 19.9999 27 19.9999 27.4 20.8999C27.2 19.3999 25.9 18.5999 25.7 17.9999C25.5 17.4999 25.4999 17.2999 25.7999 16.8999C24.9 17.1999 18.5 14.2999 18.5 14.2999Z" fill="#E99723"/>
<path d="M23.1999 10.6C23.1999 10.6 21.4999 10.2 20.0999 12C18.7999 13.5 19.1999 16.3 21.0999 17.2C22.9999 18.2 25.0999 16.8 25.6999 15.3C26.4999 13.4 25.6999 11.1 23.1999 10.6Z" fill="#FFDF99"/>
<path d="M25.6 14.2999C25.6 14.2999 25.2 12.8999 23.9 12.2999C22.7 11.6999 21.3 11.8999 20.9 12.0999C20.5 12.3999 20.3 12.6999 20.2 13.4999C20.1 14.2999 19.8 16.0999 21.2 17.1999C19.3 16.0999 18.5 13.8999 19.3 12.5999C20.1 11.2999 21.2 9.69995 22.7 9.99995C24.3 10.2999 26.2 12.0999 26.3 12.8999C26.6 13.6999 25.6 14.2999 25.6 14.2999Z" fill="#FCCF7F"/>
<path d="M24.2998 13.5C24.2998 13.5 24.7998 13.4 25.2998 14C25.1998 13.6 24.8998 13.3 24.4998 13.3C23.9998 13.2 24.0998 13.6 24.2998 13.5Z" fill="#944921"/>
<path d="M21.8999 12.5C21.8999 12.5 21.5999 12.1 20.8999 12.1C21.1999 11.9 21.5999 11.9 21.9999 12.2C22.2999 12.5 21.9999 12.7 21.8999 12.5Z" fill="#944921"/>
<path d="M21.9 14.7C21.9 14.7 21.9999 14.9 22.2999 15C22.4999 15.1 22.7 14.9 22.7 15.1C22.8 15.2 22.5 15.3 22.1 15.2C21.7 15 21.7 14.9 21.7 14.8C21.8 14.6 21.9 14.6 21.9 14.7Z" fill="#FCCF7F"/>
<path d="M23.6001 14.2999C23.6001 14.2999 23.8001 13.6999 24.4001 13.7999C25.0001 13.8999 25.0001 14.6999 25.0001 14.6999L23.6001 14.2999Z" fill="#FCCF7F"/>
<path d="M23.6001 14.2999C23.6001 14.2999 23.7001 14.1999 23.9001 14.1999C24.2001 14.0999 24.6001 13.9999 24.8001 14.4999C24.9001 14.7999 25.0001 14.7999 25.0001 14.7999C25.0001 14.7999 24.7001 14.9999 24.2001 14.8999C23.7001 14.6999 23.6001 14.2999 23.6001 14.2999Z" fill="white"/>
<path d="M24.6001 14.6C24.6001 14.8 24.4001 14.9 24.2001 14.9C24.0001 14.9 23.9001 14.7 23.9001 14.5C23.9001 14.3 24.1001 14.2 24.3001 14.2C24.5001 14.2 24.6001 14.4 24.6001 14.6Z" fill="#944921"/>
<path d="M24.4002 14.4999C24.4002 14.5999 24.3002 14.6999 24.2002 14.6999C24.1002 14.6999 24.0002 14.5999 24.0002 14.4999C24.0002 14.3999 24.1002 14.2999 24.2002 14.2999C24.4002 14.2999 24.4002 14.3999 24.4002 14.4999Z" fill="#723316"/>
<path d="M23.6001 14.2999C23.6001 14.2999 23.8001 14.2999 24.0001 14.1999C24.2001 14.0999 24.5001 14.1999 24.7001 14.4999C24.9001 14.6999 25.0001 14.7999 25.1001 14.6999C25.0001 14.6999 24.9001 14.5999 24.8001 14.2999C24.7001 13.9999 24.4001 13.8999 24.2001 13.9999C23.9001 14.0999 23.6001 14.2999 23.6001 14.2999Z" fill="#723316"/>
<path d="M24.3001 14.6999C24.2001 14.7999 24.1001 14.6999 24.1001 14.6999C24.2001 14.5999 24.2001 14.5999 24.3001 14.6999C24.3001 14.5999 24.3001 14.5999 24.3001 14.6999Z" fill="white"/>
<path d="M21.8 13.5C21.8 13.5 22.1 12.9 21.6 12.6C21.1 12.3 20.5 12.8 20.5 12.8L21.8 13.5Z" fill="#FCCF7F"/>
<path d="M21.8 13.5C21.8 13.5 21.8 13.4 21.7 13.2C21.6 12.9 21.4 12.6 20.9 12.8C20.6 12.9 20.5 12.9 20.5 12.9C20.5 12.9 20.6 13.3 21 13.5C21.5 13.7 21.8 13.5 21.8 13.5Z" fill="white"/>
<path d="M21 13C20.9 13.1 20.9 13.4 21.1 13.5C21.2 13.6 21.5 13.6 21.6 13.4C21.7 13.3 21.7 13 21.5 12.9C21.3 12.8 21.1 12.8 21 13Z" fill="#944921"/>
<path d="M21.0999 13.1C20.9999 13.2 20.9999 13.3 21.0999 13.4C21.1999 13.5 21.2999 13.5 21.3999 13.4C21.4999 13.3 21.4999 13.2 21.3999 13.1C21.2999 13 21.1999 13 21.0999 13.1Z" fill="#723316"/>
<path d="M21.7999 13.5C21.7999 13.5 21.6999 13.4 21.5999 13.1C21.4999 12.9 21.2999 12.8 20.8999 12.8C20.5999 12.8 20.4999 12.8 20.3999 12.7C20.4999 12.7 20.5999 12.8 20.8999 12.7C21.1999 12.6 21.3999 12.7 21.5999 12.9C21.7999 13.1 21.7999 13.5 21.7999 13.5Z" fill="#723316"/>
<path d="M21.0999 13.2V13.3H21.1999V13.2C21.0999 13.2 21.0999 13.2 21.0999 13.2Z" fill="white"/>
<path d="M20.1001 12.2C20.1001 12.2 21.7001 11 23.6001 11.7C25.4001 12.4 25.8001 15 25.8001 15C25.8001 15 26.8001 12.6 25.0001 11.3C23.2001 9.99996 21.1001 10.2 20.1001 12.2Z" fill="white"/>
<path d="M27.0001 13C26.9001 9.99997 24.1001 8.69997 21.8001 9.49997C19.9001 10.2 18.8001 11.6 18.5001 14C18.1001 17 20.6001 18.6 20.6001 18.6C25.2001 19.3 27.1001 16 27.0001 13ZM25.3001 15.4C24.9001 16.2 23.0001 17.7 21.3001 17.3C21.2001 17.3 21.2001 17.3 21.1001 17.2C20.8001 17 20.0001 16.3 19.8001 14.9C19.6001 13.2 20.3001 11.8 21.3001 11.1C22.3001 10.3 24.3001 10.5 25.2001 12.1C25.9001 13.2 25.7001 14.6 25.3001 15.4Z" fill="#E99723"/>
<path d="M25.6001 17.0999C25.6001 17.0999 25.0001 16.8999 24.0001 17.2999C23.0001 17.7999 21.9001 18.0999 20.9001 17.5999C21.5001 18.0999 22.0001 18.2999 23.2001 17.9999C24.4001 17.6999 24.8001 16.9999 25.6001 17.0999Z" fill="#CD7B29"/>
<path d="M18.5 14.4C18.5 14.4 18.2 16.2 19.3 17.6C20.4 19.1 21.7 19.1 22.7 18.5C23.8 18 24.7 17.5 25.7 18.1C25.2 18 23.9 18.1 23 19C22 19.9 20 19.7 18.8 18.2C17.6 16.8 18.5 14.4 18.5 14.4Z" fill="#CD7B29"/>
<path d="M25.2 10.7C25.2 10.7 26.2 13.3 25.5 15.1C26 14 26.5 12.9 25.2 10.7Z" fill="#CD7B29"/>
<path d="M21.2 15.2999C21.2 15.2999 21.9 15.7999 22.6 15.8999C22.2 16.6999 21 16.6999 21.2 15.2999Z" fill="#B55727"/>
<path d="M21.3 15.2999C21.3 15.3999 21.3 15.5999 21.8 15.8999C22.4 16.0999 22.5001 15.9999 22.7001 15.8999C22.0001 15.7999 21.4 15.3999 21.3 15.2999Z" fill="white"/>
<path d="M21.7999 15.9999C21.5999 15.7999 21.3 15.7999 21.2 15.7999C21.3 16.3999 21.8999 16.4999 22.2999 16.1999C22.1999 16.1999 22.0999 15.9999 21.7999 15.9999Z" fill="#DE5A3C"/>
<path d="M19.3 19.8999L25 18.7999L26 25.8999L20.5 26.9999L18.8 20.2999L19.3 19.8999Z" fill="#9FA137"/>
<path d="M19.3001 19.9999L24.9001 18.8999L25.8001 25.9999L25.4001 26.2999L20.5001 27.0999L18.9001 20.3999L19.3001 19.9999Z" fill="white"/>
<path d="M18.8 20.2999L24.6 19.2L25.5 26.4L20 27.4L18.8 20.2999Z" fill="#ACB337"/>
<path d="M25.4 25.8999C23.4 25.3999 21.5 24.6999 19.5 24.3999L19.8 25.9999C20.9 26.6999 22.3 26.6999 23.6 26.5999L25.5 26.1999L25.4 25.8999Z" fill="#9EA037"/>
<path d="M21.3 25.4999C21.3 25.4999 20.9 25.3999 20.6 25.2999C20.3 25.1999 20 25.3999 19.5 25.0999C18.9 24.6999 18.5 23.1999 19.2 22.5999C19.3 23.0999 19.8 23.1999 20 23.1999C20.2 23.1999 20.3 23.0999 20 22.7999C19.7 22.4999 19.6 22.1999 19.7 21.9999C19.8 21.7999 20 21.8999 20 21.8999C20 21.8999 20.4 22.3999 20.6 22.5999C20.8 22.7999 20.8 23.1999 20.9 23.2999C21 23.3999 21.2 23.5999 21.2 23.5999L21.3 25.4999Z" fill="#FCCF7F"/>
<path d="M21.3 25.4999C21.3 25.4999 20.9 25.3999 20.6 25.2999C20.3 25.1999 20 25.3999 19.5 25.0999C18.9 24.6999 18.5 23.1999 19.2 22.5999C19.3 23.0999 19.9 23.2999 20.1 23.2999C20.3 23.2999 20.4 23.0999 20.1 22.6999C19.8 22.3999 19.6 22.1999 19.7 21.9999C19.8 21.7999 20 21.8999 20 21.8999C20 21.8999 20.4 22.3999 20.6 22.5999C20.8 22.7999 20.8 23.1999 20.9 23.2999C21 23.3999 21.2 23.5999 21.2 23.5999L21.3 25.4999Z" fill="#FFDF99"/>
<path d="M21.4999 23.6999C21.4999 23.6999 21.2999 23.5999 21.1999 23.4999C20.6999 23.8999 20.5999 24.6999 20.7999 25.3999C21.0999 25.4999 21.3999 25.5999 21.3999 25.5999L21.4999 23.6999Z" fill="#FCCF7F"/>
<path d="M18.8999 23.0999C18.8999 23.0999 18.7999 23.4999 19.1999 23.6999C18.9999 23.6999 18.7999 23.3999 18.8999 23.0999Z" fill="#FCCF7F"/>
<path d="M18.8999 23.7999C18.8999 23.7999 18.9999 24.1999 19.3999 24.1999C19.1999 24.2999 18.8999 24.1999 18.8999 23.7999Z" fill="#FCCF7F"/>
<path d="M19 24.3999C19 24.3999 19.2 24.7999 19.6 24.6999C19.4 24.7999 19.1 24.6999 19 24.3999Z" fill="#FCCF7F"/>
<path d="M28.3001 23.4999C28.3001 23.4999 23.8001 24.1999 21.4001 23.4999C20.6001 24.7999 21.3001 25.9999 21.3001 25.9999C21.3001 25.9999 24.3001 26.7999 26.8001 26.5999C29.3001 26.2999 29.0001 23.7999 28.3001 23.4999Z" fill="#FECF0A"/>
<path d="M22.4999 23.6999C22.2999 23.6999 22.0999 23.6999 21.9999 23.5999C21.9999 23.5999 21.3999 24.3999 21.8999 26.0999C22.0999 26.0999 22.2999 26.1999 22.4999 26.1999C22.3999 25.7999 22.1999 24.7999 22.4999 23.6999Z" fill="#FEED55"/>
<path d="M25.7 23.6999C25.7 23.6999 27.2999 23.6999 27.7999 23.7999C28.2999 23.9999 27.6 23.2999 25.7 23.6999Z" fill="#FEBC11"/>
<path d="M21.1001 17.2C20.8001 17 20.0001 16.3 19.8001 14.9C19.6001 13.5 20.0001 12.3 20.8001 11.5C21.2001 10.9 22.4001 9.90004 24.2001 9.90004C21.6001 9.50004 19.4001 11.1 19.5001 13.8C19.7001 16.6 21.1001 17.2 21.1001 17.2Z" fill="#CD7B29"/>
</g>
<defs>
<clipPath id="clip0_124_1841">
<rect width="62" height="47" rx="6" fill="white"/>
</clipPath>
</defs>
</svg>
